<?xml version="1.0" encoding="utf-8"?>
<!-- Generator: Adobe Illustrator 24.0.0, SVG Export Plug-In . SVG Version: 6.00 Build 0)  -->
<svg version="1.1" id="Layer_1" xmlns="http://www.w3.org/2000/svg" xmlns:xlink="http://www.w3.org/1999/xlink" x="0px" y="0px"
	 viewBox="0 0 200 200" style="enable-background:new 0 0 200 200;" xml:space="preserve">
<style type="text/css">
	.st0{fill:#FF0099;}
	.st1{fill:#00FFDD;}
</style>
<g>
	<g>
		<polygon points="86.9,58.2 33.9,23.7 33.9,95 44.8,88.8 44.8,42.2 76.9,64.4 		"/>
		<path class="st0" d="M33.9,95.4c-0.1,0-0.1,0-0.2-0.1c-0.1-0.1-0.2-0.2-0.2-0.4V23.7c0-0.2,0.1-0.3,0.2-0.4c0.1-0.1,0.3-0.1,0.4,0
			l53,34.5c0.1,0.1,0.2,0.2,0.2,0.4c0,0.1-0.1,0.3-0.2,0.4l-10,6.2c-0.1,0.1-0.3,0.1-0.5,0L45.2,43v45.8c0,0.2-0.1,0.3-0.2,0.4
			l-10.8,6.1C34.1,95.4,34,95.4,33.9,95.4z M34.4,24.5v69.8l10-5.7V42.2c0-0.2,0.1-0.3,0.2-0.4c0.1-0.1,0.3-0.1,0.4,0l31.9,22
			l9.2-5.7L34.4,24.5z"/>
	</g>
	<g>
		<polygon class="st1" points="38.3,88.4 102,6.3 166.1,84.9 		"/>
	</g>
	<g>
		<polygon points="46.6,152.1 69.3,136.2 76.9,142.5 50.8,160.4 		"/>
		<path class="st0" d="M50.6,161l-4.5-9.1l23.2-16.4l8.3,6.9L50.6,161z M47.2,152.3l3.8,7.6l25.3-17.4l-7-5.8L47.2,152.3z"/>
	</g>
	<g>
		<line x1="102.8" y1="184.7" x2="102.8" y2="193.2"/>
		<path class="st0" d="M102.8,193.5c-0.2,0-0.3-0.1-0.3-0.3v-8.5c0-0.2,0.1-0.3,0.3-0.3s0.3,0.1,0.3,0.3v8.5
			C103.1,193.4,103,193.5,102.8,193.5z"/>
	</g>
	<g>
		<path d="M167.4,153c-2.1,0.4-64.5,40.2-64.5,40.2l-56.2-31.5v-9.6l56.2,32.6l60.6-40.2L167.4,153z"/>
		<path class="st0" d="M102.8,193.7l-0.2-0.1L46.2,162v-10.6l56.6,32.8l60.8-40.3l4.4,9.4l-0.5,0.1c-2,0.5-47.2,29.2-64.4,40.2
			L102.8,193.7z M47,161.5l55.8,31.3c7-4.5,58.2-37.1,64-40l-3.6-7.7l-60.4,40.1L47,152.8V161.5z"/>
	</g>
	<g>
		<polygon points="193.6,55.7 182,67.5 144.5,53.1 163.4,35.4 		"/>
		<path class="st0" d="M182,68c-0.1,0-0.1,0-0.2,0l-37.5-14.4c-0.1-0.1-0.2-0.2-0.3-0.3c0-0.1,0-0.3,0.1-0.4l18.9-17.7
			c0.1-0.1,0.4-0.2,0.5,0l30.2,20.3c0.1,0.1,0.2,0.2,0.2,0.3c0,0.1,0,0.2-0.1,0.3l-11.6,11.8C182.3,67.9,182.2,68,182,68z M145.3,53
			l36.7,14.1l11-11.3l-29.5-19.8L145.3,53z"/>
	</g>
	<g>
		<polyline points="38.3,101.2 10.6,117.5 20.7,123.8 43.3,110.2 38.3,106.9 50.8,115 		"/>
		<path class="st0" d="M20.7,124.2c-0.1,0-0.2,0-0.2-0.1l-10.1-6.3c-0.1-0.1-0.2-0.2-0.2-0.4c0-0.1,0.1-0.3,0.2-0.4l27.7-16.3
			c0.2-0.1,0.5-0.1,0.6,0.1c0.1,0.2,0.1,0.5-0.1,0.6l-27.1,16l9.3,5.8l21.9-13.2l-4.5-2.9c-0.2-0.1-0.3-0.4-0.1-0.6
			c0.1-0.2,0.4-0.2,0.6-0.1l5.1,3.3c0,0,0,0,0,0l7.4,4.8c0.2,0.1,0.3,0.4,0.1,0.6c-0.1,0.2-0.4,0.2-0.6,0.1l-7.2-4.7l-22.4,13.5
			C20.8,124.2,20.8,124.2,20.7,124.2z"/>
	</g>
	<g>
		<polygon points="32.7,64.6 167.4,153 167.8,143.7 20.7,47.4 20.7,57.2 		"/>
		<path class="st0" d="M167.4,153.4c-0.1,0-0.2,0-0.2-0.1L32.5,65l-12-7.4c-0.1-0.1-0.2-0.2-0.2-0.4v-9.9c0-0.2,0.1-0.3,0.2-0.4
			c0.1-0.1,0.3-0.1,0.4,0L168,143.4c0.1,0.1,0.2,0.2,0.2,0.4l-0.4,9.2c0,0.2-0.1,0.3-0.2,0.4C167.5,153.4,167.4,153.4,167.4,153.4z
			 M21.1,57L33,64.3c0,0,0,0,0,0l134,87.9l0.4-8.3L21.1,48.2V57z"/>
	</g>
	<g>
		<polygon points="102.8,167.5 38.3,129.6 102.8,89.4 167.4,129.6 		"/>
		<path class="st0" d="M102.8,167.9l-65.4-38.3l65.4-40.7l0.2,0.1l65.1,40.5L102.8,167.9z M39.1,129.6l63.7,37.4l63.7-37.4
			l-63.7-39.6L39.1,129.6z"/>
	</g>
	<g>
		<polygon points="102.8,48.3 38.3,88.4 38.3,106.9 58.5,94.9 58.5,110.4 38.3,122.3 38.3,129.6 102.8,89.4 167.4,129.6 167.4,88.4 
					"/>
		<path class="st0" d="M167.4,130c-0.1,0-0.2,0-0.2-0.1l-64.3-40l-64.3,40c-0.1,0.1-0.3,0.1-0.4,0c-0.1-0.1-0.2-0.2-0.2-0.4v-7.2
			c0-0.1,0.1-0.3,0.2-0.4l20.1-11.8V95.7l-19.6,11.6c-0.1,0.1-0.3,0.1-0.4,0c-0.1-0.1-0.2-0.2-0.2-0.4V88.4c0-0.1,0.1-0.3,0.2-0.4
			l64.5-40.1c0.1-0.1,0.3-0.1,0.4,0l64.5,40.1c0.1,0.1,0.2,0.2,0.2,0.4v41.2c0,0.2-0.1,0.3-0.2,0.4C167.5,130,167.4,130,167.4,130z
			 M102.8,89c0.1,0,0.2,0,0.2,0.1l63.9,39.7V88.6l-64.1-39.9L38.7,88.6v17.5l19.6-11.6c0.1-0.1,0.3-0.1,0.4,0
			c0.1,0.1,0.2,0.2,0.2,0.4v15.5c0,0.1-0.1,0.3-0.2,0.4l-20.1,11.8v6.3l63.9-39.7C102.7,89,102.7,89,102.8,89z"/>
	</g>
	<g>
		<polygon points="164.6,44.8 171.5,61 190.3,72.7 181.5,107.4 164,118.9 138.1,103.4 149.2,96.3 		"/>
		<path class="st0" d="M164,119.3c-0.1,0-0.1,0-0.2-0.1l-26-15.5c-0.1-0.1-0.2-0.2-0.2-0.4c0-0.1,0.1-0.3,0.2-0.4l11-6.9l15.3-51.4
			c0.1-0.2,0.2-0.3,0.4-0.3c0.2,0,0.3,0.1,0.4,0.3l6.9,16.1l18.7,11.6c0.2,0.1,0.2,0.3,0.2,0.5l-8.8,34.7c0,0.1-0.1,0.2-0.2,0.2
			l-17.5,11.5C164.2,119.3,164.1,119.3,164,119.3z M138.9,103.4l25.2,15l17.1-11.3l8.7-34.3l-18.5-11.5c-0.1,0-0.1-0.1-0.2-0.2
			L164.6,46l-15,50.5c0,0.1-0.1,0.2-0.2,0.2L138.9,103.4z M149.2,96.3L149.2,96.3L149.2,96.3z"/>
	</g>
	<g>
		<polygon class="st0" points="118.6,68.7 118.6,57.7 116.7,56.6 116.7,60 114.9,61.1 113.2,58.3 113.2,54.5 110.9,53.1 110.9,57.4 
			109.1,58.5 107.4,55.7 107.4,51 105.5,49.9 105.5,60.2 		"/>
	</g>
	<g>
		<polygon points="140.8,53.7 108.6,73.8 115.4,78.8 128.4,71.4 		"/>
	</g>
	<g>
		<polygon points="149.1,62 123.9,75.4 132.2,80.8 145.3,74.4 		"/>
	</g>
	<g>
		<polyline points="112.2,64.4 105.8,60.4 105.8,78 118.2,85.8 118.2,77.9 		"/>
		<path class="st0" d="M118.2,86.2c-0.1,0-0.2,0-0.2-0.1l-12.4-7.9c-0.1-0.1-0.2-0.2-0.2-0.4V60.4c0-0.2,0.1-0.3,0.2-0.4
			c0.1-0.1,0.3-0.1,0.4,0l6.4,3.9l-0.4,0.7l-5.8-3.5v16.5l11.6,7.3v-7.2h0.8v8c0,0.2-0.1,0.3-0.2,0.4
			C118.4,86.2,118.3,86.2,118.2,86.2z"/>
	</g>
	<g>
		<polygon points="174.7,51 159.1,100.2 83,144.5 76.8,139.9 84.2,131.5 141,98.3 156.2,54.5 164.6,44.8 		"/>
		<path class="st0" d="M83,144.9c-0.1,0-0.2,0-0.2-0.1l-6.2-4.5c-0.1-0.1-0.2-0.2-0.2-0.3c0-0.1,0-0.2,0.1-0.3l7.4-8.5
			c0,0,0.1-0.1,0.1-0.1L140.7,98l15.2-43.6c0,0,0-0.1,0.1-0.1l8.4-9.7c0.1-0.2,0.4-0.2,0.5-0.1l10.1,6.2c0.2,0.1,0.2,0.3,0.2,0.5
			l-15.6,49.2c0,0.1-0.1,0.2-0.2,0.2l-76.1,44.3C83.1,144.9,83,144.9,83,144.9z M77.4,139.9L83,144l75.7-44.1l15.5-48.7l-9.5-5.9
			l-8.1,9.4l-15.2,43.7c0,0.1-0.1,0.2-0.2,0.2l-56.8,33.2L77.4,139.9z"/>
	</g>
	<g>
		<polygon points="76.8,139.9 76.7,132 139.3,93.8 149.6,61.7 141.2,66.5 124.7,76.2 142,52.8 108.3,74 108.4,66.9 164,30 
			164.1,38.6 149.4,54.6 164.6,44.8 148.6,97.1 		"/>
		<path class="st0" d="M76.8,140.3c-0.1,0-0.1,0-0.2-0.1c-0.1-0.1-0.2-0.2-0.2-0.4l0-7.9c0-0.1,0.1-0.3,0.2-0.4L139,93.5l9.9-30.9
			l-7.5,4.3l-16.5,9.7c-0.2,0.1-0.4,0.1-0.5-0.1c-0.1-0.1-0.1-0.4,0-0.5l15.9-21.6l-31.8,20c-0.1,0.1-0.3,0.1-0.4,0
			c-0.1-0.1-0.2-0.2-0.2-0.4l0.1-7.1c0-0.1,0.1-0.3,0.2-0.3l55.6-36.9c0.1-0.1,0.3-0.1,0.4,0c0.1,0.1,0.2,0.2,0.2,0.4l0.1,8.7
			c0,0.1,0,0.2-0.1,0.3l-12.5,13.5l12.4-8c0.1-0.1,0.3-0.1,0.5,0c0.1,0.1,0.2,0.3,0.1,0.5l-16,52.3c0,0.1-0.1,0.2-0.2,0.2L77,140.3
			C76.9,140.3,76.9,140.3,76.8,140.3z M77.2,132.2l0,7l71.1-42.4l15.6-51.1L149.6,55c-0.2,0.1-0.4,0.1-0.5-0.1
			c-0.1-0.2-0.1-0.4,0-0.6l14.6-15.9l-0.1-7.7l-54.8,36.4l-0.1,6.1l33-20.8c0.2-0.1,0.4-0.1,0.5,0.1c0.1,0.1,0.1,0.4,0,0.5l-16,21.7
			l14.7-8.6l8.4-4.8c0.2-0.1,0.3-0.1,0.5,0c0.1,0.1,0.2,0.3,0.1,0.5l-10.3,32.1c0,0.1-0.1,0.2-0.2,0.2L77.2,132.2z"/>
	</g>
	<g>
		<polygon points="193.6,55.7 164.1,38.6 164,30 193.6,46.6 		"/>
		<path class="st0" d="M193.6,56.1c-0.1,0-0.1,0-0.2-0.1L163.9,39c-0.1-0.1-0.2-0.2-0.2-0.4l-0.1-8.7c0-0.1,0.1-0.3,0.2-0.4
			c0.1-0.1,0.3-0.1,0.4,0l29.6,16.7c0.1,0.1,0.2,0.2,0.2,0.4v9.1c0,0.1-0.1,0.3-0.2,0.4C193.8,56.1,193.7,56.1,193.6,56.1z
			 M164.5,38.4L193.2,55v-8.1l-28.7-16.2L164.5,38.4z"/>
	</g>
	<g>
		<polyline points="108.3,74 115.9,79.1 128.6,70.9 		"/>
		<path class="st0" d="M115.9,79.5c-0.1,0-0.2,0-0.2-0.1l-7.6-5.1c-0.2-0.1-0.2-0.4-0.1-0.6c0.1-0.2,0.4-0.2,0.6-0.1l7.4,4.9
			l12.5-8.1c0.2-0.1,0.5-0.1,0.6,0.1c0.1,0.2,0.1,0.5-0.1,0.6l-12.8,8.2C116,79.5,116,79.5,115.9,79.5z"/>
	</g>
	<g>
		<polyline points="124.7,76.2 133,81.5 145.3,74.4 		"/>
		<path class="st0" d="M133,82c-0.1,0-0.2,0-0.2-0.1l-8.3-5.4c-0.2-0.1-0.2-0.4-0.1-0.6c0.1-0.2,0.4-0.2,0.6-0.1L133,81l12-7
			c0.2-0.1,0.5-0.1,0.6,0.2c0.1,0.2,0,0.5-0.2,0.6l-12.2,7.2C133.2,81.9,133.1,82,133,82z"/>
	</g>
	<g>
		<polygon points="20.7,57.2 20.7,59.8 7.4,52.3 7.4,56.6 14.3,60.4 15.2,62.9 12.9,63.6 7.4,60.5 7.4,62.8 14.3,66.6 15.2,69.1 
			12.9,69.8 7.4,66.7 7.4,69.1 14.3,73 15.2,75.5 12.9,76.2 7.4,73.1 7.4,76.3 20.7,83.9 20.7,102.8 30.7,105.6 30.7,63.6 		"/>
		<path class="st0" d="M30.7,106.1c0,0-0.1,0-0.1,0l-10-2.9c-0.2-0.1-0.3-0.2-0.3-0.4V84.1L7.1,76.7c-0.1-0.1-0.2-0.2-0.2-0.4v-3.2
			c0-0.1,0.1-0.3,0.2-0.4c0.1-0.1,0.3-0.1,0.4,0l5.4,3l1.7-0.5L14,73.3l-6.8-3.8c-0.1-0.1-0.2-0.2-0.2-0.4v-2.4
			c0-0.1,0.1-0.3,0.2-0.4c0.1-0.1,0.3-0.1,0.4,0l5.4,3l1.7-0.5L14,66.9l-6.8-3.8c-0.1-0.1-0.2-0.2-0.2-0.4v-2.3
			c0-0.1,0.1-0.3,0.2-0.4c0.1-0.1,0.3-0.1,0.4,0l5.4,3l1.7-0.5L14,60.7l-6.8-3.8c-0.1-0.1-0.2-0.2-0.2-0.4v-4.3
			c0-0.1,0.1-0.3,0.2-0.4c0.1-0.1,0.3-0.1,0.4,0l12.7,7.2v-1.8c0-0.2,0.1-0.3,0.2-0.4c0.1-0.1,0.3-0.1,0.4,0l10,6.4
			c0.1,0.1,0.2,0.2,0.2,0.4v42c0,0.1-0.1,0.3-0.2,0.3C30.9,106,30.8,106.1,30.7,106.1z M21.1,102.5l9.2,2.6V63.9L21.1,58v1.8
			c0,0.1-0.1,0.3-0.2,0.4c-0.1,0.1-0.3,0.1-0.4,0L7.8,53v3.4l6.7,3.7c0.1,0,0.2,0.1,0.2,0.2l0.9,2.5c0,0.1,0,0.2,0,0.3
			c-0.1,0.1-0.1,0.2-0.3,0.2L13,64c-0.1,0-0.2,0-0.3,0l-4.9-2.7v1.3l6.7,3.7c0.1,0,0.2,0.1,0.2,0.2l0.9,2.5c0,0.1,0,0.2,0,0.3
			c-0.1,0.1-0.1,0.2-0.3,0.2L13,70.2c-0.1,0-0.2,0-0.3,0l-4.9-2.7v1.5l6.7,3.7c0.1,0,0.2,0.1,0.2,0.2l0.9,2.5c0,0.1,0,0.2,0,0.3
			c-0.1,0.1-0.1,0.2-0.3,0.2L13,76.6c-0.1,0-0.2,0-0.3,0l-4.9-2.7v2.3l13.1,7.4c0.1,0.1,0.2,0.2,0.2,0.4V102.5z"/>
	</g>
	<g>
		<polygon points="69.3,82.9 10.6,117.5 10.6,108.7 69.3,74.1 		"/>
		<path class="st0" d="M10.6,117.9c-0.1,0-0.1,0-0.2-0.1c-0.1-0.1-0.2-0.2-0.2-0.4v-8.8c0-0.1,0.1-0.3,0.2-0.4l58.7-34.6
			c0.1-0.1,0.3-0.1,0.4,0c0.1,0.1,0.2,0.2,0.2,0.4v8.8c0,0.1-0.1,0.3-0.2,0.4l-58.7,34.6C10.8,117.9,10.7,117.9,10.6,117.9z M11,109
			v7.8l57.8-34.1v-7.8L11,109z M69.3,82.9L69.3,82.9L69.3,82.9z"/>
	</g>
	<g>
		<line x1="102.8" y1="184.7" x2="102.8" y2="193.2"/>
		<path class="st0" d="M102.8,193.5c-0.2,0-0.3-0.1-0.3-0.3v-8.5c0-0.2,0.1-0.3,0.3-0.3s0.3,0.1,0.3,0.3v8.5
			C103.1,193.4,103,193.5,102.8,193.5z"/>
	</g>
	<g>
		<g>
			<polygon class="st0" points="85.3,33.6 113.3,25.3 106.8,41.4 78.8,49.8 			"/>
		</g>
		<g>
			<path d="M93.6,42.6l8.5-7.8c0.8-0.7,0.8-1.9,0.2-2.7l0,0c-0.6-0.8-1.8-0.9-2.5-0.2l-8.5,7.8c-0.7,0.7-0.8,1.9-0.2,2.7l0,0
				C91.7,43.3,92.8,43.3,93.6,42.6z"/>
		</g>
	</g>
	<g>
		<line x1="102.8" y1="48.7" x2="102.8" y2="89.4"/>
		<path class="st0" d="M102.8,89.7c-0.2,0-0.3-0.1-0.3-0.3V48.7c0-0.2,0.1-0.3,0.3-0.3s0.3,0.1,0.3,0.3v40.8
			C103.1,89.6,103,89.7,102.8,89.7z"/>
	</g>
	<g>
		<polygon class="st0" points="105.4,77.5 105.4,91.1 107.3,92.2 107.3,86.3 109.1,85.1 110.8,87.9 110.8,94.3 113.1,95.6 
			113.1,88.8 114.9,87.7 116.6,90.5 116.6,97.7 118.5,98.8 118.5,86 		"/>
	</g>
	<g>
		<path class="st0" d="M181.5,107.8c-0.1,0-0.1,0-0.2-0.1l-21.1-11.6c-0.2-0.1-0.3-0.4-0.2-0.6c0.1-0.2,0.4-0.3,0.6-0.2l21.1,11.6
			c0.2,0.1,0.3,0.4,0.2,0.6C181.8,107.8,181.7,107.8,181.5,107.8z"/>
	</g>
	<g>
		<polygon points="21.2,54.6 21.1,60.7 30.2,66.9 30.2,59.3 		"/>
	</g>
	<g>
		<path class="st0" d="M51.9,113.2c-0.3-0.7-0.7-1.4-1.8-2.2c-1.1-0.8-1.9-0.9-2.7-0.9c-0.7-0.1-1.4-0.1-2.3-0.8
			c-1-0.7-1.3-1.3-1.6-1.9c-0.3-0.7-1.1-1.7-2.2-2.5l-0.4,0.6c1,0.7,1.7,1.6,2,2.2c0.3,0.7,0.7,1.4,1.8,2.2c1.1,0.8,1.9,0.9,2.7,0.9
			c0.7,0.1,1.4,0.1,2.3,0.8c1,0.7,1.3,1.3,1.6,1.9c0.2,0.4,0.4,0.7,0.7,1.1c0.1-0.2,0.2-0.5,0.4-0.7C52.1,113.7,52,113.5,51.9,113.2
			z"/>
	</g>
	<g>
		<path class="st0" d="M53.5,111.6c-0.3-0.7-0.7-1.4-1.8-2.2c-1.1-0.8-1.9-0.9-2.7-0.9c-0.7-0.1-1.4-0.1-2.3-0.8
			c-1-0.7-1.3-1.3-1.6-1.9c-0.3-0.7-0.7-1.4-1.8-2.2l-0.4,0.6c1,0.7,1.3,1.3,1.6,1.9c0.3,0.7,0.7,1.4,1.8,2.2
			c1.1,0.8,1.9,0.9,2.7,0.9c0.7,0.1,1.4,0.1,2.3,0.8c1,0.7,1.3,1.3,1.6,1.9c0.2,0.3,0.3,0.7,0.6,1c0.2-0.1,0.5-0.1,0.8-0.2
			C53.9,112.3,53.7,111.9,53.5,111.6z"/>
	</g>
	<g>
		<path class="st0" d="M55.2,109.9c-0.3-0.7-0.7-1.4-1.8-2.2c-1.1-0.8-1.9-0.9-2.7-0.9c-0.7-0.1-1.4-0.1-2.3-0.8
			c-1-0.7-1.3-1.3-1.6-1.9c-0.3-0.6-0.6-1.2-1.3-1.8c-0.1,0.2-0.2,0.5-0.4,0.6c0.6,0.5,0.8,1,1,1.5c0.3,0.7,0.7,1.4,1.8,2.2
			c1.1,0.8,1.9,0.9,2.7,0.9c0.7,0.1,1.4,0.1,2.3,0.8c1,0.7,1.3,1.3,1.6,1.9c0.3,0.6,0.6,1.3,1.5,2c0.1-0.2,0.2-0.4,0.4-0.6
			C55.7,111,55.4,110.5,55.2,109.9z"/>
	</g>
	<g>
		<path class="st0" d="M56.8,108.3c-0.3-0.7-0.7-1.4-1.8-2.2c-1.1-0.8-1.9-0.9-2.7-0.9c-0.7-0.1-1.4-0.1-2.3-0.8
			c-1-0.7-1.3-1.3-1.6-1.9c-0.2-0.4-0.4-0.9-0.9-1.4c-0.1,0.2-0.2,0.5-0.4,0.7c0.3,0.3,0.4,0.7,0.6,1c0.3,0.7,0.7,1.4,1.8,2.2
			c1.1,0.8,1.9,0.9,2.7,0.9c0.7,0.1,1.4,0.1,2.3,0.8c1,0.7,1.3,1.3,1.6,1.9c0.3,0.7,0.7,1.4,1.8,2.2l0.4-0.6
			C57.4,109.5,57.1,108.9,56.8,108.3z"/>
	</g>
	<g>
		<path class="st0" d="M58.2,106.1c-0.3-0.5-0.7-1.1-1.5-1.7c-1.1-0.8-1.9-0.9-2.7-0.9c-0.7-0.1-1.4-0.1-2.3-0.8
			c-1-0.7-1.3-1.3-1.6-1.9c-0.1-0.3-0.3-0.6-0.5-0.9c-0.1,0.3-0.3,0.6-0.4,0.7c0.1,0.2,0.2,0.4,0.3,0.5c0.3,0.7,0.7,1.4,1.8,2.2
			c1.1,0.8,1.9,0.9,2.7,0.9c0.7,0.1,1.4,0.1,2.3,0.8c1,0.7,1.3,1.3,1.6,1.9c0.2,0.4,0.4,0.7,0.7,1.1
			C58.3,107.5,58.2,106.8,58.2,106.1z"/>
	</g>
	<g>
		<path class="st0" d="M58.3,102.8c-1.1-0.8-1.9-0.9-2.7-0.9c-0.7-0.1-1.4-0.1-2.3-0.8c-1-0.7-1.3-1.3-1.6-1.9
			c-0.1-0.1-0.1-0.3-0.2-0.4c-0.2,0.2-0.3,0.5-0.4,0.7c0,0,0,0,0,0c0.3,0.7,0.7,1.4,1.8,2.2c1.1,0.8,1.9,0.9,2.7,0.9
			c0.7,0.1,1.4,0.1,2.3,0.8c0.2,0.1,0.4,0.3,0.5,0.4c0-0.3,0.1-0.5,0.1-0.8C58.5,103,58.4,102.9,58.3,102.8z"/>
	</g>
	<g>
		<path class="st0" d="M57.3,100.3c-0.7-0.1-1.4-0.1-2.3-0.8c-0.7-0.5-1.1-1-1.3-1.5c-0.3,0-0.5,0-0.8,0.1c0.3,0.6,0.7,1.3,1.7,2
			c1.1,0.8,1.9,0.9,2.7,0.9c0.5,0,1,0.1,1.6,0.4c0-0.2,0.1-0.5,0.1-0.7C58.3,100.4,57.8,100.3,57.3,100.3z"/>
	</g>
	<g>
		<path class="st0" d="M58.9,98.6c-0.7-0.1-1.4-0.1-2.3-0.8c-0.6-0.4-0.9-0.8-1.1-1.1c-0.1,0.3-0.3,0.5-0.5,0.6
			c0.3,0.4,0.6,0.7,1.2,1.1c1.1,0.8,1.9,0.9,2.7,0.9c0,0,0.1,0,0.1,0C58.9,99.1,58.9,98.9,58.9,98.6z"/>
	</g>
	<g>
		<polygon points="103.7,176.9 39.1,139 103.7,98.9 168.2,139 		"/>
		<path class="st0" d="M103.7,177.3L38.3,139l65.4-40.7L169,139L103.7,177.3z M39.9,139l63.7,37.4l63.7-37.4l-63.7-39.6L39.9,139z"
			/>
	</g>
	<g>
		<path class="st1" d="M88.8,131.1v-16.3H93c0.6,0,1.1,0,1.6,0.1c0.5,0.1,0.9,0.2,1.4,0.4c0.5,0.2,0.9,0.4,1.2,0.7
			c0.3,0.3,0.5,0.7,0.7,1.2c0.2,0.5,0.3,1,0.2,1.7c0,0,0,0.1,0,0.1c0,1.9-0.8,3-2.4,3.3c0.9,0.1,1.6,0.5,2.1,1.2
			c0.5,0.7,0.7,1.6,0.8,2.7c0,0,0,0.1,0,0.1c0,1.6-0.4,2.8-1.2,3.5c-0.9,0.8-2.1,1.2-3.7,1.2H88.8z M92.4,121.3h0.7
			c0.8,0,1.3-0.2,1.6-0.5c0.3-0.3,0.4-0.9,0.4-1.6c0-1.3-0.7-1.9-2.1-1.9h-0.6V121.3z M92.4,128.6h0.8c0.8,0,1.3-0.2,1.6-0.6
			c0.3-0.4,0.5-1,0.5-1.8c0-0.9-0.2-1.6-0.5-1.9c-0.3-0.4-0.9-0.6-1.7-0.6h-0.7V128.6z"/>
		<path class="st1" d="M105.3,131.3c-0.7,0-1.4-0.1-1.9-0.2c-0.6-0.2-1-0.4-1.4-0.7c-0.4-0.3-0.7-0.6-0.9-1.1s-0.4-0.9-0.5-1.5
			c-0.1-0.5-0.1-1.2-0.1-1.9v-11.1h3.6v11.7c0,0.3,0,0.5,0,0.7c0,0.2,0,0.4,0.1,0.6c0,0.2,0.1,0.4,0.2,0.5c0.1,0.1,0.2,0.2,0.4,0.3
			s0.4,0.1,0.6,0.1c0.2,0,0.4,0,0.6-0.1c0.2-0.1,0.3-0.2,0.4-0.3c0.1-0.1,0.2-0.3,0.2-0.5c0-0.2,0.1-0.4,0.1-0.6c0-0.2,0-0.4,0-0.6
			v-11.7h3.6V126c0,0.9-0.1,1.7-0.2,2.3c-0.2,0.6-0.4,1.2-0.8,1.7c-0.4,0.5-0.9,0.8-1.5,1S106.2,131.3,105.3,131.3z"/>
		<path class="st1" d="M114.5,131.1v-6.7l-3.1-9.6h3.4l1.6,5.2l1.4-5.2h3.3l-3.1,9.6v6.7H114.5z"/>
		<path class="st1" d="M74.1,155.2v-13.6h-2.5v-2.7h8.6v2.7h-2.5v13.6H74.1z"/>
		<path class="st1" d="M81.6,155.2v-16.3h3.6v16.3H81.6z"/>
		<path class="st1" d="M92.2,155.4c-0.9,0-1.7-0.1-2.3-0.4s-1.1-0.6-1.5-1.1c-0.4-0.5-0.6-1.1-0.8-1.7s-0.2-1.4-0.2-2.3v-5.8
			c0-0.9,0.1-1.7,0.2-2.3s0.4-1.2,0.8-1.7c0.4-0.5,0.9-0.9,1.5-1.1c0.6-0.2,1.4-0.4,2.3-0.4c0.9,0,1.6,0.1,2.2,0.3
			c0.6,0.2,1.1,0.5,1.5,1c0.4,0.4,0.6,0.9,0.8,1.5c0.2,0.5,0.2,1.2,0.2,1.9v1.4h-3.5v-1.6c0-0.3,0-0.4,0-0.6c0-0.1,0-0.3-0.1-0.5
			s-0.1-0.4-0.2-0.5c-0.1-0.1-0.2-0.2-0.3-0.3c-0.2-0.1-0.3-0.1-0.6-0.1c-0.2,0-0.4,0-0.6,0.1c-0.2,0.1-0.3,0.2-0.4,0.3
			s-0.1,0.3-0.2,0.5c0,0.2-0.1,0.4-0.1,0.5c0,0.2,0,0.4,0,0.6v7.6c0,0.7,0.1,1.2,0.3,1.5c0.2,0.3,0.5,0.5,1,0.5c0.2,0,0.4,0,0.6-0.1
			c0.2-0.1,0.3-0.2,0.3-0.3s0.1-0.3,0.2-0.5c0-0.2,0.1-0.4,0.1-0.5c0-0.2,0-0.4,0-0.6v-1.7h3.5v1.4c0,0.6,0,1.1-0.1,1.6
			c-0.1,0.5-0.2,0.9-0.5,1.3s-0.5,0.8-0.9,1c-0.4,0.3-0.8,0.5-1.3,0.7C93.6,155.4,92.9,155.4,92.2,155.4z"/>
		<path class="st1" d="M98.9,155.2v-16.3h3.6v6.6l2.7-6.6h3.5l-3,7.4l3.2,8.9h-3.7l-2.4-7.3l-0.4,0.6v6.7H98.9z"/>
		<path class="st1" d="M110.3,155.2v-16.3h7.3v2.5h-3.7v4h2.8v2.5h-2.8v4.9h3.8v2.4H110.3z"/>
		<path class="st1" d="M120.7,155.2v-13.6h-2.5v-2.7h8.6v2.7h-2.5v13.6H120.7z"/>
		<path class="st1" d="M132.5,155.4c-1.5,0-2.7-0.4-3.4-1.2s-1.2-2.1-1.2-3.9l3.1-0.5c0,1,0.1,1.8,0.4,2.2c0.2,0.5,0.6,0.7,1,0.7
			c0.6,0,0.9-0.4,0.9-1.2c0-0.4-0.1-0.8-0.2-1.2c-0.2-0.4-0.4-0.7-0.6-0.9c-0.2-0.3-0.5-0.6-1-0.9l-1.4-1.2
			c-0.3-0.3-0.6-0.6-0.9-0.8c-0.2-0.2-0.5-0.5-0.7-0.9c-0.2-0.3-0.4-0.7-0.5-1.1c-0.1-0.4-0.2-0.9-0.2-1.4c0-1.4,0.4-2.4,1.2-3.1
			c0.8-0.7,1.9-1.1,3.3-1.1c0.5,0,0.9,0.1,1.3,0.2c0.4,0.1,0.7,0.2,1,0.4c0.3,0.2,0.5,0.4,0.7,0.6s0.4,0.5,0.5,0.8
			c0.1,0.3,0.2,0.5,0.3,0.9c0.1,0.3,0.1,0.6,0.2,0.9c0,0.3,0.1,0.6,0.1,0.9l-3.1,0.4c0-0.3,0-0.5,0-0.7c0-0.2,0-0.4-0.1-0.6
			c0-0.2-0.1-0.4-0.1-0.5c0-0.1-0.1-0.2-0.2-0.3c-0.1-0.1-0.2-0.2-0.3-0.2c-0.1,0-0.3-0.1-0.4-0.1c-0.3,0-0.6,0.1-0.7,0.4
			s-0.3,0.5-0.3,0.9c0,0.3,0,0.6,0.1,0.8c0.1,0.3,0.2,0.5,0.4,0.7c0.2,0.2,0.3,0.4,0.5,0.5c0.1,0.1,0.3,0.3,0.6,0.5l1.4,1.2
			c0.4,0.3,0.7,0.7,1,1c0.3,0.3,0.5,0.7,0.8,1.1c0.2,0.4,0.4,0.8,0.6,1.3c0.1,0.5,0.2,1,0.2,1.5c0,1.2-0.4,2.2-1.2,2.9
			C134.8,155,133.8,155.4,132.5,155.4z"/>
	</g>
	<g>
		<polygon class="st0" points="131.5,116.2 131.5,126.1 120.7,133.3 142.8,131.1 149.1,127.1 		"/>
	</g>
	<g>
		<polygon class="st0" points="84.3,165.5 97.7,159.1 111.2,159.1 105.8,165.5 114.3,170.6 103.7,176.9 		"/>
	</g>
	<g>
		<polygon class="st0" points="64.8,154.1 63.5,137.9 80.7,129.6 58.9,126.7 39.1,139 		"/>
	</g>
	<g>
		<polygon class="st0" points="95.7,103.8 103.7,109.8 111.2,103.5 103.7,98.9 		"/>
	</g>
	<g>
		<polygon class="st0" points="154.6,130.5 144.5,138.7 140.5,155.2 168.2,139 		"/>
	</g>
</g>
</svg>
