<?xml version="1.0" encoding="utf-8"?>
<!-- Generator: Adobe Illustrator 24.1.0, SVG Export Plug-In . SVG Version: 6.00 Build 0)  -->
<svg version="1.1" id="Codemania_Logo" xmlns="http://www.w3.org/2000/svg" xmlns:xlink="http://www.w3.org/1999/xlink" x="0px"
	 y="0px" viewBox="0 0 350 180" style="enable-background:new 0 0 350 180;" xml:space="preserve">
<style type="text/css">
	.st0{fill:#00FFDD;}
	.st1{fill:#FF9900;}
	.st2{enable-background:new    ;}
	.st3{clip-path:url(#SVGID_2_);}
</style>
<g id="Shad">
	
		<image style="overflow:visible;opacity:0.75;enable-background:new    ;" width="2983" height="1650" xlink:href="17895810CAEAF2B4.png"  transform="matrix(0.1195 0 0 0.1195 -3.2007 -8.58)">
	</image>
	<g>
		<path d="M321.9,62.8l-18.4-7.2c0-0.3,0-0.6,0.1-0.9c0.1-0.5,0.1-0.9,0.2-1.4c4,0.7,8.8,1.1,13.1,1.2c13.3,0.3,22-3.2,22-3.2
			s-7.6-0.8-9.9-1.1c-6.1-1.2-6.2-2.3-6.2-2.3s3.4-1,7.5-2.8c2.9-1.3,6.7-3.7,6.7-3.7s-20.8-0.3-33-3.8c-0.7-0.2-1.2-0.3-1.8-0.5
			c-0.7-0.3-1.3-0.4-2.2-0.7c-2.8-0.9-5.7-1.9-8.4-3.2c-1.1-0.5-2.5-0.9-3.6-1c-0.2-0.1-0.5,0-0.7,0c-0.7-0.1-1.2-0.1-1.6,0.2
			c0,0.1-0.1,0.1-0.2,0.2c-11-4.6-26.7-9.6-46.4-12.4c-36.1-5.1-84-5-116-0.5c-26.7,3.8-82.3,21.8-81.5,31.5
			c0.5,5.4,1.3,10.6,3,16.4c-1.8-1.2-3.5-1.7-5.5-1.4c-4.3,0.5-7.5,4.9-7.1,9.1c0.1,1.1,0.5,2.4,1.1,3.3c0.9,1.3,2.2,1.9,3.7,1.4
			c1.7-0.6,3.6-2.9,2.4-4.9c-1.4-2.3-4.8-0.3-3.4,2c-0.3-0.3-0.7-1.1-0.8-1.3c-0.3-1.8,0.8-3.3,1.7-4.1c1.1-1.1,2.8-1.5,4.2-1.5
			c1.7,0.1,3.2,1.3,4.7,2.6c0.3,0.2,0.5,0.4,0.8,0.6c0,0.1,0,0.1,0,0.1c0.9,2.7,2,5.4,3.3,8.3c-1.9,1.6-3.9,3.3-5.9,5.2
			c-1.4-0.8-2.7-1.6-4-2.2c-3.3-1.6-7-2.1-10.4-1c-3.5,1.1-6.2,3.6-7.6,7.3c-1.3,3.7-1,8.6,1.7,11.5c1.5,1.6,3.4,2.2,5.2,2.1
			c0,0,0.1,0,0.1,0c0,0-0.1,0.1-0.1,0.1c-15.1,21-17.7,39.4-17.7,39.4s12-11.7,16.3-15.1c3.2-2.5,5.6-4.1,7.5-5.2
			C29,137.5,27.1,148,27.1,148s-2.2,13-0.4,18.4c0,0,3.6-10.7,10.6-19.7c0,5.2,0.3,10.2,0.4,11.1c0.1-1.1,4.9-8.6,12.3-17.8
			c0.2,6.8,1.1,22,5.3,33.5c0,0,15.3-54.4,73.3-77.8c0,0,8.9-4.1,6.6-10.6c0,0,2.2-0.9,5.2-2.4l23.1,32.3l115.8-16.8V66.6l20.5,9.5
			l2.7-5.5c0,0,8,5.4,9.5,0.5l1.1-4.7c0,0,14.6,6.7,20.7,5.9C333.8,72.3,322.4,65.3,321.9,62.8z M34,95.7c-1.1-2.4-3.3-3.4-5.3-2.3
			c0.3-1.1,0.7-2.2,1.3-2.6c3.1-2.4,6.9-1.5,10.6-0.4c-2,2.1-4,4.4-6.1,6.9C34.4,96.8,34.2,96.3,34,95.7z M45.8,40.8l-0.2-1.2
			l2.2-1.1l0.7,0.9l2-1l-5.4-5l-2.1,1l0.8,7.4L45.8,40.8z M46.8,37.4l-1.4,0.7L45,35.5L46.8,37.4z M52.7,33.7
			c-0.5-1.1-0.5-2-0.2-2.8s1-1.4,2-1.9c0.8-0.3,1.5-0.5,2.1-0.3c0.6,0.1,1.2,0.5,1.7,1.1l-1.6,1.1c-0.1-0.2-0.3-0.3-0.4-0.3
			c-0.2-0.1-0.4-0.2-0.6-0.2c-0.2,0-0.4,0-0.6,0.1c-0.4,0.2-0.7,0.5-0.8,1c-0.1,0.3,0,0.8,0.3,1.4c0.3,0.7,0.6,1.1,0.9,1.3
			s0.7,0.2,1.1,0c0.4-0.2,0.6-0.4,0.7-0.7s0.1-0.7,0-1.1l2-0.2c0.1,0.5,0.1,1,0,1.4s-0.3,0.8-0.6,1.1s-0.7,0.6-1.3,0.9
			c-0.7,0.3-1.3,0.4-1.8,0.4s-1.1-0.2-1.6-0.6C53.5,35,53,34.4,52.7,33.7z M60.6,32.5c0.5,0.4,1,0.7,1.6,0.7c0.5,0,1.2-0.1,1.9-0.4
			c0.7-0.3,1.2-0.6,1.6-1.1c0.4-0.5,0.6-1,0.7-1.6s0-1.2-0.3-2c-0.4-1.1-1-1.7-1.8-2.1c-0.8-0.4-1.7-0.3-2.8,0.1
			c-1,0.4-1.7,1-2.1,1.8c-0.3,0.8-0.3,1.7,0.1,2.8C59.8,31.5,60.2,32.1,60.6,32.5z M61.3,28.5c0.1-0.4,0.4-0.6,0.8-0.8
			c0.5-0.2,0.8-0.2,1.2,0s0.7,0.6,0.9,1.2c0.2,0.7,0.3,1.2,0.2,1.6c-0.1,0.4-0.4,0.6-0.8,0.8c-0.5,0.2-0.8,0.2-1.2,0
			c-0.3-0.2-0.6-0.6-0.9-1.3C61.3,29.3,61.2,28.8,61.3,28.5z M68.5,31l-2.3-6.6l1.9-0.7l3.7,2.8l-1.3-3.6l1.9-0.7l2.3,6.5l-1.9,0.7
			l-3.7-2.7l1.3,3.6L68.5,31z M76.2,28.4L74,21.7l5.1-1.6l0.5,1.4l-3,1l0.4,1.2l2.6-0.8l0.4,1.3L77.4,25l0.9,2.7L76.2,28.4z
			 M82.2,26.5l-1.9-6.7l5.5-1.6l0.4,1.4l-3.5,1l0.3,1.1l3.2-0.9l0.4,1.4l-3.2,0.9l0.4,1.3l3.6-1l0.4,1.5L82.2,26.5z M91,23.9
			l-0.7-2.7h0.2c0.1-0.1,0.3-0.1,0.5,0c0.1,0,0.3,0.2,0.5,0.4l1.6,1.8l2.3-0.6l-1.5-1.7c-0.1,0-0.2-0.2-0.4-0.3
			c-0.2-0.2-0.3-0.3-0.4-0.3s-0.3-0.1-0.6-0.1c0.3-0.2,0.6-0.3,0.7-0.5c0.3-0.2,0.4-0.5,0.5-0.8s0.1-0.6,0-1s-0.3-0.8-0.6-1
			c-0.3-0.2-0.6-0.4-1-0.4s-0.9,0-1.5,0.2l-3.5,0.9l1.8,6.7L91,23.9z M90.6,18.5c0.4-0.1,0.6-0.1,0.8,0c0.1,0,0.2,0.2,0.3,0.4
			c0.1,0.1,0.1,0.3,0,0.4s-0.2,0.2-0.3,0.3c-0.2,0.1-0.4,0.2-0.5,0.2L90,20l-0.3-1.3L90.6,18.5z M96.2,22.6l-1.6-6.7l5.6-1.3
			l0.3,1.4L97,16.8l0.3,1.1l3.2-0.8l0.3,1.4l-3.2,0.8l0.3,1.3l3.6-0.8l0.4,1.5L96.2,22.6z M102.9,20.9l-1.4-6.7l2-0.4l3.3,3.2
			l-0.8-3.8l2-0.4l1.4,6.8l-2,0.4l-3.3-3.2l0.8,3.7L102.9,20.9z M110.1,16c-0.2-1.1-0.1-2.1,0.4-2.8s1.3-1.2,2.4-1.4
			c0.9-0.2,1.6-0.1,2.1,0.2c0.6,0.3,1,0.7,1.4,1.4l-1.8,0.8c-0.1-0.2-0.2-0.3-0.3-0.4c-0.1-0.1-0.3-0.2-0.5-0.3s-0.4-0.1-0.6,0
			c-0.5,0.1-0.8,0.3-1,0.8c-0.1,0.3-0.2,0.8,0,1.4c0.1,0.8,0.3,1.3,0.6,1.5s0.6,0.3,1,0.2c0.4-0.1,0.7-0.2,0.9-0.5
			c0.1-0.3,0.1-0.7,0.2-1.1l2,0.2c0,0.5-0.1,1-0.3,1.4s-0.5,0.7-0.8,1c-0.4,0.2-0.9,0.4-1.5,0.5c-0.7,0.1-1.4,0.1-1.9,0
			s-1-0.4-1.4-0.9C110.6,17.5,110.3,16.9,110.1,16z M118.1,18.2l-1-7l5.7-0.9l0.2,1.5l-3.6,0.6l0.2,1.1l3.3-0.5l0.2,1.4l-3.3,0.5
			l0.2,1.4l3.7-0.6l0.2,1.6L118.1,18.2z M128.5,16.6l-1.1-6.9l5.3-0.7l0.2,1.5l-3.1,0.4l0.2,1.2l2.7-0.3l0.2,1.4l-2.7,0.3l0.4,2.8
			L128.5,16.6z M134.7,14.2c0.4,0.5,0.9,0.8,1.4,1c0.6,0.2,1.2,0.3,2,0.2c0.8,0,1.4-0.3,1.9-0.6c0.4-0.3,0.8-0.8,1-1.3
			s0.3-1.2,0.2-2c-0.1-1.1-0.5-1.9-1.2-2.5c-0.7-0.5-1.7-0.7-2.8-0.6c-1.1,0.1-1.9,0.5-2.5,1.2s-0.8,1.6-0.7,2.7
			C134.1,13.1,134.3,13.8,134.7,14.2z M136.3,10.6c0.2-0.4,0.6-0.6,1-0.6c0.4-0.1,0.8,0,1.1,0.3c0.2,0.3,0.4,0.8,0.5,1.4
			c0.1,0.7,0,1.3-0.2,1.6c-0.2,0.4-0.5,0.6-1,0.6c-0.4,0.1-0.8,0-1.1-0.3c-0.2-0.3-0.4-0.8-0.5-1.5
			C136.1,11.4,136.1,10.9,136.3,10.6z M144.9,14.6l-0.2-2.8h0.2c0.2,0,0.3,0,0.5,0.1c0.1,0.1,0.2,0.2,0.4,0.5l1.3,2l2.4-0.2
			l-1.2-1.9c0-0.1-0.1-0.2-0.3-0.4c-0.2-0.1-0.3-0.2-0.4-0.3c-0.1-0.1-0.3-0.1-0.6-0.2c0.3-0.1,0.5-0.2,0.7-0.3
			c0.3-0.2,0.5-0.4,0.6-0.7c0.2-0.3,0.2-0.6,0.2-1s-0.2-0.8-0.4-1.1s-0.5-0.5-0.9-0.6c-0.3,0-0.8-0.1-1.5,0L142.1,8l0.6,6.9
			L144.9,14.6z M145.3,9.2c0.4,0,0.6,0,0.8,0.1s0.3,0.3,0.3,0.5c0,0.1,0,0.3-0.1,0.4c-0.1,0.1-0.2,0.2-0.3,0.2
			c-0.3,0-0.5,0.1-0.6,0.1l-0.9,0.1l-0.1-1.3L145.3,9.2z M156.5,14c0.4-0.1,0.8-0.1,1.3-0.3c0.3-0.1,0.6-0.3,0.9-0.6
			c0.2-0.3,0.5-0.7,0.6-1.1c0.2-0.4,0.2-1,0.2-1.7c0-0.4-0.1-0.9-0.2-1.3c-0.1-0.4-0.3-0.8-0.6-1.1c-0.3-0.3-0.6-0.6-1-0.7
			C157.3,7,156.8,7,156.2,7L153,7.2l0.3,7L156.5,14z M155.7,8.7c0.5-0.1,0.9,0,1.2,0.3c0.2,0.3,0.4,0.8,0.4,1.5c0,0.5,0,0.9-0.1,1.2
			c-0.1,0.2-0.2,0.4-0.4,0.5c-0.1,0.1-0.5,0.2-0.9,0.2h-0.5l-0.2-3.8L155.7,8.7z M160.7,13.8l-0.1-7l5.7-0.2v1.5l-3.6,0.1v1.1
			l3.3-0.1v1.4l-3.3,0.1v1.4l3.7-0.1l0.1,1.6L160.7,13.8z M169.7,13.6l-2.7-7h2.2l1.6,5l1.5-5h2.2l-2.5,7H169.7z M181.1,13.5h-5.8
			v-7h5.7V8h-3.6v1.1h3.3v1.4h-3.3v1.4h3.7L181.1,13.5L181.1,13.5z M187.7,13.6l-5.5-0.1l0.2-7l2.1,0.1l-0.1,5.2l3.3,0.1V13.6z
			 M190.1,13.5c0.5,0.3,1.1,0.5,1.9,0.5c0.7,0,1.4-0.1,1.9-0.4c0.5-0.3,0.9-0.7,1.2-1.2s0.5-1.2,0.5-2c0.1-1.1-0.2-2-0.8-2.6
			s-1.4-1-2.6-1c-1.2-0.1-2,0.2-2.7,0.8s-1.1,1.5-1.1,2.6c0,0.8,0.1,1.4,0.5,2.1C189.2,12.8,189.6,13.2,190.1,13.5z M190.8,8.7
			c0.3-0.3,0.7-0.4,1.1-0.4c0.5,0,0.8,0.2,1.1,0.5c0.2,0.3,0.3,0.7,0.3,1.4c0,0.8-0.1,1.3-0.4,1.6c-0.3,0.3-0.6,0.4-1.1,0.4
			c-0.4,0-0.8-0.2-1-0.5s-0.3-0.8-0.3-1.5C190.6,9.5,190.7,9,190.8,8.7z M198.9,11.5l1.2,0.1c0.9,0,1.6-0.1,2-0.5s0.7-0.9,0.7-1.6
			s-0.1-1.2-0.5-1.6s-0.9-0.7-1.7-0.7L197,7l-0.4,7l2.1,0.1L198.9,11.5z M199,8.5h0.6c0.4,0,0.7,0.1,0.8,0.3
			c0.2,0.2,0.2,0.4,0.2,0.6s-0.1,0.4-0.3,0.5c-0.2,0.2-0.5,0.2-0.9,0.2h-0.5L199,8.5z M209.4,14.9l-5.8-0.5l0.5-6.9l5.7,0.4
			l-0.1,1.5l-3.6-0.3l-0.1,1.1l3.3,0.3l-0.1,1.4l-3.3-0.3l-0.1,1.4l3.7,0.3L209.4,14.9z M213.1,12.4h0.2c0.2,0,0.4,0.1,0.5,0.2
			c0.1,0.1,0.2,0.3,0.3,0.6l0.9,2.2l2.4,0.2l-0.8-2.1c-0.1-0.1-0.2-0.3-0.3-0.5s-0.2-0.3-0.3-0.4c-0.1-0.1-0.3-0.2-0.5-0.3
			c0.3,0,0.6-0.1,0.8-0.2c0.3-0.1,0.5-0.3,0.7-0.6s0.3-0.6,0.3-1c0.1-0.4,0-0.8-0.2-1.1s-0.5-0.6-0.8-0.7s-0.8-0.2-1.5-0.3l-3.6-0.3
			l-0.7,6.9l2.3,0.2L213.1,12.4z M213.2,9.7l0.9,0.1c0.4,0.1,0.7,0.2,0.8,0.3c0.2,0.1,0.2,0.3,0.2,0.5s-0.1,0.3-0.2,0.4
			c-0.1,0.1-0.3,0.2-0.4,0.2c-0.3,0-0.5,0-0.6,0l-0.9-0.1L213.2,9.7z M221.9,14.2c0-0.2,0-0.3-0.2-0.5c-0.1-0.2-0.5-0.3-1-0.5
			c-0.9-0.3-1.5-0.7-1.9-1.1c-0.4-0.4-0.5-0.9-0.5-1.4c0-0.4,0.2-0.7,0.4-1s0.6-0.5,1-0.6s1-0.2,1.7-0.1c0.9,0.1,1.5,0.3,2,0.7
			c0.4,0.4,0.6,0.9,0.7,1.7l-2-0.1c0-0.3-0.1-0.6-0.3-0.7c-0.2-0.2-0.4-0.3-0.7-0.3c-0.2,0-0.4,0-0.6,0.1c-0.1,0.1-0.2,0.2-0.2,0.4
			c0,0.1,0,0.2,0.1,0.3s0.3,0.2,0.7,0.3c0.9,0.3,1.6,0.6,1.9,0.8c0.4,0.3,0.6,0.5,0.8,0.9c0.1,0.3,0.2,0.7,0.2,1.1s-0.2,0.8-0.5,1.2
			c-0.3,0.3-0.7,0.6-1.1,0.7c-0.5,0.1-1,0.2-1.7,0.1c-1.2-0.1-2-0.4-2.4-0.9c-0.3-0.6-0.5-1.2-0.5-1.9l2,0.1c0,0.3,0.1,0.6,0.2,0.8
			c0.2,0.3,0.5,0.5,0.9,0.5c0.3,0,0.5,0,0.7-0.1S221.9,14.4,221.9,14.2z"/>
	</g>
</g>
<path class="st0" d="M321.9,62.8l-42.6-16.6v-5.8L269,42.1L255.9,37l-14.1,9.6L150,61.8l-17.5-18c0,0-41.7,18.1-70.2,42.1
	S27.1,148,27.1,148s-2.2,13-0.4,18.4c0,0,7.9-23.7,23.3-30c0,0-0.2,21.8,5.4,37.1c0,0,15.3-54.4,73.3-77.8c0,0,8.9-4.1,6.6-10.6
	c0,0,2.2-0.9,5.2-2.4l23.1,32.3l115.7-16.8V66.6l20.5,9.5l2.7-5.5c0,0,8,5.4,9.5,0.5l1.1-4.7c0,0,14.6,6.7,20.7,5.9
	C333.8,72.3,322.4,65.3,321.9,62.8z"/>
<path class="st1" d="M329,50.2c-6.1-1.2-6.2-2.3-6.2-2.3s3.4-1,7.5-2.8c2.9-1.3,6.7-3.7,6.7-3.7s-20.8-0.3-33-3.8
	c-0.7-0.2-1.2-0.3-1.8-0.5c-0.7-0.3-1.3-0.4-2.2-0.7c-2.8-0.9-5.7-1.9-8.4-3.2c-1.1-0.5-2.5-0.9-3.6-1c-0.2-0.1-0.5,0-0.7,0
	c-0.7-0.1-1.2-0.1-1.6,0.2c0,0.1-0.1,0.1-0.2,0.2c-11-4.6-26.7-9.6-46.4-12.4c-36.1-5.1-84-5-116-0.5c-26.7,3.8-82.3,21.8-81.5,31.5
	c0.5,5.4,1.3,10.7,3,16.5c0.5,1.9,1.1,3.8,1.8,5.8c0.9,2.7,2,5.4,3.3,8.3c-6.4,5.3-13.3,12.3-21,23.1c-15.1,21-17.7,39.4-17.7,39.4
	s12-11.7,16.3-15.1c10.6-8.4,13.3-6.8,13.3-6.8s-1.8,7.7-3,17.8c-0.7,6.7,0,16.4,0.1,17.6c0.3-2.5,25.2-38.9,50.4-52.2
	c82.1-43.2,151.7-46.3,175.7-45.8c5.3,0.1,10.6,0.9,15.7,2.4l12.5,3.7c1.1,0.3,2.4,0,3.2-0.8l5.3-5.2c0.2,0,0.4-0.1,0.7-0.1
	c0.8-0.2,1.3-0.7,1.6-1.2l0.2-0.1l0-0.2c0.5-1,0.5-2.3,0.6-3.5c0.1-0.5,0.1-0.9,0.2-1.4c4,0.7,8.8,1.1,13.1,1.2
	c13.3,0.3,22-3.2,22-3.2S331.4,50.5,329,50.2z"/>
<path d="M296.6,42c0-0.1-0.1-0.3-0.2-0.4l-2.8-1.6c-0.2-0.1-0.4,0-0.5,0.1l-0.1,0.1l0,0l-8.9,15.2l-1.9,3.2c-0.1,0.1-0.1,0.2,0,0.3
	c0,0.1,0.1,0.2,0.2,0.2l3,1.3c0.2,0.1,0.4,0,0.5-0.2l1.2-2.1l3.9,1.7l-0.3,2.5c0,0.2,0.1,0.3,0.2,0.4l0.6,0.3l2.3,1h0.1
	c0.1,0,0.1,0,0.2-0.1s0.2-0.2,0.2-0.3l0.6-5L296.6,42z M292,50.2v0.2l-0.4,3.8l-1.7-0.8l1.8-3.1l0.1-0.2l0.4-0.6L292,50.2z
	 M280.5,46.1l2.8-10l0,0c0-0.1,0.1-0.2,0.2-0.2s0.2-0.1,0.3,0l0.1,0.1l3.1,1.3c0.2,0.1,0.3,0.3,0.2,0.4l-0.5,1.7l0,0l-1.6,5.7
	l-0.7,2.7l-2.1,7.4l-1,3.8c0,0.1-0.1,0.2-0.2,0.2s-0.1,0-0.2,0h-0.1l-3.4-0.9c-0.2-0.1-0.3-0.3-0.3-0.5l1-3.7L280.5,46.1z
	 M262.6,55.5L262.6,55.5l-0.7-0.1c-0.1,0-0.2-0.1-0.3-0.2c0,0,0-0.1-0.1-0.1c0-0.1,0-0.1,0-0.2l0.7-3.1L267,31l0,0
	c0-0.1,0.1-0.2,0.2-0.2c0.1-0.1,0.2-0.1,0.3,0l4.3,1.2c0.1,0,0.2,0.2,0.3,0.3l0.1,0.8l2,11l2.4-10.3l0,0c0-0.1,0.1-0.2,0.2-0.2
	c0.1-0.1,0.2-0.1,0.3,0l3.5,1c0.2,0.1,0.3,0.2,0.3,0.4l-0.2,0.8l-0.6,2.4l-1.7,7.1l-2,8.5l-0.8,3.5c0,0.2-0.2,0.3-0.4,0.3
	c0,0,0,0-0.1,0l-3.4-0.5c-0.2,0-0.3-0.1-0.3-0.3l-0.8-4l-1.7-8.9l-1.9,8.4l-0.8,3.5c0,0.2-0.2,0.3-0.4,0.3L262.6,55.5z M187.8,54.3
	c0.5-2.2,0.6-4.9,0.4-8.1c-0.2-2.7-0.5-4.8-1.1-6.6c-0.6-1.9-1.3-3.3-2.3-4.5c-1-1.1-2.2-2-3.7-2.5c-1.4-0.5-3.2-0.7-5.2-0.7
	c-0.5,0-1,0-1.5,0.1c-0.5,0-1.1,0.1-1.6,0.1c-0.6,0.1-1.1,0.1-1.7,0.2c-0.6,0.1-1.2,0.2-1.8,0.3l-12.4,2.1c-0.2,0-0.3,0.2-0.3,0.4
	l3.2,30.2l0.4,4.1v0.3c0,0.1,0.1,0.2,0.2,0.3c0.1,0,0.1,0.1,0.2,0.1h0.1l11.8-3.2c3.2-0.9,5.7-1.8,7.7-2.8c2.2-1.1,3.8-2.4,5.1-3.9
	c0.4-0.4,0.7-0.9,1-1.4c0.1-0.2,0.2-0.4,0.3-0.6C187,56.9,187.5,55.7,187.8,54.3z M179.4,51.9c-0.1,1.1-0.4,2-0.8,2.7
	c-0.5,0.8-1.2,1.4-2.3,1.9c-1.1,0.6-2.5,1.1-4.4,1.5l-3.1,0.8l-1.5-16.3l2.8-0.5c0.4-0.1,0.8-0.1,1.2-0.2s0.7-0.1,1-0.2
	c0.3,0,0.6-0.1,0.9-0.1c0.3,0,0.6,0,0.8-0.1c1.1,0,2,0.1,2.6,0.3s1.1,0.6,1.4,1.1c0.3,0.5,0.6,1.2,0.8,2.1c0.2,0.8,0.3,1.7,0.4,3.1
	C179.5,49.8,179.5,50.9,179.4,51.9z M110.9,86.8c-0.4,0.4-0.8,0.7-1.2,1.1c-1,0.9-2.1,1.7-3.3,2.5c-1.9,1.2-4.1,2.4-6.6,3.6
	c-0.7,0.3-1.3,0.6-1.9,0.8c-0.4,0.2-0.8,0.4-1.2,0.5c-1,0.4-2,0.8-3,1.1c-1,0.3-1.9,0.6-2.8,0.8c-0.9,0.2-1.8,0.4-2.7,0.6
	c-1.5,0.3-3,0.4-4.4,0.4c-1,0-1.9-0.1-2.8-0.2l0,0c-2.2-0.3-4.2-1-6-2s-3.5-2.4-5-4.2c0,0-0.1-0.1-0.1-0.2c-0.3-0.4-0.7-0.8-1-1.2
	c-0.1-0.1-0.2-0.3-0.3-0.4c-0.9-1.3-1.8-2.7-2.6-4.3c-0.8-1.5-1.4-3-1.8-4.4c-0.3-1.1-0.6-2.1-0.7-3.1c-0.1-0.4-0.1-0.8-0.2-1.2l0,0
	c0-0.4-0.1-0.9-0.1-1.3c0-0.5,0-0.9,0-1.4c0.1-0.7,0.2-1.5,0.3-2.2c0-0.2,0.1-0.4,0.1-0.5c0.4-1.6,1-3.1,1.9-4.6
	c1.6-2.6,3.9-4.9,7-7c2.9-2,6.5-3.7,10.7-5.2c1.1-0.4,2.2-0.7,3.1-1c1-0.3,2-0.5,2.9-0.8c0.9-0.2,1.8-0.4,2.7-0.5
	c0.9-0.1,1.7-0.2,2.5-0.3c1-0.1,1.9-0.1,2.8,0c0.6,0,1.3,0.1,1.9,0.2c0.3,0,0.5,0.1,0.8,0.1c0.8,0.1,1.7,0.3,2.5,0.6
	c0.8,0.2,1.6,0.5,2.4,0.9c0.1,0,0.2,0.1,0.2,0.2s0,0.2,0,0.3l-3.4,6.6l0,0l-1.2,2.3l0,0L99.6,65c-0.1,0.2-0.3,0.2-0.5,0.2
	c-0.5-0.2-1-0.3-1.5-0.5c-0.5-0.1-1-0.2-1.5-0.3c-0.5-0.1-1-0.1-1.5-0.2c-0.5,0-1.1,0-1.6,0c-0.4,0-0.8,0.1-1.2,0.1
	c-0.4,0.1-0.8,0.2-1.2,0.3c-0.4,0.1-0.9,0.2-1.3,0.4c-0.5,0.1-0.9,0.3-1.4,0.5c-2.2,0.8-3.9,1.8-5.3,2.8c-1.3,1-2.3,2.1-2.8,3.3
	c-0.6,1.2-0.8,2.4-0.6,3.8c0.1,1.4,0.6,2.8,1.3,4.5c0.1,0.3,0.3,0.6,0.4,0.9c0.4,0.8,0.8,1.5,1.3,2.1c0.7,0.9,1.4,1.6,2.1,2.1
	c0.8,0.5,1.7,0.9,2.7,1.1s2.2,0.2,3.4,0c0.4-0.1,0.9-0.1,1.3-0.2s0.9-0.2,1.4-0.4c0.5-0.2,1-0.3,1.5-0.5s1.1-0.4,1.6-0.7
	c1.3-0.6,2.3-1.1,3.3-1.7c0.9-0.6,1.6-1.1,2.3-1.8c0.6-0.6,1.1-1.2,1.6-2c0.4-0.6,0.8-1.3,1.4-2.3c0.1-0.2,0.3-0.2,0.4-0.2l9.5,2.8
	l0,0l0.6,0.2c0.1,0,0.2,0.1,0.2,0.2s0,0.2,0,0.3c-0.3,0.6-0.6,1.2-0.8,1.7c-0.4,0.7-0.7,1.3-1.1,1.8C113,84.6,112,85.7,110.9,86.8z
	 M240.9,54.1L240.9,54.1l-0.1,0.5c0,0.2-0.2,0.3-0.3,0.3l-5.2,0.5c-0.1,0-0.2,0-0.3-0.1s-0.1-0.2-0.1-0.3v-0.1l0.4-3.5l0.9-9.2
	l-3.5,9.4l-0.9,2.4l-0.6,1.6c-0.1,0.1-0.2,0.2-0.3,0.2l-4.3,0.4c-0.2,0-0.4-0.1-0.4-0.3v-0.2l0,0l-0.7-3.6l-1.9-9.7l-0.9,10
	l-0.2,2.1l0,0l-0.2,1.8c0,0.2-0.2,0.3-0.3,0.3l-5.6,0.5l0,0c-0.1,0-0.2,0-0.3-0.1s-0.1-0.2-0.1-0.3v-0.1l0.3-3.5l2.2-25.8
	c0-0.2,0.2-0.3,0.4-0.3l8.1,0.1c0.2,0,0.3,0.1,0.4,0.3l2.9,15.6l5.8-15.5c0.1-0.1,0.2-0.3,0.4-0.2l7.1,0.1c0.1,0,0.2,0,0.3,0.1
	s0.1,0.2,0.1,0.3l-2.5,23.3L240.9,54.1z M258.8,29.8L258.8,29.8v-0.4c0-0.2-0.1-0.3-0.3-0.3l-4.7-0.7c-0.2,0-0.3,0.1-0.4,0.2l0,0
	l-10,22.4l-1.4,3.2c0,0,0,0,0,0.1s0,0.2,0,0.3c0.1,0.1,0.2,0.2,0.3,0.2l4.8,0.1c0.2,0,0.3-0.1,0.4-0.2l0.9-2l0.5-1l6.5,0.2l0.2,2.7
	v0.1c0,0.2,0.2,0.3,0.4,0.3l4.6,0.1l0,0c0.1,0,0.2,0,0.3-0.1c0.1-0.1,0.1-0.2,0.1-0.3l0,0l-0.3-3.1L258.8,29.8z M251.6,45.2l2.7-6.1
	l0.5,6.3L251.6,45.2z M153,65.1c0.2-0.8,0.4-1.5,0.6-2.4c0.4-2.6,0.3-5.6-0.3-8.8c-0.5-2.6-1.3-4.8-2.3-6.7c-1-1.8-2.2-3.3-3.6-4.5
	c-1.4-1.1-3-2-4.9-2.5c-1.8-0.5-3.7-0.7-5.9-0.7c-0.6,0-1.2,0.1-1.9,0.1c-0.6,0.1-1.3,0.1-1.9,0.2c-0.7,0.1-1.3,0.2-2,0.4
	c-0.7,0.1-1.4,0.3-2.1,0.5c-3.3,0.9-6.2,2-8.7,3.4c-2.7,1.5-4.8,3.3-6.4,5.4c-0.9,1.1-1.6,2.3-2.1,3.6s-0.9,2.6-1.1,4
	c-0.4,3-0.2,6.3,0.8,9.9c0.1,0.2,0.1,0.4,0.2,0.6c0.7,2.3,1.5,4.3,2.6,5.9l0,0c0.1,0.2,0.2,0.3,0.3,0.5c1.2,1.8,2.7,3.3,4.4,4.4
	c0.5,0.3,0.9,0.5,1.4,0.8c1.2,0.6,2.6,1,4,1.2c0.1,0,0.3,0,0.4,0h0.1c0.7,0.1,1.5,0.2,2.3,0.2c1.1,0,2.2-0.1,3.3-0.2
	c0.6-0.1,1.2-0.2,1.8-0.3c0.6-0.1,1.2-0.3,1.9-0.4c0.6-0.2,1.3-0.4,1.9-0.6c0.6-0.2,1.3-0.4,1.9-0.7c3-1.1,5.6-2.4,7.7-3.8
	c2.2-1.5,4.1-3.2,5.4-5.1c0.4-0.6,0.8-1.3,1.1-1.9C152.4,66.8,152.7,66,153,65.1L153,65.1z M142.3,64.4c-0.5,1-1.3,1.9-2.3,2.7
	c-1.1,0.9-2.6,1.6-4.4,2.2l0,0c-0.3,0.1-0.7,0.2-1,0.3c-0.3,0.1-0.6,0.2-0.9,0.2c-0.3,0.1-0.6,0.1-0.9,0.2c-0.3,0.1-0.6,0.1-0.8,0.1
	c-1.2,0.1-2.3,0.1-3.2-0.2c-0.9-0.2-1.6-0.7-2.3-1.3c-0.6-0.6-1.2-1.3-1.6-2.2c-0.4-0.9-0.8-1.9-1.1-3.1c-0.4-1.5-0.6-2.8-0.5-4
	c0-1.3,0.3-2.4,0.8-3.4c0.6-1.1,1.4-2,2.6-2.8c1.2-0.9,2.8-1.6,4.7-2.1c0.4-0.1,0.7-0.2,1-0.3s0.6-0.1,1-0.2
	c0.3-0.1,0.6-0.1,0.9-0.1c0.3,0,0.6-0.1,0.8-0.1s0.4,0,0.6,0c0.9,0,1.8,0.1,2.5,0.4c0.8,0.3,1.6,0.7,2.2,1.4
	c0.6,0.6,1.1,1.3,1.5,2.3c0.4,0.8,0.7,1.8,1,3c0.3,1.4,0.4,2.7,0.4,3.8C143,62.4,142.7,63.4,142.3,64.4z M212.8,53.5v2v1.9
	c0,0.2-0.1,0.3-0.3,0.4l-20.1,3.8c0,0,0,0-0.1,0s-0.2,0-0.2-0.1c-0.1-0.1-0.1-0.2-0.1-0.3V61v-4.2V29.4c0-0.2,0.1-0.4,0.3-0.4
	l20.6-1.7c0.1,0,0.2,0,0.3,0.1s0.1,0.2,0.1,0.3l-0.2,7.7c0,0.2-0.1,0.3-0.3,0.4l-12.6,1.4v3.1l12.1-1.5c0.1,0,0.2,0,0.3,0.1
	s0.1,0.2,0.1,0.3l-0.1,7.3c0,0.2-0.1,0.3-0.3,0.4l-12.1,1.8v3.5l12.4-2c0.1,0,0.2,0,0.3,0.1s0.1,0.2,0.1,0.3L212.8,53.5z"/>
<path class="st0" d="M28.7,104.8c-1.8,0.1-3.7-0.5-5.2-2.1c-2.7-2.9-3-7.8-1.7-11.5c1.4-3.7,4.1-6.2,7.6-7.3c3.4-1.1,7.1-0.6,10.4,1
	c1.4,0.6,2.7,1.4,4.1,2.2c1.9,1,3.9,1.9,5.9,2.2c1.2,0.2,2.3,0.1,3.4-0.1c0.4,0.7,0.7,1.5,1.1,2.2c-2.7,1-5.6,1.1-8.7,0.4
	c-1.5-0.3-3.2-0.9-4.9-1.4c-3.7-1.1-7.6-2-10.7,0.4c-0.6,0.4-1,1.5-1.3,2.6c2-1.1,4.2-0.1,5.3,2.3c0.2,0.6,0.4,1.1,0.5,1.6
	C35.5,101.5,32.3,104.6,28.7,104.8z M39.1,66.2c-4.3,0.5-7.5,4.9-7.1,9.1c0.1,1.1,0.5,2.4,1.1,3.3c0.9,1.3,2.2,1.9,3.7,1.4
	c1.7-0.6,3.6-2.9,2.4-4.9c-1.4-2.3-4.8-0.3-3.4,2c-0.3-0.3-0.7-1.1-0.8-1.3c-0.3-1.8,0.8-3.3,1.7-4.1c1.1-1.1,2.8-1.5,4.2-1.5
	c1.7,0.1,3.2,1.3,4.7,2.6c0.3,0.2,0.5,0.4,0.8,0.6c-0.7-2-1.3-3.9-1.8-5.8C42.8,66.4,41.1,65.9,39.1,66.2z M54.4,96.3
	c-3.2,0.5-6.4,2-8.5,4.6c-2.2,2.7-3.2,6.1-2.6,9.7c0.6,3.6,3.1,7.4,6.5,8.3c6,1.6,10.7-6.7,5-11.2c-3.1-2.4-5.3,1.5-5.3,1.5
	c-0.4-1.2-0.3-3,0.2-4.2c0.5-1.1,1.4-1.9,2.4-2.6c1.9-1.3,4.1-2,6.3-2.7c0.1,0,0.3-0.1,0.4-0.1c-0.7-1.3-1.4-2.5-2.1-3.7
	C56.1,96.1,55.2,96.1,54.4,96.3z"/>
<g>
	<path class="st1" d="M47.8,38.5l-2.2,1.1l0.2,1.2l-2,1L43,34.4l2.1-1l5.4,5l-2,1L47.8,38.5z M46.8,37.4L45,35.5l0.4,2.6L46.8,37.4z
		"/>
	<path class="st1" d="M57.3,32.4l2-0.2c0.1,0.5,0.1,1,0,1.4s-0.3,0.8-0.6,1.1s-0.7,0.6-1.3,0.9c-0.7,0.3-1.3,0.4-1.8,0.4
		s-1.1-0.2-1.6-0.6s-1-1-1.3-1.7c-0.5-1.1-0.5-2-0.2-2.8s1-1.4,2-1.9c0.8-0.3,1.5-0.5,2.1-0.3c0.6,0.1,1.2,0.5,1.7,1.1l-1.6,1.1
		c-0.1-0.2-0.3-0.3-0.4-0.3c-0.2-0.1-0.4-0.2-0.6-0.2c-0.2,0-0.4,0-0.6,0.1c-0.4,0.2-0.7,0.5-0.8,1c-0.1,0.3,0,0.8,0.3,1.4
		c0.3,0.7,0.6,1.1,0.9,1.3c0.3,0.2,0.7,0.2,1.1,0c0.4-0.2,0.6-0.4,0.7-0.7C57.4,33.2,57.4,32.8,57.3,32.4z"/>
	<path class="st1" d="M59.5,30.7c-0.4-1.1-0.4-2-0.1-2.8c0.4-0.8,1.1-1.4,2.1-1.8c1.1-0.4,2-0.5,2.8-0.1s1.4,1,1.8,2.1
		c0.3,0.8,0.4,1.4,0.3,2s-0.3,1.1-0.7,1.6c-0.4,0.5-0.9,0.8-1.6,1.1c-0.7,0.3-1.4,0.4-1.9,0.4c-0.6,0-1.1-0.3-1.6-0.7
		C60.2,32.1,59.8,31.5,59.5,30.7z M61.5,30c0.3,0.7,0.6,1.1,0.9,1.3c0.4,0.2,0.7,0.2,1.2,0c0.4-0.2,0.7-0.4,0.8-0.8s0-0.9-0.2-1.6
		c-0.2-0.6-0.5-1-0.9-1.2s-0.7-0.2-1.2,0c-0.4,0.2-0.7,0.4-0.8,0.8C61.2,28.8,61.3,29.3,61.5,30z"/>
	<path class="st1" d="M66.2,24.4l1.9-0.7l3.7,2.8l-1.3-3.6l1.9-0.7l2.3,6.5l-1.9,0.7l-3.7-2.7l1.3,3.6L68.5,31L66.2,24.4z"/>
	<path class="st1" d="M74,21.7l5.1-1.6l0.5,1.4l-3,1l0.4,1.2l2.6-0.8l0.4,1.3L77.4,25l0.9,2.7l-2.1,0.7L74,21.7z"/>
	<path class="st1" d="M80.3,19.8l5.5-1.6l0.4,1.4l-3.5,1l0.3,1.1l3.2-0.9l0.4,1.4l-3.2,0.9l0.4,1.3l3.6-1l0.4,1.5l-5.6,1.6
		L80.3,19.8z"/>
	<path class="st1" d="M88.9,24.5l-1.8-6.7l3.5-0.9c0.6-0.2,1.1-0.2,1.5-0.2s0.7,0.2,1,0.4s0.5,0.6,0.6,1s0.1,0.7,0,1
		s-0.2,0.6-0.5,0.8c-0.1,0.2-0.4,0.3-0.7,0.5c0.3,0,0.5,0.1,0.6,0.1s0.2,0.1,0.4,0.3c0.2,0.1,0.3,0.3,0.4,0.3l1.5,1.7l-2.3,0.6
		l-1.6-1.8c-0.2-0.2-0.4-0.4-0.5-0.4c-0.2-0.1-0.4-0.1-0.5,0h-0.2l0.7,2.7L88.9,24.5z M90,20l0.9-0.2c0.1,0,0.3-0.1,0.5-0.2
		c0.1-0.1,0.2-0.2,0.3-0.3c0.1-0.1,0.1-0.3,0-0.4c-0.1-0.2-0.2-0.4-0.3-0.4c-0.2-0.1-0.4-0.1-0.8,0l-0.9,0.2L90,20z"/>
	<path class="st1" d="M94.6,15.9l5.6-1.3l0.3,1.4L97,16.8l0.3,1.1l3.2-0.8l0.3,1.4l-3.2,0.8l0.3,1.3l3.6-0.8l0.4,1.5l-5.7,1.3
		L94.6,15.9z"/>
	<path class="st1" d="M101.5,14.2l2-0.4l3.3,3.2l-0.8-3.8l2-0.4l1.4,6.8l-2,0.4l-3.3-3.2l0.8,3.7l-2,0.4L101.5,14.2z"/>
	<path class="st1" d="M114.9,15.8l2,0.2c0,0.5-0.1,1-0.3,1.4c-0.2,0.4-0.5,0.7-0.8,1c-0.4,0.2-0.9,0.4-1.5,0.5
		c-0.7,0.1-1.4,0.1-1.9,0s-1-0.4-1.4-0.9s-0.7-1.1-0.9-2c-0.2-1.1-0.1-2.1,0.4-2.8s1.3-1.2,2.4-1.4c0.9-0.2,1.6-0.1,2.1,0.2
		c0.6,0.3,1,0.7,1.4,1.4l-1.8,0.8c-0.1-0.2-0.2-0.3-0.3-0.4c-0.1-0.1-0.3-0.2-0.5-0.3s-0.4-0.1-0.6,0c-0.5,0.1-0.8,0.3-1,0.8
		c-0.1,0.3-0.2,0.8,0,1.4c0.1,0.8,0.3,1.3,0.6,1.5c0.3,0.2,0.6,0.3,1,0.2s0.7-0.2,0.9-0.5C114.8,16.6,114.8,16.2,114.9,15.8z"/>
	<path class="st1" d="M117.1,11.2l5.7-0.9l0.2,1.5l-3.6,0.6l0.2,1.1l3.3-0.5l0.2,1.4l-3.3,0.5l0.2,1.4l3.7-0.6l0.2,1.6l-5.8,0.9
		L117.1,11.2z"/>
	<path class="st1" d="M127.4,9.7l5.3-0.7l0.2,1.5l-3.1,0.4l0.2,1.2l2.7-0.3l0.2,1.4l-2.7,0.3l0.4,2.8l-2.1,0.3L127.4,9.7z"/>
	<path class="st1" d="M134,12.3c-0.1-1.1,0.1-2,0.7-2.7c0.6-0.7,1.4-1.1,2.5-1.2s2.1,0.1,2.8,0.6c0.7,0.6,1.1,1.4,1.2,2.5
		c0.1,0.8,0,1.5-0.2,2s-0.6,1-1,1.3c-0.5,0.3-1.1,0.6-1.9,0.6c-0.8,0.1-1.4,0-2-0.2c-0.5-0.2-1-0.5-1.4-1
		C134.3,13.8,134.1,13.1,134,12.3z M136.1,12.1c0.1,0.7,0.3,1.2,0.5,1.5c0.3,0.3,0.7,0.4,1.1,0.3c0.5,0,0.8-0.2,1-0.6
		c0.2-0.3,0.3-0.9,0.2-1.6c-0.1-0.6-0.3-1.1-0.5-1.4c-0.3-0.3-0.7-0.4-1.1-0.3c-0.4,0-0.8,0.2-1,0.6
		C136.1,10.9,136.1,11.4,136.1,12.1z"/>
	<path class="st1" d="M142.7,14.9L142.1,8l3.6-0.3c0.7-0.1,1.2,0,1.5,0c0.4,0.1,0.7,0.3,0.9,0.6c0.2,0.3,0.4,0.7,0.4,1.1
		s0,0.7-0.2,1c-0.1,0.3-0.3,0.5-0.6,0.7c-0.2,0.1-0.4,0.2-0.7,0.3c0.3,0.1,0.5,0.1,0.6,0.2s0.2,0.2,0.4,0.3c0.2,0.2,0.3,0.3,0.3,0.4
		l1.2,1.9l-2.4,0.2l-1.3-2c-0.2-0.3-0.3-0.4-0.4-0.5c-0.2-0.1-0.3-0.1-0.5-0.1h-0.2l0.2,2.8L142.7,14.9z M144.5,10.6l0.9-0.1
		c0.1,0,0.3-0.1,0.6-0.1c0.1,0,0.2-0.1,0.3-0.2s0.1-0.3,0.1-0.4c0-0.2-0.1-0.4-0.3-0.5s-0.4-0.1-0.8-0.1l-0.9,0.1L144.5,10.6z"/>
	<path class="st1" d="M153,7.2l3.2-0.2c0.6,0,1.1,0,1.5,0.2c0.4,0.1,0.7,0.4,1,0.7c0.3,0.3,0.5,0.7,0.6,1.1s0.2,0.9,0.2,1.3
		c0,0.7,0,1.3-0.2,1.7c-0.1,0.4-0.4,0.8-0.6,1.1c-0.3,0.3-0.6,0.5-0.9,0.6c-0.5,0.2-0.9,0.2-1.3,0.3l-3.2,0.2L153,7.2z M155.2,8.6
		l0.2,3.8h0.5c0.4,0,0.8-0.1,0.9-0.2c0.2-0.1,0.3-0.3,0.4-0.5c0.1-0.3,0.1-0.7,0.1-1.2c0-0.7-0.2-1.2-0.4-1.5
		c-0.3-0.3-0.7-0.4-1.2-0.3L155.2,8.6z"/>
	<path class="st1" d="M160.6,6.8l5.7-0.2v1.5l-3.6,0.1v1.1l3.3-0.1v1.4l-3.3,0.1v1.4l3.7-0.1l0.1,1.6l-5.8,0.2L160.6,6.8z"/>
	<path class="st1" d="M167,6.6h2.2l1.6,5l1.5-5h2.2l-2.5,7h-2.3L167,6.6z"/>
	<path class="st1" d="M175.3,6.5h5.7V8h-3.6v1.1h3.3v1.4h-3.3v1.4h3.7v1.6h-5.8L175.3,6.5z"/>
	<path class="st1" d="M182.4,6.5l2.1,0.1l-0.1,5.2l3.3,0.1v1.7l-5.5-0.1L182.4,6.5z"/>
	<path class="st1" d="M188.4,10.2c0-1.1,0.4-2,1.1-2.6c0.7-0.6,1.5-0.9,2.7-0.8c1.2,0,2,0.4,2.6,1s0.9,1.5,0.8,2.6
		c0,0.8-0.2,1.5-0.5,2s-0.7,0.9-1.2,1.2S192.7,14,192,14c-0.8,0-1.4-0.2-1.9-0.5s-0.9-0.7-1.2-1.2C188.5,11.6,188.4,11,188.4,10.2z
		 M190.5,10.2c0,0.7,0.1,1.2,0.3,1.5s0.6,0.5,1,0.5c0.5,0,0.8-0.1,1.1-0.4s0.4-0.8,0.4-1.6c0-0.7-0.1-1.1-0.3-1.4
		c-0.3-0.3-0.6-0.5-1.1-0.5c-0.4,0-0.8,0.1-1.1,0.4C190.7,9,190.6,9.5,190.5,10.2z"/>
	<path class="st1" d="M197,7l3.6,0.2c0.8,0,1.3,0.3,1.7,0.7s0.5,0.9,0.5,1.6s-0.3,1.2-0.7,1.6s-1.1,0.5-2,0.5l-1.2-0.1l-0.2,2.6
		l-2.1-0.1L197,7z M198.9,10.1h0.5c0.4,0,0.7,0,0.9-0.2c0.2-0.1,0.3-0.3,0.3-0.5s0-0.4-0.2-0.6c-0.1-0.2-0.4-0.3-0.8-0.3H199
		L198.9,10.1z"/>
	<path class="st1" d="M204.1,7.5l5.7,0.4l-0.1,1.5l-3.6-0.3l-0.1,1.1l3.3,0.3l-0.1,1.4l-3.3-0.3l-0.1,1.4l3.7,0.3l-0.1,1.6l-5.8-0.5
		L204.1,7.5z"/>
	<path class="st1" d="M210.5,15l0.7-6.9l3.6,0.3c0.7,0.1,1.2,0.2,1.5,0.3s0.6,0.4,0.8,0.7s0.3,0.7,0.2,1.1c0,0.4-0.1,0.7-0.3,1
		s-0.4,0.5-0.7,0.6c-0.2,0.1-0.5,0.2-0.8,0.2c0.2,0.1,0.4,0.2,0.5,0.3s0.2,0.2,0.3,0.4s0.2,0.4,0.3,0.5l0.8,2.1l-2.4-0.2l-0.9-2.2
		c-0.1-0.3-0.2-0.5-0.3-0.6s-0.3-0.2-0.5-0.2h-0.2l-0.3,2.8L210.5,15z M213,11.1l0.9,0.1c0.1,0,0.3,0,0.6,0c0.1,0,0.3-0.1,0.4-0.2
		c0.1-0.1,0.2-0.2,0.2-0.4s0-0.4-0.2-0.5c-0.1-0.1-0.4-0.2-0.8-0.3l-0.9-0.1L213,11.1z"/>
	<path class="st1" d="M217.8,13.4l2,0.1c0,0.3,0.1,0.6,0.2,0.8c0.2,0.3,0.5,0.5,0.9,0.5c0.3,0,0.5,0,0.7-0.1s0.3-0.3,0.3-0.5
		s0-0.3-0.2-0.5c-0.1-0.2-0.5-0.3-1-0.5c-0.9-0.3-1.5-0.7-1.9-1.1s-0.5-0.9-0.5-1.4c0-0.4,0.2-0.7,0.4-1s0.6-0.5,1-0.6
		s1-0.2,1.7-0.1c0.9,0.1,1.5,0.3,2,0.7c0.4,0.4,0.6,0.9,0.7,1.7l-2-0.1c0-0.3-0.1-0.6-0.3-0.7c-0.2-0.2-0.4-0.3-0.7-0.3
		c-0.2,0-0.4,0-0.6,0.1c-0.1,0.1-0.2,0.2-0.2,0.4c0,0.1,0,0.2,0.1,0.3s0.3,0.2,0.7,0.3c0.9,0.3,1.6,0.6,1.9,0.8
		c0.4,0.3,0.6,0.5,0.8,0.9c0.1,0.3,0.2,0.7,0.2,1.1c0,0.4-0.2,0.8-0.5,1.2c-0.3,0.3-0.7,0.6-1.1,0.7c-0.5,0.1-1,0.2-1.7,0.1
		c-1.2-0.1-2-0.4-2.4-0.9C218,14.7,217.8,14.1,217.8,13.4z"/>
</g>
<g>
	<g class="st2">
		<defs>
			<polygon id="SVGID_1_" class="st2" points="163.6,111 163.6,84.9 274.3,69.3 274.2,95.4 			"/>
		</defs>
		<clipPath id="SVGID_2_">
			<use xlink:href="#SVGID_1_"  style="overflow:visible;"/>
		</clipPath>
		<g class="st3">
			<path d="M170.2,83.9c-2,0.3-3.6,1.1-4.8,2.4c-1.2,1.4-1.8,3.1-1.8,5.1c0,0.7,0.1,1.3,0.2,1.9c0.1,0.6,0.3,1.1,0.5,1.5
				c0.2,0.4,0.5,0.8,0.9,1.3c0.4,0.4,0.7,0.8,1,1c0.3,0.2,0.7,0.5,1.1,0.9l1.5,1.1c1.8,1.5,2.7,3.1,2.7,4.9c0,1.3-0.5,2-1.4,2.1
				c-0.3,0-0.6,0-0.8-0.2c-0.2-0.2-0.4-0.4-0.5-0.7c-0.1-0.3-0.2-0.6-0.3-1.1c-0.1-0.5-0.1-0.9-0.1-1.3c0-0.4,0-0.8,0-1.3l-4.8,1.7
				c0,1,0.2,2,0.5,2.8c0.3,0.9,0.7,1.6,1.2,2.3c0.5,0.7,1.2,1.1,2,1.5c0.8,0.3,1.8,0.4,2.9,0.2c1.7-0.2,3.1-1,4.2-2.3
				c1.2-1.3,1.8-2.8,1.8-4.6c0-0.9-0.1-1.8-0.3-2.6c-0.2-0.8-0.5-1.5-0.9-2.1c-0.4-0.6-0.8-1.2-1.3-1.7c-0.5-0.5-1-1-1.7-1.5
				c-0.2-0.2-0.5-0.4-0.9-0.7c-0.4-0.3-0.8-0.6-1-0.8c-0.3-0.2-0.5-0.5-0.8-0.9c-0.3-0.4-0.5-0.7-0.7-1.2c-0.2-0.4-0.2-0.9-0.2-1.4
				c0-0.6,0.1-1.1,0.4-1.6c0.3-0.5,0.7-0.7,1.2-0.8c0.3,0,0.5,0,0.7,0.2c0.2,0.2,0.4,0.4,0.5,0.7c0.1,0.3,0.2,0.6,0.2,0.9
				c0,0.3,0.1,0.6,0.1,1c0,0.1,0,0.3,0,0.5c0,0.2,0,0.4,0,0.5l4.9-1.4c0-0.2,0-0.3,0-0.4l0-0.2c0-1.8-0.6-3.2-1.7-4.3
				C173.3,84.1,171.9,83.7,170.2,83.9"/>
			<polyline points="187.7,82 178,83.3 178,108.5 187.7,107.1 187.7,103.6 182.7,104.3 182.7,96.6 186.3,96.1 186.3,92.5 182.7,93 
				182.7,86.2 187.7,85.5 187.7,82 			"/>
			<path d="M194.1,91.9l0-7.2c0.3,0,0.6,0,0.8,0c0.2,0,0.4,0.1,0.6,0.1c0.1,0.1,0.3,0.2,0.4,0.4c0.1,0.2,0.2,0.3,0.2,0.5
				c0.1,0.1,0.1,0.3,0.1,0.6c0,0.3,0,0.5,0,0.7c0,0.2,0,0.5,0,0.8c0,0,0,0.1,0,0.2c0,0.3,0,0.6,0,0.8c0,0.2,0,0.4,0,0.7
				c0,0.3,0,0.5-0.1,0.6c0,0.1-0.1,0.3-0.1,0.5c-0.1,0.2-0.1,0.3-0.2,0.4c-0.1,0.1-0.2,0.2-0.3,0.3c-0.1,0.1-0.2,0.2-0.4,0.3
				c-0.1,0.1-0.3,0.1-0.5,0.2C194.6,91.8,194.4,91.8,194.1,91.9 M195,81l-5.6,0.8l0,25.1l4.7-0.7l0-10.7c0.9-0.1,1.6-0.3,2.3-0.5
				c0.7-0.2,1.3-0.5,1.8-1c0.6-0.4,1-0.9,1.4-1.5c0.4-0.6,0.6-1.3,0.9-2.2c0.2-0.9,0.3-1.9,0.3-3c0-2.3-0.5-4-1.4-5.1
				C198.5,81.1,197.1,80.7,195,81"/>
			<polyline points="212.9,78.4 201.4,80.1 201.4,83.8 204.8,83.4 204.8,104.7 209.5,104 209.5,82.7 212.9,82.2 212.9,78.4 			"/>
			<path d="M225.4,76.2c-0.9,0.1-1.7,0.4-2.4,0.7c-0.7,0.4-1.3,0.8-1.8,1.3c-0.5,0.5-0.9,1.1-1.2,1.8c-0.3,0.7-0.5,1.4-0.7,2.2
				c-0.1,0.8-0.2,1.6-0.2,2.6l0,1.6l4.5-0.6c0-0.1,0-0.2,0-0.3c0-0.2,0-0.5,0-0.8c0-0.3,0-0.6,0-0.9c0-0.3,0.1-0.6,0.1-0.9
				c0-0.3,0.1-0.6,0.2-0.9c0.1-0.3,0.2-0.5,0.3-0.8c0.1-0.2,0.3-0.4,0.5-0.6c0.2-0.1,0.4-0.2,0.7-0.3c0.3,0,0.6,0,0.8,0.2
				c0.2,0.1,0.4,0.3,0.5,0.6c0.1,0.3,0.2,0.5,0.3,0.8c0.1,0.3,0.1,0.6,0.1,0.9c0,0.5-0.1,1-0.2,1.5c-0.1,0.5-0.3,1.1-0.6,1.6
				c-0.2,0.5-0.5,1-0.7,1.4c-0.2,0.4-0.5,0.9-0.8,1.4l-5.7,9.5l0,4.3l12.4-1.7l0-4.8l-7.2,1c0.4-0.6,0.9-1.4,1.7-2.4
				c0.8-1.1,1.4-2,2-2.9c0.6-0.8,1.1-1.8,1.7-2.9c0.6-1.1,1.1-2.2,1.4-3.3c0.3-1.1,0.5-2.2,0.5-3.4c0-2.1-0.5-3.7-1.6-4.8
				C228.8,76.3,227.3,75.9,225.4,76.2"/>
			<path d="M239.5,96c-0.3,0-0.6,0-0.8-0.2c-0.2-0.1-0.4-0.3-0.5-0.6c-0.1-0.2-0.2-0.5-0.3-0.9c-0.1-0.3-0.1-0.6-0.1-0.9
				c0-0.3,0-0.6,0-0.8l0-10.3c0-0.3,0-0.6,0-0.9c0-0.3,0.1-0.6,0.1-0.9c0.1-0.4,0.2-0.7,0.3-1c0.1-0.3,0.3-0.5,0.5-0.7
				c0.2-0.2,0.5-0.3,0.8-0.4c1.2-0.2,1.7,1,1.7,3.4l0,10.3c0,0.4,0,0.8-0.1,1.1c0,0.4-0.1,0.7-0.2,1.2c-0.1,0.4-0.3,0.8-0.5,1.1
				C240.2,95.8,239.9,96,239.5,96 M239.5,74.2c-1.1,0.2-2,0.5-2.8,1c-0.8,0.5-1.5,1.2-2,2c-0.5,0.8-0.9,1.7-1.1,2.7
				c-0.2,1-0.4,2-0.4,3.1l0,10.3c0,1.1,0.1,2.1,0.4,3c0.3,0.9,0.6,1.7,1.1,2.3c0.5,0.7,1.2,1.1,2,1.4c0.8,0.3,1.7,0.4,2.8,0.2
				c1-0.1,1.9-0.5,2.8-1c0.8-0.5,1.5-1.2,2-2c0.5-0.8,0.9-1.7,1.1-2.6c0.3-1,0.4-2,0.4-3.1l0-10.3c0-1.1-0.1-2.1-0.4-3
				c-0.2-0.9-0.6-1.7-1.1-2.3c-0.5-0.7-1.1-1.1-2-1.4C241.5,74.1,240.6,74.1,239.5,74.2"/>
			<path d="M253.9,72.2c-0.9,0.1-1.7,0.4-2.4,0.7c-0.7,0.4-1.3,0.8-1.8,1.3c-0.5,0.5-0.9,1.1-1.2,1.8c-0.3,0.7-0.5,1.4-0.7,2.2
				c-0.1,0.8-0.2,1.6-0.2,2.6l0,1.6l4.5-0.6c0-0.1,0-0.2,0-0.3c0-0.2,0-0.5,0-0.8c0-0.3,0-0.6,0-0.9c0-0.3,0.1-0.6,0.1-0.9
				c0-0.3,0.1-0.6,0.2-0.9c0.1-0.3,0.2-0.5,0.3-0.8c0.1-0.2,0.3-0.4,0.5-0.6c0.2-0.1,0.4-0.2,0.7-0.3c0.3,0,0.6,0,0.8,0.2
				c0.2,0.1,0.4,0.3,0.5,0.6c0.1,0.3,0.2,0.5,0.3,0.8c0.1,0.3,0.1,0.6,0.1,0.9c0,0.5-0.1,1-0.2,1.5c-0.1,0.5-0.3,1.1-0.6,1.6
				c-0.2,0.5-0.5,1-0.7,1.4c-0.2,0.4-0.5,0.9-0.8,1.4l-5.7,9.5l0,4.3l12.4-1.7l0-4.8l-7.2,1c0.4-0.6,0.9-1.4,1.7-2.4
				c0.8-1.1,1.4-2,2-2.9c0.6-0.8,1.1-1.8,1.7-2.9c0.6-1.1,1.1-2.2,1.4-3.3c0.3-1.1,0.5-2.2,0.5-3.4c0-2.1-0.5-3.7-1.6-4.8
				C257.3,72.3,255.8,71.9,253.9,72.2"/>
			<path d="M268,92c-0.3,0-0.5,0-0.8-0.2c-0.2-0.1-0.4-0.3-0.5-0.6c-0.1-0.2-0.2-0.5-0.3-0.9c-0.1-0.3-0.1-0.6-0.1-0.9
				c0-0.3,0-0.6,0-0.8l0-10.3c0-0.3,0-0.6,0-0.9c0-0.3,0.1-0.6,0.1-0.9c0.1-0.4,0.2-0.7,0.3-1c0.1-0.3,0.3-0.5,0.5-0.7
				c0.2-0.2,0.5-0.3,0.8-0.4c1.2-0.2,1.7,1,1.7,3.4l0,10.3c0,0.4,0,0.8-0.1,1.1s-0.1,0.7-0.2,1.2c-0.1,0.4-0.3,0.8-0.5,1.1
				C268.6,91.8,268.3,92,268,92 M268,70.2c-1.1,0.2-2,0.5-2.8,1c-0.8,0.5-1.5,1.2-2,2c-0.5,0.8-0.9,1.7-1.1,2.7
				c-0.2,1-0.4,2-0.4,3.1l0,10.3c0,1.1,0.1,2.1,0.4,3c0.3,0.9,0.6,1.7,1.1,2.3c0.5,0.7,1.2,1.1,2,1.4c0.8,0.3,1.7,0.4,2.8,0.2
				c1-0.1,1.9-0.5,2.8-1c0.8-0.5,1.5-1.2,2-2s0.9-1.7,1.2-2.7c0.3-1,0.4-2,0.4-3.1l0-10.3c0-1.1-0.1-2.1-0.4-3
				c-0.2-0.9-0.6-1.7-1.1-2.3c-0.5-0.7-1.1-1.1-2-1.4C270,70.1,269.1,70.1,268,70.2"/>
		</g>
	</g>
</g>
</svg>
