<?xml version="1.0" encoding="utf-8"?>
<!-- Generator: Adobe Illustrator 24.0.0, SVG Export Plug-In . SVG Version: 6.00 Build 0)  -->
<svg version="1.1" id="Layer_1" xmlns="http://www.w3.org/2000/svg" xmlns:xlink="http://www.w3.org/1999/xlink" x="0px" y="0px"
	 viewBox="0 0 1200 1200" style="enable-background:new 0 0 1200 1200;" xml:space="preserve">
<style type="text/css">
	.st0{fill:#FF9900;}
</style>
<symbol  id="New_Symbol" viewBox="-8.25 -8.41 16.51 16.82">
	<polygon class="st0" points="4.81,-6.95 0.47,-4.29 -2.53,-8.41 -3.16,-3.35 -8.25,-3.58 -4.69,0.07 -8.04,3.91 -2.97,3.39 
		-2.05,8.41 0.71,4.12 5.2,6.54 3.57,1.71 8.25,-0.3 3.46,-2.04 	"/>
</symbol>
<symbol  id="New_Symbol_5" viewBox="-5.52 -5.72 11.04 11.44">
	<polygon class="st0" points="4.39,-3.84 1.09,-3.19 -1.13,-5.72 -2.22,-2.53 -5.52,-1.88 -3.3,0.65 -4.39,3.84 -1.09,3.19 
		1.13,5.72 2.22,2.53 5.52,1.88 3.3,-0.65 	"/>
</symbol>
<polygon class="st0" points="174.48,434.32 176.92,439.26 182.37,440.06 178.43,443.9 179.36,449.34 174.48,446.77 169.6,449.34 
	170.53,443.9 166.59,440.06 172.04,439.26 "/>
<polygon class="st0" points="1127.12,271.09 1122.58,268.4 1120.91,273.4 1120.96,268.13 1115.79,269.18 1120.39,266.59 
	1116.9,262.64 1121.44,265.32 1123.11,260.32 1123.06,265.59 1128.23,264.55 1123.63,267.14 "/>
<polygon class="st0" points="340.78,135.31 336.85,130.42 332.89,135.29 335.15,129.44 328.96,128.45 335.16,127.48 332.92,121.62 
	336.86,126.51 340.81,121.64 338.55,127.49 344.74,128.48 338.54,129.45 "/>
<polygon class="st0" points="959.93,374.15 955.97,373.37 953.31,376.41 952.01,372.59 948.05,371.8 950.71,368.76 949.4,364.94 
	953.37,365.72 956.02,362.68 957.33,366.51 961.29,367.29 958.63,370.33 "/>
<polygon class="st0" points="871.15,532.36 870.97,533.29 871.8,533.75 870.86,533.87 870.68,534.8 870.28,533.94 869.33,534.06 
	870.03,533.41 869.63,532.55 870.46,533.01 "/>
<polygon class="st0" points="78.75,949.59 79.93,951.89 81.93,950.26 80.53,952.43 82.95,953.35 80.37,953.22 80.78,955.77 
	79.6,953.47 77.6,955.1 79,952.93 76.59,952.01 79.17,952.14 "/>
<polygon class="st0" points="75.57,185.05 76.75,187.35 78.75,185.72 77.35,187.89 79.77,188.8 77.19,188.67 77.6,191.22 
	76.42,188.93 74.42,190.56 75.82,188.39 73.41,187.47 75.99,187.6 "/>
<polygon class="st0" points="403.16,544.91 402.02,544.72 401.1,545.41 400.42,544.45 399.29,544.27 399.46,543.11 398.78,542.16 
	399.7,541.47 399.87,540.32 401.01,540.51 401.93,539.82 402.61,540.77 403.74,540.96 403.57,542.12 404.25,543.07 403.33,543.75 
	"/>
<polygon class="st0" points="969.48,1078.18 968.35,1077.99 967.43,1078.68 966.75,1077.73 965.62,1077.54 965.79,1076.38 
	965.11,1075.43 966.03,1074.75 966.2,1073.59 967.33,1073.78 968.25,1073.09 968.93,1074.05 970.06,1074.23 969.89,1075.39 
	970.57,1076.34 969.65,1077.03 "/>
<polygon class="st0" points="1066.82,553.95 1065.69,553.76 1064.77,554.45 1064.09,553.49 1062.95,553.31 1063.12,552.15 
	1062.44,551.2 1063.36,550.51 1063.53,549.36 1064.67,549.55 1065.59,548.86 1066.27,549.81 1067.4,550 1067.23,551.16 
	1067.91,552.11 1066.99,552.79 "/>
<polygon class="st0" points="1112.42,929.66 1114.54,925.95 1112.01,922.5 1115.72,924.62 1119.17,922.09 1117.05,925.8 
	1119.58,929.25 1115.87,927.13 "/>
<polygon class="st0" points="287.85,609.6 287.01,605.17 282.62,604.13 287.05,603.29 288.09,598.9 288.93,603.33 293.32,604.37 
	288.89,605.21 "/>
<polygon class="st0" points="406.32,1075.16 406.41,1074.2 405.57,1073.73 406.53,1073.82 407,1072.98 406.91,1073.94 
	407.75,1074.41 406.79,1074.32 "/>
<use xlink:href="#New_Symbol"  width="16.51" height="16.82" x="-8.25" y="-8.41" transform="matrix(0.9595 0.4048 0.4048 -0.9595 828.0823 574.9206)" style="overflow:visible;"/>
<use xlink:href="#New_Symbol_5"  width="11.04" height="11.44" x="-5.52" y="-5.72" transform="matrix(0.6041 0.2549 0.2549 -0.6041 1086.274 907.4962)" style="overflow:visible;"/>
</svg>
