<svg id="Layer_1" data-name="Layer 1" xmlns="http://www.w3.org/2000/svg" viewBox="0 0 536.86 242.35"><defs><style>.cls-1{fill:#05ce7c;}.cls-2{fill:#fff;}.cls-3{fill:#23362b;}.cls-4{fill:#ffae5f;}.cls-5{fill:#218649;}</style></defs><title>logo</title><path class="cls-1" d="M14.08,196.46s-5.57,18.94-3.9,27.29c0,0,15.87-33.7,39.82-40.38,0,0-4.18,32.3,1.39,56,0,0,32.3-78,122.53-102.48,0,0,13.92-4.46,11.7-14.48,0,0,27.85-8.08,31.75-16.43l10,5.29S265,102.34,266.1,93.42l8.35,5,30.91-7.52,1.81-1.53,4.59,1.39,10.58-2.51V85.91l3.2,1.39L331.9,86,333.08,83l4.46,1,8.91-1.39.28-1.39,8.35-.28,1.81-1.39,16.71,1.81,1.81-.63,51.66,15.11,3-7.66s12.74,5.85,14.06-.91l.84-6.41s22.63,6.54,31.4,4.46c0,0-18-7.38-19.08-10.65L356.05,51.1,189,60.56,83.14,106.79Z"/><path class="cls-2" d="M422,69.63l.53-.92-.12,1.05,0,.33-.64,5.67-2.56-1.24,2.67-4.62ZM362.2,62.26l4.76.3-.78-9.42ZM358,72l-.68,1.57,11,3.48-.56-4.69Zm-25.41,3.37,4.9,2,.34-5.86,1.41-13.8-5.27,14ZM320.14,58.06l-1.35,14.89-.29,3.17,5.91,2.42-1.36-6Zm-66.52,3.83a8.57,8.57,0,0,0-1.16-3.1,4.31,4.31,0,0,0-2.15-1.67,10.28,10.28,0,0,0-3.92-.46c-.4,0-.82,0-1.27.08s-.92.09-1.41.16l-1.56.23-1.73.31-4.2.81,2.29,24.36,4.56-1.12a29.32,29.32,0,0,0,6.58-2.29,7.85,7.85,0,0,0,4.63-6.88,32,32,0,0,0-.08-5.75A37.91,37.91,0,0,0,253.63,61.89ZM197.89,76.06a11.44,11.44,0,0,0-2.21-3.36,8.21,8.21,0,0,0-3.25-2.06,11.42,11.42,0,0,0-3.75-.58l-.94,0q-.6,0-1.25.11t-1.34.21q-.69.13-1.43.3t-1.53.4a24.07,24.07,0,0,0-7.09,3.17,11,11,0,0,0-5,9.35,22.09,22.09,0,0,0,.8,5.93,22.7,22.7,0,0,0,1.65,4.61A11.21,11.21,0,0,0,175,97.52a8.33,8.33,0,0,0,3.47,1.9,12.55,12.55,0,0,0,4.82.27q.6-.07,1.23-.18t1.31-.27q.67-.16,1.38-.37t1.46-.46h0a23.67,23.67,0,0,0,6.64-3.33,11,11,0,0,0,4.64-8.92,22.29,22.29,0,0,0-.61-5.63A23,23,0,0,0,197.89,76.06Zm294.83-4.43s-13,5.2-32.94,4.83a135.83,135.83,0,0,1-19.57-1.77c-.08.71-.16,1.41-.24,2.1-.34,3-.08,6.6-3.53,7.58-2.32.66-4.88-.17-7.1-.83-.93-.28-1.84-.58-2.76-.88l1.2-10.86,0-.31,1.53-13.89a.56.56,0,0,0-.28-.54l-4.25-2.45a.56.56,0,0,0-.76.2L424,55l-9.2-1.58.71-2.59a.56.56,0,0,0-.33-.66l-4.68-1.91-.19-.08a.56.56,0,0,0-.46,0,.55.55,0,0,0-.29.35l0,.06-4.13,15-3.29,12L400.59,81a.56.56,0,0,0,.39.69l5,1.39.15,0a.56.56,0,0,0,.54-.41L408.25,77l3.07-11.12,1.1-4,2.35-8.52L424,55l-7.2,12.21-.32.55-5.86,9.93-2.82,4.78a.56.56,0,0,0,.26.79l4.47,1.94a.56.56,0,0,0,.7-.23L415,81.78l5.78,2.61-.43,3.77a.56.56,0,0,0,.33.57l4.39,1.87L378.56,77.69l4.81.74A.55.55,0,0,0,384,78l1.2-5.23,2.9-12.61,2.58,13.27,1.15,5.92a.56.56,0,0,0,.46.44l5.09.78h.08a.56.56,0,0,0,.54-.43l1.22-5.22,3-12.76,2.49-10.67.83-3.56.27-1.16a.56.56,0,0,0-.39-.66l-5.17-1.43a.54.54,0,0,0-.43.06.56.56,0,0,0-.26.35v0L396,60.54l-3-16.43-.21-1.17a.56.56,0,0,0-.4-.44L386,40.74a.56.56,0,0,0-.69.41v0l-7.1,31-1.06,4.64a2.93,2.93,0,0,0,.13.53l-1.2-.73-.38-4.6L373,39.34l10.16,1.53L373,39.34l0-.56a.56.56,0,0,0-.48-.51l-7.07-1a.56.56,0,0,0-.59.33l0,.07-14.9,33.47-2,5.34-1.63-1,.46-4.35L350.4,36.3a.56.56,0,0,0-.54-.62l-10.59-.19a.54.54,0,0,0-.53.36L330.13,59,325.86,35.7a.56.56,0,0,0-.54-.46L313.18,35a.6.6,0,0,0-.56.51l-3.34,38.53L309,79.92l-4.85-2.19.06-3,.1-4.59a.56.56,0,0,0-.19-.43.55.55,0,0,0-.45-.13l-18.54,3,0-5.29,18.14-2.72a.56.56,0,0,0,.47-.54L304,53.22a.56.56,0,0,0-.18-.42.55.55,0,0,0-.44-.14l-18.12,2.23,0-4.57,18.81-2.08a.56.56,0,0,0,.5-.54l.24-11.47a.56.56,0,0,0-.6-.57l-30.73,2.56a.56.56,0,0,0-.51.55v41l.27,6.95-6.89-3.5-2.11-.9c.17-.27.31-.56.47-.85a21.42,21.42,0,0,0,2.06-5.59,42.68,42.68,0,0,0,.62-12.09,45.05,45.05,0,0,0-1.63-9.93,17.8,17.8,0,0,0-3.47-6.69,12.73,12.73,0,0,0-5.59-3.72,23.12,23.12,0,0,0-7.81-1.08q-1.09,0-2.26.08t-2.41.2q-1.25.13-2.58.31t-2.75.42l-18.59,3.11a.56.56,0,0,0-.46.61l4.78,45.11.93,7-7.21-5-.12-.07c-1.77.61-3.85,1.34-5,1.71a24.59,24.59,0,0,0,1.56-3.78h0a25.61,25.61,0,0,0,.85-3.51,36.31,36.31,0,0,0-.51-13.21,36.93,36.93,0,0,0-3.43-10,22.15,22.15,0,0,0-5.44-6.76A20.16,20.16,0,0,0,199,54.87a28.88,28.88,0,0,0-8.84-1c-.9,0-1.83.09-2.77.18s-1.9.22-2.88.37-2,.34-3,.55-2.06.46-3.08.73a54.93,54.93,0,0,0-12.95,5,31,31,0,0,0-9.6,8.06,24.26,24.26,0,0,0-3.14,5.43,23.76,23.76,0,0,0-1.65,6c-1.35,10.21,5.69,25.08,5.85,25.33a22,22,0,0,0,6.58,6.51,19.83,19.83,0,0,0,2.15,1.15,21.9,21.9,0,0,0,5.94,1.79l.58.07h.12a18.6,18.6,0,0,1,.93,4.71c.07.39.12.76.16,1.06.85,7.49-20.5,14.63-26.05,17.75-4.39,2.46-12.59,5.8-29.45,13.84-38.4,18.32-74.8,74.31-75.33,77.94-.14-1.76-1.27-16.34-.11-26.35A242,242,0,0,1,47,177.53s-4-2.36-19.94,10.18c-6.44,5.09-24.29,22.57-24.29,22.57s3.86-27.5,26.37-58.89c5.27-.38,10.07-5,8.77-11.26,2.93-3.5,6-7,9.22-10.38,2.53.78,5,1.64,7.3,2.15a22.11,22.11,0,0,0,13.07-.6q-.87-1.67-1.69-3.31a14.74,14.74,0,0,1-5,.15A26.81,26.81,0,0,1,52,124.84c2.84-2.84,5.72-5.56,8.58-8.09-1.91-4.33-3.54-8.43-4.93-12.35-1.05-3-2-5.82-2.76-8.61a125.46,125.46,0,0,1-4.46-24.62c-1.2-14.55,81.86-41.4,121.72-47,47.77-6.73,119.39-6.9,173.28.75,29.38,4.17,52.92,11.63,69.39,18.52l.35-.25a3.69,3.69,0,0,1,2.39-.37,4,4,0,0,1,1.06-.06,16.41,16.41,0,0,1,5.31,1.54,93.07,93.07,0,0,0,12.57,4.79,17.34,17.34,0,0,1,3.24,1.08l2.67.77c18.17,5.18,49.3,5.64,49.3,5.64a82.1,82.1,0,0,1-10,5.47c-6.17,2.61-11.22,4.19-11.22,4.19s.2,1.59,9.2,3.38C481.34,70.31,492.73,71.63,492.73,71.63ZM143.44,76a.56.56,0,0,0,0-.45.56.56,0,0,0-.31-.32c-1.24-.5-2.43-.92-3.63-1.27a34.27,34.27,0,0,0-3.76-.89c-.37-.07-.75-.11-1.13-.16-.94-.13-1.88-.24-2.83-.29a36.49,36.49,0,0,0-4.22,0c-1.19.07-2.44.2-3.72.38s-2.63.44-4,.75-2.84.69-4.32,1.13-3.07,1-4.7,1.54a71.66,71.66,0,0,0-16,7.81A34.94,34.94,0,0,0,84.39,94.7a24.12,24.12,0,0,0-2.86,6.83c-.07.27-.13.53-.19.8-.23,1.07-.28,2.18-.45,3.27a21.14,21.14,0,0,0,.27,5.9,32.79,32.79,0,0,0,1.07,4.63A42.5,42.5,0,0,0,85,122.77a49.93,49.93,0,0,0,3.88,6.48c.15.21.3.44.45.65.47.64,1,1.25,1.46,1.84l.19.23a28.28,28.28,0,0,0,7.4,6.23,25.13,25.13,0,0,0,9,3h0a30.35,30.35,0,0,0,4.19.28,39.1,39.1,0,0,0,6.56-.58c1.29-.22,2.64-.51,4-.86s2.82-.78,4.24-1.25,2.95-1,4.46-1.63l1.83-.76c.93-.39,1.87-.81,2.84-1.25a73.87,73.87,0,0,0,9.79-5.35,45.68,45.68,0,0,0,4.88-3.7c.6-.53,1.19-1.06,1.74-1.61a33.14,33.14,0,0,0,4.37-5.3c.58-.88,1.12-1.79,1.65-2.76.43-.78.84-1.61,1.26-2.5a.56.56,0,0,0-.35-.77l-.88-.26h0l-14.22-4.21a.56.56,0,0,0-.65.27c-.78,1.42-1.41,2.46-2,3.37a19.79,19.79,0,0,1-5.82,5.65,34,34,0,0,1-4.88,2.57q-1.25.54-2.42,1t-2.26.78c-.74.23-1.45.42-2.11.57s-1.32.28-2,.37a15.41,15.41,0,0,1-5.09,0,10.61,10.61,0,0,1-4-1.64,13.32,13.32,0,0,1-3.18-3.11,23,23,0,0,1-1.94-3.12c-.22-.43-.45-.87-.67-1.34a20.19,20.19,0,0,1-2-6.65,10.65,10.65,0,0,1,.93-5.71,13.59,13.59,0,0,1,4.22-4.92,32.31,32.31,0,0,1,7.9-4.16q1.12-.43,2.17-.76c.69-.22,1.36-.41,2-.57s1.26-.29,1.87-.39,1.18-.18,1.75-.22a19,19,0,0,1,4.71.16,21.37,21.37,0,0,1,2.2.47c.69.18,1.41.41,2.19.68a.55.55,0,0,0,.68-.27l1.19-2.32Z"/><path class="cls-3" d="M507.64,119.06a12,12,0,0,1,9.65-4.43,1.79,1.79,0,0,1,1.45.65c.31.46.1,1.23-.44,1.3a3.24,3.24,0,0,1,3.65,2.53l-.94.29a4.78,4.78,0,0,1,2,2.32,4.73,4.73,0,0,1,.12,1.06l.09,2.2a3.52,3.52,0,0,1-.18,1.57,1.21,1.21,0,0,1-1.26.77,6,6,0,0,1-.27,3.38,2.18,2.18,0,0,1-2.84,1.15A.87.87,0,0,1,518,133a2.51,2.51,0,0,1-1.42-.17,1.88,1.88,0,0,1-2,1.18,5.47,5.47,0,0,1-2.31-1l-.13,1.32a5.92,5.92,0,0,1-3.14-.73,11.78,11.78,0,0,1-1.43-1A6.68,6.68,0,0,1,505,128,11.87,11.87,0,0,1,507.64,119.06Z"/><path class="cls-1" d="M517,115.16a.49.49,0,0,1,.37.17c.23.36-.49.59-.65,1s.23.7.59.75a5.27,5.27,0,0,0,1.09-.1,1.91,1.91,0,0,1,1.69.86c.06.49-1,.48-1,1a.54.54,0,0,0,.17.26,11.77,11.77,0,0,1,3.26,6.26c-.95-2.3-2.86-4-4.72-5.68a18.74,18.74,0,0,0-2-1.63,2,2,0,0,1-1-1.87C514.95,115.1,516.05,115,517,115.16Z"/><path class="cls-4" d="M502.84,103.82C499.89,102,492.28,93.73,498,90.68c2.2-1.18,4.86-1.48,7.11-2.68,3.93-2.09,7.17-5.24,10.66-8a65.47,65.47,0,0,1,9.74-6.42c2-1.05,4.75-1.85,6.1-.08a4.61,4.61,0,0,1,.63,3A33.49,33.49,0,0,1,516,103.58c-2.38,1.39-5.08,2.51-7.83,2.24A12.74,12.74,0,0,1,502.84,103.82Z"/><path class="cls-3" d="M503.12,104.72c-2.95-1.79-10.56-10.08-4.83-13.14,2.2-1.18,4.86-1.48,7.11-2.68,3.93-2.09,7.17-5.24,10.66-8a65.47,65.47,0,0,1,9.74-6.42c2-1.05,4.75-1.85,6.1-.08a4.61,4.61,0,0,1,.63,3,33.49,33.49,0,0,1-16.27,27.07c-2.38,1.39-5.08,2.51-7.83,2.24A12.74,12.74,0,0,1,503.12,104.72Z"/><path class="cls-4" d="M473.67,91.93c5.6-4.77-2-10.65-4.63-15.05-2.25-3.82-4-7.91-5.85-11.93-.39-.85-.92-1.8-1.84-2-1.33-.23-2.22,1.31-2.64,2.6-2.55,7.85-3.41,16.61-.29,24.25,1,2.54,2.84,5.14,5.55,5.54a9.4,9.4,0,0,0,4.43-.8A16.38,16.38,0,0,0,473.67,91.93Z"/><path class="cls-3" d="M481.79,87.83c7.2.06,15.71,2.34,20.94,7.68a29.32,29.32,0,0,1,4.62,7c2.3,4.33,4.62,8.89,5.48,13.78.72,4.09-.06,8.67-3,11.59a15.29,15.29,0,0,1-6.15,3.37c-6.75,2.19-14,2.31-21.09,2-5.36-.23-10.79-.72-15.78-2.68s-9.54-5.6-11.5-10.59a18.65,18.65,0,0,1,.49-13.74A33.23,33.23,0,0,1,464,94.94c2.9-2.73,6.19-5.19,10-6.29A27,27,0,0,1,481.79,87.83Z"/><path class="cls-3" d="M473.83,93c5.6-4.77-2-10.65-4.63-15.05C467,74.09,465.2,70,463.34,66c-.39-.85-.92-1.8-1.84-2-1.33-.23-2.22,1.31-2.64,2.6-2.55,7.85-3.41,16.61-.29,24.25,1,2.54,2.84,5.14,5.55,5.54a9.4,9.4,0,0,0,4.43-.8A16.38,16.38,0,0,0,473.83,93Z"/><path class="cls-5" d="M504.85,99.16a1.56,1.56,0,0,0-.1-.22c-.26-.47-1.21-.58-1.68-.75a4.6,4.6,0,0,1-1.87-1c-.11-.12-1.34-2-.84-1.93,5.41,1.1,10.9-.57,15.52-3.56,4.84-3.13,8.68-7.58,12.07-12.23,1,.14,1.28,1.51,1.15,2.53-.72,5.7-5.15,10.13-9.51,13.87a25.22,25.22,0,0,1-7.2,4.78,9,9,0,0,1-6.09.09A2.17,2.17,0,0,1,505,99.6C504.94,99.46,504.9,99.3,504.85,99.16Z"/><path class="cls-1" d="M504.79,98.48c-1.08-.76-3-1-3.9-1.91-.11-.12-1.34-2-.84-1.93,5.41,1.1,10.9-.57,15.52-3.56,4.84-3.13,8.68-7.58,12.07-12.23,1,.14,1.28,1.51,1.15,2.53-.72,5.7-5.15,10.13-9.51,13.87a25.22,25.22,0,0,1-7.2,4.78c-1.78.68-3.9.94-5.51-.09C505.93,99.52,505.42,98.93,504.79,98.48Z"/><path class="cls-5" d="M461.31,89.36c.75,2,2.28,5.56,5,4.65A6.64,6.64,0,0,0,468.95,92c.41-.45.84-1.12.48-1.62-.55-.75-1.69-1.2-2.32-2a19.35,19.35,0,0,1-2-3.32c-2.52-4.85-4.4-10.49-3.66-15.91-1.2.27-2,1.95-2.19,2.93C457.85,77.8,459.19,83.85,461.31,89.36Z"/><path class="cls-1" d="M462.05,89c.75,2,2.28,5.56,5,4.65a6.64,6.64,0,0,0,2.63-2.05c.41-.45.84-1.12.48-1.62-.55-.75-1.69-1.2-2.32-2a19.35,19.35,0,0,1-2-3.32c-2.52-4.85-5.12-10.11-4.38-15.52A3.85,3.85,0,0,0,460,71.66C458.6,77.4,459.94,83.45,462.05,89Z"/><path class="cls-4" d="M511,108.66l.07.17c1.48,3.73-2,5.06-4.75,6.63-5.57,3.12-11.41,6.87-18,6.44-2-.13-4-.3-5.6-1.48s-2.38-3.32-3-5.23a8.35,8.35,0,0,0-3.8-4.75c-2.55-1.34-5.13-1.37-7.41.44-1.78,1.42-3,3.52-5.11,4.51-2.79,1.32-4.44-.45-6.61-2s-2.81-3.51-2-6.27c1.39-4.49,4.9-8.08,7.91-11.55a24.33,24.33,0,0,1,14-8,21.3,21.3,0,0,1,4.54,0C488.24,88,497,89,502.16,94.3A45.35,45.35,0,0,1,511,108.66Z"/><path class="cls-3" d="M485.15,103.14c.26-1.84,1-4.47,3.12-4.85a4.25,4.25,0,0,1,4.83,3.83,3.79,3.79,0,0,1-.16,1.46,5.77,5.77,0,0,1-.55,1.4,4.31,4.31,0,0,1-3.11,2A3.51,3.51,0,0,1,485.15,103.14Z"/><path class="cls-3" d="M471.93,97.81a3.51,3.51,0,0,0-.77-2.53c-1-1-2.84-.28-3.71.49a7.1,7.1,0,0,0-1.5,2.17,9.14,9.14,0,0,0-.59,2.53,2,2,0,0,0,1.54,2.08,2.86,2.86,0,0,0,1.36,0,3.65,3.65,0,0,0,2.34-1.32,7.78,7.78,0,0,0,1.25-2.8A4,4,0,0,0,471.93,97.81Z"/><path class="cls-4" d="M476.6,113.37a4.68,4.68,0,0,1,.55.56.68.68,0,0,0,.3.24.23.23,0,0,0,.3-.15.33.33,0,0,0-.12-.25,6.24,6.24,0,0,0-3.22-1.75,20.1,20.1,0,0,0-3-.56c-.36,0-2.58-.27-2.51.26a.16.16,0,0,0,.05.11c.09.07.4,0,.52,0l.69,0q.72,0,1.43.13,1.4.15,2.78.43A4.26,4.26,0,0,1,476.6,113.37Z"/><path class="cls-4" d="M474.84,112.37c.43.12,1.24.14,1.24.75,0,.36-.33.77-.45,1.11a7.18,7.18,0,0,0-.31,1.37c-.11.83-.13,1.67-.2,2.5a2,2,0,0,1-.15.68c-.23.49-.66.38-1.12.38a6,6,0,0,1-1.71-.26,1.1,1.1,0,0,1-.67-.43,1.15,1.15,0,0,1-.08-.68A12.5,12.5,0,0,1,472,115a12.28,12.28,0,0,1,1.07-2.72.49.49,0,0,1,.18-.2.47.47,0,0,1,.22,0A5.63,5.63,0,0,1,474.84,112.37Z"/><path class="cls-4" d="M471.56,111.73c.53.09,1.07.22,1.58.31.05,0,.11,0,.13.07a.16.16,0,0,1,0,.13c-.15.35-.38.66-.55,1a11.62,11.62,0,0,0-.89,4.34,2,2,0,0,1-.15.68c-.23.49-.66.38-1.12.38a3.44,3.44,0,0,1-1.39-.22,1.24,1.24,0,0,1-.53-1.38,21.14,21.14,0,0,1,1.18-4.32,2.11,2.11,0,0,1,.44-.83C470.61,111.54,471.12,111.66,471.56,111.73Z"/><path class="cls-3" d="M473.26,112.1a21.86,21.86,0,0,0-1.32,2.86,9.25,9.25,0,0,0-.54,1.63,8,8,0,0,0-.14,1.07c0,.27.07.59,0,.87,0,.1-.1.1-.15.17s.37.08.36,0c0-.26-.08-.51-.08-.76a5.18,5.18,0,0,1,.06-.84,9,9,0,0,1,.39-1.57,15.83,15.83,0,0,1,1.64-3.46S473.35,112,473.26,112.1Z"/><polygon class="cls-5" points="478.66 95.46 478.88 93.69 477.12 93.35 478.78 92.58 478.19 90.66 480.02 91.85 482.07 90.78 480.72 93.18 482.01 94.63 480.21 94.07 478.66 95.46"/><polygon class="cls-5" points="473.1 90.17 473.97 90.54 474.41 89.7 474.54 90.66 475.61 90.66 474.73 91.4 474.7 92.23 473.94 91.56 473.01 91.99 473.57 91.16 473.1 90.17"/><polygon class="cls-5" points="485.97 94.98 486.16 93.97 485.16 93.7 486.14 93.32 485.88 92.19 486.88 92.95 487.77 92.76 487.24 93.74 487.93 94.63 486.92 94.23 485.97 94.98"/><path class="cls-5" d="M480.49,105.26a6,6,0,0,0,2.29,3.83,6.7,6.7,0,0,0,3.09,1.09,9.83,9.83,0,0,0,7.82-2.26c1.63-1.49,2.61-3.58,4.29-5a7.74,7.74,0,0,1,7.93-1.17,7.67,7.67,0,0,0-6.06,2.35,3.44,3.44,0,0,0-1,1.67,1.67,1.67,0,0,0,.65,1.72c.73.45,1.66.09,2.48-.15,2.42-.73,5.45-.15,6.73,2a9.55,9.55,0,0,0-8.14.76c-1.29.78-2.37,1.85-3.62,2.69a12.91,12.91,0,0,1-8.53,2,15.22,15.22,0,0,1-8.08-3.54,8,8,0,0,1-2.49-3.22c-1-2.72,0-6.89,1.95-9a6,6,0,0,1,6.28-1.61,7.83,7.83,0,0,0-3.94,2.17,6.42,6.42,0,0,0-1.8,4.09A7.07,7.07,0,0,0,480.49,105.26Z"/><path class="cls-5" d="M475.16,102.91a6.9,6.9,0,0,0-.29-5.71,4.23,4.23,0,0,0-2.53-2.45c.68.15,1.52,3.13,1.51,3.74a8,8,0,0,1-1.25,3.83,5.68,5.68,0,0,1-8.37,1.28,3.75,3.75,0,0,1-1.46-2.55c-.12-1.9,1.24-3.33,2-5a2.85,2.85,0,0,0,.29-2c-.07-.2-.23-.41-.44-.39a6.73,6.73,0,0,1-1.36,2.83,3.69,3.69,0,0,1-2,1.1c-1.66.3-.9,1.79-.71,2.93.13.8,0,1.61,0,2.42.39,5,7,5.16,10.58,4A6.22,6.22,0,0,0,475.16,102.91Z"/><path class="cls-5" d="M495.5,99.67a25.46,25.46,0,0,0-3.6-2c-.72-.27-4-1.06-4.6-.49a3.25,3.25,0,0,1,2.48-.67c.88.07,1.73.33,2.6.44,1.64.19,3.23-.45,3.25-2.34,0-1-.53-1.88-.46-2.84a4.43,4.43,0,0,1,1.19,6.81,4.32,4.32,0,0,0,2.14-.68,1.93,1.93,0,0,0,.82-2,2.52,2.52,0,0,1-1.12,4.39A4,4,0,0,1,495.5,99.67Z"/><path class="cls-5" d="M466.69,92.35c-.07,1.23.9,1.25,1.88,1.21a4.75,4.75,0,0,1,2.9.83c.27-1.6-1.83-1.51-2-2.6-.05-.36.34-1.21.22-1.47-.28-.57-.94.34-1.13.54a3.16,3.16,0,0,1-1.45,1,.66.66,0,0,0-.32.15A.59.59,0,0,0,466.69,92.35Z"/><path class="cls-2" d="M486.72,101.1c.08-.6.33-1.46,1-1.58a1.39,1.39,0,0,1,1.58,1.25,1.24,1.24,0,0,1-.05.48,1.89,1.89,0,0,1-.18.46,1.41,1.41,0,0,1-1,.67A1.15,1.15,0,0,1,486.72,101.1Z"/><path class="cls-2" d="M470.2,97a1.29,1.29,0,0,0-.28-.93c-.35-.36-1-.1-1.36.18a2.61,2.61,0,0,0-.55.8,3.36,3.36,0,0,0-.22.93.72.72,0,0,0,.57.76,1.05,1.05,0,0,0,.5,0,1.34,1.34,0,0,0,.86-.49,2.86,2.86,0,0,0,.46-1A1.49,1.49,0,0,0,470.2,97Z"/><path class="cls-5" d="M486.43,131.15a35.69,35.69,0,0,0,12.8-1c4.12-1.26,8-3.91,9.84-7.79a6.61,6.61,0,0,1,1.55-2.46,16,16,0,0,1-10,10.41,29,29,0,0,1-9.94,1"/><path class="cls-4" d="M427.83,71.49l1.53-13.89a.56.56,0,0,0-.28-.54l-4.25-2.45a.56.56,0,0,0-.76.2L424,55h0l-7.2,12.21-.32.55-5.86,9.93-2.82,4.78a.56.56,0,0,0,.26.79l4.47,1.94a.56.56,0,0,0,.7-.23L415,81.78l5.78,2.61-.43,3.77a.56.56,0,0,0,.33.57l.92.4L425,90.59a.56.56,0,0,0,.77-.45l.82-7.49,1.2-10.86Zm-5.38-1.72,0,.33-.64,5.67-2.56-1.24,2.67-4.62.15-.27.53-.92Zm-17.06-6.18,4.13-15,0-.06a.55.55,0,0,1,.29-.35.56.56,0,0,1,.46,0l.19.08,4.68,1.91a.56.56,0,0,1,.33.66l-.71,2.59h0l-2.35,8.52-1.1,4L408.25,77l-1.56,5.67a.56.56,0,0,1-.54.41l-.15,0-5-1.39a.56.56,0,0,1-.39-.69l1.51-5.48ZM378.56,77.69h0l-1-.15a.54.54,0,0,1-.46-.44.55.55,0,0,1,0-.24l1.06-4.64,7.1-31v0a.56.56,0,0,1,.69-.41l6.37,1.76a.56.56,0,0,1,.4.44l.21,1.17,3,16.43,3.58-15.4v0a.56.56,0,0,1,.26-.35.54.54,0,0,1,.43-.06l5.17,1.43a.56.56,0,0,1,.39.66l-.27,1.16-.83,3.56-2.49,10.67-3,12.76L398,80.16a.56.56,0,0,1-.54.43h-.08l-5.09-.78a.56.56,0,0,1-.46-.44l-1.15-5.92-2.58-13.27-2.9,12.61L384,78a.55.55,0,0,1-.63.43ZM266.8,75.91a42.68,42.68,0,0,0,.62-12.09,45.05,45.05,0,0,0-1.63-9.93,17.8,17.8,0,0,0-3.47-6.69,12.73,12.73,0,0,0-5.59-3.72,23.12,23.12,0,0,0-7.81-1.08q-1.09,0-2.26.08t-2.41.2q-1.25.13-2.58.31t-2.75.42l-18.59,3.11a.56.56,0,0,0-.46.61l4.78,45.11.65,6.15,0,.42a.56.56,0,0,0,.55.5l.15,0,17.62-4.77a59.15,59.15,0,0,0,11.57-4.22,23.14,23.14,0,0,0,7.58-5.88,18.37,18.37,0,0,0,1.45-2.08c.17-.27.31-.56.47-.85A21.42,21.42,0,0,0,266.8,75.91Zm-12.52-3.59a7.85,7.85,0,0,1-4.63,6.88,29.32,29.32,0,0,1-6.58,2.29l-4.56,1.12-2.29-24.36,4.2-.81,1.73-.31,1.56-.23q.74-.1,1.41-.16c.44,0,.87-.07,1.27-.08a10.28,10.28,0,0,1,3.92.46,4.31,4.31,0,0,1,2.15,1.67,8.57,8.57,0,0,1,1.16,3.1,37.91,37.91,0,0,1,.58,4.68A32,32,0,0,1,254.28,72.32Zm-102.35,52.2c-.55.55-1.14,1.08-1.74,1.61a45.68,45.68,0,0,1-4.88,3.7,73.87,73.87,0,0,1-9.79,5.35c-1,.45-1.92.86-2.84,1.25l-1.83.76c-1.51.6-3,1.15-4.46,1.63s-2.85.89-4.24,1.25-2.74.64-4,.86a39.1,39.1,0,0,1-6.56.58,30.35,30.35,0,0,1-4.19-.28h0a25.13,25.13,0,0,1-9-3,28.28,28.28,0,0,1-7.4-6.23l-.19-.23c-.5-.59-1-1.2-1.46-1.84-.15-.21-.3-.44-.45-.65A49.93,49.93,0,0,1,85,122.77a42.5,42.5,0,0,1-2.71-6.64,32.79,32.79,0,0,1-1.07-4.63c-.1-.62-.18-1.24-.23-1.85h0c-.06-.65-.1-1.3-.11-1.94s0-1.41.07-2.1a23.89,23.89,0,0,1,.45-3.27c.06-.27.12-.54.19-.8a24.12,24.12,0,0,1,2.86-6.83A34.94,34.94,0,0,1,94.84,84.25a71.66,71.66,0,0,1,16-7.81c1.64-.58,3.22-1.1,4.7-1.54s2.93-.82,4.32-1.13,2.71-.56,4-.75,2.53-.31,3.72-.38a36.49,36.49,0,0,1,4.22,0c.95.05,1.89.16,2.83.29.38.05.76.1,1.13.16a34.27,34.27,0,0,1,3.76.89c1.2.35,2.39.77,3.63,1.27a.56.56,0,0,1,.31.32.56.56,0,0,1,0,.45l-5.08,9.87h0l-1.78,3.45h0l-1.19,2.32a.55.55,0,0,1-.68.27c-.78-.27-1.49-.49-2.19-.68a21.37,21.37,0,0,0-2.2-.47,19,19,0,0,0-4.71-.16q-.85.07-1.75.22t-1.87.39c-.65.16-1.31.35-2,.57s-1.42.48-2.17.76a32.31,32.31,0,0,0-7.9,4.16,13.59,13.59,0,0,0-4.22,4.92,10.65,10.65,0,0,0-.93,5.71,20.19,20.19,0,0,0,2,6.65c.22.47.44.91.67,1.34a23,23,0,0,0,1.94,3.12,13.32,13.32,0,0,0,3.18,3.11,10.61,10.61,0,0,0,4,1.64,15.41,15.41,0,0,0,5.09,0c.63-.09,1.29-.21,2-.37s1.37-.34,2.11-.57,1.48-.48,2.26-.78,1.59-.62,2.42-1a34,34,0,0,0,4.88-2.57,19.79,19.79,0,0,0,5.82-5.65c.63-.91,1.26-2,2-3.37a.56.56,0,0,1,.65-.27L158,112.93h0l.88.26a.56.56,0,0,1,.35.77c-.42.9-.83,1.72-1.26,2.5-.53,1-1.07,1.88-1.65,2.76A33.14,33.14,0,0,1,151.94,124.52Zm194.27-49h0l-.08.71a.56.56,0,0,1-.5.5l-7.78.71a.56.56,0,0,1-.45-.16.55.55,0,0,1-.16-.45v-.1l.54-5.27,1.41-13.8-5.27,14-1.38,3.66-.89,2.37a.56.56,0,0,1-.47.36l-6.42.59a.56.56,0,0,1-.6-.44l-.06-.3h0l-1.08-5.38-2.91-14.46-1.35,14.89-.29,3.17h0l-.24,2.67a.56.56,0,0,1-.5.5l-8.35.76h-.05a.56.56,0,0,1-.55-.6v-.14l.46-5.25,3.34-38.53a.6.6,0,0,1,.56-.51l12.14.22a.56.56,0,0,1,.54.46L330.13,59l8.6-23.12a.54.54,0,0,1,.53-.36l10.59.19a.56.56,0,0,1,.54.62l-3.72,34.88ZM373,39.34h0l0-.56a.56.56,0,0,0-.48-.51l-7.07-1a.56.56,0,0,0-.59.33l0,.07-14.9,33.47-2.11,4.74a.54.54,0,0,0,0,.08.54.54,0,0,0,.51.71l7.24.17a.56.56,0,0,0,.52-.34l1.29-3L358,72l9.77.36.33,4.1,0,.2a.56.56,0,0,0,.54.51l6.83.16h0a.56.56,0,0,0,.55-.6v0l-.38-4.6ZM362.2,62.26l4-9.12.78,9.42ZM214.84,92.06a25.61,25.61,0,0,0,.85-3.51,36.31,36.31,0,0,0-.51-13.21,36.93,36.93,0,0,0-3.43-10,22.15,22.15,0,0,0-5.44-6.76A20.16,20.16,0,0,0,199,54.87a28.88,28.88,0,0,0-8.84-1c-.9,0-1.83.09-2.77.18s-1.9.22-2.88.37-2,.34-3,.55-2.06.46-3.08.73a54.93,54.93,0,0,0-12.95,5,31,31,0,0,0-9.6,8.06,24.26,24.26,0,0,0-3.14,5.43,25.15,25.15,0,0,0-1.65,6A36,36,0,0,0,152.38,95c.09.33.2.63.29,1a36.61,36.61,0,0,0,3.84,8.85h0c.16.25.32.51.48.75a22,22,0,0,0,6.58,6.51,19.83,19.83,0,0,0,2.15,1.15,21.9,21.9,0,0,0,5.94,1.79l.58.07h.12a27.91,27.91,0,0,0,3.47.23,35.46,35.46,0,0,0,5-.37c.88-.12,1.79-.29,2.73-.48s1.84-.41,2.78-.66,1.88-.52,2.83-.83,1.9-.63,2.86-1a54.4,54.4,0,0,0,11.47-5.64,30.29,30.29,0,0,0,8.07-7.67,23.79,23.79,0,0,0,1.71-2.87,24.59,24.59,0,0,0,1.56-3.78ZM198.78,91a11.53,11.53,0,0,1-3.49,4.08,23.67,23.67,0,0,1-6.64,3.33h0q-.75.26-1.46.46t-1.38.37q-.67.16-1.31.27t-1.23.18a12.55,12.55,0,0,1-4.82-.27,8.33,8.33,0,0,1-3.47-1.9,11.21,11.21,0,0,1-2.45-3.35,22.7,22.7,0,0,1-1.65-4.61,22.09,22.09,0,0,1-.8-5.93,11,11,0,0,1,5-9.35,24.07,24.07,0,0,1,7.09-3.17q.79-.23,1.53-.4t1.43-.3q.69-.13,1.34-.21t1.25-.11l.94,0a11.42,11.42,0,0,1,3.75.58,8.21,8.21,0,0,1,3.25,2.06,11.44,11.44,0,0,1,2.21,3.36,23,23,0,0,1,1.42,4.47,22.29,22.29,0,0,1,.61,5.63A11.62,11.62,0,0,1,198.78,91ZM304.23,74.73l-.06,3-.06,2.9a.56.56,0,0,1-.45.54l-30,5.67h-.1a.56.56,0,0,1-.56-.56V38.77a.56.56,0,0,1,.51-.55l30.73-2.56a.56.56,0,0,1,.6.57l-.24,11.47a.56.56,0,0,1-.5.54L285.3,50.32l0,4.57,18.12-2.23a.55.55,0,0,1,.44.14.56.56,0,0,1,.18.42l-.22,10.86a.56.56,0,0,1-.47.54l-18.14,2.72,0,5.29,18.54-3a.55.55,0,0,1,.45.13.56.56,0,0,1,.19.43Z"/><path class="cls-4" d="M29.19,151.39a9.45,9.45,0,0,1-7.77-3.12c-4-4.33-4.53-11.7-2.48-17.16a17.89,17.89,0,0,1,11.34-10.94c5-1.68,10.68-.84,15.53,1.42,2,1,4.07,2.14,6.15,3.25a26.81,26.81,0,0,0,8.87,3.32,14.74,14.74,0,0,0,5-.15q.82,1.63,1.69,3.31a22.11,22.11,0,0,1-13.07.6c-2.29-.52-4.77-1.38-7.3-2.15-5.54-1.7-11.33-3-16,.62-.85.66-1.48,2.23-1.95,3.91,3-1.68,6.35-.22,7.94,3.41a12.21,12.21,0,0,1,.77,2.44C39.25,146.42,34.46,151,29.19,151.39Zm15.5-57.72c-6.42.82-11.22,7.33-10.6,13.65a11.11,11.11,0,0,0,1.69,4.9,4.58,4.58,0,0,0,5.56,2c2.49-1,5.4-4.32,3.6-7.32-2.07-3.42-7.2-.4-5.15,3a5.21,5.21,0,0,1-1.18-2c-.48-2.73,1.25-4.93,2.52-6.12a8.78,8.78,0,0,1,6.29-2.22c2.53.1,4.85,2,7,3.84l1.14.94c-1.05-3-2-5.82-2.76-8.61A11.11,11.11,0,0,0,44.68,93.67Zm22.9,44.93a20.26,20.26,0,0,0-12.75,6.87A18.09,18.09,0,0,0,50.9,160c.87,5.41,4.67,11,9.78,12.36,9,2.43,16-10,7.54-16.67C63.6,152,60.3,158,60.3,158a9.27,9.27,0,0,1,.37-6.21,10.25,10.25,0,0,1,3.56-3.87,30.09,30.09,0,0,1,9.42-4l.65-.19q-1.6-2.82-3.08-5.51C70,138.3,68.77,138.42,67.59,138.6Z"/><path class="cls-2" d="M237.48,127.84h4.77l6.48,18.46h-5L242.7,143h-5.77l-1,3.3H231Zm4,11.38-1.7-5.38-1.7,5.38Z"/><path class="cls-2" d="M250.17,127.95h6.56c4.33,0,7.16,2.26,7.16,6.37v.1c0,4.41-3.2,6.51-7.21,6.56h-1.81v5.32h-4.7Zm6.35,9.18a2.39,2.39,0,0,0,2.65-2.52v-.08a2.35,2.35,0,0,0-2.67-2.54h-1.63v5.14Z"/><path class="cls-2" d="M265.66,127.95h7.21a7.46,7.46,0,0,1,5.51,1.86,5.82,5.82,0,0,1,1.6,4.3v.13a5.65,5.65,0,0,1-3.28,5.4l3.78,6.66h-5.32L272,140.61h-1.68v5.69h-4.7Zm7,8.92a2.28,2.28,0,0,0,2.54-2.39v-.05c0-1.57-1-2.36-2.57-2.36h-2.31v4.8Z"/><path class="cls-2" d="M282.18,127.95h4.72v18.36h-4.72Z"/><path class="cls-2" d="M289.74,127.95h4.72v14.11h7.21v4.25H289.74Z"/><path class="cls-2" d="M309.19,142.61l5.88-5.61c1.49-1.49,2.07-2.31,2.07-3.36a1.71,1.71,0,0,0-1.86-1.76c-1.13,0-2,.71-3.36,2.1l-2.81-3a8.18,8.18,0,0,1,6.66-3.33c3.57,0,6.08,2.18,6.08,5.51v.05c0,2.47-1.15,4-3.57,6.19l-3.07,2.88h6.69v4H309.19Z"/><path class="cls-2" d="M323.64,137.34v-.39c0-5.46,2.88-9.34,7.53-9.34s7.47,3.83,7.47,9.31v.39c0,5.46-2.88,9.34-7.53,9.34S323.64,142.82,323.64,137.34Zm10.25,0V137c0-3.36-1.13-5.14-2.78-5.14s-2.73,1.73-2.73,5.09v.37c0,3.36,1.1,5.14,2.78,5.14S333.89,140.67,333.89,137.34Z"/><path class="cls-2" d="M342.83,132.41l-2.73.68-.66-3.91,4.64-1.34h3.41v18.46h-4.67Z"/><path class="cls-2" d="M357.31,132.12H350v-4.17h12.46v3.44l-6.82,14.92h-5.06Z"/><path class="cls-2" d="M46.38,48.25,48.68,47l8.09,7.15-2.39,1.33L53,54.15,50.19,55.7l.38,1.87-2.34,1.31Zm5,4.4-2.27-2.13.63,3Z"/><path class="cls-2" d="M58,47.92l-.08-.16c-1.37-2.81-.43-5.54,2-6.71a4.33,4.33,0,0,1,3.85-.1L63,43.29a2.28,2.28,0,0,0-2-.08c-1.07.52-1.4,1.86-.64,3.41l0,.05c.79,1.63,2,2.13,3.09,1.62a2.35,2.35,0,0,0,1.23-1.71l2.22.79a4.45,4.45,0,0,1-2.52,3.16C62.05,51.66,59.37,50.76,58,47.92Z"/><path class="cls-2" d="M65.83,44.12l-.09-.2c-1.23-2.76-.29-5.51,2.19-6.62s5.14,0,6.38,2.78l.09.2c1.23,2.76.29,5.51-2.19,6.62S67.07,46.89,65.83,44.12ZM72,41.34l-.06-.15c-.71-1.6-1.92-2.23-3-1.74s-1.42,1.79-.7,3.39l.06.15c.71,1.6,1.92,2.23,3,1.74S72.68,42.94,72,41.34Z"/><path class="cls-2" d="M73.66,35l2.27-.92,5,3.45L79,32.78l2.37-1,3.82,9.39-2.15.87-5.25-3.6,2,4.92-2.37,1Z"/><path class="cls-2" d="M83,31.2l6.45-2.43L90.3,31l-4,1.51.63,1.68,3.6-1.36.79,2.1-3.6,1.36L89,39.77l-2.44.92Z"/><path class="cls-2" d="M90.65,28.35l6.59-2.3L98,28.21l-4.16,1.45.55,1.57,3.75-1.31.71,2L95.1,33.27l.57,1.64,4.21-1.47.75,2.16L94,37.92Z"/><path class="cls-2" d="M98.64,25.59l3.79-1.22a4.12,4.12,0,0,1,3.21,0,3.21,3.21,0,0,1,1.57,2l0,.07a3.12,3.12,0,0,1-.81,3.39l3.11,2.86-2.8.9-2.6-2.46-.88.28,1,3-2.47.79Zm5.2,3.49a1.26,1.26,0,0,0,.93-1.68v0a1.24,1.24,0,0,0-1.75-.81L101.8,27l.81,2.52Z"/><path class="cls-2" d="M107.47,22.76l6.69-2,.65,2.19-4.22,1.25.47,1.6,3.8-1.13.61,2.07-3.8,1.13.49,1.67,4.28-1.27.65,2.19-6.75,2Z"/><path class="cls-2" d="M115.54,20.38l2.36-.64,4.59,4-1.34-4.92,2.47-.67L126.29,28l-2.24.61-4.78-4.21,1.39,5.13-2.47.67Z"/><path class="cls-2" d="M126.21,22.85l0-.17c-.75-3,.75-5.51,3.34-6.15a4.33,4.33,0,0,1,3.79.71l-1.21,2.13a2.28,2.28,0,0,0-2-.5c-1.15.28-1.76,1.52-1.35,3.2v.06c.43,1.76,1.54,2.51,2.68,2.23A2.35,2.35,0,0,0,133,22.95l2,1.24a4.45,4.45,0,0,1-3.13,2.56C129.4,27.37,127,25.92,126.21,22.85Z"/><path class="cls-2" d="M134.09,15.61l6.81-1.53.5,2.23-4.3,1,.36,1.63,3.87-.87.47,2.1-3.87.87.38,1.7,4.35-1,.5,2.23-6.87,1.54Z"/><path class="cls-2" d="M145.75,13.08l6.76-1.32.45,2.3-4.21.82.34,1.76,3.78-.74.43,2.2-3.78.74.72,3.68-2.56.5Z"/><path class="cls-2" d="M154.3,16.69l0-.21c-.52-3,1.07-5.42,3.75-5.89s5,1.26,5.51,4.26l0,.21c.52,3-1.07,5.42-3.75,5.89S154.82,19.68,154.3,16.69Zm6.63-1.19,0-.16c-.3-1.73-1.31-2.64-2.5-2.43s-1.82,1.39-1.51,3.12l0,.16c.3,1.73,1.31,2.64,2.5,2.43S161.23,17.23,160.93,15.5Z"/><path class="cls-2" d="M164,9.76l3.94-.6a4.12,4.12,0,0,1,3.16.56,3.21,3.21,0,0,1,1.23,2.22V12A3.12,3.12,0,0,1,171,15.23l2.61,3.32-2.91.44-2.17-2.85-.92.14.47,3.11-2.56.39ZM168.6,14a1.26,1.26,0,0,0,1.19-1.51v0a1.24,1.24,0,0,0-1.6-1.08l-1.26.19.4,2.62Z"/><path class="cls-2" d="M176.64,7.91l3.31-.41c3.23-.4,5.31,1.33,5.68,4.29l0,.17c.36,3-1.24,5.2-4.5,5.6l-3.26.4Zm2.87,2,.67,5.43.75-.09c1.44-.18,2.3-1.14,2.07-2.94l0-.13c-.22-1.81-1.29-2.54-2.73-2.36Z"/><path class="cls-2" d="M186.37,6.74,193.31,6l.24,2.28-4.38.45.17,1.66,3.95-.41.22,2.15-3.95.41.18,1.73,4.44-.46.24,2.28-7,.73Z"/><path class="cls-2" d="M194,5.93l2.83-.24,2.4,6.13,1.31-6.45,2.77-.24L200.8,15.59l-2.5.21Z"/><path class="cls-2" d="M204.28,5.08l7-.47.15,2.28-4.39.3.11,1.66,4-.27.15,2.15-4,.27.12,1.73,4.45-.3.15,2.28-7,.47Z"/><path class="cls-2" d="M212.64,4.52l2.6-.13.4,7.78,4-.21.12,2.34-6.58.34Z"/><path class="cls-2" d="M219.74,9.34V9.13c-.11-3,1.8-5.22,4.52-5.32s4.76,1.93,4.87,5V9c.11,3-1.8,5.22-4.52,5.32S219.85,12.38,219.74,9.34Zm6.73-.27V8.91c-.06-1.75-.94-2.79-2.14-2.75s-2,1.13-1.92,2.88V9.2c.06,1.75.94,2.79,2.14,2.75S226.53,10.82,226.47,9.07Z"/><path class="cls-2" d="M230.31,3.8l3.62-.06c2.39,0,4,1.17,4,3.45v.06c0,2.43-1.7,3.62-3.92,3.69l-1,0,.05,2.94-2.59,0Zm3.6,5a1.32,1.32,0,0,0,1.44-1.42v0A1.3,1.3,0,0,0,233.84,6l-.9,0L233,8.82Z"/><path class="cls-2" d="M239,3.66h7V5.94h-4.4V7.61h4V9.76h-4v1.74h4.46v2.29l-7,0Z"/><path class="cls-2" d="M247.35,3.66l4,.05a4.12,4.12,0,0,1,3,1.07,3.21,3.21,0,0,1,.85,2.39v.07a3.12,3.12,0,0,1-1.85,3l2,3.71-2.94,0-1.68-3.17h-.93l0,3.14-2.59,0Zm3.81,5a1.26,1.26,0,0,0,1.42-1.3v0c0-.87-.53-1.31-1.4-1.32l-1.27,0,0,2.65Z"/><path class="cls-2" d="M255.57,12.57,257,10.71a4.42,4.42,0,0,0,2.72,1.23c.7,0,1.07-.27,1.08-.71h0c0-.41-.29-.66-1.46-1.12-1.89-.71-3.22-1.44-3.16-3.28v0c.05-1.84,1.5-3.09,3.71-3a5.55,5.55,0,0,1,3.58,1.34L262.12,7a4,4,0,0,0-2.33-1c-.59,0-.94.26-.95.64h0c0,.45.3.69,1.57,1.21,1.91.68,3.09,1.5,3,3.22v0c-.06,2-1.61,3.14-3.79,3.08A6.18,6.18,0,0,1,255.57,12.57Z"/><path class="cls-2" d="M171.8,175.2V154.52h1.83v19.22h5.78v1.47Z"/><path class="cls-2" d="M181.73,175.2h-1.84L184,154.52h2.38l4.09,20.68h-1.85l-1-5.38h-4.77Zm1.27-6.6h4.33l-2.18-12.19Z"/><path class="cls-2" d="M192.76,175.2V154.52h1.41l6.55,16.38V154.52h1.55V175.2H200.9l-6.56-16v16Z"/><path class="cls-2" d="M205.4,169.42v-8.77q0-6.42,5.44-6.42a6,6,0,0,1,1.57.19,4,4,0,0,1,1.19.52,3.38,3.38,0,0,1,.85.85,5,5,0,0,1,.58,1.07,6.93,6.93,0,0,1,.35,1.29,13.53,13.53,0,0,1,.18,1.43q0,.69,0,1.54v.14h-1.83V161q0-.88,0-1.33t-.09-1.19a3.41,3.41,0,0,0-.26-1.13,5.56,5.56,0,0,0-.5-.82,1.73,1.73,0,0,0-.84-.61,3.77,3.77,0,0,0-1.25-.19,4,4,0,0,0-1.73.34,2.64,2.64,0,0,0-1.12,1,4.31,4.31,0,0,0-.57,1.32,6.55,6.55,0,0,0-.17,1.56v10.34a6.41,6.41,0,0,0,.14,1.42,4,4,0,0,0,.5,1.21,2.32,2.32,0,0,0,1.06.9,4.24,4.24,0,0,0,1.74.32,3.59,3.59,0,0,0,1.62-.34,2.32,2.32,0,0,0,1-.92,4.23,4.23,0,0,0,.48-1.21,6.43,6.43,0,0,0,.14-1.38v-3.5h-2.54v-1.38h4.36v9.87h-.81l-.54-2a3.39,3.39,0,0,1-1.45,1.71,4.32,4.32,0,0,1-2.3.64,7.16,7.16,0,0,1-1.52-.15,5.51,5.51,0,0,1-1.2-.39,3.54,3.54,0,0,1-.91-.62,4.76,4.76,0,0,1-.66-.75,4.16,4.16,0,0,1-.45-.87,7.06,7.06,0,0,1-.29-.89,7,7,0,0,1-.15-.9q-.05-.5-.07-.82T205.4,169.42Z"/><path class="cls-2" d="M218.86,175.2V154.52h1.83v9.36h6.37v-9.36h1.83V175.2h-1.83v-10h-6.37v10Z"/><path class="cls-2" d="M233,175.2H231.2l4.09-20.68h2.38l4.09,20.68H239.9l-1-5.38H234.1Zm1.27-6.6h4.33l-2.18-12.19Z"/><path class="cls-2" d="M244.07,175.2V154.52h2.25l4,17.86q.73-3.51,1.95-8.59t2-9.27h2.25V175.2h-1.62V158.65L251.1,175.2h-1.59l-3.82-16.54V175.2Z"/><path class="cls-2" d="M264.94,175.2V154.52h1.83v9.36h6.37v-9.36H275V175.2h-1.83v-10h-6.37v10Z"/><path class="cls-2" d="M278.09,169.2v-8.67a11.53,11.53,0,0,1,.16-2,6.79,6.79,0,0,1,.55-1.73,4.56,4.56,0,0,1,1-1.37,4.18,4.18,0,0,1,1.5-.88,6.91,6.91,0,0,1,4.18,0,4.19,4.19,0,0,1,1.5.88,4.56,4.56,0,0,1,1,1.37,6.77,6.77,0,0,1,.55,1.73,11.48,11.48,0,0,1,.16,2v8.67q0,6.32-5.28,6.32T278.09,169.2Zm8.73.41v-9.48q0-4.43-3.45-4.44t-3.45,4.44v9.48q0,4.45,3.45,4.45T286.81,169.61Z"/><path class="cls-2" d="M293.22,175.2V156h-4v-1.47h9.92V156H295V175.2Z"/><path class="cls-2" d="M300.43,175.2V154.52h7.21V156h-5.38v7.84h3.85v1.38h-3.85v8.53h5.38v1.47Z"/><path class="cls-2" d="M310,175.2V154.52h1.83v19.22h5.78v1.47Z"/><path class="cls-2" d="M324.79,175.2H323L327,154.52h2.38l4.09,20.68h-1.85l-1-5.38h-4.77Zm1.27-6.6h4.33l-2.18-12.19Z"/><path class="cls-2" d="M335.51,170.12v-15.6h1.83v16a3.79,3.79,0,0,0,.81,2.65,3.57,3.57,0,0,0,2.72.87,3.27,3.27,0,0,0,2.57-.88,3.92,3.92,0,0,0,.77-2.64v-16H346v15.6q0,5.41-5.16,5.41a7.47,7.47,0,0,1-2.18-.29,4.46,4.46,0,0,1-1.54-.78,3.84,3.84,0,0,1-1-1.19,5.16,5.16,0,0,1-.52-1.47A9.11,9.11,0,0,1,335.51,170.12Z"/><path class="cls-2" d="M349,169.2v-8.67a12.82,12.82,0,0,1,.14-2,6.8,6.8,0,0,1,.51-1.72,4.39,4.39,0,0,1,.94-1.38,4.07,4.07,0,0,1,1.47-.88,6.07,6.07,0,0,1,2.07-.32q4.86,0,4.86,6.31v.84H357.3v-1.25a9.29,9.29,0,0,0-.15-1.77,4.62,4.62,0,0,0-.5-1.39,2.38,2.38,0,0,0-1-.95,3.14,3.14,0,0,0-1.5-.33,3.9,3.9,0,0,0-1.38.22,2.53,2.53,0,0,0-1,.61,2.87,2.87,0,0,0-.59,1,5.28,5.28,0,0,0-.31,1.21,10.94,10.94,0,0,0-.08,1.44v9.48a9.51,9.51,0,0,0,.14,1.77,4.56,4.56,0,0,0,.5,1.38,2.32,2.32,0,0,0,1,1,3.71,3.71,0,0,0,1.65.33,3.14,3.14,0,0,0,1.5-.33,2.36,2.36,0,0,0,1-1,4.7,4.7,0,0,0,.5-1.39,9.3,9.3,0,0,0,.15-1.77V168.2H359v1a13.84,13.84,0,0,1-.13,2,7.19,7.19,0,0,1-.48,1.73,4.37,4.37,0,0,1-.88,1.38,3.83,3.83,0,0,1-1.39.89,5.44,5.44,0,0,1-2,.33,6.16,6.16,0,0,1-2.11-.33,4.06,4.06,0,0,1-1.48-.89,4.26,4.26,0,0,1-.93-1.38,7.06,7.06,0,0,1-.49-1.72A13.18,13.18,0,0,1,349,169.2Z"/><path class="cls-2" d="M361.83,175.2V154.52h1.83v10.88l5.52-10.88h1.89l-4.28,8.53L372,175.2H370.1l-4.42-10.93-2,3.63v7.3Z"/><path class="cls-2" d="M373.62,175.2V154.52h1.83v19.22h5.78v1.47Z"/><path class="cls-2" d="M383.55,175.2h-1.84l4.09-20.68h2.38l4.09,20.68h-1.85l-1-5.38h-4.77Zm1.27-6.6h4.33L387,156.42Z"/><path class="cls-2" d="M394.59,175.2V154.52H396l6.55,16.38V154.52h1.55V175.2h-1.37l-6.56-16v16Z"/><path class="cls-2" d="M407.6,175.2V154.52h4.65a6.33,6.33,0,0,1,2.09.32,4.27,4.27,0,0,1,1.51.87,4.34,4.34,0,0,1,1,1.34,6.69,6.69,0,0,1,.54,1.68,11,11,0,0,1,.16,2v8.41q0,6.11-5.28,6.11Zm1.83-1.47h2.82q3.45,0,3.45-4.23v-9.23q0-4.29-3.45-4.29h-2.82Z"/></svg>