<?xml version="1.0" encoding="utf-8"?>
<!-- Generator: Adobe Illustrator 24.0.1, SVG Export Plug-In . SVG Version: 6.00 Build 0)  -->
<svg version="1.1" id="Layer_1" xmlns="http://www.w3.org/2000/svg" xmlns:xlink="http://www.w3.org/1999/xlink" x="0px" y="0px"
	 viewBox="0 0 372 152" style="enable-background:new 0 0 372 152;" xml:space="preserve">
<style type="text/css">
	.st0{display:none;}
	.st1{display:inline;fill:#CCCBCB;}
	.st2{fill:#FFFFFF;}
</style>
<g id="Layer_2_1_" class="st0">
	<path class="st1" d="M85,35.8h-9.6c-0.8,0-1.5-0.2-2-0.6c-0.5-0.4-0.9-0.9-1.3-1.5l-8.4-15.4c-0.5-1-1-1.9-1.5-2.8
		c-0.4-0.9-0.8-1.8-1.1-2.7c-0.3,0.9-0.6,1.8-1,2.7c-0.4,0.9-0.9,1.8-1.4,2.8l-8.3,15.4c-0.3,0.6-0.7,1.1-1.3,1.5
		c-0.5,0.4-1.3,0.6-2.2,0.6h-10L56.7,0.1h8.5L85,35.8z"/>
	<path class="st1" d="M336.1,115v-9.6c0-0.8,0.2-1.5,0.6-2s0.9-0.9,1.5-1.3l15.4-8.4c1-0.5,1.9-1,2.8-1.5c0.9-0.4,1.8-0.8,2.7-1.1
		c-0.9-0.3-1.8-0.6-2.7-1c-0.9-0.4-1.8-0.9-2.8-1.4l-15.4-8.3c-0.6-0.3-1.1-0.7-1.5-1.3c-0.4-0.5-0.6-1.3-0.6-2.2v-10l35.6,19.8v8.5
		L336.1,115z"/>
	<path class="st1" d="M35.8,39.9v9.6c0,0.8-0.2,1.5-0.6,2c-0.4,0.5-0.9,0.9-1.5,1.3l-15.4,8.4c-1,0.5-1.9,1-2.8,1.5
		c-0.9,0.4-1.8,0.8-2.7,1.1c0.9,0.3,1.8,0.6,2.7,1c0.9,0.4,1.8,0.9,2.8,1.4l15.4,8.3c0.6,0.3,1.1,0.7,1.5,1.3
		c0.4,0.5,0.6,1.3,0.6,2.2v10L0.1,68.2v-8.5L35.8,39.9z"/>
	<path class="st1" d="M112.9,116.1h9.6c0.8,0,1.5,0.2,2,0.6s0.9,0.9,1.3,1.5l8.4,15.4c0.5,1,1,1.9,1.5,2.8c0.4,0.9,0.8,1.8,1.1,2.7
		c0.3-0.9,0.6-1.8,1-2.7s0.9-1.8,1.4-2.8l8.3-15.4c0.3-0.6,0.7-1.1,1.3-1.5c0.5-0.4,1.3-0.6,2.2-0.6h10l-19.8,35.6h-8.5L112.9,116.1
		z"/>
</g>
<g id="Layer_1_1_">
	<g>
		<path class="st2" d="M49.1,36v45.3h2.4c0.9,0,1.6-0.1,2.1-0.4c0.5-0.2,1-0.7,1.6-1.4l13.5-16.8c0.6-0.7,1.2-1.3,1.9-1.7
			c0.7-0.4,1.6-0.6,2.7-0.6h12L68.4,80.8c-0.6,0.7-1.2,1.4-1.9,2c-0.6,0.6-1.3,1.2-2.1,1.6c0.7,0.5,1.4,1.1,2,1.9
			c0.6,0.7,1.1,1.5,1.7,2.3l18.2,26.5H74.4c-1,0-1.9-0.2-2.6-0.5c-0.7-0.4-1.3-1-1.9-1.8L56.1,92.1c-0.5-0.8-1.1-1.3-1.6-1.6
			c-0.5-0.2-1.3-0.4-2.4-0.4h-3v25H36V36H49.1z"/>
		<path class="st2" d="M137.1,115.1h-5.9c-1.2,0-2.2-0.2-2.9-0.6s-1.2-1.1-1.6-2.3l-1.2-3.9c-1.4,1.2-2.7,2.3-4.1,3.3
			c-1.3,0.9-2.7,1.7-4.1,2.4c-1.4,0.6-2.9,1.1-4.5,1.4s-3.4,0.5-5.3,0.5c-2.3,0-4.4-0.3-6.4-0.9c-1.9-0.6-3.6-1.6-5-2.8
			c-1.4-1.2-2.5-2.8-3.3-4.7c-0.8-1.8-1.2-4-1.2-6.5c0-2.1,0.5-4.1,1.6-6.1s2.9-3.8,5.4-5.5c2.5-1.6,5.9-3,10-4
			c4.2-1.1,9.4-1.6,15.6-1.6v-3.2c0-3.7-0.8-6.4-2.3-8.2c-1.5-1.8-3.8-2.7-6.7-2.7c-2.1,0-3.9,0.2-5.3,0.7s-2.6,1.1-3.7,1.7
			c-1,0.6-2,1.2-2.9,1.7s-1.9,0.8-2.9,0.8c-0.9,0-1.6-0.2-2.3-0.7c-0.6-0.5-1.2-1-1.5-1.7L94.2,68c6.3-5.7,13.8-8.6,22.7-8.6
			c3.2,0,6,0.5,8.5,1.6s4.6,2.5,6.3,4.4s3.1,4.1,4,6.7s1.4,5.4,1.4,8.5V115.1z M111.6,106.9c1.3,0,2.6-0.1,3.7-0.4
			c1.1-0.2,2.2-0.6,3.2-1.1s2-1.1,2.9-1.8c0.9-0.7,1.9-1.6,2.8-2.5V92c-3.8,0-7,0.2-9.6,0.7s-4.6,1.1-6.2,1.9s-2.7,1.6-3.3,2.6
			c-0.7,1-1,2.1-1,3.3c0,2.3,0.7,4,2,5C107.6,106.4,109.4,106.9,111.6,106.9z"/>
		<path class="st2" d="M150,115.1V60.5h7.7c1.3,0,2.3,0.2,2.8,0.7s0.9,1.3,1.1,2.6l0.8,6.6c1.9-3.4,4.2-6,6.8-8s5.6-2.9,8.8-2.9
			c2.7,0,4.9,0.6,6.7,1.9l-1.7,9.9c-0.1,0.6-0.3,1.1-0.7,1.4s-0.8,0.4-1.4,0.4c-0.5,0-1.3-0.1-2.2-0.4c-0.9-0.2-2.1-0.4-3.7-0.4
			c-2.7,0-5.1,0.8-7,2.3s-3.6,3.7-4.9,6.6v34H150V115.1z"/>
		<path class="st2" d="M234.5,115.1h-5.9c-1.2,0-2.2-0.2-2.9-0.6s-1.2-1.1-1.6-2.3l-1.2-3.9c-1.4,1.2-2.7,2.3-4.1,3.3
			c-1.3,0.9-2.7,1.7-4.1,2.4c-1.4,0.6-2.9,1.1-4.5,1.4s-3.4,0.5-5.3,0.5c-2.3,0-4.4-0.3-6.4-0.9c-1.9-0.6-3.6-1.6-5-2.8
			c-1.4-1.2-2.5-2.8-3.3-4.7c-0.8-1.8-1.2-4-1.2-6.5c0-2.1,0.5-4.1,1.6-6.1s2.9-3.8,5.4-5.5c2.5-1.6,5.9-3,10-4
			c4.2-1.1,9.4-1.6,15.6-1.6v-3.2c0-3.7-0.8-6.4-2.3-8.2c-1.5-1.8-3.8-2.7-6.7-2.7c-2.1,0-3.9,0.2-5.3,0.7c-1.4,0.5-2.6,1.1-3.7,1.7
			c-1,0.6-2,1.2-2.9,1.7s-1.9,0.8-2.9,0.8c-0.9,0-1.6-0.2-2.3-0.7c-0.6-0.5-1.2-1-1.5-1.7l-2.4-4.2c6.3-5.7,13.8-8.6,22.7-8.6
			c3.2,0,6,0.5,8.5,1.6s4.6,2.5,6.3,4.4s3.1,4.1,4,6.7s1.4,5.4,1.4,8.5L234.5,115.1L234.5,115.1z M209,106.9c1.3,0,2.6-0.1,3.7-0.4
			c1.1-0.2,2.2-0.6,3.2-1.1s2-1.1,2.9-1.8c0.9-0.7,1.9-1.6,2.8-2.5V92c-3.8,0-7,0.2-9.6,0.7s-4.6,1.1-6.2,1.9
			c-1.6,0.8-2.7,1.6-3.3,2.6c-0.7,1-1,2.1-1,3.3c0,2.3,0.7,4,2,5C205,106.4,206.8,106.9,209,106.9z"/>
		<path class="st2" d="M265.2,116c-4.7,0-8.3-1.3-10.9-4c-2.5-2.7-3.8-6.4-3.8-11.1V70.4H245c-0.7,0-1.3-0.2-1.8-0.7
			s-0.8-1.2-0.8-2.1v-5.2l8.8-1.4l2.8-14.9c0.1-0.7,0.5-1.3,1-1.7s1.2-0.6,1.9-0.6h6.8V61H278v9.4h-14.3V100c0,1.7,0.4,3,1.3,4
			c0.8,1,2,1.4,3.4,1.4c0.8,0,1.5-0.1,2-0.3c0.5-0.2,1-0.4,1.4-0.6s0.8-0.4,1.1-0.6c0.3-0.2,0.6-0.3,1-0.3s0.7,0.1,0.9,0.3
			c0.2,0.2,0.5,0.5,0.8,0.9l3.9,6.4c-1.9,1.6-4.1,2.8-6.6,3.6C270.5,115.6,267.9,116,265.2,116z"/>
		<path class="st2" d="M336,73.8h-9.6c-0.8,0-1.5-0.2-2-0.6s-0.9-0.9-1.3-1.5l-8.4-15.4c-0.5-1-1-1.9-1.5-2.8
			c-0.4-0.9-0.8-1.8-1.1-2.7c-0.3,0.9-0.6,1.8-1,2.7s-0.9,1.8-1.4,2.8l-8.3,15.4c-0.3,0.6-0.7,1.1-1.3,1.5c-0.5,0.4-1.3,0.6-2.2,0.6
			h-10.1l19.8-35.6h8.5L336,73.8z"/>
	</g>
</g>
</svg>
