<?xml version="1.0" encoding="utf-8"?>
<!-- Generator: Adobe Illustrator 24.1.0, SVG Export Plug-In . SVG Version: 6.00 Build 0)  -->
<svg version="1.1" id="ART" xmlns="http://www.w3.org/2000/svg" xmlns:xlink="http://www.w3.org/1999/xlink" x="0px" y="0px"
	 viewBox="0 0 381.2 120.9" style="enable-background:new 0 0 381.2 120.9;" xml:space="preserve">
<style type="text/css">
	.st0{fill:#FFFFFF;}
</style>
<g>
	<polygon class="st0" points="162.1,39.8 180,57.8 188.3,57.8 188.3,49.4 170.4,31.5 	"/>
	<polygon class="st0" points="191.9,61.3 191.9,69.6 209.8,87.6 218.2,79.3 200.2,61.3 	"/>
	<polygon class="st0" points="162.1,79.3 170.4,87.6 188.3,69.7 188.3,61.3 180,61.3 	"/>
	<polygon class="st0" points="218.2,39.9 209.8,31.5 191.9,49.5 191.9,57.8 200.2,57.8 	"/>
	<polygon class="st0" points="277.1,34.2 277.1,84.9 289.2,84.9 289.2,60.4 289.2,44.8 289.2,34.2 	"/>
	<path class="st0" d="M289.2,44.8L289.2,44.8h18V34.2h-7C293.9,34.2,289.2,38.5,289.2,44.8z"/>
	<path class="st0" d="M95.1,17.8h-12v55.8c0,6.3,5.1,11.4,11.4,11.4h10.5V75h-10V17.8z"/>
	<path class="st0" d="M52.3,32.9c-12.1,0-18.8,8.7-18.8,14.4V34.2H20.8v69h12.7V72.5c0,7.2,7.7,13.8,17.7,13.8
		c14.1,0,24-11.9,24-26.7S66.5,32.9,52.3,32.9z M47.6,75.7c-11.4,0-15.2-6.8-15.2-16.1c0-9.3,3.8-16.1,15.2-16.1
		c11.4,0,15.2,6.8,15.2,16.1C62.8,68.9,59,75.7,47.6,75.7z"/>
	<path class="st0" d="M133.7,32.9c-15.6,0-25.8,11.9-25.8,26.6c0,14.7,10.3,26.6,26.5,26.6c10.2,0,17.2-3.8,21.7-8.2l-7.6-7.6
		c-2.7,2.4-6.6,5.4-13.7,5.4c-7.4,0-13.1-4.9-14.4-11.5h38.4c0.3-1.4,0.4-3.5,0.4-5.2C159.1,44.5,149.3,32.9,133.7,32.9z M120,55.6
		c0.8-7.1,5.8-12.8,13.7-12.8c7.8,0,12.8,5.6,13.1,12.8H120z"/>
	<path class="st0" d="M360.3,59.2c0-14.7-9.8-26.2-25.4-26.2c-15.6,0-25.8,11.9-25.8,26.6c0,14.7,10.3,26.6,26.5,26.6
		c10.2,0,17.2-3.8,21.7-8.2l-7.6-7.6c-2.7,2.4-6.6,5.4-13.7,5.4c-7.4,0-13.1-4.9-14.4-11.5h38.4C360.2,62.9,360.3,60.9,360.3,59.2z
		 M321.3,55.6c0.8-7.1,5.8-12.8,13.7-12.8c7.8,0,12.8,5.6,13.1,12.8H321.3z"/>
	<path class="st0" d="M254.8,74.6h-18V65V34.2h-12.1v33.7c0,11.7,9.5,18.4,21.1,18.4h0c11.7,0,21.1-6.8,21.1-18.4V34.2h-12.2V74.6z"
		/>
</g>
</svg>
