<?xml version="1.0" encoding="utf-8"?>
<!-- Generator: Adobe Illustrator 21.0.2, SVG Export Plug-In . SVG Version: 6.00 Build 0)  -->
<!DOCTYPE svg PUBLIC "-//W3C//DTD SVG 1.1//EN" "http://www.w3.org/Graphics/SVG/1.1/DTD/svg11.dtd">
<svg version="1.1"
	 id="xero" xmlns:cc="http://creativecommons.org/ns#" xmlns:dc="http://purl.org/dc/elements/1.1/" xmlns:rdf="http://www.w3.org/1999/02/22-rdf-syntax-ns#" xmlns:svg="http://www.w3.org/2000/svg"
	 xmlns="http://www.w3.org/2000/svg" xmlns:xlink="http://www.w3.org/1999/xlink" x="0px" y="0px" viewBox="0 0 815.9 815.9"
	 style="enable-background:new 0 0 815.9 815.9;" xml:space="preserve">
<style type="text/css">
	.st0{fill:#FFFFFF;}
</style>
<g>
	<path class="st0" d="M559.6,407.3c0,34.8,28.3,63,63.1,63c34.8,0,63.1-28.3,63.1-63c0-34.8-28.3-63.1-63.1-63.1
		C587.9,344.3,559.6,372.6,559.6,407.3z M644.4,407.3c0,12-9.8,21.8-21.8,21.8c-12,0-21.8-9.8-21.8-21.8c0-12,9.8-21.8,21.8-21.8
		C634.7,385.6,644.4,395.3,644.4,407.3z"/>
	<path class="st0" d="M407.6,16.6C191.1,16.6,15.7,192,15.7,408.5c0,216.4,175.5,391.9,391.9,391.9s391.9-175.5,391.9-391.9
		C799.5,192,624,16.6,407.6,16.6z M261.6,494.8c-3.3,0-6.3-1.3-8.7-3.8l-66.8-66.7l-67,66.9c-2.3,2.3-5.3,3.5-8.5,3.5
		c-6.6,0-12-5.4-12-12c0-3.2,1.3-6.3,3.6-8.6l66.8-67l-66.9-66.9c-2.3-2.3-3.6-5.3-3.6-8.5c0-6.6,5.4-12,12-12
		c3.2,0,6.2,1.2,8.5,3.5l67.1,66.9c0,0,66.8-66.8,66.8-66.8c2.3-2.3,5.3-3.6,8.5-3.6c6.6,0,12,5.4,12,12c0,3.2-1.2,6.2-3.5,8.4
		l-66.9,67l66.8,67c2.2,2.3,3.5,5.3,3.5,8.4C273.6,489.4,268.2,494.8,261.6,494.8z M422.5,416.9c0,0-117.9,0-125.1,0
		c0,0.6,0.1,1.2,0.2,1.8c0.6,3.5,1.5,6.8,2.7,10.1c6.6,17.4,25.3,41.7,60.1,42.1c10.6-0.1,20.7-2.7,29.5-7.4
		c6.9-3.9,12.7-8.8,17.3-14c1.5-1.8,2.9-3.7,4.2-5.5c5.8-7.5,13.3-6.1,17.7-2.7c5.2,4,6.1,12.4,1.4,18.4c-0.1,0.2-0.3,0.3-0.4,0.5
		c-6.9,8.6-14,15.8-22.5,21.3c-8.2,5.2-17.1,9-26.3,11.2c-10.7,2.8-21,3.4-31.6,2.1c-35.7-4.4-65.7-30.8-74.6-65.6
		c-1.8-7-2.6-14.1-2.6-21.2c0-28.1,13.6-55.5,37-72.2c28.8-20.5,68.1-21.5,97.9-2.6c20.4,12.9,33.8,33,38.9,57.4l0,0
		C448.8,404.5,439.6,416.6,422.5,416.9z M523.4,344.9c-26,3.2-28.8,15.5-28.8,45.8c0,0,0,91,0,91c0,6.6-5.4,12-12,12
		c-6.6,0-12-5.4-12-11.9c0,0,0-148,0-148c0-6.6,5.3-11.9,11.9-11.9c5.7,0,10.5,4,11.7,9.4c8.9-6.9,19.6-10.4,30.7-10.4l3.7,0
		c6.6,0,12,5.4,12,12c0,6.6-5.1,11.5-12.2,11.7C528.4,344.7,525.8,344.6,523.4,344.9z M710.5,407.3c0,48.4-39.4,87.9-87.9,87.9
		c-48.5,0-87.9-39.4-87.9-87.9c0-48.5,39.4-87.9,87.9-87.9C671.1,319.5,710.5,358.9,710.5,407.3z"/>
	<path class="st0" d="M360,344c-29.7,0-54.6,20.4-61.5,47.9c0,0.3,0,0.7,0,1h123.3C415.2,364.9,390,344,360,344z"/>
</g>
</svg>
