<?xml version="1.0" encoding="utf-8"?>
<!-- Generator: Adobe Illustrator 22.0.1, SVG Export Plug-In . SVG Version: 6.00 Build 0)  -->
<!DOCTYPE svg PUBLIC "-//W3C//DTD SVG 1.1//EN" "http://www.w3.org/Graphics/SVG/1.1/DTD/svg11.dtd">
<svg version="1.1" id="Layer_1" xmlns="http://www.w3.org/2000/svg" xmlns:xlink="http://www.w3.org/1999/xlink" x="0px" y="0px"
	 viewBox="0 0 703 310" style="enable-background:new 0 0 703 310;" xml:space="preserve">
<style type="text/css">
	.st0{fill:#FFFFFF;}
	.st1{fill:#9E59CE;}
</style>
<g>
	<path class="st0" d="M236.1,140.1c-9.5,0-17.4,2.7-23.8,8.2c-6.4,5.5-10.4,12.9-12,22.3h68.4c-1.3-9-4.7-16.1-10.3-21.7
		C252.5,143,245,140.1,236.1,140.1z"/>
	<path class="st0" d="M698.6,141.3l-74.5-125C619,6.3,608.7,0,597.5,0H30C13.4,0,0,13.4,0,30v250c0,16.6,13.4,30,30,30h567.5
		c11.2,0,21.5-6.3,26.6-16.2l74.5-125C703.1,160.2,703.1,149.9,698.6,141.3z M170.8,126.1l-57.4,118.1c-1.1,2.2-4.3,2.3-5.4,0
		L50.2,126.1c-0.7-1.3,0.3-2.9,1.8-2.9h22.2c0.8,0,1.5,0.5,1.8,1.2l34.7,75.2l34.4-75.2c0.3-0.7,1-1.2,1.8-1.2H169
		C170.5,123.2,171.4,124.7,170.8,126.1z M291.8,181.2l-0.2,5.3c0,1.1-0.9,1.9-2,1.9h-90.4c0,11.5,3.4,21.1,10.1,28.8
		c7.1,8,16.4,12,27.8,12c14.3,0,28.3-9.4,35.5-21.6c0.6-1.1,1.8-1.4,2.8-0.8l14.9,8.7c1,0.6,1.3,1.9,0.7,2.8
		c-13.4,21-32.2,31.4-56.6,31.4c-17.8,0-32.2-6.4-43.2-19.3c-10.7-12.6-16-29.4-16-50.5c0-7.5,1.6-15.3,4.8-23.5
		c5.9-15.2,15.9-25.7,29.9-31.7c7.4-3.1,15.5-4.7,24.5-4.7c25.6,0,42.9,10.8,51.7,32.3C290.3,162.4,292.2,172,291.8,181.2z
		 M417.2,243.5c0,1.1-0.9,2-2,2h-19.4c-1.1,0-2-0.9-2-2v-71.8c0-10.4-1.8-18-5.5-22.8c-4.2-5.5-11.3-8.3-21.4-8.3
		c-20.1,0-30.2,12.7-30.2,38.1v64.8c0,1.1-0.9,2-2,2h-19.3c-1.1,0-2-0.9-2-2V125.2c0-1.1,0.9-2,2-2h19.3c1.1,0,2,0.9,2,2v15.4
		c9-13.8,21.6-20.7,37.8-20.7c28.4,0,42.7,17.4,42.7,52.3V243.5z M562,243.5c0,1.1-0.9,2-2,2h-19.4c-1.1,0-2-0.9-2-2v-17.9
		c-10.6,16-24.5,24.1-41.8,24.1c-19.2,0-34.2-7.2-45-21.5c-9.5-12.6-14.3-26.9-14.3-42.6c0-12.3,2.4-23.4,7.1-33.3
		c5.3-11,12.9-19.3,22.8-24.9c8.7-4.9,18.2-7.4,28.3-7.4c8.4,0,16.7,2.3,24.8,6.9c8.2,4.6,14.1,10.5,18,17.8v-83c0.1-1.1,1-2,2.1-2
		H560c1.1,0,2,0.9,2,2V243.5z M637,170c-8.3,0-15-6.7-15-15s6.7-15,15-15s15,6.7,15,15S645.3,170,637,170z"/>
	<path class="st0" d="M517.5,147.5c-6-3.6-12.8-5.4-20.4-5.4c-15.7,0-26.6,7.7-33,23c-2.7,6.6-4.1,13.4-4.1,20.4
		c0,14.5,5,26.1,15.1,34.7c5.6,4.8,12.7,7.1,21.4,7.1c16.9,0,28.6-7.3,35.1-22c2.8-6.3,4.2-13,4.2-20.3
		C535.8,167.4,529.7,154.8,517.5,147.5z"/>
	<path class="st1" d="M268.7,170.7v-0.1h0C268.7,170.6,268.7,170.7,268.7,170.7z"/>
</g>
</svg>
