<svg id="Layer_1" data-name="Layer 1" xmlns="http://www.w3.org/2000/svg" viewBox="0 0 286.99 103.39"><defs><style>.cls-1{fill:#fff;}</style></defs><title>Serko_RGB</title><path class="cls-1" d="M163.84,30.51v3.15a2.08,2.08,0,0,1-2,2.08l-.38,0-.6.07a24.08,24.08,0,0,0-21,23.86v41a1,1,0,0,1-1,1H134.7a1,1,0,0,1-1-1V31.93a1,1,0,0,1,1-1h3.09A2.07,2.07,0,0,1,139.86,33v8.39a30.27,30.27,0,0,1,22.89-11.89A1,1,0,0,1,163.84,30.51ZM287,62.25v8.12a33,33,0,1,1-66,0V62.25a33,33,0,1,1,66,0Zm-6.2,0a26.82,26.82,0,1,0-53.63,0v8.12a26.82,26.82,0,0,0,53.63,0ZM92.16,103.39Zm33-41.14v5.1a2.06,2.06,0,0,1-2.06,2.06H65.34v1A26.85,26.85,0,0,0,92.16,97.18a33,33,0,0,0,24.65-10.07,1,1,0,0,1,1.45,0l2.21,2.14a2.05,2.05,0,0,1,0,3c-7.45,7-15.42,11.21-28.28,11.18a33.06,33.06,0,0,1-33-33V62.75c0-18.12,14.39-33.24,32.51-33.52A33.06,33.06,0,0,1,125.18,62.25Zm-6.2,0a26.82,26.82,0,0,0-53.64,0v1H119ZM218.45,30.9H213a2,2,0,0,0-1.46.6L179.78,63.21h-.55V2.07A2.07,2.07,0,0,0,177.16,0h-3.1a1,1,0,0,0-1,1v99.66a1,1,0,0,0,1,1h4.13a1,1,0,0,0,1-1V69.41h.55l31.71,31.71a2.09,2.09,0,0,0,1.46.6h5.5a1,1,0,0,0,.71-1.71l-33.7-33.7,33.7-33.7A1,1,0,0,0,218.45,30.9ZM25.9,62.65C9.49,58.72,6.28,53.73,6.5,47.45c.27-7.49,9.8-12,18.85-12,7.21,0,13.17,1.89,18.15,5.78A2.07,2.07,0,0,0,46.32,41l2.14-2.39a1,1,0,0,0-.09-1.48c-6.25-5.26-14-7.93-23-7.93C13.5,29.23.68,35.54.26,47.23-.23,61,12.21,65.8,24.45,68.73c13.78,3.3,21.73,6.79,21.6,14.83-.15,9.38-10.59,13.58-20.88,13.58-8.36,0-15.19-2.7-20.83-8.25a1.06,1.06,0,0,0-1.46,0L.64,91a2.05,2.05,0,0,0,0,3,34.74,34.74,0,0,0,24.53,9.39c6.93,0,13.36-1.61,18.11-4.53,5.79-3.56,8.92-8.81,9-15.2C52.52,70.16,38.79,65.74,25.9,62.65Z"/></svg>