<?xml version="1.0" encoding="utf-8"?>
<!-- Generator: Adobe Illustrator 24.0.1, SVG Export Plug-In . SVG Version: 6.00 Build 0)  -->
<svg version="1.1" id="Layer_1" xmlns="http://www.w3.org/2000/svg" xmlns:xlink="http://www.w3.org/1999/xlink" x="0px" y="0px"
	 viewBox="0 0 510.2 170.1" style="enable-background:new 0 0 510.2 170.1;" xml:space="preserve">
<style type="text/css">
	.st0{fill:#FFFFFF;}
</style>
<path id="XMLID_2_" class="st0" d="M483.5,124.8c0.8,1.2,1.2,2.4,1.2,3.6c0,1.3-0.4,2.4-1.3,3.2c-0.8,0.9-1.9,1.3-3.1,1.3h-6.8
	c-1.3,0-3.2-0.5-4.8-2.8L450,106.6l-18.8,23.6c-0.7,0.8-1.3,1.4-1.9,1.9c-0.8,0.6-1.7,0.9-2.9,0.9h-6.5c-1.2,0-2.3-0.5-3.1-1.3
	c-0.8-0.9-1.3-2-1.3-3.2c0-1.2,0.4-2.4,1.2-3.6l0-0.1l23.5-30.5l-22-28c-0.9-1.3-1.4-2.5-1.4-3.5c0-1.3,0.5-2.4,1.4-3.3
	c0.9-0.8,1.9-1.3,3-1.3h6.7c1.9,0,3.5,1,4.8,2.9l17.6,22.1L468.1,61c0.6-0.9,1.3-1.5,1.9-2c0.8-0.6,1.7-0.9,2.9-0.9h6.4
	c1.1,0,2.2,0.5,3,1.3c0.8,0.9,1.3,1.9,1.3,3.1c0,1.3-0.4,2.5-1.3,3.7L460,94.5L483.5,124.8 M396.9,124.6c5.2-5.3,7.7-13.4,7.7-24.6
	V63c0-1.4-0.5-2.5-1.3-3.4c-0.9-0.9-2-1.4-3.3-1.4h-6.4c-1.3,0-2.5,0.5-3.3,1.4c-0.9,0.9-1.3,2.1-1.3,3.4v36.3
	c0,13.5-5.9,20.3-17.4,20.3c-11.5,0-17.4-6.8-17.4-20.3V63c0-1.4-0.5-2.5-1.3-3.4c-0.9-0.9-2-1.4-3.3-1.4H343
	c-1.3,0-2.5,0.5-3.3,1.4c-0.9,0.9-1.3,2.1-1.3,3.4v37c0,11.2,2.5,19.3,7.7,24.6c7.5,7.7,15.6,9.3,25.5,9.3S389.5,132.3,396.9,124.6
	 M323.3,131.5c0.9-0.9,1.3-2.1,1.3-3.4V25.6c0-1.4-0.4-2.5-1.3-3.5c-0.9-0.9-2-1.4-3.3-1.4h-6.1c-1.3,0-2.4,0.4-3.3,1.3
	c-0.9,0.9-1.4,2.1-1.4,3.6v102.5c0,1.4,0.5,2.5,1.3,3.4c0.9,0.9,2,1.4,3.3,1.4h6.1C321.3,132.9,322.4,132.4,323.3,131.5 M295.6,33.6
	c0.9-0.9,1.4-2,1.4-3.4v-4.6c0-1.4-0.5-2.5-1.3-3.4c-0.9-0.9-2-1.4-3.3-1.4H284c-8.8,0-15.2,2.3-19.1,6.9
	c-3.9,4.5-5.9,10.9-5.9,19.1v11.4h-10.5c-1.3,0-2.5,0.5-3.3,1.4c-0.9,0.9-1.3,2.1-1.3,3.4v4.6c0,1.4,0.5,2.6,1.4,3.4
	c0.9,0.8,2,1.3,3.3,1.3H259v55.8c0,1.4,0.5,2.5,1.3,3.4c0.9,0.9,2,1.4,3.3,1.4h6c1.3,0,2.5-0.5,3.3-1.4s1.3-2.1,1.3-3.4V72.3h16.5
	c1.3,0,2.4-0.4,3.3-1.3c0.9-0.9,1.4-2,1.4-3.4V63c0-1.4-0.5-2.5-1.3-3.5c-0.9-0.9-2-1.4-3.3-1.4h-16.5V47.5c0-4.4,0.7-7.7,2.2-9.7
	c1.4-1.9,4-2.8,7.7-2.8h7.9C293.6,34.9,294.7,34.5,295.6,33.6 M193.6,20.8h-53.9c-6.1,0-11.2,3.9-13.2,9.3l0,0
	c-1.9,5.5-7.1,9.4-13.3,9.4l-59.8,0c-7.7,0-14,6.3-14,14v9.3c0,7.7,6.3,14,14,14l47.3,0c6.1,0,11.2-3.9,13.2-9.3l0,0
	c1.9-5.5,7.1-9.4,13.3-9.4l66.4,0c7.7,0,14-6.3,14-14v-9.3C207.6,27,201.4,20.8,193.6,20.8z M193.6,95.5h-78.9
	c-6.1,0-11.3,3.9-13.2,9.3c-1.9,5.4-7.1,9.3-13.2,9.3l-53.5,0c-7.7,0-14,6.3-14,14v9.3c0,7.7,6.3,14,14,14h41.1
	c6.1,0,11.3-3.9,13.2-9.4c1.9-5.4,7.1-9.3,13.2-9.3h91.3c7.7,0,14-6.3,14-14v-9.3C207.6,101.8,201.4,95.5,193.6,95.5z"/>
</svg>
