<?xml version="1.0" encoding="utf-8"?>
<!-- Generator: Adobe Illustrator 23.0.3, SVG Export Plug-In . SVG Version: 6.00 Build 0)  -->
<svg version="1.1" id="Layer_1" xmlns="http://www.w3.org/2000/svg" xmlns:xlink="http://www.w3.org/1999/xlink" x="0px" y="0px"
	 viewBox="0 0 628 200" style="enable-background:new 0 0 628 200;" xml:space="preserve">
<style type="text/css">
	.st0{fill:#FFFFFF;}
</style>
<g>
	<g>
		<path class="st0" d="M47.8,97.4V3.5H1.6v133.7h108V97.4H47.8z"/>
		<polygon class="st0" points="229,3.5 201.4,48.6 173.9,3.5 126.3,3.5 126.3,137.1 171.6,137.1 171.6,74.7 200.1,118.8 
			201.4,118.8 202.1,118.8 230.6,74.7 230.6,137.1 276.6,137.1 276.6,3.5 		"/>
		<polygon class="st0" points="606.6,4.4 602.5,4.4 602.5,3 612.5,3 612.5,4.4 608.3,4.4 608.3,15.5 606.6,15.5 		"/>
		<polygon class="st0" points="613.9,3 616.2,3 620.1,13.5 624.1,3 626.3,3 626.3,15.5 624.8,15.5 624.8,5.1 624.7,5.1 620.8,15.5 
			619.4,15.5 615.5,5.1 615.5,5.1 615.5,15.5 613.9,15.5 		"/>
		<g>
			<path class="st0" d="M391.1,3.2h-44.8l-56.1,134h49.1l6.7-17.5h44.3l6.9,17.5h49.9L391.1,3.2z M356.4,87.5l12-31.8l12,31.8H356.4
				z"/>
		</g>
	</g>
</g>
<g>
	<polygon class="st0" points="546.3,3.4 529.3,28.4 555.7,67.4 599,3.4 	"/>
	<polygon class="st0" points="600.2,137 555.5,71 529.5,109.5 548.1,137 	"/>
	<g>
		<polygon class="st0" points="454,136.7 499.5,69.6 455.8,5.3 505.8,5.3 549.4,69.6 503.9,136.7 		"/>
	</g>
</g>
<g>
	<g>
		<path class="st0" d="M1.9,158.7h25.7v3.7H6v12.2h19.4v3.7H6v12.5h22v3.7h-26V158.7z"/>
	</g>
	<g>
		<path class="st0" d="M108.2,158.7l-13.1,17.4l13.6,18.2H104l-11.4-15.4l-11.4,15.4h-4.6l13.6-18.2L77,158.7h4.7l10.9,14.6
			l10.9-14.6H108.2z"/>
	</g>
	<g>
		<path class="st0" d="M155.7,176.6v-0.1c0-10.1,7.5-18.4,18-18.4c6.5,0,10.3,2.3,13.9,5.6l-2.7,3c-3-2.8-6.4-4.9-11.2-4.9
			c-7.9,0-13.8,6.4-13.8,14.6v0.1c0,8.2,6,14.7,13.8,14.7c4.9,0,8.1-1.9,11.5-5.1l2.6,2.6c-3.7,3.8-7.8,6.3-14.2,6.3
			C163.3,194.9,155.7,186.8,155.7,176.6z"/>
	</g>
	<g>
		<path class="st0" d="M238.6,158.7h4v15.8h20.6v-15.8h4v35.6h-4v-16h-20.6v16h-4L238.6,158.7L238.6,158.7z"/>
	</g>
	<g>
		<path class="st0" d="M334.2,158.4h3.8l16.2,35.9h-4.3l-4.2-9.4h-19.4l-4.2,9.4h-4.1L334.2,158.4z M344.1,181.2l-8.1-18.1
			l-8.1,18.1H344.1z"/>
	</g>
	<g>
		<path class="st0" d="M404.9,158.7h3.8l22.4,28.5v-28.5h3.9v35.6h-3.2l-23-29.2v29.2h-3.9L404.9,158.7L404.9,158.7z"/>
	</g>
	<g>
		<path class="st0" d="M487.3,176.6v-0.1c0-9.8,7.2-18.4,17.9-18.4c6,0,9.7,1.7,13.3,4.7l-2.6,3.1c-2.7-2.4-5.8-4.1-10.8-4.1
			c-7.9,0-13.5,6.7-13.5,14.6v0.1c0,8.5,5.4,14.8,14.1,14.8c4.1,0,7.8-1.6,10.3-3.6v-8.9H505v-3.6h14.7v14.2
			c-3.3,2.9-8.3,5.4-14.3,5.4C494.2,194.9,487.3,186.8,487.3,176.6z"/>
	</g>
	<g>
		<path class="st0" d="M574.4,158.7h25.7v3.7h-21.7v12.2h19.4v3.7h-19.4v12.5h22v3.7h-26V158.7z"/>
	</g>
</g>
</svg>
