<?xml version="1.0" encoding="utf-8"?>
<!-- Generator: Adobe Illustrator 22.0.1, SVG Export Plug-In . SVG Version: 6.00 Build 0)  -->
<!DOCTYPE svg PUBLIC "-//W3C//DTD SVG 1.1//EN" "http://www.w3.org/Graphics/SVG/1.1/DTD/svg11.dtd">
<svg version="1.1" id="Layer_1" xmlns="http://www.w3.org/2000/svg" xmlns:xlink="http://www.w3.org/1999/xlink" x="0px" y="0px"
	 viewBox="0 0 600 488" style="enable-background:new 0 0 600 488;" xml:space="preserve">
<style type="text/css">
	.st0{fill:#00C1DE;}
	.st1{fill:#0065A1;}
	.st2{fill:#FFFFFF;}
	.st3{fill:#FF595A;}
	.st4{fill:#FFCD00;}
</style>
<g>
	<polyline class="st0" points="594.1,122.8 592.8,181.2 558,194.5 557.1,239.2 296.3,343.9 42.2,232.6 42.2,191.6 5.4,177.3 
		5.5,120 	"/>
	<polygon class="st0" points="594.3,122.7 296.3,224.9 5.5,120.2 298.7,12.1 	"/>
</g>
<g id="Tiles_2_">
	<path class="st1" d="M298.7,174.7L238,199.5l59.8,26.7c0,0,67.8-27.2,66.7-27.2C363.4,199,298.7,174.7,298.7,174.7z"/>
	<path class="st1" d="M370.3,147.1c-1.1,0-67.3,26.5-67.3,26.5l69.4,23.6l65.2-22.5L370.3,147.1z"/>
	<polygon class="st1" points="374.3,146 442.3,172.2 511.7,147.8 441.2,119.1 	"/>
	<polygon class="st1" points="508.8,92.9 447,117.3 516.1,145.7 585.9,122.4 	"/>
	<polygon class="st1" points="363.1,145.7 301.6,168.9 229.3,142.8 293.6,118.8 	"/>
	<polygon class="st1" points="294.4,173.3 229.7,198.3 155.8,171.5 223.1,146.4 	"/>
	<path class="st1" d="M217.6,143.8l-71.6,25.9l-55.6-22.3c0,0,66.5-27.3,67.6-26.9C159.1,120.9,217.6,143.8,217.6,143.8z"/>
	<path class="st1" d="M164.6,118c1.5,0.4,57.4,23.6,58.5,23.3c1.1-0.4,66.5-24.4,66.5-24.4l-61.4-24.4L164.6,118z"/>
	<path class="st1" d="M221.3,90l-61.1,25.4c0,0-67.6-25.8-66.5-25.8s67.6-24,67.6-24L221.3,90z"/>
	<path class="st1" d="M152.9,118.4c-1.5,0-65.8,26.2-65.8,26.2l-73.4-26.2l74.9-25.4L152.9,118.4z"/>
	<polygon class="st1" points="167.8,64.2 228.6,86.8 292.9,61.7 235.5,38.8 	"/>
	<path class="st1" d="M229.6,89.3c1.1,0,65.8,26.5,65.8,26.5l66.2-28L298,61.7L229.6,89.3z"/>
	<path class="st1" d="M301.6,115.9c1.1,0,63.3-26.5,64.7-25.8c1.5,0.7,69.8,27.3,69.8,27.3l-65.1,26.2L301.6,115.9z"/>
	<polygon class="st1" points="307.8,62 366.7,85.7 426,61.7 365.2,39.1 	"/>
	<polygon class="st1" points="358.3,36.2 300.5,60.2 242.4,37.3 298.4,15.9 	"/>
	<path class="st1" d="M430.3,65.3l-58.2,22.9l70.5,26.5c0,0,60.3-24,59.3-24C500.8,90.8,430.3,65.3,430.3,65.3z"/>
</g>
<g id="Cracks_x3F__2_">
	<polygon class="st1" points="322.7,215.4 324.4,218.8 326.3,213.1 	"/>
	<path class="st1" d="M372.4,197.3c0,0,0,7.4,0,6.9c0-0.5,2.2-8.6,2.2-8.6l10.5-3.6c0,0,4,3.4,4.1,2.9c0.2-0.5,2.2-5.2,2.2-5.2
		s-4.5-0.9-5.2-0.7c-0.7,0.2-13.9,5-13.9,5V197.3z"/>
	<polygon class="st1" points="425.6,177.8 428.2,179.6 430.2,175.4 	"/>
	<polygon class="st1" points="500.7,150.2 503.8,154.5 507.6,150.7 508.4,147.3 	"/>
	<polygon class="st1" points="568.3,127.5 568,135.5 567,129.5 563.9,131.1 562.6,128.2 	"/>
	<polygon class="st1" points="122.7,160 124.2,163.6 126.5,160.7 	"/>
	<polygon class="st1" points="118.5,129 119.8,132.6 131.9,125.4 	"/>
	<path class="st1" d="M114.4,96.5c0,0,0.5,3.6,1.3,3.6s9.5,0.3,9.5,0.3L114.4,96.5z"/>
	<path class="st1" d="M190.5,70.9l0.8,3.4l10.8,2.8c0,0,2.6-5.2,1.3-5.2S190.5,70.9,190.5,70.9z"/>
	<polygon class="st1" points="19.2,119.7 18.7,124.1 25.9,121.3 	"/>
	<polygon class="st1" points="225.6,84.6 224.1,87.2 218.1,83.8 224.1,82.3 	"/>
	<polygon class="st1" points="211.7,133.9 209.4,138.5 216.8,140.4 	"/>
	<polygon class="st1" points="315.1,162.3 316.7,164.9 326,159.2 	"/>
	<path class="st1" d="M341.5,129.8c-0.8,0.5-4.6,2.8-4.6,2.8l-1.5-4.6L341.5,129.8z"/>
	<polygon class="st1" points="414.5,124.9 416.8,126.2 421.5,123.6 425.8,123.1 425.1,118.7 	"/>
	<polygon class="st0" points="506.1,94.4 502.7,98 497.1,95.5 	"/>
	<polygon class="st0" points="266.1,128 271.3,129.5 275.2,123.8 	"/>
	<polygon class="st0" points="186.9,106.8 191.3,109.4 196.5,104.2 	"/>
	<path class="st0" d="M245,41c0,0-1.3,2.8-0.5,2.8c0.8,0,7.5,1.8,7.5,1.8l1.3,3.1l3.9-2.8L245,41z"/>
	<path class="st0" d="M309.2,178.3v2.3l9.5,3.4c0,0,9.5-0.8,8.8-0.8S309.2,178.3,309.2,178.3z"/>
	<polygon class="st0" points="153.9,120.5 149.2,126.7 141,125.4 	"/>
	<polygon class="st1" points="394.1,189.4 391,196.6 395.7,213.6 392.8,196.6 399.8,185.8 	"/>
	<polygon class="st1" points="320.6,215.2 323.9,221.4 322.6,229.9 319.3,219.3 315.1,216.2 	"/>
	<polygon class="st1" points="313.9,217.5 316.7,220.6 315.7,225.2 312,219.1 	"/>
	<polygon class="st1" points="163.4,173.6 165.7,189.1 168.6,189.1 172.5,205.6 169.9,187.6 167.6,185.5 169.1,174.7 	"/>
	<polygon class="st1" points="172.2,176.2 171.7,181.9 173.5,177 	"/>
	<polygon class="st1" points="77.2,139.1 78.5,155.3 79.6,138.5 	"/>
	<polygon class="st1" points="552,196.1 389.2,261 403.7,261.6 505.1,223.4 507.6,235.3 508.2,218.8 513.8,215.7 515.4,226 
		517.4,214.7 	"/>
	<polygon class="st1" points="41.9,191.4 81.6,206.2 84.2,202 83.8,207.4 111.3,217.5 113.9,216.5 114.4,219.6 239.3,269.4 
		197.1,260.8 54.4,201.1 42.2,207.4 	"/>
</g>
<polygon class="st1" points="196.5,287.6 96.2,245.2 96.2,213.1 196.5,255.2 "/>
<polygon class="st1" points="403.7,293.9 503.9,251.6 503.9,219.5 403.7,261.6 "/>
<g>
	<path class="st2" d="M404.4,451.4c-4.8-1.8-9.2-4.3-13-7.6c-13-11.6-19.2-40.1-13.6-57.2c2.9-8.7,6-16.8,13.2-21.3
		c8.9-5.6,18.7-9.6,28.9-12.3c19.7-5.3,41.2-6.1,61.2-1.6c14.5,3.3,29.3,10.5,36.4,24.2c10.6,20.5-2.3,38.7-4.4,58.6
		c-0.5,4.3-3.6,10.2-6.7,13.2c-5.4,5.1-3.8,5.9-5.6,12.8c-1.2,5-0.6,9.7-4,13.7c-1.3,1.5-3.9,3.4-5.3,2c-0.3-0.3-0.6-0.7-0.8-1.2
		c-1.2-2.3-4.5-2.4-5.9-0.2c-1.4,2.2-2.9,4.2-4.8,4.3c-2.1,0.1-3.5-1.4-4.9-3.2c-1.7-2.2-5-2.1-6.5,0.2l-1.2,1.7
		c-2.6,2.5-6.2-1-8.1-4.1c-0.3-0.5-0.6-0.9-1-1.2c-1-0.5-2.3,0.2-2.9,1.1c-0.6,0.9-0.9,2.1-1.6,3c-1.8,2.7-6,2.6-8.5,0.6
		c-8-6.3-1.5-19.2-15.5-21.8c-1.3-0.2-2.7-0.3-4-0.3C418.5,455,411.1,453.9,404.4,451.4z"/>
	<g>
		<path class="st3" d="M469.3,457.4c-0.5,0-1.4,0-2.2-0.6c-0.8-0.5-1-1.9-1.2-2.5c-1.4-3.7,0.3-9.8,3.3-12.3
			c2.7-2.2,4.4-2.5,6.7-1.6c4,1.5,5.6,8.2,6,10.5l0,0c0.1,0.6,0.1,2.6-0.7,3.8c-0.6,0.8-1.5,1.2-2.3,1.4c-2.8,0.9-5.7,1.3-8.6,1.3
			C469.9,457.4,469.6,457.4,469.3,457.4z M479.2,451.3c-0.6-3.7-2.2-6.4-4-7.1c-1.3-0.5-2.9,0-4.8,1.6c-2.2,1.8-3,5-2.1,7.6
			c0.2,0.5,0.3,0.6,0.4,0.7c0.2,0.1,0.8,0.3,0.8,0.1c0.2-5.2,3.5-4.7,6.3-5.6c0.2-0.1,3.2,4.2,3.3,4
			C479.3,452.4,479.3,452,479.2,451.3L479.2,451.3z"/>
		<path class="st4" d="M480.1,450.9c0.1,0.8,0.1,1.6-0.3,2.2c-1,1.3-2.2,0.6-3-0.5c-0.3-0.5-0.7-0.9-1.1-1.3c-0.5-0.5-1-0.9-1.7-1.1
			c-0.6-0.2-1.4-0.2-2,0.2c-0.6,0.4-0.9,1.2-1.1,1.9c-0.2,0.5-0.3,1-0.5,1.6c-0.1,0.2-0.1,0.5-0.3,0.6c-0.4,0.5-1.4,0.3-1.9-0.1
			c-0.4-0.3-0.7-0.8-0.8-1.4c-1-3.1,0.2-6.8,2.6-8.8C476.2,439.4,479.4,445.2,480.1,450.9z"/>
	</g>
	<path class="st3" d="M485.5,407.9c1.6-0.6,2.9,1.2,3.6,2.7c-1.1-1.5-0.4-4,1.4-4.6s3.8,1.4,3.2,3.2c-0.7-2.3,1.5-5,3.9-4.8
		c2.4,0.2,4.1,3.3,3,5.4c0.6-1.1,1.2-2.2,2.1-2.9c1-0.7,2.4-1,3.4-0.2c0.9,0.7,1.1,2,0.7,3.1c-0.3,1.1-1.1,2-1.8,2.8
		c1.7-0.6,3.8-1,4.9,0.4c0.8,1.1,0.4,2.7-0.5,3.7s-2.3,1.4-3.6,1.8c1.2-0.1,2.5-0.1,3.6,0.4c1.1,0.6,1.8,2,1.2,3
		c-0.3,0.6-1,0.9-1.6,1.2c-1.3,0.6-2.7,1-4.2,1.4c2-0.5,4.2,1.5,3.8,3.6c-0.3,2-3,3.2-4.8,2.1c1.5,1.3,2.5,3.5,1.6,5.3
		c-0.8,1.8-3.9,2.2-4.7,0.4c1.1,1.7,1.2,4.1-0.3,5.4c-1.5,1.3-4.5,0.2-4.3-1.8c-0.5,1.6-1.5,3.3-3.2,3.7c-1.6,0.4-3.6-1.3-3-2.8
		c-0.8,1.4-2.6,2.2-4.1,1.6c-1.5-0.6-2.2-2.7-1.1-3.9c-1.9,1.1-4.7,2.1-6.1,0.3c-0.9-1.1-0.6-2.9,0.3-4c0.9-1.1,2.3-1.7,3.6-2.2
		c-1.7-1.1-4.6,0.1-5.6-1.6c-0.7-1.2,0.3-2.7,1.5-3.3c1.2-0.6,2.7-0.7,3.9-1.4c-1.5-0.2-3-0.8-3.9-2c-0.9-1.2-1.2-3-0.3-4.2
		c0.8-1.3,2.8-1.8,4-0.8c-2.2-0.6-3.2-3.6-1.8-5.4c1.1-1.4,3.8-0.5,4.8-0.8C484.6,412.1,483.1,408.7,485.5,407.9z"/>
	<path class="st3" d="M439.6,409.6c0.6,0,1.3,0.3,1.8,0.6c1.3,1,2,2.8,1.6,4.4c0.5-2.1,1.7-4.5,3.8-4.5c2,0,3.3,2.6,2.2,4.2
		c0.8-1.1,1.7-2.2,2.9-2.9s2.8-1,3.9-0.2c1.2,0.7,1.7,2.4,1.4,3.7c-0.3,1.4-1.3,2.5-2.5,3.4c1-0.6,2.1-1.1,3.2-1.2
		c1.2-0.1,2.4,0.4,3,1.4c1.1,2-1,4.2-2.8,5.5c1.9-1.3,5,0,5.5,2.2s-1.7,4.7-4,4.4c2.4,0.8,4.3,3,4.6,5.6c0.1,0.4,0.1,0.9-0.1,1.3
		c-0.4,1-1.6,1.4-2.6,1.2c-1-0.2-1.9-0.8-2.8-1.4c1.2,1.4,2.5,3,2.8,4.8c0.4,1.8-0.6,4.1-2.4,4.5c-1.7,0.4-3.4-0.9-4.7-2.1
		c1.7,1.7,0.7,5.1-1.6,5.7c-2.3,0.7-4.9-1.5-4.9-3.9c-0.5,1.4-1.1,2.9-2.5,3.5c-1.5,0.6-3.4-0.4-4.1-2s-0.4-3.3,0.2-4.9
		c-1,0.9-2.1,1.9-3.3,2.4c-1.3,0.5-2.9,0.4-3.8-0.6c-1.1-1.1-1-3-0.2-4.3c0.9-1.3,2.4-2,3.9-2.4c-2.1-0.6-4.7,0.7-6.4-0.6
		c-1.3-1-1.3-3-0.5-4.3c0.8-1.4,2.3-2.2,3.8-2.8c-1.8-0.5-4.2-0.1-5.3-1.6c-0.9-1.2-0.5-3,0.7-4c1.1-1,2.7-1.2,4.2-1.2
		c-1.3-0.5-2.6-0.9-3.4-1.9c-0.9-1-1.2-2.7-0.2-3.6c1.3-1.3,3.5-0.4,5,0.6c-0.9-0.6-1.7-1.2-2.3-2.1c-1.4-2.3,1.4-4.2,4.6-1.5
		C438.3,413.4,437.7,409.6,439.6,409.6z"/>
	<ellipse class="st1" cx="452" cy="379.4" rx="59.8" ry="24.6"/>
	<g>
		<path class="st3" d="M434.8,418.8c1.4-3.8,6.4-5.7,10.1-5.3c6.5,0.8,13,4.6,15.1,13.8c2.1,9.2-1.3,17.5-7.7,18.9
			c-0.6,0.1-1.3,0.2-1.9,0.2C432.1,445.3,433.5,422.3,434.8,418.8z M444.7,417.6c-2,0.4-3.7,2.1-4.7,4.7c-1.1,2.9-1.3,6.5-0.4,10.2
			l0,0c1.7,7.1,6.9,12.3,11.4,11.3c4.5-1,6.8-7.8,5.1-14.9c-1.6-6.5-6.1-11.5-10.3-11.5C445.4,417.4,445,417.5,444.7,417.6z"/>
	</g>
	<g>
		<path class="st3" d="M490.8,442c-0.6,0-1.3-0.1-1.9-0.2c-6.4-1.5-9.8-9.8-7.7-18.9c2.1-9.2,8.6-12.9,15.1-13.8
			c3.7-0.5,8.4,0.6,9.8,4.4C507.5,417,509.2,440.8,490.8,442z M495.5,413c-4.2,0-8.7,4.9-10.3,11.5c-1.7,7.1,0.7,13.9,5.1,14.9
			c4.5,1,9.7-4.2,11.4-11.3l0,0c0.9-3.7,0.7-7.3-0.4-10.2c-1-2.6-2.7-4.3-4.7-4.7C496.3,413,495.9,413,495.5,413z"/>
	</g>
	<g>
		<path class="st1" d="M483.7,424.3c1.3-8,6.6-13.8,11.9-13c5.3,0.8,8.5,8,7.2,16.1c-1.3,8-6.6,13.8-11.9,13
			C485.7,439.5,482.5,432.3,483.7,424.3z"/>
		<path class="st4" d="M489.9,440.1c-4.6-1.6-7.4-8.3-6.2-15.8c0.9-5.5,3.7-9.9,7-11.9c0.1,0.4,0.2,0.8,0.2,1.2
			c0.6,4.8,1.8,9.5,2.7,14.3c0.6,3.3,0.6,7.7-1.4,10.5C491.6,439.1,490.8,439.8,489.9,440.1z"/>
	</g>
	
		<ellipse transform="matrix(0.9752 -0.2213 0.2213 0.9752 -84.0198 109.9485)" class="st4" cx="448.6" cy="429.9" rx="9.6" ry="14.7"/>
	<path class="st4" d="M511.3,372.3c-1-1.9-3.2-3-5.4-1.6c-1.6,1-2.7,2.2-3.3,3.8c-3.4,2.7-5.2,7.4-3.7,11.5c0.8,2.4,2.8,4.3,5.4,4.3
		c1.2,0,2.2-0.5,3.2-1.1c-1.8,3.6-0.9,7.9-1,8.8c-0.2,3.7,4.9,5.2,7.4,3C521.1,394.4,522.6,374,511.3,372.3z"/>
	<path class="st3" d="M469.5,415.9c-0.2,1.2-0.7,2.6,0,3.6c0.6,0.9,2.6,1.4,3.6,0.9s1.6-1.5,1.8-2.5c0.2-1.1,0-2.2-0.3-3.2
		c-0.5-1.6-1.9-3.3-2.9-4.6c-0.2-0.3-0.5-0.6-0.9-0.7C469.2,409.3,469.7,414.9,469.5,415.9z"/>
	<path class="st3" d="M461.3,412.9c0,2,2,3.3,3.5,2.8c1.6-0.5,2.6-2.3,3.3-4.1c0.3-0.9,0.6-2.1,0-2.9
		C467.3,407.7,461.5,410.5,461.3,412.9"/>
	<path class="st3" d="M473.9,408.1c1,2,1,3.8,3.1,5c1.7,1,4.1,0,4.5-2.4c0.1-0.6,0.1-1.2-0.2-1.7c-0.3-0.5-0.7-0.7-1.1-0.8
		c-2.2-0.9-3.5-1.2-5.8-0.7C473.5,407.6,473.9,407.9,473.9,408.1z"/>
	<path class="st3" d="M454,454.8c0,0,1.3-4,5.1-2.8c3.7,1.2,4.6,11-1.5,10.9c-6.1-0.2-16.3-11.2-20.9-11.9c-4.6-0.7-19,2.5-25.8-4.2
		c-6.8-6.8-5.9-16.1-5.9-16.1s13.4,7.3,16.4,14.9c0.5-6.4,6.8-4.9,6.8-4.9s-5.9,5.2-1.4,6.1c3.1,0.6,7.3,0.2,10.5,0.8
		c3.2,0.7,15.5,10.2,16.7,10.9c2.1,1.1,7,2.2,5.2-2.3c-1.8-4.5-3.6-0.5-4.4-0.4C454,455.8,454,454.8,454,454.8z"/>
	<path class="st3" d="M509.6,438.6c-3,1.4-12.9,13.3-14,14.2c-1.8,1.6-6.4,3.7-5.6-1.2c0.8-4.8,3.4-1.2,4.2-1.3
		c0.8-0.1,0.6-1.1,0.6-1.1s-2.1-3.6-5.5-1.6c-3.4,2-2.1,11.8,3.8,10.3c5.6-1.4,13.8-15.4,19.4-17.4c0.8-1.4-0.4-2.2,0-3.7
		C511.6,437,510.4,438.2,509.6,438.6z"/>
</g>
<path class="st3" d="M222.6,395.9c-1.2,1.7-2.4,3.4-3.1,5.4s-0.9,4.2-0.1,6.1c1.1-3.4,5.8-4.4,7.1-7.7c0.8-1.9,0.1-4.1-0.6-5.9
	c-0.4-1.1-0.7-1.6-1.5-0.4C223.8,394.2,223.2,395,222.6,395.9z"/>
<g>
	<path class="st2" d="M195.3,446.4c4.8-1.8,9.2-4.3,13-7.6c13-11.6,19.2-40.1,13.6-57.2c-2.9-8.7-6-16.8-13.2-21.3
		c-8.9-5.6-18.7-9.6-28.9-12.3c-19.7-5.3-41.2-6.1-61.2-1.6c-14.5,3.3-29.3,10.5-36.4,24.2c-10.6,20.5,2.3,38.7,4.4,58.6
		c0.5,4.3,3.6,10.2,6.7,13.2c5.4,5.1,3.8,5.9,5.6,12.8c1.2,5,0.6,9.7,4,13.7c1.3,1.5,3.9,3.4,5.3,2c0.3-0.3,0.6-0.7,0.8-1.2
		c1.2-2.3,4.5-2.4,5.9-0.2c1.4,2.2,2.9,4.2,4.8,4.3c2.1,0.1,3.5-1.4,4.9-3.2c1.7-2.2,5-2.1,6.5,0.2l1.2,1.7c2.6,2.5,6.2-1,8.1-4.1
		c0.3-0.5,0.6-0.9,1-1.2c1-0.5,2.3,0.2,2.9,1.1c0.6,0.9,0.9,2.1,1.6,3c1.8,2.7,6,2.6,8.5,0.6c8-6.3,1.5-19.2,15.5-21.8
		c1.3-0.2,2.7-0.3,4-0.3C181.1,449.9,188.6,448.9,195.3,446.4z"/>
	<g>
		<path class="st3" d="M129.3,453.7c-2.9,0-5.8-0.4-8.6-1.3c-0.8-0.3-1.7-0.6-2.3-1.4c-0.9-1.2-0.9-3.1-0.7-3.8l0,0
			c0.4-2.3,2-9,6-10.5c2.3-0.9,4.1-0.6,6.7,1.6c3,2.5,4.7,8.6,3.3,12.3c-0.2,0.6-0.4,1.9-1.2,2.5c-0.8,0.5-1.7,0.6-2.2,0.6
			C129.9,453.7,129.6,453.7,129.3,453.7z M120.2,447.6c-0.1,0.7-0.1,1.1,0,1.3c0.1,0.2,3.1-4,3.3-4c2.8,0.9,6,0.3,6.3,5.6
			c0,0.2,0.7,0,0.8-0.1c0.1,0,0.2-0.2,0.4-0.7c1-2.6,0.1-5.8-2.1-7.6c-1.9-1.5-3.5-2-4.8-1.6C122.4,441.2,120.9,443.9,120.2,447.6
			L120.2,447.6z"/>
		<path class="st4" d="M119.3,447.2c-0.1,0.8-0.1,1.6,0.3,2.2c1,1.3,2.2,0.6,3-0.5c0.3-0.5,0.7-0.9,1.1-1.3c0.5-0.5,1-0.9,1.7-1.1
			s1.4-0.2,2,0.2c0.6,0.4,0.9,1.2,1.1,1.9c0.2,0.5,0.3,1,0.5,1.6c0.1,0.2,0.1,0.5,0.3,0.6c0.4,0.5,1.4,0.3,1.9-0.1
			c0.4-0.3,0.7-0.8,0.8-1.4c1-3.1-0.2-6.8-2.6-8.8C123.2,435.7,120.1,441.5,119.3,447.2z"/>
	</g>
	<ellipse class="st1" cx="147.4" cy="375.7" rx="59.8" ry="24.6"/>
	<path class="st4" d="M192.6,255.4c-21.9-11-46.1-19.5-68.8-28c-1.1-0.4-3.4-1.6-4.6-1.6c-4-0.2-5.3,5.2-6.9,8.9
		c-3.7,8.7-7.8,9-13.6,15.6c-5.3,6-6.3,13.6-4.9,21.3c1.1,6.1,3.4,11.9,5,17.9c-0.7,1.3-1.4,2.7-1.9,4.1c-2.8,7.9,0.1,12.9,3.4,19.2
		c-0.2,1.9-0.4,3.7-0.6,5.6c-1.3,11.2-3.2,22.4-2.5,33.5c-0.2,1.6-0.3,3.1-0.2,4.7c0,3.1,0.7,6.3,2.1,9.1c0.3,0.5,0.7,1.1,1.1,1.6
		c1.3,3.8,3.6,4.5,4.3,8.5c0.7,4.5-0.3,9.7,2.5,13.8c2.5,3.8-0.6,4.3,3.7,5.8c16.7,5.7,43.1,6.6,62.8,2.4c3.1-2.6,2.7-3.2,4.1-5.4
		c1.3-2,0.8-4.8,2-6.9c0.8-1.6,2.4-2.6,3.5-4c2.1-2.8,1.7-6.6,1-10c-1.3-5.8-4.8-10.8-6.2-16.4c-1.6-6.1-1.9-13.7-2.3-20
		c0-0.4,0-0.8-0.1-1.2c5,1.3,8.8-1.9,10.6-6.2c2.6-6.3,0.3-11.8-1.8-17.8c-0.3-0.9-0.6-1.8-0.7-2.7c-0.1-5-0.3-9.9-0.6-14.9
		c0-0.8-0.1-1.5-0.1-2.3c0.9-1.2,2-2.4,3-3.7c0.1,0,0.1,0,0.2-0.1c1.4-0.5,4.4-2.8,6.7-3.6C193,280.9,193,255.7,192.6,255.4z"/>
	<path class="st4" d="M183.8,359.9c0.5,1,1.3,2,2.4,2.2c1.8,0.3,3.1-1.5,4-3c1.6-2.7,3.2-5.6,2.7-8.6c-0.5-3.1-3-5.3-5.4-7.3
		c-4.8-4.1-6.3-4.8-6.1,2.1C181.7,350.1,181.4,355.5,183.8,359.9z"/>
	<g>
		<path class="st3" d="M149,442.8c-0.6,0-1.3-0.1-1.9-0.2c-6.4-1.5-9.8-9.8-7.7-18.9c2.1-9.2,8.6-12.9,15.1-13.8
			c3.7-0.5,8.7,1.5,10.1,5.3C165.9,418.6,167.3,441.6,149,442.8z M153.7,413.7c-4.2,0-8.7,4.9-10.3,11.5c-1.7,7.1,0.7,13.9,5.1,14.9
			c4.5,1,9.7-4.2,11.4-11.3l0,0c0.9-3.7,0.7-7.3-0.4-10.2c-1-2.6-2.7-4.3-4.7-4.7C154.4,413.8,154,413.7,153.7,413.7z"/>
	</g>
	<g>
		<path class="st3" d="M93.2,409.8c1.4-3.8,6.2-4.8,9.8-4.4c6.5,0.8,13,4.6,15.1,13.8c2.1,9.2-1.3,17.5-7.7,18.9
			c-0.6,0.1-1.3,0.2-1.9,0.2C90.2,437.1,91.9,413.3,93.2,409.8z M102.8,409.4c-2,0.4-3.7,2.1-4.7,4.7c-1.1,2.9-1.3,6.5-0.4,10.2l0,0
			c1.7,7.1,6.9,12.3,11.4,11.3c4.5-1,6.8-7.8,5.1-14.9c-1.6-6.5-6.1-11.5-10.3-11.5C103.5,409.3,103.2,409.3,102.8,409.4z"/>
	</g>
	<g>
		<path class="st1" d="M115.7,420.6c-1.3-8-6.6-13.8-11.9-13c-5.3,0.8-8.5,8-7.2,16.1c1.3,8,6.6,13.8,11.9,13
			C113.8,435.8,117,428.6,115.7,420.6z"/>
		<path class="st4" d="M109.5,436.3c4.6-1.6,7.4-8.3,6.2-15.8c-0.9-5.5-3.7-9.9-7-11.9c-0.1,0.4-0.2,0.8-0.2,1.2
			c-0.6,4.8-1.8,9.5-2.7,14.3c-0.6,3.3-0.6,7.7,1.4,10.5C107.9,435.4,108.6,436,109.5,436.3z"/>
	</g>
	
		<ellipse transform="matrix(0.2213 -0.9752 0.9752 0.2213 -298.2296 478.9293)" class="st4" cx="150.8" cy="426.2" rx="14.7" ry="9.6"/>
	<path class="st3" d="M127.2,405.2c0.4-1.3,1.6-2.5,3-2.3c1.3,0.1,2.2,1.5,2.4,2.8c0.1,1.3-0.4,2.6-0.8,3.9c1.4-1,3.1-1.7,4.8-2
		c0.2,0,0.4-0.1,0.6,0.1c0.2,0.1,0.2,0.3,0.2,0.5c0.1,1.1-0.5,2.3-1.4,3c-0.9,0.7-1.9,1.2-3,1.6c0.9,1.2,1.3,2.8,1.1,4.2
		c-0.1,0.3-0.2,0.7-0.5,0.9c-0.2,0.1-0.5,0.1-0.8,0.1c-2-0.2-3.7-1.9-4-3.8c-0.6,1.3-1.8,2.3-3.1,2.8c-0.9,0.3-2.2,0.3-2.5-0.7
		c-0.1-0.5,0.1-1,0.4-1.5c0.6-0.9,1.4-1.7,2.2-2.3c-0.7-0.4-1.5-0.6-2.2-1c-0.7-0.4-1.3-1.1-1.3-2c0-0.4,0.2-0.8,0.4-1.1
		c1-1.4,2.7-1.4,4.1-0.7C127,406.9,127,406,127.2,405.2z"/>
	<path class="st3" d="M167.2,433c-1,0.6-1.7,1.6-2.2,2.6c-0.4,0.8-0.6,1.7-1.2,2.4c-0.8,1-2.2,1.5-3.3,2.2c-1.1,0.7-2,2.1-1.5,3.3
		c0.2,0.4,0.6,0.7,1,1c1.6,1,3.7,0.8,5.4-0.2c1.6-0.9,2.8-2.5,3.6-4.2C169.9,438.2,172.3,429.9,167.2,433z"/>
	<path class="st3" d="M174.3,434.5c-0.5,1-0.6,2.1-0.9,3.1c-0.3,1.2-0.9,2.2-1.7,3.1c-0.5,0.6-1.2,1.2-1.3,2c-0.2,1,0.6,2.1,1.6,2.4
		s2.1,0,2.9-0.7c0.8-0.6,1.4-1.6,1.8-2.5c0.9-2,1.3-4.1,1.1-6.3C177.6,433.2,175.7,431.7,174.3,434.5z"/>
	<path class="st3" d="M181.5,435.6c-0.4,0.9-0.5,1.9-0.8,2.9c-0.4,1.1-1.3,1.9-1.6,3c-0.3,1.1,0.4,2.6,1.6,2.4
		c0.5-0.1,0.8-0.4,1.2-0.8c1.1-1.1,2.2-2.3,2.8-3.8C185.4,437.2,183.4,431.8,181.5,435.6z"/>
	<path class="st3" d="M89.6,434c1.4,2.5,3.9,4.3,6.6,5c0.3,0.1,0.7,0.1,1-0.1c0.1-0.1,0.2-0.3,0.2-0.5c0.1-1.3-0.7-2.5-1.7-3.5
		c-0.9-0.9-2-1.7-2.8-2.8c-0.7-1-1.6-3.2-3.3-2.5C87.9,430.4,89,433,89.6,434z"/>
	<g>
		<path class="st3" d="M129.2,420.9c-1-0.4-2.2-0.4-3.2,0.1c-1,0.5-1.8,1.5-1.7,2.6c0.1,0.9,0.7,1.8,1.6,2.1s1.9,0.3,2.7-0.1
			c0.6-0.3,1.2-0.7,1.5-1.4c0.5-1.2-0.2-2.5-1-3.5"/>
		<path class="st3" d="M125.9,429.1c-0.9,0.1-1.7,0.8-2.1,1.6c-0.1,0.2-0.1,0.4-0.1,0.6c0.1,0.2,0.2,0.3,0.4,0.4
			c0.7,0.5,1.5,0.9,2.3,0.9c0.8,0,1.8-0.5,1.8-1.4c0.1-0.7-0.4-1.3-1-1.6c-0.6-0.3-1.3-0.4-1.9-0.5"/>
		<path class="st3" d="M167.8,410.2c-0.4,0.4-0.8,1-0.8,1.6c-0.2,1.4,1.2,2.7,2.5,2.4c1.3-0.3,2.1-2,1.5-3.2
			c-0.7-1.2-2.6-1.4-3.5-0.4"/>
		<path class="st3" d="M89.3,403.7c-0.4,0.4-0.8,1-0.8,1.6c-0.2,1.4,1.2,2.7,2.5,2.4c1.3-0.3,2.1-2,1.5-3.2
			c-0.7-1.2-2.6-1.4-3.5-0.4"/>
		<path class="st3" d="M144.1,405.7c-0.8,0.1-1.4,1-1.4,1.8c0.1,0.8,0.7,1.6,1.5,1.8c0.9,0.3,2.1,0,2.7-0.7s0.6-2-0.1-2.7
			C146.2,405.2,144.8,404.9,144.1,405.7"/>
		<path class="st3" d="M163.3,405.2c-0.7-0.2-1.5-0.2-2.2,0.1s-1.2,1-1.1,1.8c0.1,0.6,0.6,1,1.1,1.2c0.9,0.4,2.2,0.3,2.8-0.6
			c0.6-0.8,0.2-2.3-0.8-2.4"/>
		<path class="st3" d="M155.5,404c-0.7-0.2-1.5-0.2-2.2,0.1c-0.7,0.3-1.2,1-1.1,1.8c0.1,0.6,0.6,1,1.1,1.2c0.9,0.4,2.2,0.3,2.8-0.6
			s0.2-2.3-0.8-2.4"/>
		<path class="st3" d="M98.6,400.1c-0.7-0.2-1.5-0.2-2.2,0.1c-0.7,0.3-1.2,1-1.1,1.8c0.1,0.6,0.6,1,1.1,1.2c0.9,0.4,2.2,0.3,2.8-0.6
			c0.6-0.8,0.2-2.3-0.8-2.4"/>
		<path class="st3" d="M106.5,400c-0.7-0.2-1.5-0.2-2.2,0.1c-0.7,0.3-1.2,1-1.1,1.8c0.1,0.6,0.6,1,1.1,1.2c0.9,0.4,2.2,0.3,2.8-0.6
			c0.6-0.8,0.2-2.3-0.8-2.4"/>
		<path class="st3" d="M114.2,402.1c-0.8,0.1-1.4,1-1.4,1.8c0.1,0.8,0.7,1.6,1.5,1.8c0.9,0.3,2.1,0,2.7-0.7s0.6-2-0.1-2.7
			C116.3,401.7,114.9,401.4,114.2,402.1"/>
	</g>
	<path class="st3" d="M220.3,377.1c-1,12.4-8.5,22.3-16,25.8c-7.5,3.5-3.4-7-3.4-7s-7.9,1.9-4.5,11.4c0,0-12.1-1.7-15,10.7
		c5.7,1.8,15.3,4,18.3-5.9c0.9-3,5.7-4.4,5.7-4.4s-6,5-3,12.9s3,7.8,3,7.8s10.9-11.7,6.8-23.4c7.2-7.5,12.2-11.7,10.6-20.3
		C221.6,378.3,220.3,377.1,220.3,377.1z"/>
</g>
<path class="st4" d="M506.4,337.7c-1.4-2.8-4.3-4.3-5.8-6.9c-1.5-2.6,0.2-6.8-0.2-10c-0.5-4.2-2.1-8.2-2.7-12.4
	c-1.1-7.7,0.5-20.4,3.7-24.9c1.2-1.8,4.1-7.3,4.2-8.1c1.4-7.7,0.4-15.3-4.9-21.3c-5.8-6.6-9.9-6.8-13.6-15.6
	c-1.6-3.7-2.9-9.1-6.9-8.9c-1.2,0.1-3.5,1.2-4.6,1.6c-22.7,8.5-46.9,17-68.8,28c-0.4,0.2-0.4,25.5-0.1,27.3c1.9,0.7,4.4,2.4,5.9,3.3
	c-0.2,5.4-0.6,10.9-1.8,16.2c-1.5,6.3-5.6,12.5-4.9,19.2c0.7,6.2,7.2,11.5,6,17.7c-1.1,5.9-5.3,10.1-5.7,16.4c0,0.8,0.1,1.4,0.4,2
	c-0.2,0.9-0.3,1.9-0.5,2.8c0,0,0,0.1,0,0.1c0,0,0,0,0,0c-0.1,0.4-0.1,0.7-0.2,1.1c-0.1,0.7,0,1.3,0.2,1.8c0,0,0,0,0,0
	c-0.4,0.6-0.6,1.2-0.7,1.9c0,0.6-0.1,1.2-0.2,1.8c0,0,0,0,0,0.1c-0.5,5.2-1.3,11.4,1.7,15.7c0.6,0.9,1.4,1.7,2.2,2.3
	c0.8,2.5,3.1,4.4,3.9,7.1c1.4,5,12.1,5.5,19.6,7c0.1,0,0.2-0.1,0.3-0.1c18.6,2.7,40.9,1.4,55.6-3.7c4.3-1.5,1.2-2,3.7-5.8
	c2.8-4.1,1.8-9.3,2.5-13.8c0.7-4,2.9-4.7,4.3-8.5c0.4-0.5,0.8-1.1,1.1-1.6c1.5-2.8,2.1-6,2.1-9.1c0-0.7,0-1.4,0-2.1
	c2.6-3.2,4.6-6.7,5.2-10.9C508.1,344.1,507.9,340.6,506.4,337.7z"/>
<g>
	<path class="st4" d="M508.9,285.5c-3.9-1.9-6.1-1-6.9,4.9c-0.6,5,0.3,11.7,3,16.1c2.4,4,7.7,5.3,10.8,1.2
		C521.2,300.5,516.4,289.2,508.9,285.5z"/>
	<path class="st3" d="M406.9,259.2l-0.1,27.3l5.9,3.3c0,0,11.2,6.8,6.1,14.6c-5.1,7.8-9.5,16.3-7.5,20c0,0,4.8-14.6,18.7-18.7
		c13.9-4.1,27.1-7.8,14.6-12.6c-12.6-4.8-16.3-3.7-16.3-3.7S431.2,265.3,406.9,259.2z"/>
	<path class="st3" d="M476.2,230.6c0,0,10.2,22.7,20,26.5c9.8,3.7,8.5,23.8,0,26.1c0,0-5.8,7.5-4.4,32.9c1.4,25.5-24.8,22.1-17-12.6
		c7.8-34.6,28.7-24.1,6.1-50.2c-12.9-14.9-21.4-16.6-21.4-16.6L476.2,230.6z"/>
	<path class="st3" d="M450.4,304.3c0,0,17.2,4.4,17,22.7c0,0,0.1-27,12.8-44.5c0,0-14,17.2-21.9,16
		C458.2,298.5,455.1,304.6,450.4,304.3z"/>
	<path class="st3" d="M453.5,392.7c0,0,2,10.1,1.1,11.5l8.2-0.3c0,0-3.7-7-3.5-12.2c0,0-4-1.6-7.4-7.1L453.5,392.7z"/>
	<path class="st3" d="M460.7,392.2c0,0,0.5,7.8,4.4,11.5c0,0,9.7,0,16.3-2.5C481.4,401.1,466.2,405.1,460.7,392.2z"/>
	<path class="st3" d="M499.3,379.6c0,0,6.8,8.7,10.4,3.8c0,0-2.9,20,5.9,13.8c0,0-2.4,8.4-8,1.6c0,0-1.6-4.8,1.1-12.8
		c0,0-1.9,6.2-7.6,2.7C497.6,386.6,499.3,379.6,499.3,379.6z"/>
	<path class="st3" d="M511.4,374.4c0,0,0.2,5.5-1,8c0,0,9.3,1.2,8,7.5C518.4,389.9,521.7,376.3,511.4,374.4z"/>
	<path class="st3" d="M503.4,290.9c0,0,3.4,15.8,13.9,10c0,0-0.3,12.4-8.6,7.9C502.5,305.4,503.4,290.9,503.4,290.9z"/>
	<path class="st4" d="M492.6,261.5c0,0,8.1,12.6-0.5,19.5C492.1,281,504.9,272.7,492.6,261.5z"/>
	<path class="st3" d="M427.4,392.9c-1.8,0.2-3.4-0.9-4.8-2.1c-6.8-5.6-11.7-13.3-13.9-21.8c-0.9,1.3-1.3,2.8-1.7,4.3
		c-0.3,1.2-0.5,2.4-0.5,3.7c0.3,6.1,8.1,9.6,8.8,15.7c0.3,2.3-0.4,5.2,1.5,6.6c0.5,0.4,1.2,0.6,1.8,0.8c2.3,0.7,5.1,1.3,7.4,1.7
		C426.4,401.1,427.8,392.9,427.4,392.9z"/>
	<path class="st3" d="M428.7,336c10.5,0.8,21.1-0.2,31.2-2.9c1.8-0.5,4.2-0.8,5.1,0.8c0.3,0.5,0.4,1.2,0.4,1.8
		c0.1,3.9-2.3,7.8-5.8,9.6c-1.4,0.7-3.1,1.1-4.2,2.3c-0.8,0.8-1.3,1.8-1.7,2.9c-3.8,10.3,2.2,23.1,12.5,26.9c1.4,0.5,3,1.2,3.1,2.7
		c0,0.8-0.5,1.4-1,2c-1.5,1.9-3,3.8-4.5,5.7c-0.3,0.3-0.6,0.7-1,0.9c-0.8,0.3-1.7-0.1-2.4-0.6c-5.7-3.7-12-8.2-13.1-14.9
		c-0.4-2.3-0.1-4.7,0.2-7c0.4-3.3,0.8-6.7,1.2-10c0.3-2.9,0.6-6.1-1.2-8.4c-2.3-2.8-6.5-2.6-10.1-2.5c-5.7,0.1-11.5-1-16.6-3.7
		c-3.4-1.8-11.7-7.9-9.6-12.6c2.6,0.2,5,3.7,7.5,4.8C421.7,335.2,425.3,335.7,428.7,336z"/>
	<path class="st3" d="M445,360.3c-0.8,2.2-1.8,4.3-2.4,6.5c-0.6,2.5-0.6,5.2,0.1,7.6c0.8,2.7,2.3,5.3,2,8.1
		c-0.3,3.7-3.8,6.6-7.5,7.4c-3.7,0.8-7.5,0-11.1-0.8c-1.5-0.3-3-0.7-4.2-1.7c-0.9-0.7-1.4-1.8-1.9-2.8c-1.7-3.3-3.5-6.6-5.2-10
		c4.8,3.5,10.1,7.1,16,7c1.3,0,2.6-0.3,3.5-1c0.7-0.5,1.1-1.3,1.4-2.1c1.7-4,0.2-8.9,2-12.9c2.2-5.2,7.6-8.2,3.6-14.2
		C446.2,348.4,445.8,357.9,445,360.3z"/>
	<path class="st3" d="M417.9,366.4c-1.9,0.1-2.9,2.5-2.3,4.3c0.7,2.1,3.4,3.6,5.2,2.3c1.6-1.2,1.4-3.9-0.2-5.2s-3.8-1.3-5.7-0.7"/>
	<path class="st3" d="M414.3,362.2c-1,1.6-1.9,3.2-2.9,4.8c-1.7-1.5-2.2-3.9-2.6-6.1c-0.2-1.3-0.2-3,1.1-3.3
		c0.9-0.2,1.7,0.7,2.2,1.4c1,1.5,1.9,3,2.7,4.6"/>
	<path class="st3" d="M498.2,365.4c-0.5,2.6-2.4,4.8-4.4,6.5c-4.8,4.1-11.3,6.5-17.6,5.7c-1.8-0.2-3.9-1.1-4.1-2.8
		c-0.2-1.3,0.9-2.6,2.1-3.1c1.2-0.6,2.6-0.7,3.9-1c2.4-0.6,4.7-2,6.4-3.8c2-2.2,3.2-4.9,5.1-7.1c1.4-1.6,5.3-4.3,7.5-2.6
		C498.6,358.3,498.5,363.5,498.2,365.4z"/>
	<path class="st3" d="M495.8,353.1c0.9,1.6,3.5,1.7,4.9,0.5c1.5-1.2,2.1-3.1,2.5-5c0.5-2.5,2.4-11.8-2.2-8.2
		C499.1,341.8,494.6,351,495.8,353.1z"/>
	<path class="st3" d="M470.5,368.7c-0.6-0.2-1.1,0.4-1.1,1c-0.1,0.6,0.1,1.2,0.1,1.8c-0.2,1.4-1.9,2.1-3.2,1.8s-2.4-1.4-3.4-2.4
		c-0.7-0.7-1.5-1.5-1.8-2.5c-0.4-1-0.3-2.2,0.5-2.9c0.7-0.6,1.6-0.6,2.5-0.6c1.4,0,3.2,0.4,3.6,1.8c0.3,0.9,0.2,2.4,1.1,2.4"/>
	<path class="st3" d="M487.8,394.5c-0.1,0.3-0.2,0.7-0.4,1c-0.3,0.4-0.7,0.6-1.1,0.7c-5,2.2-11,2.2-16,0.1c-0.8-0.3-1.5-0.7-1.9-1.5
		c-0.5-1.1,0.4-2.5,1.5-2.9c1.2-0.4,2.5-0.2,3.6,0.2c1.7,0.5,3.4,1.2,5.2,1.3c1.8,0.1,3.8-0.6,4.6-2.1c1-1.8,1.4-8.3,4.8-6.7
		C491.1,385.9,488.3,392.3,487.8,394.5z"/>
	<path class="st3" d="M464.1,329c-1.9,0.9-4,1.1-6.1,1.2c-3.2,0.2-6.5,0.4-9.7,0.6c-0.8,0-1.7,0.1-2.4-0.3s-1.3-1.2-1-2
		c0.2-0.5,0.8-0.9,1.3-1.1c3.3-1.6,8.6-5.2,12.4-5.3C460.7,322,466.1,328,464.1,329z"/>
	<path class="st3" d="M428.2,332.1c-4.7-0.4-9.3-1.8-13-4.7c1.4-1.8,4.2-1.2,6.4-0.6c4.4,1.2,9.1,1.7,13.7,1.5
		c2.5-0.1,8.4-1.4,6.8,3.2C437.7,332.5,432.7,332.5,428.2,332.1z"/>
	<path class="st3" d="M484.9,264c1.2,2.2,2.1,4.8,1.2,7.2c-0.7,1.9-2.5,3.3-4.1,4.5c-6,4.4-12,8.8-18.1,13.2
		c-1.8,1.3-3.6,2.6-5.6,3.3c-4.3,1.5-9,0.2-13.2-1.4c-4.2-1.7-8.3-3.8-12.9-4c1.1-5.7-0.2-11.9-3.6-16.6c-1.9-2.7-4.6-5.1-5.6-8.3
		c3.5-0.3,7,1.3,9.5,3.7c2.5,2.4,4.2,5.6,5.5,8.9c0.7,1.9,1.3,3.8,2.7,5.3c2.3,2.7,6.2,3.3,9.7,3.1c5.2-0.3,10.2-2,15.1-3.8
		c3.2-1.2,6.4-2.5,8.8-4.9c5.2-5.2,3.2-10.4,1.2-16.1c-0.9-2.7-0.7-4.2,2.6-2.8C481,256.5,483.6,261.5,484.9,264z"/>
	<path class="st3" d="M467.6,270.8c0.7-0.6,1.4-1.3,1.7-2.1c0.3-0.8,0.2-1.9-0.5-2.5c-1.2-0.9-2.8,0.1-4,1c-4.4,3.1-10.3,4-15.5,2.5
		c-3.6-1-10.1-4.8-8.3,2.3C444.2,284.5,461.6,276.1,467.6,270.8z"/>
	<path class="st3" d="M468.5,248.7c-0.9-2.1-2.6-4-4.8-4.9c-1.8-0.7-3.8-0.7-5.8-0.7c-1,0-2.2,0.1-2.9,0.8c-1,0.9-0.9,2.6-0.2,3.8
		c0.7,1.2,1.8,2,2.8,3c2.7,2.7,2.4,5.1,3.4,8.2c0.7,2.1,0.6,3,3.4,3C471.2,261.8,470.4,252.9,468.5,248.7z"/>
	<path class="st3" d="M454.8,260.8c-1.2,0.3-2.2,1.5-2.4,2.7c0,0.4,0,0.8,0.3,1.1c0.3,0.3,0.7,0.3,1.1,0.3c1.6,0,3.7-0.4,4-2
		c0.2-1.1-0.9-2.1-2-2.4s-2.3,0.1-3.4,0.5"/>
	<path class="st3" d="M480,363.2c-1.4,1.6-2.9,3.2-5,3.6c-3,0.5-5.6-2.1-7-4.8c-0.3-0.6-0.7-1.3-1.3-1.6c-0.6-0.3-1.2-0.2-1.8,0
		c-1.2,0.3-2.4,0.7-3.6,1.2c-0.8,0.3-1.6,0.7-2.4,0.7c-1.9,0-3.2-2.8-2-4.3c1.5-1.8,4.3-0.9,6.6-1.2c2.2-0.2,4.6-1.6,6.4-0.3
		c1.2,0.8,1.5,2.3,1.9,3.7c0.4,1.3,1.4,2.8,2.8,2.8c0.7,0,1.3-0.3,1.9-0.8c1.8-1.4,5.7-9.7,8.6-8.8C488.8,354.6,481,362.1,480,363.2
		z"/>
</g>
<path class="st3" d="M190.8,270.1l0.2,11.3c0,0-9,4.3-10.6,8.4l1.4,19.5l-4.1-19.7c0,0,0.9,42.5-24.4,25.1s2.5-28.1,2.5-28.1
	L190.8,270.1z"/>
<path class="st3" d="M140.1,310.4c0,0-14.5,43.7,6.1,52s2.5,19.2-16.7,7c-19.2-12.2-0.5-14,1.6-26.2s-6.1-19-6.1-19L140.1,310.4z"/>
<path class="st3" d="M121.3,334.8c0,0,12,8.4-3.6,20.8c-15.6,12.4-1.8,32.6-1.8,32.6s-3.6,5.9-3.4,7.9l-3.9-1.6c0,0-1.5-0.8-0.9-3.9
	c0,0-3.7-1.7-2.9-11.7c0.8-10,2.4-8.2-3.1-24.4s-3.1-27.1,3.1-28.6C111.1,324.5,121.3,334.8,121.3,334.8z"/>
<path class="st3" d="M143.4,306.6c0,0,3.7,11.8,17.2,13.9c0.1,0,0.2,0,0.3,0.1c13.8,2-7.3,10.6-7.3,10.6s-12.3,6.2-12.6-22.4
	L143.4,306.6z"/>
<path class="st3" d="M114,396.5c0,0,0.7-5.5,3.1-7.4c0,0,12.7,7.6,18.9,7l-0.9,4.1C135.1,400.1,117.9,398.8,114,396.5z"/>
<path class="st3" d="M137.1,396.5c0.6-0.1,16.3-1,19-10.4c0,0,0.8,12-3.7,14.3l-16.2-0.2L137.1,396.5z"/>
<path class="st3" d="M111,410.1l-2,12.6c0,0,4.8-8.8,6.8-8.1L111,410.1z"/>
<path class="st3" d="M101.2,291c0,0-4.1,18,4.8,21c0,0,19,17,32.6-7.8c0,0-25.1,30.2-32.2-12.6L101.2,291z"/>
<path class="st3" d="M102.9,316.8l-0.7,5.4c0,0,4.1-3.1,7.5-3.1L102.9,316.8z"/>
<path class="st3" d="M119.2,227.6c0,0-4.1,2.4-4.4,7.1c-0.3,4.8-7.8,12.6-13.9,18c-6.1,5.4-7.1,15.6,0.3,36l5.8,0.3
	c0,0-14.9-22.1-2.4-34.6c12.6-12.6,13.2-14.3,14.3-19c1-4.8,4.1-5.8,4.1-5.8L119.2,227.6z"/>
<path class="st3" d="M125.9,231.6c1,0,62.4,25.8,62.4,25.8l-61.4-18c0,0-0.3,14.9-10.9,20c-10.5,5.1-8.8,16.3-8.8,16.3
	s-6.4-10.5,4.8-20.7s10.2-14.6,9.8-20.4C121.5,228.9,125.9,231.6,125.9,231.6z"/>
<path class="st3" d="M150.7,281.5c1,0.2-12.9,6.8-12.6,17.3c0,0-13.6-19.7-21.4-11.9C116.8,286.9,116.4,274.1,150.7,281.5z"/>
<path class="st3" d="M157.5,280.8c0,0-29.2-13.6-39-4.4c0,0,6.8-14.6,39.4-1.4c0,0,6.8-8.1-14.9-12.2s7.1-13.6,7.1-13.6l24.1,6.1
	c0,0-32.2-2.7-24.4,3.7c7.8,6.4,29.5,7.8,21,15.6L157.5,280.8z"/>
<path class="st3" d="M160,386.5c-0.8-4.5-3.2-9.1-1.8-13.5c1.8,1.8,3.6,3.7,5.9,5c4.1,2.4,9,2.8,13.7,2.7c0.3,0,0.7,0,0.9,0.2
	c0.8,0.6-0.1,1.7-0.7,2.4c-2.6,2.8-1.6,7.6-4.1,10.5c-1.9,2.2-5.1,2.6-8,2.8c-2.2,0.2-4.9,0.7-7,0.2
	C159.9,393.3,160.6,390.1,160,386.5z"/>
<path class="st3" d="M181.2,373.2c0.2,1.1,0.2,2.2-0.5,3c-0.5,0.6-1.3,0.8-2,1c-2.2,0.6-4.5,1.2-6.6,0.5c-0.8-0.2-1.6-0.7-2.4-0.9
	c-1.8-0.6-3.8-0.3-5.5-1.3c-0.6-0.3-1.1-1-0.8-1.6c0.2-0.4,0.7-0.5,1.2-0.6c2.2-0.3,4.4-0.2,6.5,0.4c0.9,0.2,1.8,0.6,2.7,0.4
	c1.1-0.2,1.9-1.2,2.2-2.3c0.3-1.1,0.2-2.2,0-3.3c-0.1-0.6-0.3-1.2-0.1-1.8c0.2-0.6,0.9-1,1.5-0.7c0.3,0.2,0.4,0.5,0.6,0.8
	C179,368.8,180.7,370,181.2,373.2z"/>
<path class="st3" d="M158.4,368.2c0.3,0.5,0.6,1.1,1.2,1.4c0.3,0.1,0.7,0.1,1.1,0.1c1.8,0,3.6,0,5.4,0c0.6,0,1.3-0.1,1.6-0.6
	c0.4-0.6-0.2-1.4-0.8-1.8c-2.2-1.3-5.2-0.2-7.2-1.7c-1.2-0.9-1.6-2.4-2.6-3.5c-1.4-1.6-8.8-5.3-6-1.5c0.8,1,3.3,1.8,4.4,3
	C155.9,364.2,158.1,368.2,158.4,368.2z"/>
<path class="st3" d="M146.4,354.3c0.3,0.2,0.7,0.5,1.1,0.5c1.3,0.2,2-1.6,1.5-2.8c-0.5-1.2-1.7-1.9-2.7-2.7c-2.7-2.3-2.8-5.1-4-8
	C138.6,345.4,143,351.8,146.4,354.3z"/>
<path class="st3" d="M183.4,346.3c0.2,2.9,0.6,5.7,1,8.6c0.2,1.6,1,3.6,2.7,3.5c1-0.1,1.7-1.1,2-2.1c0.2-1,0.2-2,0.4-3
	c-0.8,0.6-2,0.6-2.7,0c-0.4-0.4-0.7-1-0.9-1.5c-0.4-1.1-0.6-2.3-0.7-3.5c0-0.6,0-1.3-0.4-1.9c-0.4-0.5-1.2-0.8-1.6-0.3
	c0,0.5-0.1,1.1-0.1,1.6"/>
<path class="st3" d="M168.2,324.2c-0.5,0.9-0.6,2-0.7,3c-0.1,0.6-0.1,1.2,0.2,1.6c0.2,0.3,0.6,0.5,1,0.7c3.4,1.4,10.1,2.4,12.9-0.6
	c-1.9-1.4-4.5-1.4-6.4-2.9C173.2,324.7,170.4,319.8,168.2,324.2z"/>
<path class="st3" d="M117.6,376.6c-0.2,1.7-0.4,3.4,0,5c0.4,1.6,1.6,3.2,3.3,3.5c1.7,0.3,3.6-1,3.4-2.7c-0.2-1.6-1.9-2.5-3.5-2.9
	c-1.4-0.4-2.8-0.6-4.3-0.6"/>
<path class="st3" d="M131.1,392.5c1.5,0.7,3.1,1.5,4.8,1.7c2,0.2,4-0.5,6-1.1c4.1-1.4,8.6-3.2,10.7-6.9c0.6-1,0.9-2.3,0.2-3.3
	c-0.6-0.9-1.9-1-2.9-0.7c-1,0.3-1.8,1.1-2.7,1.7c-4.4,3.3-10,4.7-15.4,4.1c-1.6-0.2-4.8-1.7-6-0.1
	C124.1,390.3,129.8,391.9,131.1,392.5z"/>
<path class="st3" d="M443.3,403.8c2.2-0.2,4.4-0.2,6.6,0c-0.3-0.9-0.7-1.9-1-2.8c-0.4-1.1-1-2.3-2.2-2.3c-0.9,0-1.5,0.7-2,1.4
	c-0.8,1.2-1.6,2.5-1.4,3.9"/>
<path class="st3" d="M447.7,434.5c0.3,0.8,0.8,1.7,1.6,1.8c0.7,0.1,1.3-0.4,1.5-1.1c0.2-0.6,0.2-1.3,0.2-2
	c-0.3-3.8-1.2-7.5-1.6-11.3c-0.2-1.4,0.4-4.8-0.1-6c-0.5-1-2-1.1-2.9-2.1c-3-3.4-1.6,5.8-1,9.1C446.1,426.9,446.3,430.8,447.7,434.5
	z"/>
</svg>
