<?xml version="1.0" encoding="utf-8"?>
<!-- Generator: Adobe Illustrator 22.0.1, SVG Export Plug-In . SVG Version: 6.00 Build 0)  -->
<!DOCTYPE svg PUBLIC "-//W3C//DTD SVG 1.1//EN" "http://www.w3.org/Graphics/SVG/1.1/DTD/svg11.dtd">
<svg version="1.1" id="Layer_1" xmlns="http://www.w3.org/2000/svg" xmlns:xlink="http://www.w3.org/1999/xlink" x="0px" y="0px"
	 viewBox="0 0 139.9 139.9" style="enable-background:new 0 0 139.9 139.9;" xml:space="preserve">
<style type="text/css">
	.st0{fill:#0065A1;}
	.st1{fill:#00C1DE;}
	.st2{fill:#FFFFFF;}
	@keyframes spin {
		0% {
			transform:rotate(0deg);
			transform-origin: center center;
		}
		100% { 
			transform:rotate(-360deg);
			transform-origin: center center;
		}
	}
	.spinner {
		animation: spin 120s linear infinite;
	}
</style>
<circle id="Circle" class="st0" cx="69.6" cy="69.7" r="66.5"/>
<path id="Tetra" class="st1 spinner" d="M127.8,51.9L98.8,15.8l-36.7-2.9L26.1,23.1L10.3,62.5l9.6,39.7l21.3,21.1l48.1,8.5l26.9-25.6
	l14.8-27.5L127.8,51.9z M125.6,51.6c0.3,0.4-2.6,10.2-2.6,10.2l-20.2-32.4l-2-7.3C100.8,22.1,125.3,51.2,125.6,51.6z M100.6,31.4
	c0,0,19.2,35.5,19.6,35.7C120.6,67.2,94,97.6,94,97.6L51.3,80L60,34.7C60,34.7,99.8,31.4,100.6,31.4z M62.7,15.5L95,17.4l1.7,8.2
	l-41.1,4.1l-19.2-7.2L62.7,15.5z M19.1,84.4l-6-21.6l14.9-36c0.9,0.7,26,7.5,25.7,7.9c-0.3,0.4-9.6,46.8-9.6,46.8L19.1,84.4z
	 M79.6,126.5L42,120.6l-15.9-18.5c0,0,27.2-7.3,27.8-7.3l37.4,14.9L79.6,126.5z M114.2,104.3c0,0.4-22.1,20.8-22.1,20.8
	s11-19.6,11.2-20.1l24.2-25.4C127.5,79.7,114.2,103.9,114.2,104.3z"/>
<g id="BUY_TICKETS">
	<path class="st2" d="M43.8,64.1V34.9h6c1.1,0,2,0.1,2.9,0.2s1.6,0.3,2.4,0.7s1.4,0.8,2,1.3c0.5,0.6,0.9,1.3,1.2,2.2
		c0.3,0.9,0.5,2,0.5,3.2c0,1.5-0.4,2.7-1.1,3.6c-0.7,0.9-1.8,1.6-3.3,2.1c3.5,0.8,5.2,3.3,5.2,7.4c0,2.9-0.7,5.1-2.1,6.5
		s-3.5,2.1-6.4,2.1H43.8z M49.7,46.4h1c0.5,0,1-0.1,1.4-0.3c0.4-0.2,0.6-0.5,0.8-0.9c0.2-0.4,0.3-0.8,0.4-1.3c0.1-0.5,0.1-1,0.1-1.6
		c0-0.5,0-0.9-0.1-1.3s-0.1-0.7-0.2-0.9c-0.1-0.2-0.2-0.4-0.4-0.6c-0.2-0.2-0.4-0.3-0.5-0.4c-0.2-0.1-0.4-0.1-0.7-0.2
		c-0.3,0-0.6-0.1-0.8-0.1c-0.2,0-0.5,0-0.9,0V46.4z M49.7,59.9h0.6c0.8,0,1.4-0.1,1.9-0.3c0.5-0.2,0.8-0.5,1.1-0.9
		c0.2-0.4,0.4-0.9,0.5-1.5c0.1-0.5,0.1-1.3,0.1-2.2c0-1.5-0.3-2.7-0.8-3.5c-0.5-0.8-1.4-1.3-2.7-1.3h-0.6V59.9z"/>
	<path class="st2" d="M62.2,53.3V34.9h5.9v18.1c0,1,0,1.8,0,2.3c0,0.5,0,1,0.1,1.7s0.1,1.1,0.2,1.4c0.1,0.3,0.3,0.6,0.4,0.9
		c0.2,0.3,0.4,0.5,0.7,0.6c0.3,0.1,0.7,0.1,1.1,0.1s0.8,0,1.1-0.1c0.3-0.1,0.5-0.3,0.7-0.6c0.2-0.3,0.3-0.6,0.4-0.9
		c0.1-0.3,0.2-0.7,0.2-1.4s0.1-1.2,0.1-1.7c0-0.5,0-1.2,0-2.2c0,0,0-0.1,0-0.1V34.9h5.9v18.3c0,0.9,0,1.8-0.1,2.5
		c-0.1,0.8-0.2,1.5-0.3,2.3c-0.2,0.8-0.4,1.5-0.6,2.1c-0.3,0.6-0.6,1.2-1,1.8c-0.4,0.6-0.9,1-1.5,1.4s-1.3,0.7-2.1,0.9
		c-0.8,0.2-1.8,0.3-2.8,0.3s-2-0.1-2.8-0.3c-0.8-0.2-1.5-0.5-2.1-0.9c-0.6-0.4-1.1-0.8-1.5-1.4c-0.4-0.6-0.8-1.2-1-1.8
		c-0.3-0.6-0.5-1.3-0.6-2.1c-0.2-0.8-0.3-1.6-0.3-2.3C62.2,55,62.2,54.2,62.2,53.3z"/>
	<path class="st2" d="M86.3,64.1v-9.6l-5.5-19.5h5.6l2.7,12.8c0.3-1.4,0.8-3.5,1.5-6.4c0.7-2.9,1.2-5,1.5-6.4h5.4L92,54.5v9.6H86.3z
		"/>
	<path class="st2" d="M20.3,103.9V79.2H16v-4.4h14.4v4.4h-4.2v24.8H20.3z"/>
	<path class="st2" d="M32.3,103.9V74.8h5.9v29.2H32.3z"/>
	<path class="st2" d="M41.3,94.2v-9.7c0-6.9,2.8-10.3,8.5-10.3c1.2,0,2.2,0.2,3.2,0.5c0.9,0.3,1.7,0.8,2.3,1.3
		c0.6,0.6,1.1,1.3,1.5,2.1s0.7,1.7,0.9,2.7c0.2,1,0.3,2,0.3,3.2v2.5h-5.8v-2.7c0-0.5,0-1,0-1.4S52.1,81.5,52,81s-0.2-0.9-0.4-1.2
		c-0.2-0.3-0.4-0.6-0.7-0.8c-0.3-0.2-0.7-0.3-1.1-0.3c-1.7,0-2.6,1.4-2.6,4.3v12.6c0,2.9,0.9,4.3,2.6,4.3c0.5,0,0.9-0.1,1.3-0.4
		c0.3-0.3,0.6-0.7,0.7-1.2c0.2-0.5,0.3-1.1,0.3-1.6c0.1-0.5,0.1-1.1,0.1-1.8v-3H58v2.5c0,1.1-0.1,2.1-0.3,3.1s-0.4,1.9-0.8,2.7
		c-0.4,0.9-0.9,1.6-1.5,2.2s-1.4,1.1-2.3,1.5c-1,0.4-2,0.6-3.3,0.6c-1.3,0-2.4-0.2-3.4-0.5s-1.8-0.8-2.4-1.5s-1.2-1.4-1.6-2.3
		c-0.4-0.9-0.7-1.8-0.9-2.8C41.4,96.4,41.3,95.4,41.3,94.2z"/>
	<path class="st2" d="M60.7,103.9V74.8h5.9v11.1l4.6-11.1h6.6l-5.9,11.9l6.4,17.2h-6.1l-4.4-13.3l-1.1,2.8v10.6H60.7z"/>
	<path class="st2" d="M79.3,103.9V74.8h12.2v4.1h-6.3v7.9h4.4v4.1h-4.4v9h6.3v4.1H79.3z"/>
	<path class="st2" d="M96.4,103.9V79.2h-4.3v-4.4h14.4v4.4h-4.2v24.8H96.4z"/>
	<path class="st2" d="M107.4,95.6l6-1.2c0,0.6,0,1.1,0,1.6c0,0.5,0.1,0.9,0.2,1.5c0.1,0.5,0.2,1,0.4,1.3c0.2,0.3,0.4,0.6,0.7,0.9
		c0.3,0.2,0.6,0.3,1,0.3c1.2,0,1.8-0.7,1.8-2.2c0-2-1.2-4.1-3.5-6.1l-1.8-1.6c-0.6-0.5-1-0.9-1.4-1.2c-0.3-0.3-0.8-0.8-1.2-1.3
		c-0.5-0.6-0.8-1.1-1.1-1.6c-0.3-0.5-0.5-1.1-0.7-1.9c-0.2-0.7-0.3-1.5-0.3-2.3c0-2.4,0.8-4.2,2.3-5.6c1.5-1.4,3.5-2.1,6-2.1
		c2.1,0,3.8,0.7,5.3,2.2c1.4,1.5,2.2,3.2,2.2,5.3l0,0.2c0,0.1,0,0.3,0,0.5l-6.1,0.8c0-0.1,0-0.3,0-0.6c0-0.3,0-0.5,0-0.6
		c0-0.4,0-0.8-0.1-1.1c-0.1-0.4-0.1-0.7-0.3-1.1s-0.3-0.6-0.6-0.9c-0.3-0.2-0.6-0.3-0.9-0.3c-0.6,0-1.1,0.3-1.5,0.8
		c-0.3,0.5-0.5,1.1-0.5,1.8c0,0.6,0.1,1.2,0.3,1.7c0.2,0.5,0.5,1,0.9,1.5c0.4,0.5,0.7,0.8,1.1,1.1c0.3,0.3,0.8,0.7,1.3,1.1
		c0.5,0.4,0.9,0.8,1.2,1c0.8,0.7,1.5,1.4,2.1,2.1c0.6,0.6,1.1,1.4,1.6,2.2c0.5,0.8,0.9,1.7,1.1,2.6s0.4,2,0.4,3c0,2-0.7,3.7-2.2,5
		s-3.2,2-5.3,2c-1.4,0-2.5-0.2-3.6-0.7c-1-0.5-1.9-1.2-2.5-2c-0.6-0.9-1.1-1.8-1.5-2.8C107.7,97.9,107.5,96.8,107.4,95.6z"/>
</g>
</svg>
