<?xml version="1.0" encoding="utf-8"?>
<!-- Generator: Adobe Illustrator 22.0.1, SVG Export Plug-In . SVG Version: 6.00 Build 0)  -->
<!DOCTYPE svg PUBLIC "-//W3C//DTD SVG 1.1//EN" "http://www.w3.org/Graphics/SVG/1.1/DTD/svg11.dtd">
<svg version="1.1" xmlns="http://www.w3.org/2000/svg" xmlns:xlink="http://www.w3.org/1999/xlink" x="0px" y="0px"
	 viewBox="0 0 781.3 546.3" style="enable-background:new 0 0 781.3 546.3;" xml:space="preserve">
<style type="text/css">
	.st0{fill:#D84240;}
	.st1{fill:#00C1DE;}
	.st2{fill:#FFCD00;}
	.st3{fill:#0065A1;}
	.st4{fill:#FF595A;}
	.st5{fill:#FFFFFF;}
	.st6{display:none;}
	.st7{display:inline;}
	.st8{enable-background:new    ;}
	.st9{clip-path:url(#SVGID_2_);}
	.st10{font-family: 'Oswald', sans-serif; font-weight: 700;}
	.st11{font-size:20.0452px;}
	@font-face {
		font-family: 'Oswald';
		font-style: normal;
		font-weight: 400;
		src: local('Oswald Regular'), local('Oswald-Regular'), url(https://fonts.gstatic.com/s/oswald/v16/_P8jt3Y65hJ9c4AzRE0V1OvvDin1pK8aKteLpeZ5c0A.woff2) format('woff2');
		unicode-range: U+0000-00FF, U+0131, U+0152-0153, U+02C6, U+02DA, U+02DC, U+2000-206F, U+2074, U+20AC, U+2212, U+2215;
	}
	@keyframes spin {
		0% {
			transform:rotate(0deg);
			transform-origin: center center;
		}
		100% { 
			transform:rotate(360deg);
			transform-origin: center center;
		}
	}
	@keyframes spinccw {
		0% {
			transform:rotate(0deg);
			transform-origin: center center;
		}
		100% { 
			transform:rotate(-360deg);
			transform-origin: center center;
		}
	}
	@keyframes blink-close {
		0% { opacity: 1; }
		1% { opacity: 1; }
		2% { opacity: 0; }
		4% { opacity: 0; }
		100% { opacity: 0; }
	}
	@keyframes blink-open {
		0% { opacity: 0; }
		4% { opacity: 0; }
		5% { opacity: 1; }
		100% { opacity: 1; }
	}
	#eye_2 {
		opacity:1;
	}
	#eye_1 {
		animation: blink-open 10s ease infinite;
	}
	#eye_2 {
		animation: blink-close 10s ease infinite;
	}
	.mandala-outer {
		animation: spin 60s linear infinite;
		transform-box: fill-box;
	}
	<!-- .mandala-star {
		animation: spin 40s linear infinite;
	} -->
	.mandala-inner {
		animation: spinccw 50s linear infinite;
		transform-box: fill-box;
	}
</style>
<symbol  id="Feather" viewBox="-39 -25.1 78 77.7">
	<g>
		<path class="st0" d="M11.2,52.6c0,0-6.8-9.9-11-24.3c-4.2,14.3-10.9,24.3-10.9,24.3s-5.3-17.7-2.1-37.9C-11.3,4-8.8-5.5-6.2-12
			C-7.2-8-7.9-3.1-7.9,2.3c0,12.8,7.9,23.1,7.9,23.1S7.9,15.1,7.9,2.3c0-5.5-0.7-10.6-1.8-14.6c2.7,6.4,5.3,16.1,7,27.1
			C16.4,35,11.2,52.6,11.2,52.6z"/>
		<path class="st1" d="M0.1,25.5c0,0-7.9-10.3-7.9-23.1C-7.9-3.1-7.2-8-6.2-12c1.4-5.4,3.7-8.8,6.2-8.8c2.5,0,4.7,3.3,6.1,8.5
			c1.1,4,1.8,9.1,1.8,14.6C7.9,15.1,0.1,25.5,0.1,25.5z"/>
	</g>
	<g>
		<circle class="st0" cx="-25" cy="-11.1" r="14"/>
		<circle class="st1" cx="-25" cy="-11.1" r="8.7"/>
	</g>
	<g>
		<circle class="st0" cx="25" cy="-11.1" r="14"/>
		<circle class="st1" cx="25" cy="-11.1" r="8.7"/>
	</g>
</symbol>
<symbol  id="jewel" viewBox="-5 -10 10 20">
	<ellipse class="st1" cx="0" cy="0" rx="5" ry="10"/>
</symbol>
<g id="Mandala">
	<g>
		<polygon class="st0 mandala-star" points="390.9,70.6 416.5,142.5 485.4,109.8 452.7,178.7 524.6,204.3 452.7,229.9 485.4,298.8 416.5,266 
			390.9,337.9 365.3,266 296.4,298.8 329.2,229.9 257.2,204.3 329.2,178.7 296.4,109.8 365.3,142.5 		"/>
		<polygon class="st1 mandala-star" points="390.9,96.6 411.5,154.5 467,128.1 440.6,183.7 498.6,204.3 440.6,224.9 467,280.4 411.5,254 
			390.9,311.9 370.3,254 314.8,280.4 341.2,224.9 283.2,204.3 341.2,183.7 314.8,128.1 370.3,154.5 		"/>
		<path id="More_dots" class="st0" d="M416.6,352.9C416.5,352.9,416.5,352.9,416.6,352.9l-0.1,0c-1.8,0.3-3.6-0.9-3.9-2.7
			c-0.3-1.8,0.9-3.5,2.7-3.9c0,0,0,0,0,0l0.1,0c1.8-0.3,3.6,0.9,3.9,2.7C419.6,350.8,418.4,352.6,416.6,352.9z M425.6,351
			c-1.7,0.3-3.4-0.8-3.9-2.5c-0.4-1.8,0.6-3.6,2.4-4.1c0,0,0.1,0,0.1,0c1.8-0.4,3.6,0.7,4,2.5c0.4,1.8-0.7,3.6-2.5,4l-0.8-3.3
			l0.7,3.3C425.8,351,425.7,351,425.6,351z M407.3,354.2c-0.1,0-0.2,0-0.2,0c0,0-0.1,0-0.1,0c-1.8,0.2-3.5-1.2-3.7-3
			c-0.2-1.8,1.2-3.5,3-3.7c1.8-0.2,3.5,1.1,3.7,3C410.2,352.3,409,353.9,407.3,354.2z M434.7,348.6c-1.7,0.3-3.3-0.7-3.8-2.3
			c-0.5-1.8,0.4-3.6,2.2-4.2c0,0,0.1,0,0.1,0c1.8-0.6,3.7,0.4,4.2,2.2c0.6,1.8-0.4,3.7-2.2,4.2c0,0-0.1,0-0.1,0
			C434.9,348.5,434.8,348.6,434.7,348.6z M398,354.9c-0.2,0-0.3,0-0.5,0.1l-0.1,0c-1.9,0.1-3.4-1.3-3.5-3.2
			c-0.1-1.9,1.3-3.4,3.2-3.5l0.1,0c1.9-0.1,3.4,1.4,3.5,3.2C400.8,353.2,399.6,354.6,398,354.9z M443.5,345.6
			c-1.6,0.3-3.2-0.6-3.8-2.1c-0.6-1.7,0.3-3.7,2-4.3c1.7-0.7,3.7,0.2,4.4,1.9c0.7,1.7-0.2,3.7-1.9,4.3l-0.1,0
			C443.9,345.5,443.7,345.6,443.5,345.6z M388.6,355.1c-0.2,0-0.5,0.1-0.7,0.1c0,0-0.1,0-0.1,0c-1.9,0-3.3-1.6-3.3-3.4
			c0-1.9,1.6-3.3,3.4-3.3c1.9,0,3.4,1.6,3.3,3.4C391.3,353.4,390.1,354.8,388.6,355.1z M452.2,342c-1.5,0.3-3-0.5-3.7-1.9
			c-0.8-1.7,0-3.7,1.7-4.4c1.7-0.8,3.7,0,4.5,1.7c0.8,1.7,0.1,3.7-1.6,4.4l-0.1,0C452.7,341.9,452.4,342,452.2,342z M379.3,354.6
			c-0.3,0.1-0.6,0.1-0.9,0c0,0-0.1,0-0.1,0c-1.8-0.2-3.2-1.8-3.1-3.6c0.2-1.8,1.8-3.2,3.6-3.1c1.8,0.2,3.3,1.8,3.1,3.6
			C381.8,353.1,380.7,354.3,379.3,354.6z M460.6,337.9c-1.4,0.3-2.9-0.4-3.6-1.7c-0.9-1.6-0.3-3.6,1.3-4.5l0.2-0.1
			c1.6-0.9,3.7-0.2,4.5,1.4c0.9,1.6,0.2,3.7-1.4,4.5l-1.6-3l1.5,3C461.2,337.7,460.9,337.8,460.6,337.9z M370,353.5
			c-0.3,0.1-0.7,0.1-1.1,0l-0.2,0c-1.8-0.3-3.1-2-2.8-3.8c0.3-1.8,2-3.1,3.8-2.8c1.8,0.3,3.1,2,2.9,3.8
			C372.5,352.1,371.3,353.3,370,353.5z M468.7,333.3c-1.3,0.2-2.7-0.3-3.5-1.5c-1-1.6-0.5-3.6,1-4.6c0,0,0.1-0.1,0.1-0.1
			c1.6-1,3.7-0.5,4.6,1.1c1,1.6,0.5,3.7-1.1,4.6l-1.7-2.9l1.7,2.9C469.5,333,469.1,333.2,468.7,333.3z M360.7,351.9
			c-0.4,0.1-0.9,0.1-1.3,0l-0.1,0c-1.8-0.4-3-2.2-2.5-4c0.4-1.8,2.2-3,4-2.5c1.8,0.4,3,2.2,2.6,4C363.1,350.6,362,351.6,360.7,351.9
			z M476.5,328.1c-1.2,0.2-2.6-0.2-3.4-1.3c-1.1-1.5-0.7-3.6,0.8-4.7c0,0,0.1-0.1,0.1-0.1c1.5-1.1,3.6-0.7,4.7,0.8
			c1.1,1.5,0.7,3.6-0.8,4.7l-1.9-2.8l1.9,2.8C477.4,327.9,477,328.1,476.5,328.1z M351.6,349.6c-0.5,0.1-1,0.1-1.5-0.1l-0.1,0
			c-1.8-0.5-2.8-2.4-2.3-4.2c0.5-1.8,2.4-2.8,4.2-2.3c1.8,0.5,2.9,2.4,2.4,4.1C353.9,348.5,352.9,349.4,351.6,349.6z M484,322.5
			c-1.2,0.2-2.4-0.2-3.2-1.2c-1.2-1.4-0.9-3.6,0.5-4.7c1.4-1.2,3.6-1,4.8,0.5c1.2,1.4,1,3.5-0.5,4.7l-0.1,0.1
			C485,322.2,484.5,322.4,484,322.5z M342.7,346.8c-0.5,0.1-1.1,0.1-1.7-0.1c0,0-0.1,0-0.1,0c-1.7-0.6-2.6-2.6-2-4.3
			c0.6-1.7,2.6-2.6,4.3-2c1.7,0.6,2.7,2.6,2.1,4.3C344.8,345.8,343.8,346.6,342.7,346.8z M491,316.4c-1.1,0.2-2.3-0.1-3.1-1
			c-1.3-1.4-1.2-3.5,0.2-4.7c1.4-1.3,3.5-1.2,4.8,0.2c1.3,1.4,1.2,3.5-0.2,4.7l-0.1,0.1C492.2,316,491.6,316.3,491,316.4z
			 M334,343.4c-0.6,0.1-1.3,0.1-1.9-0.2c0,0-0.1,0-0.1,0c-1.7-0.7-2.5-2.7-1.7-4.4c0.7-1.7,2.7-2.5,4.4-1.7c1.7,0.7,2.5,2.7,1.8,4.4
			C336,342.5,335,343.2,334,343.4z M497.7,309.8c-1,0.2-2.1-0.1-2.9-0.8c-1.3-1.3-1.4-3.3-0.2-4.7c0,0,0.1-0.1,0.1-0.1
			c1.3-1.3,3.4-1.4,4.8-0.1c1.3,1.3,1.4,3.4,0.1,4.7c0,0,0,0,0,0C499.1,309.4,498.4,309.7,497.7,309.8z M325.5,339.5
			c-0.7,0.1-1.4,0-2.1-0.3l-0.1,0c-1.7-0.8-2.3-2.9-1.5-4.5c0.8-1.7,2.9-2.3,4.5-1.5c1.7,0.8,2.4,2.9,1.5,4.5
			C327.4,338.6,326.5,339.3,325.5,339.5z M504,302.9c-1,0.2-2-0.1-2.8-0.8c-1.4-1.2-1.6-3.3-0.3-4.7c1.2-1.4,3.3-1.6,4.7-0.4
			c1.4,1.2,1.6,3.3,0.4,4.7c0,0-0.1,0.1-0.1,0.1C505.4,302.4,504.7,302.8,504,302.9z M317.3,335c-0.8,0.1-1.6,0-2.3-0.4l-0.1,0
			c-1.6-0.9-2.2-3-1.2-4.6c0.9-1.6,3-2.2,4.6-1.2l0.1,0c1.6,0.9,2.1,3,1.2,4.6C319,334.3,318.2,334.8,317.3,335z M509.8,295.6
			c-0.9,0.2-1.8,0-2.6-0.6c-1.5-1.1-1.8-3.2-0.7-4.7c0,0,0.1-0.1,0.1-0.1c1.1-1.5,3.2-1.8,4.7-0.7c1.5,1.1,1.8,3.2,0.7,4.7l-2.7-2
			l2.7,2.1C511.4,295,510.6,295.5,509.8,295.6z M309.3,330.1c-0.8,0.2-1.7,0-2.5-0.5l1.9-2.8l-1.9,2.7c-1.5-1-2-3.1-0.9-4.7
			c1-1.5,3.1-2,4.7-0.9l0.1,0.1c1.5,1,2,3.1,0.9,4.7C311,329.4,310.2,329.9,309.3,330.1z M515.2,287.9c-0.8,0.2-1.7,0-2.4-0.5
			c-1.5-1-2-3-1.1-4.6l0.1-0.2c1-1.5,3.1-2,4.7-0.9c1.5,1,2,3.1,0.9,4.7l-2.8-1.9l2.8,1.9C516.8,287.2,516,287.7,515.2,287.9z
			 M301.7,324.6c-0.9,0.2-1.9,0-2.7-0.7l2.1-2.7l-2.1,2.6c-1.5-1.1-1.8-3.2-0.7-4.7c1.1-1.5,3.2-1.8,4.7-0.7c0,0,0.1,0.1,0.1,0.1
			c1.5,1.1,1.7,3.3,0.6,4.7C303.3,324,302.5,324.4,301.7,324.6z M520,279.9c-0.7,0.1-1.5,0-2.3-0.4c-1.6-0.9-2.2-2.9-1.3-4.6
			l0.1-0.1c0.9-1.6,3-2.2,4.6-1.3c1.6,0.9,2.2,3,1.3,4.6l0,0.1C521.8,279.2,520.9,279.8,520,279.9z M294.5,318.7
			c-1,0.2-2-0.1-2.8-0.8c0,0-0.1-0.1-0.1-0.1c-1.4-1.2-1.5-3.4-0.3-4.7c1.2-1.4,3.3-1.5,4.7-0.3c1.4,1.2,1.6,3.4,0.3,4.8
			C295.9,318.2,295.2,318.5,294.5,318.7z M524.3,271.6c-0.7,0.1-1.4,0-2.1-0.3c-1.7-0.8-2.3-2.9-1.5-4.5c0.8-1.7,2.8-2.4,4.5-1.6
			c1.7,0.8,2.4,2.8,1.6,4.5l-0.1,0.2C526.2,270.8,525.3,271.5,524.3,271.6z M287.6,312.3c-1,0.2-2.1-0.1-2.9-0.9
			c0,0-0.1-0.1-0.1-0.1c-1.3-1.3-1.3-3.4,0-4.8c1.3-1.3,3.4-1.3,4.8,0c1.3,1.3,1.3,3.5,0,4.8C288.9,311.9,288.3,312.2,287.6,312.3z
			 M528.1,263.1c-0.6,0.1-1.3,0.1-1.9-0.2c-1.7-0.7-2.5-2.7-1.8-4.4c0.7-1.7,2.7-2.6,4.4-1.9c1.7,0.7,2.6,2.6,1.9,4.3
			c0,0,0,0.1-0.1,0.1C530.2,262.2,529.2,262.9,528.1,263.1z M281.2,305.5c-1.1,0.2-2.3-0.1-3.1-1c0,0-0.1-0.1-0.1-0.1
			c-1.2-1.4-1.1-3.5,0.3-4.7s3.5-1.1,4.7,0.3c1.2,1.4,1.1,3.5-0.3,4.8C282.3,305.1,281.8,305.4,281.2,305.5z M531.4,254.3
			c-0.5,0.1-1.1,0.1-1.7-0.1c-1.8-0.6-2.7-2.4-2.2-4.2l0-0.1c0.6-1.8,2.5-2.7,4.3-2.1c1.8,0.6,2.7,2.5,2.1,4.3l-3.2-1.1l3.2,1.1
			C533.6,253.2,532.6,254.1,531.4,254.3z M275.2,298.4c-1.2,0.2-2.5-0.2-3.3-1.2l2.6-2.1l-2.7,2c-1.2-1.5-0.9-3.6,0.6-4.7
			c1.5-1.1,3.6-0.9,4.7,0.6c0,0,0.1,0.1,0.1,0.1c1.1,1.5,0.9,3.6-0.6,4.7C276.2,298,275.7,298.3,275.2,298.4z M534.1,245.3
			c-0.5,0.1-1,0.1-1.4,0c-1.8-0.5-2.9-2.3-2.4-4.1l0-0.2c0.5-1.8,2.3-2.8,4.1-2.4c1.8,0.5,2.8,2.3,2.4,4.1l-3.2-0.9l3.2,0.9
			C536.4,244.2,535.3,245.1,534.1,245.3z M269.7,290.8c-1.3,0.2-2.6-0.3-3.4-1.4l2.8-1.9l-2.8,1.8c-1.1-1.5-0.7-3.6,0.8-4.7
			c1.5-1.1,3.6-0.7,4.7,0.8c0,0,0.1,0.1,0.1,0.1c1,1.5,0.6,3.6-0.9,4.7C270.6,290.6,270.2,290.7,269.7,290.8z M536.2,236.2
			c-0.4,0.1-0.8,0.1-1.2,0c-1.8-0.3-3-2.1-2.7-3.9l0-0.2c0.4-1.8,2.1-3,4-2.6c1.8,0.4,3,2.1,2.6,4l-3.3-0.7l3.3,0.7
			C538.6,234.9,537.5,235.9,536.2,236.2z M264.7,282.9c-1.4,0.3-2.8-0.3-3.5-1.6l2.9-1.7l-2.9,1.7c-1-1.6-0.5-3.7,1.1-4.6
			c1.6-1,3.7-0.5,4.6,1.1c0,0,0.1,0.1,0.1,0.1c0.9,1.6,0.4,3.7-1.2,4.6C265.4,282.7,265.1,282.9,264.7,282.9z M537.7,226.9
			c-0.3,0.1-0.7,0.1-1,0c-1.8-0.2-3.1-1.9-2.9-3.7l0-0.2c0.3-1.8,2-3.1,3.8-2.9c1.8,0.3,3.1,2,2.9,3.8l-3.3-0.5l3.3,0.5
			C540.2,225.5,539.1,226.7,537.7,226.9z M260.2,274.7c-1.4,0.3-2.9-0.4-3.6-1.8l3-1.5l-3,1.5c-0.9-1.6-0.2-3.7,1.4-4.5
			c1.6-0.9,3.7-0.2,4.5,1.4c0,0,0.1,0.1,0.1,0.1c0.8,1.7,0.2,3.7-1.5,4.5C260.8,274.6,260.5,274.7,260.2,274.7z M538.6,217.6
			c-0.3,0-0.5,0.1-0.8,0.1c-1.8-0.1-3.2-1.7-3.1-3.5c0,0,0-0.2,0-0.2c0.1-1.8,1.8-3.2,3.6-3.1c1.8,0.1,3.2,1.8,3.1,3.6l-3.3-0.3
			l3.3,0.3C541.3,216.1,540.1,217.4,538.6,217.6z M256.1,266.3c-1.5,0.3-3-0.5-3.7-1.9c0,0,0-0.1,0-0.1c-0.7-1.7,0.1-3.7,1.8-4.4
			c1.7-0.7,3.7,0.1,4.4,1.8c0.7,1.7,0,3.7-1.7,4.5C256.6,266.1,256.4,266.2,256.1,266.3z M539,208.3c-0.2,0-0.5,0.1-0.7,0.1
			c-1.9,0-3.3-1.6-3.3-3.4c0-1.9,1.5-3.4,3.3-3.4c1.9,0,3.4,1.5,3.4,3.3c0,0,0,0.2,0,0.2C541.7,206.7,540.5,208,539,208.3z
			 M252.7,257.5c-1.6,0.3-3.2-0.6-3.7-2.1c0,0,0-0.1,0-0.1c-0.6-1.8,0.3-3.7,2.1-4.3c1.8-0.6,3.7,0.3,4.3,2.1c0.6,1.7-0.3,3.7-2,4.3
			C253.1,257.5,252.9,257.5,252.7,257.5z M538.7,199c-0.2,0-0.3,0-0.5,0.1c-1.9,0.1-3.4-1.4-3.5-3.2c-0.1-1.9,1.3-3.5,3.1-3.6
			c1.9-0.1,3.5,1.3,3.6,3.1c0,0,0,0.2,0,0.2C541.5,197.2,540.3,198.7,538.7,199z M249.9,248.7c-1.7,0.3-3.4-0.7-3.9-2.4l3.2-0.9
			l-3.2,0.9c-0.5-1.8,0.5-3.6,2.3-4.2c1.8-0.5,3.6,0.5,4.2,2.3l0,0.1c0.5,1.8-0.5,3.6-2.3,4.1C250.1,248.6,250,248.7,249.9,248.7z
			 M537.9,189.6c-0.1,0-0.1,0-0.2,0c-1.8,0.2-3.5-1.1-3.8-2.9c-0.2-1.8,1-3.6,2.9-3.8c1.8-0.2,3.5,1,3.8,2.9l0,0.1
			C540.8,187.7,539.6,189.3,537.9,189.6z M247.6,239.6c-1.8,0.3-3.5-0.8-3.9-2.6l3.3-0.7l-3.3,0.7c-0.4-1.8,0.7-3.6,2.5-4
			c1.8-0.4,3.6,0.7,4,2.5c0,0,0,0.1,0,0.1C250.6,237.4,249.5,239.2,247.6,239.6C247.6,239.6,247.6,239.6,247.6,239.6z M536.4,180.4
			c-1.8,0.3-3.6-0.9-3.9-2.7l0-0.1c0,0,0-0.1,0-0.1c0,0,0-0.1,0-0.1c-0.3-1.8,0.8-3.6,2.7-4c1.8-0.3,3.6,0.8,3.9,2.6l0,0.1
			c0,0,0,0.1,0,0.1c0,0,0,0.1,0,0.1l0,0.1C539.5,178.3,538.3,180.1,536.4,180.4z M245.8,230.4C245.8,230.4,245.7,230.4,245.8,230.4
			c-1.9,0.3-3.7-0.9-3.9-2.8l0-0.1c-0.3-1.8,0.9-3.6,2.8-3.8c1.8-0.3,3.6,1,3.8,2.8l0,0.1C248.8,228.4,247.6,230.1,245.8,230.4z
			 M534.3,170.9c-1.7,0.3-3.4-0.7-3.8-2.4c0,0,0-0.2,0-0.2c-0.5-1.8,0.6-3.6,2.4-4.1c1.8-0.4,3.6,0.6,4.1,2.4l-3.3,0.8l3.3-0.8
			c0.5,1.8-0.6,3.6-2.4,4.1C534.5,170.9,534.4,170.9,534.3,170.9z M244.6,221.1c-0.1,0-0.2,0-0.3,0c-1.8,0.2-3.5-1.1-3.7-3l0-0.1
			c-0.2-1.8,1.2-3.5,3.1-3.6c1.8-0.2,3.5,1.2,3.6,3.1C247.5,219.2,246.3,220.8,244.6,221.1z M531.7,161.9c-1.6,0.3-3.2-0.6-3.8-2.2
			c0,0-0.1-0.2-0.1-0.2c-0.6-1.8,0.4-3.7,2.2-4.2c1.8-0.5,3.7,0.4,4.2,2.2l-3.2,1l3.2-1c0.6,1.8-0.4,3.7-2.1,4.2
			C532,161.9,531.9,161.9,531.7,161.9z M244.1,211.8c-0.2,0-0.4,0.1-0.5,0.1c-1.9,0-3.4-1.4-3.4-3.3l3.4-0.1l-3.4,0
			c-0.1-1.9,1.4-3.4,3.2-3.5c1.9-0.1,3.4,1.4,3.5,3.2c0,0,0,0.1,0,0.1C246.8,210.1,245.7,211.5,244.1,211.8z M528.6,153.1
			c-1.5,0.3-3.1-0.5-3.7-2c0,0-0.1-0.1-0.1-0.2c-0.7-1.7,0.2-3.7,1.9-4.3c1.7-0.7,3.7,0.2,4.3,1.9l-3.1,1.2l3.1-1.2
			c0.7,1.7-0.2,3.7-1.9,4.4C529,153,528.8,153.1,528.6,153.1z M244.1,202.4c-0.2,0-0.5,0.1-0.7,0.1c-1.9-0.1-3.3-1.6-3.2-3.4l0-0.1
			c0.1-1.9,1.6-3.3,3.5-3.2c1.9,0.1,3.3,1.6,3.2,3.5C246.8,200.8,245.6,202.1,244.1,202.4z M524.8,144.6c-1.5,0.3-3-0.5-3.7-1.9
			c-0.8-1.7-0.1-3.7,1.6-4.5c1.7-0.8,3.7-0.1,4.5,1.6c0,0,0.1,0.1,0.1,0.2c0.8,1.7,0,3.7-1.7,4.4
			C525.4,144.4,525.1,144.5,524.8,144.6z M244.7,193.1c-0.3,0.1-0.6,0.1-1,0c-1.8-0.2-3.2-1.8-3-3.7l3.3,0.3l-3.3-0.4
			c0.2-1.8,1.8-3.2,3.7-3c1.8,0.2,3.2,1.8,3,3.7c0,0,0,0.1,0,0.1C247.3,191.7,246.1,192.9,244.7,193.1z M520.6,136.2
			c-1.4,0.3-2.9-0.4-3.6-1.7c-0.9-1.6-0.3-3.7,1.3-4.6c1.6-0.9,3.6-0.3,4.5,1.3c0,0,0.1,0.1,0.1,0.2c0.9,1.6,0.3,3.7-1.4,4.5
			C521.2,136.1,520.9,136.2,520.6,136.2z M245.9,183.8c-0.4,0.1-0.7,0.1-1.1,0c-1.8-0.3-3.1-2-2.8-3.8l0-0.1c0.3-1.8,2-3.1,3.9-2.8
			c1.8,0.3,3.1,2,2.8,3.9C248.4,182.5,247.3,183.6,245.9,183.8z M515.8,128.2c-1.3,0.3-2.7-0.3-3.5-1.6c-1-1.6-0.6-3.6,1-4.6
			c1.5-1,3.6-0.6,4.7,1c0,0,0.1,0.1,0.1,0.2c1,1.6,0.5,3.7-1.1,4.6C516.6,128,516.2,128.1,515.8,128.2z M247.7,174.6
			c-0.4,0.1-0.9,0.1-1.3,0c-1.8-0.4-3-2.2-2.6-4l0-0.2c0.4-1.8,2.3-2.9,4.1-2.5c1.8,0.4,2.9,2.3,2.5,4.1
			C250.1,173.4,249,174.4,247.7,174.6z M510.5,120.5c-1.3,0.2-2.6-0.3-3.4-1.4c-1.1-1.5-0.8-3.6,0.7-4.7c1.5-1.1,3.6-0.8,4.7,0.7
			c0,0,0.1,0.1,0.1,0.2c1.1,1.5,0.7,3.6-0.8,4.7C511.4,120.2,511,120.4,510.5,120.5z M250.1,165.6c-0.5,0.1-1,0.1-1.6-0.1
			c-1.8-0.5-2.8-2.4-2.3-4.2l0-0.2c0.6-1.8,2.4-2.8,4.2-2.2c1.8,0.6,2.8,2.4,2.2,4.2C252.3,164.5,251.3,165.4,250.1,165.6z
			 M504.8,113.1c-1.2,0.2-2.4-0.2-3.2-1.2c-1.2-1.4-1-3.5,0.4-4.7c1.4-1.2,3.5-1,4.7,0.4c0,0,0.1,0.1,0.1,0.2
			c1.2,1.4,0.9,3.6-0.5,4.7C505.8,112.8,505.3,113,504.8,113.1z M253,156.7c-0.6,0.1-1.2,0.1-1.7-0.1c-1.7-0.6-2.7-2.5-2-4.3l0-0.1
			c0.6-1.7,2.6-2.6,4.3-2c1.7,0.6,2.6,2.6,2,4.3C255.2,155.7,254.2,156.5,253,156.7z M498.5,106.1c-1.1,0.2-2.2-0.1-3-0.9
			c0,0-0.1-0.1-0.1-0.1c-1.3-1.4-1.2-3.5,0.2-4.7c1.4-1.3,3.5-1.2,4.7,0.2l-2.5,2.3l2.5-2.3c1.3,1.3,1.2,3.5-0.1,4.7
			C499.7,105.7,499.2,106,498.5,106.1z M256.6,148c-0.7,0.1-1.3,0.1-2-0.2c-1.7-0.8-2.4-2.7-1.7-4.4l3.1,1.4l-3.1-1.4
			c0.7-1.7,2.7-2.5,4.4-1.8c1.7,0.7,2.5,2.7,1.8,4.4l-0.1,0.1C258.6,147.2,257.6,147.8,256.6,148z M491.9,99.6c-1,0.2-2-0.1-2.8-0.8
			c0,0-0.1-0.1-0.1-0.1c-1.3-1.3-1.4-3.4-0.1-4.7c1.3-1.3,3.4-1.4,4.7-0.1l-2.3,2.4l2.3-2.4c1.3,1.3,1.5,3.4,0.2,4.7
			C493.2,99.1,492.6,99.4,491.9,99.6z M260.6,139.5c-0.7,0.1-1.5,0-2.1-0.3c-1.6-0.9-2.3-2.8-1.5-4.5c0,0,0.1-0.1,0.1-0.1
			c0.9-1.6,2.9-2.3,4.5-1.4c1.6,0.9,2.3,2.9,1.4,4.5C262.5,138.7,261.6,139.4,260.6,139.5z M484.9,93.4c-0.9,0.2-1.9,0-2.7-0.7
			c-1.4-1.2-1.7-3.3-0.5-4.8c1.2-1.4,3.2-1.7,4.7-0.5l0.1,0.1c1.4,1.2,1.7,3.3,0.5,4.7C486.3,92.9,485.6,93.3,484.9,93.4z
			 M265.2,131.4c-0.8,0.1-1.6,0-2.3-0.4c-1.6-1-2.1-3-1.2-4.6c0,0,0.1-0.1,0.1-0.1c1-1.6,3-2.1,4.6-1.1c1.6,1,2.1,3,1.1,4.6
			C267,130.7,266.1,131.2,265.2,131.4z M477.4,87.7c-0.9,0.2-1.8,0-2.6-0.6c-1.5-1.1-1.9-3.2-0.8-4.7c1.1-1.5,3.2-1.9,4.7-0.8
			l0.2,0.1c1.5,1.1,1.8,3.2,0.7,4.7C479,87.2,478.2,87.6,477.4,87.7z M270.3,123.6c-0.9,0.2-1.8,0-2.5-0.5c-1.5-1.1-1.9-3.2-0.8-4.7
			l0,0c1-1.5,3.1-1.9,4.7-0.9c1.5,1,1.9,3.1,0.9,4.7l-0.1,0.1C271.9,123,271.1,123.4,270.3,123.6z M469.6,82.5
			c-0.8,0.2-1.7,0-2.4-0.5c-1.6-1-2.1-3.1-1.1-4.6c1-1.6,3-2.1,4.6-1.1c0,0,0.1,0.1,0.1,0.1c1.6,1,2,3.1,1,4.6
			C471.3,81.9,470.5,82.4,469.6,82.5z M275.9,116c-0.9,0.2-1.9,0-2.7-0.7c-1.4-1.1-1.7-3.2-0.6-4.7c0,0,0.1-0.1,0.1-0.1
			c1.2-1.4,3.3-1.7,4.7-0.5c1.4,1.2,1.7,3.3,0.5,4.7C277.4,115.5,276.7,115.9,275.9,116z M461.5,77.8c-0.7,0.1-1.5,0-2.2-0.3
			c0,0-0.1-0.1-0.1-0.1c-1.6-0.9-2.2-2.9-1.3-4.6c0.9-1.6,2.9-2.2,4.6-1.3l-1.6,2.9l1.7-2.9c1.6,0.9,2.3,2.9,1.4,4.5
			C463.4,77,462.5,77.6,461.5,77.8z M281.9,108.9c-1,0.2-2.1-0.1-2.9-0.8c-1.4-1.2-1.5-3.4-0.2-4.7l2.5,2.3l-2.5-2.3
			c1.2-1.4,3.3-1.5,4.7-0.3c1.4,1.2,1.5,3.4,0.3,4.7c0,0-0.1,0.1-0.1,0.1C283.3,108.4,282.6,108.8,281.9,108.9z M453.2,73.6
			c-0.7,0.1-1.4,0.1-2-0.3c-1.7-0.8-2.4-2.8-1.7-4.5c0.8-1.7,2.7-2.4,4.4-1.6c0,0,0.1,0,0.1,0c1.7,0.8,2.4,2.8,1.6,4.5
			C455.1,72.8,454.2,73.4,453.2,73.6z M288.4,102.1c-1.1,0.2-2.2-0.1-3-0.9c-1.3-1.3-1.3-3.4,0-4.7c0,0,0.1-0.1,0.1-0.1
			c1.3-1.3,3.5-1.3,4.7,0.1c1.3,1.3,1.3,3.5-0.1,4.7C289.7,101.7,289,102,288.4,102.1z M444.6,70c-0.6,0.1-1.2,0.1-1.8-0.2
			c-1.7-0.7-2.6-2.6-2-4.4c0.7-1.7,2.6-2.6,4.3-1.9l0.1,0c1.7,0.7,2.6,2.6,1.9,4.3C446.6,69,445.7,69.8,444.6,70z M295.2,95.8
			c-1.1,0.2-2.4-0.2-3.2-1.1c-1.2-1.4-1-3.5,0.4-4.7l2.2,2.5l-2.1-2.6c1.4-1.2,3.5-1.1,4.7,0.3c1.2,1.4,1.1,3.5-0.3,4.7
			c0,0-0.1,0.1-0.1,0.1C296.3,95.5,295.8,95.7,295.2,95.8z M435.7,66.9c-0.5,0.1-1.1,0.1-1.7-0.1c-1.8-0.6-2.8-2.5-2.2-4.2
			c0.6-1.8,2.4-2.7,4.2-2.2c0,0,0.1,0,0.1,0c1.8,0.6,2.7,2.5,2.1,4.2C437.9,65.8,436.9,66.7,435.7,66.9z M302.5,90
			c-1.2,0.2-2.5-0.2-3.3-1.3c-1.1-1.5-0.8-3.6,0.7-4.7l2,2.7l-2-2.7c1.5-1.1,3.6-0.9,4.7,0.6c1.1,1.5,0.9,3.6-0.6,4.7
			c0,0-0.1,0.1-0.1,0.1C303.5,89.7,303,89.9,302.5,90z M426.7,64.4c-0.5,0.1-1,0.1-1.5,0c-1.8-0.5-2.9-2.3-2.5-4.1
			c0.4-1.8,2.2-2.9,4-2.5c0,0,0.1,0,0.1,0c1.8,0.5,2.9,2.3,2.4,4.1C429,63.2,428,64.1,426.7,64.4z M310.1,84.6
			c-1.3,0.2-2.7-0.3-3.4-1.5c-1-1.6-0.6-3.6,1-4.6l1.8,2.8l-1.8-2.8c1.5-1,3.6-0.6,4.7,0.9c1,1.5,0.6,3.6-0.9,4.6
			c0,0-0.1,0.1-0.1,0.1C311,84.3,310.6,84.5,310.1,84.6z M417.6,62.4c-0.4,0.1-0.8,0.1-1.2,0c-1.8-0.3-3.1-2.1-2.8-3.9
			c0.3-1.8,2-3.1,3.9-2.7l0.1,0c1.8,0.3,3,2.1,2.7,3.9C420,61.1,418.9,62.2,417.6,62.4z M318.1,79.7c-1.4,0.3-2.8-0.4-3.5-1.6
			c-0.9-1.6-0.4-3.7,1.3-4.6l1.7,2.9l-1.6-3c1.6-0.9,3.7-0.4,4.6,1.2c0.9,1.6,0.4,3.7-1.2,4.6c0,0-0.1,0.1-0.1,0.1
			C318.8,79.5,318.4,79.6,318.1,79.7z M408.3,61c-0.3,0.1-0.7,0.1-1.1,0c-1.8-0.2-3.2-1.9-3-3.7c0.2-1.8,1.8-3.2,3.7-3l0.2,0
			c1.8,0.2,3.1,1.9,2.9,3.8C410.8,59.7,409.7,60.8,408.3,61z M326.3,75.3c-1.5,0.3-3-0.4-3.6-1.8c-0.8-1.7-0.1-3.7,1.6-4.5l1.5,3
			l-1.4-3c1.7-0.8,3.7-0.2,4.5,1.5c0.8,1.7,0.2,3.7-1.5,4.5c0,0-0.1,0.1-0.1,0.1C326.9,75.1,326.6,75.2,326.3,75.3z M399,60.3
			c-0.3,0-0.5,0.1-0.8,0.1c-1.9-0.1-3.3-1.7-3.2-3.5c0.1-1.9,1.6-3.3,3.5-3.2l0.1,0c1.9,0.1,3.3,1.7,3.2,3.5
			C401.6,58.7,400.4,60,399,60.3z M334.9,71.4c-1.5,0.3-3.1-0.5-3.7-2c-0.7-1.7,0.1-3.7,1.8-4.4l1.3,3.1L333,65
			c1.7-0.7,3.7,0.1,4.4,1.8c0.7,1.7-0.1,3.7-1.8,4.4c0,0-0.1,0-0.1,0C335.3,71.3,335.1,71.4,334.9,71.4z M389.6,60.1
			c-0.2,0-0.4,0.1-0.6,0.1l-0.1,0c-1.9,0-3.4-1.5-3.4-3.3c0-1.9,1.5-3.4,3.3-3.4l0.1,0c1.9,0,3.4,1.4,3.4,3.3
			C392.4,58.4,391.2,59.8,389.6,60.1z M343.7,68.1c-1.6,0.3-3.3-0.6-3.8-2.2c-0.6-1.7,0.3-3.6,2-4.2c0,0,0.1,0,0.1,0
			c1.8-0.6,3.7,0.4,4.2,2.1c0.6,1.8-0.4,3.7-2.1,4.2C344,68,343.8,68,343.7,68.1z M380.3,60.5c-0.1,0-0.3,0-0.4,0.1
			c-1.8,0.2-3.5-1.2-3.6-3.1s1.2-3.5,3-3.6l0.1,0c1.9-0.1,3.5,1.3,3.6,3.1C383.1,58.7,381.9,60.2,380.3,60.5z M352.6,65.4
			c-1.7,0.3-3.4-0.7-3.9-2.4c-0.5-1.8,0.6-3.6,2.4-4.1l0.9,3.2l-0.8-3.3c1.8-0.5,3.6,0.5,4.1,2.3c0.5,1.8-0.5,3.6-2.3,4.1
			c0,0-0.1,0-0.1,0C352.7,65.3,352.6,65.3,352.6,65.4z M371,61.6c0,0-0.1,0-0.1,0c-1.8,0.3-3.6-1-3.8-2.8c-0.3-1.8,1-3.5,2.8-3.8
			l0.1,0c1.8-0.3,3.5,1,3.8,2.8C373.9,59.6,372.7,61.2,371,61.6z M361.7,63.2c-1.8,0.3-3.5-0.8-3.9-2.6c-0.4-1.8,0.8-3.6,2.6-4
			l0.7,3.3l-0.6-3.3c1.8-0.4,3.6,0.8,4,2.6c0.4,1.8-0.7,3.6-2.6,4C361.8,63.1,361.7,63.2,361.7,63.2
			C361.7,63.2,361.7,63.2,361.7,63.2z"/>
		<g class="mandala-inner">
			
				<use xlink:href="#Feather"  width="78" height="77.7" id="XMLID_31_" x="-39" y="-25.1" transform="matrix(0.7748 0.3588 0.3588 -0.7748 427.1975 119.9985)" style="overflow:visible;"/>
			
				<use xlink:href="#Feather"  width="78" height="77.7" id="XMLID_30_" x="-39" y="-25.1" transform="matrix(0.8123 -0.2629 -0.2629 -0.8123 357.4034 116.8889)" style="overflow:visible;"/>
			
				<use xlink:href="#Feather"  width="78" height="77.7" id="XMLID_29_" x="-39" y="-25.1" transform="matrix(0.3902 -0.7594 -0.7594 -0.3902 307.6925 168.9379)" style="overflow:visible;"/>
			
				<use xlink:href="#Feather"  width="78" height="77.7" id="XMLID_28_" x="-39" y="-25.1" transform="matrix(-0.26 -0.8133 -0.8133 0.26 306.5611 237.5298)" style="overflow:visible;"/>
			
				<use xlink:href="#Feather"  width="78" height="77.7" id="XMLID_27_" x="-39" y="-25.1" transform="matrix(-0.7581 -0.3927 -0.3927 0.7581 355.1397 287.4021)" style="overflow:visible;"/>
			
				<use xlink:href="#Feather"  width="78" height="77.7" id="XMLID_26_" x="-39" y="-25.1" transform="matrix(-0.8142 0.2571 0.2571 0.8142 425.4009 288.8045)" style="overflow:visible;"/>
			
				<use xlink:href="#Feather"  width="78" height="77.7" id="XMLID_25_" x="-39" y="-25.1" transform="matrix(-0.3953 0.7568 0.7568 0.3953 475.7672 240.0302)" style="overflow:visible;"/>
			
				<use xlink:href="#Feather"  width="78" height="77.7" id="XMLID_22_" x="-39" y="-25.1" transform="matrix(0.2543 0.8151 0.8151 -0.2543 475.774 169.767)" style="overflow:visible;"/>
		</g>
		<g class="mandala-outer">
			
				<use xlink:href="#Feather"  width="78" height="77.7" id="XMLID_2_" x="-39" y="-25.1" transform="matrix(0.5421 0.2185 0.2185 -0.5421 458.838 53.4554)" style="overflow:visible;"/>
			
				<use xlink:href="#Feather"  width="78" height="77.7" id="XMLID_9_" x="-39" y="-25.1" transform="matrix(0.5407 -0.2218 -0.2218 -0.5407 323.3235 49.5477)" style="overflow:visible;"/>
			
				<use xlink:href="#Feather"  width="78" height="77.7" id="XMLID_8_" x="-39" y="-25.1" transform="matrix(0.2267 -0.5387 -0.5387 -0.2267 238.6611 133.2062)" style="overflow:visible;"/>
			
				<use xlink:href="#Feather"  width="78" height="77.7" id="XMLID_7_" x="-39" y="-25.1" transform="matrix(-0.2199 -0.5415 -0.5415 0.2199 237.9933 268.7246)" style="overflow:visible;"/>
			
				<use xlink:href="#Feather"  width="78" height="77.7" id="XMLID_6_" x="-39" y="-25.1" transform="matrix(-0.538 -0.2285 -0.2285 0.538 321.3139 353.7777)" style="overflow:visible;"/>
			
				<use xlink:href="#Feather"  width="78" height="77.7" id="XMLID_5_" x="-39" y="-25.1" transform="matrix(-0.5423 0.2181 0.2181 0.5423 456.7523 354.8036)" style="overflow:visible;"/>
			
				<use xlink:href="#Feather"  width="78" height="77.7" id="XMLID_4_" x="-39" y="-25.1" transform="matrix(-0.2302 0.5372 0.5372 0.2302 542.2305 271.8531)" style="overflow:visible;"/>
			
				<use xlink:href="#Feather"  width="78" height="77.7" id="XMLID_3_" x="-39" y="-25.1" transform="matrix(0.2162 0.543 0.543 -0.2162 543.6829 136.4215)" style="overflow:visible;"/>
			
				<use xlink:href="#Feather"  width="78" height="77.7" id="XMLID_1_" x="-39" y="-25.1" transform="matrix(0.5421 0.2185 0.2185 -0.5421 458.838 53.4554)" style="overflow:visible;"/>
		</g>
		<g class="mandala-outer">
			
				<use xlink:href="#jewel"  width="10" height="20" x="-5" y="-10" transform="matrix(1 0 0 -1 242.9406 199.6682)" style="overflow:visible;"/>
			
				<use xlink:href="#jewel"  width="10" height="20" x="-5" y="-10" transform="matrix(1 0 0 -1 538.9406 199.6682)" style="overflow:visible;"/>
			
				<use xlink:href="#jewel"  width="10" height="20" x="-5" y="-10" transform="matrix(0 1 1 0 390.9406 55.6685)" style="overflow:visible;"/>
			
				<use xlink:href="#jewel"  width="10" height="20" x="-5" y="-10" transform="matrix(0 1 1 0 390.9406 351.6685)" style="overflow:visible;"/>
			
				<use xlink:href="#jewel"  width="10" height="20" x="-5" y="-10" transform="matrix(0.7071 0.7071 0.7071 -0.7071 289.1174 96.1881)" style="overflow:visible;"/>
			
				<use xlink:href="#jewel"  width="10" height="20" x="-5" y="-10" transform="matrix(0.7071 0.7071 0.7071 -0.7071 498.421 305.4917)" style="overflow:visible;"/>
			
				<use xlink:href="#jewel"  width="10" height="20" x="-5" y="-10" transform="matrix(-0.7071 0.7071 0.7071 0.7071 495.5924 99.0167)" style="overflow:visible;"/>
			
				<use xlink:href="#jewel"  width="10" height="20" x="-5" y="-10" transform="matrix(-0.7071 0.7071 0.7071 0.7071 286.2888 308.3203)" style="overflow:visible;"/>
		</g>
	</g>
</g>
<g id="Kitters">
	<g id="Kitters_1_">
		<path id="Fur_2_" class="st2" d="M479.3,194.2c-9.4,1.6-17.8-5.4-19.5-13.9c2.1-4.3-1.6-11.5-1.6-11.5s0,0,0.3-2.1
			c12-33.7-7.1-39.9-16-40.1c-8.9-0.2-26.9,23.3-32.7,26.4c-3.3-0.8-19.6-1.8-20-1.8v0c0,0,0,0,0,0c0,0,0,0,0,0v0
			c-0.4,0-16.7,1.1-20,1.8c-5.8-3.1-23.9-26.6-32.7-26.4c-8.9,0.2-28,6.4-16,40.1c0.3,2.1,0.3,2.1,0.3,2.1s-3.6,7.1-1.6,11.5
			c-1.7,8.5-10.2,15.5-19.5,13.9c-1.4,8.5,11.3,11.1,0.8,15.1c6.2,26.3,21.7,62.6,88.4,63.4l0,0c0.1,0,0.2,0,0.4,0
			c0.1,0,0.2,0,0.4,0l0,0c66.7-0.7,82.2-37.1,88.4-63.4C468,205.2,480.7,202.6,479.3,194.2z"/>
		<g id="Face_2_">
			<g>
				<path class="st1" d="M354,157.7c-1.1,0.7-2.4,1.1-3.7,1.3c-1.3,0.2-2.6,0.2-4-0.2c-0.7-0.2-1.4-0.4-2.1-0.8
					c-0.4-0.2-0.7-0.4-1.1-0.7c-0.3-0.3-0.5-0.4-0.8-0.6c-1-0.8-1.8-1.7-2.6-2.5c-1.5-1.7-2.8-3.5-3.8-5.2c-0.5-0.8-1.1-1.7-1.7-2.5
					c-0.6-0.9-1.3-1.7-2.4-2.7c1.2-0.7,2.7-0.8,4.1-0.6c1.4,0.2,2.7,0.7,3.9,1.4c1.2,0.7,2.2,1.6,3,2.4c0.9,0.8,1.6,1.7,2.3,2.6
					c0.7,0.9,1.4,1.7,1.9,2.5c0.1,0.2,0.3,0.4,0.4,0.6c0,0.1,0.1,0.2,0.2,0.4c0.2,0.2,0.5,0.6,0.8,0.9c0.7,0.6,1.5,1.2,2.5,1.8
					L354,157.7z"/>
			</g>
			<g>
				<path class="st1" d="M329.6,151.2c0.7-1,1.9-1.4,3.2-1.5c1.2-0.1,2.4,0.3,3.5,0.8c1.1,0.5,2,1.3,2.8,2c0.7,0.7,1.3,1.5,1.8,2.2
					c0.5,0.7,0.9,1.3,1.2,1.9l1.1,1.8c0.8,1.2,1.7,2.6,3.2,4.4c-2,1.1-4.4,1-6.5,0.1c-1-0.4-2-1.1-2.8-1.8c-0.8-0.7-1.5-1.5-2-2.3
					c-1.1-1.5-1.7-2.8-2.2-3.9c-0.3-0.6-0.7-1.2-1.1-1.8c-0.2-0.3-0.5-0.6-0.8-0.9C330.5,151.7,330.1,151.5,329.6,151.2z"/>
			</g>
			<g>
				<path class="st1" d="M330,157.9c0.8-0.7,1.8-0.9,2.8-0.9c1,0,1.9,0.2,2.7,0.6c1.6,0.7,2.8,1.6,3.6,2.4c0.4,0.4,0.7,0.7,1.1,1.1
					c0.3,0.4,0.7,0.8,1,1.2c0.8,0.9,1.6,1.9,3,3.4c-1.4,1.5-3.3,1.9-5.1,1.8c-0.9-0.1-1.8-0.3-2.6-0.7c-0.8-0.4-1.6-0.9-2.2-1.5
					c-1.2-1.1-1.9-2.2-2.4-3.3c-0.3-0.6-0.5-1.1-0.7-1.8C330.9,159.5,330.6,158.8,330,157.9z"/>
			</g>
			<path class="st3" d="M369.7,152.7c-5.8-3.1-24-26.3-32.9-26.2c-9.7,0.1-28.1,7.4-15.4,42.1c0,0-8.2-29.3,3.1-35.6
				c9.2-5.1,23.4,15.5,24.6,18.5c1.2,3,4.9,9.1,11.5,8.5C367.2,159.5,369.7,152.7,369.7,152.7z"/>
			<path class="st3" d="M350.3,158.1c-3.6,0.7-7.7,0.8-10.5-1.6c-1.5,3.3-0.2,7.6,2.9,9.6c-4.4,1.4-9.2,1-13.3-1
				c-0.9,3.1-1.1,7.7,1.8,9.2c-4.9-1.1-13.8,2.6-20.4,0.2c0.7,7.6,12.8,12.4,15.9,12c-0.5-1.2,3.9-7.4,12.2-9.4
				c1.7-0.4-0.1-5.9,4.6-7.5c1.6-0.6,3.8-0.5,4.2-2.2c0.2-1-0.3-2.2,0.2-3c0.3-0.5,0.8-0.7,1.3-0.9c2.6-1,9.4-2.7,12-3.5
				c2.5-0.8,1.4-0.9,2.5-3.4C359.2,156.8,354.8,157.3,350.3,158.1z"/>
			<g>
				<path class="st3" d="M369.3,222.9c-0.8-1.8-1.3-3.9-0.7-5.8c0.6-2.2,2.4-4.1,2-6.3c0.5,1.2,0.7,2.6,0.6,3.9
					c-0.1,1.4-0.6,2.9-0.4,4.3c0.3,2,1.8,3.6,3.2,5.1c1,1.1,4.6,6.2,1.3,5.2C372.7,228.6,370.3,225.1,369.3,222.9z"/>
				<path class="st3" d="M361.4,179.9c2.7,2.5,3.6,0.5,4.6-1.1c1.7,7,6.1,13.2,8.6,10.7c2.2,2.7,2.2,6.4,2.3,9.9
					c0.1,3.4,0.8,7.3,3.7,9.3c-1.8-3.1-0.9-7-0.6-10.5c0.5-6.5-1.9-12.9-5.9-18.1c-1.2-1.6-2.7,0.8-2.7,0.8c-1.5-2.4-3-4.9-4.4-7.4
					c-0.6-1-1.7-1.2-2.7-0.5c-0.9,0.7-1.9,1-2.9,0.4c-0.5-0.3-0.8-0.9-1-1.4c-0.7-2.2-0.7-4.4-0.6-6.6
					C354.2,172.3,360.7,179.3,361.4,179.9z"/>
				<path class="st3" d="M372.4,168.4c1.8-0.9,3.6-1.7,5.5-2.3c-2.6,3.1-3,7.8-0.9,11.2c0.6-0.9,1.2-1.9,1.8-2.8
					c0.3,2,0.7,4.1,1.8,5.9s2.9,3.2,4.9,3.3c-0.9-3.3-1.1-6.8-0.5-10.1c0.3-1.9,0.9-3.7,1.1-5.6c0-0.4,0-0.8-0.1-1.1
					c-0.3-0.7-1.2-1-2-0.9s-1.4,0.6-2.1,1.1c-0.5-1.1,0-2.5,0.5-3.6c0.5-1.1,1.1-2.3,1-3.5c-0.6-4.1-4.4-0.3-5.5,1
					C375.6,163.1,373.8,165.7,372.4,168.4z"/>
				<path class="st3" d="M374,213.4c1.2,2.6,3.9,4.3,4.9,7c0.6,1.8,0.2,3.8-0.1,5.7c-0.1,0.4-0.1,0.9,0.2,1.1
					c0.5,0.4,1.1-0.5,1.2-1.1c0.2-1.1,0.5-2.2,0.7-3.2c0.3-1.4,0.6-2.7,0.4-4.1c-0.5-4.7-6.2-7.9-6-12.7c0-0.8,0.2-1.5,0.1-2.3
					c-0.1-0.6-0.5-1.1-1.1-1.2C373.3,204.2,373.1,211.3,374,213.4z"/>
			</g>
			<g>
				<path class="st3" d="M362,223.1c-1.2-0.9-2.3-1.8-3.5-2.7c-0.1-0.1-0.2-0.2-0.4-0.1c-0.1,0-0.2,0.2-0.2,0.3
					c-0.6,1.4-0.5,3,0.2,4.3c0.7,1.3,1.9,2.4,3.4,2.7c0.7,0.2,1.4,0.2,2.1,0.4c0.7,0.2,1.3,0.5,1.8,1
					C366.6,226.8,363.4,224.2,362,223.1z"/>
				<path class="st3" d="M350.7,224.9c-1.5-0.9-3.4-1.1-4.6-2.4c-0.2,2.4,1.5,4.7,3.7,5.5c0.5,0.2,1.1,0.3,1.6,0.5
					c0.8,0.2,1.6,0.5,2.4,0.6C353.1,227.3,352.4,225.9,350.7,224.9z"/>
				<path class="st3" d="M326.9,207.1c-0.3-0.8-1-1.9-1.7-1.4c-0.4,0.2-0.4,0.7-0.5,1.1c-0.1,1.2-0.1,2.4-0.1,3.6
					c-1.5-0.3-2.7-1.5-3.5-2.9c-0.8-1.3-1.2-2.9-1.7-4.3c-0.1-0.3-0.4-0.7-0.7-0.6c-0.2,0.1-0.3,0.2-0.3,0.4
					c-1.3,3.1-1.5,6.6-0.4,9.8c1.1,3.2,3.4,5.9,6.3,7.5c0-0.8,0-1.6,0-2.4c1.5,1.6,3.2,3,5.1,4c0.1-1,0.2-2,0.3-2.9
					c-0.1,1.5,7.2,3.3,8.3,3.3c-1.1-2.3-4.6-4.3-6.3-6.4C329.6,213.3,327.9,210.3,326.9,207.1z"/>
				<path class="st3" d="M315.4,220.7c-0.2-0.1-0.4-0.2-0.6-0.1c-0.6,0.3,0,1.3-0.4,1.8c-0.3,0.4-0.9,0.1-1.3-0.1
					c-1-0.6-2-1.2-3-1.8c-0.2,3.5,2.5,6.9,6,7.5c0.7,0.1,1.7-0.1,1.8-0.8c0-0.1,0-0.3,0.1-0.4c0.1-0.3,0.5-0.2,0.8-0.1
					c2.2,0.6,7.3,0.1,3.1-1.9C319.5,223.7,317.7,221.8,315.4,220.7z"/>
				<path class="st3" d="M319.8,197.2c0.1,0.5,0.1,1,0.5,1.3c0.3,0.3,0.9,0.4,1.2,0.1c0.2-0.3,0.2-0.9,0.6-0.9
					c0.3,0,0.5,0.2,0.6,0.4c1.1,1.5,2.3,3,3.8,4.2c0.3,0.3,0.6,0.5,1,0.6s0.8,0,1-0.4c0.2-0.4,0.1-0.8-0.1-1.2
					c-0.8-1.9-2.1-3.7-2.5-5.8c-0.2-0.8-0.3-1.6-0.8-2.3c-0.5-0.6-1.6-0.9-2.1-0.2c0.9-1.3-1.2-4.1-2.7-2.9
					C318.9,191.3,319.6,195.7,319.8,197.2z"/>
			</g>
			<g>
				<path class="st1" d="M425.5,157.7l3.1-2c0.9-0.6,1.8-1.2,2.5-1.8c0.4-0.3,0.6-0.6,0.8-0.9c0.1-0.1,0.2-0.3,0.2-0.4
					c0.1-0.1,0.3-0.4,0.4-0.6c0.6-0.8,1.2-1.7,1.9-2.5c0.7-0.9,1.5-1.7,2.3-2.6c0.8-0.8,1.8-1.7,3-2.4c1.1-0.7,2.5-1.2,3.9-1.4
					c1.4-0.2,2.9-0.1,4.1,0.6c-1,1-1.7,1.8-2.4,2.7c-0.6,0.8-1.1,1.7-1.7,2.5c-1,1.6-2.3,3.4-3.8,5.2c-0.8,0.9-1.6,1.7-2.6,2.5
					c-0.3,0.2-0.5,0.4-0.8,0.6c-0.4,0.3-0.7,0.5-1.1,0.7c-0.7,0.4-1.4,0.6-2.1,0.8c-1.4,0.3-2.7,0.3-4,0.2
					C428,158.8,426.7,158.4,425.5,157.7z"/>
			</g>
			<g>
				<path class="st1" d="M449.9,151.2c-0.5,0.3-0.9,0.6-1.3,0.9c-0.3,0.3-0.6,0.6-0.8,0.9c-0.5,0.6-0.8,1.2-1.1,1.8
					c-0.6,1.1-1.2,2.4-2.2,3.9c-0.5,0.7-1.2,1.5-2,2.3c-0.8,0.8-1.8,1.4-2.8,1.8c-2.1,0.8-4.4,1-6.5-0.1c1.4-1.8,2.4-3.1,3.2-4.4
					l1.1-1.8c0.4-0.6,0.8-1.2,1.2-1.9c0.5-0.7,1.1-1.4,1.8-2.2c0.7-0.7,1.7-1.5,2.8-2c1.1-0.5,2.3-0.8,3.5-0.8
					C448,149.7,449.3,150.2,449.9,151.2z"/>
			</g>
			<g>
				<path class="st1" d="M449.5,157.9c-0.6,0.9-0.9,1.6-1.1,2.2c-0.3,0.6-0.5,1.2-0.7,1.8c-0.5,1.1-1.2,2.2-2.4,3.3
					c-0.6,0.5-1.3,1.1-2.2,1.5c-0.8,0.4-1.7,0.7-2.6,0.7c-1.8,0.2-3.7-0.3-5.1-1.8c1.3-1.5,2.2-2.5,3-3.4c0.4-0.4,0.7-0.8,1-1.2
					c0.3-0.4,0.6-0.7,1.1-1.1c0.8-0.7,2-1.7,3.6-2.4c0.8-0.3,1.7-0.6,2.7-0.6C447.7,157.1,448.7,157.3,449.5,157.9z"/>
			</g>
			<path class="st3" d="M409.9,152.7c5.8-3.1,24-26.3,32.9-26.2c9.7,0.1,28.1,7.4,15.4,42.1c0,0,8.2-29.3-3.1-35.6
				c-9.2-5.1-23.4,15.5-24.6,18.5c-1.2,3-4.9,9.1-11.5,8.5C412.4,159.5,409.9,152.7,409.9,152.7z"/>
			<path class="st3" d="M429.2,158.1c3.6,0.7,7.7,0.8,10.5-1.6c1.5,3.3,0.2,7.6-2.9,9.6c4.4,1.4,9.2,1,13.3-1
				c0.9,3.1,1.1,7.7-1.8,9.2c4.9-1.1,13.8,2.6,20.4,0.2c-0.7,7.6-12.8,12.4-15.9,12c0.5-1.2-3.9-7.4-12.2-9.4
				c-1.7-0.4,0.1-5.9-4.6-7.5c-1.6-0.6-3.8-0.5-4.2-2.2c-0.2-1,0.3-2.2-0.2-3c-0.3-0.5-0.8-0.7-1.3-0.9c-2.6-1-9.4-2.7-12-3.5
				c-2.5-0.8-1.4-0.9-2.5-3.4C420.4,156.8,424.8,157.3,429.2,158.1z"/>
			<g>
				<path class="st3" d="M410.3,222.9c0.8-1.8,1.3-3.9,0.7-5.8c-0.6-2.2-2.4-4.1-2-6.3c-0.5,1.2-0.7,2.6-0.6,3.9
					c0.1,1.4,0.6,2.9,0.4,4.3c-0.3,2-1.8,3.6-3.2,5.1c-1,1.1-4.6,6.2-1.3,5.2C406.9,228.6,409.3,225.1,410.3,222.9z"/>
				<path class="st3" d="M418.2,179.9c-2.7,2.5-3.6,0.5-4.6-1.1c-1.7,7-6.1,13.2-8.6,10.7c-2.2,2.7-2.2,6.4-2.3,9.9
					c-0.1,3.4-0.8,7.3-3.7,9.3c1.8-3.1,0.9-7,0.6-10.5c-0.5-6.5,1.9-12.9,5.9-18.1c1.2-1.6,2.7,0.8,2.7,0.8c1.5-2.4,3-4.9,4.4-7.4
					c0.6-1,1.7-1.2,2.7-0.5c0.9,0.7,1.9,1,2.9,0.4c0.5-0.3,0.8-0.9,1-1.4c0.7-2.2,0.7-4.4,0.6-6.6
					C425.3,172.3,418.9,179.3,418.2,179.9z"/>
				<path class="st3" d="M407.2,168.4c-1.8-0.9-3.6-1.7-5.5-2.3c2.6,3.1,3,7.8,0.9,11.2c-0.6-0.9-1.2-1.9-1.8-2.8
					c-0.3,2-0.7,4.1-1.8,5.9c-1,1.8-2.9,3.2-4.9,3.3c0.9-3.3,1.1-6.8,0.5-10.1c-0.3-1.9-0.9-3.7-1.1-5.6c0-0.4,0-0.8,0.1-1.1
					c0.3-0.7,1.2-1,2-0.9s1.4,0.6,2.1,1.1c0.5-1.1,0-2.5-0.5-3.6c-0.5-1.1-1.1-2.3-1-3.5c0.6-4.1,4.4-0.3,5.5,1
					C403.9,163.1,405.7,165.7,407.2,168.4z"/>
				<path class="st3" d="M405.5,213.4c-1.2,2.6-3.9,4.3-4.9,7c-0.6,1.8-0.2,3.8,0.1,5.7c0.1,0.4,0.1,0.9-0.2,1.1
					c-0.5,0.4-1.1-0.5-1.2-1.1c-0.2-1.1-0.5-2.2-0.7-3.2c-0.3-1.4-0.6-2.7-0.4-4.1c0.5-4.7,6.2-7.9,6-12.7c0-0.8-0.2-1.5-0.1-2.3
					c0.1-0.6,0.5-1.1,1.1-1.2C406.2,204.2,406.4,211.3,405.5,213.4z"/>
			</g>
			<path class="st4" d="M389.4,230.4L389.4,230.4c-3.3-1.2-15-5-16.5-0.4c0,2,3.2,4.9,5.3,5.4c0.6-1-1.1-1.8-0.3-2.4
				c1.3-0.9,4,0.2,4.3,3.4c0.1,0.8,7.2,2.6,7.2,2.6v0c0,0,7.1-1.8,7.2-2.6c0.3-3.1,3-4.3,4.3-3.4c0.9,0.6-0.9,1.5-0.3,2.4
				c2.1-0.5,5.3-3.4,5.3-5.4C404.4,225.4,392.7,229.3,389.4,230.4z"/>
			<g>
				<path class="st3" d="M417.6,223.1c1.2-0.9,2.3-1.8,3.5-2.7c0.1-0.1,0.2-0.2,0.4-0.1c0.1,0,0.2,0.2,0.2,0.3
					c0.6,1.4,0.5,3-0.2,4.3c-0.7,1.3-1.9,2.4-3.4,2.7c-0.7,0.2-1.4,0.2-2.1,0.4c-0.7,0.2-1.3,0.5-1.8,1
					C412.9,226.8,416.1,224.2,417.6,223.1z"/>
				<path class="st3" d="M428.8,224.9c1.5-0.9,3.4-1.1,4.6-2.4c0.2,2.4-1.5,4.7-3.7,5.5c-0.5,0.2-1.1,0.3-1.6,0.5
					c-0.8,0.2-1.6,0.5-2.4,0.6C426.5,227.3,427.2,225.9,428.8,224.9z"/>
				<path class="st3" d="M452.7,207.1c0.3-0.8,1-1.9,1.7-1.4c0.4,0.2,0.4,0.7,0.5,1.1c0.1,1.2,0.1,2.4,0.1,3.6
					c1.5-0.3,2.7-1.5,3.5-2.9c0.8-1.3,1.2-2.9,1.7-4.3c0.1-0.3,0.4-0.7,0.7-0.6c0.2,0.1,0.3,0.2,0.3,0.4c1.3,3.1,1.5,6.6,0.4,9.8
					c-1.1,3.2-3.4,5.9-6.3,7.5c0-0.8,0-1.6,0-2.4c-1.5,1.6-3.2,3-5.1,4c-0.1-1-0.2-2-0.3-2.9c0.1,1.5-7.2,3.3-8.3,3.3
					c1.1-2.3,4.6-4.3,6.3-6.4C450,213.3,451.6,210.3,452.7,207.1z"/>
				<path class="st3" d="M464.2,220.7c0.2-0.1,0.4-0.2,0.6-0.1c0.6,0.3,0,1.3,0.4,1.8c0.3,0.4,0.9,0.1,1.3-0.1c1-0.6,2-1.2,3-1.8
					c0.2,3.5-2.5,6.9-6,7.5c-0.7,0.1-1.7-0.1-1.8-0.8c0-0.1,0-0.3-0.1-0.4c-0.1-0.3-0.5-0.2-0.8-0.1c-2.2,0.6-7.3,0.1-3.1-1.9
					C460.1,223.7,461.9,221.8,464.2,220.7z"/>
				<path class="st3" d="M459.8,197.2c-0.1,0.5-0.1,1-0.5,1.3c-0.3,0.3-0.9,0.4-1.2,0.1c-0.2-0.3-0.2-0.9-0.6-0.9
					c-0.3,0-0.5,0.2-0.6,0.4c-1.1,1.5-2.3,3-3.8,4.2c-0.3,0.3-0.6,0.5-1,0.6c-0.4,0.1-0.8,0-1-0.4c-0.2-0.4-0.1-0.8,0.1-1.2
					c0.8-1.9,2.1-3.7,2.5-5.8c0.2-0.8,0.3-1.6,0.8-2.3c0.5-0.6,1.6-0.9,2.1-0.2c-0.9-1.3,1.2-4.1,2.7-2.9
					C460.6,191.3,460,195.7,459.8,197.2z"/>
			</g>
		</g>
		<g id="Mouth_2_">
			<path class="st4" d="M435.3,228.8c-13,7.1-29.9,16.9-46,8.9c-16.1,8.1-32-1.8-45-8.9s-28,8.4-16.2,23.9
				c13.9,18.2,61.2,18.7,61.2,18.7s48.3-0.5,62.2-18.7C463.2,237.2,448.3,221.7,435.3,228.8z"/>
			<path class="st3" d="M431.6,233.6c-10.4,5.2-25.9,12.8-42.1,8.7c-16.2,4.1-31-3.5-41.5-8.7c-16.7-8.3-29.6,5.5-12.1,22.2
				c12,11.5,53.6,13.4,53.6,13.4s42.2-1.9,54.3-13.4C461.2,239,448.3,225.2,431.6,233.6z"/>
		</g>
		<g id="Lava_2_">
			<path class="st2" d="M429.1,234.7c-15.4,6.8-23.5,10.2-39.6,7.5c-18.7,4.2-43-9.5-43-9.5c-0.7,2.3-1.3,7.8-0.1,9.9
				c0.3,0.5,0.6,0.9,1,1.3c-0.9,5-1.8,9.9-2.7,14.9c-1,5.5-0.7,10.2,2.1,15.5c2.2,4.1,5.5,7.3,7.8,11.3c0.9,1.6,2.8,5.6,3.3,7.4
				c0.4,3.7-1.1,5.4-0.8,9.3c0.5,7.3,1.8,15.8,10,17.6c0.4,0.2-2.5,1.8-2.1,2c1,0.4-0.1,14.1,0,15.8c0.2,3.1,3.9,6.6,6.7,8.3
				c3.1,1.9,18.2,6.4,18.2,6.4s22.9-4.4,26.2-8.1c11.2-12.3,2.8-22.1,3.9-34.1c0-0.3,0-0.6,0-0.9c0.4-2.4,0.5-4.9,0.5-7.2
				c0-1-0.1-2-0.1-3.1c0.4-2.9,0.8-5.8,1.1-8.7c5.2-2.8,7.4-8.9,4.7-15.2c-4-9.1-5.8-14.8,2.2-27.8c1.8-2.9-0.8-3.6-1-6.9
				C429.3,238.5,431.8,233.5,429.1,234.7z"/>
			<path class="st2" d="M414.6,317.5c-0.5-5.3-0.1-7.8-0.2-9.5c-0.1-1.7-1.2-1.8-2.3-2.8c-0.4-0.9-1.1-1.7-2-2.3
				c-1-1.1-2.3-1.8-3.8-2.1c-1.1-1.5-3-2.6-4.8-2.4c-0.5,0.1-1,0.1-1.5,0.3c-0.1-0.1-0.1-0.3-0.2-0.4c-1.3-3.2-4.8-4.9-8.1-3.9
				c-0.2,0-0.3,0.1-0.5,0.2c-2.5-2.5-6.8-1.7-9,1c-2.3-1.6-6-1.5-7.8,0.6c-1,1.2-1.8,2.4-2.5,3.7c-1-0.9-2.1-1.7-3.2-2.5
				c-2.7-1.8-6.6-0.5-8.2,2.1c-1,1.8-1,3.7-0.3,5.3c0,0-0.1,0-0.1,0c-3.8-0.4-7.7,2.9-6.6,7.4c1.3,5.1,7,8.8,12.2,6.7
				c0.4-0.2,0.8-0.5,1.2-0.7c0,0,0,0,0,0c0,0.6,0.1,1.2,0.3,1.9c0.2,0.5,0.4,0.9,0.6,1.3c-2.4-0.6-4.8,3.4-2.2,4.4
				c1.5,0.6,2.9,1,4.4,1.6c1.5,0.6,3.6,1.4,5.3,1.5c0.9,0.1,1.3-0.9,1.6-1.7c0.5,0.2,1,0.4,1.5,0.6c1.8,0.7,3.5,0.2,4.8-0.7
				c0.3,0,0.6,0,0.9-0.1c0.1,0.1,0.3,0.1,0.5,0.1c1.8,0.5,4,0,5.5-1.2c0.9,0.4,1.9,0.6,2.9,0.6c0.7,0.3,1.4,0.4,2.2,0.4
				c0.7,0.3,1.5,0.5,2.2,0.5c0.1,0,0.2,0.1,0.3,0.1c0,0,0.1,0.1,0.1,0.1c1,0.9,2.2,1.4,3.6,1.4c0.3,0.2,0.6,0.3,1.1,0.4
				c0.7,0.1,0.9,0,1.6-0.2c2.2-0.7,6.8-2.2,8.9-3c1.5-0.5-0.2-1.6-0.7-2.8c0.3-0.5,0.6-1,0.7-1.7c0.3-1.5,0.5-2.9,0.7-4.4
				C414.2,316.7,414.7,318.4,414.6,317.5z"/>
			<path class="st2" d="M353.4,298.4c0-2.2-0.2-13.9-4.1-13.4c-1.1,0.2-1.7,1.3-2.1,2.3c-1.3,3.2-11,25.1,1.5,20.4
				C352.4,306.4,353.3,301.8,353.4,298.4z"/>
			<path class="st2" d="M422.3,313.2c-0.1-1.1-0.3-2.2-0.6-3.2c-0.7-3.6-3.8-6.6-8-6.3c-1.6,0.1-2.9,1.3-2.9,2.9
				c0,1.4,1.2,2.9,2.7,3c0.1,0.3,0.3,0.6,0.5,0.8c-0.5,2.9-1,6.4-0.3,9.3c0.8,3,4.3,4.1,6.5,1.9
				C422.3,319.5,422.6,315.9,422.3,313.2z"/>
		</g>
		<g id="Red_hot_2_">
			<path class="st4" d="M347.6,254.1c0,0-6.5,12.2,5.9,27c12.4,14.8,5.2,15,5.2,15s2.4-5-5.8-14.5
				C344.8,272.1,343.6,262.4,347.6,254.1z"/>
			<path class="st4" d="M357.9,303.5c0,0,4.1,1.5,4.6-3c0.5-4.5-0.3-8.6,2.6-9.8c0,0-2.5,2.6-1.9,9.8
				C363.9,307.6,358.3,306.2,357.9,303.5z"/>
			<path class="st4" d="M422.3,258c0,0-2.9,4.1,1.2,13.2c4.1,9.2,2.5,11.2,2.5,11.2s-1.5-1.8-2.6-1.6c0,0,1.7-4.4-1.2-9.3
				c-2.9-4.9-2.1-12.6-0.4-15.3L422.3,258z"/>
			<path class="st4" d="M410.5,295c0,0-0.6,7.8,4.3,9.1C414.9,304.1,409.8,305.1,410.5,295z"/>
			<path class="st4" d="M414.9,301.8c0,0-1.2-6.4,2.4-9.8c0,0-3,0.8-4-1.1c0,0,0.2,2.4,2,2.3C415.3,293.1,412.8,296.6,414.9,301.8z"
				/>
			<path class="st4" d="M419.1,282.2c0,0-8.7,7.4-4,9C418.7,292.4,419.1,282.2,419.1,282.2z"/>
			<path class="st4" d="M418.8,269.2c0,0-1.2-2.1-2-3c-1.2-1.4-1.5-4.8,0.3-6.8c0,0-1.8,3.4,0.4,6.6
				C419.3,268.5,418.8,269.2,418.8,269.2z"/>
			<path class="st4" d="M414.6,253.9c0,0-3.8,6.7,2.2,13.5c4.3,4.8,2.6,13.8,2.6,13.8s-3.1,2-5.4,5.4c0.7-2,5.5-13.9,2.1-18.6
				C409.8,261,414.6,253.9,414.6,253.9z"/>
			<path class="st4" d="M413.1,271.7c0,0-4.1,9.4-0.6,16.8c0,0,0.6-0.7,0.5-0.9C412.9,287.3,409.9,282.9,413.1,271.7z"/>
			<path class="st4" d="M419.2,286.9c0,0,0.1,2.8-1,4c0,0,7.3-4.8,7.4-8.1l-0.5-0.5c0,0,0.2,2.9-4.5,5.8
				C420.5,288.2,420,287.4,419.2,286.9z"/>
			<path class="st4" d="M360.7,295.9c0,0-2.3,5.2-0.6,6.6c0,0-1.4,0.6-2.1,0.1c0,0-0.5-1.2,0.5-5.6
				C358.5,297,359.3,297.2,360.7,295.9z"/>
			<path class="st4" d="M360.5,290.1c0,0,0.7-3,2.4-6.5c2.7-5.4,0.9-11.3,0.9-11.3s0.4,7.1-1.5,10.6c-1.8,3.3-3.3,4.6-3.3,4.6
				S359.7,288.7,360.5,290.1z"/>
			<g>
				<path class="st2" d="M429.5,283c0,0,1.9-4.3,0.5-6.5s-0.1-6.7-0.1-6.7s-0.1,4.2,1.2,5.8c1.3,1.5,3.6-2.7,3.6-2.7
					S436.3,278,429.5,283z"/>
				<path class="st2" d="M430.7,267.1c0,0,0.7-5.4,3.3-6.2C434,260.9,434,266.3,430.7,267.1z"/>
				<path class="st2" d="M436.7,276.4c0,0,2.4-3.9,5.4-2.9C442.1,273.5,440.3,276.5,436.7,276.4z"/>
				<circle class="st2" cx="438" cy="268.6" r="0.7"/>
				<circle class="st2" cx="433.8" cy="252.8" r="0.8"/>
				<circle class="st2" cx="433.9" cy="283.6" r="0.5"/>
			</g>
			<path class="st4" d="M365,265.9c0,0,2.7,10.8-1.3,19.3c0,0,3.3-8.8,0-17.3C363.7,267.9,364.7,267.1,365,265.9z"/>
			<path class="st4" d="M362.1,268.6c0,0-4.3,3.3-8.2-3.4c0,0,2.4,8.7,8.8,4.9L362.1,268.6z"/>
			<path class="st4" d="M347.2,265.9c0,0,0.7,5.8,3.6,9.6c2.9,3.7,5.1-1.1,0.1-4.8C347.6,268.3,347.2,265.9,347.2,265.9z"/>
			<path class="st4" d="M347.3,259.7c0,0,3.3-0.7,5.3,1c0,0-0.6,4.6,2.3,9.1c2.9,4.5,1.6,6.8,1.6,6.8s-0.1-4.1-2.8-6.3
				S347,263.9,347.3,259.7z"/>
			<path class="st4" d="M358.6,286.5l-4.5-5.9c0,0,4.9,5.4,7.4,2.4C361.5,283,360,286,358.6,286.5z"/>
			<path class="st4" d="M362.8,270.7l0.6,1.2c0,0,0.4,5.5-0.5,7.3c0,0,0.6-5.1-1.1-8L362.8,270.7z"/>
			<path class="st4" d="M372.1,272.3c0,0,10,12.8,4.3,23.7c0,0,3.7-11.2-5.6-18.6C370.8,277.4,370.8,274.3,372.1,272.3z"/>
			<path class="st4" d="M378.7,263.5c0.1-0.2-3.9,2.2-5.9,8.4c0,0,4.3,3.9,4.9,7.8C377.7,279.8,374.9,268.9,378.7,263.5z"/>
			<path class="st4" d="M379.4,266c0,0-2,12.8,5.3,11.9c0,0-5.2,5-5.3,12.5C379.4,290.4,375.4,266,379.4,266z"/>
			<path class="st4" d="M383.5,263.3c0,0,5.5-0.7,4.7,6.1c-0.5,4.3-2.3,6.2-2.3,6.2S388.8,266,383.5,263.3z"/>
			<path class="st4" d="M401.3,256.8c0,0-4.2,16.8,0,24.5c4.2,7.7,3.9,17.6-4.2,18.4c0,0,8.1,6.5,12,2.6c0,0-3.2-10.2,1.2-13.8
				c0,0-3.5-17,2.5-21.3c0,0-5.7-12.4,0.2-19.2c0,0-11.7,5.9-8,18.7c0,0,3.5,11.2-0.2,13.5c0,0,1.5-5.1-1.8-13.7
				C400.7,260.3,401.3,256.8,401.3,256.8z"/>
			<path class="st4" d="M388.3,293.7c0,0,3.5,6.7,11.8,3.3c0,0-7.1-0.2-5.1-9.3c0,0-5.8,1.6-7.8-0.2
				C387.1,287.5,386.6,290.9,388.3,293.7z"/>
			<path class="st4" d="M394.6,286.9c0,0-4.9,1.6-7.6-0.2c0,0-0.5-6.2,2.8-13.5c0,0-2.3,9-1.5,12.2
				C388.3,285.5,390.7,287.5,394.6,286.9z"/>
			<path class="st4" d="M382.2,289.3c0,0,0.1,9.5,12.4,11.5l-0.2,6.8l-1.5-6.1c0,0-3.8,2.2-9.2,0.7v4.2l-1.8-4.4
				C381.8,301.9,378.8,295.6,382.2,289.3z"/>
			<polygon class="st4" points="396.5,302.6 396.8,310.8 397.8,303.8 			"/>
			<path class="st4" d="M399.2,304.3c0,0,6.8,2.3,9.3,1.2c0,0-3.9,3-9.7,1L399.2,304.3z"/>
			<path class="st4" d="M391.8,302.8l-0.9,0.2c0,0,3,10,0.6,13.7C391.5,316.7,394.4,316.1,391.8,302.8z"/>
			<path class="st4" d="M384.5,303.4c0,0-0.3,9.4-0.1,11.9l1.5,0.4c0,0-0.3-9.6,0.3-12.1L384.5,303.4z"/>
			<path class="st4" d="M388,304.7c0,0-1.6,10-0.1,11.2c1.5,1.2,3.8-0.9,2-5.4S388,304.7,388,304.7z"/>
			<path class="st4" d="M389.1,304.4c0,0,1.2,4.2,1.7,4.6c0.4,0.4-0.7-5.2-0.7-5.2L389.1,304.4z"/>
			<path class="st4" d="M398.7,308.2c0,0-2.8,8,0,9.2l2.7-0.8c0,0-2.4-4.8-1.1-8L398.7,308.2z"/>
			<path class="st4" d="M395.2,308.4c0,0,0,7.8-1.1,8.6c0,0,2.2,0.7,2.3,1.4l1.1-1C397.5,317.4,395.6,315.9,395.2,308.4z"/>
			<path class="st4" d="M401.2,308.8c0,0-1.9,3.8,2,7.6l0.9-0.1C404.1,316.3,400.8,313.9,401.2,308.8z"/>
			<path class="st4" d="M402.3,308.5c0,0-0.8,4.3,2.2,6.7c0,0-2.8-4.4,0-7.4L402.3,308.5z"/>
			<path class="st4" d="M408,317.8c0,0-10.4-2.6-13.3,5.2c-1.8,3.5,3.8,7.8,5.3,3.8c0,0-6.1-0.1-3.2-4.1
				C399.6,318.6,408,317.8,408,317.8z"/>
			<path class="st4" d="M401.1,326.7c0,0,6.9-0.8,8.2-3.4c0,0,1.7-1.4,0.8-4.2c0,0,3.9,3.8,2.7,7.5c-0.1,0.3-17.5,6-17.5,6
				c-0.8-0.7-1.2-2.1-0.2-4.7C395.1,327.8,399.3,331.8,401.1,326.7z"/>
			<path class="st4" d="M420,320.8c0,0-4.1,1-7.5-1.2c0,0,2.7,4.2,1.5,6.4l6.8-2.2C420.9,323.8,420.4,321.2,420,320.8z"/>
			<path class="st4" d="M409.6,305.7c0,0-3,1.9-4.4,2c0,0-2.3,5.8,1.2,8.3s0.9,0.1,0.9,0.1s1.7,0.8,2.2,1.2
				C409.5,317.4,404.3,312,409.6,305.7z"/>
			<path class="st4" d="M409,312c0,0-0.2,8.3,10.9,8.1c0,0,0.9-0.4,1.1-1.9C421,318.2,412.2,320.8,409,312z"/>
			<path class="st4" d="M354.7,310.9c0,0,8.6,7.3,16.3,0.8c0,0-1.2,5-4.9,6.6C366.1,318.3,356.5,320.7,354.7,310.9z"/>
			<path class="st4" d="M376.1,298.3c0,0-3.9,7.5-2.5,11.5s1.9,16-1.2,18.4l-5.3-2c0,0,4.7-3.4,2.1-7.4c0,0,2.8-3.2,3.1-8.1
				C372.2,310.7,370.6,305.3,376.1,298.3z"/>
			<path class="st4" d="M366,291.1c0,0,0.5,13.3,9.8,5.8c0,0-2,5.6-6.9,5.5C364,302.3,363.2,292.2,366,291.1z"/>
			<path class="st4" d="M376.2,291.8c0,0,0.2,5.5-3.9,6c0,0,1.2-1.3-0.5-5.9L376.2,291.8z"/>
			<path class="st4" d="M371.7,290.9l4.5-0.1c0,0,0.5-5.8-2.8-9.1C373.3,281.8,368.3,279.1,371.7,290.9z"/>
			<path class="st4" d="M384.4,316.8c0,0,10.9,0.8,10.8,3.8c0,0-1.8,1.2-1.8,3.8c0,0-0.5,7.2-5.7,6.9c0,0,4.8-0.8,4.2-8.5
				c0,0-2-2.1-6.9-0.7L384.4,316.8z"/>
			<path class="st4" d="M379.8,299.2c0,0,4.6,11.5,3.7,24c0,0,0.1,7.1-0.9,8.4l-1.8-0.6C380.8,331,384.9,323.8,379.8,299.2z"/>
			<path class="st4" d="M374.9,310.7c0,0,2.3,1.4,3.8,0.5l0.2,2.2c0,0-2.6-0.1-3.9-0.8L374.9,310.7z"/>
			<path class="st4" d="M379.1,314.4c0,0,2.5,7.3-0.8,13.8C378.3,328.2,379.8,320.8,379.1,314.4z"/>
			<path class="st4" d="M376.6,318.7c0,0-0.6,7.9-2.8,9.1c0,0,2.6-1.4,2.8-4.1l0.2,4.9C376.8,328.6,378.8,321.5,376.6,318.7z"/>
			<path class="st4" d="M378.4,314.5c0,0,0.4,3.9-0.1,5.9c0,0-0.9-3.5-3.2-6.8C375.2,313.7,377,314.7,378.4,314.5z"/>
			<path class="st4" d="M375.9,326.8c0,0-1.5,1.3-2.4,1.7c0,0,0,0.1,0,0.1l2.7,0.7C376.2,329.4,376.2,327.9,375.9,326.8z"/>
			<path class="st4" d="M377.9,330c0,0,2-3.1,2.4-6.1c0,0,0.3,5.1-1.1,6.6L377.9,330z"/>
			<path class="st4" d="M419.5,306.5l-3.2-1.4c0,0-1.4-6.6-0.2-8.1c0,0,0.2,6.2,3.4,6.2L419.5,306.5z"/>
			<path class="st4" d="M371.6,302.8c0,0-1.5,5-1,7.1c0,0-0.4-3.2-4.1-4.4l0.6-2.6C367.1,302.9,370.5,303.8,371.6,302.8z"/>
			<path class="st4" d="M351.8,295c0,0,1.8,7.2-1.8,9.8c-3.6,2.6-4.6,0.6-4.6,0.6S351.3,303.9,351.8,295z"/>
			<path class="st4" d="M349.5,287.2c0,0,1.9,4.2,1.7,7c-0.1,2-0.5,5.8-3.6,7.9c0,0,4.7-5.5,1.8-9.4
				C347.9,290.4,348,285,349.5,287.2z"/>
			<path class="st4" d="M412.8,335.9c0,0-2,4.1-1.8,6.9l-3.9,1.2l-0.7-6L412.8,335.9z"/>
			<path class="st4" d="M419,333.7l1.8,0.7c0,0-1,4.7-2.2,5.7l-2,0.7c0,0-4.2-3.7,1.8-5c0,0-0.2-1.1-1.8-1.3L419,333.7z"/>
			<path class="st4" d="M403.9,339c0,0,0.4,6.2-10.9,7.4c0,0,1.8-2.1,1.3-4.2L403.9,339z"/>
			<path class="st4" d="M384.9,342.2c0,0-0.8,3.9,1.6,6.6l-9.8-3.5c0,0,7,1,6.2-3.7L384.9,342.2z"/>
			<path class="st4" d="M393.7,342.5c0,0,0.7,4.4-5.3,5.3c0,0-3.1,0.2-3.2-3.5c0,0,2.3,6.4,6.9-1.4L393.7,342.5z"/>
			<path class="st4" d="M387.5,349.1c0,0,2.8,0.4,5.3-2.2c0,0,3,1,6,0.1l-8.9,3.1L387.5,349.1z"/>
			<path class="st4" d="M365.6,335.3c0,0-0.4,3.9,2.2,6.7l2.2,0.8c0,0-2.9-3.9-2.2-6.8L365.6,335.3z"/>
			<path class="st4" d="M368.2,336.2c0,0-0.1,3.6,1.9,5.5c0,0-1.3-3.2,0.9-3.3c0,0,2.5,3.3,3.9,0.2L368.2,336.2z"/>
			<path class="st4" d="M347.7,252.4c0.5-0.1,1,0.3,1.1,0.7c0.1,0.5,0,1-0.1,1.4c-0.3,1.2-0.5,2.4-0.8,3.6c1.6,0,3.2,0.4,4.5,1.3
				c-0.1-1.8,0.4-3.7,1.2-5.3c0.1-0.1-2.3-3.5-2.5-4c-0.4-0.9-0.8-3.6-1.8-3.9C348.5,248.1,348.4,250.6,347.7,252.4z"/>
			<path class="st4" d="M355.1,261.1c0,0.7,0,1.4,0.2,2.1c0.5,1.9,2.4,3,4.2,3.9c-0.5-1.5-1-2.9-1.6-4.4c-0.5-1.5-1.1-3.2-0.3-4.6
				c0.3-0.6,0.9-1.1,1.5-1.5c-0.8,0.6-2.7-1.2-3.7-0.1C354.7,257.3,355.1,260.1,355.1,261.1z"/>
			<path class="st4" d="M372.4,241.4c0.7,1.3,5,4.4,5.7,3.1c1.7,1.1,3.2,2.7,4.9,3.8c0.1,0.1,0.3,0.2,0.3,0.3c0,0.1,0,0.2-0.1,0.3
				c-0.9,1.6-2,3.1-3.6,4.1c-1.7,1-3.6,1.3-5.5,2c-4.1,1.5-7.5,5-8.8,9.2c0.1-1.4,0.1-2.9-0.5-4.1c-0.7-1.3-2.1-2.2-2.9-3.5
				c-0.7-1.2-0.7-2.6-0.7-3.9c0.1-2.6,0.5-5.8,2.2-7.9c1-1.2,1.7-4.8,3-4.4C368,240.9,370.8,241.5,372.4,241.4z"/>
			<path class="st2" d="M366.3,257.8c-0.8-1.3-1.3-2.8-1.5-4.3c-0.1-0.4-0.1-0.9,0.1-1.3c0.1-0.2,0.3-0.4,0.5-0.6
				c0.3-0.5,0.4-1,0.5-1.6c0.4-2.1,0.8-4.3,1.2-6.4c0.1,2,0.2,4,0.3,6c0,0.5,0.1,1,0.4,1.4c0.2,0.3,0.6,0.4,0.9,0.5
				c0.9,0.3,2.9,0.5,3.6,1.1c0.8,0.8-0.8,1-1.5,1.3c-0.9,0.5-1.8,1-2.5,1.7C368.2,255.7,366.2,257.5,366.3,257.8z"/>
			<path class="st4" d="M368,263.8c-0.1,0.2-0.2,0.4-0.2,0.6c0,0.2,0,0.5,0.1,0.7c0.2,0.5,0.3,1.1,0.5,1.6c0.2-2.7,1.9-5,4-6.8
				c1.4-1.3,3.9-2.4,4.9-4C373.8,254.8,369.2,261.4,368,263.8z"/>
			<path class="st4" d="M393.9,241.8c-0.4,0.1-1,3.4-0.8,3.7c0.2,0.5,0.5,1,0.7,1.6c0.2,0.5,0.6,1.1,1.1,1.1c1,0,1.1-1.7,2.1-2
				c0.3,2.1-0.9,4.2-2.4,5.7c-1.5,1.5-3.4,2.6-4.9,4c-1.6,1.4-2.9,3.4-2.8,5.5c-0.4-0.7-1.4-0.7-2.1-0.6c-1.4,0.2-2.8,0.7-4.1,1.4
				c2.5-2.6,4.9-5.4,6.9-8.4c0.8-1.2,1.6-2.8,1.1-4.2c-0.4-0.2-0.9,0.2-1.2,0.6c-1.6,2.2-3.3,4.4-4.9,6.7c-0.7-0.7-1.5-1.1-2.4-1.3
				c3.6-2.3,5-6.6,6.1-10.5c0.8,0.1,0.9-3.6,1.8-3.7C389.3,241.5,392.6,242.2,393.9,241.8z"/>
			<path class="st4" d="M397.3,250.9c-1,1.6-2.4,2.8-3.8,4.1c-1.3,1.3-2.6,2.8-3.1,4.6c0.9-1.2,2.2-2.1,3.6-2.7
				c1.1-0.4,2.2-0.6,3.2-1.3c0.6-0.5,1.1-1.1,1.6-1.8c1.4-1.9,2.7-3.7,4.1-5.6c0.5-0.7,1.1-1.6,1-2.5c-0.1-0.8-0.6-1.4-1.1-2
				c-0.3-0.4-0.8-0.8-1.3-0.7c-0.3,0-0.5,0.2-0.7,0.4c-0.9,0.8-2.3,1.6-2.6,2.9C397.9,248.1,398.3,249.3,397.3,250.9z"/>
			<path class="st4" d="M396.8,272.7c0.1,0.3,0.2,0.7,0.1,1c-0.1,0.3-0.4,0.6-0.7,0.6c-1-1.3-1-3-1-4.6c0-2.5,0-5,0-7.5
				c0-0.7,0-1.5-0.4-2.1c-0.3-0.5-0.8-1-0.5-1.5c0.1-0.2,0.4-0.3,0.6-0.3c0.9-0.3,3.3-1.5,3.7-0.1c0.2,0.9-1.4,3.7-1.6,4.7
				C396.1,266,396,269.5,396.8,272.7z"/>
			<path class="st4" d="M415,244.6c0.1,0.4,0.5,0.7,0.6,1.1c0.3,0.6,0.2,1.3,0,1.9c-0.3,0.6-0.7,1.1-1,1.6c-1,1.5-1.7,3.1-2.2,4.8
				c0.8-1.5,2-2.7,3.5-3.7c0,2-0.1,3.9-0.1,5.9c0.3-1.8,1.6-3.3,2.9-4.5c0.4-0.4,0.8-0.7,1.1-1.2c0.2-0.4,0.2-0.9,0.2-1.4
				c0-1.2-0.2-2.4-0.6-3.5c-0.3-0.9-1.1-2.5-2.1-2.8C416.3,242.6,414.7,243.5,415,244.6z"/>
		</g>
		<g id="Teeth_shads_2_">
			<path class="st0" d="M366,240.4c0,0-4,10.3-3.5,14.7c0.5,4.3-4.2-1.9-4.2-1.9l2.1-14.2L366,240.4z"/>
			<path class="st0" d="M348,238.1c0,0-5.3,5.5-8.6,5.2c-3.4-0.3-0.2-3-0.2-3l6.2-4.5L348,238.1z"/>
			<path class="st0" d="M374.3,248.6c0.2,0.2,1.5,0.6,1.5,0.6l2.8-5.6l-1.9-1.8L374.3,248.6z"/>
			<path class="st0" d="M377.5,244.1c0,0,5.8,5,7.1,4.5s3.4-6.2,3.4-6.2l-6.7,0L377.5,244.1z"/>
			<path class="st0" d="M392.6,244.6c0,0.2,0.3,3.9,1.7,3.9s7.1-5.1,6.8-5.1C400.7,243.3,392.6,244.6,392.6,244.6z"/>
			<path class="st0" d="M402.1,243.8l1.2,4.5c0,0,0.3,2.1,1.4,1.3c1-0.7,2.5-3.7,2.4-5.1c0-0.2,0-0.3-0.1-0.4
				C406.7,243,402.1,243.8,402.1,243.8z"/>
			<path class="st0" d="M413.9,240.7c0,0,1.9,3.3,3,4.5c1.1,1.2,1.9,7.2,1.7,7.9c-0.2,0.7,1.3,2.5,2.5,0.5l-2.3-14.4L413.9,240.7z"
				/>
			<path class="st0" d="M429.9,236.7c0,0,4.2,5.3,5.8,5.7c1.6,0.4,6.9,1.2,6.9,1.2s1.3-1.1,0.1-2.5c-1.2-1.4-9.8-6.5-9.8-6.5
				L429.9,236.7z"/>
		</g>
		<g id="Teeth_2_">
			<path class="st5" d="M353.7,248.7c0.7,1.6,1.4,3.2,2.4,4.5c0.6,0.7,1.3,1.3,2,1.6c0.7,0.4,1.6-0.2,1.6-1.2
				c0.2-2.7,0.5-5.5,1.4-7.9c0.4-1.1,3.5-5.1,2.7-6c-0.8-0.9-4.8-2.4-5.8-2.8c-1.6-0.7-3.2-1.3-4.8-1.7c-1.8-0.4-2.3-0.9-2.7,1.3
				C349.9,240.2,352.4,245.6,353.7,248.7z"/>
			<path class="st5" d="M336.1,242.4c2.3-0.2,4.5-0.8,6.6-1.7c0.6-0.3,1.2-0.7,1.7-1.1c1.2-1,4-3.9,4.5-5.3c0.4-1-1.3-0.7-1.7-1.7
				c-0.3-0.7-0.8-1.3-1.4-1.7c-3.7-2.4-5-2.1-6.4,1.9c-0.4,1.1-2.2,6.1-3.9,8.5C335.2,241.8,335.5,242.5,336.1,242.4z"/>
			<path class="st5" d="M373.7,248.3c0.3,0.3,0.7,0.5,1.1,0.4c0.4-0.1,0.6-0.5,0.8-0.9c0.8-1.7,1.7-3,2.5-4.8c1.6,1.6,3.2,2.7,5,4
				c0.7,0.5,1.5,0.9,2.2,0.5c0.4-0.2,0.6-0.6,0.7-1c0.7-1.6,1.3-3.3,1.7-5c0.1-0.3,0.1-0.6-0.1-0.8c-0.1-0.1-0.3-0.2-0.4-0.2
				c-1-0.2-2.1-0.1-3,0.3c-0.7,0.3-1.2,0.5-2,0.6c-1.1,0.2-2.6-0.5-3.6,0.1c-0.2,0.1-0.3,0.3-0.6,0.3c-0.2,0-0.4,0-0.6-0.1
				c-1.5-0.5-5.7-2.2-6.6-0.4C369.9,243.2,372.5,247.4,373.7,248.3z"/>
			<path class="st5" d="M425.9,248.7c-0.7,1.6-1.4,3.2-2.4,4.5c-0.6,0.7-1.3,1.3-2,1.6c-0.7,0.4-1.6-0.2-1.6-1.2
				c-0.2-2.7-0.5-5.5-1.4-7.9c-0.4-1.1-3.5-5.1-2.7-6c0.8-0.9,4.8-2.4,5.8-2.8c1.6-0.7,3.2-1.3,4.8-1.7c1.8-0.4,2.3-0.9,2.7,1.3
				C429.8,240.2,427.3,245.6,425.9,248.7z"/>
			<path class="st5" d="M443.6,242.4c-2.3-0.2-4.5-0.8-6.6-1.7c-0.6-0.3-1.2-0.7-1.7-1.1c-1.2-1-4-3.9-4.5-5.3
				c-0.4-1,1.3-0.7,1.7-1.7c0.3-0.7,0.8-1.3,1.4-1.7c3.7-2.4,5-2.1,6.4,1.9c0.4,1.1,2.2,6.1,3.9,8.5
				C444.5,241.8,444.1,242.5,443.6,242.4z"/>
			<path class="st5" d="M406,248.3c-0.3,0.3-0.7,0.5-1.1,0.4c-0.4-0.1-0.6-0.5-0.8-0.9c-0.8-1.7-1.7-3-2.5-4.8c-1.6,1.6-3.2,2.7-5,4
				c-0.7,0.5-1.5,0.9-2.2,0.5c-0.4-0.2-0.6-0.6-0.7-1c-0.7-1.6-1.3-3.3-1.7-5c-0.1-0.3-0.1-0.6,0.1-0.8c0.1-0.1,0.3-0.2,0.4-0.2
				c1-0.2,2.1-0.1,3,0.3c0.7,0.3,1.2,0.5,2,0.6c1.1,0.2,2.6-0.5,3.6,0.1c0.2,0.1,0.3,0.3,0.6,0.3c0.2,0,0.4,0,0.6-0.1
				c1.5-0.5,5.7-2.2,6.6-0.4C409.7,243.2,407.1,247.4,406,248.3z"/>
		</g>
	</g>
	<g>
		<path class="st0" d="M435.9,156.8c9.4-3.7,19.5-5,29-8.5c14-5.2,25-17.7,28.5-32.2c0.2,5,0.4,9.9,0.6,14.9
			c9-7.5,12.3-19.8,19.2-29.3c8.5-11.7,21.9-18.5,34.8-25.2c3.3-1.7,6.7-3.5,8.6-6.7c-5.5,11.1-15.4,19.9-19.8,31.5
			c-2.5,6.5-3.1,13.6-4.6,20.4c-1.6,6.8-4.5,13.8-10.2,17.8c6.1-3.5,12.2-7.1,17.1-12.1c3.7-3.9,6.6-8.5,10.1-12.6s8-7.7,13.3-8.5
			c-5.8,5.5-11.7,11.4-15.1,18.6c-2.3,4.9-3.5,10.2-5.3,15.3c-4.4,12.2-13.1,22.8-24.2,29.5c-11.1,6.8-24.4,9.7-37.3,8.1
			c0.9,2.4,3.7,3.3,6.3,3.9c9.8,2,19.9,2.7,29.8,2.1c-14.6,5.2-30.7,8.6-45.3,3.5c-6.2-2.2-11.7-5.8-17.8-8.1
			c-11-4.3-23.6-4.3-34.7-0.1C419.4,178.8,426.7,160.4,435.9,156.8z"/>
		<path class="st2" d="M438.6,158.2c7.6-3,15.8-4.1,23.5-6.9c11.3-4.2,20.3-14.3,23.1-26.1c0.2,4,0.3,8.1,0.5,12.1
			c7.3-6.1,9.9-16,15.5-23.7c6.9-9.5,17.8-15,28.2-20.4c2.6-1.4,5.4-2.9,6.9-5.4c-4.5,9-12.5,16.1-16.1,25.5c-2,5.3-2.5,11-3.8,16.6
			c-1.3,5.5-3.6,11.2-8.2,14.4c4.9-2.8,9.9-5.7,13.9-9.8c3-3.1,5.3-6.9,8.2-10.2c2.9-3.3,6.5-6.2,10.8-6.9
			c-4.7,4.5-9.4,9.2-12.2,15.1c-1.9,4-2.8,8.3-4.3,12.4c-3.6,9.9-10.6,18.4-19.6,23.9s-19.8,7.8-30.2,6.6c0.7,1.9,3,2.7,5.1,3.1
			c7.9,1.7,16.1,2.2,24.2,1.7c-11.8,4.2-24.9,7-36.7,2.9c-5-1.7-9.5-4.7-14.4-6.6c-8.9-3.5-19.1-3.5-28.1-0.1
			C425.2,176,431.2,161.1,438.6,158.2z"/>
		<path class="st4" d="M430.7,171.5c7.2-11.4,21.9-15.6,42.6-16.1c20.7-0.5,30.1-26.9,32.4-34.5c0,12.4,0.5,32.5-8.6,35.2
			c13.6-1.8,17.9-4.2,21.1-9.3c-2.9,8.9-12.2,20-28.9,21.9s-12.5,0-23,2.4c1,4.4,4.7,6.4,8.8,9c-11,1.7-16.3-8.7-23.8-10.3
			C443.7,168.1,437.3,171.8,430.7,171.5z"/>
	</g>
	<g>
		<path class="st0" d="M327,151.8c-4.3-1.2-8.9-2.5-11.4-5.8c-1.8-2.3-2.2-5.3-3.2-8c-2.3-6.4-8-11.9-15.1-14.4
			c-5.6-2-11.8-2.2-17.5-4.1c-7.7-2.6-13.8-8.5-16.1-15.5c-2.3-7-0.7-14.9,4.2-20.7c-8.1,1-14,8-14.8,15.2
			c-0.8,7.2,2.6,14.3,7.3,20.3c-6.1-1.9-10.9-7-11.9-12.7c-4.7,6.8-4.4,15.4-3.2,23.4c0.6,3.7,1.3,7.4,3.2,10.7
			c1.9,3.4,5,6.2,7.9,8.9c4.7,4.3,9.4,8.7,15.1,11.8c7.1,3.9,15.4,5.7,23.7,6.7c9.5,1.2,14.4-0.2,20.5,3.4
			c-10.9-2.2-15.6,0.2-27.1-0.9c-8-0.8-16.9-2.4-22.4-7.6c0.3,7.3,6.6,16.3,14,19.7s16,4.2,24.2,3.7c5.7-0.3,11.4-1.1,16.7-2.9
			c5.1-1.6,9.8-4.1,14.9-5.5c5.3-1.5,11,1.1,16.1,3.2c3.6-4.9,5.6-15.3,0.5-20.1C346.7,155.3,334.9,154,327,151.8z"/>
		<path class="st2" d="M323.7,149c-3.7-0.7-7.7-1.5-10.2-4.3c-1.8-2-2.5-4.8-3.6-7.2c-2.6-5.9-8-10.4-14.2-12.1
			c-4.9-1.3-10.2-0.9-15.2-2.1c-6.7-1.7-12.6-6.7-15.3-13.1c-2.7-6.4-2.2-14,1.2-20c-6.7,1.7-10.9,9-10.8,16
			c0.1,6.9,3.8,13.3,8.4,18.5c-5.4-1.2-9.9-5.5-11.4-10.8c-3.2,7-2,15.1-0.1,22.5c0.9,3.4,1.9,6.9,3.9,9.8c2,3,4.9,5.4,7.7,7.7
			c4.4,3.6,8.8,7.2,14,9.6c6.4,3,13.6,3.8,20.7,3.9c8.2,0.1,12.1-1.7,17.6,1.1c-9.4-1-13.1,1.8-22.9,2c-6.8,0.1-14.5-0.6-19.7-4.9
			c1.1,6.9,7.3,14.7,13.9,17.3c6.6,2.5,13.9,2.3,20.8,1c4.8-0.9,9.5-2.3,13.8-4.5c4.1-2.1,7.8-4.9,11.9-6.8
			c4.3-1.9,9.4-0.1,13.9,1.4c2.5-5,3-15.1-1.8-19.1C340.6,150.2,330.6,150.2,323.7,149z"/>
		<path class="st4" d="M338.9,156.8c-3.5-1.7-7.5-1.9-11.4-2.1c-3.9-0.2-7.9-0.3-11.4-1.9c-8.7-4-12.4-15.9-21.7-18.3
			c-3.7-0.9-7.6-0.1-11.4-0.1c-3.8,0-8.1-1.1-9.9-4.5c-2.3,5.3,0.2,11.7,4.6,15.4c4.4,3.7,10.2,5.3,15.9,6.2
			c-2.6,1.5-5.7,1.9-8.6,1.1c-0.4,4.3,4.5,7.2,8.8,8c11.3,2.2,23.6-2,34.1,2.8c-3.4,0.4-5.2,4.1-7.4,6.6c-2.5,2.8-6.1,4.6-9.9,4.8
			c4.2,1.2,8.8,0.3,12.4-2.2c2.3-1.6,4.2-3.8,6.4-5.7c2.2-1.8,4.8-3.4,7.6-3.3c2.8,0.1,5.7,2.5,5.4,5.4c0-0.4,2-2,2.2-2.9
			c0.3-1.1,0.1-2.2-0.2-3.3C343.8,160.2,341.4,158,338.9,156.8z"/>
	</g>
</g>
<g id="Logo_2_">
	<g id="Logo">
		<g id="Logo_3_">
			<polygon class="st0" points="484.2,420.9 355.4,444.1 298,367.5 489.6,335.8 			"/>
			<path class="st0" d="M304.1,340.1c0,0-52.6,22.9-88.7,53.2c-36.1,30.3-44.4,78.4-44.4,78.4s-2.8,16.5-0.5,23.3
				c0,0,9.9-29.9,29.4-37.9c0,0-0.3,27.5,6.8,46.8c0,0,19.3-68.7,92.6-98.3c0,0,11.2-5.1,8.4-13.3c0,0,22.6-9.6,25-17l8.9,3.4
				L304.1,340.1z"/>
			<path class="st0" d="M412.7,363.7l1.7-1.3l3.7,1.8l9.3-1.3l0.3-2.2l2.6,1.6l5.5-0.5l1.4-2.8l3.7,1.4l7.7-0.4l0.4-1.3l7.1,0.6
				l1.7-1.1l14,3.4l1.6-0.4l42.2,19.5l3.4-6.9c0,0,10.2,6.8,12.1,0.6l1.4-5.9c0,0,10.4,3.1,18,2c0,0-6.3-3.4-6.9-6.6l-83.3-32.6
				L412.7,363.7z"/>
			<path class="st5" d="M505.2,348l0.4-0.8l-0.1,0.9l0,0.3l-0.5,4.8l-2.2-1l2.3-3.9L505.2,348z M454.6,341.8l4,0.3l-0.7-8
				L454.6,341.8z M451,350l-0.6,1.3l9.3,2.9l-0.5-4L451,350z M429.5,352.8l4.1,1.7l0.3-5l1.2-11.7l-4.5,11.8L429.5,352.8z
				 M419,338.2l-1.1,12.6l-0.2,2.7l5,2l-1.2-5.1L419,338.2z M362.8,341.5c-0.2-1.1-0.5-2-1-2.6c-0.4-0.7-1-1.1-1.8-1.4
				c-0.8-0.3-1.9-0.4-3.3-0.4c-0.3,0-0.7,0-1.1,0.1c-0.4,0-0.8,0.1-1.2,0.1c-0.4,0.1-0.9,0.1-1.3,0.2c-0.5,0.1-1,0.2-1.5,0.3
				l-3.5,0.7L350,359l3.9-1c2.4-0.6,4.2-1.2,5.6-1.9c1.3-0.7,2.2-1.5,2.8-2.4c0.6-0.9,0.9-2,1.1-3.4c0.1-1.2,0.1-2.7-0.1-4.9
				C363.2,343.6,363,342.5,362.8,341.5z M315.7,353.5c-0.5-1.2-1.1-2.1-1.9-2.8c-0.8-0.8-1.7-1.4-2.7-1.7c-0.9-0.3-2-0.5-3.2-0.5
				c-0.3,0-0.5,0-0.8,0c-0.3,0-0.7,0.1-1.1,0.1c-0.4,0-0.7,0.1-1.1,0.2c-0.4,0.1-0.8,0.2-1.2,0.3c-0.4,0.1-0.8,0.2-1.3,0.3
				c-2.4,0.7-4.4,1.6-6,2.7c-1.5,1-2.5,2.2-3.2,3.6c-0.7,1.3-1,2.7-1,4.3c0,1.5,0.2,3.1,0.7,5c0.4,1.5,0.8,2.8,1.4,3.9
				c0.6,1.2,1.3,2.1,2.1,2.8c0.8,0.8,1.8,1.3,2.9,1.6c1.2,0.3,2.5,0.4,4.1,0.2c0.3,0,0.7-0.1,1-0.2c0.4-0.1,0.7-0.1,1.1-0.2
				c0.4-0.1,0.8-0.2,1.2-0.3c0.4-0.1,0.8-0.2,1.2-0.4l0,0c2.3-0.8,4.2-1.7,5.6-2.8c1.3-1,2.3-2.1,2.9-3.5c0.6-1.2,0.9-2.5,1-4.1
				c0.1-1.4-0.1-3-0.5-4.8C316.6,355.8,316.2,354.5,315.7,353.5z M584.4,345.4c-0.9,1.8-8.1,10.7-42.4,10.7c-5.4,0-16.4-3-21.4-3.8
				c-0.1,0.6-0.1,1.2-0.2,1.8c-0.3,2.5-0.1,5.6-3,6.4c-2,0.6-4.1-0.1-6-0.7c-0.8-0.2-1.6-0.5-2.3-0.7l1-9.2l0-0.3l1.3-11.7
				c0-0.2-0.1-0.4-0.2-0.5l-3.6-2.1c-0.2-0.1-0.5-0.1-0.6,0.2l-0.1,0.2l-7.8-1.3l0.6-2.2c0.1-0.2-0.1-0.5-0.3-0.6l-4-1.6l-0.2-0.1
				c-0.1,0-0.3,0-0.4,0c-0.1,0.1-0.2,0.2-0.2,0.3l0,0l-3.5,12.7l-2.8,10.1l-1.3,4.6c-0.1,0.3,0.1,0.5,0.3,0.6l4.2,1.2
				c0,0,0.1,0,0.1,0c0.1,0,0.2,0,0.2-0.1c0.1-0.1,0.2-0.2,0.2-0.3l1.3-4.8l2.6-9.4l0.9-3.4l2-7.2l7.8,1.3l-6.1,10.3l-0.3,0.5l-5,8.4
				l-2.4,4c-0.1,0.1-0.1,0.3,0,0.4c0,0.1,0.1,0.2,0.3,0.3l3.8,1.6c0.2,0.1,0.5,0,0.6-0.2l1.5-2.7l4.9,2.2l-0.4,3.2
				c0,0.2,0.1,0.4,0.3,0.5l3.7,1.6l-39.3-10.9l4.1,0.6c0.3,0,0.5-0.1,0.5-0.4l1-4.4l2.5-10.7l2.2,11.2l1,5c0,0.2,0.2,0.3,0.4,0.4
				l4.3,0.7c0,0,0,0,0.1,0c0.2,0,0.4-0.1,0.5-0.4l1-4.4l2.5-10.8l2.1-9l0.7-3l0.2-1c0.1-0.2-0.1-0.5-0.3-0.6l-4.4-1.2
				c-0.1,0-0.3,0-0.4,0c-0.1,0.1-0.2,0.2-0.2,0.3l0,0l-3,13l-2.5-13.9l-0.2-1c0-0.2-0.2-0.3-0.3-0.4l-5.4-1.5c-0.1,0-0.3,0-0.4,0
				c-0.1,0.1-0.2,0.2-0.2,0.3l0,0l-6,26.2l-0.9,3.9c0,0.1,0.1,0.4,0.1,0.4l-1-0.6l-0.3-3.9l-2.3-27.7l8.6,1.3l-8.6-1.3l0-0.5
				c0-0.2-0.2-0.4-0.4-0.4l-6-0.8c-0.2,0-0.4,0.1-0.5,0.3l0,0.1l-12.6,28.3c0,0-1.7,4.5-1.7,4.5l-1.4-0.8l0.4-3.7l3.1-29.5
				c0-0.1,0-0.3-0.1-0.4s-0.2-0.2-0.3-0.2l-8.9-0.2c-0.2,0-0.4,0.1-0.4,0.3l-7.3,19.5l-3.6-19.7c0-0.2-0.2-0.4-0.5-0.4l-10.3-0.2
				c-0.2,0-0.5,0.2-0.5,0.4l-2.8,32.6l-0.2,4.9l-4.1-1.9l0.1-2.5l0.1-3.9c0-0.1-0.1-0.3-0.2-0.4c-0.1-0.1-0.2-0.1-0.4-0.1l-15.7,2.6
				l0-4.5l15.3-2.3c0.2,0,0.4-0.2,0.4-0.5l0.2-9.2c0-0.1-0.1-0.3-0.2-0.4c-0.1-0.1-0.2-0.1-0.4-0.1l-15.3,1.9l0-3.9l15.9-1.8
				c0.2,0,0.4-0.2,0.4-0.5l0.2-9.7c0-0.1-0.1-0.3-0.1-0.4c-0.1-0.1-0.2-0.1-0.4-0.1l-26,2.2c-0.2,0-0.4,0.2-0.4,0.5v34.7l0.2,5.9
				l-5.8-3l-1.8-0.8c0.1-0.2,0.3-0.5,0.4-0.7c0.8-1.4,1.3-3,1.7-4.7c0.6-2.8,0.8-6.2,0.5-10.2c-0.2-3.4-0.7-6.1-1.4-8.4
				c-0.7-2.4-1.7-4.2-2.9-5.7c-1.3-1.5-2.8-2.5-4.7-3.1c-1.8-0.6-4-0.9-6.6-0.9c-0.6,0-1.3,0-1.9,0.1c-0.7,0-1.3,0.1-2,0.2
				c-0.7,0.1-1.4,0.2-2.2,0.3c-0.8,0.1-1.5,0.2-2.3,0.4l-15.7,2.6c-0.2,0-0.4,0.3-0.4,0.5l4,38.1l0.8,5.9l-6.1-4.2l-0.1-0.1
				c-1.5,0.5-3.3,1.1-4.2,1.4c0.5-1,1-2.1,1.3-3.2l0,0l0,0c0.3-1,0.5-1.9,0.7-3c0.6-3.3,0.4-7.1-0.4-11.2c-0.7-3.2-1.6-6.1-2.9-8.4
				c-1.2-2.3-2.8-4.2-4.6-5.7c-1.8-1.4-3.8-2.5-6.1-3.2c-2.2-0.6-4.7-0.9-7.5-0.8c-0.8,0-1.6,0.1-2.3,0.2c-0.8,0.1-1.6,0.2-2.4,0.3
				c-0.8,0.1-1.7,0.3-2.5,0.5c-0.9,0.2-1.7,0.4-2.6,0.6c-4.2,1.1-7.9,2.5-10.9,4.2c-3.4,1.9-6.1,4.2-8.1,6.8c-1.1,1.4-2,3-2.7,4.6
				c-0.7,1.6-1.2,3.3-1.4,5.1c-1.1,8.6,4.8,21.2,4.9,21.4c1.5,2.3,3.4,4.2,5.6,5.5c0.6,0.4,1.2,0.7,1.8,1c1.5,0.7,3.2,1.2,5,1.5
				c0.2,0,0.3,0,0.5,0.1c0,0,0.1,0,0.1,0c0.5,1.6,0.7,2.9,0.8,4c0.1,0.3,0.1,0.6,0.1,0.9c0.7,6.3-17.3,12.4-22,15
				c-3.7,2.1-10.6,4.9-24.9,11.7c-32.5,15.5-63.2,62.8-63.7,65.9c-0.1-1.5-1.1-13.8-0.1-22.3c1.5-12.8,3.8-22.4,3.8-22.4
				s-3.4-2-16.9,8.6c-5.4,4.3-20.5,19.1-20.5,19.1s3.3-23.2,22.3-49.8c4.5-0.3,8.5-4.2,7.4-9.5c2.5-3,5.1-5.9,7.8-8.8
				c2.1,0.7,4.2,1.4,6.2,1.8c4,0.9,7.7,0.8,11-0.5c-0.5-0.9-1-1.9-1.4-2.8c-1.3,0.3-2.7,0.3-4.2,0.1c-2.6-0.4-5.1-1.5-7.5-2.8
				c2.4-2.4,4.8-4.7,7.2-6.8c-1.6-3.7-3-7.1-4.2-10.4c-0.9-2.5-1.7-4.9-2.3-7.3c-2.1-7.3-3.2-14.1-3.8-20.8
				c-1-12.3,69.2-35,102.9-39.7c40.4-5.7,100.9-5.8,146.5,0.6c24.8,3.5,44.7,9.8,58.7,15.7c0.1-0.1,0.2-0.2,0.3-0.2
				c0.5-0.3,1.2-0.4,2-0.3c0.3-0.1,0.6-0.1,0.9-0.1c1.5,0.1,3.2,0.7,4.5,1.3c3.4,1.6,7,2.9,10.6,4.1c1.1,0.3,1.9,0.5,2.7,0.9
				c0.7,0.2,1.5,0.4,2.3,0.7c29,10.6,97-18,97-18s-20,26.3-73.2,31C547,345.4,571.2,348.3,584.4,345.4z M269.7,353.4
				c0.1-0.1,0.1-0.3,0-0.4c0-0.1-0.1-0.2-0.3-0.3c-1-0.4-2.1-0.8-3.1-1.1c-1-0.3-2.1-0.6-3.2-0.7c-0.3-0.1-0.6-0.1-1-0.1
				c-0.8-0.1-1.6-0.2-2.4-0.2c-1.2-0.1-2.4-0.1-3.6,0c-1,0.1-2.1,0.2-3.1,0.3c-1.1,0.2-2.2,0.4-3.4,0.6c-1.2,0.3-2.4,0.6-3.7,1
				c-1.3,0.4-2.6,0.8-4,1.3c-5.3,1.9-9.9,4.1-13.5,6.6c-3.9,2.6-6.9,5.6-8.8,8.8c-1.1,1.8-1.9,3.8-2.4,5.8c-0.1,0.2-0.1,0.5-0.2,0.7
				c-0.2,0.9-0.2,1.8-0.4,2.8c-0.3,1.9,0.2,4.5,0.2,5c0.2,1.3,0.5,2.6,0.9,3.9c0.6,1.8,1.3,3.7,2.3,5.6c1,2.1,2.1,3.9,3.3,5.5
				c0.1,0.2,0.3,0.4,0.4,0.6c0.4,0.5,0.8,1.1,1.2,1.6c0.1,0.1,0.1,0.1,0.2,0.2c1.9,2.2,4,4,6.3,5.3c2.3,1.3,4.9,2.2,7.6,2.6
				c0,0,0,0,0,0c1.1,0.2,2.3,0.2,3.5,0.2c1.8,0,3.6-0.2,5.5-0.5c1.1-0.2,2.2-0.4,3.4-0.7c1.2-0.3,2.4-0.7,3.6-1.1
				c1.2-0.4,2.5-0.9,3.8-1.4c0.5-0.2,1-0.4,1.5-0.6c0.8-0.3,1.6-0.7,2.4-1.1c3.1-1.4,5.9-3,8.3-4.5c1.5-1,2.9-2,4.1-3.1
				c0.5-0.4,1-0.9,1.5-1.4c1.4-1.4,2.6-2.9,3.7-4.5c0.5-0.7,0.9-1.5,1.4-2.3c0.4-0.7,0.7-1.4,1.1-2.1c0.1-0.1,0.1-0.3,0-0.4
				c-0.1-0.1-0.2-0.2-0.3-0.3l-0.7-0.2l0,0l-12-3.6c-0.2-0.1-0.4,0-0.5,0.2c-0.7,1.2-1.2,2.1-1.7,2.8c-0.7,0.9-1.3,1.8-2.1,2.5
				c-0.8,0.8-1.8,1.6-2.9,2.3c-1.2,0.8-2.5,1.5-4.1,2.2c-0.7,0.3-1.4,0.6-2,0.8c-0.7,0.2-1.3,0.5-1.9,0.7c-0.6,0.2-1.2,0.4-1.8,0.5
				c-0.6,0.1-1.1,0.2-1.7,0.3c-1.6,0.2-3,0.2-4.3,0c-1.2-0.2-2.3-0.7-3.4-1.4c-1-0.7-1.9-1.5-2.7-2.6c-0.6-0.8-1.1-1.6-1.6-2.6
				c-0.2-0.4-0.4-0.7-0.6-1.1c-1-2.1-1.5-3.9-1.7-5.6c-0.2-1.8,0.1-3.4,0.8-4.8c0.7-1.5,1.9-2.9,3.6-4.2c1.7-1.3,3.9-2.5,6.7-3.5
				c0.6-0.2,1.2-0.5,1.8-0.6c0.6-0.2,1.1-0.3,1.7-0.5c0.5-0.1,1.1-0.2,1.6-0.3c0.5-0.1,1-0.1,1.5-0.2c0.7-0.1,1.4-0.1,2.1-0.1
				c0.6,0,1.3,0.1,1.9,0.2c0.6,0.1,1.2,0.2,1.9,0.4c0.6,0.2,1.2,0.3,1.8,0.6c0.2,0.1,0.5,0,0.6-0.2l1-2L269.7,353.4z"/>
			<path class="st1" d="M510.1,349.6l1.3-11.7c0-0.2-0.1-0.4-0.2-0.5l-3.6-2.1c-0.2-0.1-0.5-0.1-0.6,0.2l-0.1,0.2l0,0l-6.1,10.3
				l-0.3,0.5l-5,8.4l-2.4,4c-0.1,0.1-0.1,0.3,0,0.4c0,0.1,0.1,0.2,0.3,0.3l3.8,1.6c0.2,0.1,0.5,0,0.6-0.2l1.5-2.7l4.9,2.2l-0.4,3.2
				c0,0.2,0.1,0.4,0.3,0.5l0.8,0.3l2.9,1.2c0.1,0,0.1,0,0.2,0c0.1,0,0.2,0,0.2-0.1c0.1-0.1,0.2-0.2,0.2-0.4l0.7-6.3l1-9.2
				L510.1,349.6z M505.5,348.1l0,0.3l-0.5,4.8l-2.2-1l2.3-3.9l0.1-0.2l0.4-0.8L505.5,348.1z M491.1,342.9l3.5-12.7l0,0
				c0-0.1,0.1-0.2,0.2-0.3c0.1-0.1,0.3-0.1,0.4,0l0.2,0.1l4,1.6c0.2,0.1,0.3,0.3,0.3,0.6l-0.6,2.2v0l-2,7.2l-0.9,3.4l-2.6,9.4
				l-1.3,4.8c0,0.1-0.1,0.2-0.2,0.3c-0.1,0-0.2,0.1-0.2,0.1c0,0-0.1,0-0.1,0l-4.2-1.2c-0.3-0.1-0.4-0.3-0.3-0.6l1.3-4.6L491.1,342.9
				z M468.4,354.8L468.4,354.8l-0.8-0.1c-0.1,0-0.2-0.1-0.3-0.2c0-0.1-0.1-0.1-0.1-0.2c0-0.1,0-0.1,0-0.2l0.9-3.9l6-26.2l0,0
				c0-0.1,0.1-0.2,0.2-0.3c0.1-0.1,0.2-0.1,0.4,0l5.4,1.5c0.2,0,0.3,0.2,0.3,0.4l0.2,1l2.5,13.9l3-13l0,0c0-0.1,0.1-0.2,0.2-0.3
				c0.1-0.1,0.2-0.1,0.4,0l4.4,1.2c0.2,0.1,0.4,0.3,0.3,0.6l-0.2,1l-0.7,3l-2.1,9l-2.5,10.8l-1,4.4c-0.1,0.2-0.2,0.4-0.5,0.4
				c0,0,0,0-0.1,0l-4.3-0.7c-0.2,0-0.4-0.2-0.4-0.4l-1-5l-2.2-11.2l-2.5,10.7l-1,4.4c-0.1,0.2-0.3,0.4-0.5,0.4L468.4,354.8z
				 M373.9,353.3c0.6-2.8,0.8-6.2,0.5-10.2c-0.2-3.4-0.7-6.1-1.4-8.4c-0.7-2.4-1.7-4.2-2.9-5.7c-1.3-1.5-2.8-2.5-4.7-3.1
				c-1.8-0.6-4-0.9-6.6-0.9c-0.6,0-1.3,0-1.9,0.1c-0.7,0-1.3,0.1-2,0.2c-0.7,0.1-1.4,0.2-2.2,0.3c-0.8,0.1-1.5,0.2-2.3,0.4
				l-15.7,2.6c-0.2,0-0.4,0.3-0.4,0.5l4,38.1l0.6,5.2l0,0.4c0,0.1,0.1,0.3,0.2,0.3c0.1,0.1,0.2,0.1,0.3,0.1c0,0,0.1,0,0.1,0l14.9-4
				c4-1.1,7.2-2.3,9.8-3.6c2.7-1.4,4.8-3,6.4-5c0.5-0.6,0.9-1.1,1.2-1.8c0.1-0.2,0.3-0.5,0.4-0.7C373,356.6,373.6,355.1,373.9,353.3
				z M363.4,350.3c-0.1,1.4-0.5,2.5-1.1,3.4c-0.6,1-1.5,1.8-2.8,2.4c-1.4,0.7-3.2,1.4-5.6,1.9l-3.9,1l-1.9-20.6l3.5-0.7
				c0.5-0.1,1-0.2,1.5-0.3c0.5-0.1,0.9-0.1,1.3-0.2c0.4-0.1,0.8-0.1,1.2-0.1c0.4,0,0.7-0.1,1.1-0.1c1.4-0.1,2.5,0.1,3.3,0.4
				c0.8,0.3,1.4,0.8,1.8,1.4c0.4,0.6,0.7,1.5,1,2.6c0.2,1,0.3,2.2,0.5,4C363.5,347.6,363.5,349.1,363.4,350.3z M276.9,394.4
				c-0.5,0.5-1,0.9-1.5,1.4c-1.2,1.1-2.6,2.1-4.1,3.1c-2.4,1.6-5.1,3.1-8.3,4.5c-0.8,0.4-1.6,0.7-2.4,1.1c-0.5,0.2-1,0.4-1.5,0.6
				c-1.3,0.5-2.5,1-3.8,1.4c-1.2,0.4-2.4,0.8-3.6,1.1c-1.2,0.3-2.3,0.5-3.4,0.7c-1.9,0.3-3.8,0.5-5.5,0.5c-1.2,0-2.4-0.1-3.5-0.2
				c0,0,0,0,0,0c-2.7-0.4-5.3-1.2-7.6-2.6c-2.3-1.3-4.4-3.1-6.3-5.3c-0.1-0.1-0.1-0.1-0.2-0.2c-0.4-0.5-0.8-1-1.2-1.6
				c-0.1-0.2-0.3-0.4-0.4-0.6c-1.2-1.6-2.2-3.4-3.3-5.5c-1-1.9-1.7-3.8-2.3-5.6c-0.4-1.3-0.7-2.6-0.9-3.9c-0.1-0.5-0.2-1-0.2-1.6v0
				c0-0.6-0.1-1.1-0.1-1.6c0-0.6,0-1.2,0.1-1.8c0.1-0.9,0.2-1.9,0.4-2.8c0-0.2,0.1-0.5,0.2-0.7c0.5-2,1.3-3.9,2.4-5.8
				c2-3.2,4.9-6.2,8.8-8.8c3.7-2.5,8.2-4.7,13.5-6.6c1.4-0.5,2.7-0.9,4-1.3c1.3-0.4,2.5-0.7,3.7-1c1.2-0.3,2.3-0.5,3.4-0.6
				c1.1-0.2,2.1-0.3,3.1-0.3c1.2-0.1,2.4-0.1,3.6,0c0.8,0,1.6,0.1,2.4,0.2c0.3,0,0.6,0.1,1,0.1c1.1,0.2,2.1,0.4,3.2,0.7
				c1,0.3,2,0.7,3.1,1.1c0.1,0.1,0.2,0.1,0.3,0.3c0,0.1,0,0.3,0,0.4l-4.3,8.3l0,0l-1.5,2.9l0,0l-1,2c-0.1,0.2-0.4,0.3-0.6,0.2
				c-0.7-0.2-1.3-0.4-1.8-0.6c-0.6-0.2-1.3-0.3-1.9-0.4c-0.7-0.1-1.3-0.2-1.9-0.2c-0.7,0-1.4,0-2.1,0.1c-0.5,0-1,0.1-1.5,0.2
				c-0.5,0.1-1,0.2-1.6,0.3c-0.5,0.1-1.1,0.3-1.7,0.5c-0.6,0.2-1.2,0.4-1.8,0.6c-2.7,1-5,2.2-6.7,3.5c-1.7,1.3-2.9,2.7-3.6,4.2
				c-0.7,1.5-1,3-0.8,4.8c0.2,1.7,0.7,3.6,1.7,5.6c0.2,0.4,0.4,0.8,0.6,1.1c0.5,1,1.1,1.9,1.6,2.6c0.8,1.1,1.7,2,2.7,2.6
				c1,0.7,2.1,1.1,3.4,1.4c1.3,0.2,2.7,0.3,4.3,0c0.5-0.1,1.1-0.2,1.7-0.3c0.6-0.1,1.2-0.3,1.8-0.5c0.6-0.2,1.3-0.4,1.9-0.7
				c0.7-0.2,1.3-0.5,2-0.8c1.6-0.7,2.9-1.4,4.1-2.2c1.1-0.7,2-1.4,2.9-2.3c0.7-0.7,1.4-1.6,2.1-2.5c0.5-0.8,1.1-1.7,1.7-2.8
				c0.1-0.2,0.3-0.3,0.5-0.2l12,3.6l0,0l0.7,0.2c0.1,0,0.2,0.1,0.3,0.3c0.1,0.1,0.1,0.3,0,0.4c-0.4,0.8-0.7,1.5-1.1,2.1
				c-0.4,0.8-0.9,1.6-1.4,2.3C279.5,391.6,278.3,393,276.9,394.4z M441.1,353L441.1,353l-0.1,0.6c0,0.2-0.2,0.4-0.4,0.4l-6.6,0.6
				c-0.1,0-0.3,0-0.4-0.1c-0.1-0.1-0.1-0.2-0.1-0.4l0-0.1l0.5-4.5l1.2-11.7l-4.5,11.8l-1.2,3.1l-0.8,2c-0.1,0.2-0.2,0.3-0.4,0.3
				l-5.4,0.5c-0.2,0-0.5-0.1-0.5-0.4l-0.1-0.3v0l-0.9-4.5l-2.5-12.2l-1.1,12.6l-0.2,2.7v0l-0.2,2.3c0,0.2-0.2,0.4-0.4,0.4l-7.1,0.6
				c0,0,0,0,0,0c-0.1,0-0.2,0-0.3-0.1c-0.1-0.1-0.1-0.2-0.1-0.4l0-0.1l0.4-4.4l2.8-32.6c0-0.2,0.3-0.4,0.5-0.4l10.3,0.2
				c0.2,0,0.4,0.2,0.5,0.4l3.6,19.7l7.3-19.5c0.1-0.2,0.2-0.3,0.4-0.3l8.9,0.2c0.1,0,0.3,0.1,0.3,0.2s0.1,0.2,0.1,0.4l-3.1,29.5
				L441.1,353z M463.7,322.4L463.7,322.4l0-0.5c0-0.2-0.2-0.4-0.4-0.4l-6-0.8c-0.2,0-0.4,0.1-0.5,0.3l0,0.1l-12.6,28.3l-1.8,4
				c0,0,0,0,0,0.1c0,0.1,0,0.3,0,0.4c0.1,0.1,0.2,0.2,0.4,0.2l6.1,0.1c0.2,0,0.4-0.1,0.4-0.3l1.1-2.5l0.6-1.3l8.3,0.3l0.3,3.5l0,0.2
				c0,0.2,0.2,0.4,0.5,0.4l5.8,0.1c0,0,0,0,0,0c0.1,0,0.3-0.1,0.3-0.1c0.1-0.1,0.1-0.2,0.1-0.4l0,0l-0.3-3.9L463.7,322.4z
				 M454.6,341.8l3.4-7.7l0.7,8L454.6,341.8z M330,367c0.3-1,0.5-1.9,0.7-3c0.6-3.3,0.4-7.1-0.4-11.2c-0.7-3.2-1.6-6.1-2.9-8.4
				c-1.2-2.3-2.8-4.2-4.6-5.7c-1.8-1.4-3.8-2.5-6.1-3.2c-2.2-0.6-4.7-0.9-7.5-0.8c-0.8,0-1.6,0.1-2.3,0.2c-0.8,0.1-1.6,0.2-2.4,0.3
				c-0.8,0.1-1.7,0.3-2.5,0.5c-0.9,0.2-1.7,0.4-2.6,0.6c-4.2,1.1-7.9,2.5-10.9,4.2c-3.4,1.9-6.1,4.2-8.1,6.8c-1.1,1.4-2,3-2.7,4.6
				c-0.7,1.6-1.1,3.3-1.4,5.1c-0.6,3.8-0.2,8,1,12.5c0.1,0.3,0.2,0.5,0.2,0.8c0.9,2.9,1.9,5.4,3.2,7.5c0,0,0,0,0,0
				c0.1,0.2,0.3,0.4,0.4,0.6c1.5,2.3,3.4,4.2,5.6,5.5c0.6,0.4,1.2,0.7,1.8,1c1.5,0.7,3.2,1.2,5,1.5c0.2,0,0.3,0,0.5,0.1
				c0,0,0.1,0,0.1,0c0.9,0.1,1.9,0.2,2.9,0.2c1.3,0,2.8-0.1,4.2-0.3c0.7-0.1,1.5-0.2,2.3-0.4c0.8-0.2,1.6-0.3,2.4-0.6
				c0.8-0.2,1.6-0.4,2.4-0.7c0.8-0.3,1.6-0.5,2.4-0.8c3.8-1.4,7-3,9.7-4.8c2.8-1.9,5.1-4.1,6.8-6.5c0.5-0.8,1-1.6,1.4-2.4
				C329.2,369.2,329.7,368.1,330,367L330,367z M316.4,366.1c-0.7,1.3-1.6,2.4-2.9,3.5c-1.4,1.1-3.3,2-5.6,2.8l0,0
				c-0.4,0.1-0.8,0.3-1.2,0.4c-0.4,0.1-0.8,0.2-1.2,0.3c-0.4,0.1-0.7,0.2-1.1,0.2c-0.4,0.1-0.7,0.1-1,0.2c-1.5,0.2-2.9,0.1-4.1-0.2
				c-1.1-0.3-2.1-0.8-2.9-1.6c-0.8-0.7-1.5-1.7-2.1-2.8c-0.5-1.1-1-2.4-1.4-3.9c-0.5-1.9-0.7-3.5-0.7-5c0-1.6,0.4-3.1,1-4.3
				c0.7-1.4,1.8-2.5,3.2-3.6c1.5-1.1,3.6-2,6-2.7c0.4-0.1,0.9-0.2,1.3-0.3c0.4-0.1,0.8-0.2,1.2-0.3c0.4-0.1,0.8-0.1,1.1-0.2
				c0.4,0,0.7-0.1,1.1-0.1c0.3,0,0.5,0,0.8,0c1.2,0,2.2,0.2,3.2,0.5c1.1,0.4,2,0.9,2.7,1.7c0.7,0.8,1.3,1.7,1.9,2.8
				c0.5,1.1,0.9,2.3,1.2,3.8c0.4,1.8,0.6,3.4,0.5,4.8C317.4,363.5,317,364.9,316.4,366.1z M405.6,352.3l-0.1,2.5l-0.1,2.4
				c0,0.2-0.2,0.4-0.4,0.5l-25.3,4.8c0,0-0.1,0-0.1,0c-0.1,0-0.2,0-0.3-0.1c-0.1-0.1-0.2-0.2-0.2-0.4v-0.2v-5.3v-34.7
				c0-0.2,0.2-0.4,0.4-0.5l26-2.2c0.1,0,0.3,0,0.4,0.1c0.1,0.1,0.2,0.2,0.1,0.4l-0.2,9.7c0,0.2-0.2,0.4-0.4,0.5l-15.9,1.8l0,3.9
				l15.3-1.9c0.1,0,0.3,0,0.4,0.1c0.1,0.1,0.2,0.2,0.2,0.4l-0.2,9.2c0,0.2-0.2,0.4-0.4,0.5l-15.3,2.3l0,4.5l15.7-2.6
				c0.1,0,0.3,0,0.4,0.1c0.1,0.1,0.2,0.2,0.2,0.4L405.6,352.3z"/>
			<path class="st1" d="M173.1,417.1c-2.3,0.2-4.7-0.6-6.6-2.6c-3.4-3.7-3.8-9.9-2.1-14.5c1.7-4.6,5.2-7.8,9.6-9.2
				c4.2-1.4,9-0.7,13.1,1.2c1.7,0.8,3.4,1.8,5.2,2.7c2.4,1.3,4.9,2.4,7.5,2.8c1.5,0.2,2.9,0.1,4.2-0.1c0.5,0.9,0.9,1.9,1.4,2.8
				c-3.4,1.3-7,1.4-11,0.5c-1.9-0.4-4-1.2-6.2-1.8c-4.7-1.4-9.6-2.5-13.5,0.5c-0.7,0.6-1.3,1.9-1.6,3.3c2.6-1.4,5.4-0.2,6.7,2.9
				c0.3,0.7,0.5,1.4,0.7,2.1C181.6,412.9,177.6,416.8,173.1,417.1z M186.2,368.3c-5.4,0.7-9.5,6.2-9,11.5c0.1,1.4,0.6,3,1.4,4.1
				c1.1,1.6,2.8,2.4,4.7,1.7c2.1-0.8,4.6-3.7,3-6.2c-1.8-2.9-6.1-0.3-4.4,2.6c-0.4-0.4-0.9-1.3-1-1.7c-0.4-2.3,1.1-4.2,2.1-5.2
				c1.4-1.4,3.5-1.9,5.3-1.9c2.1,0.1,4.1,1.7,6,3.2c0.3,0.3,0.6,0.5,1,0.8c-0.9-2.5-1.7-4.9-2.3-7.3
				C190.9,368.6,188.7,368,186.2,368.3z M205.6,406.3c-4.1,0.6-8.1,2.5-10.8,5.8c-2.8,3.4-4.1,7.7-3.3,12.3
				c0.7,4.6,3.9,9.3,8.3,10.5c7.6,2.1,13.5-8.5,6.4-14.1c-3.9-3.1-6.7,1.9-6.7,1.9c-0.5-1.5-0.4-3.8,0.3-5.3c0.6-1.4,1.8-2.4,3-3.3
				c2.4-1.7,5.2-2.6,8-3.4c0.2-0.1,0.4-0.1,0.5-0.2c-0.9-1.6-1.8-3.1-2.6-4.7C207.6,406.1,206.6,406.2,205.6,406.3z"/>
			<path class="st5" d="M187.6,329.9l1.9-1.1l6.8,6l-2,1.1l-1.2-1.1l-2.4,1.3l0.3,1.6l-2,1.1L187.6,329.9z M191.9,333.7l-1.9-1.8
				l0.5,2.6L191.9,333.7z M197.4,329.7l-0.1-0.1c-1.2-2.4-0.4-4.7,1.7-5.7c1.2-0.6,2.3-0.5,3.3-0.1l-0.6,2c-0.5-0.2-1.1-0.4-1.7-0.1
				c-0.9,0.4-1.2,1.6-0.5,2.9l0,0c0.7,1.4,1.7,1.8,2.6,1.4c0.7-0.3,0.9-0.9,1-1.4l1.9,0.7c-0.3,1.1-0.8,2-2.1,2.7
				C200.9,332.8,198.6,332.1,197.4,329.7z M204.1,326.5l-0.1-0.2c-1-2.3-0.2-4.7,1.9-5.6c2.1-0.9,4.3,0,5.4,2.3l0.1,0.2
				c1,2.3,0.2,4.7-1.9,5.6C207.4,329.7,205.1,328.8,204.1,326.5z M209.3,324.1l-0.1-0.1c-0.6-1.4-1.6-1.9-2.5-1.5
				c-0.9,0.4-1.2,1.5-0.6,2.9l0.1,0.1c0.6,1.4,1.6,1.9,2.5,1.5C209.6,326.6,209.9,325.5,209.3,324.1z M210.7,318.7l1.9-0.8l4.3,2.9
				l-1.6-4l2-0.8l3.2,7.9l-1.8,0.7l-4.4-3l1.7,4.2l-2,0.8L210.7,318.7z M218.6,315.5l5.5-2.1l0.7,1.9l-3.4,1.3l0.5,1.4l3-1.1
				l0.7,1.8l-3,1.1l1.1,3l-2.1,0.8L218.6,315.5z M225.1,313.1l5.6-1.9l0.6,1.8l-3.5,1.2l0.5,1.3l3.2-1.1l0.6,1.7l-3.2,1.1l0.5,1.4
				l3.6-1.2l0.6,1.8l-5.6,2L225.1,313.1z M231.8,310.8l3.2-1c1.1-0.4,2-0.3,2.7,0c0.6,0.3,1.1,0.9,1.3,1.7l0,0.1
				c0.4,1.2,0,2.2-0.7,2.9l2.6,2.4l-2.4,0.8l-2.2-2.1l-0.7,0.2l0.8,2.5l-2.1,0.7L231.8,310.8z M236.2,313.7c0.7-0.2,1-0.8,0.8-1.4
				l0,0c-0.2-0.7-0.8-0.9-1.5-0.7l-1,0.3l0.7,2.1L236.2,313.7z M239.3,308.4l5.7-1.7l0.6,1.9l-3.6,1.1l0.4,1.4l3.2-1l0.5,1.7l-3.2,1
				l0.4,1.4l3.6-1.1l0.6,1.9l-5.7,1.7L239.3,308.4z M246.1,306.4l2-0.5l3.9,3.4l-1.1-4.2l2.1-0.6l2.2,8.3l-1.9,0.5l-4-3.6l1.2,4.3
				l-2.1,0.6L246.1,306.4z M255.1,308.5l0-0.1c-0.6-2.6,0.6-4.7,2.8-5.2c1.3-0.3,2.3,0,3.2,0.6l-1,1.8c-0.5-0.3-1-0.6-1.7-0.4
				c-1,0.2-1.5,1.3-1.1,2.7l0,0c0.4,1.5,1.3,2.1,2.3,1.9c0.7-0.2,1-0.7,1.3-1.2l1.7,1c-0.5,1-1.3,1.8-2.6,2.2
				C257.8,312.3,255.7,311.1,255.1,308.5z M261.8,302.4l5.8-1.3l0.4,1.9l-3.6,0.8l0.3,1.4l3.3-0.7l0.4,1.8l-3.3,0.7l0.3,1.4l3.7-0.8
				l0.4,1.9l-5.8,1.3L261.8,302.4z M271.6,300.2l5.7-1.1l0.4,1.9l-3.6,0.7l0.3,1.5l3.2-0.6l0.4,1.9l-3.2,0.6l0.6,3.1l-2.2,0.4
				L271.6,300.2z M278.9,303.3l0-0.2c-0.4-2.5,0.9-4.6,3.2-5c2.3-0.4,4.2,1.1,4.7,3.6l0,0.2c0.4,2.5-0.9,4.6-3.2,5
				C281.2,307.3,279.3,305.8,278.9,303.3z M284.5,302.3l0-0.1c-0.3-1.5-1.1-2.2-2.1-2.1c-1,0.2-1.5,1.2-1.3,2.6l0,0.1
				c0.3,1.5,1.1,2.2,2.1,2.1C284.2,304.7,284.7,303.7,284.5,302.3z M287.1,297.4l3.3-0.5c1.1-0.2,2,0,2.7,0.5c0.5,0.4,0.9,1,1,1.9
				l0,0.1c0.2,1.3-0.3,2.1-1.1,2.7l2.2,2.8l-2.5,0.4l-1.8-2.4l-0.8,0.1l0.4,2.6l-2.2,0.3L287.1,297.4z M290.9,301
				c0.7-0.1,1.1-0.6,1-1.3l0,0c-0.1-0.7-0.6-1-1.4-0.9l-1.1,0.2l0.3,2.2L290.9,301z M297.7,295.9l2.8-0.3c2.7-0.3,4.5,1.1,4.8,3.6
				l0,0.1c0.3,2.5-1.1,4.4-3.8,4.7l-2.8,0.3L297.7,295.9z M300.2,297.5l0.6,4.6l0.6-0.1c1.2-0.1,1.9-1,1.8-2.5l0-0.1
				c-0.2-1.5-1.1-2.1-2.3-2L300.2,297.5z M306,294.9l5.9-0.6l0.2,1.9l-3.7,0.4l0.1,1.4l3.3-0.3l0.2,1.8l-3.3,0.3l0.2,1.5l3.8-0.4
				l0.2,1.9l-5.9,0.6L306,294.9z M312.4,294.2l2.4-0.2l2,5.2l1.1-5.4l2.3-0.2l-2.1,8.8l-2.1,0.2L312.4,294.2z M321.1,293.5l5.9-0.4
				l0.1,1.9l-3.7,0.3l0.1,1.4l3.3-0.2l0.1,1.8l-3.3,0.2l0.1,1.5l3.8-0.3l0.1,1.9l-5.9,0.4L321.1,293.5z M328.2,293l2.2-0.1l0.3,6.6
				l3.4-0.2l0.1,2l-5.6,0.3L328.2,293z M334.2,297.1l0-0.2c-0.1-2.6,1.5-4.4,3.8-4.5c2.3-0.1,4,1.6,4.1,4.2l0,0.2
				c0.1,2.6-1.5,4.4-3.8,4.5C336,301.3,334.3,299.6,334.2,297.1z M339.9,296.8l0-0.1c-0.1-1.5-0.8-2.4-1.8-2.3c-1,0-1.7,1-1.6,2.4
				l0,0.1c0.1,1.5,0.8,2.4,1.8,2.3C339.3,299.2,339.9,298.3,339.9,296.8z M343.1,292.4l3.1-0.1c2,0,3.4,1,3.4,2.9l0,0
				c0,2.1-1.4,3.1-3.3,3.1l-0.8,0l0,2.5l-2.2,0L343.1,292.4z M346.1,296.6c0.8,0,1.2-0.5,1.2-1.2l0,0c0-0.8-0.5-1.2-1.3-1.2l-0.8,0
				l0,2.4L346.1,296.6z M350.4,292.3l5.9,0l0,1.9l-3.7,0l0,1.4l3.4,0l0,1.8l-3.4,0l0,1.5l3.8,0l0,1.9l-6,0L350.4,292.3z
				 M357.5,292.3l3.4,0c1.2,0,2,0.3,2.6,0.9c0.5,0.5,0.7,1.1,0.7,2l0,0.1c0,1.3-0.7,2.1-1.6,2.5l1.7,3.1l-2.5,0l-1.4-2.7l-0.8,0
				l0,2.7l-2.2,0L357.5,292.3z M360.7,296.5c0.7,0,1.2-0.4,1.2-1.1v0c0-0.7-0.4-1.1-1.2-1.1l-1.1,0l0,2.2L360.7,296.5z M364.5,299.8
				l1.2-1.6c0.7,0.6,1.5,1,2.3,1c0.6,0,0.9-0.2,0.9-0.6l0,0c0-0.3-0.2-0.6-1.2-0.9c-1.6-0.6-2.7-1.2-2.7-2.8l0,0
				c0-1.6,1.3-2.6,3.1-2.6c1.1,0,2.2,0.4,3,1.1l-1.2,1.6c-0.6-0.5-1.3-0.8-2-0.8c-0.5,0-0.8,0.2-0.8,0.5l0,0c0,0.4,0.3,0.6,1.3,1
				c1.6,0.6,2.6,1.3,2.6,2.7l0,0c0,1.7-1.4,2.7-3.2,2.6C366.6,301.1,365.4,300.7,364.5,299.8z"/>
			<g class="st6">
				<g class="st7">
					<g class="st8">
						<defs>
							<polygon id="SVGID_1_" class="st8" points="362.5,426.7 362.5,398.2 472.1,382.8 472,411.3 							"/>
						</defs>
						<clipPath id="SVGID_2_">
							<use xlink:href="#SVGID_1_"  style="overflow:visible;"/>
						</clipPath>
						<g class="st9">
							<g>
								<g>
									<g>
										<path class="st2" d="M380.2,396.3l-5.9,0.8l-2.9,18.6l-2.7-17.9l-6.1,0.9l-0.1,27.4l3.8-0.5l0.1-19.4l3.1,18.9l3.8-0.5
											c0.3-2,0.8-5.3,1.5-9.8c0.7-4.5,1.2-7.8,1.5-9.8l0.1,19.2l3.8-0.5L380.2,396.3"/>
										<path class="st2" d="M388.2,413.2l1.4-10.3l1.3,10L388.2,413.2 M391.9,394.6l-4.5,0.6l-5.5,28.1l5.1-0.7l1-6l3.3-0.5
											l1,5.7l5.1-0.7L391.9,394.6"/>
										<path class="st2" d="M411.3,391.9l-4.7,0.7c-0.3,1.4-0.7,3.4-1.3,6.2c-0.6,2.8-1,4.8-1.3,6.2l-2.3-11.7l-4.8,0.7l4.7,17.6
											l0,9l5-0.7l0-9L411.3,391.9"/>
										<path class="st2" d="M424.7,389.5c-1,0.1-1.8,0.4-2.6,0.8c-0.8,0.4-1.4,0.9-1.9,1.4c-0.5,0.6-0.9,1.2-1.3,2
											c-0.3,0.8-0.6,1.6-0.7,2.4c-0.2,0.9-0.2,1.8-0.2,2.8l0,1.7l4.9-0.7c0-0.1,0-0.2,0-0.4c0-0.3,0-0.5,0-0.8c0-0.3,0-0.6,0-1
											c0-0.3,0.1-0.7,0.1-1c0-0.3,0.1-0.7,0.2-1c0.1-0.3,0.2-0.6,0.3-0.8c0.1-0.2,0.3-0.4,0.5-0.6c0.2-0.2,0.4-0.3,0.7-0.3
											c0.3,0,0.6,0,0.9,0.2c0.2,0.2,0.4,0.4,0.6,0.7c0.1,0.3,0.2,0.6,0.3,0.9c0.1,0.3,0.1,0.6,0.1,0.9c0,0.5-0.1,1.1-0.2,1.6
											c-0.1,0.6-0.3,1.1-0.6,1.7c-0.3,0.6-0.5,1.1-0.8,1.5c-0.2,0.4-0.5,0.9-0.9,1.6l-6.2,10.4l0,4.7l13.5-1.9l0-5.3l-7.9,1.1
											c0.4-0.6,1-1.5,1.8-2.7c0.8-1.2,1.6-2.2,2.2-3.1c0.6-0.9,1.2-2,1.9-3.1c0.7-1.2,1.2-2.4,1.5-3.6c0.3-1.2,0.5-2.4,0.5-3.7
											c0-2.3-0.6-4.1-1.8-5.3C428.5,389.6,426.8,389.2,424.7,389.5"/>
										<path class="st2" d="M440.1,411.1c-0.3,0-0.6,0-0.8-0.2c-0.2-0.2-0.4-0.4-0.6-0.6c-0.1-0.3-0.2-0.6-0.3-0.9
											c-0.1-0.4-0.1-0.7-0.1-1c0-0.3,0-0.6,0-0.9l0-11.3c0-0.4,0-0.7,0-1c0-0.3,0.1-0.6,0.1-1c0.1-0.4,0.2-0.8,0.3-1
											c0.1-0.3,0.3-0.5,0.6-0.8c0.2-0.2,0.5-0.4,0.9-0.4c1.3-0.2,1.9,1,1.9,3.7l0,11.3c0,0.4,0,0.8-0.1,1.2
											c0,0.4-0.1,0.8-0.3,1.3c-0.1,0.5-0.3,0.8-0.6,1.2C440.8,410.9,440.4,411.1,440.1,411.1 M440.1,387.3
											c-1.2,0.2-2.2,0.5-3.1,1.1c-0.9,0.6-1.6,1.3-2.1,2.1c-0.5,0.9-0.9,1.8-1.2,2.9c-0.3,1-0.4,2.2-0.4,3.4l0,11.3
											c0,1.2,0.1,2.2,0.4,3.2c0.3,1,0.7,1.8,1.2,2.5c0.5,0.7,1.3,1.2,2.1,1.6c0.9,0.3,1.9,0.4,3,0.3c1.1-0.2,2.1-0.5,3-1.1
											c0.9-0.6,1.6-1.3,2.2-2.2c0.6-0.9,1-1.8,1.3-2.9c0.3-1.1,0.4-2.2,0.4-3.3l0-11.3c0-1.2-0.1-2.3-0.4-3.3
											c-0.3-1-0.7-1.8-1.2-2.5c-0.5-0.7-1.2-1.2-2.1-1.6C442.3,387.3,441.3,387.2,440.1,387.3"/>
										<path class="st2" d="M456.1,385.6l-3.7,0.5c-0.2,0.5-0.5,0.9-0.8,1.3c-0.3,0.4-0.6,0.6-0.8,0.8c-0.2,0.2-0.6,0.4-1,0.7
											c-0.4,0.3-0.8,0.5-1.1,0.7l0,4l2.6-0.4l0,20.3l4.8-0.7L456.1,385.6"/>
										<path class="st2" d="M465.2,407.9c-0.3,0-0.5,0-0.7,0c-0.2-0.1-0.4-0.2-0.5-0.3c-0.1-0.1-0.3-0.3-0.4-0.5
											c-0.1-0.2-0.2-0.4-0.2-0.6c0-0.2-0.1-0.4-0.1-0.7c0-0.3,0-0.5-0.1-0.7c0-0.2,0-0.4,0-0.7c0-3,0.7-4.6,2.1-4.8
											c1.4-0.2,2,1.2,2,4.2c0,0.3,0,0.5,0,0.7c0,0.2,0,0.4,0,0.7c0,0.3-0.1,0.6-0.1,0.8c0,0.2-0.1,0.4-0.2,0.7
											c-0.1,0.3-0.2,0.5-0.4,0.6c-0.1,0.1-0.3,0.3-0.5,0.4C465.8,407.7,465.5,407.8,465.2,407.9 M465.2,395.4
											c-0.2,0-0.5,0-0.7-0.1c-0.2-0.1-0.3-0.3-0.5-0.6c-0.1-0.3-0.2-0.5-0.3-0.8c-0.1-0.3-0.1-0.6-0.1-1c0-0.4,0-0.7-0.1-0.9
											c0-0.2,0-0.5,0-0.8c0-0.3,0-0.6,0.1-0.9c0-0.3,0.1-0.6,0.2-1c0.1-0.3,0.3-0.6,0.5-0.9s0.5-0.4,0.8-0.4
											c1.1-0.1,1.6,0.8,1.6,2.7c0,0.3,0,0.5,0,0.7c0,0.2,0,0.4,0,0.8c0,0.4,0,0.6-0.1,0.9c0,0.2-0.1,0.5-0.2,0.8
											c-0.1,0.3-0.2,0.6-0.3,0.7c-0.1,0.2-0.3,0.4-0.4,0.5C465.7,395.2,465.5,395.3,465.2,395.4 M465.3,383.8
											c-2.1,0.3-3.7,1.2-4.9,2.7c-1.1,1.5-1.7,3.4-1.7,5.8c0,2.5,0.6,4.4,1.8,5.6c-0.9,0.9-1.4,1.9-1.7,2.9
											c-0.3,1.1-0.4,2.4-0.4,3.8c0,5.7,2.3,8.2,6.8,7.5c1.2-0.2,2.3-0.5,3.2-1.1c0.9-0.5,1.6-1.2,2.1-2.1
											c0.5-0.9,0.9-1.8,1.1-2.8c0.2-1,0.4-2.2,0.4-3.5c0-0.7,0-1.3-0.1-1.8c-0.1-0.5-0.2-1.1-0.3-1.6c-0.2-0.5-0.4-1.1-0.7-1.5
											c-0.3-0.5-0.7-0.8-1.1-1.2c1.2-1.5,1.8-3.5,1.9-6.1c0-2.3-0.5-4.1-1.6-5.3C469,383.9,467.4,383.5,465.3,383.8"/>
									</g>
								</g>
							</g>
						</g>
					</g>
				</g>
			</g>
		</g>
		<g id="Text">
			<text transform="matrix(1 -0.1754 0 1 358.9703 405.3439)" class="st5 st10 st11">23</text>
			<text transform="matrix(0.583 -0.1023 0 0.583 380.1219 394.9583)" class="st5 st10 st11">rd</text>
			<text transform="matrix(1 -0.1754 0 1 393.166 399.3447)" class="st5 st10 st11"> MAY 2018 </text>
			<text transform="matrix(1 -0.1754 0 1 358.9703 429.3976)" class="st5 st10 st11">Auckland</text>
		</g>
	</g>
</g>
<g id="eye_1">
	<path class="st1" d="M370.1,212c0,0-15.9,5.5-28-1.4s-15.5-23.7-15.5-23.7s18.2-9.7,30.4-2.8C369.1,191,370.1,212,370.1,212z"/>
	<path class="st3" d="M370.8,211.6c0,0.1,0.1,0.4,0,0.4c-1.2,0.4-2.3,0.9-3.4,1.2c-1.2,0.3-2.4,0.6-3.6,0.8
		c-2.4,0.4-4.9,0.7-7.4,0.7c-1.2,0-2.5-0.1-3.7-0.2c-1.2-0.1-2.5-0.3-3.7-0.6c-1.2-0.3-2.4-0.7-3.6-1.1c-1.2-0.5-2.3-1-3.5-1.6
		l-0.1-0.1l-0.1-0.1l-0.2-0.1l-0.4-0.2c-0.3-0.2-0.5-0.3-0.8-0.5l-0.8-0.6l-0.8-0.6c-1-0.8-1.9-1.6-2.8-2.6
		c-0.9-0.9-1.7-1.9-2.4-2.9c-0.7-1-1.4-2.1-2.1-3.1c-1.3-2.2-2.3-4.4-3.2-6.7c-0.4-1.2-2-7.5-2-7.5c0.3-1,6-3.4,7.2-3.9
		c2.5-0.9,5.8-1.5,8.6-2c1.4-0.2,2.7-0.4,4.1-0.5c1.4-0.1,2.8,0,4.2,0.1c1.4,0.2,2.8,0.5,4.2,0.9l1,0.4c0.3,0.1,0.6,0.2,0.9,0.4
		c0.3,0.1,0.6,0.3,0.9,0.4l0.7,0.4l0.1,0.1l0.1,0l0,0l0.1,0l0.2,0.1l0.8,0.5c0.3,0.2,0.6,0.4,0.9,0.7c0.3,0.2,0.6,0.5,0.8,0.7
		c0.3,0.2,0.5,0.5,0.8,0.7c1,1,1.9,2.1,2.7,3.2c0.8,1.2,1.5,2.4,2.1,3.6c0.6,1.2,1.1,2.5,1.6,3.8c0.9,2.6,1.5,5.2,2,7.9
		c0.2,1.3,0.4,2.7,0.6,4C370.8,209.1,370.9,210.4,370.8,211.6z M369.9,211.3c0.4-0.2,0.3-0.2,0.3-0.6c0-1.1-0.1-1.8-0.3-2.8
		c-0.3-1.3-0.6-2.6-1-3.8c-0.7-2.5-1.6-5-2.7-7.4c-0.6-1.2-1.1-2.3-1.8-3.4c-0.7-1.1-1.4-2.2-2.2-3.1c-0.8-1-1.6-1.9-2.5-2.7
		c-0.2-0.2-0.5-0.4-0.7-0.6c-0.2-0.2-0.5-0.4-0.7-0.6l-0.7-0.5c0,0,0,0,0,0l-0.8-0.5l-0.2-0.1c0,0,0.1,0.1,0,0l0,0l0,0l-0.1,0
		l-0.1-0.1l-0.6-0.3c-0.2-0.1-0.5-0.2-0.7-0.3c-0.2-0.1-0.5-0.2-0.7-0.3l-0.9-0.3c-1.2-0.4-2.4-0.7-3.6-0.8
		c-1.2-0.2-2.5-0.3-3.8-0.3c-1.3,0-2.6,0.1-3.8,0.2c-2.6,0.3-5.1,0.8-7.6,1.5c-1.3,0.4-2.5,0.8-3.7,1.2c-1.2,0.5-2.5,1-3.6,1.6
		l0.4-0.8l0,0c0.3,1.1,0.6,2.3,1,3.4c0.4,1.1,0.8,2.2,1.3,3.3c0.9,2.2,2,4.3,3.2,6.3c0.6,1,1.3,2,2,2.9c0.7,0.9,1.5,1.8,2.3,2.7
		c0.8,0.9,1.7,1.6,2.6,2.4l0.7,0.5l0.7,0.5c0.4,0.3,1,0.7,1.5,0.9c1,0.6,2,1.1,3.1,1.5c1.1,0.4,2.2,0.8,3.3,1.1
		c1.1,0.3,2.3,0.5,3.5,0.7c1.2,0.2,2.4,0.3,3.5,0.3c2.4,0.1,4.8,0,7.2-0.2c1.2-0.1,2.4-0.3,3.6-0.5
		C368.1,212.1,369,211.8,369.9,211.3z"/>
	<path class="st1" d="M408.8,212c0,0,15.9,5.5,28-1.4s15.5-23.7,15.5-23.7s-18.2-9.7-30.4-2.8C409.7,191,408.8,212,408.8,212z"/>
	<path class="st3" d="M408.9,207.9c0.1-1.3,0.3-2.7,0.6-4c0.5-2.6,1.1-5.3,2-7.9c0.4-1.3,1-2.6,1.6-3.8c0.6-1.2,1.3-2.4,2.1-3.6
		c0.8-1.1,1.7-2.3,2.7-3.2c0.2-0.3,0.5-0.5,0.8-0.7c0.3-0.2,0.5-0.5,0.8-0.7c0.3-0.2,0.6-0.5,0.9-0.7l0.8-0.5l0.2-0.1l0.1,0l0,0
		l0.1,0l0.1-0.1l0.7-0.4c0.3-0.1,0.6-0.3,0.9-0.4c0.3-0.1,0.6-0.3,0.9-0.4l1-0.4c1.4-0.4,2.8-0.7,4.2-0.9c1.4-0.1,2.8-0.2,4.2-0.1
		c1.4,0.1,2.8,0.2,4.1,0.5c2.7,0.5,6,1.1,8.6,2c1.3,0.5,6.9,2.8,7.2,3.9c0,0-1.6,6.3-2,7.5c-0.9,2.3-1.9,4.6-3.2,6.7
		c-0.6,1.1-1.3,2.1-2.1,3.1c-0.7,1-1.6,2-2.4,2.9c-0.9,0.9-1.8,1.8-2.8,2.6l-0.8,0.6l-0.8,0.6c-0.3,0.2-0.5,0.4-0.8,0.5l-0.4,0.2
		l-0.2,0.1l-0.1,0.1l-0.1,0.1c-1.1,0.6-2.3,1.2-3.5,1.6c-1.2,0.4-2.4,0.8-3.6,1.1c-1.2,0.3-2.5,0.5-3.7,0.6
		c-1.2,0.1-2.5,0.2-3.7,0.2c-2.5,0-5-0.2-7.4-0.7c-1.2-0.2-2.4-0.5-3.6-0.8c-1.1-0.3-2.3-0.8-3.4-1.2c-0.1,0,0-0.3,0-0.4
		C408.6,210.4,408.8,209.1,408.9,207.9z M412.4,212.3c1.2,0.2,2.4,0.4,3.6,0.5c2.4,0.2,4.8,0.3,7.2,0.2c1.2-0.1,2.4-0.2,3.5-0.3
		c1.2-0.2,2.3-0.4,3.5-0.7c1.1-0.3,2.3-0.6,3.3-1.1c1.1-0.4,2.1-0.9,3.1-1.5c0.4-0.3,1.1-0.6,1.5-0.9l0.7-0.5l0.7-0.5
		c0.9-0.7,1.8-1.5,2.6-2.4c0.8-0.8,1.6-1.7,2.3-2.7c0.7-0.9,1.4-1.9,2-2.9c1.2-2,2.3-4.1,3.2-6.3c0.5-1.1,0.9-2.2,1.3-3.3
		c0.4-1.1,0.7-2.3,1-3.4l0,0l0.4,0.8c-1.1-0.6-2.4-1.1-3.6-1.6c-1.2-0.5-2.5-0.9-3.7-1.2c-2.5-0.7-5.1-1.2-7.6-1.5
		c-1.3-0.1-2.6-0.2-3.8-0.2c-1.3,0-2.5,0.1-3.8,0.3c-1.2,0.2-2.4,0.5-3.6,0.8l-0.9,0.3c-0.2,0.1-0.5,0.2-0.7,0.3
		c-0.2,0.1-0.5,0.2-0.7,0.3l-0.6,0.3l-0.1,0.1l-0.1,0l0,0l0,0c0,0,0.1,0,0,0l-0.2,0.1l-0.8,0.5c0,0,0,0,0,0l-0.7,0.5
		c-0.2,0.2-0.5,0.4-0.7,0.6c-0.2,0.2-0.5,0.4-0.7,0.6c-0.9,0.8-1.8,1.8-2.5,2.7c-0.8,1-1.5,2-2.2,3.1c-0.7,1.1-1.3,2.2-1.8,3.4
		c-1.1,2.3-2,4.8-2.7,7.4c-0.4,1.3-0.7,2.6-1,3.8c-0.2,1-0.3,1.7-0.3,2.8c0,0.4,0,0.4,0.3,0.6C410.5,211.8,411.4,212.1,412.4,212.3z
		"/>
	<path class="st5" d="M352.9,186.2c0,0-13.6,9.7-4.2,24C348.8,210.2,347.9,198.9,352.9,186.2z"/>
	<path class="st5" d="M425.3,186.2c0,0,13.6,9.7,4.2,24C429.4,210.2,430.3,198.9,425.3,186.2z"/>
</g>
<g id="eye_2">
	<path class="st1" d="M370.1,212c0,0-15.9,5.5-28-1.4s-15.5-23.7-15.5-23.7s4.6,8.2,16.8,15.2C355.5,208.9,370.1,212,370.1,212z"/>
	<path class="st1" d="M408.8,212c0,0,15.9,5.5,28-1.4s15.5-23.7,15.5-23.7s-7.2,9.1-19.3,16C420.7,209.8,408.8,212,408.8,212z"/>
	<path class="st3" d="M326.6,188.3c0,0,9.5,19,42.2,24.1l1.1-1c0,0-33.5-6.1-43.4-25.9V188.3z"/>
	<path class="st3" d="M409.8,210.4l-1,1.7c0,0,25.1-1.8,44.7-25.8l-0.8-2.6C452.6,183.8,440.6,204.9,409.8,210.4z"/>
	<path class="st3" d="M369.4,211.6c-0.7,0.3-1.5,0.6-2.2,0.7c-1.2,0.2-2.4,0.4-3.6,0.5c-2.4,0.2-4.8,0.3-7.2,0.2
		c-1.2-0.1-2.4-0.2-3.5-0.3c-1.2-0.2-2.3-0.4-3.5-0.7c-1.1-0.3-2.3-0.6-3.3-1.1c-1.1-0.4-2.1-0.9-3.1-1.5c-0.4-0.3-1.1-0.6-1.5-0.9
		l-0.7-0.5l-0.7-0.5c-0.9-0.7-1.8-1.5-2.6-2.4c-0.8-0.8-1.6-1.7-2.3-2.7c-0.7-0.9-1.4-1.9-2-2.9c-1.2-2-2.3-4.1-3.2-6.3
		c-0.5-1.1-0.9-2.2-1.3-3.3c-0.3-0.9-0.6-1.9-0.9-2.8c0,0,0,0,0.1,0c0,0-0.1,0-0.1,0c-0.2-0.1-0.3-0.1-0.5-0.2
		c-0.4-0.2-0.8-0.3-1.1-0.6c-0.1,0.1-0.1,0.2-0.2,0.2c0,0,1.6,6.3,2,7.5c0.9,2.3,1.9,4.6,3.2,6.7c0.6,1.1,1.3,2.1,2.1,3.1
		c0.7,1,1.6,2,2.4,2.9c0.9,0.9,1.8,1.8,2.8,2.6l0.8,0.6l0.8,0.6c0.3,0.2,0.5,0.4,0.8,0.5l0.4,0.2l0.2,0.1l0.1,0.1l0.1,0.1
		c1.1,0.6,2.3,1.2,3.5,1.6c1.2,0.4,2.4,0.8,3.6,1.1c1.2,0.3,2.5,0.5,3.7,0.6c1.2,0.1,2.5,0.2,3.7,0.2c2.5,0,5-0.2,7.4-0.7
		c1.2-0.2,2.4-0.5,3.6-0.8c1.1-0.3,2.2-0.8,3.4-1.2C370.3,212,369.8,211.8,369.4,211.6z"/>
	<path class="st3" d="M452.9,185.7c-0.4,0.6-0.8,1.1-1.4,1.6c-0.2,0.8-0.5,1.6-0.7,2.4c-0.4,1.1-0.8,2.2-1.3,3.3
		c-0.9,2.2-2,4.3-3.2,6.3c-0.6,1-1.3,2-2,2.9c-0.7,0.9-1.5,1.8-2.3,2.7c-0.8,0.9-1.7,1.6-2.6,2.4l-0.7,0.5l-0.7,0.5
		c-0.4,0.3-1,0.7-1.5,0.9c-1,0.6-2,1.1-3.1,1.5c-1.1,0.4-2.2,0.8-3.3,1.1c-1.1,0.3-2.3,0.5-3.5,0.7c-1.2,0.2-2.4,0.3-3.5,0.3
		c-2.4,0.1-4.8,0-7.2-0.2c-1.2-0.1-2.4-0.3-3.6-0.5c-0.9-0.1-1.8-0.5-2.6-0.9c-0.4,0.2-0.7,0.4-1.1,0.6c0,0,0,0.1,0.1,0.1
		c1.2,0.4,2.3,0.9,3.4,1.2c1.2,0.3,2.4,0.6,3.6,0.8c2.4,0.4,4.9,0.7,7.4,0.7c1.2,0,2.5-0.1,3.7-0.2c1.2-0.1,2.5-0.3,3.7-0.6
		c1.2-0.3,2.4-0.7,3.6-1.1c1.2-0.5,2.3-1,3.5-1.6l0.1-0.1l0.1-0.1l0.2-0.1l0.4-0.2c0.3-0.2,0.5-0.3,0.8-0.5l0.8-0.6l0.8-0.6
		c1-0.8,1.9-1.6,2.8-2.6c0.9-0.9,1.7-1.9,2.4-2.9c0.7-1,1.4-2.1,2.1-3.1c1.3-2.2,2.3-4.4,3.2-6.7c0.4-1.2,2-7.5,2-7.5
		C453.4,186.1,453.2,186,452.9,185.7z"/>
</g>
<g id="eye_3">
	<path class="st3" d="M369.4,211.6c-0.7,0.3-1.5,0.6-2.2,0.7c-1.2,0.2-2.4,0.4-3.6,0.5c-2.4,0.2-4.8,0.3-7.2,0.2
		c-1.2-0.1-2.4-0.2-3.5-0.3c-1.2-0.2-2.3-0.4-3.5-0.7c-1.1-0.3-2.3-0.6-3.3-1.1c-1.1-0.4-2.1-0.9-3.1-1.5c-0.4-0.3-1.1-0.6-1.5-0.9
		l-0.7-0.5l-0.7-0.5c-0.9-0.7-1.8-1.5-2.6-2.4c-0.8-0.8-1.6-1.7-2.3-2.7c-0.7-0.9-1.4-1.9-2-2.9c-1.2-2-2.3-4.1-3.2-6.3
		c-0.5-1.1-0.9-2.2-1.3-3.3c-0.3-0.9-0.6-1.9-0.9-2.8c0,0,0,0,0.1,0c0,0-0.1,0-0.1,0c-0.2-0.1-0.3-0.1-0.5-0.2
		c-0.4-0.2-0.8-0.3-1.1-0.6c-0.1,0.1-0.1,0.2-0.2,0.2c0,0,1.6,6.3,2,7.5c0.9,2.3,1.9,4.6,3.2,6.7c0.6,1.1,1.3,2.1,2.1,3.1
		c0.7,1,1.6,2,2.4,2.9c0.9,0.9,1.8,1.8,2.8,2.6l0.8,0.6l0.8,0.6c0.3,0.2,0.5,0.4,0.8,0.5l0.4,0.2l0.2,0.1l0.1,0.1l0.1,0.1
		c1.1,0.6,2.3,1.2,3.5,1.6c1.2,0.4,2.4,0.8,3.6,1.1c1.2,0.3,2.5,0.5,3.7,0.6c1.2,0.1,2.5,0.2,3.7,0.2c2.5,0,5-0.2,7.4-0.7
		c1.2-0.2,2.4-0.5,3.6-0.8c1.1-0.3,2.2-0.8,3.4-1.2C370.3,212,369.8,211.8,369.4,211.6z"/>
	<path class="st3" d="M452.9,185.7c-0.4,0.6-0.8,1.1-1.4,1.6c-0.2,0.8-0.5,1.6-0.7,2.4c-0.4,1.1-0.8,2.2-1.3,3.3
		c-0.9,2.2-2,4.3-3.2,6.3c-0.6,1-1.3,2-2,2.9c-0.7,0.9-1.5,1.8-2.3,2.7c-0.8,0.9-1.7,1.6-2.6,2.4l-0.7,0.5l-0.7,0.5
		c-0.4,0.3-1,0.7-1.5,0.9c-1,0.6-2,1.1-3.1,1.5c-1.1,0.4-2.2,0.8-3.3,1.1c-1.1,0.3-2.3,0.5-3.5,0.7c-1.2,0.2-2.4,0.3-3.5,0.3
		c-2.4,0.1-4.8,0-7.2-0.2c-1.2-0.1-2.4-0.3-3.6-0.5c-0.9-0.1-1.8-0.5-2.6-0.9c-0.4,0.2-0.7,0.4-1.1,0.6c0,0,0,0.1,0.1,0.1
		c1.2,0.4,2.3,0.9,3.4,1.2c1.2,0.3,2.4,0.6,3.6,0.8c2.4,0.4,4.9,0.7,7.4,0.7c1.2,0,2.5-0.1,3.7-0.2c1.2-0.1,2.5-0.3,3.7-0.6
		c1.2-0.3,2.4-0.7,3.6-1.1c1.2-0.5,2.3-1,3.5-1.6l0.1-0.1l0.1-0.1l0.2-0.1l0.4-0.2c0.3-0.2,0.5-0.3,0.8-0.5l0.8-0.6l0.8-0.6
		c1-0.8,1.9-1.6,2.8-2.6c0.9-0.9,1.7-1.9,2.4-2.9c0.7-1,1.4-2.1,2.1-3.1c1.3-2.2,2.3-4.4,3.2-6.7c0.4-1.2,2-7.5,2-7.5
		C453.4,186.1,453.2,186,452.9,185.7z"/>
</g>
</svg>
