<svg width="491.3" height="506.3" xmlns="http://www.w3.org/2000/svg" xmlns:xlink="http://www.w3.org/1999/xlink">
 <style type="text/css">.st0{fill:#D84240;}
	.st1{fill:#00C1DE;}
	.st2{fill:#FFCD00;}
	.st3{fill:#0065A1;}
	.st4{fill:#FF595A;}
	.st5{fill:#FFFFFF;}
	.st6{display:none;}
	.st7{display:inline;}
	.st8{enable-background:new    ;}
	.st9{clip-path:url(#SVGID_2_);}
	.st10{font-family: 'Oswald', sans-serif; font-weight: 700;}
	.st11{font-size:20.0452px;}
	@font-face {
		font-family: 'Oswald';
		font-style: normal;
		font-weight: 400;
		src: local('Oswald Regular'), local('Oswald-Regular'), url(https://fonts.gstatic.com/s/oswald/v16/_P8jt3Y65hJ9c4AzRE0V1OvvDin1pK8aKteLpeZ5c0A.woff2) format('woff2');
		unicode-range: U+0000-00FF, U+0131, U+0152-0153, U+02C6, U+02DA, U+02DC, U+2000-206F, U+2074, U+20AC, U+2212, U+2215;
	}
	@keyframes spin {
		0% {
			transform:rotate(0deg);
			transform-origin: center center;
		}
		100% { 
			transform:rotate(360deg);
			transform-origin: center center;
		}
	}
	@keyframes spinccw {
		0% {
			transform:rotate(0deg);
			transform-origin: center center;
		}
		100% { 
			transform:rotate(-360deg);
			transform-origin: center center;
		}
	}
	@keyframes blink-close {
		0% { opacity: 1; }
		1% { opacity: 1; }
		2% { opacity: 0; }
		4% { opacity: 0; }
		100% { opacity: 0; }
	}
	@keyframes blink-open {
		0% { opacity: 0; }
		4% { opacity: 0; }
		5% { opacity: 1; }
		100% { opacity: 1; }
	}
	#eye_2 {
		opacity:1;
	}
	#eye_1 {
		animation: blink-open 10s ease infinite;
	}
	#eye_2 {
		animation: blink-close 10s ease infinite;
	}
	.mandala-outer {
		animation: spin 60s linear infinite;
		transform-box: fill-box;
	}
  <!-- .mandala-star {
		animation: spin 40s linear infinite;
	} -->.mandala-inner {
		animation: spinccw 50s linear infinite;
		transform-box: fill-box;
	}</style>
 <symbol viewBox="-39 -25.1 78 77.7" id="Feather">
  <g id="svg_1">
   <path id="svg_2" d="m11.2,52.6c0,0 -6.8,-9.9 -11,-24.3c-4.2,14.3 -10.9,24.3 -10.9,24.3s-5.3,-17.7 -2.1,-37.9c1.5,-10.7 4,-20.2 6.6,-26.7c-1,4 -1.7,8.9 -1.7,14.3c0,12.8 7.9,23.1 7.9,23.1s7.9,-10.3 7.9,-23.1c0,-5.5 -0.7,-10.6 -1.8,-14.6c2.7,6.4 5.3,16.1 7,27.1c3.3,20.2 -1.9,37.8 -1.9,37.8z" class="st0"/>
   <path id="svg_3" d="m0.1,25.5c0,0 -7.9,-10.3 -7.9,-23.1c-0.1,-5.5 0.6,-10.4 1.6,-14.4c1.4,-5.4 3.7,-8.8 6.2,-8.8c2.5,0 4.7,3.3 6.1,8.5c1.1,4 1.8,9.1 1.8,14.6c0,12.8 -7.8,23.2 -7.8,23.2z" class="st1"/>
  </g>
  <g id="svg_4">
   <circle id="svg_5" r="14" cy="-11.1" cx="-25" class="st0"/>
   <circle id="svg_6" r="8.7" cy="-11.1" cx="-25" class="st1"/>
  </g>
  <g id="svg_7">
   <circle id="svg_8" r="14" cy="-11.1" cx="25" class="st0"/>
   <circle id="svg_9" r="8.7" cy="-11.1" cx="25" class="st1"/>
  </g>
 </symbol>
 <symbol viewBox="-5 -10 10 20" id="jewel">
  <ellipse id="svg_10" ry="10" rx="5" cy="0" cx="0" class="st1"/>
 </symbol>
 <g>
  <title>background</title>
  <rect fill="none" id="canvas_background" height="508.3" width="493.3" y="-1" x="-1"/>
 </g>
 <g>
  <title>Layer 1</title>
  <g id="Mandala">
   <g id="svg_11">
    <polygon id="svg_12" points="253.89999389648438,70.5999984741211 279.5,142.5 348.3999938964844,109.80000305175781 315.70001220703125,178.6999969482422 387.5999755859375,204.3000030517578 315.70001220703125,229.89999389648438 348.3999938964844,298.79998779296875 279.5,266 253.89999389648438,337.8999938964844 228.29998779296875,266 159.39999389648438,298.79998779296875 192.20001220703125,229.89999389648438 120.20001220703125,204.3000030517578 192.20001220703125,178.6999969482422 159.39999389648438,109.80000305175781 228.29998779296875,142.5 " class="st0 mandala-star"/>
    <polygon id="svg_13" points="253.89999389648438,96.5999984741211 274.5,154.5 330,128.10000610351562 303.6000061035156,183.6999969482422 361.6000061035156,204.3000030517578 303.6000061035156,224.89999389648438 330,280.3999938964844 274.5,254 253.89999389648438,311.8999938964844 233.29998779296875,254 177.79998779296875,280.3999938964844 204.20001220703125,224.89999389648438 146.20001220703125,204.3000030517578 204.20001220703125,183.6999969482422 177.79998779296875,128.10000610351562 233.29998779296875,154.5 " class="st1 mandala-star"/>
    <path d="m279.6,352.9c-0.1,0 -0.1,0 0,0l-0.1,0c-1.8,0.3 -3.6,-0.9 -3.9,-2.7c-0.3,-1.8 0.9,-3.5 2.7,-3.9c0,0 0,0 0,0l0.1,0c1.8,-0.3 3.6,0.9 3.9,2.7c0.3,1.8 -0.9,3.6 -2.7,3.9zm9,-1.9c-1.7,0.3 -3.4,-0.8 -3.9,-2.5c-0.4,-1.8 0.6,-3.6 2.4,-4.1c0,0 0.1,0 0.1,0c1.8,-0.4 3.6,0.7 4,2.5c0.4,1.8 -0.7,3.6 -2.5,4l-0.8,-3.3l0.7,3.3c0.2,0.1 0.1,0.1 0,0.1zm-18.3,3.2c-0.1,0 -0.2,0 -0.2,0c0,0 -0.1,0 -0.1,0c-1.8,0.2 -3.5,-1.2 -3.7,-3c-0.2,-1.8 1.2,-3.5 3,-3.7c1.8,-0.2 3.5,1.1 3.7,3c0.2,1.8 -1,3.4 -2.7,3.7zm27.4,-5.6c-1.7,0.3 -3.3,-0.7 -3.8,-2.3c-0.5,-1.8 0.4,-3.6 2.2,-4.2c0,0 0.1,0 0.1,0c1.8,-0.6 3.7,0.4 4.2,2.2c0.6,1.8 -0.4,3.7 -2.2,4.2c0,0 -0.1,0 -0.1,0c-0.2,0 -0.3,0.1 -0.4,0.1zm-36.7,6.3c-0.2,0 -0.3,0 -0.5,0.1l-0.1,0c-1.9,0.1 -3.4,-1.3 -3.5,-3.2c-0.1,-1.9 1.3,-3.4 3.2,-3.5l0.1,0c1.9,-0.1 3.4,1.4 3.5,3.2c0.1,1.7 -1.1,3.1 -2.7,3.4zm45.5,-9.3c-1.6,0.3 -3.2,-0.6 -3.8,-2.1c-0.6,-1.7 0.3,-3.7 2,-4.3c1.7,-0.7 3.7,0.2 4.4,1.9c0.7,1.7 -0.2,3.7 -1.9,4.3l-0.1,0c-0.2,0.1 -0.4,0.2 -0.6,0.2zm-54.9,9.5c-0.2,0 -0.5,0.1 -0.7,0.1c0,0 -0.1,0 -0.1,0c-1.9,0 -3.3,-1.6 -3.3,-3.4c0,-1.9 1.6,-3.3 3.4,-3.3c1.9,0 3.4,1.6 3.3,3.4c0.1,1.5 -1.1,2.9 -2.6,3.2zm63.6,-13.1c-1.5,0.3 -3,-0.5 -3.7,-1.9c-0.8,-1.7 0,-3.7 1.7,-4.4c1.7,-0.8 3.7,0 4.5,1.7c0.8,1.7 0.1,3.7 -1.6,4.4l-0.1,0c-0.3,0.1 -0.6,0.2 -0.8,0.2zm-72.9,12.6c-0.3,0.1 -0.6,0.1 -0.9,0c0,0 -0.1,0 -0.1,0c-1.8,-0.2 -3.2,-1.8 -3.1,-3.6c0.2,-1.8 1.8,-3.2 3.6,-3.1c1.8,0.2 3.3,1.8 3.1,3.6c-0.1,1.6 -1.2,2.8 -2.6,3.1zm81.3,-16.7c-1.4,0.3 -2.9,-0.4 -3.6,-1.7c-0.9,-1.6 -0.3,-3.6 1.3,-4.5l0.2,-0.1c1.6,-0.9 3.7,-0.2 4.5,1.4c0.9,1.6 0.2,3.7 -1.4,4.5l-1.6,-3l1.5,3c-0.3,0.2 -0.6,0.3 -0.9,0.4zm-90.6,15.6c-0.3,0.1 -0.7,0.1 -1.1,0l-0.2,0c-1.8,-0.3 -3.1,-2 -2.8,-3.8c0.3,-1.8 2,-3.1 3.8,-2.8c1.8,0.3 3.1,2 2.9,3.8c-0.1,1.4 -1.3,2.6 -2.6,2.8zm98.7,-20.2c-1.3,0.2 -2.7,-0.3 -3.5,-1.5c-1,-1.6 -0.5,-3.6 1,-4.6c0,0 0.1,-0.1 0.1,-0.1c1.6,-1 3.7,-0.5 4.6,1.1c1,1.6 0.5,3.7 -1.1,4.6l-1.7,-2.9l1.7,2.9c-0.3,0.2 -0.7,0.4 -1.1,0.5zm-108,18.6c-0.4,0.1 -0.9,0.1 -1.3,0l-0.1,0c-1.8,-0.4 -3,-2.2 -2.5,-4c0.4,-1.8 2.2,-3 4,-2.5c1.8,0.4 3,2.2 2.6,4c-0.3,1.2 -1.4,2.2 -2.7,2.5zm115.8,-23.8c-1.2,0.2 -2.6,-0.2 -3.4,-1.3c-1.1,-1.5 -0.7,-3.6 0.8,-4.7c0,0 0.1,-0.1 0.1,-0.1c1.5,-1.1 3.6,-0.7 4.7,0.8c1.1,1.5 0.7,3.6 -0.8,4.7l-1.9,-2.8l1.9,2.8c-0.5,0.4 -0.9,0.6 -1.4,0.6zm-124.9,21.5c-0.5,0.1 -1,0.1 -1.5,-0.1l-0.1,0c-1.8,-0.5 -2.8,-2.4 -2.3,-4.2c0.5,-1.8 2.4,-2.8 4.2,-2.3c1.8,0.5 2.9,2.4 2.4,4.1c-0.4,1.4 -1.4,2.3 -2.7,2.5zm132.4,-27.1c-1.2,0.2 -2.4,-0.2 -3.2,-1.2c-1.2,-1.4 -0.9,-3.6 0.5,-4.7c1.4,-1.2 3.6,-1 4.8,0.5c1.2,1.4 1,3.5 -0.5,4.7l-0.1,0.1c-0.5,0.3 -1,0.5 -1.5,0.6zm-141.3,24.3c-0.5,0.1 -1.1,0.1 -1.7,-0.1c0,0 -0.1,0 -0.1,0c-1.7,-0.6 -2.6,-2.6 -2,-4.3c0.6,-1.7 2.6,-2.6 4.3,-2c1.7,0.6 2.7,2.6 2.1,4.3c-0.5,1.1 -1.5,1.9 -2.6,2.1zm148.3,-30.4c-1.1,0.2 -2.3,-0.1 -3.1,-1c-1.3,-1.4 -1.2,-3.5 0.2,-4.7c1.4,-1.3 3.5,-1.2 4.8,0.2c1.3,1.4 1.2,3.5 -0.2,4.7l-0.1,0.1c-0.4,0.3 -1,0.6 -1.6,0.7zm-157,27c-0.6,0.1 -1.3,0.1 -1.9,-0.2c0,0 -0.1,0 -0.1,0c-1.7,-0.7 -2.5,-2.7 -1.7,-4.4c0.7,-1.7 2.7,-2.5 4.4,-1.7c1.7,0.7 2.5,2.7 1.8,4.4c-0.5,1 -1.5,1.7 -2.5,1.9zm163.7,-33.6c-1,0.2 -2.1,-0.1 -2.9,-0.8c-1.3,-1.3 -1.4,-3.3 -0.2,-4.7c0,0 0.1,-0.1 0.1,-0.1c1.3,-1.3 3.4,-1.4 4.8,-0.1c1.3,1.3 1.4,3.4 0.1,4.7c0,0 0,0 0,0c-0.5,0.6 -1.2,0.9 -1.9,1zm-172.2,29.7c-0.7,0.1 -1.4,0 -2.1,-0.3l-0.1,0c-1.7,-0.8 -2.3,-2.9 -1.5,-4.5c0.8,-1.7 2.9,-2.3 4.5,-1.5c1.7,0.8 2.4,2.9 1.5,4.5c-0.4,0.9 -1.3,1.6 -2.3,1.8zm178.5,-36.6c-1,0.2 -2,-0.1 -2.8,-0.8c-1.4,-1.2 -1.6,-3.3 -0.3,-4.7c1.2,-1.4 3.3,-1.6 4.7,-0.4c1.4,1.2 1.6,3.3 0.4,4.7c0,0 -0.1,0.1 -0.1,0.1c-0.5,0.6 -1.2,1 -1.9,1.1zm-186.7,32.1c-0.8,0.1 -1.6,0 -2.3,-0.4l-0.1,0c-1.6,-0.9 -2.2,-3 -1.2,-4.6c0.9,-1.6 3,-2.2 4.6,-1.2l0.1,0c1.6,0.9 2.1,3 1.2,4.6c-0.6,0.9 -1.4,1.4 -2.3,1.6zm192.5,-39.4c-0.9,0.2 -1.8,0 -2.6,-0.6c-1.5,-1.1 -1.8,-3.2 -0.7,-4.7c0,0 0.1,-0.1 0.1,-0.1c1.1,-1.5 3.2,-1.8 4.7,-0.7c1.5,1.1 1.8,3.2 0.7,4.7l-2.7,-2l2.7,2.1c-0.6,0.7 -1.4,1.2 -2.2,1.3zm-200.5,34.5c-0.8,0.2 -1.7,0 -2.5,-0.5l1.9,-2.8l-1.9,2.7c-1.5,-1 -2,-3.1 -0.9,-4.7c1,-1.5 3.1,-2 4.7,-0.9l0.1,0.1c1.5,1 2,3.1 0.9,4.7c-0.6,0.7 -1.4,1.2 -2.3,1.4zm205.9,-42.2c-0.8,0.2 -1.7,0 -2.4,-0.5c-1.5,-1 -2,-3 -1.1,-4.6l0.1,-0.2c1,-1.5 3.1,-2 4.7,-0.9c1.5,1 2,3.1 0.9,4.7l-2.8,-1.9l2.8,1.9c-0.6,0.8 -1.4,1.3 -2.2,1.5zm-213.5,36.7c-0.9,0.2 -1.9,0 -2.7,-0.7l2.1,-2.7l-2.1,2.6c-1.5,-1.1 -1.8,-3.2 -0.7,-4.7c1.1,-1.5 3.2,-1.8 4.7,-0.7c0,0 0.1,0.1 0.1,0.1c1.5,1.1 1.7,3.3 0.6,4.7c-0.4,0.8 -1.2,1.2 -2,1.4zm218.3,-44.7c-0.7,0.1 -1.5,0 -2.3,-0.4c-1.6,-0.9 -2.2,-2.9 -1.3,-4.6l0.1,-0.1c0.9,-1.6 3,-2.2 4.6,-1.3c1.6,0.9 2.2,3 1.3,4.6l0,0.1c-0.6,1 -1.5,1.6 -2.4,1.7zm-225.5,38.8c-1,0.2 -2,-0.1 -2.8,-0.8c0,0 -0.1,-0.1 -0.1,-0.1c-1.4,-1.2 -1.5,-3.4 -0.3,-4.7c1.2,-1.4 3.3,-1.5 4.7,-0.3c1.4,1.2 1.6,3.4 0.3,4.8c-0.4,0.6 -1.1,0.9 -1.8,1.1zm229.8,-47.1c-0.7,0.1 -1.4,0 -2.1,-0.3c-1.7,-0.8 -2.3,-2.9 -1.5,-4.5c0.8,-1.7 2.8,-2.4 4.5,-1.6c1.7,0.8 2.4,2.8 1.6,4.5l-0.1,0.2c-0.5,0.9 -1.4,1.6 -2.4,1.7zm-236.7,40.7c-1,0.2 -2.1,-0.1 -2.9,-0.9c0,0 -0.1,-0.1 -0.1,-0.1c-1.3,-1.3 -1.3,-3.4 0,-4.8c1.3,-1.3 3.4,-1.3 4.8,0c1.3,1.3 1.3,3.5 0,4.8c-0.5,0.6 -1.1,0.9 -1.8,1zm240.5,-49.2c-0.6,0.1 -1.3,0.1 -1.9,-0.2c-1.7,-0.7 -2.5,-2.7 -1.8,-4.4c0.7,-1.7 2.7,-2.6 4.4,-1.9c1.7,0.7 2.6,2.6 1.9,4.3c0,0 0,0.1 -0.1,0.1c-0.4,1.2 -1.4,1.9 -2.5,2.1zm-246.9,42.4c-1.1,0.2 -2.3,-0.1 -3.1,-1c0,0 -0.1,-0.1 -0.1,-0.1c-1.2,-1.4 -1.1,-3.5 0.3,-4.7s3.5,-1.1 4.7,0.3c1.2,1.4 1.1,3.5 -0.3,4.8c-0.4,0.3 -0.9,0.6 -1.5,0.7zm250.2,-51.2c-0.5,0.1 -1.1,0.1 -1.7,-0.1c-1.8,-0.6 -2.7,-2.4 -2.2,-4.2l0,-0.1c0.6,-1.8 2.5,-2.7 4.3,-2.1c1.8,0.6 2.7,2.5 2.1,4.3l-3.2,-1.1l3.2,1.1c-0.3,1.1 -1.3,2 -2.5,2.2zm-256.2,44.1c-1.2,0.2 -2.5,-0.2 -3.3,-1.2l2.6,-2.1l-2.7,2c-1.2,-1.5 -0.9,-3.6 0.6,-4.7c1.5,-1.1 3.6,-0.9 4.7,0.6c0,0 0.1,0.1 0.1,0.1c1.1,1.5 0.9,3.6 -0.6,4.7c-0.4,0.2 -0.9,0.5 -1.4,0.6zm258.9,-53.1c-0.5,0.1 -1,0.1 -1.4,0c-1.8,-0.5 -2.9,-2.3 -2.4,-4.1l0,-0.2c0.5,-1.8 2.3,-2.8 4.1,-2.4c1.8,0.5 2.8,2.3 2.4,4.1l-3.2,-0.9l3.2,0.9c-0.4,1.5 -1.5,2.4 -2.7,2.6zm-264.4,45.5c-1.3,0.2 -2.6,-0.3 -3.4,-1.4l2.8,-1.9l-2.8,1.8c-1.1,-1.5 -0.7,-3.6 0.8,-4.7c1.5,-1.1 3.6,-0.7 4.7,0.8c0,0 0.1,0.1 0.1,0.1c1,1.5 0.6,3.6 -0.9,4.7c-0.4,0.4 -0.8,0.5 -1.3,0.6zm266.5,-54.6c-0.4,0.1 -0.8,0.1 -1.2,0c-1.8,-0.3 -3,-2.1 -2.7,-3.9l0,-0.2c0.4,-1.8 2.1,-3 4,-2.6c1.8,0.4 3,2.1 2.6,4l-3.3,-0.7l3.3,0.7c-0.3,1.4 -1.4,2.4 -2.7,2.7zm-271.5,46.7c-1.4,0.3 -2.8,-0.3 -3.5,-1.6l2.9,-1.7l-2.9,1.7c-1,-1.6 -0.5,-3.7 1.1,-4.6c1.6,-1 3.7,-0.5 4.6,1.1c0,0 0.1,0.1 0.1,0.1c0.9,1.6 0.4,3.7 -1.2,4.6c-0.4,0.2 -0.7,0.4 -1.1,0.4zm273,-56c-0.3,0.1 -0.7,0.1 -1,0c-1.8,-0.2 -3.1,-1.9 -2.9,-3.7l0,-0.2c0.3,-1.8 2,-3.1 3.8,-2.9c1.8,0.3 3.1,2 2.9,3.8l-3.3,-0.5l3.3,0.5c-0.3,1.6 -1.4,2.8 -2.8,3zm-277.5,47.8c-1.4,0.3 -2.9,-0.4 -3.6,-1.8l3,-1.5l-3,1.5c-0.9,-1.6 -0.2,-3.7 1.4,-4.5c1.6,-0.9 3.7,-0.2 4.5,1.4c0,0 0.1,0.1 0.1,0.1c0.8,1.7 0.2,3.7 -1.5,4.5c-0.3,0.2 -0.6,0.3 -0.9,0.3zm278.4,-57.1c-0.3,0 -0.5,0.1 -0.8,0.1c-1.8,-0.1 -3.2,-1.7 -3.1,-3.5c0,0 0,-0.2 0,-0.2c0.1,-1.8 1.8,-3.2 3.6,-3.1c1.8,0.1 3.2,1.8 3.1,3.6l-3.3,-0.3l3.3,0.3c-0.1,1.6 -1.3,2.9 -2.8,3.1zm-282.5,48.7c-1.5,0.3 -3,-0.5 -3.7,-1.9c0,0 0,-0.1 0,-0.1c-0.7,-1.7 0.1,-3.7 1.8,-4.4c1.7,-0.7 3.7,0.1 4.4,1.8c0.7,1.7 0,3.7 -1.7,4.5c-0.3,-0.1 -0.5,0 -0.8,0.1zm282.9,-58c-0.2,0 -0.5,0.1 -0.7,0.1c-1.9,0 -3.3,-1.6 -3.3,-3.4c0,-1.9 1.5,-3.4 3.3,-3.4c1.9,0 3.4,1.5 3.4,3.3c0,0 0,0.2 0,0.2c0,1.6 -1.2,2.9 -2.7,3.2zm-286.3,49.2c-1.6,0.3 -3.2,-0.6 -3.7,-2.1c0,0 0,-0.1 0,-0.1c-0.6,-1.8 0.3,-3.7 2.1,-4.3c1.8,-0.6 3.7,0.3 4.3,2.1c0.6,1.7 -0.3,3.7 -2,4.3c-0.3,0.1 -0.5,0.1 -0.7,0.1zm286,-58.5c-0.2,0 -0.3,0 -0.5,0.1c-1.9,0.1 -3.4,-1.4 -3.5,-3.2c-0.1,-1.9 1.3,-3.5 3.1,-3.6c1.9,-0.1 3.5,1.3 3.6,3.1c0,0 0,0.2 0,0.2c0.1,1.6 -1.1,3.1 -2.7,3.4zm-288.8,49.7c-1.7,0.3 -3.4,-0.7 -3.9,-2.4l3.2,-0.9l-3.2,0.9c-0.5,-1.8 0.5,-3.6 2.3,-4.2c1.8,-0.5 3.6,0.5 4.2,2.3l0,0.1c0.5,1.8 -0.5,3.6 -2.3,4.1c-0.1,0 -0.2,0.1 -0.3,0.1zm288,-59.1c-0.1,0 -0.1,0 -0.2,0c-1.8,0.2 -3.5,-1.1 -3.8,-2.9c-0.2,-1.8 1,-3.6 2.9,-3.8c1.8,-0.2 3.5,1 3.8,2.9l0,0.1c0.2,1.8 -1,3.4 -2.7,3.7zm-290.3,50c-1.8,0.3 -3.5,-0.8 -3.9,-2.6l3.3,-0.7l-3.3,0.7c-0.4,-1.8 0.7,-3.6 2.5,-4c1.8,-0.4 3.6,0.7 4,2.5c0,0 0,0.1 0,0.1c0.4,1.8 -0.7,3.6 -2.6,4c0,0 0,0 0,0zm288.8,-59.2c-1.8,0.3 -3.6,-0.9 -3.9,-2.7l0,-0.1c0,0 0,-0.1 0,-0.1c0,0 0,-0.1 0,-0.1c-0.3,-1.8 0.8,-3.6 2.7,-4c1.8,-0.3 3.6,0.8 3.9,2.6l0,0.1c0,0 0,0.1 0,0.1c0,0 0,0.1 0,0.1l0,0.1c0.4,1.9 -0.8,3.7 -2.7,4zm-290.6,50c0,0 -0.1,0 0,0c-1.9,0.3 -3.7,-0.9 -3.9,-2.8l0,-0.1c-0.3,-1.8 0.9,-3.6 2.8,-3.8c1.8,-0.3 3.6,1 3.8,2.8l0,0.1c0.3,1.8 -0.9,3.5 -2.7,3.8zm288.5,-59.5c-1.7,0.3 -3.4,-0.7 -3.8,-2.4c0,0 0,-0.2 0,-0.2c-0.5,-1.8 0.6,-3.6 2.4,-4.1c1.8,-0.4 3.6,0.6 4.1,2.4l-3.3,0.8l3.3,-0.8c0.5,1.8 -0.6,3.6 -2.4,4.1c-0.1,0.2 -0.2,0.2 -0.3,0.2zm-289.7,50.2c-0.1,0 -0.2,0 -0.3,0c-1.8,0.2 -3.5,-1.1 -3.7,-3l0,-0.1c-0.2,-1.8 1.2,-3.5 3.1,-3.6c1.8,-0.2 3.5,1.2 3.6,3.1c0.2,1.7 -1,3.3 -2.7,3.6zm287.1,-59.2c-1.6,0.3 -3.2,-0.6 -3.8,-2.2c0,0 -0.1,-0.2 -0.1,-0.2c-0.6,-1.8 0.4,-3.7 2.2,-4.2c1.8,-0.5 3.7,0.4 4.2,2.2l-3.2,1l3.2,-1c0.6,1.8 -0.4,3.7 -2.1,4.2c-0.1,0.2 -0.2,0.2 -0.4,0.2zm-287.6,49.9c-0.2,0 -0.4,0.1 -0.5,0.1c-1.9,0 -3.4,-1.4 -3.4,-3.3l3.4,-0.1l-3.4,0c-0.1,-1.9 1.4,-3.4 3.2,-3.5c1.9,-0.1 3.4,1.4 3.5,3.2c0,0 0,0.1 0,0.1c-0.1,1.8 -1.2,3.2 -2.8,3.5zm284.5,-58.7c-1.5,0.3 -3.1,-0.5 -3.7,-2c0,0 -0.1,-0.1 -0.1,-0.2c-0.7,-1.7 0.2,-3.7 1.9,-4.3c1.7,-0.7 3.7,0.2 4.3,1.9l-3.1,1.2l3.1,-1.2c0.7,1.7 -0.2,3.7 -1.9,4.4c-0.1,0.1 -0.3,0.2 -0.5,0.2zm-284.5,49.3c-0.2,0 -0.5,0.1 -0.7,0.1c-1.9,-0.1 -3.3,-1.6 -3.2,-3.4l0,-0.1c0.1,-1.9 1.6,-3.3 3.5,-3.2c1.9,0.1 3.3,1.6 3.2,3.5c-0.1,1.5 -1.3,2.8 -2.8,3.1zm280.7,-57.8c-1.5,0.3 -3,-0.5 -3.7,-1.9c-0.8,-1.7 -0.1,-3.7 1.6,-4.5c1.7,-0.8 3.7,-0.1 4.5,1.6c0,0 0.1,0.1 0.1,0.2c0.8,1.7 0,3.7 -1.7,4.4c-0.2,0 -0.5,0.1 -0.8,0.2zm-280.1,48.5c-0.3,0.1 -0.6,0.1 -1,0c-1.8,-0.2 -3.2,-1.8 -3,-3.7l3.3,0.3l-3.3,-0.4c0.2,-1.8 1.8,-3.2 3.7,-3c1.8,0.2 3.2,1.8 3,3.7c0,0 0,0.1 0,0.1c-0.1,1.6 -1.3,2.8 -2.7,3zm275.9,-56.9c-1.4,0.3 -2.9,-0.4 -3.6,-1.7c-0.9,-1.6 -0.3,-3.7 1.3,-4.6c1.6,-0.9 3.6,-0.3 4.5,1.3c0,0 0.1,0.1 0.1,0.2c0.9,1.6 0.3,3.7 -1.4,4.5c-0.3,0.2 -0.6,0.3 -0.9,0.3zm-274.7,47.6c-0.4,0.1 -0.7,0.1 -1.1,0c-1.8,-0.3 -3.1,-2 -2.8,-3.8l0,-0.1c0.3,-1.8 2,-3.1 3.9,-2.8c1.8,0.3 3.1,2 2.8,3.9c-0.3,1.5 -1.4,2.6 -2.8,2.8zm269.9,-55.6c-1.3,0.3 -2.7,-0.3 -3.5,-1.6c-1,-1.6 -0.6,-3.6 1,-4.6c1.5,-1 3.6,-0.6 4.7,1c0,0 0.1,0.1 0.1,0.2c1,1.6 0.5,3.7 -1.1,4.6c-0.4,0.2 -0.8,0.3 -1.2,0.4zm-268.1,46.4c-0.4,0.1 -0.9,0.1 -1.3,0c-1.8,-0.4 -3,-2.2 -2.6,-4l0,-0.2c0.4,-1.8 2.3,-2.9 4.1,-2.5c1.8,0.4 2.9,2.3 2.5,4.1c-0.3,1.4 -1.4,2.4 -2.7,2.6zm262.8,-54.1c-1.3,0.2 -2.6,-0.3 -3.4,-1.4c-1.1,-1.5 -0.8,-3.6 0.7,-4.7c1.5,-1.1 3.6,-0.8 4.7,0.7c0,0 0.1,0.1 0.1,0.2c1.1,1.5 0.7,3.6 -0.8,4.7c-0.4,0.2 -0.8,0.4 -1.3,0.5zm-260.4,45.1c-0.5,0.1 -1,0.1 -1.6,-0.1c-1.8,-0.5 -2.8,-2.4 -2.3,-4.2l0,-0.2c0.6,-1.8 2.4,-2.8 4.2,-2.2c1.8,0.6 2.8,2.4 2.2,4.2c-0.3,1.4 -1.3,2.3 -2.5,2.5zm254.7,-52.5c-1.2,0.2 -2.4,-0.2 -3.2,-1.2c-1.2,-1.4 -1,-3.5 0.4,-4.7c1.4,-1.2 3.5,-1 4.7,0.4c0,0 0.1,0.1 0.1,0.2c1.2,1.4 0.9,3.6 -0.5,4.7c-0.5,0.3 -1,0.5 -1.5,0.6zm-251.8,43.6c-0.6,0.1 -1.2,0.1 -1.7,-0.1c-1.7,-0.6 -2.7,-2.5 -2,-4.3l0,-0.1c0.6,-1.7 2.6,-2.6 4.3,-2c1.7,0.6 2.6,2.6 2,4.3c-0.4,1.2 -1.4,2 -2.6,2.2zm245.5,-50.6c-1.1,0.2 -2.2,-0.1 -3,-0.9c0,0 -0.1,-0.1 -0.1,-0.1c-1.3,-1.4 -1.2,-3.5 0.2,-4.7c1.4,-1.3 3.5,-1.2 4.7,0.2l-2.5,2.3l2.5,-2.3c1.3,1.3 1.2,3.5 -0.1,4.7c-0.5,0.4 -1,0.7 -1.7,0.8zm-241.9,41.9c-0.7,0.1 -1.3,0.1 -2,-0.2c-1.7,-0.8 -2.4,-2.7 -1.7,-4.4l3.1,1.4l-3.1,-1.4c0.7,-1.7 2.7,-2.5 4.4,-1.8c1.7,0.7 2.5,2.7 1.8,4.4l-0.1,0.1c-0.4,1.1 -1.4,1.7 -2.4,1.9zm235.3,-48.4c-1,0.2 -2,-0.1 -2.8,-0.8c0,0 -0.1,-0.1 -0.1,-0.1c-1.3,-1.3 -1.4,-3.4 -0.1,-4.7c1.3,-1.3 3.4,-1.4 4.7,-0.1l-2.3,2.4l2.3,-2.4c1.3,1.3 1.5,3.4 0.2,4.7c-0.6,0.5 -1.2,0.8 -1.9,1zm-231.3,39.9c-0.7,0.1 -1.5,0 -2.1,-0.3c-1.6,-0.9 -2.3,-2.8 -1.5,-4.5c0,0 0.1,-0.1 0.1,-0.1c0.9,-1.6 2.9,-2.3 4.5,-1.4c1.6,0.9 2.3,2.9 1.4,4.5c-0.5,1 -1.4,1.7 -2.4,1.8zm224.3,-46.1c-0.9,0.2 -1.9,0 -2.7,-0.7c-1.4,-1.2 -1.7,-3.3 -0.5,-4.8c1.2,-1.4 3.2,-1.7 4.7,-0.5l0.1,0.1c1.4,1.2 1.7,3.3 0.5,4.7c-0.7,0.7 -1.4,1.1 -2.1,1.2zm-219.7,38c-0.8,0.1 -1.6,0 -2.3,-0.4c-1.6,-1 -2.1,-3 -1.2,-4.6c0,0 0.1,-0.1 0.1,-0.1c1,-1.6 3,-2.1 4.6,-1.1c1.6,1 2.1,3 1.1,4.6c-0.5,0.9 -1.4,1.4 -2.3,1.6zm212.2,-43.7c-0.9,0.2 -1.8,0 -2.6,-0.6c-1.5,-1.1 -1.9,-3.2 -0.8,-4.7c1.1,-1.5 3.2,-1.9 4.7,-0.8l0.2,0.1c1.5,1.1 1.8,3.2 0.7,4.7c-0.6,0.8 -1.4,1.2 -2.2,1.3zm-207.1,35.9c-0.9,0.2 -1.8,0 -2.5,-0.5c-1.5,-1.1 -1.9,-3.2 -0.8,-4.7l0,0c1,-1.5 3.1,-1.9 4.7,-0.9c1.5,1 1.9,3.1 0.9,4.7l-0.1,0.1c-0.6,0.7 -1.4,1.1 -2.2,1.3zm199.3,-41.1c-0.8,0.2 -1.7,0 -2.4,-0.5c-1.6,-1 -2.1,-3.1 -1.1,-4.6c1,-1.6 3,-2.1 4.6,-1.1c0,0 0.1,0.1 0.1,0.1c1.6,1 2,3.1 1,4.6c-0.5,0.9 -1.3,1.4 -2.2,1.5zm-193.7,33.5c-0.9,0.2 -1.9,0 -2.7,-0.7c-1.4,-1.1 -1.7,-3.2 -0.6,-4.7c0,0 0.1,-0.1 0.1,-0.1c1.2,-1.4 3.3,-1.7 4.7,-0.5c1.4,1.2 1.7,3.3 0.5,4.7c-0.5,0.8 -1.2,1.2 -2,1.3zm185.6,-38.2c-0.7,0.1 -1.5,0 -2.2,-0.3c0,0 -0.1,-0.1 -0.1,-0.1c-1.6,-0.9 -2.2,-2.9 -1.3,-4.6c0.9,-1.6 2.9,-2.2 4.6,-1.3l-1.6,2.9l1.7,-2.9c1.6,0.9 2.3,2.9 1.4,4.5c-0.6,1 -1.5,1.6 -2.5,1.8zm-179.6,31.1c-1,0.2 -2.1,-0.1 -2.9,-0.8c-1.4,-1.2 -1.5,-3.4 -0.2,-4.7l2.5,2.3l-2.5,-2.3c1.2,-1.4 3.3,-1.5 4.7,-0.3c1.4,1.2 1.5,3.4 0.3,4.7c0,0 -0.1,0.1 -0.1,0.1c-0.4,0.5 -1.1,0.9 -1.8,1zm171.3,-35.3c-0.7,0.1 -1.4,0.1 -2,-0.3c-1.7,-0.8 -2.4,-2.8 -1.7,-4.5c0.8,-1.7 2.7,-2.4 4.4,-1.6c0,0 0.1,0 0.1,0c1.7,0.8 2.4,2.8 1.6,4.5c-0.5,1.1 -1.4,1.7 -2.4,1.9zm-164.8,28.5c-1.1,0.2 -2.2,-0.1 -3,-0.9c-1.3,-1.3 -1.3,-3.4 0,-4.7c0,0 0.1,-0.1 0.1,-0.1c1.3,-1.3 3.5,-1.3 4.7,0.1c1.3,1.3 1.3,3.5 -0.1,4.7c-0.4,0.5 -1.1,0.8 -1.7,0.9zm156.2,-32.1c-0.6,0.1 -1.2,0.1 -1.8,-0.2c-1.7,-0.7 -2.6,-2.6 -2,-4.4c0.7,-1.7 2.6,-2.6 4.3,-1.9l0.1,0c1.7,0.7 2.6,2.6 1.9,4.3c-0.5,1.2 -1.4,2 -2.5,2.2zm-149.4,25.8c-1.1,0.2 -2.4,-0.2 -3.2,-1.1c-1.2,-1.4 -1,-3.5 0.4,-4.7l2.2,2.5l-2.1,-2.6c1.4,-1.2 3.5,-1.1 4.7,0.3c1.2,1.4 1.1,3.5 -0.3,4.7c0,0 -0.1,0.1 -0.1,0.1c-0.5,0.5 -1,0.7 -1.6,0.8zm140.5,-28.9c-0.5,0.1 -1.1,0.1 -1.7,-0.1c-1.8,-0.6 -2.8,-2.5 -2.2,-4.2c0.6,-1.8 2.4,-2.7 4.2,-2.2c0,0 0.1,0 0.1,0c1.8,0.6 2.7,2.5 2.1,4.2c-0.3,1.2 -1.3,2.1 -2.5,2.3zm-133.2,23.1c-1.2,0.2 -2.5,-0.2 -3.3,-1.3c-1.1,-1.5 -0.8,-3.6 0.7,-4.7l2,2.7l-2,-2.7c1.5,-1.1 3.6,-0.9 4.7,0.6c1.1,1.5 0.9,3.6 -0.6,4.7c0,0 -0.1,0.1 -0.1,0.1c-0.4,0.3 -0.9,0.5 -1.4,0.6zm124.2,-25.6c-0.5,0.1 -1,0.1 -1.5,0c-1.8,-0.5 -2.9,-2.3 -2.5,-4.1c0.4,-1.8 2.2,-2.9 4,-2.5c0,0 0.1,0 0.1,0c1.8,0.5 2.9,2.3 2.4,4.1c-0.2,1.3 -1.2,2.2 -2.5,2.5zm-116.6,20.2c-1.3,0.2 -2.7,-0.3 -3.4,-1.5c-1,-1.6 -0.6,-3.6 1,-4.6l1.8,2.8l-1.8,-2.8c1.5,-1 3.6,-0.6 4.7,0.9c1,1.5 0.6,3.6 -0.9,4.6c0,0 -0.1,0.1 -0.1,0.1c-0.4,0.2 -0.8,0.4 -1.3,0.5zm107.5,-22.2c-0.4,0.1 -0.8,0.1 -1.2,0c-1.8,-0.3 -3.1,-2.1 -2.8,-3.9c0.3,-1.8 2,-3.1 3.9,-2.7l0.1,0c1.8,0.3 3,2.1 2.7,3.9c-0.3,1.4 -1.4,2.5 -2.7,2.7zm-99.5,17.3c-1.4,0.3 -2.8,-0.4 -3.5,-1.6c-0.9,-1.6 -0.4,-3.7 1.3,-4.6l1.7,2.9l-1.6,-3c1.6,-0.9 3.7,-0.4 4.6,1.2c0.9,1.6 0.4,3.7 -1.2,4.6c0,0 -0.1,0.1 -0.1,0.1c-0.5,0.2 -0.9,0.3 -1.2,0.4zm90.2,-18.7c-0.3,0.1 -0.7,0.1 -1.1,0c-1.8,-0.2 -3.2,-1.9 -3,-3.7c0.2,-1.8 1.8,-3.2 3.7,-3l0.2,0c1.8,0.2 3.1,1.9 2.9,3.8c-0.2,1.6 -1.3,2.7 -2.7,2.9zm-82,14.3c-1.5,0.3 -3,-0.4 -3.6,-1.8c-0.8,-1.7 -0.1,-3.7 1.6,-4.5l1.5,3l-1.4,-3c1.7,-0.8 3.7,-0.2 4.5,1.5c0.8,1.7 0.2,3.7 -1.5,4.5c0,0 -0.1,0.1 -0.1,0.1c-0.4,0 -0.7,0.1 -1,0.2zm72.7,-15c-0.3,0 -0.5,0.1 -0.8,0.1c-1.9,-0.1 -3.3,-1.7 -3.2,-3.5c0.1,-1.9 1.6,-3.3 3.5,-3.2l0.1,0c1.9,0.1 3.3,1.7 3.2,3.5c-0.2,1.5 -1.4,2.8 -2.8,3.1zm-64.1,11.1c-1.5,0.3 -3.1,-0.5 -3.7,-2c-0.7,-1.7 0.1,-3.7 1.8,-4.4l1.3,3.1l-1.3,-3.1c1.7,-0.7 3.7,0.1 4.4,1.8c0.7,1.7 -0.1,3.7 -1.8,4.4c0,0 -0.1,0 -0.1,0c-0.2,0.1 -0.4,0.2 -0.6,0.2zm54.7,-11.3c-0.2,0 -0.4,0.1 -0.6,0.1l-0.1,0c-1.9,0 -3.4,-1.5 -3.4,-3.3c0,-1.9 1.5,-3.4 3.3,-3.4l0.1,0c1.9,0 3.4,1.4 3.4,3.3c0.1,1.6 -1.1,3 -2.7,3.3zm-45.9,8c-1.6,0.3 -3.3,-0.6 -3.8,-2.2c-0.6,-1.7 0.3,-3.6 2,-4.2c0,0 0.1,0 0.1,0c1.8,-0.6 3.7,0.4 4.2,2.1c0.6,1.8 -0.4,3.7 -2.1,4.2c-0.1,0 -0.3,0 -0.4,0.1zm36.6,-7.6c-0.1,0 -0.3,0 -0.4,0.1c-1.8,0.2 -3.5,-1.2 -3.6,-3.1s1.2,-3.5 3,-3.6l0.1,0c1.9,-0.1 3.5,1.3 3.6,3.1c0.1,1.7 -1.1,3.2 -2.7,3.5zm-27.7,4.9c-1.7,0.3 -3.4,-0.7 -3.9,-2.4c-0.5,-1.8 0.6,-3.6 2.4,-4.1l0.9,3.2l-0.8,-3.3c1.8,-0.5 3.6,0.5 4.1,2.3c0.5,1.8 -0.5,3.6 -2.3,4.1c0,0 -0.1,0 -0.1,0c-0.2,0.1 -0.3,0.1 -0.3,0.2zm18.4,-3.8c0,0 -0.1,0 -0.1,0c-1.8,0.3 -3.6,-1 -3.8,-2.8c-0.3,-1.8 1,-3.5 2.8,-3.8l0.1,0c1.8,-0.3 3.5,1 3.8,2.8c0.1,1.8 -1.1,3.4 -2.8,3.8zm-9.3,1.6c-1.8,0.3 -3.5,-0.8 -3.9,-2.6c-0.4,-1.8 0.8,-3.6 2.6,-4l0.7,3.3l-0.6,-3.3c1.8,-0.4 3.6,0.8 4,2.6c0.4,1.8 -0.7,3.6 -2.6,4c-0.1,-0.1 -0.2,0 -0.2,0c0,0 0,0 0,0z" class="st0" id="More_dots"/>
    <g id="svg_14" class="mandala-inner">
     <use transform="matrix(0.7748,0.3588,0.3588,-0.7748,427.1975,119.9985) " y="-92.523953" x="-184.596652" id="XMLID_31_" height="77.7" width="78" xlink:href="#Feather"/>
     <use transform="matrix(0.8123,-0.2629,-0.2629,-0.8123,357.4034,116.8889) " y="24.309992" x="-191.665411" id="XMLID_30_" height="77.7" width="78" xlink:href="#Feather"/>
     <use transform="matrix(0.3902000000000002,-0.7594000000000004,-0.7594000000000004,-0.3902000000000002,305.69249999999994,168.93790000000004) " y="115.540356" x="-111.264771" id="XMLID_29_" height="77.7" width="78" xlink:href="#Feather"/>
     <use transform="matrix(-0.26,-0.8133,-0.8133,0.26,306.5611,237.5298) " y="127.73046" x="9.857641" id="XMLID_28_" height="77.7" width="78" xlink:href="#Feather"/>
     <use transform="matrix(-0.7580999999999999,-0.39269999999999994,-0.39269999999999994,0.7580999999999999,354.1397,287.4021) " y="48.168051" x="102.442602" id="XMLID_27_" height="77.7" width="78" xlink:href="#Feather"/>
     <use transform="matrix(-0.8141999999999999,0.2570999999999999,0.2570999999999999,0.8141999999999999,421.4008999999999,288.80449999999996) " y="-72.004343" x="109.53954" id="XMLID_26_" height="77.7" width="78" xlink:href="#Feather"/>
     <use transform="matrix(-0.3953,0.7568,0.7568,0.3953,475.7672,240.0302) " y="-167.322792" x="35.287354" id="XMLID_25_" height="77.7" width="78" xlink:href="#Feather"/>
     <use transform="matrix(0.2543,0.8151000000000002,0.8151000000000002,-0.2543,473.77400000000006,169.76700000000002) " y="-176.032747" x="-86.088943" id="XMLID_22_" height="77.7" width="78" xlink:href="#Feather"/>
    </g>
    <g id="svg_15" class="mandala-outer">
     <use transform="matrix(0.5421,0.2185,0.2185,-0.5421,458.838,53.4554) " y="-112.726509" x="-256.40197" id="XMLID_2_" height="77.7" width="78" xlink:href="#Feather"/>
     <use transform="matrix(0.5407,-0.2218,-0.2218,-0.5407,323.3235,49.5477) " y="63.866319" x="-255.880471" id="XMLID_9_" height="77.7" width="78" xlink:href="#Feather"/>
     <use transform="matrix(0.22669999999999998,-0.5386999999999998,-0.5386999999999998,-0.22669999999999998,237.6611,133.2062) " y="189.37664" x="-129.257758" id="XMLID_8_" height="77.7" width="78" xlink:href="#Feather"/>
     <use transform="matrix(-0.2199,-0.5415,-0.5415,0.2199,237.9933,268.7246) " y="192.084489" x="49.197358" id="XMLID_7_" height="77.7" width="78" xlink:href="#Feather"/>
     <use transform="matrix(-0.538,-0.2285,-0.2285,0.538,321.3139,353.7777) " y="66.52572" x="176.731455" id="XMLID_6_" height="77.7" width="78" xlink:href="#Feather"/>
     <use transform="matrix(-0.5423,0.2181,0.2181,0.5423,456.7523,354.8036) " y="-112.55528" x="178.455289" id="XMLID_5_" height="77.7" width="78" xlink:href="#Feather"/>
     <use transform="matrix(-0.2302,0.5372,0.5372,0.2302,542.2305,271.8531) " y="-240.561349" x="53.329119" id="XMLID_4_" height="77.7" width="78" xlink:href="#Feather"/>
     <use transform="matrix(0.2162,0.543,0.543,-0.2162,543.6829,136.4215) " y="-242.877705" x="-125.710018" id="XMLID_3_" height="77.7" width="78" xlink:href="#Feather"/>
     <use transform="matrix(0.5421,0.2185,0.2185,-0.5421,458.838,53.4554) " y="-112.726509" x="-256.40197" id="XMLID_1_" height="77.7" width="78" xlink:href="#Feather"/>
    </g>
    <g id="svg_16" class="mandala-outer">
     <use id="svg_17" transform="matrix(1,0,0,-1,242.9406,199.6682) " y="-10" x="-142" height="20" width="10" xlink:href="#jewel"/>
     <use id="svg_18" transform="matrix(1,0,0,-1,538.9406,199.6682) " y="-10" x="-142" height="20" width="10" xlink:href="#jewel"/>
     <use id="svg_19" transform="matrix(0,1,1,0,390.9406,55.6685) " y="-147" x="-5" height="20" width="10" xlink:href="#jewel"/>
     <use id="svg_20" transform="matrix(0,1,1,0,390.9406,351.6685) " y="-147" x="-5" height="20" width="10" xlink:href="#jewel"/>
     <use id="svg_21" transform="matrix(0.7071,0.7071,0.7071,-0.7071,289.1174,96.1881) " y="-106.874558" x="-101.874558" height="20" width="10" xlink:href="#jewel"/>
     <use id="svg_22" transform="matrix(0.7071,0.7071,0.7071,-0.7071,498.421,305.4917) " y="-106.874558" x="-101.874558" height="20" width="10" xlink:href="#jewel"/>
     <use id="svg_23" transform="matrix(-0.7071,0.7071,0.7071,0.7071,495.5924,99.0167) " y="-106.874558" x="91.874558" height="20" width="10" xlink:href="#jewel"/>
     <use id="svg_24" transform="matrix(-0.7071,0.7071,0.7071,0.7071,286.2888,308.3203) " y="-106.874558" x="91.874558" height="20" width="10" xlink:href="#jewel"/>
    </g>
   </g>
  </g>
  <g id="Kitters">
   <g id="Kitters_1_">
    <path d="m342.3,194.2c-9.4,1.6 -17.8,-5.4 -19.5,-13.9c2.1,-4.3 -1.6,-11.5 -1.6,-11.5s0,0 0.3,-2.1c12,-33.7 -7.1,-39.9 -16,-40.1c-8.9,-0.2 -26.9,23.3 -32.7,26.4c-3.3,-0.8 -19.6,-1.8 -20,-1.8l0,0c0,0 0,0 0,0c0,0 0,0 0,0l0,0c-0.4,0 -16.7,1.1 -20,1.8c-5.8,-3.1 -23.9,-26.6 -32.7,-26.4c-8.9,0.2 -28,6.4 -16,40.1c0.3,2.1 0.3,2.1 0.3,2.1s-3.6,7.1 -1.6,11.5c-1.7,8.5 -10.2,15.5 -19.5,13.9c-1.4,8.5 11.3,11.1 0.8,15.1c6.2,26.3 21.7,62.6 88.4,63.4l0,0c0.1,0 0.2,0 0.4,0c0.1,0 0.2,0 0.4,0l0,0c66.7,-0.7 82.2,-37.1 88.4,-63.4c-10.7,-4.1 2,-6.7 0.6,-15.1z" class="st2" id="Fur_2_"/>
    <g id="Face_2_">
     <g id="svg_25">
      <path id="svg_26" d="m217,157.7c-1.1,0.7 -2.4,1.1 -3.7,1.3c-1.3,0.2 -2.6,0.2 -4,-0.2c-0.7,-0.2 -1.4,-0.4 -2.1,-0.8c-0.4,-0.2 -0.7,-0.4 -1.1,-0.7c-0.3,-0.3 -0.5,-0.4 -0.8,-0.6c-1,-0.8 -1.8,-1.7 -2.6,-2.5c-1.5,-1.7 -2.8,-3.5 -3.8,-5.2c-0.5,-0.8 -1.1,-1.7 -1.7,-2.5c-0.6,-0.9 -1.3,-1.7 -2.4,-2.7c1.2,-0.7 2.7,-0.8 4.1,-0.6c1.4,0.2 2.7,0.7 3.9,1.4c1.2,0.7 2.2,1.6 3,2.4c0.9,0.8 1.6,1.7 2.3,2.6c0.7,0.9 1.4,1.7 1.9,2.5c0.1,0.2 0.3,0.4 0.4,0.6c0,0.1 0.1,0.2 0.2,0.4c0.2,0.2 0.5,0.6 0.8,0.9c0.7,0.6 1.5,1.2 2.5,1.8l3.1,1.9z" class="st1"/>
     </g>
     <g id="svg_27">
      <path id="svg_28" d="m192.6,151.2c0.7,-1 1.9,-1.4 3.2,-1.5c1.2,-0.1 2.4,0.3 3.5,0.8c1.1,0.5 2,1.3 2.8,2c0.7,0.7 1.3,1.5 1.8,2.2c0.5,0.7 0.9,1.3 1.2,1.9l1.1,1.8c0.8,1.2 1.7,2.6 3.2,4.4c-2,1.1 -4.4,1 -6.5,0.1c-1,-0.4 -2,-1.1 -2.8,-1.8c-0.8,-0.7 -1.5,-1.5 -2,-2.3c-1.1,-1.5 -1.7,-2.8 -2.2,-3.9c-0.3,-0.6 -0.7,-1.2 -1.1,-1.8c-0.2,-0.3 -0.5,-0.6 -0.8,-0.9c-0.5,-0.5 -0.9,-0.7 -1.4,-1z" class="st1"/>
     </g>
     <g id="svg_29">
      <path id="svg_30" d="m193,157.9c0.8,-0.7 1.8,-0.9 2.8,-0.9c1,0 1.9,0.2 2.7,0.6c1.6,0.7 2.8,1.6 3.6,2.4c0.4,0.4 0.7,0.7 1.1,1.1c0.3,0.4 0.7,0.8 1,1.2c0.8,0.9 1.6,1.9 3,3.4c-1.4,1.5 -3.3,1.9 -5.1,1.8c-0.9,-0.1 -1.8,-0.3 -2.6,-0.7c-0.8,-0.4 -1.6,-0.9 -2.2,-1.5c-1.2,-1.1 -1.9,-2.2 -2.4,-3.3c-0.3,-0.6 -0.5,-1.1 -0.7,-1.8c-0.3,-0.7 -0.6,-1.4 -1.2,-2.3z" class="st1"/>
     </g>
     <path id="svg_31" d="m232.7,152.7c-5.8,-3.1 -24,-26.3 -32.9,-26.2c-9.7,0.1 -28.1,7.4 -15.4,42.1c0,0 -8.2,-29.3 3.1,-35.6c9.2,-5.1 23.4,15.5 24.6,18.5c1.2,3 4.9,9.1 11.5,8.5c6.6,-0.5 9.1,-7.3 9.1,-7.3z" class="st3"/>
     <path id="svg_32" d="m213.3,158.1c-3.6,0.7 -7.7,0.8 -10.5,-1.6c-1.5,3.3 -0.2,7.6 2.9,9.6c-4.4,1.4 -9.2,1 -13.3,-1c-0.9,3.1 -1.1,7.7 1.8,9.2c-4.9,-1.1 -13.8,2.6 -20.4,0.2c0.7,7.6 12.8,12.4 15.9,12c-0.5,-1.2 3.9,-7.4 12.2,-9.4c1.7,-0.4 -0.1,-5.9 4.6,-7.5c1.6,-0.6 3.8,-0.5 4.2,-2.2c0.2,-1 -0.3,-2.2 0.2,-3c0.3,-0.5 0.8,-0.7 1.3,-0.9c2.6,-1 9.4,-2.7 12,-3.5c2.5,-0.8 1.4,-0.9 2.5,-3.4c-4.5,0.2 -8.9,0.7 -13.4,1.5z" class="st3"/>
     <g id="svg_33">
      <path id="svg_34" d="m232.3,222.9c-0.8,-1.8 -1.3,-3.9 -0.7,-5.8c0.6,-2.2 2.4,-4.1 2,-6.3c0.5,1.2 0.7,2.6 0.6,3.9c-0.1,1.4 -0.6,2.9 -0.4,4.3c0.3,2 1.8,3.6 3.2,5.1c1,1.1 4.6,6.2 1.3,5.2c-2.6,-0.7 -5,-4.2 -6,-6.4z" class="st3"/>
      <path id="svg_35" d="m224.4,179.9c2.7,2.5 3.6,0.5 4.6,-1.1c1.7,7 6.1,13.2 8.6,10.7c2.2,2.7 2.2,6.4 2.3,9.9c0.1,3.4 0.8,7.3 3.7,9.3c-1.8,-3.1 -0.9,-7 -0.6,-10.5c0.5,-6.5 -1.9,-12.9 -5.9,-18.1c-1.2,-1.6 -2.7,0.8 -2.7,0.8c-1.5,-2.4 -3,-4.9 -4.4,-7.4c-0.6,-1 -1.7,-1.2 -2.7,-0.5c-0.9,0.7 -1.9,1 -2.9,0.4c-0.5,-0.3 -0.8,-0.9 -1,-1.4c-0.7,-2.2 -0.7,-4.4 -0.6,-6.6c-5.6,6.9 0.9,13.9 1.6,14.5z" class="st3"/>
      <path id="svg_36" d="m235.4,168.4c1.8,-0.9 3.6,-1.7 5.5,-2.3c-2.6,3.1 -3,7.8 -0.9,11.2c0.6,-0.9 1.2,-1.9 1.8,-2.8c0.3,2 0.7,4.1 1.8,5.9s2.9,3.2 4.9,3.3c-0.9,-3.3 -1.1,-6.8 -0.5,-10.1c0.3,-1.9 0.9,-3.7 1.1,-5.6c0,-0.4 0,-0.8 -0.1,-1.1c-0.3,-0.7 -1.2,-1 -2,-0.9s-1.4,0.6 -2.1,1.1c-0.5,-1.1 0,-2.5 0.5,-3.6c0.5,-1.1 1.1,-2.3 1,-3.5c-0.6,-4.1 -4.4,-0.3 -5.5,1c-2.3,2.1 -4.1,4.7 -5.5,7.4z" class="st3"/>
      <path id="svg_37" d="m237,213.4c1.2,2.6 3.9,4.3 4.9,7c0.6,1.8 0.2,3.8 -0.1,5.7c-0.1,0.4 -0.1,0.9 0.2,1.1c0.5,0.4 1.1,-0.5 1.2,-1.1c0.2,-1.1 0.5,-2.2 0.7,-3.2c0.3,-1.4 0.6,-2.7 0.4,-4.1c-0.5,-4.7 -6.2,-7.9 -6,-12.7c0,-0.8 0.2,-1.5 0.1,-2.3c-0.1,-0.6 -0.5,-1.1 -1.1,-1.2c-1,1.6 -1.2,8.7 -0.3,10.8z" class="st3"/>
     </g>
     <g id="svg_38">
      <path id="svg_39" d="m225,223.1c-1.2,-0.9 -2.3,-1.8 -3.5,-2.7c-0.1,-0.1 -0.2,-0.2 -0.4,-0.1c-0.1,0 -0.2,0.2 -0.2,0.3c-0.6,1.4 -0.5,3 0.2,4.3c0.7,1.3 1.9,2.4 3.4,2.7c0.7,0.2 1.4,0.2 2.1,0.4c0.7,0.2 1.3,0.5 1.8,1c1.2,-2.2 -2,-4.8 -3.4,-5.9z" class="st3"/>
      <path id="svg_40" d="m213.7,224.9c-1.5,-0.9 -3.4,-1.1 -4.6,-2.4c-0.2,2.4 1.5,4.7 3.7,5.5c0.5,0.2 1.1,0.3 1.6,0.5c0.8,0.2 1.6,0.5 2.4,0.6c-0.7,-1.8 -1.4,-3.2 -3.1,-4.2z" class="st3"/>
      <path id="svg_41" d="m189.9,207.1c-0.3,-0.8 -1,-1.9 -1.7,-1.4c-0.4,0.2 -0.4,0.7 -0.5,1.1c-0.1,1.2 -0.1,2.4 -0.1,3.6c-1.5,-0.3 -2.7,-1.5 -3.5,-2.9c-0.8,-1.3 -1.2,-2.9 -1.7,-4.3c-0.1,-0.3 -0.4,-0.7 -0.7,-0.6c-0.2,0.1 -0.3,0.2 -0.3,0.4c-1.3,3.1 -1.5,6.6 -0.4,9.8c1.1,3.2 3.4,5.9 6.3,7.5c0,-0.8 0,-1.6 0,-2.4c1.5,1.6 3.2,3 5.1,4c0.1,-1 0.2,-2 0.3,-2.9c-0.1,1.5 7.2,3.3 8.3,3.3c-1.1,-2.3 -4.6,-4.3 -6.3,-6.4c-2.1,-2.6 -3.8,-5.6 -4.8,-8.8z" class="st3"/>
      <path id="svg_42" d="m178.4,220.7c-0.2,-0.1 -0.4,-0.2 -0.6,-0.1c-0.6,0.3 0,1.3 -0.4,1.8c-0.3,0.4 -0.9,0.1 -1.3,-0.1c-1,-0.6 -2,-1.2 -3,-1.8c-0.2,3.5 2.5,6.9 6,7.5c0.7,0.1 1.7,-0.1 1.8,-0.8c0,-0.1 0,-0.3 0.1,-0.4c0.1,-0.3 0.5,-0.2 0.8,-0.1c2.2,0.6 7.3,0.1 3.1,-1.9c-2.4,-1.1 -4.2,-3 -6.5,-4.1z" class="st3"/>
      <path id="svg_43" d="m182.8,197.2c0.1,0.5 0.1,1 0.5,1.3c0.3,0.3 0.9,0.4 1.2,0.1c0.2,-0.3 0.2,-0.9 0.6,-0.9c0.3,0 0.5,0.2 0.6,0.4c1.1,1.5 2.3,3 3.8,4.2c0.3,0.3 0.6,0.5 1,0.6s0.8,0 1,-0.4c0.2,-0.4 0.1,-0.8 -0.1,-1.2c-0.8,-1.9 -2.1,-3.7 -2.5,-5.8c-0.2,-0.8 -0.3,-1.6 -0.8,-2.3c-0.5,-0.6 -1.6,-0.9 -2.1,-0.2c0.9,-1.3 -1.2,-4.1 -2.7,-2.9c-1.4,1.2 -0.7,5.6 -0.5,7.1z" class="st3"/>
     </g>
     <g id="svg_44">
      <path id="svg_45" d="m288.5,157.7l3.1,-2c0.9,-0.6 1.8,-1.2 2.5,-1.8c0.4,-0.3 0.6,-0.6 0.8,-0.9c0.1,-0.1 0.2,-0.3 0.2,-0.4c0.1,-0.1 0.3,-0.4 0.4,-0.6c0.6,-0.8 1.2,-1.7 1.9,-2.5c0.7,-0.9 1.5,-1.7 2.3,-2.6c0.8,-0.8 1.8,-1.7 3,-2.4c1.1,-0.7 2.5,-1.2 3.9,-1.4c1.4,-0.2 2.9,-0.1 4.1,0.6c-1,1 -1.7,1.8 -2.4,2.7c-0.6,0.8 -1.1,1.7 -1.7,2.5c-1,1.6 -2.3,3.4 -3.8,5.2c-0.8,0.9 -1.6,1.7 -2.6,2.5c-0.3,0.2 -0.5,0.4 -0.8,0.6c-0.4,0.3 -0.7,0.5 -1.1,0.7c-0.7,0.4 -1.4,0.6 -2.1,0.8c-1.4,0.3 -2.7,0.3 -4,0.2c-1.2,-0.1 -2.5,-0.5 -3.7,-1.2z" class="st1"/>
     </g>
     <g id="svg_46">
      <path id="svg_47" d="m312.9,151.2c-0.5,0.3 -0.9,0.6 -1.3,0.9c-0.3,0.3 -0.6,0.6 -0.8,0.9c-0.5,0.6 -0.8,1.2 -1.1,1.8c-0.6,1.1 -1.2,2.4 -2.2,3.9c-0.5,0.7 -1.2,1.5 -2,2.3c-0.8,0.8 -1.8,1.4 -2.8,1.8c-2.1,0.8 -4.4,1 -6.5,-0.1c1.4,-1.8 2.4,-3.1 3.2,-4.4l1.1,-1.8c0.4,-0.6 0.8,-1.2 1.2,-1.9c0.5,-0.7 1.1,-1.4 1.8,-2.2c0.7,-0.7 1.7,-1.5 2.8,-2c1.1,-0.5 2.3,-0.8 3.5,-0.8c1.2,0.1 2.5,0.6 3.1,1.6z" class="st1"/>
     </g>
     <g id="svg_48">
      <path id="svg_49" d="m312.5,157.9c-0.6,0.9 -0.9,1.6 -1.1,2.2c-0.3,0.6 -0.5,1.2 -0.7,1.8c-0.5,1.1 -1.2,2.2 -2.4,3.3c-0.6,0.5 -1.3,1.1 -2.2,1.5c-0.8,0.4 -1.7,0.7 -2.6,0.7c-1.8,0.2 -3.7,-0.3 -5.1,-1.8c1.3,-1.5 2.2,-2.5 3,-3.4c0.4,-0.4 0.7,-0.8 1,-1.2c0.3,-0.4 0.6,-0.7 1.1,-1.1c0.8,-0.7 2,-1.7 3.6,-2.4c0.8,-0.3 1.7,-0.6 2.7,-0.6c0.9,0.2 1.9,0.4 2.7,1z" class="st1"/>
     </g>
     <path id="svg_50" d="m272.9,152.7c5.8,-3.1 24,-26.3 32.9,-26.2c9.7,0.1 28.1,7.4 15.4,42.1c0,0 8.2,-29.3 -3.1,-35.6c-9.2,-5.1 -23.4,15.5 -24.6,18.5c-1.2,3 -4.9,9.1 -11.5,8.5c-6.6,-0.5 -9.1,-7.3 -9.1,-7.3z" class="st3"/>
     <path id="svg_51" d="m292.2,158.1c3.6,0.7 7.7,0.8 10.5,-1.6c1.5,3.3 0.2,7.6 -2.9,9.6c4.4,1.4 9.2,1 13.3,-1c0.9,3.1 1.1,7.7 -1.8,9.2c4.9,-1.1 13.8,2.6 20.4,0.2c-0.7,7.6 -12.8,12.4 -15.9,12c0.5,-1.2 -3.9,-7.4 -12.2,-9.4c-1.7,-0.4 0.1,-5.9 -4.6,-7.5c-1.6,-0.6 -3.8,-0.5 -4.2,-2.2c-0.2,-1 0.3,-2.2 -0.2,-3c-0.3,-0.5 -0.8,-0.7 -1.3,-0.9c-2.6,-1 -9.4,-2.7 -12,-3.5c-2.5,-0.8 -1.4,-0.9 -2.5,-3.4c4.6,0.2 9,0.7 13.4,1.5z" class="st3"/>
     <g id="svg_52">
      <path id="svg_53" d="m273.3,222.9c0.8,-1.8 1.3,-3.9 0.7,-5.8c-0.6,-2.2 -2.4,-4.1 -2,-6.3c-0.5,1.2 -0.7,2.6 -0.6,3.9c0.1,1.4 0.6,2.9 0.4,4.3c-0.3,2 -1.8,3.6 -3.2,5.1c-1,1.1 -4.6,6.2 -1.3,5.2c2.6,-0.7 5,-4.2 6,-6.4z" class="st3"/>
      <path id="svg_54" d="m281.2,179.9c-2.7,2.5 -3.6,0.5 -4.6,-1.1c-1.7,7 -6.1,13.2 -8.6,10.7c-2.2,2.7 -2.2,6.4 -2.3,9.9c-0.1,3.4 -0.8,7.3 -3.7,9.3c1.8,-3.1 0.9,-7 0.6,-10.5c-0.5,-6.5 1.9,-12.9 5.9,-18.1c1.2,-1.6 2.7,0.8 2.7,0.8c1.5,-2.4 3,-4.9 4.4,-7.4c0.6,-1 1.7,-1.2 2.7,-0.5c0.9,0.7 1.9,1 2.9,0.4c0.5,-0.3 0.8,-0.9 1,-1.4c0.7,-2.2 0.7,-4.4 0.6,-6.6c5.5,6.9 -0.9,13.9 -1.6,14.5z" class="st3"/>
      <path id="svg_55" d="m270.2,168.4c-1.8,-0.9 -3.6,-1.7 -5.5,-2.3c2.6,3.1 3,7.8 0.9,11.2c-0.6,-0.9 -1.2,-1.9 -1.8,-2.8c-0.3,2 -0.7,4.1 -1.8,5.9c-1,1.8 -2.9,3.2 -4.9,3.3c0.9,-3.3 1.1,-6.8 0.5,-10.1c-0.3,-1.9 -0.9,-3.7 -1.1,-5.6c0,-0.4 0,-0.8 0.1,-1.1c0.3,-0.7 1.2,-1 2,-0.9s1.4,0.6 2.1,1.1c0.5,-1.1 0,-2.5 -0.5,-3.6c-0.5,-1.1 -1.1,-2.3 -1,-3.5c0.6,-4.1 4.4,-0.3 5.5,1c2.2,2.1 4,4.7 5.5,7.4z" class="st3"/>
      <path id="svg_56" d="m268.5,213.4c-1.2,2.6 -3.9,4.3 -4.9,7c-0.6,1.8 -0.2,3.8 0.1,5.7c0.1,0.4 0.1,0.9 -0.2,1.1c-0.5,0.4 -1.1,-0.5 -1.2,-1.1c-0.2,-1.1 -0.5,-2.2 -0.7,-3.2c-0.3,-1.4 -0.6,-2.7 -0.4,-4.1c0.5,-4.7 6.2,-7.9 6,-12.7c0,-0.8 -0.2,-1.5 -0.1,-2.3c0.1,-0.6 0.5,-1.1 1.1,-1.2c1,1.6 1.2,8.7 0.3,10.8z" class="st3"/>
     </g>
     <path id="svg_57" d="m252.4,230.4l0,0c-3.3,-1.2 -15,-5 -16.5,-0.4c0,2 3.2,4.9 5.3,5.4c0.6,-1 -1.1,-1.8 -0.3,-2.4c1.3,-0.9 4,0.2 4.3,3.4c0.1,0.8 7.2,2.6 7.2,2.6l0,0c0,0 7.1,-1.8 7.2,-2.6c0.3,-3.1 3,-4.3 4.3,-3.4c0.9,0.6 -0.9,1.5 -0.3,2.4c2.1,-0.5 5.3,-3.4 5.3,-5.4c-1.5,-4.6 -13.2,-0.7 -16.5,0.4z" class="st4"/>
     <g id="svg_58">
      <path id="svg_59" d="m280.6,223.1c1.2,-0.9 2.3,-1.8 3.5,-2.7c0.1,-0.1 0.2,-0.2 0.4,-0.1c0.1,0 0.2,0.2 0.2,0.3c0.6,1.4 0.5,3 -0.2,4.3c-0.7,1.3 -1.9,2.4 -3.4,2.7c-0.7,0.2 -1.4,0.2 -2.1,0.4c-0.7,0.2 -1.3,0.5 -1.8,1c-1.3,-2.2 1.9,-4.8 3.4,-5.9z" class="st3"/>
      <path id="svg_60" d="m291.8,224.9c1.5,-0.9 3.4,-1.1 4.6,-2.4c0.2,2.4 -1.5,4.7 -3.7,5.5c-0.5,0.2 -1.1,0.3 -1.6,0.5c-0.8,0.2 -1.6,0.5 -2.4,0.6c0.8,-1.8 1.5,-3.2 3.1,-4.2z" class="st3"/>
      <path id="svg_61" d="m315.7,207.1c0.3,-0.8 1,-1.9 1.7,-1.4c0.4,0.2 0.4,0.7 0.5,1.1c0.1,1.2 0.1,2.4 0.1,3.6c1.5,-0.3 2.7,-1.5 3.5,-2.9c0.8,-1.3 1.2,-2.9 1.7,-4.3c0.1,-0.3 0.4,-0.7 0.7,-0.6c0.2,0.1 0.3,0.2 0.3,0.4c1.3,3.1 1.5,6.6 0.4,9.8c-1.1,3.2 -3.4,5.9 -6.3,7.5c0,-0.8 0,-1.6 0,-2.4c-1.5,1.6 -3.2,3 -5.1,4c-0.1,-1 -0.2,-2 -0.3,-2.9c0.1,1.5 -7.2,3.3 -8.3,3.3c1.1,-2.3 4.6,-4.3 6.3,-6.4c2.1,-2.6 3.7,-5.6 4.8,-8.8z" class="st3"/>
      <path id="svg_62" d="m327.2,220.7c0.2,-0.1 0.4,-0.2 0.6,-0.1c0.6,0.3 0,1.3 0.4,1.8c0.3,0.4 0.9,0.1 1.3,-0.1c1,-0.6 2,-1.2 3,-1.8c0.2,3.5 -2.5,6.9 -6,7.5c-0.7,0.1 -1.7,-0.1 -1.8,-0.8c0,-0.1 0,-0.3 -0.1,-0.4c-0.1,-0.3 -0.5,-0.2 -0.8,-0.1c-2.2,0.6 -7.3,0.1 -3.1,-1.9c2.4,-1.1 4.2,-3 6.5,-4.1z" class="st3"/>
      <path id="svg_63" d="m322.8,197.2c-0.1,0.5 -0.1,1 -0.5,1.3c-0.3,0.3 -0.9,0.4 -1.2,0.1c-0.2,-0.3 -0.2,-0.9 -0.6,-0.9c-0.3,0 -0.5,0.2 -0.6,0.4c-1.1,1.5 -2.3,3 -3.8,4.2c-0.3,0.3 -0.6,0.5 -1,0.6c-0.4,0.1 -0.8,0 -1,-0.4c-0.2,-0.4 -0.1,-0.8 0.1,-1.2c0.8,-1.9 2.1,-3.7 2.5,-5.8c0.2,-0.8 0.3,-1.6 0.8,-2.3c0.5,-0.6 1.6,-0.9 2.1,-0.2c-0.9,-1.3 1.2,-4.1 2.7,-2.9c1.3,1.2 0.7,5.6 0.5,7.1z" class="st3"/>
     </g>
    </g>
    <g id="Mouth_2_">
     <path id="svg_64" d="m298.3,228.8c-13,7.1 -29.9,16.9 -46,8.9c-16.1,8.1 -32,-1.8 -45,-8.9s-28,8.4 -16.2,23.9c13.9,18.2 61.2,18.7 61.2,18.7s48.3,-0.5 62.2,-18.7c11.7,-15.5 -3.2,-31 -16.2,-23.9z" class="st4"/>
     <path id="svg_65" d="m294.6,233.6c-10.4,5.2 -25.9,12.8 -42.1,8.7c-16.2,4.1 -31,-3.5 -41.5,-8.7c-16.7,-8.3 -29.6,5.5 -12.1,22.2c12,11.5 53.6,13.4 53.6,13.4s42.2,-1.9 54.3,-13.4c17.4,-16.8 4.5,-30.6 -12.2,-22.2z" class="st3"/>
    </g>
    <g id="Lava_2_">
     <path id="svg_66" d="m292.1,234.7c-15.4,6.8 -23.5,10.2 -39.6,7.5c-18.7,4.2 -43,-9.5 -43,-9.5c-0.7,2.3 -1.3,7.8 -0.1,9.9c0.3,0.5 0.6,0.9 1,1.3c-0.9,5 -1.8,9.9 -2.7,14.9c-1,5.5 -0.7,10.2 2.1,15.5c2.2,4.1 5.5,7.3 7.8,11.3c0.9,1.6 2.8,5.6 3.3,7.4c0.4,3.7 -1.1,5.4 -0.8,9.3c0.5,7.3 1.8,15.8 10,17.6c0.4,0.2 -2.5,1.8 -2.1,2c1,0.4 -0.1,14.1 0,15.8c0.2,3.1 3.9,6.6 6.7,8.3c3.1,1.9 18.2,6.4 18.2,6.4s22.9,-4.4 26.2,-8.1c11.2,-12.3 2.8,-22.1 3.9,-34.1c0,-0.3 0,-0.6 0,-0.9c0.4,-2.4 0.5,-4.9 0.5,-7.2c0,-1 -0.1,-2 -0.1,-3.1c0.4,-2.9 0.8,-5.8 1.1,-8.7c5.2,-2.8 7.4,-8.9 4.7,-15.2c-4,-9.1 -5.8,-14.8 2.2,-27.8c1.8,-2.9 -0.8,-3.6 -1,-6.9c1.9,-1.9 4.4,-6.9 1.7,-5.7z" class="st2"/>
     <path id="svg_67" d="m277.6,317.5c-0.5,-5.3 -0.1,-7.8 -0.2,-9.5c-0.1,-1.7 -1.2,-1.8 -2.3,-2.8c-0.4,-0.9 -1.1,-1.7 -2,-2.3c-1,-1.1 -2.3,-1.8 -3.8,-2.1c-1.1,-1.5 -3,-2.6 -4.8,-2.4c-0.5,0.1 -1,0.1 -1.5,0.3c-0.1,-0.1 -0.1,-0.3 -0.2,-0.4c-1.3,-3.2 -4.8,-4.9 -8.1,-3.9c-0.2,0 -0.3,0.1 -0.5,0.2c-2.5,-2.5 -6.8,-1.7 -9,1c-2.3,-1.6 -6,-1.5 -7.8,0.6c-1,1.2 -1.8,2.4 -2.5,3.7c-1,-0.9 -2.1,-1.7 -3.2,-2.5c-2.7,-1.8 -6.6,-0.5 -8.2,2.1c-1,1.8 -1,3.7 -0.3,5.3c0,0 -0.1,0 -0.1,0c-3.8,-0.4 -7.7,2.9 -6.6,7.4c1.3,5.1 7,8.8 12.2,6.7c0.4,-0.2 0.8,-0.5 1.2,-0.7c0,0 0,0 0,0c0,0.6 0.1,1.2 0.3,1.9c0.2,0.5 0.4,0.9 0.6,1.3c-2.4,-0.6 -4.8,3.4 -2.2,4.4c1.5,0.6 2.9,1 4.4,1.6c1.5,0.6 3.6,1.4 5.3,1.5c0.9,0.1 1.3,-0.9 1.6,-1.7c0.5,0.2 1,0.4 1.5,0.6c1.8,0.7 3.5,0.2 4.8,-0.7c0.3,0 0.6,0 0.9,-0.1c0.1,0.1 0.3,0.1 0.5,0.1c1.8,0.5 4,0 5.5,-1.2c0.9,0.4 1.9,0.6 2.9,0.6c0.7,0.3 1.4,0.4 2.2,0.4c0.7,0.3 1.5,0.5 2.2,0.5c0.1,0 0.2,0.1 0.3,0.1c0,0 0.1,0.1 0.1,0.1c1,0.9 2.2,1.4 3.6,1.4c0.3,0.2 0.6,0.3 1.1,0.4c0.7,0.1 0.9,0 1.6,-0.2c2.2,-0.7 6.8,-2.2 8.9,-3c1.5,-0.5 -0.2,-1.6 -0.7,-2.8c0.3,-0.5 0.6,-1 0.7,-1.7c0.3,-1.5 0.5,-2.9 0.7,-4.4c0.5,-0.6 1,1.1 0.9,0.2z" class="st2"/>
     <path id="svg_68" d="m216.4,298.4c0,-2.2 -0.2,-13.9 -4.1,-13.4c-1.1,0.2 -1.7,1.3 -2.1,2.3c-1.3,3.2 -11,25.1 1.5,20.4c3.7,-1.3 4.6,-5.9 4.7,-9.3z" class="st2"/>
     <path id="svg_69" d="m285.3,313.2c-0.1,-1.1 -0.3,-2.2 -0.6,-3.2c-0.7,-3.6 -3.8,-6.6 -8,-6.3c-1.6,0.1 -2.9,1.3 -2.9,2.9c0,1.4 1.2,2.9 2.7,3c0.1,0.3 0.3,0.6 0.5,0.8c-0.5,2.9 -1,6.4 -0.3,9.3c0.8,3 4.3,4.1 6.5,1.9c2.1,-2.1 2.4,-5.7 2.1,-8.4z" class="st2"/>
    </g>
    <g id="Red_hot_2_">
     <path id="svg_70" d="m210.6,254.1c0,0 -6.5,12.2 5.9,27c12.4,14.8 5.2,15 5.2,15s2.4,-5 -5.8,-14.5c-8.1,-9.5 -9.3,-19.2 -5.3,-27.5z" class="st4"/>
     <path id="svg_71" d="m220.9,303.5c0,0 4.1,1.5 4.6,-3c0.5,-4.5 -0.3,-8.6 2.6,-9.8c0,0 -2.5,2.6 -1.9,9.8c0.7,7.1 -4.9,5.7 -5.3,3z" class="st4"/>
     <path id="svg_72" d="m285.3,258c0,0 -2.9,4.1 1.2,13.2c4.1,9.2 2.5,11.2 2.5,11.2s-1.5,-1.8 -2.6,-1.6c0,0 1.7,-4.4 -1.2,-9.3c-2.9,-4.9 -2.1,-12.6 -0.4,-15.3l0.5,1.8z" class="st4"/>
     <path id="svg_73" d="m273.5,295c0,0 -0.6,7.8 4.3,9.1c0.1,0 -5,1 -4.3,-9.1z" class="st4"/>
     <path id="svg_74" d="m277.9,301.8c0,0 -1.2,-6.4 2.4,-9.8c0,0 -3,0.8 -4,-1.1c0,0 0.2,2.4 2,2.3c0,-0.1 -2.5,3.4 -0.4,8.6z" class="st4"/>
     <path id="svg_75" d="m282.1,282.2c0,0 -8.7,7.4 -4,9c3.6,1.2 4,-9 4,-9z" class="st4"/>
     <path id="svg_76" d="m281.8,269.2c0,0 -1.2,-2.1 -2,-3c-1.2,-1.4 -1.5,-4.8 0.3,-6.8c0,0 -1.8,3.4 0.4,6.6c1.8,2.5 1.3,3.2 1.3,3.2z" class="st4"/>
     <path id="svg_77" d="m277.6,253.9c0,0 -3.8,6.7 2.2,13.5c4.3,4.8 2.6,13.8 2.6,13.8s-3.1,2 -5.4,5.4c0.7,-2 5.5,-13.9 2.1,-18.6c-6.3,-7 -1.5,-14.1 -1.5,-14.1z" class="st4"/>
     <path id="svg_78" d="m276.1,271.7c0,0 -4.1,9.4 -0.6,16.8c0,0 0.6,-0.7 0.5,-0.9c-0.1,-0.3 -3.1,-4.7 0.1,-15.9z" class="st4"/>
     <path id="svg_79" d="m282.2,286.9c0,0 0.1,2.8 -1,4c0,0 7.3,-4.8 7.4,-8.1l-0.5,-0.5c0,0 0.2,2.9 -4.5,5.8c-0.1,0.1 -0.6,-0.7 -1.4,-1.2z" class="st4"/>
     <path id="svg_80" d="m223.7,295.9c0,0 -2.3,5.2 -0.6,6.6c0,0 -1.4,0.6 -2.1,0.1c0,0 -0.5,-1.2 0.5,-5.6c0,0 0.8,0.2 2.2,-1.1z" class="st4"/>
     <path id="svg_81" d="m223.5,290.1c0,0 0.7,-3 2.4,-6.5c2.7,-5.4 0.9,-11.3 0.9,-11.3s0.4,7.1 -1.5,10.6c-1.8,3.3 -3.3,4.6 -3.3,4.6s0.7,1.2 1.5,2.6z" class="st4"/>
     <g id="svg_82">
      <path id="svg_83" d="m292.5,283c0,0 1.9,-4.3 0.5,-6.5s-0.1,-6.7 -0.1,-6.7s-0.1,4.2 1.2,5.8c1.3,1.5 3.6,-2.7 3.6,-2.7s1.6,5.1 -5.2,10.1z" class="st2"/>
      <path id="svg_84" d="m293.7,267.1c0,0 0.7,-5.4 3.3,-6.2c0,0 0,5.4 -3.3,6.2z" class="st2"/>
      <path id="svg_85" d="m299.7,276.4c0,0 2.4,-3.9 5.4,-2.9c0,0 -1.8,3 -5.4,2.9z" class="st2"/>
      <circle id="svg_86" r="0.7" cy="268.6" cx="301" class="st2"/>
      <circle id="svg_87" r="0.8" cy="252.8" cx="296.8" class="st2"/>
      <circle id="svg_88" r="0.5" cy="283.6" cx="296.9" class="st2"/>
     </g>
     <path id="svg_89" d="m228,265.9c0,0 2.7,10.8 -1.3,19.3c0,0 3.3,-8.8 0,-17.3c0,0 1,-0.8 1.3,-2z" class="st4"/>
     <path id="svg_90" d="m225.1,268.6c0,0 -4.3,3.3 -8.2,-3.4c0,0 2.4,8.7 8.8,4.9l-0.6,-1.5z" class="st4"/>
     <path id="svg_91" d="m210.2,265.9c0,0 0.7,5.8 3.6,9.6c2.9,3.7 5.1,-1.1 0.1,-4.8c-3.3,-2.4 -3.7,-4.8 -3.7,-4.8z" class="st4"/>
     <path id="svg_92" d="m210.3,259.7c0,0 3.3,-0.7 5.3,1c0,0 -0.6,4.6 2.3,9.1c2.9,4.5 1.6,6.8 1.6,6.8s-0.1,-4.1 -2.8,-6.3s-6.7,-6.4 -6.4,-10.6z" class="st4"/>
     <path id="svg_93" d="m221.6,286.5l-4.5,-5.9c0,0 4.9,5.4 7.4,2.4c0,0 -1.5,3 -2.9,3.5z" class="st4"/>
     <path id="svg_94" d="m225.8,270.7l0.6,1.2c0,0 0.4,5.5 -0.5,7.3c0,0 0.6,-5.1 -1.1,-8l1,-0.5z" class="st4"/>
     <path id="svg_95" d="m235.1,272.3c0,0 10,12.8 4.3,23.7c0,0 3.7,-11.2 -5.6,-18.6c0,0 0,-3.1 1.3,-5.1z" class="st4"/>
     <path id="svg_96" d="m241.7,263.5c0.1,-0.2 -3.9,2.2 -5.9,8.4c0,0 4.3,3.9 4.9,7.8c0,0.1 -2.8,-10.8 1,-16.2z" class="st4"/>
     <path id="svg_97" d="m242.4,266c0,0 -2,12.8 5.3,11.9c0,0 -5.2,5 -5.3,12.5c0,0 -4,-24.4 0,-24.4z" class="st4"/>
     <path id="svg_98" d="m246.5,263.3c0,0 5.5,-0.7 4.7,6.1c-0.5,4.3 -2.3,6.2 -2.3,6.2s2.9,-9.6 -2.4,-12.3z" class="st4"/>
     <path id="svg_99" d="m264.3,256.8c0,0 -4.2,16.8 0,24.5c4.2,7.7 3.9,17.6 -4.2,18.4c0,0 8.1,6.5 12,2.6c0,0 -3.2,-10.2 1.2,-13.8c0,0 -3.5,-17 2.5,-21.3c0,0 -5.7,-12.4 0.2,-19.2c0,0 -11.7,5.9 -8,18.7c0,0 3.5,11.2 -0.2,13.5c0,0 1.5,-5.1 -1.8,-13.7c-2.3,-6.2 -1.7,-9.7 -1.7,-9.7z" class="st4"/>
     <path id="svg_100" d="m251.3,293.7c0,0 3.5,6.7 11.8,3.3c0,0 -7.1,-0.2 -5.1,-9.3c0,0 -5.8,1.6 -7.8,-0.2c-0.1,0 -0.6,3.4 1.1,6.2z" class="st4"/>
     <path id="svg_101" d="m257.6,286.9c0,0 -4.9,1.6 -7.6,-0.2c0,0 -0.5,-6.2 2.8,-13.5c0,0 -2.3,9 -1.5,12.2c0,0.1 2.4,2.1 6.3,1.5z" class="st4"/>
     <path id="svg_102" d="m245.2,289.3c0,0 0.1,9.5 12.4,11.5l-0.2,6.8l-1.5,-6.1c0,0 -3.8,2.2 -9.2,0.7l0,4.2l-1.8,-4.4c-0.1,-0.1 -3.1,-6.4 0.3,-12.7z" class="st4"/>
     <polygon id="svg_103" points="259.5,302.6000061035156 259.79998779296875,310.79998779296875 260.79998779296875,303.79998779296875 " class="st4"/>
     <path id="svg_104" d="m262.2,304.3c0,0 6.8,2.3 9.3,1.2c0,0 -3.9,3 -9.7,1l0.4,-2.2z" class="st4"/>
     <path id="svg_105" d="m254.8,302.8l-0.9,0.2c0,0 3,10 0.6,13.7c0,0 2.9,-0.6 0.3,-13.9z" class="st4"/>
     <path id="svg_106" d="m247.5,303.4c0,0 -0.3,9.4 -0.1,11.9l1.5,0.4c0,0 -0.3,-9.6 0.3,-12.1l-1.7,-0.2z" class="st4"/>
     <path id="svg_107" d="m251,304.7c0,0 -1.6,10 -0.1,11.2c1.5,1.2 3.8,-0.9 2,-5.4s-1.9,-5.8 -1.9,-5.8z" class="st4"/>
     <path id="svg_108" d="m252.1,304.4c0,0 1.2,4.2 1.7,4.6c0.4,0.4 -0.7,-5.2 -0.7,-5.2l-1,0.6z" class="st4"/>
     <path id="svg_109" d="m261.7,308.2c0,0 -2.8,8 0,9.2l2.7,-0.8c0,0 -2.4,-4.8 -1.1,-8l-1.6,-0.4z" class="st4"/>
     <path id="svg_110" d="m258.2,308.4c0,0 0,7.8 -1.1,8.6c0,0 2.2,0.7 2.3,1.4l1.1,-1c0,0 -1.9,-1.5 -2.3,-9z" class="st4"/>
     <path id="svg_111" d="m264.2,308.8c0,0 -1.9,3.8 2,7.6l0.9,-0.1c0,0 -3.3,-2.4 -2.9,-7.5z" class="st4"/>
     <path id="svg_112" d="m265.3,308.5c0,0 -0.8,4.3 2.2,6.7c0,0 -2.8,-4.4 0,-7.4l-2.2,0.7z" class="st4"/>
     <path id="svg_113" d="m271,317.8c0,0 -10.4,-2.6 -13.3,5.2c-1.8,3.5 3.8,7.8 5.3,3.8c0,0 -6.1,-0.1 -3.2,-4.1c2.8,-4.1 11.2,-4.9 11.2,-4.9z" class="st4"/>
     <path id="svg_114" d="m264.1,326.7c0,0 6.9,-0.8 8.2,-3.4c0,0 1.7,-1.4 0.8,-4.2c0,0 3.9,3.8 2.7,7.5c-0.1,0.3 -17.5,6 -17.5,6c-0.8,-0.7 -1.2,-2.1 -0.2,-4.7c0,-0.1 4.2,3.9 6,-1.2z" class="st4"/>
     <path id="svg_115" d="m283,320.8c0,0 -4.1,1 -7.5,-1.2c0,0 2.7,4.2 1.5,6.4l6.8,-2.2c0.1,0 -0.4,-2.6 -0.8,-3z" class="st4"/>
     <path id="svg_116" d="m272.6,305.7c0,0 -3,1.9 -4.4,2c0,0 -2.3,5.8 1.2,8.3s0.9,0.1 0.9,0.1s1.7,0.8 2.2,1.2c0,0.1 -5.2,-5.3 0.1,-11.6z" class="st4"/>
     <path id="svg_117" d="m272,312c0,0 -0.2,8.3 10.9,8.1c0,0 0.9,-0.4 1.1,-1.9c0,0 -8.8,2.6 -12,-6.2z" class="st4"/>
     <path id="svg_118" d="m217.7,310.9c0,0 8.6,7.3 16.3,0.8c0,0 -1.2,5 -4.9,6.6c0,0 -9.6,2.4 -11.4,-7.4z" class="st4"/>
     <path id="svg_119" d="m239.1,298.3c0,0 -3.9,7.5 -2.5,11.5s1.9,16 -1.2,18.4l-5.3,-2c0,0 4.7,-3.4 2.1,-7.4c0,0 2.8,-3.2 3.1,-8.1c-0.1,0 -1.7,-5.4 3.8,-12.4z" class="st4"/>
     <path id="svg_120" d="m229,291.1c0,0 0.5,13.3 9.8,5.8c0,0 -2,5.6 -6.9,5.5c-4.9,-0.1 -5.7,-10.2 -2.9,-11.3z" class="st4"/>
     <path id="svg_121" d="m239.2,291.8c0,0 0.2,5.5 -3.9,6c0,0 1.2,-1.3 -0.5,-5.9l4.4,-0.1z" class="st4"/>
     <path id="svg_122" d="m234.7,290.9l4.5,-0.1c0,0 0.5,-5.8 -2.8,-9.1c-0.1,0.1 -5.1,-2.6 -1.7,9.2z" class="st4"/>
     <path id="svg_123" d="m247.4,316.8c0,0 10.9,0.8 10.8,3.8c0,0 -1.8,1.2 -1.8,3.8c0,0 -0.5,7.2 -5.7,6.9c0,0 4.8,-0.8 4.2,-8.5c0,0 -2,-2.1 -6.9,-0.7l-0.6,-5.3z" class="st4"/>
     <path id="svg_124" d="m242.8,299.2c0,0 4.6,11.5 3.7,24c0,0 0.1,7.1 -0.9,8.4l-1.8,-0.6c0,0 4.1,-7.2 -1,-31.8z" class="st4"/>
     <path id="svg_125" d="m237.9,310.7c0,0 2.3,1.4 3.8,0.5l0.2,2.2c0,0 -2.6,-0.1 -3.9,-0.8l-0.1,-1.9z" class="st4"/>
     <path id="svg_126" d="m242.1,314.4c0,0 2.5,7.3 -0.8,13.8c0,0 1.5,-7.4 0.8,-13.8z" class="st4"/>
     <path id="svg_127" d="m239.6,318.7c0,0 -0.6,7.9 -2.8,9.1c0,0 2.6,-1.4 2.8,-4.1l0.2,4.9c0,0 2,-7.1 -0.2,-9.9z" class="st4"/>
     <path id="svg_128" d="m241.4,314.5c0,0 0.4,3.9 -0.1,5.9c0,0 -0.9,-3.5 -3.2,-6.8c0.1,0.1 1.9,1.1 3.3,0.9z" class="st4"/>
     <path id="svg_129" d="m238.9,326.8c0,0 -1.5,1.3 -2.4,1.7c0,0 0,0.1 0,0.1l2.7,0.7c0,0.1 0,-1.4 -0.3,-2.5z" class="st4"/>
     <path id="svg_130" d="m240.9,330c0,0 2,-3.1 2.4,-6.1c0,0 0.3,5.1 -1.1,6.6l-1.3,-0.5z" class="st4"/>
     <path id="svg_131" d="m282.5,306.5l-3.2,-1.4c0,0 -1.4,-6.6 -0.2,-8.1c0,0 0.2,6.2 3.4,6.2l0,3.3z" class="st4"/>
     <path id="svg_132" d="m234.6,302.8c0,0 -1.5,5 -1,7.1c0,0 -0.4,-3.2 -4.1,-4.4l0.6,-2.6c0,0 3.4,0.9 4.5,-0.1z" class="st4"/>
     <path id="svg_133" d="m214.8,295c0,0 1.8,7.2 -1.8,9.8c-3.6,2.6 -4.6,0.6 -4.6,0.6s5.9,-1.5 6.4,-10.4z" class="st4"/>
     <path id="svg_134" d="m212.5,287.2c0,0 1.9,4.2 1.7,7c-0.1,2 -0.5,5.8 -3.6,7.9c0,0 4.7,-5.5 1.8,-9.4c-1.5,-2.3 -1.4,-7.7 0.1,-5.5z" class="st4"/>
     <path id="svg_135" d="m275.8,335.9c0,0 -2,4.1 -1.8,6.9l-3.9,1.2l-0.7,-6l6.4,-2.1z" class="st4"/>
     <path id="svg_136" d="m282,333.7l1.8,0.7c0,0 -1,4.7 -2.2,5.7l-2,0.7c0,0 -4.2,-3.7 1.8,-5c0,0 -0.2,-1.1 -1.8,-1.3l2.4,-0.8z" class="st4"/>
     <path id="svg_137" d="m266.9,339c0,0 0.4,6.2 -10.9,7.4c0,0 1.8,-2.1 1.3,-4.2l9.6,-3.2z" class="st4"/>
     <path id="svg_138" d="m247.9,342.2c0,0 -0.8,3.9 1.6,6.6l-9.8,-3.5c0,0 7,1 6.2,-3.7l2,0.6z" class="st4"/>
     <path id="svg_139" d="m256.7,342.5c0,0 0.7,4.4 -5.3,5.3c0,0 -3.1,0.2 -3.2,-3.5c0,0 2.3,6.4 6.9,-1.4l1.6,-0.4z" class="st4"/>
     <path id="svg_140" d="m250.5,349.1c0,0 2.8,0.4 5.3,-2.2c0,0 3,1 6,0.1l-8.9,3.1l-2.4,-1z" class="st4"/>
     <path id="svg_141" d="m228.6,335.3c0,0 -0.4,3.9 2.2,6.7l2.2,0.8c0,0 -2.9,-3.9 -2.2,-6.8l-2.2,-0.7z" class="st4"/>
     <path id="svg_142" d="m231.2,336.2c0,0 -0.1,3.6 1.9,5.5c0,0 -1.3,-3.2 0.9,-3.3c0,0 2.5,3.3 3.9,0.2l-6.7,-2.4z" class="st4"/>
     <path id="svg_143" d="m210.7,252.4c0.5,-0.1 1,0.3 1.1,0.7c0.1,0.5 0,1 -0.1,1.4c-0.3,1.2 -0.5,2.4 -0.8,3.6c1.6,0 3.2,0.4 4.5,1.3c-0.1,-1.8 0.4,-3.7 1.2,-5.3c0.1,-0.1 -2.3,-3.5 -2.5,-4c-0.4,-0.9 -0.8,-3.6 -1.8,-3.9c-0.8,1.9 -0.9,4.4 -1.6,6.2z" class="st4"/>
     <path id="svg_144" d="m218.1,261.1c0,0.7 0,1.4 0.2,2.1c0.5,1.9 2.4,3 4.2,3.9c-0.5,-1.5 -1,-2.9 -1.6,-4.4c-0.5,-1.5 -1.1,-3.2 -0.3,-4.6c0.3,-0.6 0.9,-1.1 1.5,-1.5c-0.8,0.6 -2.7,-1.2 -3.7,-0.1c-0.7,0.8 -0.3,3.6 -0.3,4.6z" class="st4"/>
     <path id="svg_145" d="m235.4,241.4c0.7,1.3 5,4.4 5.7,3.1c1.7,1.1 3.2,2.7 4.9,3.8c0.1,0.1 0.3,0.2 0.3,0.3c0,0.1 0,0.2 -0.1,0.3c-0.9,1.6 -2,3.1 -3.6,4.1c-1.7,1 -3.6,1.3 -5.5,2c-4.1,1.5 -7.5,5 -8.8,9.2c0.1,-1.4 0.1,-2.9 -0.5,-4.1c-0.7,-1.3 -2.1,-2.2 -2.9,-3.5c-0.7,-1.2 -0.7,-2.6 -0.7,-3.9c0.1,-2.6 0.5,-5.8 2.2,-7.9c1,-1.2 1.7,-4.8 3,-4.4c1.6,0.5 4.4,1.1 6,1z" class="st4"/>
     <path id="svg_146" d="m229.3,257.8c-0.8,-1.3 -1.3,-2.8 -1.5,-4.3c-0.1,-0.4 -0.1,-0.9 0.1,-1.3c0.1,-0.2 0.3,-0.4 0.5,-0.6c0.3,-0.5 0.4,-1 0.5,-1.6c0.4,-2.1 0.8,-4.3 1.2,-6.4c0.1,2 0.2,4 0.3,6c0,0.5 0.1,1 0.4,1.4c0.2,0.3 0.6,0.4 0.9,0.5c0.9,0.3 2.9,0.5 3.6,1.1c0.8,0.8 -0.8,1 -1.5,1.3c-0.9,0.5 -1.8,1 -2.5,1.7c-0.1,0.1 -2.1,1.9 -2,2.2z" class="st2"/>
     <path id="svg_147" d="m231,263.8c-0.1,0.2 -0.2,0.4 -0.2,0.6c0,0.2 0,0.5 0.1,0.7c0.2,0.5 0.3,1.1 0.5,1.6c0.2,-2.7 1.9,-5 4,-6.8c1.4,-1.3 3.9,-2.4 4.9,-4c-3.5,-1.1 -8.1,5.5 -9.3,7.9z" class="st4"/>
     <path id="svg_148" d="m256.9,241.8c-0.4,0.1 -1,3.4 -0.8,3.7c0.2,0.5 0.5,1 0.7,1.6c0.2,0.5 0.6,1.1 1.1,1.1c1,0 1.1,-1.7 2.1,-2c0.3,2.1 -0.9,4.2 -2.4,5.7c-1.5,1.5 -3.4,2.6 -4.9,4c-1.6,1.4 -2.9,3.4 -2.8,5.5c-0.4,-0.7 -1.4,-0.7 -2.1,-0.6c-1.4,0.2 -2.8,0.7 -4.1,1.4c2.5,-2.6 4.9,-5.4 6.9,-8.4c0.8,-1.2 1.6,-2.8 1.1,-4.2c-0.4,-0.2 -0.9,0.2 -1.2,0.6c-1.6,2.2 -3.3,4.4 -4.9,6.7c-0.7,-0.7 -1.5,-1.1 -2.4,-1.3c3.6,-2.3 5,-6.6 6.1,-10.5c0.8,0.1 0.9,-3.6 1.8,-3.7c1.2,0.1 4.5,0.8 5.8,0.4z" class="st4"/>
     <path id="svg_149" d="m260.3,250.9c-1,1.6 -2.4,2.8 -3.8,4.1c-1.3,1.3 -2.6,2.8 -3.1,4.6c0.9,-1.2 2.2,-2.1 3.6,-2.7c1.1,-0.4 2.2,-0.6 3.2,-1.3c0.6,-0.5 1.1,-1.1 1.6,-1.8c1.4,-1.9 2.7,-3.7 4.1,-5.6c0.5,-0.7 1.1,-1.6 1,-2.5c-0.1,-0.8 -0.6,-1.4 -1.1,-2c-0.3,-0.4 -0.8,-0.8 -1.3,-0.7c-0.3,0 -0.5,0.2 -0.7,0.4c-0.9,0.8 -2.3,1.6 -2.6,2.9c-0.3,1.8 0.1,3 -0.9,4.6z" class="st4"/>
     <path id="svg_150" d="m259.8,272.7c0.1,0.3 0.2,0.7 0.1,1c-0.1,0.3 -0.4,0.6 -0.7,0.6c-1,-1.3 -1,-3 -1,-4.6c0,-2.5 0,-5 0,-7.5c0,-0.7 0,-1.5 -0.4,-2.1c-0.3,-0.5 -0.8,-1 -0.5,-1.5c0.1,-0.2 0.4,-0.3 0.6,-0.3c0.9,-0.3 3.3,-1.5 3.7,-0.1c0.2,0.9 -1.4,3.7 -1.6,4.7c-0.9,3.1 -1,6.6 -0.2,9.8z" class="st4"/>
     <path id="svg_151" d="m278,244.6c0.1,0.4 0.5,0.7 0.6,1.1c0.3,0.6 0.2,1.3 0,1.9c-0.3,0.6 -0.7,1.1 -1,1.6c-1,1.5 -1.7,3.1 -2.2,4.8c0.8,-1.5 2,-2.7 3.5,-3.7c0,2 -0.1,3.9 -0.1,5.9c0.3,-1.8 1.6,-3.3 2.9,-4.5c0.4,-0.4 0.8,-0.7 1.1,-1.2c0.2,-0.4 0.2,-0.9 0.2,-1.4c0,-1.2 -0.2,-2.4 -0.6,-3.5c-0.3,-0.9 -1.1,-2.5 -2.1,-2.8c-1,-0.2 -2.6,0.7 -2.3,1.8z" class="st4"/>
    </g>
    <g id="Teeth_shads_2_">
     <path id="svg_152" d="m229,240.4c0,0 -4,10.3 -3.5,14.7c0.5,4.3 -4.2,-1.9 -4.2,-1.9l2.1,-14.2l5.6,1.4z" class="st0"/>
     <path id="svg_153" d="m211,238.1c0,0 -5.3,5.5 -8.6,5.2c-3.4,-0.3 -0.2,-3 -0.2,-3l6.2,-4.5l2.6,2.3z" class="st0"/>
     <path id="svg_154" d="m237.3,248.6c0.2,0.2 1.5,0.6 1.5,0.6l2.8,-5.6l-1.9,-1.8l-2.4,6.8z" class="st0"/>
     <path id="svg_155" d="m240.5,244.1c0,0 5.8,5 7.1,4.5s3.4,-6.2 3.4,-6.2l-6.7,0l-3.8,1.7z" class="st0"/>
     <path id="svg_156" d="m255.6,244.6c0,0.2 0.3,3.9 1.7,3.9s7.1,-5.1 6.8,-5.1c-0.4,-0.1 -8.5,1.2 -8.5,1.2z" class="st0"/>
     <path id="svg_157" d="m265.1,243.8l1.2,4.5c0,0 0.3,2.1 1.4,1.3c1,-0.7 2.5,-3.7 2.4,-5.1c0,-0.2 0,-0.3 -0.1,-0.4c-0.3,-1.1 -4.9,-0.3 -4.9,-0.3z" class="st0"/>
     <path id="svg_158" d="m276.9,240.7c0,0 1.9,3.3 3,4.5c1.1,1.2 1.9,7.2 1.7,7.9c-0.2,0.7 1.3,2.5 2.5,0.5l-2.3,-14.4l-4.9,1.5z" class="st0"/>
     <path id="svg_159" d="m292.9,236.7c0,0 4.2,5.3 5.8,5.7c1.6,0.4 6.9,1.2 6.9,1.2s1.3,-1.1 0.1,-2.5c-1.2,-1.4 -9.8,-6.5 -9.8,-6.5l-3,2.1z" class="st0"/>
    </g>
    <g id="Teeth_2_">
     <path id="svg_160" d="m216.7,248.7c0.7,1.6 1.4,3.2 2.4,4.5c0.6,0.7 1.3,1.3 2,1.6c0.7,0.4 1.6,-0.2 1.6,-1.2c0.2,-2.7 0.5,-5.5 1.4,-7.9c0.4,-1.1 3.5,-5.1 2.7,-6c-0.8,-0.9 -4.8,-2.4 -5.8,-2.8c-1.6,-0.7 -3.2,-1.3 -4.8,-1.7c-1.8,-0.4 -2.3,-0.9 -2.7,1.3c-0.6,3.7 1.9,9.1 3.2,12.2z" class="st5"/>
     <path id="svg_161" d="m199.1,242.4c2.3,-0.2 4.5,-0.8 6.6,-1.7c0.6,-0.3 1.2,-0.7 1.7,-1.1c1.2,-1 4,-3.9 4.5,-5.3c0.4,-1 -1.3,-0.7 -1.7,-1.7c-0.3,-0.7 -0.8,-1.3 -1.4,-1.7c-3.7,-2.4 -5,-2.1 -6.4,1.9c-0.4,1.1 -2.2,6.1 -3.9,8.5c-0.3,0.5 0,1.2 0.6,1.1z" class="st5"/>
     <path id="svg_162" d="m236.7,248.3c0.3,0.3 0.7,0.5 1.1,0.4c0.4,-0.1 0.6,-0.5 0.8,-0.9c0.8,-1.7 1.7,-3 2.5,-4.8c1.6,1.6 3.2,2.7 5,4c0.7,0.5 1.5,0.9 2.2,0.5c0.4,-0.2 0.6,-0.6 0.7,-1c0.7,-1.6 1.3,-3.3 1.7,-5c0.1,-0.3 0.1,-0.6 -0.1,-0.8c-0.1,-0.1 -0.3,-0.2 -0.4,-0.2c-1,-0.2 -2.1,-0.1 -3,0.3c-0.7,0.3 -1.2,0.5 -2,0.6c-1.1,0.2 -2.6,-0.5 -3.6,0.1c-0.2,0.1 -0.3,0.3 -0.6,0.3c-0.2,0 -0.4,0 -0.6,-0.1c-1.5,-0.5 -5.7,-2.2 -6.6,-0.4c-0.9,1.9 1.7,6.1 2.9,7z" class="st5"/>
     <path id="svg_163" d="m288.9,248.7c-0.7,1.6 -1.4,3.2 -2.4,4.5c-0.6,0.7 -1.3,1.3 -2,1.6c-0.7,0.4 -1.6,-0.2 -1.6,-1.2c-0.2,-2.7 -0.5,-5.5 -1.4,-7.9c-0.4,-1.1 -3.5,-5.1 -2.7,-6c0.8,-0.9 4.8,-2.4 5.8,-2.8c1.6,-0.7 3.2,-1.3 4.8,-1.7c1.8,-0.4 2.3,-0.9 2.7,1.3c0.7,3.7 -1.8,9.1 -3.2,12.2z" class="st5"/>
     <path id="svg_164" d="m306.6,242.4c-2.3,-0.2 -4.5,-0.8 -6.6,-1.7c-0.6,-0.3 -1.2,-0.7 -1.7,-1.1c-1.2,-1 -4,-3.9 -4.5,-5.3c-0.4,-1 1.3,-0.7 1.7,-1.7c0.3,-0.7 0.8,-1.3 1.4,-1.7c3.7,-2.4 5,-2.1 6.4,1.9c0.4,1.1 2.2,6.1 3.9,8.5c0.3,0.5 -0.1,1.2 -0.6,1.1z" class="st5"/>
     <path id="svg_165" d="m269,248.3c-0.3,0.3 -0.7,0.5 -1.1,0.4c-0.4,-0.1 -0.6,-0.5 -0.8,-0.9c-0.8,-1.7 -1.7,-3 -2.5,-4.8c-1.6,1.6 -3.2,2.7 -5,4c-0.7,0.5 -1.5,0.9 -2.2,0.5c-0.4,-0.2 -0.6,-0.6 -0.7,-1c-0.7,-1.6 -1.3,-3.3 -1.7,-5c-0.1,-0.3 -0.1,-0.6 0.1,-0.8c0.1,-0.1 0.3,-0.2 0.4,-0.2c1,-0.2 2.1,-0.1 3,0.3c0.7,0.3 1.2,0.5 2,0.6c1.1,0.2 2.6,-0.5 3.6,0.1c0.2,0.1 0.3,0.3 0.6,0.3c0.2,0 0.4,0 0.6,-0.1c1.5,-0.5 5.7,-2.2 6.6,-0.4c0.8,1.9 -1.8,6.1 -2.9,7z" class="st5"/>
    </g>
   </g>
   <g id="svg_166">
    <path id="svg_167" d="m298.9,156.8c9.4,-3.7 19.5,-5 29,-8.5c14,-5.2 25,-17.7 28.5,-32.2c0.2,5 0.4,9.9 0.6,14.9c9,-7.5 12.3,-19.8 19.2,-29.3c8.5,-11.7 21.9,-18.5 34.8,-25.2c3.3,-1.7 6.7,-3.5 8.6,-6.7c-5.5,11.1 -15.4,19.9 -19.8,31.5c-2.5,6.5 -3.1,13.6 -4.6,20.4c-1.6,6.8 -4.5,13.8 -10.2,17.8c6.1,-3.5 12.2,-7.1 17.1,-12.1c3.7,-3.9 6.6,-8.5 10.1,-12.6s8,-7.7 13.3,-8.5c-5.8,5.5 -11.7,11.4 -15.1,18.6c-2.3,4.9 -3.5,10.2 -5.3,15.3c-4.4,12.2 -13.1,22.8 -24.2,29.5c-11.1,6.8 -24.4,9.7 -37.3,8.1c0.9,2.4 3.7,3.3 6.3,3.9c9.8,2 19.9,2.7 29.8,2.1c-14.6,5.2 -30.7,8.6 -45.3,3.5c-6.2,-2.2 -11.7,-5.8 -17.8,-8.1c-11,-4.3 -23.6,-4.3 -34.7,-0.1c0.5,-0.3 7.8,-18.7 17,-22.3z" class="st0"/>
    <path id="svg_168" d="m301.6,158.2c7.6,-3 15.8,-4.1 23.5,-6.9c11.3,-4.2 20.3,-14.3 23.1,-26.1c0.2,4 0.3,8.1 0.5,12.1c7.3,-6.1 9.9,-16 15.5,-23.7c6.9,-9.5 17.8,-15 28.2,-20.4c2.6,-1.4 5.4,-2.9 6.9,-5.4c-4.5,9 -12.5,16.1 -16.1,25.5c-2,5.3 -2.5,11 -3.8,16.6c-1.3,5.5 -3.6,11.2 -8.2,14.4c4.9,-2.8 9.9,-5.7 13.9,-9.8c3,-3.1 5.3,-6.9 8.2,-10.2c2.9,-3.3 6.5,-6.2 10.8,-6.9c-4.7,4.5 -9.4,9.2 -12.2,15.1c-1.9,4 -2.8,8.3 -4.3,12.4c-3.6,9.9 -10.6,18.4 -19.6,23.9s-19.8,7.8 -30.2,6.6c0.7,1.9 3,2.7 5.1,3.1c7.9,1.7 16.1,2.2 24.2,1.7c-11.8,4.2 -24.9,7 -36.7,2.9c-5,-1.7 -9.5,-4.7 -14.4,-6.6c-8.9,-3.5 -19.1,-3.5 -28.1,-0.1c0.3,-0.4 6.3,-15.3 13.7,-18.2z" class="st2"/>
    <path id="svg_169" d="m293.7,171.5c7.2,-11.4 21.9,-15.6 42.6,-16.1c20.7,-0.5 30.1,-26.9 32.4,-34.5c0,12.4 0.5,32.5 -8.6,35.2c13.6,-1.8 17.9,-4.2 21.1,-9.3c-2.9,8.9 -12.2,20 -28.9,21.9s-12.5,0 -23,2.4c1,4.4 4.7,6.4 8.8,9c-11,1.7 -16.3,-8.7 -23.8,-10.3c-7.6,-1.7 -14,2 -20.6,1.7z" class="st4"/>
   </g>
   <g id="svg_170">
    <path id="svg_171" d="m190,151.8c-4.3,-1.2 -8.9,-2.5 -11.4,-5.8c-1.8,-2.3 -2.2,-5.3 -3.2,-8c-2.3,-6.4 -8,-11.9 -15.1,-14.4c-5.6,-2 -11.8,-2.2 -17.5,-4.1c-7.7,-2.6 -13.8,-8.5 -16.1,-15.5c-2.3,-7 -0.7,-14.9 4.2,-20.7c-8.1,1 -14,8 -14.8,15.2c-0.8,7.2 2.6,14.3 7.3,20.3c-6.1,-1.9 -10.9,-7 -11.9,-12.7c-4.7,6.8 -4.4,15.4 -3.2,23.4c0.6,3.7 1.3,7.4 3.2,10.7c1.9,3.4 5,6.2 7.9,8.9c4.7,4.3 9.4,8.7 15.1,11.8c7.1,3.9 15.4,5.7 23.7,6.7c9.5,1.2 14.4,-0.2 20.5,3.4c-10.9,-2.2 -15.6,0.2 -27.1,-0.9c-8,-0.8 -16.9,-2.4 -22.4,-7.6c0.3,7.3 6.6,16.3 14,19.7s16,4.2 24.2,3.7c5.7,-0.3 11.4,-1.1 16.7,-2.9c5.1,-1.6 9.8,-4.1 14.9,-5.5c5.3,-1.5 11,1.1 16.1,3.2c3.6,-4.9 5.6,-15.3 0.5,-20.1c-5.9,-5.3 -17.7,-6.6 -25.6,-8.8z" class="st0"/>
    <path id="svg_172" d="m186.7,149c-3.7,-0.7 -7.7,-1.5 -10.2,-4.3c-1.8,-2 -2.5,-4.8 -3.6,-7.2c-2.6,-5.9 -8,-10.4 -14.2,-12.1c-4.9,-1.3 -10.2,-0.9 -15.2,-2.1c-6.7,-1.7 -12.6,-6.7 -15.3,-13.1c-2.7,-6.4 -2.2,-14 1.2,-20c-6.7,1.7 -10.9,9 -10.8,16c0.1,6.9 3.8,13.3 8.4,18.5c-5.4,-1.2 -9.9,-5.5 -11.4,-10.8c-3.2,7 -2,15.1 -0.1,22.5c0.9,3.4 1.9,6.9 3.9,9.8c2,3 4.9,5.4 7.7,7.7c4.4,3.6 8.8,7.2 14,9.6c6.4,3 13.6,3.8 20.7,3.9c8.2,0.1 12.1,-1.7 17.6,1.1c-9.4,-1 -13.1,1.8 -22.9,2c-6.8,0.1 -14.5,-0.6 -19.7,-4.9c1.1,6.9 7.3,14.7 13.9,17.3c6.6,2.5 13.9,2.3 20.8,1c4.8,-0.9 9.5,-2.3 13.8,-4.5c4.1,-2.1 7.8,-4.9 11.9,-6.8c4.3,-1.9 9.4,-0.1 13.9,1.4c2.5,-5 3,-15.1 -1.8,-19.1c-5.7,-4.7 -15.7,-4.7 -22.6,-5.9z" class="st2"/>
    <path id="svg_173" d="m201.9,156.8c-3.5,-1.7 -7.5,-1.9 -11.4,-2.1c-3.9,-0.2 -7.9,-0.3 -11.4,-1.9c-8.7,-4 -12.4,-15.9 -21.7,-18.3c-3.7,-0.9 -7.6,-0.1 -11.4,-0.1c-3.8,0 -8.1,-1.1 -9.9,-4.5c-2.3,5.3 0.2,11.7 4.6,15.4c4.4,3.7 10.2,5.3 15.9,6.2c-2.6,1.5 -5.7,1.9 -8.6,1.1c-0.4,4.3 4.5,7.2 8.8,8c11.3,2.2 23.6,-2 34.1,2.8c-3.4,0.4 -5.2,4.1 -7.4,6.6c-2.5,2.8 -6.1,4.6 -9.9,4.8c4.2,1.2 8.8,0.3 12.4,-2.2c2.3,-1.6 4.2,-3.8 6.4,-5.7c2.2,-1.8 4.8,-3.4 7.6,-3.3c2.8,0.1 5.7,2.5 5.4,5.4c0,-0.4 2,-2 2.2,-2.9c0.3,-1.1 0.1,-2.2 -0.2,-3.3c-0.6,-2.6 -3,-4.8 -5.5,-6z" class="st4"/>
   </g>
  </g>
  <g id="Logo_2_">
   <g id="Logo">
    <g id="Logo_3_">
     <polygon id="svg_174" points="347.20001220703125,420.8999938964844 218.39999389648438,444.1000061035156 161,367.5 352.6000061035156,335.79998779296875 " class="st0"/>
     <path id="svg_175" d="m167.1,340.1c0,0 -52.6,22.9 -88.7,53.2c-36.1,30.3 -44.4,78.4 -44.4,78.4s-2.8,16.5 -0.5,23.3c0,0 9.9,-29.9 29.4,-37.9c0,0 -0.3,27.5 6.8,46.8c0,0 19.3,-68.7 92.6,-98.3c0,0 11.2,-5.1 8.4,-13.3c0,0 22.6,-9.6 25,-17l8.9,3.4l-37.5,-38.6z" class="st0"/>
     <path id="svg_176" d="m275.7,363.7l1.7,-1.3l3.7,1.8l9.3,-1.3l0.3,-2.2l2.6,1.6l5.5,-0.5l1.4,-2.8l3.7,1.4l7.7,-0.4l0.4,-1.3l7.1,0.6l1.7,-1.1l14,3.4l1.6,-0.4l42.2,19.5l3.4,-6.9c0,0 10.2,6.8 12.1,0.6l1.4,-5.9c0,0 10.4,3.1 18,2c0,0 -6.3,-3.4 -6.9,-6.6l-83.3,-32.6l-47.6,32.4z" class="st0"/>
     <path id="svg_177" d="m368.2,348l0.4,-0.8l-0.1,0.9l0,0.3l-0.5,4.8l-2.2,-1l2.3,-3.9l0.1,-0.3zm-50.6,-6.2l4,0.3l-0.7,-8l-3.3,7.7zm-3.6,8.2l-0.6,1.3l9.3,2.9l-0.5,-4l-8.2,-0.2zm-21.5,2.8l4.1,1.7l0.3,-5l1.2,-11.7l-4.5,11.8l-1.1,3.2zm-10.5,-14.6l-1.1,12.6l-0.2,2.7l5,2l-1.2,-5.1l-2.5,-12.2zm-56.2,3.3c-0.2,-1.1 -0.5,-2 -1,-2.6c-0.4,-0.7 -1,-1.1 -1.8,-1.4c-0.8,-0.3 -1.9,-0.4 -3.3,-0.4c-0.3,0 -0.7,0 -1.1,0.1c-0.4,0 -0.8,0.1 -1.2,0.1c-0.4,0.1 -0.9,0.1 -1.3,0.2c-0.5,0.1 -1,0.2 -1.5,0.3l-3.5,0.7l1.9,20.5l3.9,-1c2.4,-0.6 4.2,-1.2 5.6,-1.9c1.3,-0.7 2.2,-1.5 2.8,-2.4c0.6,-0.9 0.9,-2 1.1,-3.4c0.1,-1.2 0.1,-2.7 -0.1,-4.9c-0.1,-1.8 -0.3,-2.9 -0.5,-3.9zm-47.1,12c-0.5,-1.2 -1.1,-2.1 -1.9,-2.8c-0.8,-0.8 -1.7,-1.4 -2.7,-1.7c-0.9,-0.3 -2,-0.5 -3.2,-0.5c-0.3,0 -0.5,0 -0.8,0c-0.3,0 -0.7,0.1 -1.1,0.1c-0.4,0 -0.7,0.1 -1.1,0.2c-0.4,0.1 -0.8,0.2 -1.2,0.3c-0.4,0.1 -0.8,0.2 -1.3,0.3c-2.4,0.7 -4.4,1.6 -6,2.7c-1.5,1 -2.5,2.2 -3.2,3.6c-0.7,1.3 -1,2.7 -1,4.3c0,1.5 0.2,3.1 0.7,5c0.4,1.5 0.8,2.8 1.4,3.9c0.6,1.2 1.3,2.1 2.1,2.8c0.8,0.8 1.8,1.3 2.9,1.6c1.2,0.3 2.5,0.4 4.1,0.2c0.3,0 0.7,-0.1 1,-0.2c0.4,-0.1 0.7,-0.1 1.1,-0.2c0.4,-0.1 0.8,-0.2 1.2,-0.3c0.4,-0.1 0.8,-0.2 1.2,-0.4l0,0c2.3,-0.8 4.2,-1.7 5.6,-2.8c1.3,-1 2.3,-2.1 2.9,-3.5c0.6,-1.2 0.9,-2.5 1,-4.1c0.1,-1.4 -0.1,-3 -0.5,-4.8c-0.3,-1.4 -0.7,-2.7 -1.2,-3.7zm268.7,-8.1c-0.9,1.8 -8.1,10.7 -42.4,10.7c-5.4,0 -16.4,-3 -21.4,-3.8c-0.1,0.6 -0.1,1.2 -0.2,1.8c-0.3,2.5 -0.1,5.6 -3,6.4c-2,0.6 -4.1,-0.1 -6,-0.7c-0.8,-0.2 -1.6,-0.5 -2.3,-0.7l1,-9.2l0,-0.3l1.3,-11.7c0,-0.2 -0.1,-0.4 -0.2,-0.5l-3.6,-2.1c-0.2,-0.1 -0.5,-0.1 -0.6,0.2l-0.1,0.2l-7.8,-1.3l0.6,-2.2c0.1,-0.2 -0.1,-0.5 -0.3,-0.6l-4,-1.6l-0.2,-0.1c-0.1,0 -0.3,0 -0.4,0c-0.1,0.1 -0.2,0.2 -0.2,0.3l0,0l-3.5,12.7l-2.8,10.1l-1.3,4.6c-0.1,0.3 0.1,0.5 0.3,0.6l4.2,1.2c0,0 0.1,0 0.1,0c0.1,0 0.2,0 0.2,-0.1c0.1,-0.1 0.2,-0.2 0.2,-0.3l1.3,-4.8l2.6,-9.4l0.9,-3.4l2,-7.2l7.8,1.3l-6.1,10.3l-0.3,0.5l-5,8.4l-2.4,4c-0.1,0.1 -0.1,0.3 0,0.4c0,0.1 0.1,0.2 0.3,0.3l3.8,1.6c0.2,0.1 0.5,0 0.6,-0.2l1.5,-2.7l4.9,2.2l-0.4,3.2c0,0.2 0.1,0.4 0.3,0.5l3.7,1.6l-39.3,-10.9l4.1,0.6c0.3,0 0.5,-0.1 0.5,-0.4l1,-4.4l2.5,-10.7l2.2,11.2l1,5c0,0.2 0.2,0.3 0.4,0.4l4.3,0.7c0,0 0,0 0.1,0c0.2,0 0.4,-0.1 0.5,-0.4l1,-4.4l2.5,-10.8l2.1,-9l0.7,-3l0.2,-1c0.1,-0.2 -0.1,-0.5 -0.3,-0.6l-4.4,-1.2c-0.1,0 -0.3,0 -0.4,0c-0.1,0.1 -0.2,0.2 -0.2,0.3l0,0l-3,13l-2.5,-13.9l-0.2,-1c0,-0.2 -0.2,-0.3 -0.3,-0.4l-5.4,-1.5c-0.1,0 -0.3,0 -0.4,0c-0.1,0.1 -0.2,0.2 -0.2,0.3l0,0l-6,26.2l-0.9,3.9c0,0.1 0.1,0.4 0.1,0.4l-1,-0.6l-0.3,-3.9l-2.3,-27.7l8.6,1.3l-8.6,-1.3l0,-0.5c0,-0.2 -0.2,-0.4 -0.4,-0.4l-6,-0.8c-0.2,0 -0.4,0.1 -0.5,0.3l0,0.1l-12.6,28.3c0,0 -1.7,4.5 -1.7,4.5l-1.4,-0.8l0.4,-3.7l3.1,-29.5c0,-0.1 0,-0.3 -0.1,-0.4s-0.2,-0.2 -0.3,-0.2l-8.9,-0.2c-0.2,0 -0.4,0.1 -0.4,0.3l-7.3,19.5l-3.6,-19.7c0,-0.2 -0.2,-0.4 -0.5,-0.4l-10.3,-0.2c-0.2,0 -0.5,0.2 -0.5,0.4l-2.8,32.6l-0.2,4.9l-4.1,-1.9l0.1,-2.5l0.1,-3.9c0,-0.1 -0.1,-0.3 -0.2,-0.4c-0.1,-0.1 -0.2,-0.1 -0.4,-0.1l-15.7,2.6l0,-4.5l15.3,-2.3c0.2,0 0.4,-0.2 0.4,-0.5l0.2,-9.2c0,-0.1 -0.1,-0.3 -0.2,-0.4c-0.1,-0.1 -0.2,-0.1 -0.4,-0.1l-15.3,1.9l0,-3.9l15.9,-1.8c0.2,0 0.4,-0.2 0.4,-0.5l0.2,-9.7c0,-0.1 -0.1,-0.3 -0.1,-0.4c-0.1,-0.1 -0.2,-0.1 -0.4,-0.1l-26,2.2c-0.2,0 -0.4,0.2 -0.4,0.5l0,34.7l0.2,5.9l-5.8,-3l-1.8,-0.8c0.1,-0.2 0.3,-0.5 0.4,-0.7c0.8,-1.4 1.3,-3 1.7,-4.7c0.6,-2.8 0.8,-6.2 0.5,-10.2c-0.2,-3.4 -0.7,-6.1 -1.4,-8.4c-0.7,-2.4 -1.7,-4.2 -2.9,-5.7c-1.3,-1.5 -2.8,-2.5 -4.7,-3.1c-1.8,-0.6 -4,-0.9 -6.6,-0.9c-0.6,0 -1.3,0 -1.9,0.1c-0.7,0 -1.3,0.1 -2,0.2c-0.7,0.1 -1.4,0.2 -2.2,0.3c-0.8,0.1 -1.5,0.2 -2.3,0.4l-15.7,2.6c-0.2,0 -0.4,0.3 -0.4,0.5l4,38.1l0.8,5.9l-6.1,-4.2l-0.1,-0.1c-1.5,0.5 -3.3,1.1 -4.2,1.4c0.5,-1 1,-2.1 1.3,-3.2l0,0l0,0c0.3,-1 0.5,-1.9 0.7,-3c0.6,-3.3 0.4,-7.1 -0.4,-11.2c-0.7,-3.2 -1.6,-6.1 -2.9,-8.4c-1.2,-2.3 -2.8,-4.2 -4.6,-5.7c-1.8,-1.4 -3.8,-2.5 -6.1,-3.2c-2.2,-0.6 -4.7,-0.9 -7.5,-0.8c-0.8,0 -1.6,0.1 -2.3,0.2c-0.8,0.1 -1.6,0.2 -2.4,0.3c-0.8,0.1 -1.7,0.3 -2.5,0.5c-0.9,0.2 -1.7,0.4 -2.6,0.6c-4.2,1.1 -7.9,2.5 -10.9,4.2c-3.4,1.9 -6.1,4.2 -8.1,6.8c-1.1,1.4 -2,3 -2.7,4.6c-0.7,1.6 -1.2,3.3 -1.4,5.1c-1.1,8.6 4.8,21.2 4.9,21.4c1.5,2.3 3.4,4.2 5.6,5.5c0.6,0.4 1.2,0.7 1.8,1c1.5,0.7 3.2,1.2 5,1.5c0.2,0 0.3,0 0.5,0.1c0,0 0.1,0 0.1,0c0.5,1.6 0.7,2.9 0.8,4c0.1,0.3 0.1,0.6 0.1,0.9c0.7,6.3 -17.3,12.4 -22,15c-3.7,2.1 -10.6,4.9 -24.9,11.7c-32.5,15.5 -63.2,62.8 -63.7,65.9c-0.1,-1.5 -1.1,-13.8 -0.1,-22.3c1.5,-12.8 3.8,-22.4 3.8,-22.4s-3.4,-2 -16.9,8.6c-5.4,4.3 -20.5,19.1 -20.5,19.1s3.3,-23.2 22.3,-49.8c4.5,-0.3 8.5,-4.2 7.4,-9.5c2.5,-3 5.1,-5.9 7.8,-8.8c2.1,0.7 4.2,1.4 6.2,1.8c4,0.9 7.7,0.8 11,-0.5c-0.5,-0.9 -1,-1.9 -1.4,-2.8c-1.3,0.3 -2.7,0.3 -4.2,0.1c-2.6,-0.4 -5.1,-1.5 -7.5,-2.8c2.4,-2.4 4.8,-4.7 7.2,-6.8c-1.6,-3.7 -3,-7.1 -4.2,-10.4c-0.9,-2.5 -1.7,-4.9 -2.3,-7.3c-2.1,-7.3 -3.2,-14.1 -3.8,-20.8c-1,-12.3 69.2,-35 102.9,-39.7c40.4,-5.7 100.9,-5.8 146.5,0.6c24.8,3.5 44.7,9.8 58.7,15.7c0.1,-0.1 0.2,-0.2 0.3,-0.2c0.5,-0.3 1.2,-0.4 2,-0.3c0.3,-0.1 0.6,-0.1 0.9,-0.1c1.5,0.1 3.2,0.7 4.5,1.3c3.4,1.6 7,2.9 10.6,4.1c1.1,0.3 1.9,0.5 2.7,0.9c0.7,0.2 1.5,0.4 2.3,0.7c29,10.6 97,-18 97,-18s-20,26.3 -73.2,31c2.7,1 26.9,3.9 40.1,1zm-314.7,8c0.1,-0.1 0.1,-0.3 0,-0.4c0,-0.1 -0.1,-0.2 -0.3,-0.3c-1,-0.4 -2.1,-0.8 -3.1,-1.1c-1,-0.3 -2.1,-0.6 -3.2,-0.7c-0.3,-0.1 -0.6,-0.1 -1,-0.1c-0.8,-0.1 -1.6,-0.2 -2.4,-0.2c-1.2,-0.1 -2.4,-0.1 -3.6,0c-1,0.1 -2.1,0.2 -3.1,0.3c-1.1,0.2 -2.2,0.4 -3.4,0.6c-1.2,0.3 -2.4,0.6 -3.7,1c-1.3,0.4 -2.6,0.8 -4,1.3c-5.3,1.9 -9.9,4.1 -13.5,6.6c-3.9,2.6 -6.9,5.6 -8.8,8.8c-1.1,1.8 -1.9,3.8 -2.4,5.8c-0.1,0.2 -0.1,0.5 -0.2,0.7c-0.2,0.9 -0.2,1.8 -0.4,2.8c-0.3,1.9 0.2,4.5 0.2,5c0.2,1.3 0.5,2.6 0.9,3.9c0.6,1.8 1.3,3.7 2.3,5.6c1,2.1 2.1,3.9 3.3,5.5c0.1,0.2 0.3,0.4 0.4,0.6c0.4,0.5 0.8,1.1 1.2,1.6c0.1,0.1 0.1,0.1 0.2,0.2c1.9,2.2 4,4 6.3,5.3c2.3,1.3 4.9,2.2 7.6,2.6c0,0 0,0 0,0c1.1,0.2 2.3,0.2 3.5,0.2c1.8,0 3.6,-0.2 5.5,-0.5c1.1,-0.2 2.2,-0.4 3.4,-0.7c1.2,-0.3 2.4,-0.7 3.6,-1.1c1.2,-0.4 2.5,-0.9 3.8,-1.4c0.5,-0.2 1,-0.4 1.5,-0.6c0.8,-0.3 1.6,-0.7 2.4,-1.1c3.1,-1.4 5.9,-3 8.3,-4.5c1.5,-1 2.9,-2 4.1,-3.1c0.5,-0.4 1,-0.9 1.5,-1.4c1.4,-1.4 2.6,-2.9 3.7,-4.5c0.5,-0.7 0.9,-1.5 1.4,-2.3c0.4,-0.7 0.7,-1.4 1.1,-2.1c0.1,-0.1 0.1,-0.3 0,-0.4c-0.1,-0.1 -0.2,-0.2 -0.3,-0.3l-0.7,-0.2l0,0l-12,-3.6c-0.2,-0.1 -0.4,0 -0.5,0.2c-0.7,1.2 -1.2,2.1 -1.7,2.8c-0.7,0.9 -1.3,1.8 -2.1,2.5c-0.8,0.8 -1.8,1.6 -2.9,2.3c-1.2,0.8 -2.5,1.5 -4.1,2.2c-0.7,0.3 -1.4,0.6 -2,0.8c-0.7,0.2 -1.3,0.5 -1.9,0.7c-0.6,0.2 -1.2,0.4 -1.8,0.5c-0.6,0.1 -1.1,0.2 -1.7,0.3c-1.6,0.2 -3,0.2 -4.3,0c-1.2,-0.2 -2.3,-0.7 -3.4,-1.4c-1,-0.7 -1.9,-1.5 -2.7,-2.6c-0.6,-0.8 -1.1,-1.6 -1.6,-2.6c-0.2,-0.4 -0.4,-0.7 -0.6,-1.1c-1,-2.1 -1.5,-3.9 -1.7,-5.6c-0.2,-1.8 0.1,-3.4 0.8,-4.8c0.7,-1.5 1.9,-2.9 3.6,-4.2c1.7,-1.3 3.9,-2.5 6.7,-3.5c0.6,-0.2 1.2,-0.5 1.8,-0.6c0.6,-0.2 1.1,-0.3 1.7,-0.5c0.5,-0.1 1.1,-0.2 1.6,-0.3c0.5,-0.1 1,-0.1 1.5,-0.2c0.7,-0.1 1.4,-0.1 2.1,-0.1c0.6,0 1.3,0.1 1.9,0.2c0.6,0.1 1.2,0.2 1.9,0.4c0.6,0.2 1.2,0.3 1.8,0.6c0.2,0.1 0.5,0 0.6,-0.2l1,-2l5.9,-11.6z" class="st5"/>
     <path id="svg_178" d="m373.1,349.6l1.3,-11.7c0,-0.2 -0.1,-0.4 -0.2,-0.5l-3.6,-2.1c-0.2,-0.1 -0.5,-0.1 -0.6,0.2l-0.1,0.2l0,0l-6.1,10.3l-0.3,0.5l-5,8.4l-2.4,4c-0.1,0.1 -0.1,0.3 0,0.4c0,0.1 0.1,0.2 0.3,0.3l3.8,1.6c0.2,0.1 0.5,0 0.6,-0.2l1.5,-2.7l4.9,2.2l-0.4,3.2c0,0.2 0.1,0.4 0.3,0.5l0.8,0.3l2.9,1.2c0.1,0 0.1,0 0.2,0c0.1,0 0.2,0 0.2,-0.1c0.1,-0.1 0.2,-0.2 0.2,-0.4l0.7,-6.3l1,-9.2l0,-0.1zm-4.6,-1.5l0,0.3l-0.5,4.8l-2.2,-1l2.3,-3.9l0.1,-0.2l0.4,-0.8l-0.1,0.8zm-14.4,-5.2l3.5,-12.7l0,0c0,-0.1 0.1,-0.2 0.2,-0.3c0.1,-0.1 0.3,-0.1 0.4,0l0.2,0.1l4,1.6c0.2,0.1 0.3,0.3 0.3,0.6l-0.6,2.2l0,0l-2,7.2l-0.9,3.4l-2.6,9.4l-1.3,4.8c0,0.1 -0.1,0.2 -0.2,0.3c-0.1,0 -0.2,0.1 -0.2,0.1c0,0 -0.1,0 -0.1,0l-4.2,-1.2c-0.3,-0.1 -0.4,-0.3 -0.3,-0.6l1.3,-4.6l2.5,-10.3zm-22.7,11.9l0,0l-0.8,-0.1c-0.1,0 -0.2,-0.1 -0.3,-0.2c0,-0.1 -0.1,-0.1 -0.1,-0.2c0,-0.1 0,-0.1 0,-0.2l0.9,-3.9l6,-26.2l0,0c0,-0.1 0.1,-0.2 0.2,-0.3c0.1,-0.1 0.2,-0.1 0.4,0l5.4,1.5c0.2,0 0.3,0.2 0.3,0.4l0.2,1l2.5,13.9l3,-13l0,0c0,-0.1 0.1,-0.2 0.2,-0.3c0.1,-0.1 0.2,-0.1 0.4,0l4.4,1.2c0.2,0.1 0.4,0.3 0.3,0.6l-0.2,1l-0.7,3l-2.1,9l-2.5,10.8l-1,4.4c-0.1,0.2 -0.2,0.4 -0.5,0.4c0,0 0,0 -0.1,0l-4.3,-0.7c-0.2,0 -0.4,-0.2 -0.4,-0.4l-1,-5l-2.2,-11.2l-2.5,10.7l-1,4.4c-0.1,0.2 -0.3,0.4 -0.5,0.4l-4,-1zm-94.5,-1.5c0.6,-2.8 0.8,-6.2 0.5,-10.2c-0.2,-3.4 -0.7,-6.1 -1.4,-8.4c-0.7,-2.4 -1.7,-4.2 -2.9,-5.7c-1.3,-1.5 -2.8,-2.5 -4.7,-3.1c-1.8,-0.6 -4,-0.9 -6.6,-0.9c-0.6,0 -1.3,0 -1.9,0.1c-0.7,0 -1.3,0.1 -2,0.2c-0.7,0.1 -1.4,0.2 -2.2,0.3c-0.8,0.1 -1.5,0.2 -2.3,0.4l-15.7,2.6c-0.2,0 -0.4,0.3 -0.4,0.5l4,38.1l0.6,5.2l0,0.4c0,0.1 0.1,0.3 0.2,0.3c0.1,0.1 0.2,0.1 0.3,0.1c0,0 0.1,0 0.1,0l14.9,-4c4,-1.1 7.2,-2.3 9.8,-3.6c2.7,-1.4 4.8,-3 6.4,-5c0.5,-0.6 0.9,-1.1 1.2,-1.8c0.1,-0.2 0.3,-0.5 0.4,-0.7c0.8,-1.5 1.4,-3 1.7,-4.8zm-10.5,-3c-0.1,1.4 -0.5,2.5 -1.1,3.4c-0.6,1 -1.5,1.8 -2.8,2.4c-1.4,0.7 -3.2,1.4 -5.6,1.9l-3.9,1l-1.9,-20.6l3.5,-0.7c0.5,-0.1 1,-0.2 1.5,-0.3c0.5,-0.1 0.9,-0.1 1.3,-0.2c0.4,-0.1 0.8,-0.1 1.2,-0.1c0.4,0 0.7,-0.1 1.1,-0.1c1.4,-0.1 2.5,0.1 3.3,0.4c0.8,0.3 1.4,0.8 1.8,1.4c0.4,0.6 0.7,1.5 1,2.6c0.2,1 0.3,2.2 0.5,4c0.2,2.2 0.2,3.7 0.1,4.9zm-86.5,44.1c-0.5,0.5 -1,0.9 -1.5,1.4c-1.2,1.1 -2.6,2.1 -4.1,3.1c-2.4,1.6 -5.1,3.1 -8.3,4.5c-0.8,0.4 -1.6,0.7 -2.4,1.1c-0.5,0.2 -1,0.4 -1.5,0.6c-1.3,0.5 -2.5,1 -3.8,1.4c-1.2,0.4 -2.4,0.8 -3.6,1.1c-1.2,0.3 -2.3,0.5 -3.4,0.7c-1.9,0.3 -3.8,0.5 -5.5,0.5c-1.2,0 -2.4,-0.1 -3.5,-0.2c0,0 0,0 0,0c-2.7,-0.4 -5.3,-1.2 -7.6,-2.6c-2.3,-1.3 -4.4,-3.1 -6.3,-5.3c-0.1,-0.1 -0.1,-0.1 -0.2,-0.2c-0.4,-0.5 -0.8,-1 -1.2,-1.6c-0.1,-0.2 -0.3,-0.4 -0.4,-0.6c-1.2,-1.6 -2.2,-3.4 -3.3,-5.5c-1,-1.9 -1.7,-3.8 -2.3,-5.6c-0.4,-1.3 -0.7,-2.6 -0.9,-3.9c-0.1,-0.5 -0.2,-1 -0.2,-1.6l0,0c0,-0.6 -0.1,-1.1 -0.1,-1.6c0,-0.6 0,-1.2 0.1,-1.8c0.1,-0.9 0.2,-1.9 0.4,-2.8c0,-0.2 0.1,-0.5 0.2,-0.7c0.5,-2 1.3,-3.9 2.4,-5.8c2,-3.2 4.9,-6.2 8.8,-8.8c3.7,-2.5 8.2,-4.7 13.5,-6.6c1.4,-0.5 2.7,-0.9 4,-1.3c1.3,-0.4 2.5,-0.7 3.7,-1c1.2,-0.3 2.3,-0.5 3.4,-0.6c1.1,-0.2 2.1,-0.3 3.1,-0.3c1.2,-0.1 2.4,-0.1 3.6,0c0.8,0 1.6,0.1 2.4,0.2c0.3,0 0.6,0.1 1,0.1c1.1,0.2 2.1,0.4 3.2,0.7c1,0.3 2,0.7 3.1,1.1c0.1,0.1 0.2,0.1 0.3,0.3c0,0.1 0,0.3 0,0.4l-4.3,8.3l0,0l-1.5,2.9l0,0l-1,2c-0.1,0.2 -0.4,0.3 -0.6,0.2c-0.7,-0.2 -1.3,-0.4 -1.8,-0.6c-0.6,-0.2 -1.3,-0.3 -1.9,-0.4c-0.7,-0.1 -1.3,-0.2 -1.9,-0.2c-0.7,0 -1.4,0 -2.1,0.1c-0.5,0 -1,0.1 -1.5,0.2c-0.5,0.1 -1,0.2 -1.6,0.3c-0.5,0.1 -1.1,0.3 -1.7,0.5c-0.6,0.2 -1.2,0.4 -1.8,0.6c-2.7,1 -5,2.2 -6.7,3.5c-1.7,1.3 -2.9,2.7 -3.6,4.2c-0.7,1.5 -1,3 -0.8,4.8c0.2,1.7 0.7,3.6 1.7,5.6c0.2,0.4 0.4,0.8 0.6,1.1c0.5,1 1.1,1.9 1.6,2.6c0.8,1.1 1.7,2 2.7,2.6c1,0.7 2.1,1.1 3.4,1.4c1.3,0.2 2.7,0.3 4.3,0c0.5,-0.1 1.1,-0.2 1.7,-0.3c0.6,-0.1 1.2,-0.3 1.8,-0.5c0.6,-0.2 1.3,-0.4 1.9,-0.7c0.7,-0.2 1.3,-0.5 2,-0.8c1.6,-0.7 2.9,-1.4 4.1,-2.2c1.1,-0.7 2,-1.4 2.9,-2.3c0.7,-0.7 1.4,-1.6 2.1,-2.5c0.5,-0.8 1.1,-1.7 1.7,-2.8c0.1,-0.2 0.3,-0.3 0.5,-0.2l12,3.6l0,0l0.7,0.2c0.1,0 0.2,0.1 0.3,0.3c0.1,0.1 0.1,0.3 0,0.4c-0.4,0.8 -0.7,1.5 -1.1,2.1c-0.4,0.8 -0.9,1.6 -1.4,2.3c-1.2,2.1 -2.4,3.5 -3.8,4.9zm164.2,-41.4l0,0l-0.1,0.6c0,0.2 -0.2,0.4 -0.4,0.4l-6.6,0.6c-0.1,0 -0.3,0 -0.4,-0.1c-0.1,-0.1 -0.1,-0.2 -0.1,-0.4l0,-0.1l0.5,-4.5l1.2,-11.7l-4.5,11.8l-1.2,3.1l-0.8,2c-0.1,0.2 -0.2,0.3 -0.4,0.3l-5.4,0.5c-0.2,0 -0.5,-0.1 -0.5,-0.4l-0.1,-0.3l0,0l-0.9,-4.5l-2.5,-12.2l-1.1,12.6l-0.2,2.7l0,0l-0.2,2.3c0,0.2 -0.2,0.4 -0.4,0.4l-7.1,0.6c0,0 0,0 0,0c-0.1,0 -0.2,0 -0.3,-0.1c-0.1,-0.1 -0.1,-0.2 -0.1,-0.4l0,-0.1l0.4,-4.4l2.8,-32.6c0,-0.2 0.3,-0.4 0.5,-0.4l10.3,0.2c0.2,0 0.4,0.2 0.5,0.4l3.6,19.7l7.3,-19.5c0.1,-0.2 0.2,-0.3 0.4,-0.3l8.9,0.2c0.1,0 0.3,0.1 0.3,0.2s0.1,0.2 0.1,0.4l-3.1,29.5l-0.4,3.5zm22.6,-30.6l0,0l0,-0.5c0,-0.2 -0.2,-0.4 -0.4,-0.4l-6,-0.8c-0.2,0 -0.4,0.1 -0.5,0.3l0,0.1l-12.6,28.3l-1.8,4c0,0 0,0 0,0.1c0,0.1 0,0.3 0,0.4c0.1,0.1 0.2,0.2 0.4,0.2l6.1,0.1c0.2,0 0.4,-0.1 0.4,-0.3l1.1,-2.5l0.6,-1.3l8.3,0.3l0.3,3.5l0,0.2c0,0.2 0.2,0.4 0.5,0.4l5.8,0.1c0,0 0,0 0,0c0.1,0 0.3,-0.1 0.3,-0.1c0.1,-0.1 0.1,-0.2 0.1,-0.4l0,0l-0.3,-3.9l-2.3,-27.8zm-9.1,19.4l3.4,-7.7l0.7,8l-4.1,-0.3zm-124.6,25.2c0.3,-1 0.5,-1.9 0.7,-3c0.6,-3.3 0.4,-7.1 -0.4,-11.2c-0.7,-3.2 -1.6,-6.1 -2.9,-8.4c-1.2,-2.3 -2.8,-4.2 -4.6,-5.7c-1.8,-1.4 -3.8,-2.5 -6.1,-3.2c-2.2,-0.6 -4.7,-0.9 -7.5,-0.8c-0.8,0 -1.6,0.1 -2.3,0.2c-0.8,0.1 -1.6,0.2 -2.4,0.3c-0.8,0.1 -1.7,0.3 -2.5,0.5c-0.9,0.2 -1.7,0.4 -2.6,0.6c-4.2,1.1 -7.9,2.5 -10.9,4.2c-3.4,1.9 -6.1,4.2 -8.1,6.8c-1.1,1.4 -2,3 -2.7,4.6c-0.7,1.6 -1.1,3.3 -1.4,5.1c-0.6,3.8 -0.2,8 1,12.5c0.1,0.3 0.2,0.5 0.2,0.8c0.9,2.9 1.9,5.4 3.2,7.5c0,0 0,0 0,0c0.1,0.2 0.3,0.4 0.4,0.6c1.5,2.3 3.4,4.2 5.6,5.5c0.6,0.4 1.2,0.7 1.8,1c1.5,0.7 3.2,1.2 5,1.5c0.2,0 0.3,0 0.5,0.1c0,0 0.1,0 0.1,0c0.9,0.1 1.9,0.2 2.9,0.2c1.3,0 2.8,-0.1 4.2,-0.3c0.7,-0.1 1.5,-0.2 2.3,-0.4c0.8,-0.2 1.6,-0.3 2.4,-0.6c0.8,-0.2 1.6,-0.4 2.4,-0.7c0.8,-0.3 1.6,-0.5 2.4,-0.8c3.8,-1.4 7,-3 9.7,-4.8c2.8,-1.9 5.1,-4.1 6.8,-6.5c0.5,-0.8 1,-1.6 1.4,-2.4c0.6,-1 1.1,-2.1 1.4,-3.2l0,0zm-13.6,-0.9c-0.7,1.3 -1.6,2.4 -2.9,3.5c-1.4,1.1 -3.3,2 -5.6,2.8l0,0c-0.4,0.1 -0.8,0.3 -1.2,0.4c-0.4,0.1 -0.8,0.2 -1.2,0.3c-0.4,0.1 -0.7,0.2 -1.1,0.2c-0.4,0.1 -0.7,0.1 -1,0.2c-1.5,0.2 -2.9,0.1 -4.1,-0.2c-1.1,-0.3 -2.1,-0.8 -2.9,-1.6c-0.8,-0.7 -1.5,-1.7 -2.1,-2.8c-0.5,-1.1 -1,-2.4 -1.4,-3.9c-0.5,-1.9 -0.7,-3.5 -0.7,-5c0,-1.6 0.4,-3.1 1,-4.3c0.7,-1.4 1.8,-2.5 3.2,-3.6c1.5,-1.1 3.6,-2 6,-2.7c0.4,-0.1 0.9,-0.2 1.3,-0.3c0.4,-0.1 0.8,-0.2 1.2,-0.3c0.4,-0.1 0.8,-0.1 1.1,-0.2c0.4,0 0.7,-0.1 1.1,-0.1c0.3,0 0.5,0 0.8,0c1.2,0 2.2,0.2 3.2,0.5c1.1,0.4 2,0.9 2.7,1.7c0.7,0.8 1.3,1.7 1.9,2.8c0.5,1.1 0.9,2.3 1.2,3.8c0.4,1.8 0.6,3.4 0.5,4.8c0,1.4 -0.4,2.8 -1,4zm89.2,-13.8l-0.1,2.5l-0.1,2.4c0,0.2 -0.2,0.4 -0.4,0.5l-25.3,4.8c0,0 -0.1,0 -0.1,0c-0.1,0 -0.2,0 -0.3,-0.1c-0.1,-0.1 -0.2,-0.2 -0.2,-0.4l0,-0.2l0,-5.3l0,-34.7c0,-0.2 0.2,-0.4 0.4,-0.5l26,-2.2c0.1,0 0.3,0 0.4,0.1c0.1,0.1 0.2,0.2 0.1,0.4l-0.2,9.7c0,0.2 -0.2,0.4 -0.4,0.5l-15.9,1.8l0,3.9l15.3,-1.9c0.1,0 0.3,0 0.4,0.1c0.1,0.1 0.2,0.2 0.2,0.4l-0.2,9.2c0,0.2 -0.2,0.4 -0.4,0.5l-15.3,2.3l0,4.5l15.7,-2.6c0.1,0 0.3,0 0.4,0.1c0.1,0.1 0.2,0.2 0.2,0.4l-0.2,3.8z" class="st1"/>
     <path id="svg_179" d="m36.1,417.1c-2.3,0.2 -4.7,-0.6 -6.6,-2.6c-3.4,-3.7 -3.8,-9.9 -2.1,-14.5c1.7,-4.6 5.2,-7.8 9.6,-9.2c4.2,-1.4 9,-0.7 13.1,1.2c1.7,0.8 3.4,1.8 5.2,2.7c2.4,1.3 4.9,2.4 7.5,2.8c1.5,0.2 2.9,0.1 4.2,-0.1c0.5,0.9 0.9,1.9 1.4,2.8c-3.4,1.3 -7,1.4 -11,0.5c-1.9,-0.4 -4,-1.2 -6.2,-1.8c-4.7,-1.4 -9.6,-2.5 -13.5,0.5c-0.7,0.6 -1.3,1.9 -1.6,3.3c2.6,-1.4 5.4,-0.2 6.7,2.9c0.3,0.7 0.5,1.4 0.7,2.1c1.1,5.2 -2.9,9.1 -7.4,9.4zm13.1,-48.8c-5.4,0.7 -9.5,6.2 -9,11.5c0.1,1.4 0.6,3 1.4,4.1c1.1,1.6 2.8,2.4 4.7,1.7c2.1,-0.8 4.6,-3.7 3,-6.2c-1.8,-2.9 -6.1,-0.3 -4.4,2.6c-0.4,-0.4 -0.9,-1.3 -1,-1.7c-0.4,-2.3 1.1,-4.2 2.1,-5.2c1.4,-1.4 3.5,-1.9 5.3,-1.9c2.1,0.1 4.1,1.7 6,3.2c0.3,0.3 0.6,0.5 1,0.8c-0.9,-2.5 -1.7,-4.9 -2.3,-7.3c-2.1,-1.3 -4.3,-1.9 -6.8,-1.6zm19.4,38c-4.1,0.6 -8.1,2.5 -10.8,5.8c-2.8,3.4 -4.1,7.7 -3.3,12.3c0.7,4.6 3.9,9.3 8.3,10.5c7.6,2.1 13.5,-8.5 6.4,-14.1c-3.9,-3.1 -6.7,1.9 -6.7,1.9c-0.5,-1.5 -0.4,-3.8 0.3,-5.3c0.6,-1.4 1.8,-2.4 3,-3.3c2.4,-1.7 5.2,-2.6 8,-3.4c0.2,-0.1 0.4,-0.1 0.5,-0.2c-0.9,-1.6 -1.8,-3.1 -2.6,-4.7c-1.1,0.3 -2.1,0.4 -3.1,0.5z" class="st1"/>
     <path id="svg_180" d="m50.6,329.9l1.9,-1.1l6.8,6l-2,1.1l-1.2,-1.1l-2.4,1.3l0.3,1.6l-2,1.1l-1.4,-8.9zm4.3,3.8l-1.9,-1.8l0.5,2.6l1.4,-0.8zm5.5,-4l-0.1,-0.1c-1.2,-2.4 -0.4,-4.7 1.7,-5.7c1.2,-0.6 2.3,-0.5 3.3,-0.1l-0.6,2c-0.5,-0.2 -1.1,-0.4 -1.7,-0.1c-0.9,0.4 -1.2,1.6 -0.5,2.9l0,0c0.7,1.4 1.7,1.8 2.6,1.4c0.7,-0.3 0.9,-0.9 1,-1.4l1.9,0.7c-0.3,1.1 -0.8,2 -2.1,2.7c-2,0.8 -4.3,0.1 -5.5,-2.3zm6.7,-3.2l-0.1,-0.2c-1,-2.3 -0.2,-4.7 1.9,-5.6c2.1,-0.9 4.3,0 5.4,2.3l0.1,0.2c1,2.3 0.2,4.7 -1.9,5.6c-2.1,0.9 -4.4,0 -5.4,-2.3zm5.2,-2.4l-0.1,-0.1c-0.6,-1.4 -1.6,-1.9 -2.5,-1.5c-0.9,0.4 -1.2,1.5 -0.6,2.9l0.1,0.1c0.6,1.4 1.6,1.9 2.5,1.5c0.9,-0.4 1.2,-1.5 0.6,-2.9zm1.4,-5.4l1.9,-0.8l4.3,2.9l-1.6,-4l2,-0.8l3.2,7.9l-1.8,0.7l-4.4,-3l1.7,4.2l-2,0.8l-3.3,-7.9zm7.9,-3.2l5.5,-2.1l0.7,1.9l-3.4,1.3l0.5,1.4l3,-1.1l0.7,1.8l-3,1.1l1.1,3l-2.1,0.8l-3,-8.1zm6.5,-2.4l5.6,-1.9l0.6,1.8l-3.5,1.2l0.5,1.3l3.2,-1.1l0.6,1.7l-3.2,1.1l0.5,1.4l3.6,-1.2l0.6,1.8l-5.6,2l-2.9,-8.1zm6.7,-2.3l3.2,-1c1.1,-0.4 2,-0.3 2.7,0c0.6,0.3 1.1,0.9 1.3,1.7l0,0.1c0.4,1.2 0,2.2 -0.7,2.9l2.6,2.4l-2.4,0.8l-2.2,-2.1l-0.7,0.2l0.8,2.5l-2.1,0.7l-2.5,-8.2zm4.4,2.9c0.7,-0.2 1,-0.8 0.8,-1.4l0,0c-0.2,-0.7 -0.8,-0.9 -1.5,-0.7l-1,0.3l0.7,2.1l1,-0.3zm3.1,-5.3l5.7,-1.7l0.6,1.9l-3.6,1.1l0.4,1.4l3.2,-1l0.5,1.7l-3.2,1l0.4,1.4l3.6,-1.1l0.6,1.9l-5.7,1.7l-2.5,-8.3zm6.8,-2l2,-0.5l3.9,3.4l-1.1,-4.2l2.1,-0.6l2.2,8.3l-1.9,0.5l-4,-3.6l1.2,4.3l-2.1,0.6l-2.3,-8.2zm9,2.1l0,-0.1c-0.6,-2.6 0.6,-4.7 2.8,-5.2c1.3,-0.3 2.3,0 3.2,0.6l-1,1.8c-0.5,-0.3 -1,-0.6 -1.7,-0.4c-1,0.2 -1.5,1.3 -1.1,2.7l0,0c0.4,1.5 1.3,2.1 2.3,1.9c0.7,-0.2 1,-0.7 1.3,-1.2l1.7,1c-0.5,1 -1.3,1.8 -2.6,2.2c-2.2,0.5 -4.3,-0.7 -4.9,-3.3zm6.7,-6.1l5.8,-1.3l0.4,1.9l-3.6,0.8l0.3,1.4l3.3,-0.7l0.4,1.8l-3.3,0.7l0.3,1.4l3.7,-0.8l0.4,1.9l-5.8,1.3l-1.9,-8.4zm9.8,-2.2l5.7,-1.1l0.4,1.9l-3.6,0.7l0.3,1.5l3.2,-0.6l0.4,1.9l-3.2,0.6l0.6,3.1l-2.2,0.4l-1.6,-8.4zm7.3,3.1l0,-0.2c-0.4,-2.5 0.9,-4.6 3.2,-5c2.3,-0.4 4.2,1.1 4.7,3.6l0,0.2c0.4,2.5 -0.9,4.6 -3.2,5c-2.4,0.4 -4.3,-1.1 -4.7,-3.6zm5.6,-1l0,-0.1c-0.3,-1.5 -1.1,-2.2 -2.1,-2.1c-1,0.2 -1.5,1.2 -1.3,2.6l0,0.1c0.3,1.5 1.1,2.2 2.1,2.1c1,-0.2 1.5,-1.2 1.3,-2.6zm2.6,-4.9l3.3,-0.5c1.1,-0.2 2,0 2.7,0.5c0.5,0.4 0.9,1 1,1.9l0,0.1c0.2,1.3 -0.3,2.1 -1.1,2.7l2.2,2.8l-2.5,0.4l-1.8,-2.4l-0.8,0.1l0.4,2.6l-2.2,0.3l-1.2,-8.5zm3.8,3.6c0.7,-0.1 1.1,-0.6 1,-1.3l0,0c-0.1,-0.7 -0.6,-1 -1.4,-0.9l-1.1,0.2l0.3,2.2l1.2,-0.2zm6.8,-5.1l2.8,-0.3c2.7,-0.3 4.5,1.1 4.8,3.6l0,0.1c0.3,2.5 -1.1,4.4 -3.8,4.7l-2.8,0.3l-1,-8.4zm2.5,1.6l0.6,4.6l0.6,-0.1c1.2,-0.1 1.9,-1 1.8,-2.5l0,-0.1c-0.2,-1.5 -1.1,-2.1 -2.3,-2l-0.7,0.1zm5.8,-2.6l5.9,-0.6l0.2,1.9l-3.7,0.4l0.1,1.4l3.3,-0.3l0.2,1.8l-3.3,0.3l0.2,1.5l3.8,-0.4l0.2,1.9l-5.9,0.6l-1,-8.5zm6.4,-0.7l2.4,-0.2l2,5.2l1.1,-5.4l2.3,-0.2l-2.1,8.8l-2.1,0.2l-3.6,-8.4zm8.7,-0.7l5.9,-0.4l0.1,1.9l-3.7,0.3l0.1,1.4l3.3,-0.2l0.1,1.8l-3.3,0.2l0.1,1.5l3.8,-0.3l0.1,1.9l-5.9,0.4l-0.6,-8.5zm7.1,-0.5l2.2,-0.1l0.3,6.6l3.4,-0.2l0.1,2l-5.6,0.3l-0.4,-8.6zm6,4.1l0,-0.2c-0.1,-2.6 1.5,-4.4 3.8,-4.5c2.3,-0.1 4,1.6 4.1,4.2l0,0.2c0.1,2.6 -1.5,4.4 -3.8,4.5c-2.3,0 -4,-1.7 -4.1,-4.2zm5.7,-0.3l0,-0.1c-0.1,-1.5 -0.8,-2.4 -1.8,-2.3c-1,0 -1.7,1 -1.6,2.4l0,0.1c0.1,1.5 0.8,2.4 1.8,2.3c1,0 1.6,-0.9 1.6,-2.4zm3.2,-4.4l3.1,-0.1c2,0 3.4,1 3.4,2.9l0,0c0,2.1 -1.4,3.1 -3.3,3.1l-0.8,0l0,2.5l-2.2,0l-0.2,-8.4zm3,4.2c0.8,0 1.2,-0.5 1.2,-1.2l0,0c0,-0.8 -0.5,-1.2 -1.3,-1.2l-0.8,0l0,2.4l0.9,0zm4.3,-4.3l5.9,0l0,1.9l-3.7,0l0,1.4l3.4,0l0,1.8l-3.4,0l0,1.5l3.8,0l0,1.9l-6,0l0,-8.5zm7.1,0l3.4,0c1.2,0 2,0.3 2.6,0.9c0.5,0.5 0.7,1.1 0.7,2l0,0.1c0,1.3 -0.7,2.1 -1.6,2.5l1.7,3.1l-2.5,0l-1.4,-2.7l-0.8,0l0,2.7l-2.2,0l0.1,-8.6zm3.2,4.2c0.7,0 1.2,-0.4 1.2,-1.1l0,0c0,-0.7 -0.4,-1.1 -1.2,-1.1l-1.1,0l0,2.2l1.1,0zm3.8,3.3l1.2,-1.6c0.7,0.6 1.5,1 2.3,1c0.6,0 0.9,-0.2 0.9,-0.6l0,0c0,-0.3 -0.2,-0.6 -1.2,-0.9c-1.6,-0.6 -2.7,-1.2 -2.7,-2.8l0,0c0,-1.6 1.3,-2.6 3.1,-2.6c1.1,0 2.2,0.4 3,1.1l-1.2,1.6c-0.6,-0.5 -1.3,-0.8 -2,-0.8c-0.5,0 -0.8,0.2 -0.8,0.5l0,0c0,0.4 0.3,0.6 1.3,1c1.6,0.6 2.6,1.3 2.6,2.7l0,0c0,1.7 -1.4,2.7 -3.2,2.6c-1.2,0.1 -2.4,-0.3 -3.3,-1.2z" class="st5"/>
     <g id="svg_181" class="st6">
      <g id="svg_182" class="st7">
       <g id="svg_183" class="st8">
        <defs transform="translate(0,1) translate(0,-1) translate(0,-1) translate(0,-1) translate(0,-1) translate(0,-1) translate(-1,0) translate(-1,0) translate(-1,0) translate(-1,0) translate(-1,0) translate(-1,0) translate(-1,0) translate(-1,0) translate(-1,0) translate(-1,0) translate(-1,0) translate(-1,0) translate(-1,0) translate(-1,0) translate(0,-1) translate(-1,0) translate(-1,0) translate(0,-1) translate(0,-1) translate(-1,0) translate(-1,0) translate(-1,0) translate(-1,0) translate(-1,0) translate(-1,0) translate(-1,0) translate(-1,0) translate(-1,0) translate(0,-1) translate(0,-1) translate(0,-1) translate(-1,0) translate(-1,0) translate(-1,0) translate(-1,0) translate(-1,0) translate(-1,0) translate(-1,0) translate(-1,0) translate(0,-1) translate(0,-1) translate(0,-1) translate(-1,0) translate(-1,0) translate(0,-1) translate(0,-1) translate(-1,0) translate(-1,0) translate(-1,0) translate(-1,0) translate(-1,0) translate(-1,0) translate(-1,0) translate(-1,0) translate(-1,0) translate(-1,0) translate(-1,0) translate(-1,0) translate(-1,0) translate(-1,0) translate(0,1) translate(0,1) translate(0,1) translate(0,1) translate(0,1) translate(0,1) translate(0,1) translate(0,1) translate(0,1) translate(0,1) translate(0,1) translate(0,1) translate(0,1) translate(0,1) translate(0,1) translate(-1,0) translate(-1,0) translate(-1,0) translate(-1,0) translate(-1,0) translate(-1,0) translate(-1,0) translate(-1,0) translate(-1,0) translate(-1,0) translate(-1,0) translate(-1,0) translate(-1,0) translate(-1,0) translate(-1,0) translate(-1,0) translate(-1,0) translate(-1,0) translate(-1,0) translate(-1,0) translate(-1,0) translate(-1,0) translate(-1,0) translate(-1,0) translate(-1,0) translate(-1,0) translate(-1,0) translate(-1,0) translate(-1,0) translate(-1,0) translate(-1,0) translate(-1,0) translate(-1,0) translate(-1,0) translate(-1,0) translate(-1,0) translate(-1,0) translate(-1,0) translate(-1,0) translate(-1,0) translate(-1,0) translate(-1,0) translate(-1,0) translate(-1,0) translate(-1,0) translate(-1,0) translate(-1,0) translate(-1,0) translate(-1,0) translate(-1,0) translate(-1,0) translate(-1,0) translate(-1,0) translate(-1,0) translate(-1,0) translate(-1,0) translate(-1,0) translate(-1,0) translate(-1,0) translate(-1,0) translate(-1,0) translate(-1,0) translate(-1,0) translate(-1,0) translate(-1,0) translate(-1,0) translate(-1,0) translate(-1,0) translate(-1,0) translate(-1,0) translate(-1,0) translate(-1,0) translate(-1,0) translate(-1,0) translate(-1,0) translate(-1,0) translate(-1,0) translate(-1,0) translate(-1,0) translate(-1,0) translate(-1,0) translate(-1,0) translate(-1,0) translate(-1,0) translate(-1,0) translate(-1,0) translate(-1,0) translate(-1,0) ">
         <polygon points="362.5,426.7 362.5,398.2 472.1,382.8 472,411.3        " class="st8" id="SVGID_1_"/>
        </defs>
        <clipPath transform="translate(0,1) translate(0,-1) translate(0,-1) translate(0,-1) translate(0,-1) translate(0,-1) translate(-1,0) translate(-1,0) translate(-1,0) translate(-1,0) translate(-1,0) translate(-1,0) translate(-1,0) translate(-1,0) translate(-1,0) translate(-1,0) translate(-1,0) translate(-1,0) translate(-1,0) translate(-1,0) translate(0,-1) translate(-1,0) translate(-1,0) translate(0,-1) translate(0,-1) translate(-1,0) translate(-1,0) translate(-1,0) translate(-1,0) translate(-1,0) translate(-1,0) translate(-1,0) translate(-1,0) translate(-1,0) translate(0,-1) translate(0,-1) translate(0,-1) translate(-1,0) translate(-1,0) translate(-1,0) translate(-1,0) translate(-1,0) translate(-1,0) translate(-1,0) translate(-1,0) translate(0,-1) translate(0,-1) translate(0,-1) translate(-1,0) translate(-1,0) translate(0,-1) translate(0,-1) translate(-1,0) translate(-1,0) translate(-1,0) translate(-1,0) translate(-1,0) translate(-1,0) translate(-1,0) translate(-1,0) translate(-1,0) translate(-1,0) translate(-1,0) translate(-1,0) translate(-1,0) translate(-1,0) translate(0,1) translate(0,1) translate(0,1) translate(0,1) translate(0,1) translate(0,1) translate(0,1) translate(0,1) translate(0,1) translate(0,1) translate(0,1) translate(0,1) translate(0,1) translate(0,1) translate(0,1) translate(-1,0) translate(-1,0) translate(-1,0) translate(-1,0) translate(-1,0) translate(-1,0) translate(-1,0) translate(-1,0) translate(-1,0) translate(-1,0) translate(-1,0) translate(-1,0) translate(-1,0) translate(-1,0) translate(-1,0) translate(-1,0) translate(-1,0) translate(-1,0) translate(-1,0) translate(-1,0) translate(-1,0) translate(-1,0) translate(-1,0) translate(-1,0) translate(-1,0) translate(-1,0) translate(-1,0) translate(-1,0) translate(-1,0) translate(-1,0) translate(-1,0) translate(-1,0) translate(-1,0) translate(-1,0) translate(-1,0) translate(-1,0) translate(-1,0) translate(-1,0) translate(-1,0) translate(-1,0) translate(-1,0) translate(-1,0) translate(-1,0) translate(-1,0) translate(-1,0) translate(-1,0) translate(-1,0) translate(-1,0) translate(-1,0) translate(-1,0) translate(-1,0) translate(-1,0) translate(-1,0) translate(-1,0) translate(-1,0) translate(-1,0) translate(-1,0) translate(-1,0) translate(-1,0) translate(-1,0) translate(-1,0) translate(-1,0) translate(-1,0) translate(-1,0) translate(-1,0) translate(-1,0) translate(-1,0) translate(-1,0) translate(-1,0) translate(-1,0) translate(-1,0) translate(-1,0) translate(-1,0) translate(-1,0) translate(-1,0) translate(-1,0) translate(-1,0) translate(-1,0) translate(-1,0) translate(-1,0) translate(-1,0) translate(-1,0) translate(-1,0) translate(-1,0) translate(-1,0) translate(-1,0) translate(-1,0) translate(-1,0) " id="SVGID_2_">
         <use id="svg_184" xlink:href="#SVGID_1_"/>
        </clipPath>
        <g id="svg_185" class="st9">
         <g id="svg_186">
          <g id="svg_187">
           <g id="svg_188">
            <path id="svg_189" d="m243.2,396.3l-5.9,0.8l-2.9,18.6l-2.7,-17.9l-6.1,0.9l-0.1,27.4l3.8,-0.5l0.1,-19.4l3.1,18.9l3.8,-0.5c0.3,-2 0.8,-5.3 1.5,-9.8c0.7,-4.5 1.2,-7.8 1.5,-9.8l0.1,19.2l3.8,-0.5l0,-27.4" class="st2"/>
            <path id="svg_190" d="m251.2,413.2l1.4,-10.3l1.3,10l-2.7,0.3m3.7,-18.6l-4.5,0.6l-5.5,28.1l5.1,-0.7l1,-6l3.3,-0.5l1,5.7l5.1,-0.7l-5.5,-26.5" class="st2"/>
            <path id="svg_191" d="m274.3,391.9l-4.7,0.7c-0.3,1.4 -0.7,3.4 -1.3,6.2c-0.6,2.8 -1,4.8 -1.3,6.2l-2.3,-11.7l-4.8,0.7l4.7,17.6l0,9l5,-0.7l0,-9l4.7,-19" class="st2"/>
            <path id="svg_192" d="m287.7,389.5c-1,0.1 -1.8,0.4 -2.6,0.8c-0.8,0.4 -1.4,0.9 -1.9,1.4c-0.5,0.6 -0.9,1.2 -1.3,2c-0.3,0.8 -0.6,1.6 -0.7,2.4c-0.2,0.9 -0.2,1.8 -0.2,2.8l0,1.7l4.9,-0.7c0,-0.1 0,-0.2 0,-0.4c0,-0.3 0,-0.5 0,-0.8c0,-0.3 0,-0.6 0,-1c0,-0.3 0.1,-0.7 0.1,-1c0,-0.3 0.1,-0.7 0.2,-1c0.1,-0.3 0.2,-0.6 0.3,-0.8c0.1,-0.2 0.3,-0.4 0.5,-0.6c0.2,-0.2 0.4,-0.3 0.7,-0.3c0.3,0 0.6,0 0.9,0.2c0.2,0.2 0.4,0.4 0.6,0.7c0.1,0.3 0.2,0.6 0.3,0.9c0.1,0.3 0.1,0.6 0.1,0.9c0,0.5 -0.1,1.1 -0.2,1.6c-0.1,0.6 -0.3,1.1 -0.6,1.7c-0.3,0.6 -0.5,1.1 -0.8,1.5c-0.2,0.4 -0.5,0.9 -0.9,1.6l-6.2,10.4l0,4.7l13.5,-1.9l0,-5.3l-7.9,1.1c0.4,-0.6 1,-1.5 1.8,-2.7c0.8,-1.2 1.6,-2.2 2.2,-3.1c0.6,-0.9 1.2,-2 1.9,-3.1c0.7,-1.2 1.2,-2.4 1.5,-3.6c0.3,-1.2 0.5,-2.4 0.5,-3.7c0,-2.3 -0.6,-4.1 -1.8,-5.3c-1.1,-1 -2.8,-1.4 -4.9,-1.1" class="st2"/>
            <path id="svg_193" d="m303.1,411.1c-0.3,0 -0.6,0 -0.8,-0.2c-0.2,-0.2 -0.4,-0.4 -0.6,-0.6c-0.1,-0.3 -0.2,-0.6 -0.3,-0.9c-0.1,-0.4 -0.1,-0.7 -0.1,-1c0,-0.3 0,-0.6 0,-0.9l0,-11.3c0,-0.4 0,-0.7 0,-1c0,-0.3 0.1,-0.6 0.1,-1c0.1,-0.4 0.2,-0.8 0.3,-1c0.1,-0.3 0.3,-0.5 0.6,-0.8c0.2,-0.2 0.5,-0.4 0.9,-0.4c1.3,-0.2 1.9,1 1.9,3.7l0,11.3c0,0.4 0,0.8 -0.1,1.2c0,0.4 -0.1,0.8 -0.3,1.3c-0.1,0.5 -0.3,0.8 -0.6,1.2c-0.3,0.2 -0.7,0.4 -1,0.4m0,-23.8c-1.2,0.2 -2.2,0.5 -3.1,1.1c-0.9,0.6 -1.6,1.3 -2.1,2.1c-0.5,0.9 -0.9,1.8 -1.2,2.9c-0.3,1 -0.4,2.2 -0.4,3.4l0,11.3c0,1.2 0.1,2.2 0.4,3.2c0.3,1 0.7,1.8 1.2,2.5c0.5,0.7 1.3,1.2 2.1,1.6c0.9,0.3 1.9,0.4 3,0.3c1.1,-0.2 2.1,-0.5 3,-1.1c0.9,-0.6 1.6,-1.3 2.2,-2.2c0.6,-0.9 1,-1.8 1.3,-2.9c0.3,-1.1 0.4,-2.2 0.4,-3.3l0,-11.3c0,-1.2 -0.1,-2.3 -0.4,-3.3c-0.3,-1 -0.7,-1.8 -1.2,-2.5c-0.5,-0.7 -1.2,-1.2 -2.1,-1.6c-0.9,-0.2 -1.9,-0.3 -3.1,-0.2" class="st2"/>
            <path id="svg_194" d="m319.1,385.6l-3.7,0.5c-0.2,0.5 -0.5,0.9 -0.8,1.3c-0.3,0.4 -0.6,0.6 -0.8,0.8c-0.2,0.2 -0.6,0.4 -1,0.7c-0.4,0.3 -0.8,0.5 -1.1,0.7l0,4l2.6,-0.4l0,20.3l4.8,-0.7l0,-27.2" class="st2"/>
            <path id="svg_195" d="m328.2,407.9c-0.3,0 -0.5,0 -0.7,0c-0.2,-0.1 -0.4,-0.2 -0.5,-0.3c-0.1,-0.1 -0.3,-0.3 -0.4,-0.5c-0.1,-0.2 -0.2,-0.4 -0.2,-0.6c0,-0.2 -0.1,-0.4 -0.1,-0.7c0,-0.3 0,-0.5 -0.1,-0.7c0,-0.2 0,-0.4 0,-0.7c0,-3 0.7,-4.6 2.1,-4.8c1.4,-0.2 2,1.2 2,4.2c0,0.3 0,0.5 0,0.7c0,0.2 0,0.4 0,0.7c0,0.3 -0.1,0.6 -0.1,0.8c0,0.2 -0.1,0.4 -0.2,0.7c-0.1,0.3 -0.2,0.5 -0.4,0.6c-0.1,0.1 -0.3,0.3 -0.5,0.4c-0.3,0 -0.6,0.1 -0.9,0.2m0,-12.5c-0.2,0 -0.5,0 -0.7,-0.1c-0.2,-0.1 -0.3,-0.3 -0.5,-0.6c-0.1,-0.3 -0.2,-0.5 -0.3,-0.8c-0.1,-0.3 -0.1,-0.6 -0.1,-1c0,-0.4 0,-0.7 -0.1,-0.9c0,-0.2 0,-0.5 0,-0.8c0,-0.3 0,-0.6 0.1,-0.9c0,-0.3 0.1,-0.6 0.2,-1c0.1,-0.3 0.3,-0.6 0.5,-0.9s0.5,-0.4 0.8,-0.4c1.1,-0.1 1.6,0.8 1.6,2.7c0,0.3 0,0.5 0,0.7c0,0.2 0,0.4 0,0.8c0,0.4 0,0.6 -0.1,0.9c0,0.2 -0.1,0.5 -0.2,0.8c-0.1,0.3 -0.2,0.6 -0.3,0.7c-0.1,0.2 -0.3,0.4 -0.4,0.5c0,0.1 -0.2,0.2 -0.5,0.3m0.1,-11.6c-2.1,0.3 -3.7,1.2 -4.9,2.7c-1.1,1.5 -1.7,3.4 -1.7,5.8c0,2.5 0.6,4.4 1.8,5.6c-0.9,0.9 -1.4,1.9 -1.7,2.9c-0.3,1.1 -0.4,2.4 -0.4,3.8c0,5.7 2.3,8.2 6.8,7.5c1.2,-0.2 2.3,-0.5 3.2,-1.1c0.9,-0.5 1.6,-1.2 2.1,-2.1c0.5,-0.9 0.9,-1.8 1.1,-2.8c0.2,-1 0.4,-2.2 0.4,-3.5c0,-0.7 0,-1.3 -0.1,-1.8c-0.1,-0.5 -0.2,-1.1 -0.3,-1.6c-0.2,-0.5 -0.4,-1.1 -0.7,-1.5c-0.3,-0.5 -0.7,-0.8 -1.1,-1.2c1.2,-1.5 1.8,-3.5 1.9,-6.1c0,-2.3 -0.5,-4.1 -1.6,-5.3c-1.1,-1.2 -2.7,-1.6 -4.8,-1.3" class="st2"/>
           </g>
          </g>
         </g>
        </g>
       </g>
      </g>
     </g>
    </g>
    <g id="Text">
     <text x="-137" y="-24.0298" id="svg_196" class="st5 st10 st11" transform="matrix(1,-0.1754,0,1,358.9703,405.3439) ">23</text>
     <text x="-234.991424" y="-41.234344" id="svg_197" class="st5 st10 st11" transform="matrix(0.583,-0.1023,0,0.583,380.1219,394.9583) ">rd</text>
     <text x="-137" y="-24.0298" id="svg_198" class="st5 st10 st11" transform="matrix(1,-0.1754,0,1,393.166,399.3447) ">MAY 2018</text>
     <text x="-137" y="-24.0298" id="svg_199" class="st5 st10 st11" transform="matrix(1,-0.1754,0,1,358.9703,429.3976) ">Auckland</text>
    </g>
   </g>
  </g>
  <g id="eye_1">
   <path id="svg_200" d="m233.1,212c0,0 -15.9,5.5 -28,-1.4s-15.5,-23.7 -15.5,-23.7s18.2,-9.7 30.4,-2.8c12.1,6.9 13.1,27.9 13.1,27.9z" class="st1"/>
   <path id="svg_201" d="m233.8,211.6c0,0.1 0.1,0.4 0,0.4c-1.2,0.4 -2.3,0.9 -3.4,1.2c-1.2,0.3 -2.4,0.6 -3.6,0.8c-2.4,0.4 -4.9,0.7 -7.4,0.7c-1.2,0 -2.5,-0.1 -3.7,-0.2c-1.2,-0.1 -2.5,-0.3 -3.7,-0.6c-1.2,-0.3 -2.4,-0.7 -3.6,-1.1c-1.2,-0.5 -2.3,-1 -3.5,-1.6l-0.1,-0.1l-0.1,-0.1l-0.2,-0.1l-0.4,-0.2c-0.3,-0.2 -0.5,-0.3 -0.8,-0.5l-0.8,-0.6l-0.8,-0.6c-1,-0.8 -1.9,-1.6 -2.8,-2.6c-0.9,-0.9 -1.7,-1.9 -2.4,-2.9c-0.7,-1 -1.4,-2.1 -2.1,-3.1c-1.3,-2.2 -2.3,-4.4 -3.2,-6.7c-0.4,-1.2 -2,-7.5 -2,-7.5c0.3,-1 6,-3.4 7.2,-3.9c2.5,-0.9 5.8,-1.5 8.6,-2c1.4,-0.2 2.7,-0.4 4.1,-0.5c1.4,-0.1 2.8,0 4.2,0.1c1.4,0.2 2.8,0.5 4.2,0.9l1,0.4c0.3,0.1 0.6,0.2 0.9,0.4c0.3,0.1 0.6,0.3 0.9,0.4l0.7,0.4l0.1,0.1l0.1,0l0,0l0.1,0l0.2,0.1l0.8,0.5c0.3,0.2 0.6,0.4 0.9,0.7c0.3,0.2 0.6,0.5 0.8,0.7c0.3,0.2 0.5,0.5 0.8,0.7c1,1 1.9,2.1 2.7,3.2c0.8,1.2 1.5,2.4 2.1,3.6c0.6,1.2 1.1,2.5 1.6,3.8c0.9,2.6 1.5,5.2 2,7.9c0.2,1.3 0.4,2.7 0.6,4c0,1.4 0.1,2.7 0,3.9zm-0.9,-0.3c0.4,-0.2 0.3,-0.2 0.3,-0.6c0,-1.1 -0.1,-1.8 -0.3,-2.8c-0.3,-1.3 -0.6,-2.6 -1,-3.8c-0.7,-2.5 -1.6,-5 -2.7,-7.4c-0.6,-1.2 -1.1,-2.3 -1.8,-3.4c-0.7,-1.1 -1.4,-2.2 -2.2,-3.1c-0.8,-1 -1.6,-1.9 -2.5,-2.7c-0.2,-0.2 -0.5,-0.4 -0.7,-0.6c-0.2,-0.2 -0.5,-0.4 -0.7,-0.6l-0.7,-0.5c0,0 0,0 0,0l-0.8,-0.5l-0.2,-0.1c0,0 0.1,0.1 0,0l0,0l0,0l-0.1,0l-0.1,-0.1l-0.6,-0.3c-0.2,-0.1 -0.5,-0.2 -0.7,-0.3c-0.2,-0.1 -0.5,-0.2 -0.7,-0.3l-0.9,-0.3c-1.2,-0.4 -2.4,-0.7 -3.6,-0.8c-1.2,-0.2 -2.5,-0.3 -3.8,-0.3c-1.3,0 -2.6,0.1 -3.8,0.2c-2.6,0.3 -5.1,0.8 -7.6,1.5c-1.3,0.4 -2.5,0.8 -3.7,1.2c-1.2,0.5 -2.5,1 -3.6,1.6l0.4,-0.8l0,0c0.3,1.1 0.6,2.3 1,3.4c0.4,1.1 0.8,2.2 1.3,3.3c0.9,2.2 2,4.3 3.2,6.3c0.6,1 1.3,2 2,2.9c0.7,0.9 1.5,1.8 2.3,2.7c0.8,0.9 1.7,1.6 2.6,2.4l0.7,0.5l0.7,0.5c0.4,0.3 1,0.7 1.5,0.9c1,0.6 2,1.1 3.1,1.5c1.1,0.4 2.2,0.8 3.3,1.1c1.1,0.3 2.3,0.5 3.5,0.7c1.2,0.2 2.4,0.3 3.5,0.3c2.4,0.1 4.8,0 7.2,-0.2c1.2,-0.1 2.4,-0.3 3.6,-0.5c0.8,-0.2 1.7,-0.5 2.6,-1z" class="st3"/>
   <path id="svg_202" d="m271.8,212c0,0 15.9,5.5 28,-1.4s15.5,-23.7 15.5,-23.7s-18.2,-9.7 -30.4,-2.8c-12.2,6.9 -13.1,27.9 -13.1,27.9z" class="st1"/>
   <path id="svg_203" d="m271.9,207.9c0.1,-1.3 0.3,-2.7 0.6,-4c0.5,-2.6 1.1,-5.3 2,-7.9c0.4,-1.3 1,-2.6 1.6,-3.8c0.6,-1.2 1.3,-2.4 2.1,-3.6c0.8,-1.1 1.7,-2.3 2.7,-3.2c0.2,-0.3 0.5,-0.5 0.8,-0.7c0.3,-0.2 0.5,-0.5 0.8,-0.7c0.3,-0.2 0.6,-0.5 0.9,-0.7l0.8,-0.5l0.2,-0.1l0.1,0l0,0l0.1,0l0.1,-0.1l0.7,-0.4c0.3,-0.1 0.6,-0.3 0.9,-0.4c0.3,-0.1 0.6,-0.3 0.9,-0.4l1,-0.4c1.4,-0.4 2.8,-0.7 4.2,-0.9c1.4,-0.1 2.8,-0.2 4.2,-0.1c1.4,0.1 2.8,0.2 4.1,0.5c2.7,0.5 6,1.1 8.6,2c1.3,0.5 6.9,2.8 7.2,3.9c0,0 -1.6,6.3 -2,7.5c-0.9,2.3 -1.9,4.6 -3.2,6.7c-0.6,1.1 -1.3,2.1 -2.1,3.1c-0.7,1 -1.6,2 -2.4,2.9c-0.9,0.9 -1.8,1.8 -2.8,2.6l-0.8,0.6l-0.8,0.6c-0.3,0.2 -0.5,0.4 -0.8,0.5l-0.4,0.2l-0.2,0.1l-0.1,0.1l-0.1,0.1c-1.1,0.6 -2.3,1.2 -3.5,1.6c-1.2,0.4 -2.4,0.8 -3.6,1.1c-1.2,0.3 -2.5,0.5 -3.7,0.6c-1.2,0.1 -2.5,0.2 -3.7,0.2c-2.5,0 -5,-0.2 -7.4,-0.7c-1.2,-0.2 -2.4,-0.5 -3.6,-0.8c-1.1,-0.3 -2.3,-0.8 -3.4,-1.2c-0.1,0 0,-0.3 0,-0.4c-0.3,-1.4 -0.1,-2.7 0,-3.9zm3.5,4.4c1.2,0.2 2.4,0.4 3.6,0.5c2.4,0.2 4.8,0.3 7.2,0.2c1.2,-0.1 2.4,-0.2 3.5,-0.3c1.2,-0.2 2.3,-0.4 3.5,-0.7c1.1,-0.3 2.3,-0.6 3.3,-1.1c1.1,-0.4 2.1,-0.9 3.1,-1.5c0.4,-0.3 1.1,-0.6 1.5,-0.9l0.7,-0.5l0.7,-0.5c0.9,-0.7 1.8,-1.5 2.6,-2.4c0.8,-0.8 1.6,-1.7 2.3,-2.7c0.7,-0.9 1.4,-1.9 2,-2.9c1.2,-2 2.3,-4.1 3.2,-6.3c0.5,-1.1 0.9,-2.2 1.3,-3.3c0.4,-1.1 0.7,-2.3 1,-3.4l0,0l0.4,0.8c-1.1,-0.6 -2.4,-1.1 -3.6,-1.6c-1.2,-0.5 -2.5,-0.9 -3.7,-1.2c-2.5,-0.7 -5.1,-1.2 -7.6,-1.5c-1.3,-0.1 -2.6,-0.2 -3.8,-0.2c-1.3,0 -2.5,0.1 -3.8,0.3c-1.2,0.2 -2.4,0.5 -3.6,0.8l-0.9,0.3c-0.2,0.1 -0.5,0.2 -0.7,0.3c-0.2,0.1 -0.5,0.2 -0.7,0.3l-0.6,0.3l-0.1,0.1l-0.1,0l0,0l0,0c0,0 0.1,0 0,0l-0.2,0.1l-0.8,0.5c0,0 0,0 0,0l-0.7,0.5c-0.2,0.2 -0.5,0.4 -0.7,0.6c-0.2,0.2 -0.5,0.4 -0.7,0.6c-0.9,0.8 -1.8,1.8 -2.5,2.7c-0.8,1 -1.5,2 -2.2,3.1c-0.7,1.1 -1.3,2.2 -1.8,3.4c-1.1,2.3 -2,4.8 -2.7,7.4c-0.4,1.3 -0.7,2.6 -1,3.8c-0.2,1 -0.3,1.7 -0.3,2.8c0,0.4 0,0.4 0.3,0.6c0.7,0.5 1.6,0.8 2.6,1z" class="st3"/>
   <path id="svg_204" d="m215.9,186.2c0,0 -13.6,9.7 -4.2,24c0.1,0 -0.8,-11.3 4.2,-24z" class="st5"/>
   <path id="svg_205" d="m288.3,186.2c0,0 13.6,9.7 4.2,24c-0.1,0 0.8,-11.3 -4.2,-24z" class="st5"/>
  </g>
  <g id="eye_2">
   <path id="svg_206" d="m233.1,212c0,0 -15.9,5.5 -28,-1.4s-15.5,-23.7 -15.5,-23.7s4.6,8.2 16.8,15.2c12.1,6.8 26.7,9.9 26.7,9.9z" class="st1"/>
   <path id="svg_207" d="m271.8,212c0,0 15.9,5.5 28,-1.4s15.5,-23.7 15.5,-23.7s-7.2,9.1 -19.3,16c-12.3,6.9 -24.2,9.1 -24.2,9.1z" class="st1"/>
   <path id="svg_208" d="m189.6,188.3c0,0 9.5,19 42.2,24.1l1.1,-1c0,0 -33.5,-6.1 -43.4,-25.9l0,2.8l0.1,0z" class="st3"/>
   <path id="svg_209" d="m272.8,210.4l-1,1.7c0,0 25.1,-1.8 44.7,-25.8l-0.8,-2.6c-0.1,0.1 -12.1,21.2 -42.9,26.7z" class="st3"/>
   <path id="svg_210" d="m232.4,211.6c-0.7,0.3 -1.5,0.6 -2.2,0.7c-1.2,0.2 -2.4,0.4 -3.6,0.5c-2.4,0.2 -4.8,0.3 -7.2,0.2c-1.2,-0.1 -2.4,-0.2 -3.5,-0.3c-1.2,-0.2 -2.3,-0.4 -3.5,-0.7c-1.1,-0.3 -2.3,-0.6 -3.3,-1.1c-1.1,-0.4 -2.1,-0.9 -3.1,-1.5c-0.4,-0.3 -1.1,-0.6 -1.5,-0.9l-0.7,-0.5l-0.7,-0.5c-0.9,-0.7 -1.8,-1.5 -2.6,-2.4c-0.8,-0.8 -1.6,-1.7 -2.3,-2.7c-0.7,-0.9 -1.4,-1.9 -2,-2.9c-1.2,-2 -2.3,-4.1 -3.2,-6.3c-0.5,-1.1 -0.9,-2.2 -1.3,-3.3c-0.3,-0.9 -0.6,-1.9 -0.9,-2.8c0,0 0,0 0.1,0c0,0 -0.1,0 -0.1,0c-0.2,-0.1 -0.3,-0.1 -0.5,-0.2c-0.4,-0.2 -0.8,-0.3 -1.1,-0.6c-0.1,0.1 -0.1,0.2 -0.2,0.2c0,0 1.6,6.3 2,7.5c0.9,2.3 1.9,4.6 3.2,6.7c0.6,1.1 1.3,2.1 2.1,3.1c0.7,1 1.6,2 2.4,2.9c0.9,0.9 1.8,1.8 2.8,2.6l0.8,0.6l0.8,0.6c0.3,0.2 0.5,0.4 0.8,0.5l0.4,0.2l0.2,0.1l0.1,0.1l0.1,0.1c1.1,0.6 2.3,1.2 3.5,1.6c1.2,0.4 2.4,0.8 3.6,1.1c1.2,0.3 2.5,0.5 3.7,0.6c1.2,0.1 2.5,0.2 3.7,0.2c2.5,0 5,-0.2 7.4,-0.7c1.2,-0.2 2.4,-0.5 3.6,-0.8c1.1,-0.3 2.2,-0.8 3.4,-1.2c-0.3,-0.3 -0.8,-0.5 -1.2,-0.7z" class="st3"/>
   <path id="svg_211" d="m315.9,185.7c-0.4,0.6 -0.8,1.1 -1.4,1.6c-0.2,0.8 -0.5,1.6 -0.7,2.4c-0.4,1.1 -0.8,2.2 -1.3,3.3c-0.9,2.2 -2,4.3 -3.2,6.3c-0.6,1 -1.3,2 -2,2.9c-0.7,0.9 -1.5,1.8 -2.3,2.7c-0.8,0.9 -1.7,1.6 -2.6,2.4l-0.7,0.5l-0.7,0.5c-0.4,0.3 -1,0.7 -1.5,0.9c-1,0.6 -2,1.1 -3.1,1.5c-1.1,0.4 -2.2,0.8 -3.3,1.1c-1.1,0.3 -2.3,0.5 -3.5,0.7c-1.2,0.2 -2.4,0.3 -3.5,0.3c-2.4,0.1 -4.8,0 -7.2,-0.2c-1.2,-0.1 -2.4,-0.3 -3.6,-0.5c-0.9,-0.1 -1.8,-0.5 -2.6,-0.9c-0.4,0.2 -0.7,0.4 -1.1,0.6c0,0 0,0.1 0.1,0.1c1.2,0.4 2.3,0.9 3.4,1.2c1.2,0.3 2.4,0.6 3.6,0.8c2.4,0.4 4.9,0.7 7.4,0.7c1.2,0 2.5,-0.1 3.7,-0.2c1.2,-0.1 2.5,-0.3 3.7,-0.6c1.2,-0.3 2.4,-0.7 3.6,-1.1c1.2,-0.5 2.3,-1 3.5,-1.6l0.1,-0.1l0.1,-0.1l0.2,-0.1l0.4,-0.2c0.3,-0.2 0.5,-0.3 0.8,-0.5l0.8,-0.6l0.8,-0.6c1,-0.8 1.9,-1.6 2.8,-2.6c0.9,-0.9 1.7,-1.9 2.4,-2.9c0.7,-1 1.4,-2.1 2.1,-3.1c1.3,-2.2 2.3,-4.4 3.2,-6.7c0.4,-1.2 2,-7.5 2,-7.5c0.1,0 -0.1,-0.1 -0.4,-0.4z" class="st3"/>
  </g>
  <g id="eye_3">
   <path id="svg_212" d="m232.4,211.6c-0.7,0.3 -1.5,0.6 -2.2,0.7c-1.2,0.2 -2.4,0.4 -3.6,0.5c-2.4,0.2 -4.8,0.3 -7.2,0.2c-1.2,-0.1 -2.4,-0.2 -3.5,-0.3c-1.2,-0.2 -2.3,-0.4 -3.5,-0.7c-1.1,-0.3 -2.3,-0.6 -3.3,-1.1c-1.1,-0.4 -2.1,-0.9 -3.1,-1.5c-0.4,-0.3 -1.1,-0.6 -1.5,-0.9l-0.7,-0.5l-0.7,-0.5c-0.9,-0.7 -1.8,-1.5 -2.6,-2.4c-0.8,-0.8 -1.6,-1.7 -2.3,-2.7c-0.7,-0.9 -1.4,-1.9 -2,-2.9c-1.2,-2 -2.3,-4.1 -3.2,-6.3c-0.5,-1.1 -0.9,-2.2 -1.3,-3.3c-0.3,-0.9 -0.6,-1.9 -0.9,-2.8c0,0 0,0 0.1,0c0,0 -0.1,0 -0.1,0c-0.2,-0.1 -0.3,-0.1 -0.5,-0.2c-0.4,-0.2 -0.8,-0.3 -1.1,-0.6c-0.1,0.1 -0.1,0.2 -0.2,0.2c0,0 1.6,6.3 2,7.5c0.9,2.3 1.9,4.6 3.2,6.7c0.6,1.1 1.3,2.1 2.1,3.1c0.7,1 1.6,2 2.4,2.9c0.9,0.9 1.8,1.8 2.8,2.6l0.8,0.6l0.8,0.6c0.3,0.2 0.5,0.4 0.8,0.5l0.4,0.2l0.2,0.1l0.1,0.1l0.1,0.1c1.1,0.6 2.3,1.2 3.5,1.6c1.2,0.4 2.4,0.8 3.6,1.1c1.2,0.3 2.5,0.5 3.7,0.6c1.2,0.1 2.5,0.2 3.7,0.2c2.5,0 5,-0.2 7.4,-0.7c1.2,-0.2 2.4,-0.5 3.6,-0.8c1.1,-0.3 2.2,-0.8 3.4,-1.2c-0.3,-0.3 -0.8,-0.5 -1.2,-0.7z" class="st3"/>
   <path id="svg_213" d="m315.9,185.7c-0.4,0.6 -0.8,1.1 -1.4,1.6c-0.2,0.8 -0.5,1.6 -0.7,2.4c-0.4,1.1 -0.8,2.2 -1.3,3.3c-0.9,2.2 -2,4.3 -3.2,6.3c-0.6,1 -1.3,2 -2,2.9c-0.7,0.9 -1.5,1.8 -2.3,2.7c-0.8,0.9 -1.7,1.6 -2.6,2.4l-0.7,0.5l-0.7,0.5c-0.4,0.3 -1,0.7 -1.5,0.9c-1,0.6 -2,1.1 -3.1,1.5c-1.1,0.4 -2.2,0.8 -3.3,1.1c-1.1,0.3 -2.3,0.5 -3.5,0.7c-1.2,0.2 -2.4,0.3 -3.5,0.3c-2.4,0.1 -4.8,0 -7.2,-0.2c-1.2,-0.1 -2.4,-0.3 -3.6,-0.5c-0.9,-0.1 -1.8,-0.5 -2.6,-0.9c-0.4,0.2 -0.7,0.4 -1.1,0.6c0,0 0,0.1 0.1,0.1c1.2,0.4 2.3,0.9 3.4,1.2c1.2,0.3 2.4,0.6 3.6,0.8c2.4,0.4 4.9,0.7 7.4,0.7c1.2,0 2.5,-0.1 3.7,-0.2c1.2,-0.1 2.5,-0.3 3.7,-0.6c1.2,-0.3 2.4,-0.7 3.6,-1.1c1.2,-0.5 2.3,-1 3.5,-1.6l0.1,-0.1l0.1,-0.1l0.2,-0.1l0.4,-0.2c0.3,-0.2 0.5,-0.3 0.8,-0.5l0.8,-0.6l0.8,-0.6c1,-0.8 1.9,-1.6 2.8,-2.6c0.9,-0.9 1.7,-1.9 2.4,-2.9c0.7,-1 1.4,-2.1 2.1,-3.1c1.3,-2.2 2.3,-4.4 3.2,-6.7c0.4,-1.2 2,-7.5 2,-7.5c0.1,0 -0.1,-0.1 -0.4,-0.4z" class="st3"/>
  </g>
 </g>
</svg>