<?xml version="1.0" encoding="utf-8"?>
<!-- Generator: Adobe Illustrator 22.0.1, SVG Export Plug-In . SVG Version: 6.00 Build 0)  -->
<!DOCTYPE svg PUBLIC "-//W3C//DTD SVG 1.1//EN" "http://www.w3.org/Graphics/SVG/1.1/DTD/svg11.dtd">
<svg version="1.1" id="Layer_1" xmlns="http://www.w3.org/2000/svg" xmlns:xlink="http://www.w3.org/1999/xlink" x="0px" y="0px"
	 viewBox="0 0 488.5 559.9" style="enable-background:new 0 0 488.5 559.9;" xml:space="preserve">
<style type="text/css">
	.st0{fill:#0065A1;}
	.st1{fill:#00C1DE;}
	.st2{fill:#FFCD00;}
	.st3{fill:#FF595A;}
	.st4{fill:#FFFFFF;}
	@keyframes spin {
		0% {
			transform:rotate(0deg);
			transform-origin: center center;
		}
		100% { 
			transform:rotate(360deg);
			transform-origin: center center;
		}
	}
	@keyframes spinccw {
		0% {
			transform:rotate(0deg);
			transform-origin: center center;
		}
		100% { 
			transform:rotate(-360deg);
			transform-origin: center center;
		}
	}
	@keyframes blink-close {
		0% { opacity: 1; }
		1% { opacity: 1; }
		2% { opacity: 0; }
		4% { opacity: 0; }
		100% { opacity: 0; }
	}
	@keyframes blink-open {
		0% { opacity: 0; }
		4% { opacity: 0; }
		5% { opacity: 1; }
		100% { opacity: 1; }
	}
	#eye_2 {
		opacity:1;
	}
	#eye_1 {
		animation: blink-open 10s ease infinite;
	}
	#eye_2 {
		animation: blink-close 10s ease infinite;
	}
	.mandala-outer {
		animation: spin 60s linear infinite;
		transform-box: fill-box;
	}
  <!-- .mandala-star {
		animation: spin 40s linear infinite;
	} -->.mandala-inner {
		animation: spinccw 50s linear infinite;
		transform-box: fill-box;
	}
</style>
<g>
	<path class="st0" d="M57.3,288.7c0.7,6,3.2,11.7,7.1,16.3c-6.4-2.1-10.8-8.1-13.4-14.3c-2.6-6.2-3.7-13-6.2-19.3
		c-4.6-11.6-13.4-21-22-30.1c2.5,11.4,4,23,4.5,34.6c-7.6-10.5-13-22.5-15.7-35.1c-9.3,24-2.2,53.3,17,70.4
		c-6.9,1.6-14.6-1.3-18.7-7.2c6.4,16.9,17.6,31.9,31.9,42.8c-7.1,2-14.8,2.1-22,0.3c3.4,9.8,14.3,15.1,24.6,16.6
		c18.3,2.7,36.6-2.8,54.2-8.3c-4.7,1.5-14.3-9.8-15.6-13.4c-2.2-6.1,0.5-13.2-0.7-19.8C79.9,308.1,70.5,294.9,57.3,288.7z"/>
	<path class="st0" d="M429.8,284.8c4.6-11.5,15-20,19.8-31.3c1.5,9.1,1.6,18.4,0.1,27.5c0.9-20.6,27.7-33,28.5-53.7
		c2,11.5,4,23.1,3.6,34.8c-0.4,11.7-3.4,23.6-10.5,32.9c5.4-4.2,9.6-10.1,11.7-16.7c3.2,18.5-4.4,38.5-19.1,50.2
		c7.3-3.2,14.1-7.5,20.1-12.7c-3.5,11.9-13.2,21.3-24.2,27.2s-23.3,8.6-35.5,11c5.1-4.6,25.6-25.7,19.1-32.7
		c-5.5,2.5-9.2,10-14.5,13.6c-3.6,2.4-8.1,4-12.4,3.2c-4.9-0.8-3.9-47.9,12.7-33.9C431,305.6,426,294.2,429.8,284.8z"/>
	<path class="st1" d="M69.7,306.8c0.3,2.4,1.2,9.1-0.1,10.9c-3.2-2.9-6.3-5.8-9.5-8.6C53,302.7,45.7,296,42,287.2
		c-2.2-5.3-3.1-11.1-5.7-16.2c-0.5,4.2-2,8.2-3,12.3c-1,4.1-1.4,8.6,0.2,12.4c-3.1-2.1-6-4.5-8.6-7.2c1.9,10.9,7.6,21.1,15.9,28.4
		c-3.7,0.3-7.4,0.1-11-0.6c3.6,13.6,14.6,25,28.1,28.9c-3.5,2.1-7.2,3.7-11.1,4.9c4.4,4.9,12,5.1,18.5,3.9s13.3-3.1,19.5-1.1
		c-2.9-2.6-5.8-5.2-8.7-7.8c-2.1-1.9-4.4-4.4-3.3-7.5c0.9-2.7,2.2-4.2,3-7.3C77.7,323.9,77.1,311.3,69.7,306.8z"/>
	<path class="st1" d="M423.3,328.4c0,0,1.8-13.2,10.8-6.8L423.3,328.4z"/>
	<path class="st1" d="M437.3,319.2c0,0-6-13,0-20.2s6-13.8,6-13.8s4.2,10.8,1.8,15.5c0,0,3.8-12.5,11-16s13.5-16,14.8-22
		c0,0-2,37.2-10.2,43.2c0,0,11-3,13.8-6.2c0,0-7,22.2-21,27.2l-6.8,8.8c0,0,19.8-2,23.5-6.5c0,0-7.8,11-31,13.2L437.3,319.2z"/>
	<path class="st0" d="M311,397.2c4-18,24-54,82-62s69-48,69-48s8,60-62,75s-33,93-33,93L311,397.2z"/>
	<path class="st0" d="M192.9,401.9c-4-18-24-54-82-62s-69-48-69-48s-8,60,62,75s33,93,33,93L192.9,401.9z"/>
</g>
<g id="Temple_steps_2_">
	<g>
		<polyline class="st1" points="438.7,445.5 438.6,480.7 246.5,551.9 58,480 58.2,443.7 		"/>
		<polygon class="st0" points="439.6,445.4 247.4,517.3 58,443.2 248.1,373.7 		"/>
	</g>
	<g>
		<polyline class="st1" points="404,413 403.9,441.8 247,499.9 92.9,441.2 93,411.5 		"/>
		<polygon class="st0" points="404.8,412.9 245.5,473.4 92.9,411.1 248.2,354.3 		"/>
	</g>
	<g>
		<polyline class="st1" points="371.9,388.5 371.8,411.4 247.4,457.5 125.2,410.9 125.3,387.4 		"/>
		<polygon class="st0" points="372.5,388.5 248.7,438.9 125.2,387.1 248.3,342.1 		"/>
	</g>
	<polyline class="st1" points="348.5,366.8 348.4,385.3 247.9,422.5 149.2,384.9 149.3,365.9 	"/>
	<polygon class="st0" points="348.7,366 247.6,400.7 148.9,364.8 248.4,328.5 	"/>
	<polyline class="st1" points="248.5,308.6 302.4,328.8 302.2,363.2 248.7,383.6 195.3,363.1 195.3,328.2 	"/>
	<polygon class="st0" points="302.5,328.8 248.6,347.3 195.1,328.2 248.6,308.6 	"/>
	<polygon class="st1" points="287.4,328.5 248.7,341.8 210.3,328 248.7,314 	"/>
</g>
<g id="River_4_">
	<polygon class="st0" points="228.8,375.1 229.1,353.6 203.7,344.4 203.7,365.6 	"/>
	<polygon class="st1" points="198.7,359.5 173.1,369.8 177.6,371.8 203.3,361.1 	"/>
	<polygon class="st0" points="204.3,360.4 204.3,365.3 184.6,373.8 196,364.3 	"/>
	<polygon class="st0" points="208.4,383.3 125,486.4 132.5,491.2 170.4,474.3 170.6,445.3 190.4,436.9 190.6,415.4 208.9,408.1 	"/>
	<polygon class="st1" points="173.1,369.8 76.4,486.5 81.3,488.3 177.7,371.7 	"/>
	<polygon class="st0" points="177.7,371.7 93.4,473.6 101.3,478.6 127.5,451.8 139.3,432.7 153,418 162.7,404.3 185.5,381 	"/>
	<path class="st2" d="M208.6,346.2c-0.4,3.6,0.8,6,0.4,9.7c-1.5,12.3-16.9,10.8-25.7,15c-2.1,1-4.1,2.4-5,4.4
		c-0.5,1-0.7,2.1-1.2,3.1c-0.7,1.2-1.8,2.1-2.9,3c-2.8,2.2-5.7,4.4-8.5,6.6c-1.9,1.5-4,3.2-4.6,5.6c-0.6,2.3,0.4,4.9-0.1,7.2
		c-0.7,2.8-2.4,6.3-5.1,7.5c-1.4,0.6-2.9,1-4.3,1.8c-1.3,0.8-2.5,2.2-2.4,3.7c0,0.8,0.4,1.6,0.1,2.4c-0.4,1.2-1.9,1.6-3,2.1
		c-2.6,1.1-3.3,3.4-5.2,5.3c-2.3,2.3-5.1,4-7.2,6.4c-2.7,3-4.8,6.8-4.8,10.9c-0.1,3,0.2,3.4-1.8,5.6s-3.6,4.8-4.8,7.5
		c-0.2,0.4-0.3,0.9-0.3,1.4c-0.2,0.1-0.3,0.3-0.5,0.4c-6.4,2.1-11,7.2-14.6,12.7c-4.1,6.2-9.1,13.8-7.2,21.5c0.2,0.7,0.5,1.2,1,1.6
		c-0.6,1.7-1.2,3.5-1.7,5.2c-0.7,2.5,1.8,4.3,3.8,3.8c0.1,0.5,0.4,0.9,0.9,1.3c4.3,3.9,8.6-1.2,11.3-4.5c3.3-4,6.1-8.4,8.2-13.2
		c0.1-0.2,0.2-0.5,0.2-0.7c3.1-3.1,5.7-6.6,7.8-10.4c1.8-2.2,3.4-4.6,4.8-7.1c0.4-0.1,0.7-0.4,1-0.7l18.4-21.5
		c0.6-0.7,0.8-1.5,0.7-2.3c2.9-3.2,5.8-6.5,8.6-9.7c2.1-1.9,4.1-3.9,6-6.1c0.7-0.9,0.9-1.9,0.7-2.9c0.8-0.8,1.5-1.7,2.3-2.5
		c0.5-0.1,0.9-0.4,1.4-0.9c3.1-3.5,5.8-7.3,8.1-11.3c1.9-2.2,3.5-4.8,5.3-7c2.7-3.5,5.4-7,8.2-10.5c1-1.1,2.1-2.3,3.1-3.4
		c0.4-0.4,0.6-0.9,0.8-1.3c3.5-1.7,7.1-3.4,10.6-5.1c1.3-0.6,1.7-1.1,1.5-2.2c0.3-0.1,0.6-0.6,0.9-0.7c-1.3,2.8,1.1,3.6,3.9,1.3
		c3.7-3,8.4-4,11.3-7.9c0.2-4.5,0.2-12.3,0.3-17.5C229.2,353.6,210.7,347,208.6,346.2z M112.8,490.4c-0.9,1.2-1.8,2.4-2.8,3.6
		c-0.5,0.6-1.1,1.2-1.6,1.8c-0.3,0.3-0.6,0.6-0.9,0.9c-0.1,0.1-0.2,0.1-0.2,0.2c-0.3-0.1-0.6-0.2-0.9-0.2c0.4-0.7,0.8-1.3,1.2-2
		c0.7,0,1.5-0.3,2.1-1c1-1.2,2.1-2.4,3.1-3.7C112.8,490.1,112.8,490.2,112.8,490.4z"/>
	<polygon class="st1" points="228.9,371.2 202.9,381.7 208.5,383.3 234.6,373.2 	"/>
	<polygon class="st1" points="203,381.6 109,501 112.6,502.3 208.5,383.3 	"/>
	<g>
		<ellipse class="st2" cx="174.7" cy="389.1" rx="3.3" ry="1.2"/>
		<ellipse class="st2" cx="206.1" cy="373.6" rx="3.3" ry="1.2"/>
		<ellipse class="st2" cx="212.6" cy="372.2" rx="1.7" ry="0.8"/>
	</g>
</g>
<g id="River_1_">
	<polygon class="st0" points="267.6,375.1 267.3,353.6 292.7,344.4 292.7,365.6 	"/>
	<polygon class="st1" points="297.7,359.5 323.3,369.8 318.8,371.8 293.1,361.1 	"/>
	<polygon class="st0" points="292.1,360.4 292.1,365.3 311.8,373.8 300.4,364.3 	"/>
	<polygon class="st0" points="288,383.3 371.4,486.4 363.9,491.2 326.1,474.3 325.8,445.3 306.1,436.9 305.8,415.4 287.5,408.1 	"/>
	<polygon class="st1" points="323.3,369.8 420.1,486.5 415.1,488.3 318.8,371.7 	"/>
	<polygon class="st0" points="318.8,371.7 403,473.6 395.2,478.6 369,451.8 357.1,432.7 343.4,418 333.7,404.3 310.9,381 	"/>
	<path class="st2" d="M267.2,353.7c0.1,5.2,0,13,0.3,17.5c2.8,3.9,7.6,4.9,11.3,7.9c2.7,2.2,5.1,1.4,3.9-1.3
		c0.3,0.1,0.6,0.5,0.9,0.7c-0.2,1.2,0.2,1.6,1.5,2.2c3.5,1.7,7.1,3.4,10.6,5.1c0.1,0.5,0.4,0.9,0.8,1.3c1,1.1,2.1,2.3,3.1,3.4
		c2.7,3.5,5.4,7,8.2,10.5c1.7,2.2,3.4,4.8,5.3,7c2.3,4,5,7.8,8.1,11.3c0.4,0.5,0.9,0.8,1.4,0.9c0.7,0.9,1.5,1.7,2.3,2.5
		c-0.2,0.9-0.1,2,0.7,2.9c1.9,2.2,3.9,4.2,6,6.1c2.9,3.2,5.8,6.5,8.6,9.7c-0.1,0.8,0.1,1.6,0.7,2.3l18.4,21.5c0.3,0.3,0.6,0.6,1,0.7
		c1.4,2.5,3,4.9,4.8,7.1c2.1,3.8,4.7,7.3,7.8,10.4c0,0.2,0.1,0.5,0.2,0.7c2.1,4.8,4.9,9.1,8.2,13.2c2.6,3.2,7,8.4,11.3,4.5
		c0.4-0.4,0.7-0.9,0.9-1.3c2.1,0.5,4.6-1.2,3.8-3.8c-0.5-1.8-1.1-3.5-1.7-5.2c0.5-0.4,0.8-0.9,1-1.6c1.9-7.8-3.1-15.3-7.2-21.5
		c-3.6-5.5-8.2-10.6-14.6-12.7c-0.2-0.1-0.3-0.3-0.5-0.4c0-0.5-0.1-0.9-0.3-1.4c-1.3-2.7-2.9-5.2-4.8-7.5c-2-2.2-1.7-2.6-1.8-5.6
		c-0.1-4-2.1-7.8-4.8-10.9c-2.2-2.5-5-4.1-7.2-6.4c-1.8-1.8-2.5-4.2-5.2-5.3c-1.2-0.5-2.7-0.8-3-2.1c-0.2-0.8,0.1-1.6,0.1-2.4
		c0.1-1.5-1.1-2.9-2.4-3.7c-1.3-0.8-2.9-1.2-4.3-1.8c-2.7-1.2-4.4-4.7-5.1-7.5c-0.6-2.3,0.4-4.9-0.1-7.2c-0.6-2.4-2.6-4.1-4.6-5.6
		c-2.8-2.2-5.7-4.4-8.5-6.6c-1.1-0.9-2.2-1.8-2.9-3c-0.5-1-0.7-2.1-1.2-3.1c-1-2.1-3-3.4-5-4.4c-8.8-4.2-24.1-2.7-25.7-15
		c-0.4-3.6,0.8-6,0.4-9.7C285.7,347,267.2,353.6,267.2,353.7z M383.6,489.9c1,1.2,2.1,2.4,3.1,3.7c0.6,0.8,1.4,1.1,2.1,1
		c0.4,0.7,0.8,1.3,1.2,2c-0.3,0-0.6,0.1-0.9,0.2c-0.1,0-0.1-0.1-0.2-0.2c-0.3-0.3-0.6-0.6-0.9-0.9c-0.6-0.6-1.1-1.2-1.6-1.8
		c-1-1.2-1.9-2.3-2.8-3.6C383.7,490.2,383.7,490.1,383.6,489.9z"/>
	<polygon class="st1" points="267.5,371.2 293.5,381.7 287.9,383.3 261.8,373.2 	"/>
	<polygon class="st1" points="293.4,381.6 387.4,501 383.9,502.3 287.9,383.3 	"/>
</g>
<g id="Cracks_x3F__x3F__2_">
	<polygon class="st0" points="253.2,398 253.8,402.1 254.2,396.9 	"/>
	<path class="st0" d="M263.5,394.5l0.5,5.7l1.9-0.2c0,0,0.6,7,0.5,6.7s0.1-7.8,0.1-7.8l-1.5-0.1l0.1-5.2L263.5,394.5z"/>
	<path class="st0" d="M278.9,388.8c0,0.3,0.6,3.6,0.6,3.6l1.1-1.3l1.1,0.6l-0.5-1.7c0,0,3.6-2.5,3.2-2.5S278.9,388.8,278.9,388.8z"
		/>
	<polygon class="st0" points="231.4,393.1 228.1,395.4 223.3,393.2 223.4,396.7 221.4,390.5 	"/>
	<polygon class="st0" points="211.1,386.3 211.1,389.3 214.1,389.1 	"/>
	<polygon class="st0" points="248.7,347.3 249.2,353.5 250.2,347.8 252.3,348.9 252.5,346.8 255.8,345.3 255.7,343.4 	"/>
	<path class="st0" d="M295.7,329.7c0.5,0,2.9,1.8,2.9,1.8v3.7l1-3.9l1.6-1.3L295.7,329.7z"/>
	<path class="st0" d="M221.9,336.3c-0.4-0.1-3.9,0-3.9,0l-0.4,2.7l-2.5-3.2l-1.1,5.7l-0.3-7.6L221.9,336.3z"/>
	<polygon class="st0" points="197.1,328.5 197.4,331.2 199,329.2 	"/>
	<path class="st0" d="M336.3,369.4c0.4-0.1,1.3,1.8,1.3,1.8v2.9l1.1-4.6L336.3,369.4z"/>
	<path class="st0" d="M344.9,366.8c0.5,0,1.6,1.8,1.6,1.8l0.8-0.5c0,0,1,4.6,1,4.2s0.3-6.3,0.3-6.3L344.9,366.8z"/>
	<polygon class="st0" points="292.4,420.6 296.6,420.2 297,423.2 297.8,418.6 	"/>
	<path class="st0" d="M297.1,453.3c-0.5,0.1-4.3,2.9-4.3,2.9l0.1,5.1l1.8,1.1l-2.9-1l0.3-3.5l-2.8-1.1L297.1,453.3z"/>
	<polygon class="st0" points="282.2,458.6 283.6,460.5 284.3,457.8 	"/>
	<path class="st0" d="M231.2,431l0.4,2.5c0,0,2-2,1.6-2S231.2,431,231.2,431z"/>
	<polygon class="st0" points="201.2,417.9 202.1,420.5 203.5,419.3 	"/>
	<path class="st0" d="M153.2,365.8c0,0,0.5,4.3,0.5,3.8s2.8-3,2.8-3L153.2,365.8z"/>
	<polygon class="st0" points="135.2,390.3 135.2,393 137.5,391.7 	"/>
	<path class="st0" d="M94.8,411.3c0,0,0.1,6.6,0.1,6.1s0.8-5.8,0.8-5.8L94.8,411.3z"/>
	<polygon class="st0" points="369.7,389.3 369.5,393 368.5,389.4 	"/>
</g>
<g>
	<path class="st3" d="M283.9,347.7c0,0-2.6,5.8,1.1,6.6c0,0-2.2,11.9,11,14.8s8.6,9,1.5,6.2s-4.9-6.2-4.9-6.2s-14.8-5.4-13.6-19.5
		L283.9,347.7z"/>
	<path class="st3" d="M274.1,358.3c0,0,3.9,8.8-0.8,10.4c0,0-6.1,2.8-4-16.2l-2.2,1.3l0.3,17.5l14,5.6l-8.5-6.8
		C273,370,279.8,368.9,274.1,358.3z"/>
	<path class="st3" d="M332.5,391.2c0,0,2.5,4,0.8,7.4l-2.5,0.6c0,0,2-5.2-0.2-8H332.5z"/>
	<path class="st3" d="M293.4,381.6c0,0,5,0.8,6.7-0.4c0,0,1.2,10.2,4.4,14.5L293.4,381.6z"/>
	<path class="st3" d="M307.3,399.3c0,0,6.6,3.2,10.8,2.9c4.2-0.3,3,6.9,3,6.9s-2.5,4.8,1,8.9L307.3,399.3z"/>
	<path class="st3" d="M306,370.3c0,0,1.9,1.6,1.8,3C307.8,373.3,310.6,372,306,370.3z"/>
	<path class="st3" d="M324.8,408.7c0,0-5.8,4-0.7,11.8c0,0-2.1-3.9,2.4-10.1L324.8,408.7z"/>
	<path class="st3" d="M325.6,408.1l1.6,1.5c0,0,0.1-2.4,3.2-2.6S327.3,404.3,325.6,408.1z"/>
	<path class="st3" d="M331.8,409.7c0,0-5.5,0.5-5.9,5.6c0,0,5-5.4,12,8.5s7,16.8,16.1,18.2l2.9-1.4c0,0-14.2-4.4-17.6-18
		S331.8,409.7,331.8,409.7z"/>
	<path class="st3" d="M346,412.7l-0.5,4c0,0-3.2,2.1-7.6-3.2c-4.4-5.3-3.2-5.4-3.2-5.4S339.9,416.5,346,412.7z"/>
	<path class="st3" d="M352.5,421.2c0,0,1.4,3.6,6,6.4C358.5,427.5,348.1,428,352.5,421.2z"/>
	<path class="st3" d="M333.8,432.7c0,0-0.2-7.9,3.4-4.2c3.6,3.7,3,12.8,12.2,15.1c9.2,2.3-2.5,6.4-2.5,6.4L333.8,432.7z"/>
	<path class="st3" d="M362.4,431.5c0,0,4.8,4.2,3.8,10c0,0-2.4,1.6-7.1-0.1c0,0,2.4-3.6-2.9-5.8c-5.3-2.2-8.1-7.4-7-10.8
		C349.1,424.9,352.4,435.4,362.4,431.5z"/>
	<path class="st3" d="M332.8,431.5c0,0-0.4-4.4,1.6-5.2c0,0-9.5-4.6-8.4-9.8c0,0-1.8,3.1,2.6,9.4L332.8,431.5z"/>
	<path class="st3" d="M224.6,352l4.8,1.5l-0.2,17.5l-26,10.5l-12.6,15.9c0,0-6-5.1,4.6-11.1s7.9-9.5,7.9-9.5s-7-6,6.5-6.4
		s19.6,5.4,16.1-5.2C222.2,354.6,224.6,352,224.6,352z"/>
	<path class="st3" d="M221.9,350.9c0,0-4.2,6.9-0.4,13.9s-6.5,2.4-6.5,2.4s-6.4-1-10.5,1.6c0,0-2.5-4.4,9.6-4.5s-4.1-7.2-1.2-16.6
		L221.9,350.9z"/>
	<path class="st3" d="M199.6,368c-0.4,0-15,1.4-15.8,6.6s7.6,3.3-4.5,7.6c-10.6,3.8-17,9.2-3.4,9.1s-3.2-4.5,7-9s17.9,0.6,8.9-7.9
		C187.9,370.8,199.6,368,199.6,368z"/>
	<path class="st3" d="M186.4,402.4c0,0,0.6-6.4-2.9-8.9c0,0-4,4.6-14.1,2.2c0,0,5.8,20.1-4.2,29.4c0,0,13-8.2,10.4-23.5
		c0,0,2.6-0.3,4.4-2.2c0,0-3.2,4.4-1,12.7L186.4,402.4z"/>
	<path class="st3" d="M169,408.4c0,0,0.1,17.1-11.6,18l-2.9-5.6C154.5,420.8,163.9,425,169,408.4z"/>
	<path class="st3" d="M160.8,406.3c0.1-0.3-6.2,5.9-6.2,5.9l0.9,7.5c0,0,9.1,2,11.6-10.2C167,409.4,157.1,421.7,160.8,406.3z"/>
	<path class="st3" d="M191.2,386.3c-1.3,0.8-2.3,1.9-2.9,3.3c-0.1,0.3-0.3,0.6-0.6,0.8c-0.5,0.3-1.1-0.1-1.2-0.7
		c-0.1-0.5,0-1.1,0.3-1.5c1.4-3,4.5-5.5,7.9-5.4c0.8,0,2.3,0,1.9,1C196,385,192.3,385.6,191.2,386.3z"/>
	<path class="st3" d="M163.4,396.7c0.4,0.2,0.9,0.3,1.4,0.4c0.3,0,0.6,0.1,0.9,0.3c0.3,0.2,0.5,0.5,0.6,0.8c1.2,2.4,0.3,5.4-1.3,7.5
		c-0.2,0.3-0.4,0.5-0.5,0.9c-0.1,0.3,0.1,0.7,0.4,0.8c0.3,0.1,0.7-0.2,0.9-0.4c1.1-1.3,1.7-2.9,1.9-4.5c0.2-1.7,0.5-5.8-1.3-6.8
		c-0.6-0.3-2-0.4-2.6-0.4C162.6,395.2,162,396,163.4,396.7z"/>
	<path class="st3" d="M162.7,398.4c-0.2,0.3-0.3,0.7-0.3,1c0,0.4,0.2,0.7,0.6,0.8c0.3,0,0.6-0.2,0.7-0.5c0.1-0.3,0.1-0.7,0-1
		c-0.4-0.1-0.8,0-1.2,0.1"/>
	<path class="st3" d="M163.8,427.7c0.4,0.3,2-1.1,1.8-0.6c-0.1,0.5-0.5,0.9-0.8,1.3c-4.1,5-8.2,10.1-12.3,15.1
		c0.7-1.9,0.4-4,0.5-6.1c0.1-2.5,0.7-6.5,3.2-7.5C159.3,428.7,160.9,429.5,163.8,427.7z"/>
	<path class="st3" d="M276.5,370c0,0.3,0.2,0.6,0.4,0.8c2.1,2.2,4.8,3.9,7.7,4.8c0.2-0.9-0.2-1.8-0.9-2.4c-0.7-0.6-1.5-1.1-2.2-1.6
		c-0.8-0.6-1.5-1.3-2-2.1c-0.3-0.5-0.6-1-0.6-1.6c0-0.5,0.2-1.1,0.2-1.6s-0.1-1.2-0.6-1.4c-0.7-0.3-1.5,0.4-1.5,1.1
		c-0.1,0.8,0.4,0.7,0.6,1.2C278.1,368.8,276.4,368.8,276.5,370z"/>
	<path class="st3" d="M287.5,377.3c1,0.5,2.1,1,3.1,1.5c0.9,0.4,1.8,0.9,2.7,1.1c1.2,0.3,2.6,0.1,3.7-0.4c0.3-0.1,0.7-0.6,0.5-0.8
		c-1.6-0.1-3.2-0.3-4.7-0.8c-1.1-0.4-2.2-0.9-3.1-1.8c-0.6-0.6-1.3-2.6-2-2.8c-1.1-0.4-0.9,0.7-0.9,1.2
		C287,375.1,287.2,377.2,287.5,377.3z"/>
	<path class="st3" d="M311.6,393c1,1,2.2,2,3.5,2.6c1,0.5,2.2,0.7,3.3,1c2.8,0.6,5.6,1.1,8.4,1.4c0.7,0.1,1.5,0.1,2.1-0.3
		c0.7-0.5,0.8-1.5,0.8-2.4c0-0.2,0-0.4-0.1-0.6c-0.2-0.3-0.7-0.2-1,0c-0.8,0.4-1.5,1-2.3,1.1c-0.6,0.1-1.3-0.1-1.9-0.3
		c-1.7-0.6-3.4-1.1-5.2-1.7c-0.4-0.1-0.8-0.3-1-0.5c-0.5-0.6-0.2-1.5,0.3-2.1s1.2-1,1.7-1.6s0.6-1.7-0.1-2.1
		c-0.5-0.3-1.2-0.2-1.7,0.2s-0.8,1-1.1,1.5c-0.6,0.8-1.4,1.6-2.4,1.6s-2-1.1-1.5-2c0.2-0.5,0.8-0.7,1.2-0.9c1.5-0.6,3.2-1.1,4.4-2.3
		c0.3-0.4,0.6-0.9,0.3-1.3c-0.1-0.2-0.4-0.3-0.6-0.3c-2.2-0.4-4,2.2-6.2,2c-1.7-0.1-2.7-1.7-3.7-2.9c-0.7-0.9-2.6-2.8-3-0.6
		c-0.3,1.5,1.6,4.4,2.3,5.7C308.9,389.9,310.2,391.5,311.6,393z"/>
	<path class="st3" d="M315.5,381.3c-0.9,0.8-2.1,1.1-3.2,1c-0.1,0-0.3,0-0.4-0.1c-0.2-0.1-0.4-0.3-0.6-0.5c-0.8-0.8-1.6-1.5-2.4-2.3
		c-0.3-0.3-0.6-0.6-0.8-1c-0.2-0.4-0.1-0.9,0.2-1.2c0.5-0.5,1.4,0,1.8,0.5c0.5,0.5,0.9,1.2,1.6,1.2c0.5,0,1-0.3,1.4-0.6
		c0.5-0.4,0.9-0.9,1.1-1.5c0.1-0.4-0.2-1.3,0.1-1.6c0.5-0.6,1,0,1.4,0.4C317.3,377.2,317.1,379.9,315.5,381.3z"/>
	<path class="st3" d="M301.5,382.4c0.1,4.6,2.1,9.1,5.4,12.3c1,0.9,2.2,1.8,3.5,1.8c-0.3-1.1-1.4-1.9-2.2-2.7
		c-1.4-1.5-2.2-3.4-2.9-5.3c-0.9-2.4-1.6-4.6-1.6-7.2C303.7,378.5,301.4,380.2,301.5,382.4z"/>
	<path class="st3" d="M334.9,405.4c0.2,0.3,0.3,0.7,0.1,1c-0.3,0.3-0.8,0-1.1-0.3c-2.9-2.3-7.5-2.2-10.3,0.2
		c-0.3,0.2-0.6,0.5-0.9,0.2c-0.1-0.1-0.1-0.2-0.1-0.3c-0.2-1.7,0.6-3.6-0.4-4.9c-0.5-0.6-1.3-0.9-1.8-1.6c-0.2-0.2-0.3-0.5-0.2-0.7
		c0-0.1,0.2-0.2,0.3-0.3c0.5-0.3,1.1-0.2,1.6,0.1c0.5,0.3,0.9,0.7,1.4,1.1c1.4,1,3.2,1,4.8,0.9c2-0.1,3.6-0.5,5.5-1
		C333.9,401.8,334,403.6,334.9,405.4z"/>
	<path class="st3" d="M343.4,418.9c-1.3,0.2-2.5-0.7-3.6-1.4c-0.6,0.7-0.5,1.8-0.1,2.7s1,1.6,1.4,2.5c0.2,0.6,0.3,1.1,0.5,1.7
		c0.7,2.7,2.1,5.3,4.1,7.3c0.2,0.2,0.6,0.5,0.8,0.2c0.1-0.1,0.1-0.2,0.1-0.4c0-2-1.9-3.5-2.8-5.4c-0.5-1-0.7-2.1-0.8-3.2
		c-0.1-0.4-0.1-0.9,0-1.3s0.4-0.8,0.8-0.9c0.9-0.2,2.4,0.5,2.4-1C346.3,418,344.3,418.8,343.4,418.9z"/>
	<path class="st3" d="M153.8,425.6c-1.2-2.9-1.4-6.1-0.8-9.2c0.2-0.8,0-2-0.8-1.9c-0.3,0.1-0.5,0.4-0.7,0.7
		c-0.6,1.5-0.1,3.4-1.2,4.6c-0.4,0.5-1.1,0.7-1.7,0.9c-2.4,1-4.9,2.3-6.3,4.5c-0.5,0.9-0.8,1.8-1.5,2.6c-0.8,1-2.1,1.5-3.2,2.1
		c-4.2,2.4-7,7-7,11.9c0,0.5,0.1,1,0.5,1.2s0.9-0.1,1.3-0.4c1.9-1.7,2.3-4.6,3.6-6.9c1.1-1.8,2.8-3.2,4.6-4.5
		c2.1-1.6,4.1-3.2,6.2-4.7c0.9-0.7,2.4-1.3,2.9-0.2c0.4,0.8-0.4,1.6-1,2.2c-2.4,2.1-4.7,5.2-3.9,8.4c0.2,0.8,0.7,1.6,1.5,1.6
		c0.7,0,1.1-0.7,1.4-1.2c1.3-2.2,2.5-4.6,4.2-6.5C153.5,429,154.8,428.1,153.8,425.6z"/>
	<path class="st3" d="M150.2,445.1c-0.5,1-1.2,1.8-2,2.6c-4.2,4.4-8.4,8.9-12.7,13.3c-0.6,0.7-1.7,1.3-2.3,0.6
		c-0.3-0.3-0.2-0.8-0.1-1.2c0.6-3.1,3-5.5,5.1-7.8c4.7-5.1,9.9-10.9,13.1-17.1C150.3,438.6,151.7,442.1,150.2,445.1z"/>
	<path class="st3" d="M141.7,438.8c0.5,1.3,1.4,2.6,1.1,3.9c-0.2,0.8-0.8,1.5-1.3,2.1c-2.7,3-5.4,6-8.1,9c-0.4,0.4-0.8,0.9-1.4,1
		c-0.5,0.1-1,0-1.5-0.2c-0.9-0.3-1.8-0.5-2.7-0.8c-0.4-0.1-0.8-0.2-1.1-0.5c-0.5-0.5-0.5-1.4-0.2-2s0.9-1.1,1.4-1.6
		c2-1.6,4.3-2.8,6.3-4.4s3.8-3.6,4.6-6c0.3-1,0.4-2.1,0.9-3.1c0.4-0.8,1.2-1.5,2.1-1.5C141.6,436.2,141.1,437.3,141.7,438.8z"/>
	<path class="st3" d="M130.8,466.5c-0.2,0.7-0.6,1.4-1,2c-2.8,4.6-5.7,9.2-8.5,13.8c-1,1.7-2.4,3.5-4.3,3.6c-0.6-1-0.4-2.3,0.1-3.3
		s1.3-1.9,2-2.8c1.6-2.1,2.8-4.5,3.6-7c1.2-4,1.3-8.6,3.6-12.3c0.8-1.2,2.8-4,4-1.7c0.4,0.8,0.1,2.6,0.2,3.6
		C130.7,463.7,131.2,465.1,130.8,466.5z"/>
	<path class="st3" d="M115.6,464.6c1.1,0.4,2.1-0.6,3.2-1c0.2-0.1,0.4-0.1,0.5,0s0.1,0.2,0.1,0.2c0.3,1.2-0.7,2.3-1.4,3.4
		c-0.6,1-1,2.2-0.9,3.5c0,0.2,0,0.4,0.1,0.5c0.2,0.5,0.9,0.5,1.5,0.4c1-0.3,1.8-1.1,2.3-2.1s0.8-2,1.1-3c0.5-1.7,3.5-8,0.2-8.3
		C120.5,458.2,115.7,464.7,115.6,464.6z"/>
	<path class="st3" d="M105.8,475.9c-1,1.5-2,3-2.6,4.7c-0.7,2-0.7,4.1-0.7,6.2c0,0.5,0,1,0.3,1.4c0.4,0.6,1.1,0.9,1.8,0.8
		c0.7-0.1,1.3-0.5,1.9-0.9c1.9-1.4,3.2-3.5,4.5-5.5c0.9-1.4,1.7-2.8,2.2-4.3c0.2-0.7,0.4-1.5,0-2.1s-1.4-0.8-1.8-0.2
		c-0.7-1.2-0.1-2.7,0.8-3.7c1.6-2,3.2-6.4-0.7-3.3C109.1,471,107.4,473.5,105.8,475.9z"/>
	<path class="st3" d="M116.5,477.4c-0.1,1.3-1.4,2.3-1,3.6c1.3-1.5,2.2-3.3,2.6-5.3c0.2-1-0.4-3.1-1.8-2
		C115.2,474.5,116.6,476.4,116.5,477.4z"/>
	<path class="st3" d="M105.9,494.8c-0.4,0.5-0.8,1.1-1,1.7s-0.2,1.4,0.3,1.9c0.4,0.4,0.9,0.6,1.5,0.6c1.2,0,2.3-0.8,3.2-1.6
		c2.6-2.4,5-6.2,5.2-9.8C111.6,485.8,107.7,492.4,105.9,494.8z"/>
	<path class="st3" d="M354.5,445.3c-0.2,0.1-0.1,0.4,0.1,0.6c0.2,0.1,0.4,0.2,0.6,0.3c1.1,0.4,1.2,2,0.4,3c-0.7,0.9-1.9,1.3-3,1.6
		c-1.1,0.3-2.3,0.7-3,1.6c0.4,0.7,0.9,1.4,1.5,2c0.6,0.5,1.5,0.9,2.3,0.7c0.5-0.1,0.9-0.4,1.3-0.6c1.4-1,3-2,3.6-3.6
		c0.2-0.4,0.3-0.9,0.5-1.3c0.6-1.1,1.9-1.7,3.1-2c1.6-0.5,5.7-2.1,2.1-2.8C361.1,444.2,357.5,445,354.5,445.3z"/>
	<path class="st3" d="M362.3,449.9c-0.6,0.5-1,1.2-0.9,1.9c0.2,1.1,1.4,1.6,2.4,2.2c1.7,0.9,3.2,2.4,4.1,4.2
		c0.4,0.8,0.7,1.7,1.4,2.3c0.8,0.7,2.1,0.9,3.1,0.4s1.6-1.7,1.4-2.7c-0.1-0.6-0.3-1.1-0.6-1.6C371.1,452.1,368.1,445.3,362.3,449.9z
		"/>
	<path class="st3" d="M376.2,462.7c-0.4,0.7-1,1.5-0.7,2.2c0.4,0.8,1.6,0.6,2.4,0.9c1.6,0.4,2.2,2.2,2.7,3.8c1.4,5,3.3,9.9,5.6,14.6
		c0.7,1.4,1.4,2.8,2.5,3.9s2.6,1.9,4.1,1.7c0.8-0.1,1.7-0.4,2.1-1.1c0.3-0.4,0.3-0.9,0.4-1.4c0.1-1.4-0.1-2.8-0.6-4.2
		c-0.6,1.1-1.4,2.4-2.7,2.4c-1.4,0.1-2.3-1.4-2.9-2.7c-0.3-0.7-0.6-1.3-1-2c-0.3-0.6-0.5-1.1-0.5-1.8c0-0.6,0.4-1.3,1-1.4
		c0.9-0.1,1.5,0.9,1.8,1.8s0.8,2,1.7,1.9c0.6,0,1.1-0.6,1.2-1.2s-0.1-1.3-0.3-1.9c-1.2-3.4-3.1-6.6-5.5-9.3c0,0.8-1.1,1.3-1.9,1
		s-1.3-1-1.8-1.7c-1.6-2.5-4-8.3-7.4-8.7C376.6,460.7,376.7,461.8,376.2,462.7z"/>
	<path class="st3" d="M360.5,458.6c-0.5-0.3-1-0.7-1.6-0.7s-1.2,0.3-1.3,0.9c-0.1,0.6,0.4,1.1,0.8,1.5c5.3,5.3,10.4,10.8,15.1,16.6
		c1.2,1.5,2.4,3,3.4,4.6c1.2,2,2,4.1,3.1,6.1c2.1,3.6,5.2,6.5,8.2,9.3c1,0.9,2.4,1.9,3.5,1.2c1.2-0.6,1-2.5,0.2-3.5
		s-2.1-1.6-3.2-2.4c-1.5-1.2-2.5-2.9-3.4-4.6c-2-3.8-3.6-7.8-4.8-11.9c-1.7,0.6-3.6,0.3-5.1-0.6c-3.8-2.5-0.7-8-4.6-9.5
		c-1.9-0.7-3.5-0.9-5.1-2.1C363.9,462,362.5,460,360.5,458.6z"/>
</g>
<g>
	<path class="st1" d="M363.5,365.8c2.4,0.7,4,3.4,3.3,5.8c0.7-0.5,1.4-1.1,1.9-1.8c0.8-1.4,0.4-3.4-0.9-4.4s-3.4-0.8-4.5,0.5"/>
	<path class="st1" d="M358.5,358.2c1.2,1.7,0.8,4.5-1.1,5.5c0.6-1.9-0.9-3.9-2.8-4.5c-1.8-0.6-8.6,1.1-4.9-2.4
		C351.9,354.6,356.8,355.8,358.5,358.2z"/>
	<path class="st1" d="M134.3,360.5c-1.7,1.3-2.6,3.4-2.7,5.6c-0.1,1.7,0.4,3.4,1.6,4.6c1.2,1.2,3.1,1.7,4.6,1
		c-1.4-1.8-1.6-4.4-0.6-6.5c1.1-2.1,3.2-3.2,5.5-3.4C141.4,358.2,136.9,358.5,134.3,360.5z"/>
	<path class="st1" d="M111,343.2c-2.8-0.2-5.4,2.5-5.2,5.3c0.1,1.3,1.1,2.8,2.5,2.7c-0.4-1.6,0.1-3.4,1.2-4.6s2.9-1.8,4.6-1.5
		c-0.7-1.6-2.8-2.4-4.3-1.7"/>
	<path class="st1" d="M99.1,348.7c-1.6-0.3-3,1.3-3,2.9s1.2,3,2.7,3.6c-0.5-1.2-0.3-2.6,0.4-3.6s2.3-1.4,3.4-0.9
		c-0.7-1.6-2.7-2.4-4.3-1.9"/>
	<path class="st1" d="M113.1,356.7c-1.2,0.1-2.2,0.6-2.8,1.9c-0.5,1.3,0.1,2.9,1.2,3.7c1.1,0.8,2.7,0.9,4.1,0.3
		c-1.2-0.1-2.1-1.3-1.9-2.5s1.4-2.1,2.5-1.9C115.9,356.9,114.3,356.1,113.1,356.7"/>
	<path class="st1" d="M123.9,360.8c-0.9,0.3-1.7,0.8-2.2,1.6c-0.5,0.8-0.6,1.8-0.1,2.6c0.4,0.6,1.1,1,1.8,1.1c0.7,0.1,1.4,0,2.1-0.1
		c-0.3-0.3-0.6-0.7-0.9-1c-0.2-0.2-0.3-0.3-0.4-0.5c-0.3-0.6-0.1-1.3,0.4-1.7s1.2-0.5,1.8-0.3C126.1,361,125.3,360.3,123.9,360.8z"
		/>
	<path class="st1" d="M146.6,353.8c-0.4-0.1-0.9-0.1-1.2,0c-0.4,0.2-0.7,0.5-1,0.9s-0.5,0.8-0.6,1.3s0,1,0.3,1.3s0.7,0.5,1.2,0.6
		c-0.1-0.4-0.1-0.8,0-1.1c0.1-0.5,0.6-0.8,1-1s1,0,1.4,0.2c0.3,0.1,0.5,0.3,0.8,0.5c0.2-0.3,0.2-0.8,0.1-1.1
		C148.3,354.4,147.6,354,146.6,353.8z"/>
	<path class="st1" d="M120,347.7c-1.2,0.7-2.1,1.9-2.1,3.3c0,0.9,0.4,1.7,1.1,2.3s1.6,0.8,2.5,0.6c-0.3-0.6-0.3-1.2-0.2-1.9
		c0.2-0.9,0.5-1.9,1.3-2.5c1.1-0.9,2.6-0.5,3.5,0.4c1.1-1.4-0.6-2.3-1.8-2.7C122.9,346.9,121.3,347,120,347.7z"/>
	<path class="st1" d="M133.2,349.8c-0.6-0.1-1.3-0.1-1.9,0.1c-0.6,0.2-1,0.6-1.5,0.9c-0.7,0.6-1.4,1.2-1.8,2.1
		c-0.4,0.9-0.4,2,0.1,2.9c0.5,0.9,1.3,1.5,2.3,1.7c-0.1-1.8,1-3.6,2.6-4.4s3.5-0.6,5,0.4C137.5,351.7,135.3,349.8,133.2,349.8z"/>
	<path class="st1" d="M104,357.8c-0.6,0.7-0.8,1.6-0.6,2.5s0.8,1.6,1.5,2c-0.9,0.3-1.8-0.3-2.5-0.8c-0.5-0.3-0.9-0.7-1.2-1.2
		c-0.6-1.1-0.3-2.5,0.4-3.5c0.4-0.6,1.1-1.1,1.8-1.2c0.9-0.1,1.8,0.5,2.5,1.1c0.1,0.1,0.2,0.1,0.2,0.2c0.1,0.5-0.7,0.2-0.9,0.2
		C104.8,357.2,104.3,357.4,104,357.8z"/>
	<path class="st1" d="M92.7,340c-0.6,0.3-1.1,0.8-1.3,1.5c-0.2,0.7,0,1.4,0.6,1.8c0.4,0.2,0.8,0.3,1.2,0.3c0.4,0,0.8,0,1.1-0.1
		c-0.1-0.2-0.3-0.4-0.4-0.5c-0.2-0.3-0.3-0.7-0.2-1c0.1-0.3,0.4-0.5,0.7-0.6c0.3-0.1,0.6-0.1,0.9,0h0.1c0.2,0,0.2-0.3,0.1-0.5
		C94.8,339.8,93.9,339.3,92.7,340z"/>
	<path class="st1" d="M353.9,368.7c1.8-0.4,3.7,0.5,4.6,2.1c0.8,1.6,0.4,3.8-1,4.9c0.9-0.4,1.9-0.8,2.7-1.4c0.8-0.6,1.4-1.6,1.4-2.6
		c0-0.8-0.3-1.5-0.7-2.1c-0.3-0.5-0.7-1-1.2-1.3c-0.4-0.2-0.8-0.3-1.2-0.3c-0.7-0.1-1.4-0.2-2.1-0.2c-0.5,0-1.1,0-1.6,0.1
		c-0.5,0.2-0.8,0.5-1.1,1C353.7,368.8,353.8,368.8,353.9,368.7z"/>
	<path class="st1" d="M360.9,354c0.2,0.2,0.4,0.3,0.7,0.3c0.8,0.1,1.7-0.2,2.5-0.2c0.9,0,1.7,0.3,2.5,0.7c0.6,0.3,1.3,0.7,1.6,1.4
		c0.2,0.4,0.2,0.8,0.2,1.1c0,1.1-0.2,2.3-0.7,3.3c1,0.2,1.9-0.3,2.7-0.8c0.7-0.5,1.3-1.1,1.6-1.8c0.4-0.8,0.4-1.8,0.3-2.7
		c-0.3-1.8-1.2-3.5-2.7-4.5c-1.4-1-3.5-1.3-5.1-0.6C363.5,350.6,359.6,352.6,360.9,354z"/>
	<path class="st1" d="M395.9,347.1c0.3,0.3,0.5,0.7,0.7,1c0.3,0.7,0.5,1.4,0.4,2.2c-0.1,0.8-0.5,1.5-1.1,1.9c1.4,0,2.8-0.6,3.7-1.7
		c0.9-1.1,0.8-2.9-0.2-3.9c-0.7-0.7-1.7-0.9-2.7-1c-0.8-0.1-1.8-0.1-2.3,0.6C393.8,346.9,395.5,346.7,395.9,347.1z"/>
	<path class="st1" d="M401.7,341.1c0.2,0.4,0.4,0.9,0.4,1.4s-0.2,1-0.6,1.3c0.6-0.1,1.2-0.2,1.8-0.4c0.6-0.2,1.1-0.5,1.4-1.1
		c0.2-0.4,0.2-0.8,0.2-1.3c0-0.4,0-0.7-0.1-1c-0.3-1.1-1.5-1.7-2.6-1.7c-1,0-2.1,0.4-2.9,1c0.1,0.3,1.1,0.4,1.4,0.7
		C401,340.2,401.4,340.6,401.7,341.1z"/>
	<path class="st1" d="M405.8,349.8c-0.1,0.7-0.5,1.3-1,1.8c0.5,0.1,1.1,0,1.6-0.2c0.6-0.2,1.3-0.4,1.6-1c0.2-0.4,0.3-0.9,0.1-1.3
		c-0.2-0.4-0.4-0.8-0.8-1.1c-0.1-0.1-0.3-0.2-0.5-0.3s-0.4-0.1-0.6-0.1c-0.4,0-1,0.1-1.3,0.4C405.5,348.6,405.9,349.1,405.8,349.8z"
		/>
	<path class="st1" d="M376.8,359.4c0,0.8-0.4,1.5-1,1.9c0.9,0,1.8-0.1,2.4-0.7c0.5-0.5,0.8-1.2,0.8-2c0-0.5-0.1-0.9-0.3-1.3
		c-0.2-0.3-0.6-0.5-1-0.7c-0.5-0.2-0.9-0.3-1.4-0.2s-1,0.3-1.2,0.7C376,357.5,376.8,358.3,376.8,359.4z"/>
	<path class="st1" d="M418.4,342c0.4,0.6,0.7,1.3,0.8,2c0.1,0.7-0.1,1.5-0.7,2c1.3-0.2,2.3-1.2,2.9-2.4c0.3-0.6,0.5-1.2,0.5-1.8
		s-0.3-1.3-0.8-1.6c-0.3-0.2-0.8-0.3-1.2-0.4c-0.7-0.1-1.4-0.2-2-0.1c-0.5,0.1-1,0.5-1.1,1C417.4,341.1,418,341.3,418.4,342z"/>
</g>
<polygon class="st4" points="249.9,61.6 275.4,133.5 344.4,100.8 311.6,169.7 383.5,195.3 311.6,220.8 344.4,289.8 275.4,257 
	249.9,328.9 224.3,257 155.4,289.8 188.1,220.8 116.2,195.3 188.1,169.7 155.4,100.8 224.3,133.5 "/>
<polygon class="st1" points="249.9,87.6 270.5,145.5 326,119.1 299.6,174.7 357.5,195.3 299.6,215.9 326,271.4 270.5,245 
	249.9,302.9 229.3,245 173.7,271.4 200.1,215.9 142.2,195.3 200.1,174.7 173.7,119.1 229.3,145.5 "/>
<path id="More_dots" class="st4 mandala-outer" d="M275.5,343.9L275.5,343.9h-0.1c-1.8,0.3-3.6-0.9-3.9-2.7c-0.3-1.8,0.9-3.5,2.7-3.9l0,0h0.1
	c1.8-0.3,3.6,0.9,3.9,2.7C278.5,341.8,277.3,343.6,275.5,343.9z M284.6,342c-1.7,0.3-3.4-0.8-3.9-2.5c-0.4-1.8,0.6-3.6,2.4-4.1h0.1
	c1.8-0.4,3.6,0.7,4,2.5s-0.7,3.6-2.5,4l-0.8-3.3l0.7,3.3C284.7,342,284.7,342,284.6,342z M266.3,345.2c-0.1,0-0.2,0-0.2,0H266
	c-1.8,0.2-3.5-1.2-3.7-3s1.2-3.5,3-3.7s3.5,1.1,3.7,3C269.1,343.3,268,344.9,266.3,345.2z M293.7,339.6c-1.7,0.3-3.3-0.7-3.8-2.3
	c-0.5-1.8,0.4-3.6,2.2-4.2h0.1c1.8-0.6,3.7,0.4,4.2,2.2c0.6,1.8-0.4,3.7-2.2,4.2h-0.1C293.9,339.5,293.8,339.6,293.7,339.6z
	 M256.9,345.9c-0.2,0-0.3,0-0.5,0.1h-0.1c-1.9,0.1-3.4-1.3-3.5-3.2c-0.1-1.9,1.3-3.4,3.2-3.5h0.1c1.9-0.1,3.4,1.4,3.5,3.2
	C259.7,344.2,258.6,345.6,256.9,345.9z M302.5,336.6c-1.6,0.3-3.2-0.6-3.8-2.1c-0.6-1.7,0.3-3.7,2-4.3c1.7-0.7,3.7,0.2,4.4,1.9
	c0.7,1.7-0.2,3.7-1.9,4.3h-0.1C302.8,336.5,302.7,336.6,302.5,336.6z M247.6,346c-0.2,0-0.5,0.1-0.7,0.1h-0.1
	c-1.9,0-3.3-1.6-3.3-3.4c0-1.9,1.6-3.3,3.4-3.3c1.9,0,3.4,1.6,3.3,3.4C250.2,344.4,249.1,345.8,247.6,346z M311.1,333
	c-1.5,0.3-3-0.5-3.7-1.9c-0.8-1.7,0-3.7,1.7-4.4c1.7-0.8,3.7,0,4.5,1.7s0.1,3.7-1.6,4.4h-0.1C311.6,332.9,311.4,333,311.1,333z
	 M238.2,345.6c-0.3,0.1-0.6,0.1-0.9,0h-0.1c-1.8-0.2-3.2-1.8-3.1-3.6c0.2-1.8,1.8-3.2,3.6-3.1c1.8,0.2,3.3,1.8,3.1,3.6
	C240.8,344.1,239.7,345.3,238.2,345.6z M319.6,328.9c-1.4,0.3-2.9-0.4-3.6-1.7c-0.9-1.6-0.3-3.6,1.3-4.5l0.2-0.1
	c1.6-0.9,3.7-0.2,4.5,1.4c0.9,1.6,0.2,3.7-1.4,4.5l-1.6-3l1.5,3C320.2,328.7,319.9,328.8,319.6,328.9z M228.9,344.5
	c-0.3,0.1-0.7,0.1-1.1,0h-0.2c-1.8-0.3-3.1-2-2.8-3.8s2-3.1,3.8-2.8c1.8,0.3,3.1,2,2.9,3.8C231.4,343.1,230.3,344.2,228.9,344.5z
	 M327.7,324.2c-1.3,0.2-2.7-0.3-3.5-1.5c-1-1.6-0.5-3.6,1-4.6l0.1-0.1c1.6-1,3.7-0.5,4.6,1.1c1,1.6,0.5,3.7-1.1,4.6l-1.7-2.9
	l1.7,2.9C328.5,324,328.1,324.2,327.7,324.2z M219.7,342.8c-0.4,0.1-0.9,0.1-1.3,0h-0.1c-1.8-0.4-3-2.2-2.5-4c0.4-1.8,2.2-3,4-2.5
	c1.8,0.4,3,2.2,2.6,4C222.1,341.6,221,342.6,219.7,342.8z M335.5,319.1c-1.2,0.2-2.6-0.2-3.4-1.3c-1.1-1.5-0.7-3.6,0.8-4.7l0.1-0.1
	c1.5-1.1,3.6-0.7,4.7,0.8s0.7,3.6-0.8,4.7l-1.9-2.8l1.9,2.8C336.4,318.8,335.9,319,335.5,319.1z M210.6,340.6
	c-0.5,0.1-1,0.1-1.5-0.1H209c-1.8-0.5-2.8-2.4-2.3-4.2c0.5-1.8,2.4-2.8,4.2-2.3s2.9,2.4,2.4,4.1
	C212.9,339.5,211.8,340.4,210.6,340.6z M342.9,313.5c-1.2,0.2-2.4-0.2-3.2-1.2c-1.2-1.4-0.9-3.6,0.5-4.7c1.4-1.2,3.6-1,4.8,0.5
	c1.2,1.4,1,3.5-0.5,4.7l-0.1,0.1C344,313.2,343.4,313.4,342.9,313.5z M201.7,337.8c-0.5,0.1-1.1,0.1-1.7-0.1h-0.1
	c-1.7-0.6-2.6-2.6-2-4.3c0.6-1.7,2.6-2.6,4.3-2s2.7,2.6,2.1,4.3C203.8,336.8,202.8,337.6,201.7,337.8z M350,307.4
	c-1.1,0.2-2.3-0.1-3.1-1c-1.3-1.4-1.2-3.5,0.2-4.7c1.4-1.3,3.5-1.2,4.8,0.2c1.3,1.4,1.2,3.5-0.2,4.7l-0.1,0.1
	C351.2,307,350.6,307.3,350,307.4z M192.9,334.4c-0.6,0.1-1.3,0.1-1.9-0.2h-0.1c-1.7-0.7-2.5-2.7-1.7-4.4c0.7-1.7,2.7-2.5,4.4-1.7
	c1.7,0.7,2.5,2.7,1.8,4.4C194.9,333.5,194,334.2,192.9,334.4z M356.7,300.8c-1,0.2-2.1-0.1-2.9-0.8c-1.3-1.3-1.4-3.3-0.2-4.7
	l0.1-0.1c1.3-1.3,3.4-1.4,4.8-0.1c1.3,1.3,1.4,3.4,0.1,4.7l0,0C358,300.4,357.4,300.7,356.7,300.8z M184.4,330.5
	c-0.7,0.1-1.4,0-2.1-0.3h-0.1c-1.7-0.8-2.3-2.9-1.5-4.5c0.8-1.7,2.9-2.3,4.5-1.5c1.7,0.8,2.4,2.9,1.5,4.5
	C186.3,329.6,185.4,330.3,184.4,330.5z M363,293.9c-1,0.2-2-0.1-2.8-0.8c-1.4-1.2-1.6-3.3-0.3-4.7c1.2-1.4,3.3-1.6,4.7-0.4
	c1.4,1.2,1.6,3.3,0.4,4.7l-0.1,0.1C364.4,293.4,363.7,293.8,363,293.9z M176.2,326c-0.8,0.1-1.6,0-2.3-0.4h-0.1
	c-1.6-0.9-2.2-3-1.2-4.6c0.9-1.6,3-2.2,4.6-1.2h0.1c1.6,0.9,2.1,3,1.2,4.6C178,325.3,177.2,325.8,176.2,326z M368.8,286.6
	c-0.9,0.2-1.8,0-2.6-0.6c-1.5-1.1-1.8-3.2-0.7-4.7l0.1-0.1c1.1-1.5,3.2-1.8,4.7-0.7c1.5,1.1,1.8,3.2,0.7,4.7l-2.7-2l2.7,2.1
	C370.3,286,369.6,286.4,368.8,286.6z M168.3,321c-0.8,0.2-1.7,0-2.5-0.5l1.9-2.8l-1.9,2.7c-1.5-1-2-3.1-0.9-4.7c1-1.5,3.1-2,4.7-0.9
	l0.1,0.1c1.5,1,2,3.1,0.9,4.7C170,320.4,169.2,320.9,168.3,321z M374.1,278.9c-0.8,0.2-1.7,0-2.4-0.5c-1.5-1-2-3-1.1-4.6l0.1-0.2
	c1-1.5,3.1-2,4.7-0.9c1.5,1,2,3.1,0.9,4.7l-2.8-1.9l2.8,1.9C375.8,278.2,375,278.7,374.1,278.9z M160.7,315.6
	c-0.9,0.2-1.9,0-2.7-0.7l2.1-2.7l-2.1,2.6c-1.5-1.1-1.8-3.2-0.7-4.7s3.2-1.8,4.7-0.7l0.1,0.1c1.5,1.1,1.7,3.3,0.6,4.7
	C162.2,315,161.5,315.4,160.7,315.6z M379,270.9c-0.7,0.1-1.5,0-2.3-0.4c-1.6-0.9-2.2-2.9-1.3-4.6l0.1-0.1c0.9-1.6,3-2.2,4.6-1.3
	c1.6,0.9,2.2,3,1.3,4.6v0.1C380.8,270.2,379.9,270.7,379,270.9z M153.4,309.6c-1,0.2-2-0.1-2.8-0.8l-0.1-0.1
	c-1.4-1.2-1.5-3.4-0.3-4.7c1.2-1.4,3.3-1.5,4.7-0.3s1.6,3.4,0.3,4.8C154.8,309.1,154.1,309.5,153.4,309.6z M383.3,262.6
	c-0.7,0.1-1.4,0-2.1-0.3c-1.7-0.8-2.3-2.9-1.5-4.5c0.8-1.7,2.8-2.4,4.5-1.6s2.4,2.8,1.6,4.5l-0.1,0.2
	C385.2,261.8,384.3,262.4,383.3,262.6z M146.6,303.3c-1,0.2-2.1-0.1-2.9-0.9l-0.1-0.1c-1.3-1.3-1.3-3.4,0-4.8c1.3-1.3,3.4-1.3,4.8,0
	c1.3,1.3,1.3,3.5,0,4.8C147.8,302.8,147.2,303.2,146.6,303.3z M387.1,254.1c-0.6,0.1-1.3,0.1-1.9-0.2c-1.7-0.7-2.5-2.7-1.8-4.4
	s2.7-2.6,4.4-1.9c1.7,0.7,2.6,2.6,1.9,4.3c0,0,0,0.1-0.1,0.1C389.1,253.1,388.2,253.9,387.1,254.1z M140.1,296.5
	c-1.1,0.2-2.3-0.1-3.1-1l-0.1-0.1c-1.2-1.4-1.1-3.5,0.3-4.7c1.4-1.2,3.5-1.1,4.7,0.3s1.1,3.5-0.3,4.8
	C141.3,296.1,140.7,296.4,140.1,296.5z M390.4,245.3c-0.5,0.1-1.1,0.1-1.7-0.1c-1.8-0.6-2.7-2.4-2.2-4.2v-0.1
	c0.6-1.8,2.5-2.7,4.3-2.1s2.7,2.5,2.1,4.3l-3.2-1.1l3.2,1.1C392.5,244.2,391.5,245.1,390.4,245.3z M134.2,289.3
	c-1.2,0.2-2.5-0.2-3.3-1.2l2.6-2.1l-2.7,2c-1.2-1.5-0.9-3.6,0.6-4.7s3.6-0.9,4.7,0.6l0.1,0.1c1.1,1.5,0.9,3.6-0.6,4.7
	C135.2,289,134.7,289.2,134.2,289.3z M393,236.3c-0.5,0.1-1,0.1-1.4,0c-1.8-0.5-2.9-2.3-2.4-4.1V232c0.5-1.8,2.3-2.8,4.1-2.4
	c1.8,0.5,2.8,2.3,2.4,4.1l-3.2-0.9l3.2,0.9C395.3,235.1,394.3,236.1,393,236.3z M128.7,281.8c-1.3,0.2-2.6-0.3-3.4-1.4l2.8-1.9
	l-2.8,1.8c-1.1-1.5-0.7-3.6,0.8-4.7s3.6-0.7,4.7,0.8l0.1,0.1c1,1.5,0.6,3.6-0.9,4.7C129.6,281.5,129.1,281.7,128.7,281.8z
	 M395.2,227.2c-0.4,0.1-0.8,0.1-1.2,0c-1.8-0.3-3-2.1-2.7-3.9v-0.2c0.4-1.8,2.1-3,4-2.6c1.8,0.4,3,2.1,2.6,4l-3.3-0.7l3.3,0.7
	C397.6,225.9,396.5,226.9,395.2,227.2z M123.7,273.9c-1.4,0.3-2.8-0.3-3.5-1.6l2.9-1.7l-2.9,1.7c-1-1.6-0.5-3.7,1.1-4.6
	c1.6-1,3.7-0.5,4.6,1.1l0.1,0.1c0.9,1.6,0.4,3.7-1.2,4.6C124.4,273.7,124,273.9,123.7,273.9z M396.7,217.9c-0.3,0.1-0.7,0.1-1,0
	c-1.8-0.2-3.1-1.9-2.9-3.7V214c0.3-1.8,2-3.1,3.8-2.9c1.8,0.3,3.1,2,2.9,3.8l-3.3-0.5l3.3,0.5C399.2,216.5,398.1,217.7,396.7,217.9z
	 M119.1,265.7c-1.4,0.3-2.9-0.4-3.6-1.8l3-1.5l-3,1.5c-0.9-1.6-0.2-3.7,1.4-4.5c1.6-0.9,3.7-0.2,4.5,1.4l0.1,0.1
	c0.8,1.7,0.2,3.7-1.5,4.5C119.7,265.6,119.4,265.7,119.1,265.7z M397.6,208.6c-0.3,0-0.5,0.1-0.8,0.1c-1.8-0.1-3.2-1.7-3.1-3.5V205
	c0.1-1.8,1.8-3.2,3.6-3.1c1.8,0.1,3.2,1.8,3.1,3.6l-3.3-0.3l3.3,0.3C400.2,207.1,399.1,208.3,397.6,208.6z M115.1,257.2
	c-1.5,0.3-3-0.5-3.7-1.9v-0.1c-0.7-1.7,0.1-3.7,1.8-4.4c1.7-0.7,3.7,0.1,4.4,1.8c0.7,1.7,0,3.7-1.7,4.5
	C115.6,257.1,115.4,257.2,115.1,257.2z M398,199.3c-0.2,0-0.5,0.1-0.7,0.1c-1.9,0-3.3-1.6-3.3-3.4c0-1.9,1.5-3.4,3.3-3.4
	c1.9,0,3.4,1.5,3.4,3.3v0.2C400.7,197.7,399.5,199,398,199.3z M111.7,248.5c-1.6,0.3-3.2-0.6-3.7-2.1v-0.1c-0.6-1.8,0.3-3.7,2.1-4.3
	c1.8-0.6,3.7,0.3,4.3,2.1c0.6,1.7-0.3,3.7-2,4.3C112,248.5,111.8,248.5,111.7,248.5z M397.7,189.9c-0.2,0-0.3,0-0.5,0.1
	c-1.9,0.1-3.4-1.4-3.5-3.2c-0.1-1.9,1.3-3.5,3.1-3.6c1.9-0.1,3.5,1.3,3.6,3.1v0.2C400.5,188.2,399.3,189.6,397.7,189.9z
	 M108.8,239.7c-1.7,0.3-3.4-0.7-3.9-2.4l3.2-0.9l-3.2,0.9c-0.5-1.8,0.5-3.6,2.3-4.2c1.8-0.5,3.6,0.5,4.2,2.3v0.1
	c0.5,1.8-0.5,3.6-2.3,4.1C109,239.6,108.9,239.7,108.8,239.7z M396.8,180.6c-0.1,0-0.1,0-0.2,0c-1.8,0.2-3.5-1.1-3.8-2.9
	c-0.2-1.8,1-3.6,2.9-3.8c1.8-0.2,3.5,1,3.8,2.9v0.1C399.8,178.7,398.6,180.3,396.8,180.6z M106.5,230.6c-1.8,0.3-3.5-0.8-3.9-2.6
	l3.3-0.7l-3.3,0.7c-0.4-1.8,0.7-3.6,2.5-4s3.6,0.7,4,2.5v0.1C109.6,228.4,108.4,230.2,106.5,230.6
	C106.6,230.6,106.5,230.6,106.5,230.6z M395.4,171.4c-1.8,0.3-3.6-0.9-3.9-2.7v-0.1v-0.1v-0.1c-0.3-1.8,0.8-3.6,2.7-4
	c1.8-0.3,3.6,0.8,3.9,2.6v0.1v0.1v0.1v0.1C398.4,169.3,397.2,171,395.4,171.4z M104.8,221.4C104.7,221.4,104.7,221.4,104.8,221.4
	c-1.9,0.3-3.7-0.9-3.9-2.8v-0.1c-0.3-1.8,0.9-3.6,2.8-3.8c1.8-0.3,3.6,1,3.8,2.8v0.1C107.8,219.4,106.6,221.1,104.8,221.4z
	 M393.3,161.9c-1.7,0.3-3.4-0.7-3.8-2.4v-0.2c-0.5-1.8,0.6-3.6,2.4-4.1c1.8-0.4,3.6,0.6,4.1,2.4l-3.3,0.8l3.3-0.8
	c0.5,1.8-0.6,3.6-2.4,4.1C393.5,161.9,393.4,161.9,393.3,161.9z M103.6,212.1c-0.1,0-0.2,0-0.3,0c-1.8,0.2-3.5-1.1-3.7-3V209
	c-0.2-1.8,1.2-3.5,3.1-3.6c1.8-0.2,3.5,1.2,3.6,3.1C106.5,210.2,105.3,211.8,103.6,212.1z M390.7,152.9c-1.6,0.3-3.2-0.6-3.8-2.2
	l-0.1-0.2c-0.6-1.8,0.4-3.7,2.2-4.2c1.8-0.5,3.7,0.4,4.2,2.2l-3.2,1l3.2-1c0.6,1.8-0.4,3.7-2.1,4.2
	C391,152.8,390.8,152.9,390.7,152.9z M103,202.8c-0.2,0-0.4,0.1-0.5,0.1c-1.9,0-3.4-1.4-3.4-3.3l3.4-0.1h-3.4
	c-0.1-1.9,1.4-3.4,3.2-3.5c1.9-0.1,3.4,1.4,3.5,3.2v0.1C105.8,201.1,104.6,202.5,103,202.8z M387.5,144.1c-1.5,0.3-3.1-0.5-3.7-2
	c0,0-0.1-0.1-0.1-0.2c-0.7-1.7,0.2-3.7,1.9-4.3c1.7-0.7,3.7,0.2,4.3,1.9l-3.1,1.2l3.1-1.2c0.7,1.7-0.2,3.7-1.9,4.4
	C387.9,144,387.7,144.1,387.5,144.1z M103,193.4c-0.2,0-0.5,0.1-0.7,0.1c-1.9-0.1-3.3-1.6-3.2-3.4V190c0.1-1.9,1.6-3.3,3.5-3.2
	s3.3,1.6,3.2,3.5C105.7,191.8,104.6,193.1,103,193.4z M383.8,135.5c-1.5,0.3-3-0.5-3.7-1.9c-0.8-1.7-0.1-3.7,1.6-4.5
	s3.7-0.1,4.5,1.6c0,0,0.1,0.1,0.1,0.2c0.8,1.7,0,3.7-1.7,4.4C384.3,135.4,384.1,135.5,383.8,135.5z M103.7,184.1
	c-0.3,0.1-0.6,0.1-1,0c-1.8-0.2-3.2-1.8-3-3.7l3.3,0.3l-3.3-0.4c0.2-1.8,1.8-3.2,3.7-3c1.8,0.2,3.2,1.8,3,3.7v0.1
	C106.2,182.7,105.1,183.8,103.7,184.1z M379.6,127.2c-1.4,0.3-2.9-0.4-3.6-1.7c-0.9-1.6-0.3-3.7,1.3-4.6c1.6-0.9,3.6-0.3,4.5,1.3
	c0,0,0.1,0.1,0.1,0.2c0.9,1.6,0.3,3.7-1.4,4.5C380.2,127,379.9,127.2,379.6,127.2z M104.9,174.8c-0.4,0.1-0.7,0.1-1.1,0
	c-1.8-0.3-3.1-2-2.8-3.8v-0.1c0.3-1.8,2-3.1,3.9-2.8c1.8,0.3,3.1,2,2.8,3.9C107.4,173.4,106.2,174.5,104.9,174.8z M374.8,119.2
	c-1.3,0.3-2.7-0.3-3.5-1.6c-1-1.6-0.6-3.6,1-4.6c1.5-1,3.6-0.6,4.7,1c0,0,0.1,0.1,0.1,0.2c1,1.6,0.5,3.7-1.1,4.6
	C375.5,119,375.2,119.1,374.8,119.2z M106.7,165.6c-0.4,0.1-0.9,0.1-1.3,0c-1.8-0.4-3-2.2-2.6-4v-0.2c0.4-1.8,2.3-2.9,4.1-2.5
	c1.8,0.4,2.9,2.3,2.5,4.1C109,164.4,108,165.4,106.7,165.6z M369.5,111.5c-1.3,0.2-2.6-0.3-3.4-1.4c-1.1-1.5-0.8-3.6,0.7-4.7
	s3.6-0.8,4.7,0.7c0,0,0.1,0.1,0.1,0.2c1.1,1.5,0.7,3.6-0.8,4.7C370.4,111.2,369.9,111.4,369.5,111.5z M109.1,156.6
	c-0.5,0.1-1,0.1-1.6-0.1c-1.8-0.5-2.8-2.4-2.3-4.2v-0.2c0.6-1.8,2.4-2.8,4.2-2.2s2.8,2.4,2.2,4.2
	C111.3,155.5,110.3,156.3,109.1,156.6z M363.7,104.1c-1.2,0.2-2.4-0.2-3.2-1.2c-1.2-1.4-1-3.5,0.4-4.7s3.5-1,4.7,0.4
	c0,0,0.1,0.1,0.1,0.2c1.2,1.4,0.9,3.6-0.5,4.7C364.8,103.8,364.3,104,363.7,104.1z M112,147.7c-0.6,0.1-1.2,0.1-1.7-0.1
	c-1.7-0.6-2.7-2.5-2-4.3v-0.1c0.6-1.7,2.6-2.6,4.3-2c1.7,0.6,2.6,2.6,2,4.3C114.2,146.6,113.2,147.4,112,147.7z M357.5,97.1
	c-1.1,0.2-2.2-0.1-3-0.9l-0.1-0.1c-1.3-1.4-1.2-3.5,0.2-4.7c1.4-1.3,3.5-1.2,4.7,0.2l-2.5,2.3l2.5-2.3c1.3,1.3,1.2,3.5-0.1,4.7
	C358.7,96.7,358.1,97,357.5,97.1z M115.5,139c-0.7,0.1-1.3,0.1-2-0.2c-1.7-0.8-2.4-2.7-1.7-4.4l3.1,1.4l-3.1-1.4
	c0.7-1.7,2.7-2.5,4.4-1.8c1.7,0.7,2.5,2.7,1.8,4.4l-0.1,0.1C117.5,138.1,116.6,138.8,115.5,139z M350.8,90.5c-1,0.2-2-0.1-2.8-0.8
	l-0.1-0.1c-1.3-1.3-1.4-3.4-0.1-4.7c1.3-1.3,3.4-1.4,4.7-0.1l-2.3,2.4l2.3-2.4c1.3,1.3,1.5,3.4,0.2,4.7
	C352.2,90.1,351.5,90.4,350.8,90.5z M119.6,130.5c-0.7,0.1-1.5,0-2.1-0.3c-1.6-0.9-2.3-2.8-1.5-4.5l0.1-0.1c0.9-1.6,2.9-2.3,4.5-1.4
	s2.3,2.9,1.4,4.5C121.5,129.7,120.6,130.3,119.6,130.5z M343.8,84.4c-0.9,0.2-1.9,0-2.7-0.7c-1.4-1.2-1.7-3.3-0.5-4.8
	c1.2-1.4,3.2-1.7,4.7-0.5l0.1,0.1c1.4,1.2,1.7,3.3,0.5,4.7C345.3,83.9,344.6,84.3,343.8,84.4z M124.2,122.4c-0.8,0.1-1.6,0-2.3-0.4
	c-1.6-1-2.1-3-1.2-4.6l0.1-0.1c1-1.6,3-2.1,4.6-1.1s2.1,3,1.1,4.6C126,121.6,125.1,122.2,124.2,122.4z M336.4,78.7
	c-0.9,0.2-1.8,0-2.6-0.6c-1.5-1.1-1.9-3.2-0.8-4.7s3.2-1.9,4.7-0.8l0.2,0.1c1.5,1.1,1.8,3.2,0.7,4.7
	C337.9,78.1,337.2,78.6,336.4,78.7z M129.3,114.6c-0.9,0.2-1.8,0-2.5-0.5c-1.5-1.1-1.9-3.2-0.8-4.7l0,0c1-1.5,3.1-1.9,4.7-0.9
	c1.5,1,1.9,3.1,0.9,4.7l-0.1,0.1C130.9,113.9,130.1,114.4,129.3,114.6z M328.6,73.5c-0.8,0.2-1.7,0-2.4-0.5c-1.6-1-2.1-3.1-1.1-4.6
	c1-1.6,3-2.1,4.6-1.1l0.1,0.1c1.6,1,2,3.1,1,4.6C330.3,72.8,329.5,73.4,328.6,73.5z M134.9,107c-0.9,0.2-1.9,0-2.7-0.7
	c-1.4-1.1-1.7-3.2-0.6-4.7l0.1-0.1c1.2-1.4,3.3-1.7,4.7-0.5s1.7,3.3,0.5,4.7C136.3,106.4,135.6,106.9,134.9,107z M320.5,68.8
	c-0.7,0.1-1.5,0-2.2-0.3l-0.1-0.1c-1.6-0.9-2.2-2.9-1.3-4.6c0.9-1.6,2.9-2.2,4.6-1.3l-1.6,2.9l1.7-2.9c1.6,0.9,2.3,2.9,1.4,4.5
	C322.4,68,321.5,68.6,320.5,68.8z M140.9,99.9c-1,0.2-2.1-0.1-2.9-0.8c-1.4-1.2-1.5-3.4-0.2-4.7l2.5,2.3l-2.5-2.3
	c1.2-1.4,3.3-1.5,4.7-0.3s1.5,3.4,0.3,4.7l-0.1,0.1C142.2,99.4,141.6,99.8,140.9,99.9z M312.2,64.6c-0.7,0.1-1.4,0.1-2-0.3
	c-1.7-0.8-2.4-2.8-1.7-4.5c0.8-1.7,2.7-2.4,4.4-1.6h0.1c1.7,0.8,2.4,2.8,1.6,4.5C314.1,63.8,313.2,64.4,312.2,64.6z M147.4,93.1
	c-1.1,0.2-2.2-0.1-3-0.9c-1.3-1.3-1.3-3.4,0-4.7l0.1-0.1c1.3-1.3,3.5-1.3,4.7,0.1c1.3,1.3,1.3,3.5-0.1,4.7
	C148.6,92.7,148,93,147.4,93.1z M303.5,61c-0.6,0.1-1.2,0.1-1.8-0.2c-1.7-0.7-2.6-2.6-2-4.4c0.7-1.7,2.6-2.6,4.3-1.9h0.1
	c1.7,0.7,2.6,2.6,1.9,4.3C305.6,60,304.6,60.8,303.5,61z M154.2,86.8c-1.1,0.2-2.4-0.2-3.2-1.1c-1.2-1.4-1-3.5,0.4-4.7l2.2,2.5
	l-2.1-2.6c1.4-1.2,3.5-1.1,4.7,0.3s1.1,3.5-0.3,4.7l-0.1,0.1C155.3,86.5,154.8,86.7,154.2,86.8z M294.7,57.9
	c-0.5,0.1-1.1,0.1-1.7-0.1c-1.8-0.6-2.8-2.5-2.2-4.2c0.6-1.8,2.4-2.7,4.2-2.2h0.1c1.8,0.6,2.7,2.5,2.1,4.2
	C296.9,56.8,295.9,57.7,294.7,57.9z M161.5,80.9c-1.2,0.2-2.5-0.2-3.3-1.3c-1.1-1.5-0.8-3.6,0.7-4.7l2,2.7l-2-2.7
	c1.5-1.1,3.6-0.9,4.7,0.6c1.1,1.5,0.9,3.6-0.6,4.7l-0.1,0.1C162.4,80.6,162,80.9,161.5,80.9z M285.7,55.3c-0.5,0.1-1,0.1-1.5,0
	c-1.8-0.5-2.9-2.3-2.5-4.1s2.2-2.9,4-2.5h0.1c1.8,0.5,2.9,2.3,2.4,4.1C288,54.2,286.9,55.1,285.7,55.3z M169.1,75.5
	c-1.3,0.2-2.7-0.3-3.4-1.5c-1-1.6-0.6-3.6,1-4.6l1.8,2.8l-1.8-2.8c1.5-1,3.6-0.6,4.7,0.9c1,1.5,0.6,3.6-0.9,4.6l-0.1,0.1
	C169.9,75.3,169.5,75.5,169.1,75.5z M276.5,53.4c-0.4,0.1-0.8,0.1-1.2,0c-1.8-0.3-3.1-2.1-2.8-3.9c0.3-1.8,2-3.1,3.9-2.7h0.1
	c1.8,0.3,3,2.1,2.7,3.9C278.9,52.1,277.8,53.1,276.5,53.4z M177,70.6c-1.4,0.3-2.8-0.4-3.5-1.6c-0.9-1.6-0.4-3.7,1.3-4.6l1.7,2.9
	l-1.6-3c1.6-0.9,3.7-0.4,4.6,1.2c0.9,1.6,0.4,3.7-1.2,4.6l-0.1,0.1C177.8,70.4,177.4,70.6,177,70.6z M267.2,52
	c-0.3,0.1-0.7,0.1-1.1,0c-1.8-0.2-3.2-1.9-3-3.7s1.8-3.2,3.7-3h0.2c1.8,0.2,3.1,1.9,2.9,3.8C269.8,50.6,268.6,51.8,267.2,52z
	 M185.3,66.2c-1.5,0.3-3-0.4-3.6-1.8c-0.8-1.7-0.1-3.7,1.6-4.5l1.5,3l-1.4-3c1.7-0.8,3.7-0.2,4.5,1.5s0.2,3.7-1.5,4.5l-0.1,0.1
	C185.9,66.1,185.6,66.2,185.3,66.2z M257.9,51.3c-0.3,0-0.5,0.1-0.8,0.1c-1.9-0.1-3.3-1.7-3.2-3.5c0.1-1.9,1.6-3.3,3.5-3.2h0.1
	c1.9,0.1,3.3,1.7,3.2,3.5C260.6,49.7,259.4,51,257.9,51.3z M193.8,62.4c-1.5,0.3-3.1-0.5-3.7-2c-0.7-1.7,0.1-3.7,1.8-4.4l1.3,3.1
	L192,56c1.7-0.7,3.7,0.1,4.4,1.8s-0.1,3.7-1.8,4.4h-0.1C194.3,62.3,194,62.3,193.8,62.4z M248.6,51.1c-0.2,0-0.4,0.1-0.6,0.1h-0.1
	c-1.9,0-3.4-1.5-3.4-3.3c0-1.9,1.5-3.4,3.3-3.4h0.1c1.9,0,3.4,1.4,3.4,3.3C251.3,49.4,250.2,50.8,248.6,51.1z M202.7,59.1
	c-1.6,0.3-3.3-0.6-3.8-2.2c-0.6-1.7,0.3-3.6,2-4.2h0.1c1.8-0.6,3.7,0.4,4.2,2.1c0.6,1.8-0.4,3.7-2.1,4.2
	C202.9,59,202.8,59,202.7,59.1z M239.2,51.5c-0.1,0-0.3,0-0.4,0.1c-1.8,0.2-3.5-1.2-3.6-3.1c-0.2-1.8,1.2-3.5,3-3.6h0.1
	c1.9-0.1,3.5,1.3,3.6,3.1C242.1,49.7,240.9,51.2,239.2,51.5z M211.5,56.3c-1.7,0.3-3.4-0.7-3.9-2.4c-0.5-1.8,0.6-3.6,2.4-4.1
	l0.9,3.2l-0.8-3.3c1.8-0.5,3.6,0.5,4.1,2.3s-0.5,3.6-2.3,4.1h-0.1C211.7,56.3,211.6,56.3,211.5,56.3z M229.9,52.5h-0.1
	c-1.8,0.3-3.6-1-3.8-2.8c-0.3-1.8,1-3.5,2.8-3.8h0.1c1.8-0.3,3.5,1,3.8,2.8C232.9,50.6,231.7,52.2,229.9,52.5z M220.6,54.2
	c-1.8,0.3-3.5-0.8-3.9-2.6s0.8-3.6,2.6-4l0.7,3.3l-0.6-3.3c1.8-0.4,3.6,0.8,4,2.6s-0.7,3.6-2.6,4C220.8,54.1,220.7,54.1,220.6,54.2
	C220.7,54.2,220.6,54.2,220.6,54.2z"/>
<g class="mandala-inner">
	<g id="XMLID_31_">
		<g>
			<g>
				<path class="st4" d="M313.4,75.6c0,0-8.8,5.2-17.3,14.8c1.8-12.6,0.3-22.7,0.3-22.7S286,79.6,281.2,96.3
					c-2.6,8.9-4,17.2-4.3,23.1c0.6-3.4,1.9-7.5,3.8-11.7c4.6-9.9,14.4-15.1,14.4-15.1s2.4,10.9-2.2,20.8c-2,4.3-4.3,8-6.6,10.7
					c4.4-4,9.9-10.6,15.2-18.5C311.1,91.1,313.4,75.6,313.4,75.6z"/>
				<path class="st1" d="M295.1,92.7c0,0-9.8,5.2-14.4,15.1c-1.9,4.2-3.2,8.3-3.8,11.7c-0.8,4.7-0.3,8.1,1.6,9.1
					c1.9,0.9,4.8-0.9,7.8-4.4c2.3-2.7,4.6-6.4,6.6-10.7C297.5,103.6,295.1,92.7,295.1,92.7z"/>
			</g>
			<g>
				<circle class="st4" cx="262.5" cy="112" r="12"/>
				<circle class="st1" cx="262.5" cy="112" r="7.4"/>
			</g>
			<g>
				<circle class="st4" cx="301.3" cy="130" r="12"/>
				<circle class="st1" cx="301.3" cy="130" r="7.4"/>
			</g>
		</g>
	</g>
	<g id="XMLID_30_">
		<g>
			<g>
				<path class="st4" d="M211.3,63.6c0,0-2.9,9.8-2.6,22.6c-7.2-10.5-15.2-16.8-15.2-16.8s0.4,15.8,8.2,31.4
					c4.2,8.3,8.7,15.3,12.5,19.9c-1.9-2.9-3.7-6.8-5.1-11.2c-3.3-10.4,0.4-20.9,0.4-20.9s9.1,6.4,12.5,16.7
					c1.4,4.5,2.2,8.8,2.4,12.3c0.5-5.9,0.1-14.5-1.4-23.9C220.2,76.6,211.3,63.6,211.3,63.6z"/>
				<path class="st1" d="M209.5,88.6c0,0-3.7,10.5-0.4,20.9c1.4,4.4,3.2,8.3,5.1,11.2c2.6,4,5.3,6.2,7.3,5.5c2-0.6,2.9-3.9,2.7-8.6
					c-0.1-3.5-0.9-7.8-2.4-12.3C218.6,94.9,209.5,88.6,209.5,88.6z"/>
			</g>
			<g>
				<circle class="st4" cx="198.7" cy="124.9" r="12"/>
				<circle class="st1" cx="198.7" cy="124.9" r="7.4"/>
			</g>
			<g>
				<circle class="st4" cx="239.3" cy="111.7" r="12"/>
				<circle class="st1" cx="239.3" cy="111.7" r="7.4"/>
			</g>
		</g>
	</g>
	<g id="XMLID_29_">
		<g>
			<g>
				<path class="st4" d="M130.8,132.3c0,0,4.8,9,14.1,17.9c-12.5-2.4-22.7-1.2-22.7-1.2s11.4,10.9,28,16.4c8.8,2.9,17,4.7,22.9,5.3
					c-3.4-0.7-7.4-2.2-11.5-4.3c-9.7-5-14.5-15-14.5-15s10.9-1.9,20.6,3.1c4.2,2.2,7.8,4.7,10.4,7.1c-3.8-4.6-10.2-10.3-17.8-15.9
					C146.2,135.3,130.8,132.3,130.8,132.3z"/>
				<path class="st1" d="M147.1,151.3c0,0,4.8,10,14.5,15c4.1,2.1,8.1,3.6,11.5,4.3c4.6,1,8.1,0.7,9.1-1.2s-0.7-4.9-4.1-8
					c-2.6-2.4-6.2-4.9-10.4-7.1C158,149.4,147.1,151.3,147.1,151.3z"/>
			</g>
			<g>
				<circle class="st4" cx="165" cy="184.7" r="12"/>
				<circle class="st1" cx="165" cy="184.7" r="7.4"/>
			</g>
			<g>
				<circle class="st4" cx="184.6" cy="146.7" r="12"/>
				<circle class="st1" cx="184.6" cy="146.7" r="7.4"/>
			</g>
		</g>
	</g>
	<g id="XMLID_28_">
		<g>
			<g>
				<path class="st4" d="M119.6,234.5c0,0,9.8,2.9,22.6,2.7c-10.6,7.2-16.9,15.2-16.9,15.2s15.8-0.3,31.4-8.1
					c8.3-4.1,15.4-8.6,19.9-12.4c-2.9,1.9-6.8,3.7-11.2,5.1c-10.4,3.3-20.9-0.4-20.9-0.4s6.4-9.1,16.8-12.4
					c4.5-1.4,8.8-2.2,12.3-2.3c-5.9-0.5-14.5-0.1-23.9,1.3C132.5,225.7,119.6,234.5,119.6,234.5z"/>
				<path class="st1" d="M144.5,236.5c0,0,10.5,3.7,20.9,0.4c4.4-1.4,8.3-3.2,11.2-5.1c4-2.6,6.2-5.3,5.6-7.3
					c-0.6-2-3.9-2.9-8.5-2.8c-3.5,0.1-7.8,0.9-12.3,2.3C150.9,227.4,144.5,236.5,144.5,236.5z"/>
			</g>
			<g>
				<circle class="st4" cx="180.8" cy="247.4" r="12"/>
				<circle class="st1" cx="180.8" cy="247.4" r="7.4"/>
			</g>
			<g>
				<circle class="st4" cx="167.8" cy="206.7" r="12"/>
				<circle class="st1" cx="167.8" cy="206.7" r="7.4"/>
			</g>
		</g>
	</g>
	<g id="XMLID_27_">
		<g>
			<g>
				<path class="st4" d="M184.7,315.3c0,0,9-4.8,17.9-14.1c-2.4,12.5-1.3,22.7-1.3,22.7s10.9-11.4,16.5-27.9c3-8.8,4.8-17,5.4-22.9
					c-0.7,3.4-2.2,7.4-4.4,11.5c-5,9.7-15.1,14.4-15.1,14.4s-1.9-11,3.1-20.6c2.2-4.2,4.7-7.8,7.1-10.4c-4.6,3.8-10.3,10.1-16,17.8
					C187.7,299.9,184.7,315.3,184.7,315.3z"/>
				<path class="st1" d="M203.8,299.1c0,0,10.1-4.7,15.1-14.4c2.1-4.1,3.6-8.1,4.4-11.5c1-4.6,0.7-8.1-1.2-9.1s-4.9,0.7-8,4.1
					c-2.4,2.6-4.9,6.2-7.1,10.4C201.9,288.1,203.8,299.1,203.8,299.1z"/>
			</g>
			<g>
				<circle class="st4" cx="237.2" cy="281.2" r="12"/>
				<circle class="st1" cx="237.2" cy="281.2" r="7.4"/>
			</g>
			<g>
				<circle class="st4" cx="199.3" cy="261.6" r="12"/>
				<circle class="st1" cx="199.3" cy="261.6" r="7.4"/>
			</g>
		</g>
	</g>
	<g id="XMLID_26_">
		<g>
			<g>
				<path class="st4" d="M288.5,326.9c0,0,3-9.8,2.8-22.6c7.1,10.6,15.1,17,15.1,17s-0.3-15.8-8-31.4c-4.1-8.3-8.6-15.4-12.4-20
					c1.9,2.9,3.7,6.8,5,11.2c3.3,10.4-0.5,20.9-0.5,20.9s-9.1-6.4-12.3-16.8c-1.4-4.5-2.2-8.8-2.3-12.3c-0.5,5.9-0.2,14.5,1.2,23.9
					C279.8,313.9,288.5,326.9,288.5,326.9z"/>
				<path class="st1" d="M290.6,302c0,0,3.8-10.5,0.5-20.9c-1.4-4.4-3.2-8.3-5-11.2c-2.5-4-5.3-6.2-7.3-5.6s-3,3.9-2.8,8.5
					c0.1,3.5,0.9,7.8,2.3,12.3C281.5,295.5,290.6,302,290.6,302z"/>
			</g>
			<g>
				<circle class="st4" cx="301.6" cy="265.7" r="12"/>
				<circle class="st1" cx="301.6" cy="265.7" r="7.4"/>
			</g>
			<g>
				<circle class="st4" cx="260.9" cy="278.6" r="12"/>
				<circle class="st1" cx="260.9" cy="278.6" r="7.4"/>
			</g>
		</g>
	</g>
	<g id="XMLID_25_">
		<g>
			<g>
				<path class="st4" d="M369.9,261.7c0,0-4.8-9-14-18c12.5,2.4,22.7,1.3,22.7,1.3s-11.3-11-27.9-16.6c-8.8-3-16.9-4.9-22.9-5.4
					c3.4,0.8,7.4,2.3,11.5,4.4c9.7,5.1,14.4,15.1,14.4,15.1s-11,1.9-20.6-3.2c-4.2-2.2-7.8-4.7-10.3-7.1c3.8,4.6,10.1,10.4,17.7,16
					C354.5,258.6,369.9,261.7,369.9,261.7z"/>
				<path class="st1" d="M353.7,242.6c0,0-4.7-10.1-14.4-15.1c-4.1-2.1-8.1-3.6-11.5-4.4c-4.6-1-8.1-0.7-9.1,1.2s0.7,4.9,4,8
					c2.6,2.4,6.2,4.9,10.3,7.1C342.7,244.4,353.7,242.6,353.7,242.6z"/>
			</g>
			<g>
				<circle class="st4" cx="335.9" cy="209.1" r="12"/>
				<circle class="st1" cx="335.9" cy="209.1" r="7.4"/>
			</g>
			<g>
				<circle class="st4" cx="316.2" cy="246.9" r="12"/>
				<circle class="st1" cx="316.2" cy="246.9" r="7.4"/>
			</g>
		</g>
	</g>
	<g id="XMLID_22_">
		<g>
			<g>
				<path class="st4" d="M380.2,157.9c0,0-9.8-3-22.6-2.8c10.6-7.1,17-15.1,17-15.1s-15.8,0.2-31.4,7.9c-8.3,4.1-15.4,8.5-20,12.3
					c2.9-1.9,6.8-3.6,11.3-5c10.4-3.2,20.9,0.6,20.9,0.6s-6.5,9.1-16.9,12.3c-4.5,1.4-8.8,2.1-12.3,2.3c5.9,0.6,14.5,0.2,23.9-1.2
					C367.2,166.6,380.2,157.9,380.2,157.9z"/>
				<path class="st1" d="M355.2,155.8c0,0-10.4-3.8-20.9-0.6c-4.4,1.4-8.3,3.1-11.3,5c-4,2.5-6.3,5.2-5.6,7.3c0.6,2,3.9,3,8.5,2.8
					c3.5-0.1,7.8-0.9,12.3-2.3C348.8,164.8,355.2,155.8,355.2,155.8z"/>
			</g>
			<g>
				<circle class="st4" cx="319" cy="144.6" r="12"/>
				<circle class="st1" cx="319" cy="144.6" r="7.4"/>
			</g>
			<g>
				<circle class="st4" cx="331.8" cy="185.3" r="12"/>
				<circle class="st1" cx="331.8" cy="185.3" r="7.4"/>
			</g>
		</g>
	</g>
</g>
<g class="mandala-outer">
	<g id="XMLID_2_">
		<g>
			<g>
				<path class="st4" d="M335.3,18.7c0,0-5.8,3.9-11.3,10.7c0.8-8.7-0.6-15.5-0.6-15.5s-6.7,8.5-9.4,20.1
					c-1.4,6.2-2.2,11.9-2.2,15.9c0.3-2.4,1-5.2,2.2-8.1c2.8-6.9,9.3-10.8,9.3-10.8s2,7.3-0.8,14.3c-1.2,3-2.7,5.6-4.2,7.5
					c2.9-2.9,6.4-7.6,9.7-13.2C334.2,29.4,335.3,18.7,335.3,18.7z"/>
				<path class="st1" d="M323.3,31c0,0-6.5,3.9-9.3,10.8c-1.2,2.9-1.9,5.8-2.2,8.1c-0.4,3.2,0.1,5.6,1.4,6.1s3.3-0.8,5.2-3.3
					c1.5-1.9,2.9-4.5,4.2-7.5C325.3,38.3,323.3,31,323.3,31z"/>
			</g>
			<g>
				
					<ellipse transform="matrix(0.1602 -0.9871 0.9871 0.1602 208.7327 335.8577)" class="st4" cx="301.7" cy="45.3" rx="8.2" ry="8.2"/>
				<circle class="st1" cx="301.7" cy="45.3" r="5.1"/>
			</g>
			<g>
				<circle class="st4" cx="328.8" cy="56.3" r="8.2"/>
				<circle class="st1" cx="328.8" cy="56.3" r="5.1"/>
			</g>
		</g>
	</g>
	<g>
		<g>
			<path class="st4" d="M176.6,10c0,0-1.5,6.8-0.6,15.6c-5.5-6.8-11.3-10.7-11.3-10.7s1.1,10.8,7.3,21c3.3,5.4,6.7,10,9.6,12.9
				c-1.4-1.9-2.9-4.4-4.1-7.4c-2.8-6.9-0.8-14.3-0.8-14.3s6.6,3.9,9.4,10.8c1.2,3,2,5.9,2.3,8.3c0-4.1-0.7-9.9-2.2-16.2
				C183.3,18.3,176.6,10,176.6,10z"/>
			<path class="st1" d="M176.6,27.1c0,0-2,7.3,0.8,14.3c1.2,2.9,2.6,5.5,4.1,7.4c2,2.6,3.9,4,5.3,3.4c1.3-0.5,1.8-2.8,1.4-6
				c-0.3-2.4-1-5.3-2.3-8.3C183.2,31,176.6,27.1,176.6,27.1z"/>
		</g>
		<g>
			<circle class="st4" cx="171.1" cy="52.4" r="8.2"/>
			<circle class="st1" cx="171.1" cy="52.4" r="5.1"/>
		</g>
		<g>
			<circle class="st4" cx="198.2" cy="41.4" r="8.2"/>
			<circle class="st1" cx="198.2" cy="41.4" r="5.1"/>
		</g>
	</g>
	<g>
		<g>
			<path class="st4" d="M71.7,106.6c0,0,3.8,5.9,10.6,11.5c-8.7-1-15.6,0.4-15.6,0.4s8.4,6.9,19.9,9.7c6.2,1.5,11.8,2.4,15.9,2.4
				c-2.4-0.3-5.2-1.1-8.1-2.3c-6.9-2.9-10.7-9.5-10.7-9.5s7.4-1.9,14.3,1c3,1.3,5.6,2.8,7.5,4.3c-2.9-2.9-7.5-6.5-13-9.9
				C82.4,107.8,71.7,106.6,71.7,106.6z"/>
			<path class="st1" d="M83.9,118.7c0,0,3.8,6.6,10.7,9.5c2.9,1.2,5.7,2,8.1,2.3c3.2,0.4,5.6,0,6.2-1.3s-0.7-3.3-3.2-5.2
				c-1.9-1.5-4.5-3-7.5-4.3C91.2,116.8,83.9,118.7,83.9,118.7z"/>
		</g>
		<g>
			<circle class="st4" cx="97.9" cy="140.5" r="8.2"/>
			<circle class="st1" cx="97.9" cy="140.5" r="5.1"/>
		</g>
		<g>
			<circle class="st4" cx="109.2" cy="113.6" r="8.2"/>
			<circle class="st1" cx="109.2" cy="113.6" r="5.1"/>
		</g>
	</g>
	<g>
		<g>
			<path class="st4" d="M66,265.6c0,0,6.8,1.5,15.6,0.6c-6.8,5.4-10.7,11.2-10.7,11.2s10.8-1.1,21-7.2c5.4-3.3,10-6.7,13-9.5
				c-1.9,1.4-4.5,2.9-7.4,4.1c-6.9,2.8-14.3,0.8-14.3,0.8s3.9-6.5,10.8-9.3c3-1.2,5.9-2,8.3-2.2c-4.1,0-9.9,0.7-16.2,2.2
				C74.3,258.9,66,265.6,66,265.6z"/>
			<path class="st1" d="M83.1,265.6c0,0,7.3,2,14.3-0.8c2.9-1.2,5.5-2.6,7.4-4.1c2.6-2,4-3.9,3.4-5.3c-0.5-1.3-2.8-1.8-6-1.4
				c-2.4,0.3-5.3,1-8.3,2.2C87,259.1,83.1,265.6,83.1,265.6z"/>
		</g>
		<g>
			
				<ellipse transform="matrix(3.327948e-02 -0.9994 0.9994 3.327948e-02 -166.1918 370.5053)" class="st4" cx="108.4" cy="271.2" rx="8.2" ry="8.2"/>
			<circle class="st1" cx="108.4" cy="271.2" r="5.1"/>
		</g>
		<g>
			<ellipse class="st4" cx="97.4" cy="244.1" rx="8.2" ry="8.2"/>
			<circle class="st1" cx="97.4" cy="244.1" r="5.1"/>
		</g>
	</g>
	<g>
		<g>
			<path class="st4" d="M162.2,370.9c0,0,5.9-3.8,11.5-10.5c-1,8.7,0.3,15.6,0.3,15.6s6.9-8.3,9.8-19.9c1.6-6.2,2.4-11.8,2.5-15.9
				c-0.3,2.4-1.1,5.2-2.4,8.1c-2.9,6.9-9.5,10.6-9.5,10.6s-1.9-7.4,1.1-14.2c1.3-3,2.8-5.6,4.3-7.4c-2.9,2.8-6.5,7.5-10,13
				C163.4,360.2,162.2,370.9,162.2,370.9z"/>
			<path class="st1" d="M174.4,358.8c0,0,6.6-3.8,9.5-10.6c1.2-2.9,2-5.7,2.4-8.1c0.5-3.2,0-5.6-1.3-6.2s-3.3,0.7-5.3,3.2
				c-1.5,1.9-3,4.5-4.3,7.4C172.5,351.4,174.4,358.8,174.4,358.8z"/>
		</g>
		<g>
			<circle class="st4" cx="196.2" cy="344.9" r="8.2"/>
			<circle class="st1" cx="196.2" cy="344.9" r="5.1"/>
		</g>
		<g>
			<circle class="st4" cx="169.3" cy="333.4" r="8.2"/>
			<circle class="st1" cx="169.3" cy="333.4" r="5.1"/>
		</g>
	</g>
	<g>
		<g>
			<path class="st4" d="M321.1,377.1c0,0,1.5-6.8,0.7-15.6c5.4,6.8,11.2,10.8,11.2,10.8s-1-10.8-7.1-21c-3.2-5.5-6.7-10.1-9.5-13
				c1.4,1.9,2.9,4.5,4,7.4c2.8,6.9,0.7,14.3,0.7,14.3s-6.5-3.9-9.3-10.8c-1.2-3-1.9-5.9-2.2-8.3c-0.1,4.1,0.6,9.9,2.1,16.2
				C314.4,368.7,321.1,377.1,321.1,377.1z"/>
			<path class="st1" d="M321.2,360c0,0,2-7.3-0.7-14.3c-1.2-2.9-2.6-5.5-4-7.4c-1.9-2.6-3.9-4-5.3-3.4c-1.3,0.5-1.8,2.8-1.5,6
				c0.3,2.4,1,5.3,2.2,8.3C314.6,356.1,321.2,360,321.2,360z"/>
		</g>
		<g>
			<circle class="st4" cx="326.8" cy="334.7" r="8.2"/>
			<circle class="st1" cx="326.8" cy="334.7" r="5.1"/>
		</g>
		<g>
			<circle class="st4" cx="299.7" cy="345.6" r="8.2"/>
			<circle class="st1" cx="299.7" cy="345.6" r="5.1"/>
		</g>
	</g>
	<g>
		<g>
			<path class="st4" d="M426.8,281.3c0,0-3.7-5.9-10.5-11.5c8.7,1,15.6-0.3,15.6-0.3s-8.3-6.9-19.9-9.9c-6.1-1.6-11.8-2.4-15.9-2.5
				c2.4,0.3,5.2,1.1,8.1,2.4c6.9,3,10.6,9.6,10.6,9.6s-7.4,1.8-14.2-1.1c-3-1.3-5.5-2.8-7.4-4.3c2.8,2.9,7.4,6.6,12.9,10
				C416.2,280,426.8,281.3,426.8,281.3z"/>
			<path class="st1" d="M414.8,269.1c0,0-3.7-6.6-10.6-9.6c-2.9-1.3-5.7-2.1-8.1-2.4c-3.2-0.5-5.6-0.1-6.2,1.3
				c-0.6,1.3,0.7,3.3,3.2,5.3c1.9,1.5,4.5,3,7.4,4.3C407.4,270.9,414.8,269.1,414.8,269.1z"/>
		</g>
		<g>
			<circle class="st4" cx="400.9" cy="247.2" r="8.2"/>
			<circle class="st1" cx="400.9" cy="247.2" r="5.1"/>
		</g>
		<g>
			<circle class="st4" cx="389.4" cy="274.1" r="8.2"/>
			<circle class="st1" cx="389.4" cy="274.1" r="5.1"/>
		</g>
	</g>
	<g>
		<g>
			<path class="st4" d="M433.6,122.4c0,0-6.8-1.5-15.6-0.8c6.9-5.4,10.8-11.2,10.8-11.2s-10.8,1-21.1,7c-5.5,3.2-10.1,6.6-13,9.4
				c1.9-1.4,4.5-2.8,7.4-4c6.9-2.8,14.3-0.7,14.3-0.7s-3.9,6.5-10.9,9.3c-3,1.2-5.9,1.9-8.3,2.2c4.1,0.1,9.9-0.6,16.2-2
				C425.1,129.1,433.6,122.4,433.6,122.4z"/>
			<path class="st1" d="M416.4,122.3c0,0-7.3-2.1-14.3,0.7c-2.9,1.2-5.5,2.6-7.4,4c-2.6,1.9-4,3.9-3.5,5.3c0.5,1.3,2.8,1.8,6,1.5
				c2.4-0.3,5.3-1,8.3-2.2C412.5,128.8,416.4,122.3,416.4,122.3z"/>
		</g>
		<g>
			<circle class="st4" cx="391.1" cy="116.6" r="8.2"/>
			<circle class="st1" cx="391.1" cy="116.6" r="5.1"/>
		</g>
		<g>
			<circle class="st4" cx="401.9" cy="143.7" r="8.2"/>
			<circle class="st1" cx="401.9" cy="143.7" r="5.1"/>
		</g>
	</g>
	<g id="XMLID_1_">
		<g>
			<g>
				<path class="st4" d="M335.3,18.7c0,0-5.8,3.9-11.3,10.7c0.8-8.7-0.6-15.5-0.6-15.5s-6.7,8.5-9.4,20.1
					c-1.4,6.2-2.2,11.9-2.2,15.9c0.3-2.4,1-5.2,2.2-8.1c2.8-6.9,9.3-10.8,9.3-10.8s2,7.3-0.8,14.3c-1.2,3-2.7,5.6-4.2,7.5
					c2.9-2.9,6.4-7.6,9.7-13.2C334.2,29.4,335.3,18.7,335.3,18.7z"/>
				<path class="st1" d="M323.3,31c0,0-6.5,3.9-9.3,10.8c-1.2,2.9-1.9,5.8-2.2,8.1c-0.4,3.2,0.1,5.6,1.4,6.1s3.3-0.8,5.2-3.3
					c1.5-1.9,2.9-4.5,4.2-7.5C325.3,38.3,323.3,31,323.3,31z"/>
			</g>
			<g>
				
					<ellipse transform="matrix(0.1602 -0.9871 0.9871 0.1602 208.7327 335.8577)" class="st4" cx="301.7" cy="45.3" rx="8.2" ry="8.2"/>
				<circle class="st1" cx="301.7" cy="45.3" r="5.1"/>
			</g>
			<g>
				<circle class="st4" cx="328.8" cy="56.3" r="8.2"/>
				<circle class="st1" cx="328.8" cy="56.3" r="5.1"/>
			</g>
		</g>
	</g>
</g>
<g class="mandala-outer">
	<g>
		<g>
			<ellipse class="st1" cx="101.8" cy="191" rx="5" ry="10"/>
		</g>
	</g>
	<g>
		<g>
			<ellipse class="st1" cx="397.8" cy="191" rx="5" ry="10"/>
		</g>
	</g>
	<g>
		<g>
			<ellipse class="st1" cx="249.8" cy="47" rx="10" ry="5"/>
		</g>
	</g>
	<g>
		<g>
			<ellipse class="st1" cx="249.8" cy="343" rx="10" ry="5"/>
		</g>
	</g>
	<g>
		<g>
			<ellipse transform="matrix(0.7071 -0.7071 0.7071 0.7071 -18.5062 130.281)" class="st1" cx="148" cy="87.5" rx="10" ry="5"/>
		</g>
	</g>
	<g>
		<g>
			
				<ellipse transform="matrix(0.7071 -0.7071 0.7071 0.7071 -105.2016 339.5757)" class="st1" cx="357.3" cy="296.8" rx="10" ry="5"/>
		</g>
	</g>
	<g>
		<g>
			<ellipse transform="matrix(0.7071 -0.7071 0.7071 0.7071 39.9517 277.1094)" class="st1" cx="354.5" cy="90.3" rx="5" ry="10"/>
		</g>
	</g>
	<g>
		<g>
			
				<ellipse transform="matrix(0.7071 -0.7071 0.7071 0.7071 -169.343 190.4139)" class="st1" cx="145.2" cy="299.6" rx="5" ry="10"/>
		</g>
	</g>
</g>
<path id="Fur_2_" class="st2" d="M338.5,185.1c-9.4,1.6-17.8-5.4-19.5-13.9c2.1-4.3-1.6-11.5-1.6-11.5s0,0,0.3-2.1
	c12-33.7-7.1-39.9-16-40.1s-26.9,23.3-32.7,26.4c-3.3-0.8-19.6-1.8-20-1.8l0,0l0,0l0,0l0,0c-0.4,0-16.7,1.1-20,1.8
	c-5.8-3.1-23.9-26.6-32.7-26.4s-28,6.4-16,40.1c0.3,2.1,0.3,2.1,0.3,2.1s-3.6,7.1-1.6,11.5c-1.7,8.5-10.2,15.5-19.5,13.9
	c-1.4,8.5,11.3,11.1,0.8,15.1c6.2,26.3,21.7,65.1,88.5,65.8l0,0c0.1,0,0.2,0,0.4,0c0.1,0,0.2,0,0.4,0l0,0
	c66.7-0.7,82.2-39.6,88.3-65.8C327.2,196.2,339.9,193.6,338.5,185.1z"/>
<path class="st4" d="M215.5,164.8c-4-2.8-9-4.8-13.6-3.4c-6.2,1.9-10.1,9.2-16.5,9.6c-0.4,0-0.9,0-1.3,0.3c-0.4,0.2-1.3,0.9-1.5,1.4
	c-3,7.6,0.4,16.4,5.8,22.5c5.4,6.1,13.1,9.7,21,12c4.2,1.2,6.2,1,8.1,4.9c0.5,1.1,3.6,3.9,4.2,4.9c1.1,1.7,2.8,3.7,4.6,4.6
	c1.1,0.5,6-0.3,6.5-1.4c0.9-1.8-0.9-3.8-2.1-5.4c-2.8-3.9-1.8-8.2-0.9-12.5c1-4.6,1.1-9.3,0.3-14
	C228.4,178.9,223.2,170.2,215.5,164.8z"/>
<path class="st4" d="M282,165.1c4-2.8,9-4.8,13.6-3.4c6.2,1.9,10.1,9.2,16.5,9.6c0.4,0,0.9,0,1.3,0.3c0.4,0.2,1.3,0.9,1.5,1.4
	c3,7.6-0.4,16.4-5.8,22.5s-13.1,9.7-21,12c-4.2,1.2-6.2,1-8.1,4.9c-0.5,1.1-3.6,3.9-4.2,4.9c-1.1,1.7-2.8,3.7-4.6,4.6
	c-1.1,0.5-6-0.3-6.5-1.4c-0.9-1.8,0.9-3.8,2.1-5.4c2.8-3.9,1.8-8.2,0.9-12.5c-1-4.6-1.1-9.3-0.3-14C269,179.2,274.2,170.5,282,165.1
	z"/>
<path class="st0" d="M228.6,144c-5.8-3.1-24-26.3-32.9-26.2c-9.7,0.1-28.1,7.4-15.4,42.1c0,0-8.2-29.3,3.1-35.6
	c9.2-5.1,23.4,15.5,24.6,18.5c1.2,3,4.9,9.1,11.5,8.5C226.1,150.8,228.6,144,228.6,144z"/>
<path class="st1" d="M229.3,203.4c0,0-15.9,5.5-28-1.4s-15.5-23.7-15.5-23.7s18.2-9.7,30.4-2.8S229.3,203.4,229.3,203.4z"/>
<g>
	<path class="st0" d="M228.2,214.2c-0.8-1.8-1.3-3.9-0.7-5.8c0.6-2.2,2.4-4.1,2-6.3c0.5,1.2,0.7,2.6,0.6,3.9
		c-0.1,1.4-0.6,2.9-0.4,4.3c0.3,2,1.8,3.6,3.2,5.1c1,1.1,4.6,6.2,1.3,5.2C231.6,219.9,229.2,216.5,228.2,214.2z"/>
	<path class="st0" d="M220.2,171.2c2.7,2.5,3.6,0.5,4.6-1.1c1.7,7,6.1,13.2,8.6,10.7c2.2,2.7,2.2,6.4,2.3,9.9
		c0.1,3.4,0.8,7.3,3.7,9.3c-1.8-3.1-0.9-7-0.6-10.5c0.5-6.5-1.9-12.9-5.9-18.1c-1.2-1.6-2.7,0.8-2.7,0.8c-1.5-2.4-3-4.9-4.4-7.4
		c-0.6-1-1.7-1.2-2.7-0.5c-0.9,0.7-1.9,1-2.9,0.4c-0.5-0.3-0.8-0.9-1-1.4c-0.7-2.2-0.7-4.4-0.6-6.6
		C213.1,163.7,219.6,170.6,220.2,171.2z"/>
	<path class="st0" d="M231.3,159.7c1.8-0.9,3.6-1.7,5.5-2.3c-2.6,3.1-3,7.8-0.9,11.2c0.6-0.9,1.2-1.9,1.8-2.8c0.3,2,0.7,4.1,1.8,5.9
		c1,1.8,2.9,3.2,4.9,3.3c-0.9-3.3-1.1-6.8-0.5-10.1c0.3-1.9,0.9-3.7,1.1-5.6c0-0.4,0-0.8-0.1-1.1c-0.3-0.7-1.2-1-2-0.9
		s-1.4,0.6-2.1,1.1c-0.5-1.1,0-2.5,0.5-3.6s1.1-2.3,1-3.5c-0.6-4.1-4.4-0.3-5.5,1C234.5,154.5,232.7,157,231.3,159.7z"/>
	<path class="st0" d="M232.9,204.7c1.2,2.6,3.9,4.3,4.9,7c0.6,1.8,0.2,3.8-0.1,5.7c-0.1,0.4-0.1,0.9,0.2,1.1
		c0.5,0.4,1.1-0.5,1.2-1.1c0.2-1.1,0.5-2.2,0.7-3.2c0.3-1.4,0.6-2.7,0.4-4.1c-0.5-4.7-6.2-7.9-6-12.7c0-0.8,0.2-1.5,0.1-2.3
		c-0.1-0.6-0.5-1.1-1.1-1.2C232.2,195.5,232,202.6,232.9,204.7z"/>
</g>
<path class="st0" d="M229.7,203c0,0.1,0.1,0.4,0,0.4c-1.2,0.4-2.3,0.9-3.4,1.2c-1.2,0.3-2.4,0.6-3.6,0.8c-2.4,0.4-4.9,0.7-7.4,0.7
	c-1.2,0-2.5-0.1-3.7-0.2c-1.2-0.1-2.5-0.3-3.7-0.6s-2.4-0.7-3.6-1.1c-1.2-0.5-2.3-1-3.5-1.6l-0.1-0.1l-0.1-0.1l-0.2-0.1l-0.4-0.2
	c-0.3-0.2-0.5-0.3-0.8-0.5l-0.8-0.6l-0.8-0.6c-1-0.8-1.9-1.6-2.8-2.6c-0.9-0.9-1.7-1.9-2.4-2.9s-1.4-2.1-2.1-3.1
	c-1.3-2.2-2.3-4.4-3.2-6.7c-0.4-1.2-2-7.5-2-7.5c0.3-1,6-3.4,7.2-3.9c2.5-0.9,5.8-1.5,8.6-2c1.4-0.2,2.7-0.4,4.1-0.5
	c1.4-0.1,2.8,0,4.2,0.1c1.4,0.2,2.8,0.5,4.2,0.9l1,0.4c0.3,0.1,0.6,0.2,0.9,0.4c0.3,0.1,0.6,0.3,0.9,0.4l0.7,0.4l0.1,0.1h0.1l0,0
	h0.1l0.2,0.1l0.8,0.5c0.3,0.2,0.6,0.4,0.9,0.7c0.3,0.2,0.6,0.5,0.8,0.7c0.3,0.2,0.5,0.5,0.8,0.7c1,1,1.9,2.1,2.7,3.2
	c0.8,1.2,1.5,2.4,2.1,3.6c0.6,1.2,1.1,2.5,1.6,3.8c0.9,2.6,1.5,5.2,2,7.9c0.2,1.3,0.4,2.7,0.6,4C229.7,200.5,229.8,201.7,229.7,203z
	 M228.8,202.7c0.4-0.2,0.3-0.2,0.3-0.6c0-1.1-0.1-1.8-0.3-2.8c-0.3-1.3-0.6-2.6-1-3.8c-0.7-2.5-1.6-5-2.7-7.4
	c-0.6-1.2-1.1-2.3-1.8-3.4c-0.7-1.1-1.4-2.2-2.2-3.1c-0.8-1-1.6-1.9-2.5-2.7c-0.2-0.2-0.5-0.4-0.7-0.6c-0.2-0.2-0.5-0.4-0.7-0.6
	l-0.7-0.5l0,0l-0.8-0.5l-0.2-0.1c0,0,0.1,0.1,0,0l0,0l0,0h-0.1l-0.1-0.1l-0.6-0.3c-0.2-0.1-0.5-0.2-0.7-0.3s-0.5-0.2-0.7-0.3
	l-0.9-0.3c-1.2-0.4-2.4-0.7-3.6-0.8c-1.2-0.2-2.5-0.3-3.8-0.3s-2.6,0.1-3.8,0.2c-2.6,0.3-5.1,0.8-7.6,1.5c-1.3,0.4-2.5,0.8-3.7,1.2
	c-1.2,0.5-2.5,1-3.6,1.6l0.4-0.8l0,0c0.3,1.1,0.6,2.3,1,3.4c0.4,1.1,0.8,2.2,1.3,3.3c0.9,2.2,2,4.3,3.2,6.3c0.6,1,1.3,2,2,2.9
	s1.5,1.8,2.3,2.7s1.7,1.6,2.6,2.4l0.7,0.5l0.7,0.5c0.4,0.3,1,0.7,1.5,0.9c1,0.6,2,1.1,3.1,1.5s2.2,0.8,3.3,1.1s2.3,0.5,3.5,0.7
	s2.4,0.3,3.5,0.3c2.4,0.1,4.8,0,7.2-0.2c1.2-0.1,2.4-0.3,3.6-0.5C227,203.5,227.9,203.1,228.8,202.7z"/>
<g>
	<path class="st0" d="M220.9,214.4c-1.2-0.9-2.3-1.8-3.5-2.7c-0.1-0.1-0.2-0.2-0.4-0.1c-0.1,0-0.2,0.2-0.2,0.3
		c-0.6,1.4-0.5,3,0.2,4.3s1.9,2.4,3.4,2.7c0.7,0.2,1.4,0.2,2.1,0.4c0.7,0.2,1.3,0.5,1.8,1C225.5,218.2,222.3,215.5,220.9,214.4z"/>
	<path class="st0" d="M209.6,216.2c-1.5-0.9-3.4-1.1-4.6-2.4c-0.2,2.4,1.5,4.7,3.7,5.5c0.5,0.2,1.1,0.3,1.6,0.5
		c0.8,0.2,1.6,0.5,2.4,0.6C212,218.7,211.3,217.2,209.6,216.2z"/>
	<path class="st0" d="M185.8,198.4c-0.3-0.8-1-1.9-1.7-1.4c-0.4,0.2-0.4,0.7-0.5,1.1c-0.1,1.2-0.1,2.4-0.1,3.6
		c-1.5-0.3-2.7-1.5-3.5-2.9s-1.2-2.9-1.7-4.3c-0.1-0.3-0.4-0.7-0.7-0.6c-0.2,0.1-0.3,0.2-0.3,0.4c-1.3,3.1-1.5,6.6-0.4,9.8
		s3.4,5.9,6.3,7.5c0-0.8,0-1.6,0-2.4c1.5,1.6,3.2,3,5.1,4c0.1-1,0.2-2,0.3-2.9c-0.1,1.5,7.2,3.3,8.3,3.3c-1.1-2.3-4.6-4.3-6.3-6.4
		C188.5,204.6,186.8,201.6,185.8,198.4z"/>
	<path class="st0" d="M174.3,212.1c-0.2-0.1-0.4-0.2-0.6-0.1c-0.6,0.3,0,1.3-0.4,1.8c-0.3,0.4-0.9,0.1-1.3-0.1c-1-0.6-2-1.2-3-1.8
		c-0.2,3.5,2.5,6.9,6,7.5c0.7,0.1,1.7-0.1,1.8-0.8c0-0.1,0-0.3,0.1-0.4c0.1-0.3,0.5-0.2,0.8-0.1c2.2,0.6,7.3,0.1,3.1-1.9
		C178.4,215,176.6,213.1,174.3,212.1z"/>
	<path class="st0" d="M178.7,188.5c0.1,0.5,0.1,1,0.5,1.3c0.3,0.3,0.9,0.4,1.2,0.1c0.2-0.3,0.2-0.9,0.6-0.9c0.3,0,0.5,0.2,0.6,0.4
		c1.1,1.5,2.3,3,3.8,4.2c0.3,0.3,0.6,0.5,1,0.6s0.8,0,1-0.4s0.1-0.8-0.1-1.2c-0.8-1.9-2.1-3.7-2.5-5.8c-0.2-0.8-0.3-1.6-0.8-2.3
		c-0.5-0.6-1.6-0.9-2.1-0.2c0.9-1.3-1.2-4.1-2.7-2.9C177.8,182.7,178.5,187,178.7,188.5z"/>
</g>
<g>
	<path class="st3" d="M212.9,150c-1.1,0.7-2.4,1.1-3.7,1.3s-2.6,0.2-4-0.2c-0.7-0.2-1.4-0.4-2.1-0.8c-0.4-0.2-0.7-0.4-1.1-0.7
		c-0.3-0.3-0.5-0.4-0.8-0.6c-1-0.8-1.8-1.7-2.6-2.5c-1.5-1.7-2.8-3.5-3.8-5.2c-0.5-0.8-1.1-1.7-1.7-2.5c-0.6-0.9-1.3-1.7-2.4-2.7
		c1.2-0.7,2.7-0.8,4.1-0.6c1.4,0.2,2.7,0.7,3.9,1.4s2.2,1.6,3,2.4c0.9,0.8,1.6,1.7,2.3,2.6c0.7,0.9,1.4,1.7,1.9,2.5
		c0.1,0.2,0.3,0.4,0.4,0.6c0,0.1,0.1,0.2,0.2,0.4c0.2,0.2,0.5,0.6,0.8,0.9c0.7,0.6,1.5,1.2,2.5,1.8L212.9,150z"/>
	<path class="st3" d="M188.5,143.5c0.7-1,1.9-1.4,3.2-1.5c1.2-0.1,2.4,0.3,3.5,0.8s2,1.3,2.8,2c0.7,0.7,1.3,1.5,1.8,2.2
		s0.9,1.3,1.2,1.9l1.1,1.8c0.8,1.2,1.7,2.6,3.2,4.4c-2,1.1-4.4,1-6.5,0.1c-1-0.4-2-1.1-2.8-1.8s-1.5-1.5-2-2.3
		c-1.1-1.5-1.7-2.8-2.2-3.9c-0.3-0.6-0.7-1.2-1.1-1.8c-0.2-0.3-0.5-0.6-0.8-0.9C189.4,144.1,189,143.8,188.5,143.5z"/>
	<path class="st3" d="M188.9,150.3c0.8-0.7,1.8-0.9,2.8-0.9s1.9,0.2,2.7,0.6c1.6,0.7,2.8,1.6,3.6,2.4c0.4,0.4,0.7,0.7,1.1,1.1
		c0.3,0.4,0.7,0.8,1,1.2c0.8,0.9,1.6,1.9,3,3.4c-1.4,1.5-3.3,1.9-5.1,1.8c-0.9-0.1-1.8-0.3-2.6-0.7s-1.6-0.9-2.2-1.5
		c-1.2-1.1-1.9-2.2-2.4-3.3c-0.3-0.6-0.5-1.1-0.7-1.8C189.8,151.8,189.5,151.1,188.9,150.3z"/>
	<path class="st3" d="M284.4,150l3.1-2c0.9-0.6,1.8-1.2,2.5-1.8c0.4-0.3,0.6-0.6,0.8-0.9c0.1-0.1,0.2-0.3,0.2-0.4
		c0.1-0.1,0.3-0.4,0.4-0.6c0.6-0.8,1.2-1.7,1.9-2.5c0.7-0.9,1.5-1.7,2.3-2.6c0.8-0.8,1.8-1.7,3-2.4c1.1-0.7,2.5-1.2,3.9-1.4
		s2.9-0.1,4.1,0.6c-1,1-1.7,1.8-2.4,2.7c-0.6,0.8-1.1,1.7-1.7,2.5c-1,1.6-2.3,3.4-3.8,5.2c-0.8,0.9-1.6,1.7-2.6,2.5
		c-0.3,0.2-0.5,0.4-0.8,0.6c-0.4,0.3-0.7,0.5-1.1,0.7c-0.7,0.4-1.4,0.6-2.1,0.8c-1.4,0.3-2.7,0.3-4,0.2
		C286.9,151.1,285.6,150.7,284.4,150z"/>
	<path class="st3" d="M308.8,143.5c-0.5,0.3-0.9,0.6-1.3,0.9c-0.3,0.3-0.6,0.6-0.8,0.9c-0.5,0.6-0.8,1.2-1.1,1.8
		c-0.6,1.1-1.2,2.4-2.2,3.9c-0.5,0.7-1.2,1.5-2,2.3s-1.8,1.4-2.8,1.8c-2.1,0.8-4.4,1-6.5-0.1c1.4-1.8,2.4-3.1,3.2-4.4l1.1-1.8
		c0.4-0.6,0.8-1.2,1.2-1.9c0.5-0.7,1.1-1.4,1.8-2.2c0.7-0.7,1.7-1.5,2.8-2c1.1-0.5,2.3-0.8,3.5-0.8
		C306.9,142.1,308.2,142.6,308.8,143.5z"/>
	<path class="st3" d="M308.4,150.3c-0.6,0.9-0.9,1.6-1.1,2.2c-0.3,0.6-0.5,1.2-0.7,1.8c-0.5,1.1-1.2,2.2-2.4,3.3
		c-0.6,0.5-1.3,1.1-2.2,1.5c-0.8,0.4-1.7,0.7-2.6,0.7c-1.8,0.2-3.7-0.3-5.1-1.8c1.3-1.5,2.2-2.5,3-3.4c0.4-0.4,0.7-0.8,1-1.2
		s0.6-0.7,1.1-1.1c0.8-0.7,2-1.7,3.6-2.4c0.8-0.3,1.7-0.6,2.7-0.6C306.6,149.4,307.6,149.6,308.4,150.3z"/>
</g>
<path class="st0" d="M268.8,144c5.8-3.1,24-26.3,32.9-26.2c9.7,0.1,28.1,7.4,15.4,42.1c0,0,8.2-29.3-3.1-35.6
	c-9.2-5.1-23.4,15.5-24.6,18.5s-4.9,9.1-11.5,8.5C271.3,150.8,268.8,144,268.8,144z"/>
<path class="st0" d="M288.1,149.5c3.6,0.7,7.7,0.8,10.5-1.6c1.5,3.3,0.2,7.6-2.9,9.6c4.4,1.4,9.2,1,13.3-1c0.9,3.1,1.1,7.7-1.8,9.2
	c4.9-1.1,13.8,2.6,20.4,0.2c-0.7,7.6-12.8,12.4-15.9,12c0.5-1.2-3.9-7.4-12.2-9.4c-1.7-0.4,0.1-5.9-4.6-7.5
	c-1.6-0.6-3.8-0.5-4.2-2.2c-0.2-1,0.3-2.2-0.2-3c-0.3-0.5-0.8-0.7-1.3-0.9c-2.6-1-9.4-2.7-12-3.5c-2.5-0.8-1.4-0.9-2.5-3.4
	C279.3,148.2,283.7,148.6,288.1,149.5z"/>
<path class="st1" d="M268,203.4c0,0,15.9,5.5,28-1.4s15.5-23.7,15.5-23.7s-18.2-9.7-30.4-2.8C268.9,182.4,268,203.4,268,203.4z"/>
<g>
	<path class="st0" d="M269.2,214.2c0.8-1.8,1.3-3.9,0.7-5.8c-0.6-2.2-2.4-4.1-2-6.3c-0.5,1.2-0.7,2.6-0.6,3.9
		c0.1,1.4,0.6,2.9,0.4,4.3c-0.3,2-1.8,3.6-3.2,5.1c-1,1.1-4.6,6.2-1.3,5.2C265.8,219.9,268.2,216.5,269.2,214.2z"/>
	<path class="st0" d="M277.1,171.2c-2.7,2.5-3.6,0.5-4.6-1.1c-1.7,7-6.1,13.2-8.6,10.7c-2.2,2.7-2.2,6.4-2.3,9.9
		c-0.1,3.4-0.8,7.3-3.7,9.3c1.8-3.1,0.9-7,0.6-10.5c-0.5-6.5,1.9-12.9,5.9-18.1c1.2-1.6,2.7,0.8,2.7,0.8c1.5-2.4,3-4.9,4.4-7.4
		c0.6-1,1.7-1.2,2.7-0.5c0.9,0.7,1.9,1,2.9,0.4c0.5-0.3,0.8-0.9,1-1.4c0.7-2.2,0.7-4.4,0.6-6.6C284.2,163.7,277.8,170.6,277.1,171.2
		z"/>
	<path class="st0" d="M266.1,159.7c-1.8-0.9-3.6-1.7-5.5-2.3c2.6,3.1,3,7.8,0.9,11.2c-0.6-0.9-1.2-1.9-1.8-2.8
		c-0.3,2-0.7,4.1-1.8,5.9c-1,1.8-2.9,3.2-4.9,3.3c0.9-3.3,1.1-6.8,0.5-10.1c-0.3-1.9-0.9-3.7-1.1-5.6c0-0.4,0-0.8,0.1-1.1
		c0.3-0.7,1.2-1,2-0.9s1.4,0.6,2.1,1.1c0.5-1.1,0-2.5-0.5-3.6s-1.1-2.3-1-3.5c0.6-4.1,4.4-0.3,5.5,1
		C262.8,154.5,264.6,157,266.1,159.7z"/>
	<path class="st0" d="M264.4,204.7c-1.2,2.6-3.9,4.3-4.9,7c-0.6,1.8-0.2,3.8,0.1,5.7c0.1,0.4,0.1,0.9-0.2,1.1
		c-0.5,0.4-1.1-0.5-1.2-1.1c-0.2-1.1-0.5-2.2-0.7-3.2c-0.3-1.4-0.6-2.7-0.4-4.1c0.5-4.7,6.2-7.9,6-12.7c0-0.8-0.2-1.5-0.1-2.3
		c0.1-0.6,0.5-1.1,1.1-1.2C265.1,195.5,265.3,202.6,264.4,204.7z"/>
</g>
<path class="st0" d="M267.8,199.2c0.1-1.3,0.3-2.7,0.6-4c0.5-2.6,1.1-5.3,2-7.9c0.4-1.3,1-2.6,1.6-3.8s1.3-2.4,2.1-3.6
	c0.8-1.1,1.7-2.3,2.7-3.2c0.2-0.3,0.5-0.5,0.8-0.7s0.5-0.5,0.8-0.7s0.6-0.5,0.9-0.7l0.8-0.5l0.2-0.1h0.1l0,0h0.1l0.1-0.1l0.7-0.4
	c0.3-0.1,0.6-0.3,0.9-0.4c0.3-0.1,0.6-0.3,0.9-0.4l1-0.4c1.4-0.4,2.8-0.7,4.2-0.9c1.4-0.1,2.8-0.2,4.2-0.1c1.4,0.1,2.8,0.2,4.1,0.5
	c2.7,0.5,6,1.1,8.6,2c1.3,0.5,6.9,2.8,7.2,3.9c0,0-1.6,6.3-2,7.5c-0.9,2.3-1.9,4.6-3.2,6.7c-0.6,1.1-1.3,2.1-2.1,3.1
	c-0.7,1-1.6,2-2.4,2.9c-0.9,0.9-1.8,1.8-2.8,2.6l-0.8,0.6l-0.8,0.6c-0.3,0.2-0.5,0.4-0.8,0.5l-0.4,0.2l-0.2,0.1l-0.1,0.1l-0.1,0.1
	c-1.1,0.6-2.3,1.2-3.5,1.6c-1.2,0.4-2.4,0.8-3.6,1.1s-2.5,0.5-3.7,0.6s-2.5,0.2-3.7,0.2c-2.5,0-5-0.2-7.4-0.7
	c-1.2-0.2-2.4-0.5-3.6-0.8c-1.1-0.3-2.3-0.8-3.4-1.2c-0.1,0,0-0.3,0-0.4C267.5,201.7,267.7,200.5,267.8,199.2z M271.3,203.6
	c1.2,0.2,2.4,0.4,3.6,0.5c2.4,0.2,4.8,0.3,7.2,0.2c1.2-0.1,2.4-0.2,3.5-0.3c1.2-0.2,2.3-0.4,3.5-0.7c1.1-0.3,2.3-0.6,3.3-1.1
	c1.1-0.4,2.1-0.9,3.1-1.5c0.4-0.3,1.1-0.6,1.5-0.9l0.7-0.5l0.7-0.5c0.9-0.7,1.8-1.5,2.6-2.4c0.8-0.8,1.6-1.7,2.3-2.7
	c0.7-0.9,1.4-1.9,2-2.9c1.2-2,2.3-4.1,3.2-6.3c0.5-1.1,0.9-2.2,1.3-3.3s0.7-2.3,1-3.4l0,0l0.4,0.8c-1.1-0.6-2.4-1.1-3.6-1.6
	s-2.5-0.9-3.7-1.2c-2.5-0.7-5.1-1.2-7.6-1.5c-1.3-0.1-2.6-0.2-3.8-0.2c-1.3,0-2.5,0.1-3.8,0.3c-1.2,0.2-2.4,0.5-3.6,0.8l-0.9,0.3
	c-0.2,0.1-0.5,0.2-0.7,0.3s-0.5,0.2-0.7,0.3l-0.6,0.3l-0.1,0.1H282l0,0l0,0c0,0,0.1,0,0,0l-0.2,0.1l-0.8,0.5l0,0l-0.7,0.5
	c-0.2,0.2-0.5,0.4-0.7,0.6c-0.2,0.2-0.5,0.4-0.7,0.6c-0.9,0.8-1.8,1.8-2.5,2.7c-0.8,1-1.5,2-2.2,3.1s-1.3,2.2-1.8,3.4
	c-1.1,2.3-2,4.8-2.7,7.4c-0.4,1.3-0.7,2.6-1,3.8c-0.2,1-0.3,1.7-0.3,2.8c0,0.4,0,0.4,0.3,0.6C269.4,203.1,270.3,203.5,271.3,203.6z"
	/>
<g>
	<path class="st0" d="M276.5,214.4c1.2-0.9,2.3-1.8,3.5-2.7c0.1-0.1,0.2-0.2,0.4-0.1c0.1,0,0.2,0.2,0.2,0.3c0.6,1.4,0.5,3-0.2,4.3
		s-1.9,2.4-3.4,2.7c-0.7,0.2-1.4,0.2-2.1,0.4s-1.3,0.5-1.8,1C271.8,218.2,275,215.5,276.5,214.4z"/>
	<path class="st0" d="M287.7,216.2c1.5-0.9,3.4-1.1,4.6-2.4c0.2,2.4-1.5,4.7-3.7,5.5c-0.5,0.2-1.1,0.3-1.6,0.5
		c-0.8,0.2-1.6,0.5-2.4,0.6C285.3,218.7,286,217.2,287.7,216.2z"/>
	<path class="st0" d="M311.6,198.4c0.3-0.8,1-1.9,1.7-1.4c0.4,0.2,0.4,0.7,0.5,1.1c0.1,1.2,0.1,2.4,0.1,3.6c1.5-0.3,2.7-1.5,3.5-2.9
		c0.8-1.3,1.2-2.9,1.7-4.3c0.1-0.3,0.4-0.7,0.7-0.6c0.2,0.1,0.3,0.2,0.3,0.4c1.3,3.1,1.5,6.6,0.4,9.8s-3.4,5.9-6.3,7.5
		c0-0.8,0-1.6,0-2.4c-1.5,1.6-3.2,3-5.1,4c-0.1-1-0.2-2-0.3-2.9c0.1,1.5-7.2,3.3-8.3,3.3c1.1-2.3,4.6-4.3,6.3-6.4
		C308.9,204.6,310.5,201.6,311.6,198.4z"/>
	<path class="st0" d="M323.1,212.1c0.2-0.1,0.4-0.2,0.6-0.1c0.6,0.3,0,1.3,0.4,1.8c0.3,0.4,0.9,0.1,1.3-0.1c1-0.6,2-1.2,3-1.8
		c0.2,3.5-2.5,6.9-6,7.5c-0.7,0.1-1.7-0.1-1.8-0.8c0-0.1,0-0.3-0.1-0.4c-0.1-0.3-0.5-0.2-0.8-0.1c-2.2,0.6-7.3,0.1-3.1-1.9
		C319,215,320.8,213.1,323.1,212.1z"/>
	<path class="st0" d="M318.7,188.5c-0.1,0.5-0.1,1-0.5,1.3c-0.3,0.3-0.9,0.4-1.2,0.1c-0.2-0.3-0.2-0.9-0.6-0.9
		c-0.3,0-0.5,0.2-0.6,0.4c-1.1,1.5-2.3,3-3.8,4.2c-0.3,0.3-0.6,0.5-1,0.6s-0.8,0-1-0.4s-0.1-0.8,0.1-1.2c0.8-1.9,2.1-3.7,2.5-5.8
		c0.2-0.8,0.3-1.6,0.8-2.3s1.6-0.9,2.1-0.2c-0.9-1.3,1.2-4.1,2.7-2.9C319.5,182.7,318.9,187,318.7,188.5z"/>
</g>
<path class="st4" d="M211.8,177.6c0,0-21.7,6.3-4.2,24C207.6,201.5,212.9,190.3,211.8,177.6z"/>
<path class="st4" d="M284.2,177.6c0,0,18.7,6,4.2,24C288.3,201.5,282.6,192.3,284.2,177.6z"/>
<g id="Mouth_2_">
	<path class="st3" d="M294.7,217.7c-13,7.1-29.7,17.5-46.6,11.3c-16.8,6-32.3-3.9-45.3-11s-27.7,10.5-15.9,26
		c13.9,18.2,61.2,18.7,61.2,18.7s48.3-0.5,62.2-18.7C322.1,228.6,307.7,210.6,294.7,217.7z"/>
	<path class="st0" d="M290.5,224.9c-8.5,8-25.9,12.8-42.1,8.7c-16.2,4.1-32.4-1.3-41.5-8.7c-16.5-13.4-29.2,4-11.7,20.7
		c12,11.5,53.2,14.9,53.2,14.9s41.3-2.4,53.3-13.9C319.1,229.9,305.9,210.3,290.5,224.9z"/>
</g>
<path class="st2" d="M290.8,239.4c0.5-3.1,1.2-6.3,1.4-9.4c0.1-1.2,0-2.4-0.7-3.3c-0.7-0.9-1.9-1.2-3-1s-2,0.8-2.8,1.6
	c-2.3,2.3-3.3,5.6-3.3,8.9c0,3,1.1,5.6,1.5,8.5c0.2,2.1-0.3,4.7-0.4,6.9c-0.4,5.5-0.1,11.6,3.7,15.6c1,1,2.3,1.9,3.7,1.9
	c2.5,0,4.2-2.7,4.2-5.2s-1.1-4.8-2.1-7.1c-1.7-4.2-2.7-8.9-2.6-13.4C290.5,242,290.6,240.7,290.8,239.4z"/>
<g id="Lava_2_">
	<path class="st2" d="M288,226c-15.4,6.8-23.5,10.2-39.6,7.5c-18.7,4.2-43-9.5-43-9.5c-0.7,2.3-1.3,7.8-0.1,9.9
		c0.3,0.5,0.6,0.9,1,1.3c-0.9,5-1.8,9.9-2.7,14.9c-1,5.5-0.7,10.2,2.1,15.5c2.2,4.1,5.5,7.3,7.8,11.3c0.9,1.6,2.8,5.6,3.3,7.4
		c0.4,3.7-1.1,5.4-0.8,9.3c0.5,7.3,1.8,15.8,10,17.6c0.4,0.2-2.5,1.8-2.1,2c1,0.4-0.1,14.1,0,15.8c0.2,3.1,3.9,6.6,6.7,8.3
		c3.1,1.9,18.2,6.4,18.2,6.4s22.9-4.4,26.2-8.1c11.2-12.3,2.8-22.1,3.9-34.1c0-0.3,0-0.6,0-0.9c0.4-2.4,0.5-4.9,0.5-7.2
		c0-1-0.1-2-0.1-3.1c0.4-2.9,0.8-5.8,1.1-8.7c5.2-2.8,7.4-8.9,4.7-15.2c-4-9.1-5.8-14.8,2.2-27.8c1.8-2.9-0.8-3.6-1-6.9
		C288.2,229.8,290.7,224.8,288,226z"/>
	<path class="st0" d="M248.5,308.9l-53.4,19.5l53.4,19.1l53.8-18.5L248.5,308.9z M210.5,327.6l38.3-14l38.6,14.4l-38.6,13.3
		L210.5,327.6z"/>
	<polygon class="st1" points="302.3,313.3 293.1,313.3 248.7,328.5 206.6,313.3 195.1,312.7 195.1,316.1 248.5,335.2 302.3,316.8 	
		"/>
	<path class="st0" d="M248.5,293.2l-53.4,19.5l53.4,19.1l53.8-18.5L248.5,293.2z M210.5,311.9l38.3-14l38.6,14.4l-38.6,13.3
		L210.5,311.9z"/>
	<path class="st2" d="M273.5,308.9c-0.5-5.3-0.1-7.8-0.2-9.5s-1.2-1.8-2.3-2.8c-0.4-0.9-1.1-1.7-2-2.3c-1-1.1-2.3-1.8-3.8-2.1
		c-1.1-1.5-3-2.6-4.8-2.4c-0.5,0.1-1,0.1-1.5,0.3c-0.1-0.1-0.1-0.3-0.2-0.4c-1.3-3.2-4.8-4.9-8.1-3.9c-0.2,0-0.3,0.1-0.5,0.2
		c-2.5-2.5-6.8-1.7-9,1c-2.3-1.6-6-1.5-7.8,0.6c-1,1.2-1.8,2.4-2.5,3.7c-1-0.9-2.1-1.7-3.2-2.5c-2.7-1.8-6.6-0.5-8.2,2.1
		c-1,1.8-1,3.7-0.3,5.3H219c-3.8-0.4-7.7,2.9-6.6,7.4c1.3,5.1,7,8.8,12.2,6.7c0.4-0.2,0.8-0.5,1.2-0.7l0,0c0,0.6,0.1,1.2,0.3,1.9
		c0.2,0.5,0.4,0.9,0.6,1.3c-2.4-0.6-4.8,3.4-2.2,4.4c1.5,0.6,2.9,1,4.4,1.6s3.6,1.4,5.3,1.5c0.9,0.1,1.3-0.9,1.6-1.7
		c0.5,0.2,1,0.4,1.5,0.6c1.8,0.7,3.5,0.2,4.8-0.7c0.3,0,0.6,0,0.9-0.1c0.1,0.1,0.3,0.1,0.5,0.1c1.8,0.5,4,0,5.5-1.2
		c0.9,0.4,1.9,0.6,2.9,0.6c0.7,0.3,1.4,0.4,2.2,0.4c0.7,0.3,1.5,0.5,2.2,0.5c0.1,0,0.2,0.1,0.3,0.1l0.1,0.1c1,0.9,2.2,1.4,3.6,1.4
		c0.3,0.2,0.6,0.3,1.1,0.4c0.7,0.1,0.9,0,1.6-0.2c2.2-0.7,6.8-2.2,8.9-3c1.5-0.5-0.2-1.6-0.7-2.8c0.3-0.5,0.6-1,0.7-1.7
		c0.3-1.5,0.5-2.9,0.7-4.4C273.1,308.1,273.6,309.8,273.5,308.9z"/>
	<path class="st2" d="M212.3,289.7c0-2.2-0.2-13.9-4.1-13.4c-1.1,0.2-1.7,1.3-2.1,2.3c-1.3,3.2-11,25.1,1.5,20.4
		C211.3,297.7,212.2,293.2,212.3,289.7z"/>
	<path class="st2" d="M281.2,304.5c-0.1-1.1-0.3-2.2-0.6-3.2c-0.7-3.6-3.8-6.6-8-6.3c-1.6,0.1-2.9,1.3-2.9,2.9c0,1.4,1.2,2.9,2.7,3
		c0.1,0.3,0.3,0.6,0.5,0.8c-0.5,2.9-1,6.4-0.3,9.3c0.8,3,4.3,4.1,6.5,1.9C281.2,310.9,281.5,307.3,281.2,304.5z"/>
</g>
<g>
	<path class="st0" d="M323.8,129.1c9.4-3.7,19.5-5,29-8.5c14-5.2,25-17.7,28.5-32.2c0.2,5,0.4,9.9,0.6,14.9
		c9-7.5,12.3-19.8,19.2-29.3c8.5-11.7,21.9-18.5,34.8-25.2c3.3-1.7,6.7-3.5,8.6-6.7C439,53.2,429.1,62,424.7,73.6
		c-2.5,6.5-3.1,13.6-4.6,20.4s-4.5,13.8-10.2,17.8c6.1-3.5,12.2-7.1,17.1-12.1c3.7-3.9,6.6-8.5,10.1-12.6s8-7.7,13.3-8.5
		c-5.8,5.5-11.7,11.4-15.1,18.6c-2.3,4.9-3.5,10.2-5.3,15.3c-4.4,12.2-13.1,22.8-24.2,29.5c-11.1,6.8-24.4,9.7-37.3,8.1
		c0.9,2.4,3.7,3.3,6.3,3.9c9.8,2,19.9,2.7,29.8,2.1c-14.6,5.2-30.7,8.6-45.3,3.5c-6.2-2.2-11.7-5.8-17.8-8.1
		c-11-4.3-23.6-4.3-34.7-0.1C307.3,151.2,314.6,132.8,323.8,129.1z"/>
	<path class="st2" d="M326.5,130.5c7.6-3,15.8-4.1,23.5-6.9c11.3-4.2,20.3-14.3,23.1-26.1c0.2,4,0.3,8.1,0.5,12.1
		c7.3-6.1,9.9-16,15.5-23.7c6.9-9.5,17.8-15,28.2-20.4c2.6-1.4,5.4-2.9,6.9-5.4c-4.5,9-12.5,16.1-16.1,25.5c-2,5.3-2.5,11-3.8,16.6
		s-3.6,11.2-8.2,14.4c4.9-2.8,9.9-5.7,13.9-9.8c3-3.1,5.3-6.9,8.2-10.2s6.5-6.2,10.8-6.9c-4.7,4.5-9.4,9.2-12.2,15.1
		c-1.9,4-2.8,8.3-4.3,12.4c-3.6,9.9-10.6,18.4-19.6,23.9s-19.8,7.8-30.2,6.6c0.7,1.9,3,2.7,5.1,3.1c7.9,1.7,16.1,2.2,24.2,1.7
		c-11.8,4.2-24.9,7-36.7,2.9c-5-1.7-9.5-4.7-14.4-6.6c-8.9-3.5-19.1-3.5-28.1-0.1C313.1,148.4,319.1,133.5,326.5,130.5z"/>
	<path class="st3" d="M318.6,143.9c7.2-11.4,21.9-15.6,42.6-16.1c20.7-0.5,30.1-26.9,32.4-34.5c0,12.4,0.5,32.5-8.6,35.2
		c13.6-1.8,17.9-4.2,21.1-9.3c-2.9,8.9-12.2,20-28.9,21.9s-12.5,0-23,2.4c1,4.4,4.7,6.4,8.8,9c-11,1.7-16.3-8.7-23.8-10.3
		C331.6,140.5,325.2,144.1,318.6,143.9z"/>
</g>
<g>
	<path class="st0" d="M162.7,124.7c-4.5-1.2-9.2-2.6-11.9-6.1c-1.9-2.4-2.3-5.5-3.3-8.3c-2.4-6.7-8.3-12.4-15.7-15
		c-5.8-2.1-12.4-2.3-18.2-4.3c-8-2.7-14.4-8.9-16.8-16.2s-0.7-15.5,4.3-21.5c-8.5,1-14.6,8.3-15.4,15.9c-0.8,7.5,2.8,14.9,7.6,21.2
		c-6.4-2-11.4-7.3-12.4-13.2c-4.9,7.1-4.6,16.1-3.3,24.4c0.6,3.8,1.4,7.7,3.4,11.2s5.2,6.5,8.3,9.3c4.9,4.5,9.8,9,15.8,12.3
		c7.4,4.1,16.1,6,24.7,7c9.9,1.2,15-0.2,21.3,3.5c-11.4-2.3-16.3,0.2-28.2-0.9c-8.3-0.8-17.6-2.5-23.3-7.9c0.3,7.6,6.9,17,14.5,20.5
		c7.7,3.6,16.6,4.4,25.3,3.9c5.9-0.3,11.9-1.2,17.4-3c5.3-1.7,10.2-4.3,15.5-5.7c5.5-1.5,15.8-1.1,21.1,1.1
		c3.8-5.1,1.5-13.8-3.8-18.7C183.2,128.3,171,126.9,162.7,124.7z"/>
	<path class="st2" d="M157.1,125c-3.9-0.7-5.9-4.9-8.5-7.8c-1.9-2.1-2.6-5-3.7-7.5c-2.8-6.1-8.4-10.9-14.9-12.6
		c-5.1-1.4-10.6-0.9-15.8-2.2c-7-1.8-13.1-7-15.9-13.6c-2.8-6.7-2.3-14.6,1.3-20.9c-7,1.8-11.4,9.4-11.2,16.6
		c0.1,7.2,4,13.9,8.7,19.3c-5.6-1.2-10.4-5.7-11.9-11.2c-3.3,7.3-2.1,15.7-0.1,23.5c0.9,3.6,2,7.2,4.1,10.3c2.1,3.2,5.1,5.6,8,8
		c4.6,3.8,9.7,5.3,15.1,7.8c6.7,3.1,14.4,4.6,21.8,4.8c8.5,0.1,11.9-0.2,17.6,2.7c-9.8-1-13.7,1.9-23.8,2.1
		c-7.1,0.1-15.1-0.6-20.5-5.1c1.1,7.2,7.7,15.4,14.5,18s14.5,2.4,21.7,1.1c5-0.9,9.9-2.4,14.3-4.7c4.2-2.2,8.1-5.1,12.4-7
		c4.5-2,16.2,0.7,20.9,2.3c2.6-5.2-5.7-16.5-11.8-18.8C172.2,127.2,164.3,126.3,157.1,125z"/>
	<path class="st3" d="M175.1,131.9c-3.6-1.8-7.8-2-11.8-2.2s-8.2-0.3-11.9-2c-9.1-4.2-12.9-16.6-22.6-19.1c-3.8-1-7.9-0.1-11.8-0.1
		c-4,0-8.4-1.2-10.3-4.7c-2.4,5.5,0.2,12.2,4.7,16.1c4.6,3.9,10.6,5.5,16.6,6.5c-2.7,1.5-6,1.9-9,1.1c-0.4,4.5,4.7,7.5,9.2,8.4
		c11.8,2.3,24.6-2.1,35.5,2.9c-3.5,0.5-5.4,4.2-7.7,6.9c-2.6,2.9-6.4,4.8-10.3,5c4.3,1.2,9.2,0.3,12.9-2.3c2.4-1.7,4.4-4,6.6-5.9
		s5-3.5,8-3.4s10.7,4.5,11,3.6c0.3-1.1,0.1-2.3-0.2-3.4C183.1,136.5,177.7,133.1,175.1,131.9z"/>
</g>
<path class="st0" d="M209.2,149.5c-3.6,0.7-7.7,0.8-10.5-1.6c-1.5,3.3-0.2,7.6,2.9,9.6c-4.4,1.4-9.2,1-13.3-1
	c-0.9,3.1-1.1,7.7,1.8,9.2c-4.9-1.1-13.8,2.6-20.4,0.2c0.7,7.6,12.8,12.4,15.9,12c-0.5-1.2,3.9-7.4,12.2-9.4
	c1.7-0.4-0.1-5.9,4.6-7.5c1.6-0.6,3.8-0.5,4.2-2.2c0.2-1-0.3-2.2,0.2-3c0.3-0.5,0.8-0.7,1.3-0.9c2.6-1,9.4-2.7,12-3.5
	c2.5-0.8,1.4-0.9,2.5-3.4C218.1,148.2,213.7,148.6,209.2,149.5z"/>
<g>
	<path class="st3" d="M210.9,245.9c-0.2,3.6-0.4,7.4,1,10.7c0.8,2,2.2,3.8,3.3,5.7c1,1.9,1.7,4.3,0.9,6.3c-1.7-5.7-7.9-9.3-9.5-15.1
		c-0.4-1.6-0.4-3.2-0.3-4.9c0.2-3.3,1.1-6.6,2.4-9.6c0.4-0.8,0.5-2,1.1-2.6C211.2,239.2,211,242.9,210.9,245.9z"/>
	<path class="st3" d="M207.8,260.1c0.9,1.2,2.1,2.1,3.1,3.3c0.9,1.2,1.6,2.7,1.2,4.2c-0.6,0.1-1-0.4-1.3-0.9
		c-0.7-1.1-1.4-2.2-2.1-3.3c-1.3-2-3.5-5-3.1-7.5C206.4,257.2,206.8,258.8,207.8,260.1z"/>
	<path class="st3" d="M214.7,275.1c1,1.6,2,3.3,2.6,5.2c0.7,2.3,0.6,4.7,0.6,7.1c0.6,0.1,1.3-0.4,1.5-0.9c0.3-0.6,0.3-1.2,0.4-1.9
		c0-0.8,0.1-1.7-0.1-2.5c-0.2-0.9-0.6-1.7-1-2.5c-1.4-2.9-3.4-7.8-6.5-9.3C211.9,271.6,214.1,274,214.7,275.1z"/>
	<path class="st3" d="M218.7,273.3c-0.3,0.4-0.7,0.8-0.7,1.3c0,0.3,0.1,0.6,0.2,0.9c0.4,0.9,0.8,1.8,1.2,2.7
		c0.1,0.1,0.1,0.3,0.3,0.4c0.3,0.2,0.7-0.2,0.9-0.5c2.9-4.6,3.2-10.7,0.8-15.6c-0.1-0.2-0.2-0.4-0.4-0.5s-0.4-0.2-0.6-0.2
		c-1.1-0.2-4.9-1.5-3.7,0.7c0.7,1.3,2.2,1,3.2,1.7C222.5,266.2,220.2,271.5,218.7,273.3z"/>
	<path class="st3" d="M215.5,258.2c1.6,1.3,3.9,1.3,5.9,1.3c0-0.2,0-0.5,0-0.7c-2-0.1-3.9-1.4-4.8-3.2c-0.9-1.9-0.6-3.9,0.4-5.7
		C212,246.2,212.7,256,215.5,258.2z"/>
	<path class="st3" d="M213.6,245.7c0,0.2,0,0.5,0.1,0.7c0.2,0.6,1,0.8,1.7,0.9c4.3,0.8,8,4.5,8.8,8.8c1.1-3,3.3-5.5,6.1-6.9
		c0.6-0.3,1.3-0.6,1.8-1.1s0.7-1.4,0.3-2c-0.5-0.7-1.5-0.7-2.2-0.3s-1.2,1-1.8,1.6c-0.8,0.7-1.9,1.2-3,1.4c-0.2,0-0.5,0.1-0.7,0
		c-0.3-0.1-0.5-0.5-0.6-0.8c-0.6-1.6-0.5-3.4-0.1-5.1s1.2-3.3,1.8-4.9c0.7-2,1.2-4.1,1.4-6.3c0-0.2,0-0.4-0.1-0.5s-0.2-0.2-0.4-0.2
		c-2.8-0.8-5.6-1.7-8.5-2.5c-0.6-0.2-1.2-0.3-1.7-0.1c-0.3,0.2-0.6,0.5-0.8,0.8c-1.6,2.3-3.5,5.3-3.2,8.3
		C212.8,240.2,213.7,242.7,213.6,245.7z"/>
	<path class="st3" d="M227,240c0,0.3,0,0.6,0.1,0.8c0.1,0.3,0.4,0.5,0.7,0.6c1.4,0.7,3,0.8,4.3,1.7c0.8,0.6,1.4,1.5,1.6,2.5
		c0.1,0.4,0.1,0.8,0.5,1c0.2,0.1,0.4,0.1,0.7,0c3.4-0.8,6.3-3.3,7.5-6.6c0.2-0.6,0.4-1.3,0.2-1.9c-0.3-0.9-1.2-1.5-2.1-1.9
		c-1.9-0.9-3.8-1.9-5.8-2.8c-1.2-0.6-3.9-2.6-5.3-2.1c-1.2,0.4-1.2,2.1-1.3,3.1C227.8,236.3,227.2,238.1,227,240z"/>
	<path class="st3" d="M226.3,257.3c0,0.5,0.4,1.2,0.9,1.1c0.2,0,0.3-0.2,0.4-0.3c1-1.1,1.7-2.4,2.6-3.6c0.7-0.9,1.4-1.7,2.3-2.4
		c0.7-0.6,2.2-1.2,2.7-1.9c0.7-0.9-0.3-0.8-1.3-0.7C230.7,249.8,226.3,254,226.3,257.3z"/>
	<path class="st3" d="M238.7,247.6c-0.2,0.3-0.4,0.6-0.3,0.9c0.1,0.5,0.8,0.7,1.2,1c0.5,0.4,0.6,1.2,0.4,1.9
		c-0.2,0.6-0.7,1.2-1.1,1.7c1.2-0.1,2.3-0.8,3.4-1.2c1.1-0.4,2.6-0.5,3.4,0.4c0.5,0.5,1,1.4,1.6,1c0.1-0.1,0.2-0.2,0.3-0.4
		c0.9-1.9-0.4-4.3,0.5-6.2c0.8-1.7,2.9-2.1,4.6-2.9c2.7-1.4,4.5-4.4,4.4-7.4c0-0.4,0-0.7-0.2-1c-0.3-0.5-0.8-0.7-1.3-0.9
		c-2.5-0.9-8.4-1.8-10.5,0.7c-1.3,1.6-1.9,4.1-2.8,6C241.3,243.2,240.2,245.6,238.7,247.6z"/>
	<path class="st3" d="M230,264.4c-0.4,1.1-0.6,2.4,0,3.5c0.4,0.7,1.2,1.1,1.8,1.6c1.9,1.5,3.1,3.7,3.8,6c0.6,2.3,0.7,4.7,0.7,7.1
		c0.7-3.1,0.7-6.3-0.1-9.4c-0.5-1.8-1.2-3.5-1.4-5.3c-0.2-1.4,0-2.8,0.2-4.1c0.3-2,0.8-4,1.5-5.9c0.4-1.1,1.7-4.3-0.5-2.8
		C233.1,256.9,231,261.2,230,264.4z"/>
	<path class="st3" d="M231.3,282.4c0.5,1.7,0.5,3.5,0.5,5.3c0,0.4,0.1,1,0.6,1c0.2,0,0.4-0.1,0.5-0.2c0.5-0.5,0.9-1.1,1.1-1.8
		c1.3-3,1.8-9.8-1.6-11.7c-1.2-0.7-2.5-0.5-2.9,0.9C228.9,277.9,230.8,280.6,231.3,282.4z"/>
	<path class="st3" d="M227.1,288.9c0.9,0.7,2.1,0.9,3.3,0.8s2.3-0.5,3.3-0.9c0.3,0.4,0.2,1,0,1.4s-0.6,0.8-0.9,1.1
		c-0.5,0.5-1,1-1.6,1.2c-0.7,0.3-1.4,0.3-2.2,0.3s-1.7,0-2.5-0.3c-1.4-0.5-2.4-1.9-2.8-3.4c-0.2-0.8-0.8-5,0.9-4.4
		C225.6,285.2,226,288.1,227.1,288.9z"/>
	<path class="st3" d="M221.8,285.8c-0.2,1-0.2,2.1-0.2,3.1c0,1.5-0.1,3-0.3,4.4c-0.1,0.8-0.3,1.6-1,2c-0.8,0.4-1.8-0.2-2.1-1
		s-0.2-1.7-0.1-2.6c0.2-1.1,0.3-2.1,0.5-3.2c-0.3-0.3-0.8-0.2-1.1,0.1s-0.3,0.7-0.4,1.1c-0.1,1-0.3,1.9-0.4,2.9
		c-0.2,1.2-0.2,2.6,0.4,3.6c0.7,1,2,1.5,3.2,1.2c1.5-0.5,2.3-2.1,2.5-3.7s-0.2-3.1-0.3-4.7c-0.1-1.9,0.3-3.6,0.7-5.4
		C222.2,283.8,221.9,285.1,221.8,285.8z"/>
	<path class="st3" d="M228.3,299.7c0,0.2,0.1,0.4,0.2,0.5c0.1,0.1,0.3,0.2,0.5,0.1c0.1-0.1,0.1-0.2,0.2-0.3c0.8-1.9,1.6-3.8,2.4-5.6
		c-1.3,0.1-3.2-0.2-4.4,0.2c-1.1,0.4-1.1,0.9-1.4,2C226.9,297.2,228,298.2,228.3,299.7z"/>
	<path class="st3" d="M215.1,302.2c0.2,0.5,0.6,1,1,1.3c1.6,1.5,3.5,2.7,5.7,3s4.5-0.4,6-1.9c0.1,0.9-0.1,1.9-0.6,2.7
		c-1.5,2.6-5.2,3.5-7.9,2.4s-4.6-4-5.1-7c-0.1-0.8-0.1-1.8,0.4-2.4C215.1,300.7,214.8,301.5,215.1,302.2z"/>
	<path class="st3" d="M210.1,284c0.2,2.7,0.1,5.6-1.2,8s-4.1,4.2-6.8,3.6c-0.1,1.9,1.7,3.7,3.5,3.5c1.3-0.1,2.4-0.9,3.2-1.9
		c1.8-2.4,2-5.6,2.1-8.6c0.1-1.8,0.1-3.6,0.2-5.4c0-1.2,0.1-2.4-0.4-3.6c-0.4-1-2.1-2.7-1.8-0.7C209.2,280.7,210,282.2,210.1,284z"
		/>
	<path class="st3" d="M224.7,266c0,0.3,0.2,0.7,0.5,0.8c0.4,0.1,0.7-0.4,0.7-0.9c0.2-1,0.3-6.6-1.3-6
		C223.1,260.4,224.6,264.9,224.7,266z"/>
	<path class="st3" d="M224.9,272.2c-0.3,0.1-0.4,0.4-0.5,0.6c-0.2,0.4-0.3,0.8-0.3,1.2c0.1,0.4,0.4,0.8,0.8,0.7
		c0.3,0,0.6-0.3,0.7-0.6c0.2-0.3,0.3-0.6,0.2-1c0-0.3-0.3-0.7-0.6-0.7c-0.3-0.1-0.7,0.2-0.7,0.5"/>
	<path class="st3" d="M242.2,267.6c0.5,0.4,1.2,0.8,1.4,1.5c0.3,0.8-0.1,1.7-0.6,2.4c-1,1.8-2,3.5-2.9,5.3c-0.1,0.2-0.3,0.5-0.6,0.5
		c-0.2,0-0.3-0.1-0.4-0.3c-0.5-0.7-0.7-1.7-0.8-2.5c-0.2-1.4-0.5-2.8-0.7-4.2c-0.6-3.4-1.1-6.9-0.8-10.3c0-0.5,0.4-2.9,1.4-2.5
		c0.7,0.3,0.3,2.7,0.4,3.3C238.7,263.4,240,266,242.2,267.6z"/>
	<path class="st3" d="M254.1,256.6c0.1,3.4,0.8,6.8,2,10c-0.1-2.8-0.5-5.6-0.5-8.4c0-1.3,0-2.7,0.2-4c0.2-1,1.3-3,1.1-3.8
		c-0.3-1.5-2.4-0.8-3.2,0c-1.1,1-0.8,1.8-0.3,3C253.9,254.4,254.1,255.3,254.1,256.6z"/>
	<path class="st3" d="M255.9,244.8c-1.7,1.7-4,2.9-5.4,4.8c2-1.4,4.4-2.3,6.8-2.8c0.6-0.1,1.3-0.2,1.9-0.5c0.5-0.3,1-0.7,1.4-1.1
		c1.8-1.9,2.8-4.5,3.8-7c0.8-2.2-0.2-3.4-2.4-4.1c-1.4-0.4-2,0-2.4,1.3C258.6,238.9,258.7,242,255.9,244.8z"/>
	<path class="st3" d="M268.8,237.9c-0.8,1.6-2,2.9-2.9,4.5c-1.4,2.2-2.1,4.8-2.3,7.4c-0.3,5.4,2.2,10.9,1.3,16.2
		c-1-5.8-4.2-11-4.8-16.8c-2.5,5.6-2.5,12.1-0.5,17.9c0.7,2.1,1.7,4.1,2.3,6.3c0.8,3.4,0.4,6.9-0.2,10.4c-0.4,2.3-1,4.7-2.7,6.2
		c-0.6,0.5-1.3,1.1-1.1,1.8c0.1,0.4,0.5,0.6,0.8,0.8c1.5,0.9,3.2,1.5,4.9,1.7c0.7,0.1,1.4,0.1,2.1-0.2c1-0.5,1.3-1.8,1.2-3
		c-0.2-1.1-0.7-2.1-1.1-3.2c-0.9-2.2-1.1-4.7,0-6.8c0.7-1.4,1.9-2.4,2.5-3.9c1.4-3.6-1.8-7.6-1.1-11.4c0.3-1.7,1.4-3.1,2.4-4.5
		c0.7-0.9,1.4-1.9,2.1-2.8c0.2-0.3,0.4-0.6,0.4-0.9c0-0.5-0.4-0.8-0.7-1.1c-2-1.9-3-4.7-2.9-7.5s1.1-5.4,2.7-7.8
		c0.3-0.5,0.7-1,0.8-1.6c0.3-1.4-0.6-2.7-0.6-4.1c0-0.7,0.3-1.4,0.4-2.1c0.2-1.6-2-2.9-2.3-1c-0.1,0.6,0.4,1.5,0.4,2.2
		C269.7,235.9,269.3,237,268.8,237.9z"/>
	<path class="st3" d="M273.2,241.7c-0.4,0.7-0.9,1.2-1.4,1.8s-0.8,1.4-0.7,2.1c0.4-1.3,1.9-2.2,3.2-2.1c0.2,0,0.5,0.1,0.6,0.2
		c0.2,0.2,0.2,0.5,0.3,0.8c0.1,1.3,0.2,2.5,0.2,3.8c1.3-1.1,1.5-3.2,2.9-4.1c0.5-0.3,1.1-0.4,1.5-0.8s0.6-0.9,0.7-1.4
		c0.5-2.1,0.6-4.3-0.2-6.3c-0.8-1.9-3.9-5.4-6.1-3.3C271.9,234.7,274.7,239,273.2,241.7z"/>
	<path class="st3" d="M271.7,251.3c0.4,2.7,2.6,4.8,3.6,7.3c1.7,4.4-0.3,9.4-0.8,14.1c1.8-0.4,3.2-1.9,3.7-3.7
		c0.5-1.7,0.4-3.6,0-5.4c-0.5-2.5-1.5-5-2.7-7.2c-0.8-1.3-1.6-2.6-2.2-4c-0.5-1.3-0.4-2.8-0.9-4.1
		C271.4,248.8,271.6,250.4,271.7,251.3z"/>
	<path class="st3" d="M277.9,254.6c0.9,2.3,2.4,4.3,3.1,6.6c-0.8-4.1-1.6-8.4-0.3-12.3c0.3-0.9,0.7-1.8,1-2.8
		c0.3-1.2,0.4-2.4,0.3-3.6c0-0.1-2.3,1.8-2.6,2.1c-0.7,0.9-1.1,1.9-1.4,3C277.3,250,276.9,252.1,277.9,254.6z"/>
	<path class="st3" d="M285.2,258.1c0.4,2.8,1.2,5.7,3.3,7.4c0.3,0.3,0.6,0.5,1,0.6c1,0.3,2-0.3,2.6-1.2c0.6-0.9,0.7-1.9,0.9-2.9
		c-0.7,0.7-1.9,0.8-2.9,0.3c-0.9-0.4-1.6-1.3-2.1-2.2c-0.8-1.7-1-3.5-1.2-5.4c-0.3-3.1,0-7-0.9-10c-1.4,0.7-1.1,4.6-1.2,6
		C284.8,253.3,284.8,255.8,285.2,258.1z"/>
	<path class="st3" d="M290.6,256.6c-0.2,0.4-0.4,0.8-0.3,1.2c0.1,0.4,0.6,0.7,0.9,0.5c0.2-0.1,0.3-0.3,0.3-0.6
		c0.1-0.5,0.1-1-0.3-1.3s-1.1,0-1,0.5"/>
	<path class="st3" d="M245,274.9c-0.5,1.9-0.8,4-0.4,6c0.3,2,1.3,3.9,2.9,5.2c1.4,1.1,3.2,1.7,5,1.9c1.8,0.3,3.9,0.1,5.1-1.3
		c-1.7,0.1-3-1.3-4.1-2.6c-2.4-2.9-4.6-6.2-4.9-9.9c-0.2-1.8,0.7-4.7-0.2-6.3C246.5,268.6,245.4,273.2,245,274.9z"/>
	<path class="st3" d="M243,294.7c0.3-0.7,0.8-1.4,1.5-1.7c0.3-0.1,0.6-0.1,0.9-0.1c1.5,0.1,3,0.4,4.5,0.4s3.1-0.3,4.2-1.2
		c-4-1.1-7.7-3.3-10.7-6.2c-0.5-0.5-1-1-1.4-1.5c-0.6-0.8-1-1.9-1.6-2.6c-0.9,1.9-0.7,4.7-0.3,6.8c0.2,1.1,0.6,2.2,1.1,3.3
		C241.4,292.2,243,294.7,243,294.7z"/>
	<path class="st3" d="M234.7,312.2c0-0.4-0.1-0.7,0-1.1s0.4-0.7,0.7-0.7c0.4,0,0.7,0.4,0.9,0.8c0.9,1.9,0.7,4.3-0.5,6.1
		c-0.1,0.1-0.1,0.2-0.3,0.2c-0.1,0-0.2,0-0.3,0c-1.4-0.4-1.5,0.1-1-1.6C234.6,314.6,234.7,313.4,234.7,312.2z"/>
	<path class="st3" d="M235.1,306.7c0.1,0.2,0.1,0.4,0.3,0.5s0.3,0,0.5,0c0.4,0,0.7,0.4,0.9,0.8s0.3,0.8,0.6,1.1
		c0.1-2.1,0.2-4.1,0.3-6.2c0,0.2-2.9-0.3-3.2,0.1C233.9,303.7,234.9,306,235.1,306.7z"/>
	<path class="st3" d="M239.6,316.2c1.3-0.7,2.1-2.1,2.3-3.5s0.1-2.9-0.1-4.3c-0.5-4.1-1.1-8.2-1.6-12.3c-0.1-0.8-0.4-2-1.3-2.3
		c0,1.3,0.7,2.9,1,4.2c0.3,2,0.5,4,0.5,6C240.4,308,240,312.1,239.6,316.2z"/>
	<path class="st3" d="M245.3,313.8c1.2-0.2,2.3-0.2,3.5-0.2c0.3,0,0.7,0.1,0.9,0.2c0.3,0.2,0.5,0.5,0.6,0.8c0.5,1.1,0.4,2.3,0,3.4
		s-1,2.1-1.6,3.1c0.8,0.2,1.7-0.2,2.2-0.8c0.6-0.6,0.9-1.4,1.2-2.2c0.6-1.5,1-3.1,0.9-4.7s-0.8-3.2-2.1-4.2
		c-0.7-0.5-1.6-0.8-2.5-0.9c-1.6-0.2-4-0.2-4.8,1.5C243.1,311.3,243.2,314.1,245.3,313.8z"/>
	<path class="st3" d="M262.5,308c-1.7,0.3-3.4,0.7-4.9,1.4s-2.9,1.9-3.5,3.5s-0.3,3.6,1,4.7c1,0.8,2.5,1,3.7,0.4
		c0.1-0.1,0.3-0.2,0.3-0.3c0-0.2-0.3-0.4-0.5-0.5c-1-0.4-2.1-1.2-2.2-2.3c0-1.1,1-2,1.9-2.6c2.5-1.6,5.2-3,7.9-4.1
		c-2.3-0.8-5-0.4-7,0.9"/>
	<path class="st3" d="M279,310.1c-0.6,0.4-1.3,0.5-2.1,0.5c-1.3,0.1-2.6,0.2-3.9,0c-0.6-0.1-1.2-0.3-1.7-0.6c-1-0.6-1.7-1.6-2.2-2.6
		s-0.7-2.2-0.9-3.3c2,1.1,3.5,3.2,5.7,3.8c0.8,0.2,1.7,0.3,2.5,0.3c0.6,0,2.8-0.4,3.1-0.1C280.1,308.8,279.4,309.8,279,310.1z"/>
	<path class="st3" d="M274.7,294.7c0,0.4,0,0.8,0.2,1.2c0.2,0.4,0.5,0.7,0.9,0.7s0.7-0.1,1,0c0.4,0.1,0.8,0.7,1.2,0.6
		s0.5-0.7,0.3-1.2c-0.4-1.3-1.4-2.4-2.2-3.5c-0.5-0.8-1-1.5-1.3-2.4C274.5,291.4,274.7,293.3,274.7,294.7z"/>
	<path class="st3" d="M273,279.7c-0.2,0.6-0.3,1.3,0.1,1.8c0.2,0.3,0.5,0.4,0.9,0.5c1.2,0.3,2.6-0.4,3.1-1.6
		c0.3-0.7,0.3-1.5,0.2-2.2c0-1.4,0-3.7-1.9-2.6C274.2,276.4,273.4,278.4,273,279.7z"/>
	<path class="st3" d="M279.2,278.5c-0.2,0.5-0.3,1-0.3,1.5c1.4-0.3,5.8-3.3,5.1-5c-0.9,0.2-1.4,1.1-2,1.8c-0.4,0.4-0.8,0.9-1.3,1.2
		C280.5,278.1,279.2,278.5,279.2,278.5z"/>
	<path class="st3" d="M282.2,271.2c-0.1,0.3-0.1,0.7,0.2,1c0.1,0.1,0.3,0.1,0.5,0.1c0.3,0,0.5,0.1,0.8,0.1c0.2,0,0.4,0,0.6,0
		c0.4-0.2,0.4-0.7,0.3-1.1c-0.3-2.1-1.1-5-2.6-6.6C281.8,266.7,282.6,268.9,282.2,271.2z"/>
	<path class="st3" d="M266.3,283.8c0,0.1,0.1,0.2,0.1,0.2c0.1,0,0.2,0,0.3,0c0.7-0.1,1.2-0.8,1.5-1.5s0.6-1.4,1.2-1.8
		c1.8-1.2-0.7-1.6-1.7-1C266.4,280.5,265.9,282.5,266.3,283.8z"/>
	<path class="st3" d="M260,281.8c0.2-0.1,0.5-0.3,0.7-0.1c0.1,0.1,0.1,0.2,0.1,0.3c0.2,1,0,2-0.5,2.8s-1.4,1.4-2.4,1.3
		c-0.7,0-1.4-0.4-2-1c-0.8-0.7-2.3-2.6-0.7-2.9c0.6-0.1,1.6,0.4,2.2,0.4C258.3,282.7,259.2,282.3,260,281.8z"/>
	<path class="st3" d="M238.1,288.9c-0.2,0.6-0.2,1.2,0,1.8c0.1,0.4,0.3,0.7,0.7,0.8c0.2,0,0.3-0.1,0.5-0.2c0.4-0.3,0.5-0.9,0.4-1.4
		s-0.5-0.9-0.9-1.2c-0.1-0.1-0.3-0.1-0.4-0.1c-0.3,0-0.5,0.3-0.5,0.6s0.1,0.5,0.2,0.8"/>
	<path class="st3" d="M243.5,303.7c0.1,0.6,0.3,1.3,0.9,1.6c0.2,0.2,0.6,0.2,0.8,0c0.1-0.1,0.1-0.2,0.1-0.4c0.2-1.6-0.4-3.3-0.5-4.9
		c-0.1-0.9,0-1.9,0.3-2.8c0.1-0.6,0.3-1.3-0.3-1.6C242.1,294.3,243.2,302.6,243.5,303.7z"/>
	<path class="st3" d="M251.1,305.5c0,0.4,0,0.8,0.2,1c0.3,0.4,1,0.2,1.3-0.2c0.3-0.4,0.3-0.9,0.3-1.4c0.1-1.6,0.1-3.1,0.2-4.7
		c0-1.1-0.9-6-1.8-2.8c-0.3,1.1,0,2.7,0,3.9C251.3,302.6,251.2,304,251.1,305.5z"/>
	<path class="st3" d="M254.8,306.2c0,0.5,0.1,1.2,0.6,1.3c0.3,0.1,0.6,0,0.8-0.2c0.5-0.2,1.1-0.5,1.3-1c0.1-0.3,0.1-0.6,0.1-0.9
		c-0.1-2.7,0-5.3,0.3-8c0-0.3,0.1-0.6,0-0.8c-0.1-0.6-1.6-2.1-2.3-1.7c-0.5,0.3-0.2,1.9-0.3,2.5
		C255.1,300.3,254.8,303.3,254.8,306.2z"/>
	<path class="st3" d="M258.6,299.6c-0.5,1.8-0.5,3.8-0.4,5.7c0,0.6,0.1,1.4,0.6,1.7c0.6,0.4,1.5-0.1,1.8-0.7s0.3-1.4,0.3-2.1
		c-0.1-2.2,0-4.4,0.2-6.5c0-0.3,0.1-0.6,0-0.9c-0.3-0.8-1.2-0.9-1.7-0.4C258.9,296.9,258.8,298.9,258.6,299.6z"/>
	<path class="st3" d="M262.1,306.1c0,0.1,0,0.1,0.1,0.2s0.1,0.1,0.2,0.1c0.5,0.1,1.1,0.1,1.4-0.4c0.1-0.2,0.1-0.4,0.1-0.6
		c0.1-1.8-0.3-3.7,0.2-5.4c0.1-0.5,0.3-0.9,0.3-1.4c0.1-0.7-0.6-2.1-1.5-1.6c-0.6,0.3-0.4,1.7-0.4,2.2
		C262.3,301.4,261.7,303.8,262.1,306.1z"/>
	<path class="st3" d="M266.8,303.9c0,1.2,0.1,2.5,0.3,3.7c-0.9-0.3-1.8-0.7-2.1-1.5c-0.1-0.3-0.1-0.5-0.1-0.8c0-1.8-0.1-3.6-0.1-5.4
		c0-0.4,0-0.8,0.2-1.2c0.2-0.3,0.4-0.6,0.7-0.8c1-0.7,2.9-1.8,4.1-1.6c-0.2,0.9-1.2,1.7-1.7,2.5C267,300.3,266.8,302.1,266.8,303.9z
		"/>
	<path class="st3" d="M273.3,295.9c-0.4,0.4-1,0.2-1.4,0c-0.7-0.3-1.4-0.6-2.2-0.8c-0.8-0.2-1.6-0.2-2.3,0.2
		c0.7-0.6,1.5-1.3,1.5-2.2c0-0.3-0.1-0.7-0.2-1c-0.3-0.8-2.2-4.3-1.6-5.1c0.5-0.7,1.1,0.7,1.4,1.2
		C270.1,290.9,270.7,293.7,273.3,295.9z"/>
	<path class="st3" d="M244.3,256.9L244.3,256.9"/>
	<path class="st3" d="M245.2,260.4c0.2,1.7,0.3,3.5,0.1,5.2c0.4,0.1,0.7-0.3,0.9-0.6c1.1-1.7,1.7-3.9,1.4-6c-0.3-1.6-1.7-4.9-3.9-4
		c-1.1,0.5-0.4,0.8,0.1,1.5C244.7,257.6,245,259,245.2,260.4z"/>
	<path class="st3" d="M248.4,265.4c0.7-0.4,1.1-2.2,1-2.9c-0.5,0.2-0.7,0.7-0.9,1.2C248.3,264,247.6,265.9,248.4,265.4z"/>
	<path class="st3" d="M249.3,261.2c0.3-0.1,0.5-0.4,0.6-0.7c0.1-0.3,0.1-0.7,0-1c0-0.8,0.5-2.4-0.1-2.9
		C248.9,257.4,249.4,260,249.3,261.2z"/>
	<path class="st3" d="M256.3,267.9c0.2,0.3,0.3,0.8,0.3,1.2c0,0.3-0.1,0.6,0,0.9c0,0.3,0.1,0.6,0.4,0.7c0.3,0.2,0.7,0,0.9-0.3
		c0.2-0.3,0.1-0.7-0.1-1s-0.5-0.5-0.7-0.7s-0.5-0.3-0.7-0.5"/>
	<path class="st3" d="M203.1,292.8c-0.2,0.2-0.2,0.5,0,0.7s0.5,0.2,0.8,0.1s0.4-0.4,0.5-0.7c0.1-0.2,0.1-0.5-0.1-0.7
		c-0.2-0.2-0.6-0.1-0.9,0.1c-0.3,0.2-0.5,0.6-0.5,0.9"/>
	<path class="st3" d="M260,318c0,0,6.9-0.8,8.2-3.4c0,0,1.7-1.4,0.8-4.2c0,0,3.9,3.8,2.7,7.5c-0.1,0.3-17.5,6-17.5,6
		c-0.8-0.7-1.2-2.1-0.2-4.7C254,319.2,258.2,323.1,260,318z"/>
	<path class="st3" d="M278.9,312.1c0,0-4.1,1-7.5-1.2c0,0,2.7,4.2,1.5,6.4l6.8-2.2C279.8,315.1,279.3,312.5,278.9,312.1z"/>
	<path class="st3" d="M235,289.6c0,0-3.9,7.5-2.5,11.5s1.9,16-1.2,18.4l-5.3-2c0,0,4.7-3.4,2.1-7.4c0,0,2.8-3.2,3.1-8.1
		C231.1,302,229.5,296.6,235,289.6z"/>
	<path class="st3" d="M236.8,321.3c0,0,2-3.1,2.4-6.1c0,0,0.3,5.1-1.1,6.6L236.8,321.3z"/>
	<path class="st3" d="M271.7,327.2c0,0-2,4.1-1.8,6.9l-3.9,1.2l-0.7-6L271.7,327.2z"/>
	<path class="st3" d="M277.9,325l1.8,0.7c0,0-1,4.7-2.2,5.7l-2,0.7c0,0-4.2-3.7,1.8-5c0,0-0.2-1.1-1.8-1.3L277.9,325z"/>
	<path class="st3" d="M262.8,330.3c0,0,0.4,6.2-10.9,7.4c0,0,1.8-2.1,1.3-4.2L262.8,330.3z"/>
	<path class="st3" d="M243.8,333.5c0,0-0.8,3.9,1.6,6.6l-9.8-3.5c0,0,7,1,6.2-3.7L243.8,333.5z"/>
	<path class="st3" d="M252.6,333.8c0,0,0.7,4.4-5.3,5.3c0,0-3.1,0.2-3.2-3.5c0,0,2.3,6.4,6.9-1.4L252.6,333.8z"/>
	<path class="st3" d="M246.4,340.5c0,0,2.8,0.4,5.3-2.2c0,0,3,1,6,0.1l-8.9,3.1L246.4,340.5z"/>
	<path class="st3" d="M224.5,326.7c0,0-0.4,3.9,2.2,6.7l2.2,0.8c0,0-2.9-3.9-2.2-6.8L224.5,326.7z"/>
	<path class="st3" d="M227.1,327.5c0,0-0.1,3.6,1.9,5.5c0,0-1.3-3.2,0.9-3.3c0,0,2.5,3.3,3.9,0.2L227.1,327.5z"/>
</g>
<g id="Teeth_shads_2_">
	<path class="st0" d="M224.9,231.8c0,0-4,10.3-3.5,14.7c0.5,4.3-4.2-1.9-4.2-1.9l2.1-14.2L224.9,231.8z"/>
	<path class="st0" d="M206.9,229.5c0,0-5.3,5.5-8.6,5.2c-3.4-0.3-0.2-3-0.2-3l6.2-4.5L206.9,229.5z"/>
	<path class="st0" d="M233.1,240c0.2,0.2,1.5,0.6,1.5,0.6l2.8-5.6l-1.9-1.8L233.1,240z"/>
	<path class="st0" d="M236.4,235.5c0,0,5.8,5,7.1,4.5s3.4-6.2,3.4-6.2h-6.7L236.4,235.5z"/>
	<path class="st0" d="M251.5,236c0,0.2,0.3,3.9,1.7,3.9s7.1-5.1,6.8-5.1C259.6,234.7,251.5,236,251.5,236z"/>
	<path class="st0" d="M261,235.1l1.2,4.5c0,0,0.3,2.1,1.4,1.3c1-0.7,2.5-3.7,2.4-5.1c0-0.2,0-0.3-0.1-0.4
		C265.6,234.3,261,235.1,261,235.1z"/>
	<path class="st0" d="M272.8,232c0,0,1.9,3.3,3,4.5s1.9,7.2,1.7,7.9c-0.2,0.7,1.3,2.5,2.5,0.5l-2.3-14.4L272.8,232z"/>
	<path class="st0" d="M288.8,228.1c-0.3-0.5,3.9,4.7,5.8,5.7c1.5,0.7,6.9,1.2,6.9,1.2s1.3-1.1,0.1-2.5c-1.2-1.4-9.8-6.5-9.8-6.5
		L288.8,228.1z"/>
</g>
<g id="Teeth_2_">
	<path class="st4" d="M212.6,240.1c0.7,1.6,1.4,3.2,2.4,4.5c0.6,0.7,1.3,1.3,2,1.6c0.7,0.4,1.6-0.2,1.6-1.2c0.2-2.7,0.5-5.5,1.4-7.9
		c0.4-1.1,3.5-5.1,2.7-6s-4.8-2.4-5.8-2.8c-1.6-0.7-3.2-1.3-4.8-1.7c-1.8-0.4-2.3-0.9-2.7,1.3C208.8,231.5,211.3,236.9,212.6,240.1z
		"/>
	<path class="st4" d="M195,233.8c2.3-0.2,4.5-0.8,6.6-1.7c0.6-0.3,1.2-0.7,1.7-1.1c1.2-1,4-3.9,4.5-5.3c0.4-1-1.3-0.7-1.7-1.7
		c-0.3-0.7-0.8-1.3-1.4-1.7c-3.7-2.4-5-2.1-6.4,1.9c-0.4,1.1-2.2,6.1-3.9,8.5C194.1,233.1,194.4,233.8,195,233.8z"/>
	<path class="st4" d="M232.6,239.6c0.3,0.3,0.7,0.5,1.1,0.4c0.4-0.1,0.6-0.5,0.8-0.9c0.8-1.7,1.7-3,2.5-4.8c1.6,1.6,3.2,2.7,5,4
		c0.7,0.5,1.5,0.9,2.2,0.5c0.4-0.2,0.6-0.6,0.7-1c0.7-1.6,1.3-3.3,1.7-5c0.1-0.3,0.1-0.6-0.1-0.8c-0.1-0.1-0.3-0.2-0.4-0.2
		c-1-0.2-2.1-0.1-3,0.3c-0.7,0.3-1.2,0.5-2,0.6c-1.1,0.2-2.6-0.5-3.6,0.1c-0.2,0.1-0.3,0.3-0.6,0.3c-0.2,0-0.4,0-0.6-0.1
		c-1.5-0.5-5.7-2.2-6.6-0.4C228.8,234.5,231.4,238.7,232.6,239.6z"/>
	<path class="st4" d="M284.8,240.1c-0.7,1.6-1.4,3.2-2.4,4.5c-0.6,0.7-1.3,1.3-2,1.6c-0.7,0.4-1.6-0.2-1.6-1.2
		c-0.2-2.7-0.5-5.5-1.4-7.9c-0.4-1.1-3.5-5.1-2.7-6s4.8-2.4,5.8-2.8c1.6-0.7,3.2-1.3,4.8-1.7c1.8-0.4,2.3-0.9,2.7,1.3
		C288.7,231.5,286.1,236.9,284.8,240.1z"/>
	<path class="st4" d="M302.5,233.8c-2.3-0.2-4.5-0.8-6.6-1.7c-0.6-0.3-1.2-0.7-1.7-1.1c-1.2-1-4-3.9-4.5-5.3c-0.4-1,1.3-0.7,1.7-1.7
		c0.3-0.7,0.8-1.3,1.4-1.7c3.7-2.4,5-2.1,6.4,1.9c0.4,1.1,2.2,6.1,3.9,8.5C303.4,233.1,303,233.8,302.5,233.8z"/>
	<path class="st4" d="M264.9,239.6c-0.3,0.3-0.7,0.5-1.1,0.4s-0.6-0.5-0.8-0.9c-0.8-1.7-1.7-3-2.5-4.8c-1.6,1.6-3.2,2.7-5,4
		c-0.7,0.5-1.5,0.9-2.2,0.5c-0.4-0.2-0.6-0.6-0.7-1c-0.7-1.6-1.3-3.3-1.7-5c-0.1-0.3-0.1-0.6,0.1-0.8c0.1-0.1,0.3-0.2,0.4-0.2
		c1-0.2,2.1-0.1,3,0.3c0.7,0.3,1.2,0.5,2,0.6c1.1,0.2,2.6-0.5,3.6,0.1c0.2,0.1,0.3,0.3,0.6,0.3c0.2,0,0.4,0,0.6-0.1
		c1.5-0.5,5.7-2.2,6.6-0.4C268.6,234.5,266,238.7,264.9,239.6z"/>
</g>
<g id="Nose_2_">
	<path class="st3" d="M248.3,221.7L248.3,221.7c-3.3-1.2-15-5-16.5-0.4c0,2,3.2,4.9,5.3,5.4c0.6-1-1.1-1.8-0.3-2.4
		c1.3-0.9,4,0.2,4.3,3.4c0.1,0.8,7.2,2.6,7.2,2.6l0,0c0,0,7.1-1.8,7.2-2.6c0.3-3.1,3-4.3,4.3-3.4c0.9,0.6-0.9,1.5-0.3,2.4
		c2.1-0.5,5.3-3.4,5.3-5.4C263.3,216.8,251.6,220.6,248.3,221.7z"/>
	<path class="st0" d="M248.3,231.1c-0.1,0-0.3,0-0.4-0.1c-7.3-1.9-7.4-2.7-7.5-3.2c-0.1-1.4-0.8-2.4-1.8-2.9
		c-0.4-0.2-0.9-0.2-1.2-0.1c0,0.1,0.1,0.1,0.1,0.2c0.3,0.4,0.8,1.3,0.2,2.1c-0.2,0.3-0.5,0.4-0.8,0.3c-2.2-0.6-5.9-3.6-5.9-6.1
		c0-0.1,0-0.2,0-0.2c0.3-0.9,0.9-1.6,1.9-2.1c3.3-1.6,10.2,0.1,15.4,1.9c5.2-1.8,12-3.5,15.3-1.8c0.9,0.5,1.6,1.2,1.9,2.1
		c0,0.1,0,0.2,0,0.2c0,2.5-3.7,5.6-5.9,6.1c-0.3,0.1-0.6-0.1-0.8-0.3c-0.6-0.9-0.1-1.7,0.2-2.1c0-0.1,0.1-0.1,0.1-0.2
		c-0.3-0.2-0.8-0.1-1.2,0.1c-1,0.4-1.6,1.5-1.8,2.9c-0.1,0.5-0.1,1.3-7.7,3.2C248.5,231.1,248.4,231.1,248.3,231.1z M241.9,227.4
		c0.7,0.5,3.8,1.5,6.5,2.2c2.7-0.7,5.7-1.6,6.4-2.1c0.3-1.8,1.2-3.2,2.6-3.8c1-0.5,2.1-0.4,2.9,0.1c0.8,0.6,0.6,1.3,0.3,1.8
		c1.6-0.9,3.4-2.8,3.5-4c-0.2-0.5-0.5-0.8-1.1-1.1c-2.3-1.1-7.4-0.4-14.5,2c-0.2,0.1-0.5,0-0.7-0.1l0,0c-6.9-2.4-12-3-14.2-1.9
		c-0.5,0.3-0.9,0.6-1.1,1.1c0.1,1.3,1.9,3.1,3.5,4c-0.2-0.5-0.5-1.2,0.3-1.8c0.8-0.5,1.8-0.6,2.9-0.1
		C240.7,224.2,241.6,225.6,241.9,227.4z"/>
</g>
</svg>
