<?xml version="1.0" encoding="utf-8"?>
<!-- Generator: Adobe Illustrator 22.0.1, SVG Export Plug-In . SVG Version: 6.00 Build 0)  -->
<!DOCTYPE svg PUBLIC "-//W3C//DTD SVG 1.1//EN" "http://www.w3.org/Graphics/SVG/1.1/DTD/svg11.dtd">
<svg version="1.1" id="Layer_1" xmlns="http://www.w3.org/2000/svg" xmlns:xlink="http://www.w3.org/1999/xlink" x="0px" y="0px"
	 viewBox="0 0 429 429" style="enable-background:new 0 0 429 429;" xml:space="preserve">
<style type="text/css">
	.st0{fill:#FFFFFF;}
	.st1{fill:#00C1DE;}
	.st2{fill:#FFCD00;}
	.st3{fill:#0065A1;}
	.st4{fill:#FF595A;}
</style>
<polygon class="st0" points="208.6,88.8 234.1,160.7 303.1,128 270.3,196.9 342.2,222.5 270.3,248 303.1,317 234.1,284.2 
	208.6,356.1 183,284.2 114.1,317 146.8,248 74.9,222.5 146.8,196.9 114.1,128 183,160.7 "/>
<polygon class="st1" points="208.6,114.8 229.2,172.7 284.7,146.3 258.3,201.9 316.2,222.5 258.3,243.1 284.7,298.6 229.2,272.2 
	208.6,330.1 188,272.2 132.4,298.6 158.8,243.1 100.9,222.5 158.8,201.9 132.4,146.3 188,172.7 "/>
<path id="More_dots" class="st0" d="M234.2,371.1C234.2,371.1,234.2,371.1,234.2,371.1l-0.1,0c-1.8,0.3-3.6-0.9-3.9-2.7
	c-0.3-1.8,0.9-3.5,2.7-3.9c0,0,0,0,0,0l0.1,0c1.8-0.3,3.6,0.9,3.9,2.7C237.2,369,236,370.8,234.2,371.1z M243.3,369.2
	c-1.7,0.3-3.4-0.8-3.9-2.5c-0.4-1.8,0.6-3.6,2.4-4.1c0,0,0.1,0,0.1,0c1.8-0.4,3.6,0.7,4,2.5c0.4,1.8-0.7,3.6-2.5,4l-0.8-3.3l0.7,3.3
	C243.4,369.2,243.4,369.2,243.3,369.2z M225,372.4c-0.1,0-0.2,0-0.2,0c0,0-0.1,0-0.1,0c-1.8,0.2-3.5-1.2-3.7-3
	c-0.2-1.8,1.2-3.5,3-3.7c1.8-0.2,3.5,1.1,3.7,3C227.8,370.5,226.7,372.1,225,372.4z M252.4,366.8c-1.7,0.3-3.3-0.7-3.8-2.3
	c-0.5-1.8,0.4-3.6,2.2-4.2c0,0,0.1,0,0.1,0c1.8-0.6,3.7,0.4,4.2,2.2c0.6,1.8-0.4,3.7-2.2,4.2c0,0-0.1,0-0.1,0
	C252.6,366.7,252.5,366.8,252.4,366.8z M215.6,373.1c-0.2,0-0.3,0-0.5,0.1l-0.1,0c-1.9,0.1-3.4-1.3-3.5-3.2
	c-0.1-1.9,1.3-3.4,3.2-3.5l0.1,0c1.9-0.1,3.4,1.4,3.5,3.2C218.4,371.4,217.3,372.8,215.6,373.1z M261.2,363.8
	c-1.6,0.3-3.2-0.6-3.8-2.1c-0.6-1.7,0.3-3.7,2-4.3c1.7-0.7,3.7,0.2,4.4,1.9c0.7,1.7-0.2,3.7-1.9,4.3l-0.1,0
	C261.5,363.7,261.4,363.8,261.2,363.8z M206.3,373.2c-0.2,0-0.5,0.1-0.7,0.1c0,0-0.1,0-0.1,0c-1.9,0-3.3-1.6-3.3-3.4
	c0-1.9,1.6-3.3,3.4-3.3c1.9,0,3.4,1.6,3.3,3.4C208.9,371.6,207.8,373,206.3,373.2z M269.8,360.2c-1.5,0.3-3-0.5-3.7-1.9
	c-0.8-1.7,0-3.7,1.7-4.4c1.7-0.8,3.7,0,4.5,1.7c0.8,1.7,0.1,3.7-1.6,4.4l-0.1,0C270.3,360.1,270.1,360.2,269.8,360.2z M196.9,372.8
	c-0.3,0.1-0.6,0.1-0.9,0c0,0-0.1,0-0.1,0c-1.8-0.2-3.2-1.8-3.1-3.6c0.2-1.8,1.8-3.2,3.6-3.1c1.8,0.2,3.3,1.8,3.1,3.6
	C199.5,371.3,198.4,372.5,196.9,372.8z M278.3,356.1c-1.4,0.3-2.9-0.4-3.6-1.7c-0.9-1.6-0.3-3.6,1.3-4.5l0.2-0.1
	c1.6-0.9,3.7-0.2,4.5,1.4c0.9,1.6,0.2,3.7-1.4,4.5l-1.6-3l1.5,3C278.9,355.9,278.6,356,278.3,356.1z M187.6,371.7
	c-0.3,0.1-0.7,0.1-1.1,0l-0.2,0c-1.8-0.3-3.1-2-2.8-3.8c0.3-1.8,2-3.1,3.8-2.8c1.8,0.3,3.1,2,2.9,3.8
	C190.1,370.3,189,371.4,187.6,371.7z M286.4,351.4c-1.3,0.2-2.7-0.3-3.5-1.5c-1-1.6-0.5-3.6,1-4.6c0,0,0.1-0.1,0.1-0.1
	c1.6-1,3.7-0.5,4.6,1.1c1,1.6,0.5,3.7-1.1,4.6l-1.7-2.9l1.7,2.9C287.2,351.2,286.8,351.4,286.4,351.4z M178.4,370
	c-0.4,0.1-0.9,0.1-1.3,0l-0.1,0c-1.8-0.4-3-2.2-2.5-4c0.4-1.8,2.2-3,4-2.5c1.8,0.4,3,2.2,2.6,4C180.8,368.8,179.7,369.8,178.4,370z
	 M294.2,346.3c-1.2,0.2-2.6-0.2-3.4-1.3c-1.1-1.5-0.7-3.6,0.8-4.7c0,0,0.1-0.1,0.1-0.1c1.5-1.1,3.6-0.7,4.7,0.8
	c1.1,1.5,0.7,3.6-0.8,4.7l-1.9-2.8l1.9,2.8C295.1,346,294.6,346.2,294.2,346.3z M169.3,367.8c-0.5,0.1-1,0.1-1.5-0.1l-0.1,0
	c-1.8-0.5-2.8-2.4-2.3-4.2c0.5-1.8,2.4-2.8,4.2-2.3c1.8,0.5,2.9,2.4,2.4,4.1C171.6,366.7,170.5,367.6,169.3,367.8z M301.6,340.7
	c-1.2,0.2-2.4-0.2-3.2-1.2c-1.2-1.4-0.9-3.6,0.5-4.7c1.4-1.2,3.6-1,4.8,0.5c1.2,1.4,1,3.5-0.5,4.7l-0.1,0.1
	C302.7,340.4,302.1,340.6,301.6,340.7z M160.4,365c-0.5,0.1-1.1,0.1-1.7-0.1c0,0-0.1,0-0.1,0c-1.7-0.6-2.6-2.6-2-4.3
	c0.6-1.7,2.6-2.6,4.3-2c1.7,0.6,2.7,2.6,2.1,4.3C162.5,364,161.5,364.8,160.4,365z M308.7,334.6c-1.1,0.2-2.3-0.1-3.1-1
	c-1.3-1.4-1.2-3.5,0.2-4.7c1.4-1.3,3.5-1.2,4.8,0.2c1.3,1.4,1.2,3.5-0.2,4.7l-0.1,0.1C309.9,334.2,309.3,334.5,308.7,334.6z
	 M151.6,361.6c-0.6,0.1-1.3,0.1-1.9-0.2c0,0-0.1,0-0.1,0c-1.7-0.7-2.5-2.7-1.7-4.4c0.7-1.7,2.7-2.5,4.4-1.7c1.7,0.7,2.5,2.7,1.8,4.4
	C153.6,360.7,152.7,361.4,151.6,361.6z M315.4,328c-1,0.2-2.1-0.1-2.9-0.8c-1.3-1.3-1.4-3.3-0.2-4.7c0,0,0.1-0.1,0.1-0.1
	c1.3-1.3,3.4-1.4,4.8-0.1c1.3,1.3,1.4,3.4,0.1,4.7c0,0,0,0,0,0C316.7,327.6,316.1,327.9,315.4,328z M143.1,357.7
	c-0.7,0.1-1.4,0-2.1-0.3l-0.1,0c-1.7-0.8-2.3-2.9-1.5-4.5c0.8-1.7,2.9-2.3,4.5-1.5c1.7,0.8,2.4,2.9,1.5,4.5
	C145,356.8,144.1,357.5,143.1,357.7z M321.7,321.1c-1,0.2-2-0.1-2.8-0.8c-1.4-1.2-1.6-3.3-0.3-4.7c1.2-1.4,3.3-1.6,4.7-0.4
	c1.4,1.2,1.6,3.3,0.4,4.7c0,0-0.1,0.1-0.1,0.1C323.1,320.6,322.4,321,321.7,321.1z M134.9,353.2c-0.8,0.1-1.6,0-2.3-0.4l-0.1,0
	c-1.6-0.9-2.2-3-1.2-4.6c0.9-1.6,3-2.2,4.6-1.2l0.1,0c1.6,0.9,2.1,3,1.2,4.6C136.7,352.5,135.9,353,134.9,353.2z M327.5,313.8
	c-0.9,0.2-1.8,0-2.6-0.6c-1.5-1.1-1.8-3.2-0.7-4.7c0,0,0.1-0.1,0.1-0.1c1.1-1.5,3.2-1.8,4.7-0.7c1.5,1.1,1.8,3.2,0.7,4.7l-2.7-2
	l2.7,2.1C329,313.2,328.3,313.6,327.5,313.8z M127,348.2c-0.8,0.2-1.7,0-2.5-0.5l1.9-2.8l-1.9,2.7c-1.5-1-2-3.1-0.9-4.7
	c1-1.5,3.1-2,4.7-0.9l0.1,0.1c1.5,1,2,3.1,0.9,4.7C128.7,347.6,127.9,348.1,127,348.2z M332.8,306.1c-0.8,0.2-1.7,0-2.4-0.5
	c-1.5-1-2-3-1.1-4.6l0.1-0.2c1-1.5,3.1-2,4.7-0.9c1.5,1,2,3.1,0.9,4.7l-2.8-1.9l2.8,1.9C334.5,305.4,333.7,305.9,332.8,306.1z
	 M119.4,342.8c-0.9,0.2-1.9,0-2.7-0.7l2.1-2.7l-2.1,2.6c-1.5-1.1-1.8-3.2-0.7-4.7c1.1-1.5,3.2-1.8,4.7-0.7c0,0,0.1,0.1,0.1,0.1
	c1.5,1.1,1.7,3.3,0.6,4.7C120.9,342.2,120.2,342.6,119.4,342.8z M337.7,298.1c-0.7,0.1-1.5,0-2.3-0.4c-1.6-0.9-2.2-2.9-1.3-4.6
	l0.1-0.1c0.9-1.6,3-2.2,4.6-1.3c1.6,0.9,2.2,3,1.3,4.6l0,0.1C339.5,297.4,338.6,297.9,337.7,298.1z M112.1,336.8
	c-1,0.2-2-0.1-2.8-0.8c0,0-0.1-0.1-0.1-0.1c-1.4-1.2-1.5-3.4-0.3-4.7c1.2-1.4,3.3-1.5,4.7-0.3c1.4,1.2,1.6,3.4,0.3,4.8
	C113.5,336.3,112.8,336.7,112.1,336.8z M342,289.8c-0.7,0.1-1.4,0-2.1-0.3c-1.7-0.8-2.3-2.9-1.5-4.5c0.8-1.7,2.8-2.4,4.5-1.6
	c1.7,0.8,2.4,2.8,1.6,4.5l-0.1,0.2C343.9,289,343,289.6,342,289.8z M105.3,330.5c-1,0.2-2.1-0.1-2.9-0.9c0,0-0.1-0.1-0.1-0.1
	c-1.3-1.3-1.3-3.4,0-4.8c1.3-1.3,3.4-1.3,4.8,0c1.3,1.3,1.3,3.5,0,4.8C106.5,330,105.9,330.4,105.3,330.5z M345.8,281.3
	c-0.6,0.1-1.3,0.1-1.9-0.2c-1.7-0.7-2.5-2.7-1.8-4.4c0.7-1.7,2.7-2.6,4.4-1.9c1.7,0.7,2.6,2.6,1.9,4.3c0,0,0,0.1-0.1,0.1
	C347.8,280.3,346.9,281.1,345.8,281.3z M98.8,323.7c-1.1,0.2-2.3-0.1-3.1-1c0,0-0.1-0.1-0.1-0.1c-1.2-1.4-1.1-3.5,0.3-4.7
	c1.4-1.2,3.5-1.1,4.7,0.3c1.2,1.4,1.1,3.5-0.3,4.8C100,323.3,99.4,323.6,98.8,323.7z M349.1,272.5c-0.5,0.1-1.1,0.1-1.7-0.1
	c-1.8-0.6-2.7-2.4-2.2-4.2l0-0.1c0.6-1.8,2.5-2.7,4.3-2.1c1.8,0.6,2.7,2.5,2.1,4.3l-3.2-1.1l3.2,1.1
	C351.2,271.4,350.2,272.3,349.1,272.5z M92.9,316.5c-1.2,0.2-2.5-0.2-3.3-1.2l2.6-2.1l-2.7,2c-1.2-1.5-0.9-3.6,0.6-4.7
	c1.5-1.1,3.6-0.9,4.7,0.6c0,0,0.1,0.1,0.1,0.1c1.1,1.5,0.9,3.6-0.6,4.7C93.9,316.2,93.4,316.4,92.9,316.5z M351.7,263.5
	c-0.5,0.1-1,0.1-1.4,0c-1.8-0.5-2.9-2.3-2.4-4.1l0-0.2c0.5-1.8,2.3-2.8,4.1-2.4c1.8,0.5,2.8,2.3,2.4,4.1l-3.2-0.9l3.2,0.9
	C354,262.3,353,263.3,351.7,263.5z M87.4,309c-1.3,0.2-2.6-0.3-3.4-1.4l2.8-1.9l-2.8,1.8c-1.1-1.5-0.7-3.6,0.8-4.7
	c1.5-1.1,3.6-0.7,4.7,0.8c0,0,0.1,0.1,0.1,0.1c1,1.5,0.6,3.6-0.9,4.7C88.3,308.7,87.8,308.9,87.4,309z M353.9,254.4
	c-0.4,0.1-0.8,0.1-1.2,0c-1.8-0.3-3-2.1-2.7-3.9l0-0.2c0.4-1.8,2.1-3,4-2.6c1.8,0.4,3,2.1,2.6,4l-3.3-0.7l3.3,0.7
	C356.3,253.1,355.2,254.1,353.9,254.4z M82.4,301.1c-1.4,0.3-2.8-0.3-3.5-1.6l2.9-1.7l-2.9,1.7c-1-1.6-0.5-3.7,1.1-4.6
	c1.6-1,3.7-0.5,4.6,1.1c0,0,0.1,0.1,0.1,0.1c0.9,1.6,0.4,3.7-1.2,4.6C83.1,300.9,82.7,301.1,82.4,301.1z M355.4,245.1
	c-0.3,0.1-0.7,0.1-1,0c-1.8-0.2-3.1-1.9-2.9-3.7l0-0.2c0.3-1.8,2-3.1,3.8-2.9c1.8,0.3,3.1,2,2.9,3.8l-3.3-0.5l3.3,0.5
	C357.9,243.7,356.8,244.9,355.4,245.1z M77.8,292.9c-1.4,0.3-2.9-0.4-3.6-1.8l3-1.5l-3,1.5c-0.9-1.6-0.2-3.7,1.4-4.5
	c1.6-0.9,3.7-0.2,4.5,1.4c0,0,0.1,0.1,0.1,0.1c0.8,1.7,0.2,3.7-1.5,4.5C78.4,292.8,78.1,292.9,77.8,292.9z M356.3,235.8
	c-0.3,0-0.5,0.1-0.8,0.1c-1.8-0.1-3.2-1.7-3.1-3.5c0,0,0-0.2,0-0.2c0.1-1.8,1.8-3.2,3.6-3.1c1.8,0.1,3.2,1.8,3.1,3.6l-3.3-0.3
	l3.3,0.3C358.9,234.3,357.8,235.5,356.3,235.8z M73.8,284.4c-1.5,0.3-3-0.5-3.7-1.9c0,0,0-0.1,0-0.1c-0.7-1.7,0.1-3.7,1.8-4.4
	c1.7-0.7,3.7,0.1,4.4,1.8c0.7,1.7,0,3.7-1.7,4.5C74.3,284.3,74.1,284.4,73.8,284.4z M356.7,226.5c-0.2,0-0.5,0.1-0.7,0.1
	c-1.9,0-3.3-1.6-3.3-3.4c0-1.9,1.5-3.4,3.3-3.4c1.9,0,3.4,1.5,3.4,3.3c0,0,0,0.2,0,0.2C359.4,224.9,358.2,226.2,356.7,226.5z
	 M70.4,275.7c-1.6,0.3-3.2-0.6-3.7-2.1c0,0,0-0.1,0-0.1c-0.6-1.8,0.3-3.7,2.1-4.3c1.8-0.6,3.7,0.3,4.3,2.1c0.6,1.7-0.3,3.7-2,4.3
	C70.7,275.7,70.5,275.7,70.4,275.7z M356.4,217.1c-0.2,0-0.3,0-0.5,0.1c-1.9,0.1-3.4-1.4-3.5-3.2c-0.1-1.9,1.3-3.5,3.1-3.6
	c1.9-0.1,3.5,1.3,3.6,3.1c0,0,0,0.2,0,0.2C359.2,215.4,358,216.8,356.4,217.1z M67.5,266.9c-1.7,0.3-3.4-0.7-3.9-2.4l3.2-0.9
	l-3.2,0.9c-0.5-1.8,0.5-3.6,2.3-4.2c1.8-0.5,3.6,0.5,4.2,2.3l0,0.1c0.5,1.8-0.5,3.6-2.3,4.1C67.7,266.8,67.6,266.9,67.5,266.9z
	 M355.5,207.8c-0.1,0-0.1,0-0.2,0c-1.8,0.2-3.5-1.1-3.8-2.9c-0.2-1.8,1-3.6,2.9-3.8c1.8-0.2,3.5,1,3.8,2.9l0,0.1
	C358.5,205.9,357.3,207.5,355.5,207.8z M65.2,257.8c-1.8,0.3-3.5-0.8-3.9-2.6l3.3-0.7l-3.3,0.7c-0.4-1.8,0.7-3.6,2.5-4
	c1.8-0.4,3.6,0.7,4,2.5c0,0,0,0.1,0,0.1C68.3,255.6,67.1,257.4,65.2,257.8C65.3,257.8,65.2,257.8,65.2,257.8z M354.1,198.6
	c-1.8,0.3-3.6-0.9-3.9-2.7l0-0.1c0,0,0-0.1,0-0.1c0,0,0-0.1,0-0.1c-0.3-1.8,0.8-3.6,2.7-4c1.8-0.3,3.6,0.8,3.9,2.6l0,0.1
	c0,0,0,0.1,0,0.1c0,0,0,0.1,0,0.1l0,0.1C357.1,196.5,355.9,198.2,354.1,198.6z M63.5,248.6C63.4,248.6,63.4,248.6,63.5,248.6
	c-1.9,0.3-3.7-0.9-3.9-2.8l0-0.1c-0.3-1.8,0.9-3.6,2.8-3.8c1.8-0.3,3.6,1,3.8,2.8l0,0.1C66.5,246.6,65.3,248.3,63.5,248.6z
	 M352,189.1c-1.7,0.3-3.4-0.7-3.8-2.4c0,0,0-0.2,0-0.2c-0.5-1.8,0.6-3.6,2.4-4.1c1.8-0.4,3.6,0.6,4.1,2.4l-3.3,0.8l3.3-0.8
	c0.5,1.8-0.6,3.6-2.4,4.1C352.2,189.1,352.1,189.1,352,189.1z M62.3,239.3c-0.1,0-0.2,0-0.3,0c-1.8,0.2-3.5-1.1-3.7-3l0-0.1
	c-0.2-1.8,1.2-3.5,3.1-3.6c1.8-0.2,3.5,1.2,3.6,3.1C65.2,237.4,64,239,62.3,239.3z M349.4,180.1c-1.6,0.3-3.2-0.6-3.8-2.2
	c0,0-0.1-0.2-0.1-0.2c-0.6-1.8,0.4-3.7,2.2-4.2c1.8-0.5,3.7,0.4,4.2,2.2l-3.2,1l3.2-1c0.6,1.8-0.4,3.7-2.1,4.2
	C349.7,180,349.5,180.1,349.4,180.1z M61.7,230c-0.2,0-0.4,0.1-0.5,0.1c-1.9,0-3.4-1.4-3.4-3.3l3.4-0.1l-3.4,0
	c-0.1-1.9,1.4-3.4,3.2-3.5c1.9-0.1,3.4,1.4,3.5,3.2c0,0,0,0.1,0,0.1C64.5,228.3,63.3,229.7,61.7,230z M346.2,171.3
	c-1.5,0.3-3.1-0.5-3.7-2c0,0-0.1-0.1-0.1-0.2c-0.7-1.7,0.2-3.7,1.9-4.3c1.7-0.7,3.7,0.2,4.3,1.9l-3.1,1.2l3.1-1.2
	c0.7,1.7-0.2,3.7-1.9,4.4C346.6,171.2,346.4,171.3,346.2,171.3z M61.7,220.6c-0.2,0-0.5,0.1-0.7,0.1c-1.9-0.1-3.3-1.6-3.2-3.4l0-0.1
	c0.1-1.9,1.6-3.3,3.5-3.2c1.9,0.1,3.3,1.6,3.2,3.5C64.4,219,63.3,220.3,61.7,220.6z M342.5,162.7c-1.5,0.3-3-0.5-3.7-1.9
	c-0.8-1.7-0.1-3.7,1.6-4.5c1.7-0.8,3.7-0.1,4.5,1.6c0,0,0.1,0.1,0.1,0.2c0.8,1.7,0,3.7-1.7,4.4C343,162.6,342.8,162.7,342.5,162.7z
	 M62.4,211.3c-0.3,0.1-0.6,0.1-1,0c-1.8-0.2-3.2-1.8-3-3.7l3.3,0.3l-3.3-0.4c0.2-1.8,1.8-3.2,3.7-3c1.8,0.2,3.2,1.8,3,3.7
	c0,0,0,0.1,0,0.1C64.9,209.9,63.8,211,62.4,211.3z M338.3,154.4c-1.4,0.3-2.9-0.4-3.6-1.7c-0.9-1.6-0.3-3.7,1.3-4.6
	c1.6-0.9,3.6-0.3,4.5,1.3c0,0,0.1,0.1,0.1,0.2c0.9,1.6,0.3,3.7-1.4,4.5C338.9,154.2,338.6,154.4,338.3,154.4z M63.6,202
	c-0.4,0.1-0.7,0.1-1.1,0c-1.8-0.3-3.1-2-2.8-3.8l0-0.1c0.3-1.8,2-3.1,3.9-2.8c1.8,0.3,3.1,2,2.8,3.9C66.1,200.6,64.9,201.7,63.6,202
	z M333.5,146.4c-1.3,0.3-2.7-0.3-3.5-1.6c-1-1.6-0.6-3.6,1-4.6c1.5-1,3.6-0.6,4.7,1c0,0,0.1,0.1,0.1,0.2c1,1.6,0.5,3.7-1.1,4.6
	C334.2,146.2,333.9,146.3,333.5,146.4z M65.4,192.8c-0.4,0.1-0.9,0.1-1.3,0c-1.8-0.4-3-2.2-2.6-4l0-0.2c0.4-1.8,2.3-2.9,4.1-2.5
	c1.8,0.4,2.9,2.3,2.5,4.1C67.7,191.6,66.7,192.6,65.4,192.8z M328.2,138.7c-1.3,0.2-2.6-0.3-3.4-1.4c-1.1-1.5-0.8-3.6,0.7-4.7
	c1.5-1.1,3.6-0.8,4.7,0.7c0,0,0.1,0.1,0.1,0.2c1.1,1.5,0.7,3.6-0.8,4.7C329.1,138.4,328.6,138.6,328.2,138.7z M67.8,183.8
	c-0.5,0.1-1,0.1-1.6-0.1c-1.8-0.5-2.8-2.4-2.3-4.2l0-0.2c0.6-1.8,2.4-2.8,4.2-2.2c1.8,0.6,2.8,2.4,2.2,4.2
	C70,182.7,69,183.5,67.8,183.8z M322.4,131.3c-1.2,0.2-2.4-0.2-3.2-1.2c-1.2-1.4-1-3.5,0.4-4.7c1.4-1.2,3.5-1,4.7,0.4
	c0,0,0.1,0.1,0.1,0.2c1.2,1.4,0.9,3.6-0.5,4.7C323.5,131,323,131.2,322.4,131.3z M70.7,174.9c-0.6,0.1-1.2,0.1-1.7-0.1
	c-1.7-0.6-2.7-2.5-2-4.3l0-0.1c0.6-1.7,2.6-2.6,4.3-2c1.7,0.6,2.6,2.6,2,4.3C72.9,173.8,71.9,174.6,70.7,174.9z M316.2,124.3
	c-1.1,0.2-2.2-0.1-3-0.9c0,0-0.1-0.1-0.1-0.1c-1.3-1.4-1.2-3.5,0.2-4.7c1.4-1.3,3.5-1.2,4.7,0.2l-2.5,2.3l2.5-2.3
	c1.3,1.3,1.2,3.5-0.1,4.7C317.4,123.9,316.8,124.2,316.2,124.3z M74.2,166.2c-0.7,0.1-1.3,0.1-2-0.2c-1.7-0.8-2.4-2.7-1.7-4.4
	l3.1,1.4l-3.1-1.4c0.7-1.7,2.7-2.5,4.4-1.8c1.7,0.7,2.5,2.7,1.8,4.4l-0.1,0.1C76.2,165.3,75.3,166,74.2,166.2z M309.5,117.7
	c-1,0.2-2-0.1-2.8-0.8c0,0-0.1-0.1-0.1-0.1c-1.3-1.3-1.4-3.4-0.1-4.7c1.3-1.3,3.4-1.4,4.7-0.1l-2.3,2.4l2.3-2.4
	c1.3,1.3,1.5,3.4,0.2,4.7C310.9,117.3,310.2,117.6,309.5,117.7z M78.3,157.7c-0.7,0.1-1.5,0-2.1-0.3c-1.6-0.9-2.3-2.8-1.5-4.5
	c0,0,0.1-0.1,0.1-0.1c0.9-1.6,2.9-2.3,4.5-1.4c1.6,0.9,2.3,2.9,1.4,4.5C80.2,156.9,79.3,157.5,78.3,157.7z M302.5,111.6
	c-0.9,0.2-1.9,0-2.7-0.7c-1.4-1.2-1.7-3.3-0.5-4.8c1.2-1.4,3.2-1.7,4.7-0.5l0.1,0.1c1.4,1.2,1.7,3.3,0.5,4.7
	C304,111.1,303.3,111.5,302.5,111.6z M82.9,149.6c-0.8,0.1-1.6,0-2.3-0.4c-1.6-1-2.1-3-1.2-4.6c0,0,0.1-0.1,0.1-0.1
	c1-1.6,3-2.1,4.6-1.1c1.6,1,2.1,3,1.1,4.6C84.7,148.8,83.8,149.4,82.9,149.6z M295.1,105.9c-0.9,0.2-1.8,0-2.6-0.6
	c-1.5-1.1-1.9-3.2-0.8-4.7c1.1-1.5,3.2-1.9,4.7-0.8l0.2,0.1c1.5,1.1,1.8,3.2,0.7,4.7C296.6,105.3,295.9,105.8,295.1,105.9z
	 M88,141.8c-0.9,0.2-1.8,0-2.5-0.5c-1.5-1.1-1.9-3.2-0.8-4.7l0,0c1-1.5,3.1-1.9,4.7-0.9c1.5,1,1.9,3.1,0.9,4.7l-0.1,0.1
	C89.6,141.1,88.8,141.6,88,141.8z M287.3,100.7c-0.8,0.2-1.7,0-2.4-0.5c-1.6-1-2.1-3.1-1.1-4.6c1-1.6,3-2.1,4.6-1.1
	c0,0,0.1,0.1,0.1,0.1c1.6,1,2,3.1,1,4.6C289,100,288.2,100.6,287.3,100.7z M93.6,134.2c-0.9,0.2-1.9,0-2.7-0.7
	c-1.4-1.1-1.7-3.2-0.6-4.7c0,0,0.1-0.1,0.1-0.1c1.2-1.4,3.3-1.7,4.7-0.5c1.4,1.2,1.7,3.3,0.5,4.7C95,133.6,94.3,134.1,93.6,134.2z
	 M279.2,96c-0.7,0.1-1.5,0-2.2-0.3c0,0-0.1-0.1-0.1-0.1c-1.6-0.9-2.2-2.9-1.3-4.6c0.9-1.6,2.9-2.2,4.6-1.3l-1.6,2.9l1.7-2.9
	c1.6,0.9,2.3,2.9,1.4,4.5C281.1,95.2,280.2,95.8,279.2,96z M99.6,127.1c-1,0.2-2.1-0.1-2.9-0.8c-1.4-1.2-1.5-3.4-0.2-4.7l2.5,2.3
	l-2.5-2.3c1.2-1.4,3.3-1.5,4.7-0.3c1.4,1.2,1.5,3.4,0.3,4.7c0,0-0.1,0.1-0.1,0.1C100.9,126.6,100.3,127,99.6,127.1z M270.9,91.8
	c-0.7,0.1-1.4,0.1-2-0.3c-1.7-0.8-2.4-2.8-1.7-4.5c0.8-1.7,2.7-2.4,4.4-1.6c0,0,0.1,0,0.1,0c1.7,0.8,2.4,2.8,1.6,4.5
	C272.8,91,271.9,91.6,270.9,91.8z M106.1,120.3c-1.1,0.2-2.2-0.1-3-0.9c-1.3-1.3-1.3-3.4,0-4.7c0,0,0.1-0.1,0.1-0.1
	c1.3-1.3,3.5-1.3,4.7,0.1c1.3,1.3,1.3,3.5-0.1,4.7C107.3,119.9,106.7,120.2,106.1,120.3z M262.2,88.2c-0.6,0.1-1.2,0.1-1.8-0.2
	c-1.7-0.7-2.6-2.6-2-4.4c0.7-1.7,2.6-2.6,4.3-1.9l0.1,0c1.7,0.7,2.6,2.6,1.9,4.3C264.3,87.2,263.3,88,262.2,88.2z M112.9,114
	c-1.1,0.2-2.4-0.2-3.2-1.1c-1.2-1.4-1-3.5,0.4-4.7l2.2,2.5l-2.1-2.6c1.4-1.2,3.5-1.1,4.7,0.3c1.2,1.4,1.1,3.5-0.3,4.7
	c0,0-0.1,0.1-0.1,0.1C114,113.7,113.5,113.9,112.9,114z M253.4,85.1c-0.5,0.1-1.1,0.1-1.7-0.1c-1.8-0.6-2.8-2.5-2.2-4.2
	c0.6-1.8,2.4-2.7,4.2-2.2c0,0,0.1,0,0.1,0c1.8,0.6,2.7,2.5,2.1,4.2C255.6,84,254.6,84.9,253.4,85.1z M120.2,108.1
	c-1.2,0.2-2.5-0.2-3.3-1.3c-1.1-1.5-0.8-3.6,0.7-4.7l2,2.7l-2-2.7c1.5-1.1,3.6-0.9,4.7,0.6c1.1,1.5,0.9,3.6-0.6,4.7
	c0,0-0.1,0.1-0.1,0.1C121.1,107.8,120.7,108.1,120.2,108.1z M244.4,82.5c-0.5,0.1-1,0.1-1.5,0c-1.8-0.5-2.9-2.3-2.5-4.1
	c0.4-1.8,2.2-2.9,4-2.5c0,0,0.1,0,0.1,0c1.8,0.5,2.9,2.3,2.4,4.1C246.7,81.4,245.6,82.3,244.4,82.5z M127.8,102.7
	c-1.3,0.2-2.7-0.3-3.4-1.5c-1-1.6-0.6-3.6,1-4.6l1.8,2.8l-1.8-2.8c1.5-1,3.6-0.6,4.7,0.9c1,1.5,0.6,3.6-0.9,4.6c0,0-0.1,0.1-0.1,0.1
	C128.6,102.5,128.2,102.7,127.8,102.7z M235.2,80.6c-0.4,0.1-0.8,0.1-1.2,0c-1.8-0.3-3.1-2.1-2.8-3.9c0.3-1.8,2-3.1,3.9-2.7l0.1,0
	c1.8,0.3,3,2.1,2.7,3.9C237.6,79.3,236.5,80.3,235.2,80.6z M135.7,97.8c-1.4,0.3-2.8-0.4-3.5-1.6c-0.9-1.6-0.4-3.7,1.3-4.6l1.7,2.9
	l-1.6-3c1.6-0.9,3.7-0.4,4.6,1.2c0.9,1.6,0.4,3.7-1.2,4.6c0,0-0.1,0.1-0.1,0.1C136.5,97.6,136.1,97.8,135.7,97.8z M225.9,79.2
	c-0.3,0.1-0.7,0.1-1.1,0c-1.8-0.2-3.2-1.9-3-3.7c0.2-1.8,1.8-3.2,3.7-3l0.2,0c1.8,0.2,3.1,1.9,2.9,3.8
	C228.5,77.8,227.3,79,225.9,79.2z M144,93.4c-1.5,0.3-3-0.4-3.6-1.8c-0.8-1.7-0.1-3.7,1.6-4.5l1.5,3l-1.4-3c1.7-0.8,3.7-0.2,4.5,1.5
	c0.8,1.7,0.2,3.7-1.5,4.5c0,0-0.1,0.1-0.1,0.1C144.6,93.3,144.3,93.4,144,93.4z M216.6,78.5c-0.3,0-0.5,0.1-0.8,0.1
	c-1.9-0.1-3.3-1.7-3.2-3.5c0.1-1.9,1.6-3.3,3.5-3.2l0.1,0c1.9,0.1,3.3,1.7,3.2,3.5C219.3,76.9,218.1,78.2,216.6,78.5z M152.5,89.6
	c-1.5,0.3-3.1-0.5-3.7-2c-0.7-1.7,0.1-3.7,1.8-4.4l1.3,3.1l-1.2-3.1c1.7-0.7,3.7,0.1,4.4,1.8c0.7,1.7-0.1,3.7-1.8,4.4
	c0,0-0.1,0-0.1,0C153,89.5,152.7,89.5,152.5,89.6z M207.3,78.3c-0.2,0-0.4,0.1-0.6,0.1l-0.1,0c-1.9,0-3.4-1.5-3.4-3.3
	c0-1.9,1.5-3.4,3.3-3.4l0.1,0c1.9,0,3.4,1.4,3.4,3.3C210,76.6,208.9,78,207.3,78.3z M161.4,86.3c-1.6,0.3-3.3-0.6-3.8-2.2
	c-0.6-1.7,0.3-3.6,2-4.2c0,0,0.1,0,0.1,0c1.8-0.6,3.7,0.4,4.2,2.1c0.6,1.8-0.4,3.7-2.1,4.2C161.6,86.2,161.5,86.2,161.4,86.3z
	 M197.9,78.7c-0.1,0-0.3,0-0.4,0.1c-1.8,0.2-3.5-1.2-3.6-3.1c-0.2-1.8,1.2-3.5,3-3.6l0.1,0c1.9-0.1,3.5,1.3,3.6,3.1
	C200.8,76.9,199.6,78.4,197.9,78.7z M170.2,83.5c-1.7,0.3-3.4-0.7-3.9-2.4c-0.5-1.8,0.6-3.6,2.4-4.1l0.9,3.2l-0.8-3.3
	c1.8-0.5,3.6,0.5,4.1,2.3c0.5,1.8-0.5,3.6-2.3,4.1c0,0-0.1,0-0.1,0C170.4,83.5,170.3,83.5,170.2,83.5z M188.6,79.7c0,0-0.1,0-0.1,0
	c-1.8,0.3-3.6-1-3.8-2.8c-0.3-1.8,1-3.5,2.8-3.8l0.1,0c1.8-0.3,3.5,1,3.8,2.8C191.6,77.8,190.4,79.4,188.6,79.7z M179.3,81.4
	c-1.8,0.3-3.5-0.8-3.9-2.6c-0.4-1.8,0.8-3.6,2.6-4l0.7,3.3l-0.6-3.3c1.8-0.4,3.6,0.8,4,2.6c0.4,1.8-0.7,3.6-2.6,4
	C179.5,81.3,179.4,81.3,179.3,81.4C179.4,81.4,179.3,81.4,179.3,81.4z"/>
<g>
	<g id="XMLID_31_">
		<g>
			<g>
				<path class="st0" d="M272.1,102.8c0,0-8.8,5.2-17.3,14.8c1.8-12.6,0.3-22.7,0.3-22.7s-10.4,11.9-15.2,28.6
					c-2.6,8.9-4,17.2-4.3,23.1c0.6-3.4,1.9-7.5,3.8-11.7c4.6-9.9,14.4-15.1,14.4-15.1s2.4,10.9-2.2,20.8c-2,4.3-4.3,8-6.6,10.7
					c4.4-4,9.9-10.6,15.2-18.5C269.8,118.3,272.1,102.8,272.1,102.8z"/>
				<path class="st1" d="M253.8,119.9c0,0-9.8,5.2-14.4,15.1c-1.9,4.2-3.2,8.3-3.8,11.7c-0.8,4.7-0.3,8.1,1.6,9.1
					c1.9,0.9,4.8-0.9,7.8-4.4c2.3-2.7,4.6-6.4,6.6-10.7C256.2,130.8,253.8,119.9,253.8,119.9z"/>
			</g>
			<g>
				<circle class="st0" cx="221.2" cy="139.2" r="12"/>
				<circle class="st1" cx="221.2" cy="139.2" r="7.4"/>
			</g>
			<g>
				<circle class="st0" cx="260" cy="157.2" r="12"/>
				<circle class="st1" cx="260" cy="157.2" r="7.4"/>
			</g>
		</g>
	</g>
	<g id="XMLID_30_">
		<g>
			<g>
				<path class="st0" d="M170,90.8c0,0-2.9,9.8-2.6,22.6c-7.2-10.5-15.2-16.8-15.2-16.8s0.4,15.8,8.2,31.4
					c4.2,8.3,8.7,15.3,12.5,19.9c-1.9-2.9-3.7-6.8-5.1-11.2c-3.3-10.4,0.4-20.9,0.4-20.9s9.1,6.4,12.5,16.7
					c1.4,4.5,2.2,8.8,2.4,12.3c0.5-5.9,0.1-14.5-1.4-23.9C178.9,103.8,170,90.8,170,90.8z"/>
				<path class="st1" d="M168.2,115.8c0,0-3.7,10.5-0.4,20.9c1.4,4.4,3.2,8.3,5.1,11.2c2.6,4,5.3,6.2,7.3,5.5c2-0.6,2.9-3.9,2.7-8.6
					c-0.1-3.5-0.9-7.8-2.4-12.3C177.3,122.1,168.2,115.8,168.2,115.8z"/>
			</g>
			<g>
				<circle class="st0" cx="157.4" cy="152.1" r="12"/>
				<circle class="st1" cx="157.4" cy="152.1" r="7.4"/>
			</g>
			<g>
				<circle class="st0" cx="198" cy="138.9" r="12"/>
				<circle class="st1" cx="198" cy="138.9" r="7.4"/>
			</g>
		</g>
	</g>
	<g id="XMLID_29_">
		<g>
			<g>
				<path class="st0" d="M89.5,159.5c0,0,4.8,9,14.1,17.9c-12.5-2.4-22.7-1.2-22.7-1.2s11.4,10.9,28,16.4c8.8,2.9,17,4.7,22.9,5.3
					c-3.4-0.7-7.4-2.2-11.5-4.3c-9.7-5-14.5-15-14.5-15s10.9-1.9,20.6,3.1c4.2,2.2,7.8,4.7,10.4,7.1c-3.8-4.6-10.2-10.3-17.8-15.9
					C104.9,162.5,89.5,159.5,89.5,159.5z"/>
				<path class="st1" d="M105.8,178.5c0,0,4.8,10,14.5,15c4.1,2.1,8.1,3.6,11.5,4.3c4.6,1,8.1,0.7,9.1-1.2c1-1.9-0.7-4.9-4.1-8
					c-2.6-2.4-6.2-4.9-10.4-7.1C116.7,176.6,105.8,178.5,105.8,178.5z"/>
			</g>
			<g>
				<circle class="st0" cx="123.7" cy="211.9" r="12"/>
				<circle class="st1" cx="123.7" cy="211.9" r="7.4"/>
			</g>
			<g>
				<circle class="st0" cx="143.3" cy="173.9" r="12"/>
				<circle class="st1" cx="143.3" cy="173.9" r="7.4"/>
			</g>
		</g>
	</g>
	<g id="XMLID_28_">
		<g>
			<g>
				<path class="st0" d="M78.3,261.7c0,0,9.8,2.9,22.6,2.7C90.3,271.6,84,279.6,84,279.6s15.8-0.3,31.4-8.1
					c8.3-4.1,15.4-8.6,19.9-12.4c-2.9,1.9-6.8,3.7-11.2,5.1c-10.4,3.3-20.9-0.4-20.9-0.4s6.4-9.1,16.8-12.4
					c4.5-1.4,8.8-2.2,12.3-2.3c-5.9-0.5-14.5-0.1-23.9,1.3C91.2,252.9,78.3,261.7,78.3,261.7z"/>
				<path class="st1" d="M103.2,263.7c0,0,10.5,3.7,20.9,0.4c4.4-1.4,8.3-3.2,11.2-5.1c4-2.6,6.2-5.3,5.6-7.3
					c-0.6-2-3.9-2.9-8.5-2.8c-3.5,0.1-7.8,0.9-12.3,2.3C109.6,254.6,103.2,263.7,103.2,263.7z"/>
			</g>
			<g>
				<circle class="st0" cx="139.5" cy="274.6" r="12"/>
				<circle class="st1" cx="139.5" cy="274.6" r="7.4"/>
			</g>
			<g>
				<circle class="st0" cx="126.5" cy="233.9" r="12"/>
				<circle class="st1" cx="126.5" cy="233.9" r="7.4"/>
			</g>
		</g>
	</g>
	<g id="XMLID_27_">
		<g>
			<g>
				<path class="st0" d="M143.4,342.5c0,0,9-4.8,17.9-14.1c-2.4,12.5-1.3,22.7-1.3,22.7s10.9-11.4,16.5-27.9c3-8.8,4.8-17,5.4-22.9
					c-0.7,3.4-2.2,7.4-4.4,11.5c-5,9.7-15.1,14.4-15.1,14.4s-1.9-11,3.1-20.6c2.2-4.2,4.7-7.8,7.1-10.4c-4.6,3.8-10.3,10.1-16,17.8
					C146.4,327.1,143.4,342.5,143.4,342.5z"/>
				<path class="st1" d="M162.5,326.3c0,0,10.1-4.7,15.1-14.4c2.1-4.1,3.6-8.1,4.4-11.5c1-4.6,0.7-8.1-1.2-9.1c-1.9-1-4.9,0.7-8,4.1
					c-2.4,2.6-4.9,6.2-7.1,10.4C160.6,315.3,162.5,326.3,162.5,326.3z"/>
			</g>
			<g>
				<circle class="st0" cx="195.9" cy="308.4" r="12"/>
				<circle class="st1" cx="195.9" cy="308.4" r="7.4"/>
			</g>
			<g>
				<circle class="st0" cx="158" cy="288.8" r="12"/>
				<circle class="st1" cx="158" cy="288.8" r="7.4"/>
			</g>
		</g>
	</g>
	<g id="XMLID_26_">
		<g>
			<g>
				<path class="st0" d="M247.2,354.1c0,0,3-9.8,2.8-22.6c7.1,10.6,15.1,17,15.1,17s-0.3-15.8-8-31.4c-4.1-8.3-8.6-15.4-12.4-20
					c1.9,2.9,3.7,6.8,5,11.2c3.3,10.4-0.5,20.9-0.5,20.9s-9.1-6.4-12.3-16.8c-1.4-4.5-2.2-8.8-2.3-12.3c-0.5,5.9-0.2,14.5,1.2,23.9
					C238.5,341.1,247.2,354.1,247.2,354.1z"/>
				<path class="st1" d="M249.3,329.2c0,0,3.8-10.5,0.5-20.9c-1.4-4.4-3.2-8.3-5-11.2c-2.5-4-5.3-6.2-7.3-5.6c-2,0.6-3,3.9-2.8,8.5
					c0.1,3.5,0.9,7.8,2.3,12.3C240.2,322.7,249.3,329.2,249.3,329.2z"/>
			</g>
			<g>
				<circle class="st0" cx="260.3" cy="292.9" r="12"/>
				<circle class="st1" cx="260.3" cy="292.9" r="7.4"/>
			</g>
			<g>
				<circle class="st0" cx="219.6" cy="305.8" r="12"/>
				<circle class="st1" cx="219.6" cy="305.8" r="7.4"/>
			</g>
		</g>
	</g>
	<g id="XMLID_25_">
		<g>
			<g>
				<path class="st0" d="M328.6,288.9c0,0-4.8-9-14-18c12.5,2.4,22.7,1.3,22.7,1.3s-11.3-11-27.9-16.6c-8.8-3-16.9-4.9-22.9-5.4
					c3.4,0.8,7.4,2.3,11.5,4.4c9.7,5.1,14.4,15.1,14.4,15.1s-11,1.9-20.6-3.2c-4.2-2.2-7.8-4.7-10.3-7.1c3.8,4.6,10.1,10.4,17.7,16
					C313.2,285.8,328.6,288.9,328.6,288.9z"/>
				<path class="st1" d="M312.4,269.8c0,0-4.7-10.1-14.4-15.1c-4.1-2.1-8.1-3.6-11.5-4.4c-4.6-1-8.1-0.7-9.1,1.2c-1,1.9,0.7,4.9,4,8
					c2.6,2.4,6.2,4.9,10.3,7.1C301.4,271.6,312.4,269.8,312.4,269.8z"/>
			</g>
			<g>
				<circle class="st0" cx="294.6" cy="236.3" r="12"/>
				<circle class="st1" cx="294.6" cy="236.3" r="7.4"/>
			</g>
			<g>
				<circle class="st0" cx="274.9" cy="274.1" r="12"/>
				<circle class="st1" cx="274.9" cy="274.1" r="7.4"/>
			</g>
		</g>
	</g>
	<g id="XMLID_22_">
		<g>
			<g>
				<path class="st0" d="M338.9,185.1c0,0-9.8-3-22.6-2.8c10.6-7.1,17-15.1,17-15.1s-15.8,0.2-31.4,7.9c-8.3,4.1-15.4,8.5-20,12.3
					c2.9-1.9,6.8-3.6,11.3-5c10.4-3.2,20.9,0.6,20.9,0.6s-6.5,9.1-16.9,12.3c-4.5,1.4-8.8,2.1-12.3,2.3c5.9,0.6,14.5,0.2,23.9-1.2
					C325.9,193.8,338.9,185.1,338.9,185.1z"/>
				<path class="st1" d="M313.9,183c0,0-10.4-3.8-20.9-0.6c-4.4,1.4-8.3,3.1-11.3,5c-4,2.5-6.3,5.2-5.6,7.3c0.6,2,3.9,3,8.5,2.8
					c3.5-0.1,7.8-0.9,12.3-2.3C307.5,192,313.9,183,313.9,183z"/>
			</g>
			<g>
				<circle class="st0" cx="277.7" cy="171.8" r="12"/>
				<circle class="st1" cx="277.7" cy="171.8" r="7.4"/>
			</g>
			<g>
				<circle class="st0" cx="290.5" cy="212.5" r="12"/>
				<circle class="st1" cx="290.5" cy="212.5" r="7.4"/>
			</g>
		</g>
	</g>
</g>
<g>
	<g id="XMLID_2_">
		<g>
			<g>
				<path class="st0" d="M294,45.9c0,0-5.8,3.9-11.3,10.7c0.8-8.7-0.6-15.5-0.6-15.5s-6.7,8.5-9.4,20.1c-1.4,6.2-2.2,11.9-2.2,15.9
					c0.3-2.4,1-5.2,2.2-8.1c2.8-6.9,9.3-10.8,9.3-10.8s2,7.3-0.8,14.3c-1.2,3-2.7,5.6-4.2,7.5c2.9-2.9,6.4-7.6,9.7-13.2
					C292.9,56.6,294,45.9,294,45.9z"/>
				<path class="st1" d="M282,58.2c0,0-6.5,3.9-9.3,10.8c-1.2,2.9-1.9,5.8-2.2,8.1c-0.4,3.2,0.1,5.6,1.4,6.1
					c1.3,0.5,3.3-0.8,5.2-3.3c1.5-1.9,2.9-4.5,4.2-7.5C284,65.5,282,58.2,282,58.2z"/>
			</g>
			<g>
				<circle class="st0" cx="260.4" cy="72.5" r="8.2"/>
				<circle class="st1" cx="260.4" cy="72.5" r="5.1"/>
			</g>
			<g>
				<circle class="st0" cx="287.5" cy="83.5" r="8.2"/>
				<circle class="st1" cx="287.5" cy="83.5" r="5.1"/>
			</g>
		</g>
	</g>
	<g>
		<g>
			<path class="st0" d="M135.3,37.2c0,0-1.5,6.8-0.6,15.6c-5.5-6.8-11.3-10.7-11.3-10.7s1.1,10.8,7.3,21c3.3,5.4,6.7,10,9.6,12.9
				c-1.4-1.9-2.9-4.4-4.1-7.4c-2.8-6.9-0.8-14.3-0.8-14.3s6.6,3.9,9.4,10.8c1.2,3,2,5.9,2.3,8.3c0-4.1-0.7-9.9-2.2-16.2
				C142,45.5,135.3,37.2,135.3,37.2z"/>
			<path class="st1" d="M135.3,54.3c0,0-2,7.3,0.8,14.3c1.2,2.9,2.6,5.5,4.1,7.4c2,2.6,3.9,4,5.3,3.4c1.3-0.5,1.8-2.8,1.4-6
				c-0.3-2.4-1-5.3-2.3-8.3C141.9,58.2,135.3,54.3,135.3,54.3z"/>
		</g>
		<g>
			<circle class="st0" cx="129.8" cy="79.6" r="8.2"/>
			<circle class="st1" cx="129.8" cy="79.6" r="5.1"/>
		</g>
		<g>
			<circle class="st0" cx="156.9" cy="68.6" r="8.2"/>
			<circle class="st1" cx="156.9" cy="68.6" r="5.1"/>
		</g>
	</g>
	<g>
		<g>
			<path class="st0" d="M30.4,133.8c0,0,3.8,5.9,10.6,11.5c-8.7-1-15.6,0.4-15.6,0.4s8.4,6.9,19.9,9.7c6.2,1.5,11.8,2.4,15.9,2.4
				c-2.4-0.3-5.2-1.1-8.1-2.3c-6.9-2.9-10.7-9.5-10.7-9.5s7.4-1.9,14.3,1c3,1.3,5.6,2.8,7.5,4.3c-2.9-2.9-7.5-6.5-13-9.9
				C41.1,135,30.4,133.8,30.4,133.8z"/>
			<path class="st1" d="M42.6,145.9c0,0,3.8,6.6,10.7,9.5c2.9,1.2,5.7,2,8.1,2.3c3.2,0.4,5.6,0,6.2-1.3c0.6-1.3-0.7-3.3-3.2-5.2
				c-1.9-1.5-4.5-3-7.5-4.3C49.9,144,42.6,145.9,42.6,145.9z"/>
		</g>
		<g>
			<circle class="st0" cx="56.6" cy="167.7" r="8.2"/>
			<circle class="st1" cx="56.6" cy="167.7" r="5.1"/>
		</g>
		<g>
			<circle class="st0" cx="67.9" cy="140.8" r="8.2"/>
			<circle class="st1" cx="67.9" cy="140.8" r="5.1"/>
		</g>
	</g>
	<g>
		<g>
			<path class="st0" d="M24.7,292.8c0,0,6.8,1.5,15.6,0.6c-6.8,5.4-10.7,11.2-10.7,11.2s10.8-1.1,21-7.2c5.4-3.3,10-6.7,13-9.5
				c-1.9,1.4-4.5,2.9-7.4,4.1c-6.9,2.8-14.3,0.8-14.3,0.8s3.9-6.5,10.8-9.3c3-1.2,5.9-2,8.3-2.2c-4.1,0-9.9,0.7-16.2,2.2
				C33,286.1,24.7,292.8,24.7,292.8z"/>
			<path class="st1" d="M41.8,292.8c0,0,7.3,2,14.3-0.8c2.9-1.2,5.5-2.6,7.4-4.1c2.6-2,4-3.9,3.4-5.3c-0.5-1.3-2.8-1.8-6-1.4
				c-2.4,0.3-5.3,1-8.3,2.2C45.7,286.3,41.8,292.8,41.8,292.8z"/>
		</g>
		<g>
			<circle class="st0" cx="67.1" cy="298.4" r="8.2"/>
			<circle class="st1" cx="67.1" cy="298.4" r="5.1"/>
		</g>
		<g>
			<circle class="st0" cx="56.1" cy="271.3" r="8.2"/>
			<circle class="st1" cx="56.1" cy="271.3" r="5.1"/>
		</g>
	</g>
	<g>
		<g>
			<path class="st0" d="M120.9,398.1c0,0,5.9-3.8,11.5-10.5c-1,8.7,0.3,15.6,0.3,15.6s6.9-8.3,9.8-19.9c1.6-6.2,2.4-11.8,2.5-15.9
				c-0.3,2.4-1.1,5.2-2.4,8.1c-2.9,6.9-9.5,10.6-9.5,10.6s-1.9-7.4,1.1-14.2c1.3-3,2.8-5.6,4.3-7.4c-2.9,2.8-6.5,7.5-10,13
				C122.1,387.4,120.9,398.1,120.9,398.1z"/>
			<path class="st1" d="M133.1,386c0,0,6.6-3.8,9.5-10.6c1.2-2.9,2-5.7,2.4-8.1c0.5-3.2,0-5.6-1.3-6.2c-1.3-0.6-3.3,0.7-5.3,3.2
				c-1.5,1.9-3,4.5-4.3,7.4C131.2,378.6,133.1,386,133.1,386z"/>
		</g>
		<g>
			<circle class="st0" cx="154.9" cy="372.1" r="8.2"/>
			<circle class="st1" cx="154.9" cy="372.1" r="5.1"/>
		</g>
		<g>
			<circle class="st0" cx="128" cy="360.6" r="8.2"/>
			<circle class="st1" cx="128" cy="360.6" r="5.1"/>
		</g>
	</g>
	<g>
		<g>
			<path class="st0" d="M279.8,404.3c0,0,1.5-6.8,0.7-15.6c5.4,6.8,11.2,10.8,11.2,10.8s-1-10.8-7.1-21c-3.2-5.5-6.7-10.1-9.5-13
				c1.4,1.9,2.9,4.5,4,7.4c2.8,6.9,0.7,14.3,0.7,14.3s-6.5-3.9-9.3-10.8c-1.2-3-1.9-5.9-2.2-8.3c-0.1,4.1,0.6,9.9,2.1,16.2
				C273.1,395.9,279.8,404.3,279.8,404.3z"/>
			<path class="st1" d="M279.9,387.2c0,0,2-7.3-0.7-14.3c-1.2-2.9-2.6-5.5-4-7.4c-1.9-2.6-3.9-4-5.3-3.4c-1.3,0.5-1.8,2.8-1.5,6
				c0.3,2.4,1,5.3,2.2,8.3C273.3,383.3,279.9,387.2,279.9,387.2z"/>
		</g>
		<g>
			<circle class="st0" cx="285.5" cy="361.9" r="8.2"/>
			<circle class="st1" cx="285.5" cy="361.9" r="5.1"/>
		</g>
		<g>
			<circle class="st0" cx="258.4" cy="372.8" r="8.2"/>
			<circle class="st1" cx="258.4" cy="372.8" r="5.1"/>
		</g>
	</g>
	<g>
		<g>
			<path class="st0" d="M385.5,308.5c0,0-3.7-5.9-10.5-11.5c8.7,1,15.6-0.3,15.6-0.3s-8.3-6.9-19.9-9.9c-6.1-1.6-11.8-2.4-15.9-2.5
				c2.4,0.3,5.2,1.1,8.1,2.4c6.9,3,10.6,9.6,10.6,9.6s-7.4,1.8-14.2-1.1c-3-1.3-5.5-2.8-7.4-4.3c2.8,2.9,7.4,6.6,12.9,10
				C374.9,307.2,385.5,308.5,385.5,308.5z"/>
			<path class="st1" d="M373.5,296.3c0,0-3.7-6.6-10.6-9.6c-2.9-1.3-5.7-2.1-8.1-2.4c-3.2-0.5-5.6-0.1-6.2,1.3
				c-0.6,1.3,0.7,3.3,3.2,5.3c1.9,1.5,4.5,3,7.4,4.3C366.1,298.1,373.5,296.3,373.5,296.3z"/>
		</g>
		<g>
			<circle class="st0" cx="359.6" cy="274.4" r="8.2"/>
			<circle class="st1" cx="359.6" cy="274.4" r="5.1"/>
		</g>
		<g>
			<circle class="st0" cx="348.1" cy="301.3" r="8.2"/>
			<circle class="st1" cx="348.1" cy="301.3" r="5.1"/>
		</g>
	</g>
	<g>
		<g>
			<path class="st0" d="M392.3,149.6c0,0-6.8-1.5-15.6-0.8c6.9-5.4,10.8-11.2,10.8-11.2s-10.8,1-21.1,7c-5.5,3.2-10.1,6.6-13,9.4
				c1.9-1.4,4.5-2.8,7.4-4c6.9-2.8,14.3-0.7,14.3-0.7s-3.9,6.5-10.9,9.3c-3,1.2-5.9,1.9-8.3,2.2c4.1,0.1,9.9-0.6,16.2-2
				C383.8,156.3,392.3,149.6,392.3,149.6z"/>
			<path class="st1" d="M375.1,149.5c0,0-7.3-2.1-14.3,0.7c-2.9,1.2-5.5,2.6-7.4,4c-2.6,1.9-4,3.9-3.5,5.3c0.5,1.3,2.8,1.8,6,1.5
				c2.4-0.3,5.3-1,8.3-2.2C371.2,156,375.1,149.5,375.1,149.5z"/>
		</g>
		<g>
			<circle class="st0" cx="349.8" cy="143.8" r="8.2"/>
			<circle class="st1" cx="349.8" cy="143.8" r="5.1"/>
		</g>
		<g>
			<circle class="st0" cx="360.6" cy="170.9" r="8.2"/>
			<circle class="st1" cx="360.6" cy="170.9" r="5.1"/>
		</g>
	</g>
	<g id="XMLID_1_">
		<g>
			<g>
				<path class="st0" d="M294,45.9c0,0-5.8,3.9-11.3,10.7c0.8-8.7-0.6-15.5-0.6-15.5s-6.7,8.5-9.4,20.1c-1.4,6.2-2.2,11.9-2.2,15.9
					c0.3-2.4,1-5.2,2.2-8.1c2.8-6.9,9.3-10.8,9.3-10.8s2,7.3-0.8,14.3c-1.2,3-2.7,5.6-4.2,7.5c2.9-2.9,6.4-7.6,9.7-13.2
					C292.9,56.6,294,45.9,294,45.9z"/>
				<path class="st1" d="M282,58.2c0,0-6.5,3.9-9.3,10.8c-1.2,2.9-1.9,5.8-2.2,8.1c-0.4,3.2,0.1,5.6,1.4,6.1
					c1.3,0.5,3.3-0.8,5.2-3.3c1.5-1.9,2.9-4.5,4.2-7.5C284,65.5,282,58.2,282,58.2z"/>
			</g>
			<g>
				<circle class="st0" cx="260.4" cy="72.5" r="8.2"/>
				<circle class="st1" cx="260.4" cy="72.5" r="5.1"/>
			</g>
			<g>
				<circle class="st0" cx="287.5" cy="83.5" r="8.2"/>
				<circle class="st1" cx="287.5" cy="83.5" r="5.1"/>
			</g>
		</g>
	</g>
</g>
<g>
	<g>
		<g>
			<ellipse class="st1" cx="60.5" cy="218.2" rx="5" ry="10"/>
		</g>
	</g>
	<g>
		<g>
			<ellipse class="st1" cx="356.5" cy="218.2" rx="5" ry="10"/>
		</g>
	</g>
	<g>
		<g>
			<ellipse class="st1" cx="208.5" cy="74.2" rx="10" ry="5"/>
		</g>
	</g>
	<g>
		<g>
			<ellipse class="st1" cx="208.5" cy="370.2" rx="10" ry="5"/>
		</g>
	</g>
	<g>
		<g>
			
				<ellipse transform="matrix(0.7071 -0.7071 0.7071 0.7071 -49.8692 109.0614)" class="st1" cx="106.7" cy="114.7" rx="10" ry="5"/>
		</g>
	</g>
	<g>
		<g>
			<ellipse transform="matrix(0.7071 -0.7071 0.7071 0.7071 -136.5656 318.365)" class="st1" cx="316" cy="324" rx="10" ry="5"/>
		</g>
	</g>
	<g>
		<g>
			<ellipse transform="matrix(0.7071 -0.7071 0.7071 0.7071 8.6058 255.8897)" class="st1" cx="313.2" cy="117.6" rx="5" ry="10"/>
		</g>
	</g>
	<g>
		<g>
			
				<ellipse transform="matrix(0.7071 -0.7071 0.7071 0.7071 -200.6978 169.1933)" class="st1" cx="103.9" cy="326.9" rx="5" ry="10"/>
		</g>
	</g>
</g>
<path id="Fur_2_" class="st2" d="M297.2,212.3c-9.4,1.6-17.8-5.4-19.5-13.9c2.1-4.3-1.6-11.5-1.6-11.5s0,0,0.3-2.1
	c12-33.7-7.1-39.9-16-40.1s-26.9,23.3-32.7,26.4c-3.3-0.8-19.6-1.8-20-1.8v0c0,0,0,0,0,0c0,0,0,0,0,0v0c-0.4,0-16.7,1.1-20,1.8
	c-5.8-3.1-23.9-26.6-32.7-26.4s-28,6.4-16,40.1c0.3,2.1,0.3,2.1,0.3,2.1s-3.6,7.1-1.6,11.5c-1.7,8.5-10.2,15.5-19.5,13.9
	c-1.4,8.5,11.3,11.1,0.8,15.1c6.2,26.3,21.7,65.1,88.5,65.8l0,0c0.1,0,0.2,0,0.4,0c0.1,0,0.2,0,0.4,0l0,0
	c66.7-0.7,82.2-39.6,88.3-65.8C285.9,223.4,298.6,220.8,297.2,212.3z"/>
<path class="st0" d="M174.2,192c-4-2.8-9-4.8-13.6-3.4c-6.2,1.9-10.1,9.2-16.5,9.6c-0.4,0-0.9,0-1.3,0.3c-0.4,0.2-1.3,0.9-1.5,1.4
	c-3,7.6,0.4,16.4,5.8,22.5c5.4,6.1,13.1,9.7,21,12c4.2,1.2,6.2,1,8.1,4.9c0.5,1.1,3.6,3.9,4.2,4.9c1.1,1.7,2.8,3.7,4.6,4.6
	c1.1,0.5,6-0.3,6.5-1.4c0.9-1.8-0.9-3.8-2.1-5.4c-2.8-3.9-1.8-8.2-0.9-12.5c1-4.6,1.1-9.3,0.3-14C187.1,206.1,181.9,197.4,174.2,192
	z"/>
<path class="st0" d="M240.7,192.3c4-2.8,9-4.8,13.6-3.4c6.2,1.9,10.1,9.2,16.5,9.6c0.4,0,0.9,0,1.3,0.3c0.4,0.2,1.3,0.9,1.5,1.4
	c3,7.6-0.4,16.4-5.8,22.5s-13.1,9.7-21,12c-4.2,1.2-6.2,1-8.1,4.9c-0.5,1.1-3.6,3.9-4.2,4.9c-1.1,1.7-2.8,3.7-4.6,4.6
	c-1.1,0.5-6-0.3-6.5-1.4c-0.9-1.8,0.9-3.8,2.1-5.4c2.8-3.9,1.8-8.2,0.9-12.5c-1-4.6-1.1-9.3-0.3-14
	C227.7,206.4,232.9,197.7,240.7,192.3z"/>
<path class="st3" d="M187.3,171.2c-5.8-3.1-24-26.3-32.9-26.2c-9.7,0.1-28.1,7.4-15.4,42.1c0,0-8.2-29.3,3.1-35.6
	c9.2-5.1,23.4,15.5,24.6,18.5c1.2,3,4.9,9.1,11.5,8.5C184.8,178,187.3,171.2,187.3,171.2z"/>
<path class="st1" d="M188,230.6c0,0-15.9,5.5-28-1.4s-15.5-23.7-15.5-23.7s18.2-9.7,30.4-2.8S188,230.6,188,230.6z"/>
<g>
	<path class="st3" d="M186.9,241.4c-0.8-1.8-1.3-3.9-0.7-5.8c0.6-2.2,2.4-4.1,2-6.3c0.5,1.2,0.7,2.6,0.6,3.9
		c-0.1,1.4-0.6,2.9-0.4,4.3c0.3,2,1.8,3.6,3.2,5.1c1,1.1,4.6,6.2,1.3,5.2C190.3,247.1,187.9,243.7,186.9,241.4z"/>
	<path class="st3" d="M178.9,198.4c2.7,2.5,3.6,0.5,4.6-1.1c1.7,7,6.1,13.2,8.6,10.7c2.2,2.7,2.2,6.4,2.3,9.9
		c0.1,3.4,0.8,7.3,3.7,9.3c-1.8-3.1-0.9-7-0.6-10.5c0.5-6.5-1.9-12.9-5.9-18.1c-1.2-1.6-2.7,0.8-2.7,0.8c-1.5-2.4-3-4.9-4.4-7.4
		c-0.6-1-1.7-1.2-2.7-0.5c-0.9,0.7-1.9,1-2.9,0.4c-0.5-0.3-0.8-0.9-1-1.4c-0.7-2.2-0.7-4.4-0.6-6.6
		C171.8,190.9,178.3,197.8,178.9,198.4z"/>
	<path class="st3" d="M190,186.9c1.8-0.9,3.6-1.7,5.5-2.3c-2.6,3.1-3,7.8-0.9,11.2c0.6-0.9,1.2-1.9,1.8-2.8c0.3,2,0.7,4.1,1.8,5.9
		c1,1.8,2.9,3.2,4.9,3.3c-0.9-3.3-1.1-6.8-0.5-10.1c0.3-1.9,0.9-3.7,1.1-5.6c0-0.4,0-0.8-0.1-1.1c-0.3-0.7-1.2-1-2-0.9
		c-0.8,0.1-1.4,0.6-2.1,1.1c-0.5-1.1,0-2.5,0.5-3.6c0.5-1.1,1.1-2.3,1-3.5c-0.6-4.1-4.4-0.3-5.5,1
		C193.2,181.7,191.4,184.2,190,186.9z"/>
	<path class="st3" d="M191.6,231.9c1.2,2.6,3.9,4.3,4.9,7c0.6,1.8,0.2,3.8-0.1,5.7c-0.1,0.4-0.1,0.9,0.2,1.1
		c0.5,0.4,1.1-0.5,1.2-1.1c0.2-1.1,0.5-2.2,0.7-3.2c0.3-1.4,0.6-2.7,0.4-4.1c-0.5-4.7-6.2-7.9-6-12.7c0-0.8,0.2-1.5,0.1-2.3
		c-0.1-0.6-0.5-1.1-1.1-1.2C190.9,222.7,190.7,229.8,191.6,231.9z"/>
</g>
<path class="st3" d="M188.4,230.2c0,0.1,0.1,0.4,0,0.4c-1.2,0.4-2.3,0.9-3.4,1.2c-1.2,0.3-2.4,0.6-3.6,0.8c-2.4,0.4-4.9,0.7-7.4,0.7
	c-1.2,0-2.5-0.1-3.7-0.2c-1.2-0.1-2.5-0.3-3.7-0.6c-1.2-0.3-2.4-0.7-3.6-1.1c-1.2-0.5-2.3-1-3.5-1.6l-0.1-0.1l-0.1-0.1l-0.2-0.1
	l-0.4-0.2c-0.3-0.2-0.5-0.3-0.8-0.5l-0.8-0.6l-0.8-0.6c-1-0.8-1.9-1.6-2.8-2.6c-0.9-0.9-1.7-1.9-2.4-2.9c-0.7-1-1.4-2.1-2.1-3.1
	c-1.3-2.2-2.3-4.4-3.2-6.7c-0.4-1.2-2-7.5-2-7.5c0.3-1,6-3.4,7.2-3.9c2.5-0.9,5.8-1.5,8.6-2c1.4-0.2,2.7-0.4,4.1-0.5
	c1.4-0.1,2.8,0,4.2,0.1c1.4,0.2,2.8,0.5,4.2,0.9l1,0.4c0.3,0.1,0.6,0.2,0.9,0.4c0.3,0.1,0.6,0.3,0.9,0.4l0.7,0.4l0.1,0.1l0.1,0l0,0
	l0.1,0l0.2,0.1l0.8,0.5c0.3,0.2,0.6,0.4,0.9,0.7c0.3,0.2,0.6,0.5,0.8,0.7c0.3,0.2,0.5,0.5,0.8,0.7c1,1,1.9,2.1,2.7,3.2
	c0.8,1.2,1.5,2.4,2.1,3.6c0.6,1.2,1.1,2.5,1.6,3.8c0.9,2.6,1.5,5.2,2,7.9c0.2,1.3,0.4,2.7,0.6,4
	C188.4,227.7,188.5,228.9,188.4,230.2z M187.5,229.9c0.4-0.2,0.3-0.2,0.3-0.6c0-1.1-0.1-1.8-0.3-2.8c-0.3-1.3-0.6-2.6-1-3.8
	c-0.7-2.5-1.6-5-2.7-7.4c-0.6-1.2-1.1-2.3-1.8-3.4c-0.7-1.1-1.4-2.2-2.2-3.1c-0.8-1-1.6-1.9-2.5-2.7c-0.2-0.2-0.5-0.4-0.7-0.6
	c-0.2-0.2-0.5-0.4-0.7-0.6l-0.7-0.5c0,0,0,0,0,0l-0.8-0.5l-0.2-0.1c0,0,0.1,0.1,0,0l0,0l0,0l-0.1,0l-0.1-0.1l-0.6-0.3
	c-0.2-0.1-0.5-0.2-0.7-0.3c-0.2-0.1-0.5-0.2-0.7-0.3l-0.9-0.3c-1.2-0.4-2.4-0.7-3.6-0.8c-1.2-0.2-2.5-0.3-3.8-0.3
	c-1.3,0-2.6,0.1-3.8,0.2c-2.6,0.3-5.1,0.8-7.6,1.5c-1.3,0.4-2.5,0.8-3.7,1.2c-1.2,0.5-2.5,1-3.6,1.6l0.4-0.8l0,0
	c0.3,1.1,0.6,2.3,1,3.4c0.4,1.1,0.8,2.2,1.3,3.3c0.9,2.2,2,4.3,3.2,6.3c0.6,1,1.3,2,2,2.9c0.7,0.9,1.5,1.8,2.3,2.7
	c0.8,0.9,1.7,1.6,2.6,2.4l0.7,0.5l0.7,0.5c0.4,0.3,1,0.7,1.5,0.9c1,0.6,2,1.1,3.1,1.5c1.1,0.4,2.2,0.8,3.3,1.1
	c1.1,0.3,2.3,0.5,3.5,0.7c1.2,0.2,2.4,0.3,3.5,0.3c2.4,0.1,4.8,0,7.2-0.2c1.2-0.1,2.4-0.3,3.6-0.5
	C185.7,230.7,186.6,230.3,187.5,229.9z"/>
<g>
	<path class="st3" d="M179.6,241.6c-1.2-0.9-2.3-1.8-3.5-2.7c-0.1-0.1-0.2-0.2-0.4-0.1c-0.1,0-0.2,0.2-0.2,0.3
		c-0.6,1.4-0.5,3,0.2,4.3c0.7,1.3,1.9,2.4,3.4,2.7c0.7,0.2,1.4,0.2,2.1,0.4c0.7,0.2,1.3,0.5,1.8,1
		C184.2,245.4,181,242.7,179.6,241.6z"/>
	<path class="st3" d="M168.3,243.4c-1.5-0.9-3.4-1.1-4.6-2.4c-0.2,2.4,1.5,4.7,3.7,5.5c0.5,0.2,1.1,0.3,1.6,0.5
		c0.8,0.2,1.6,0.5,2.4,0.6C170.7,245.9,170,244.4,168.3,243.4z"/>
	<path class="st3" d="M144.5,225.6c-0.3-0.8-1-1.9-1.7-1.4c-0.4,0.2-0.4,0.7-0.5,1.1c-0.1,1.2-0.1,2.4-0.1,3.6
		c-1.5-0.3-2.7-1.5-3.5-2.9s-1.2-2.9-1.7-4.3c-0.1-0.3-0.4-0.7-0.7-0.6c-0.2,0.1-0.3,0.2-0.3,0.4c-1.3,3.1-1.5,6.6-0.4,9.8
		c1.1,3.2,3.4,5.9,6.3,7.5c0-0.8,0-1.6,0-2.4c1.5,1.6,3.2,3,5.1,4c0.1-1,0.2-2,0.3-2.9c-0.1,1.5,7.2,3.3,8.3,3.3
		c-1.1-2.3-4.6-4.3-6.3-6.4C147.2,231.8,145.5,228.8,144.5,225.6z"/>
	<path class="st3" d="M133,239.3c-0.2-0.1-0.4-0.2-0.6-0.1c-0.6,0.3,0,1.3-0.4,1.8c-0.3,0.4-0.9,0.1-1.3-0.1c-1-0.6-2-1.2-3-1.8
		c-0.2,3.5,2.5,6.9,6,7.5c0.7,0.1,1.7-0.1,1.8-0.8c0-0.1,0-0.3,0.1-0.4c0.1-0.3,0.5-0.2,0.8-0.1c2.2,0.6,7.3,0.1,3.1-1.9
		C137.1,242.2,135.3,240.3,133,239.3z"/>
	<path class="st3" d="M137.4,215.7c0.1,0.5,0.1,1,0.5,1.3c0.3,0.3,0.9,0.4,1.2,0.1c0.2-0.3,0.2-0.9,0.6-0.9c0.3,0,0.5,0.2,0.6,0.4
		c1.1,1.5,2.3,3,3.8,4.2c0.3,0.3,0.6,0.5,1,0.6c0.4,0.1,0.8,0,1-0.4c0.2-0.4,0.1-0.8-0.1-1.2c-0.8-1.9-2.1-3.7-2.5-5.8
		c-0.2-0.8-0.3-1.6-0.8-2.3c-0.5-0.6-1.6-0.9-2.1-0.2c0.9-1.3-1.2-4.1-2.7-2.9C136.5,209.9,137.2,214.2,137.4,215.7z"/>
</g>
<g>
	<path class="st4" d="M171.6,177.2c-1.1,0.7-2.4,1.1-3.7,1.3c-1.3,0.2-2.6,0.2-4-0.2c-0.7-0.2-1.4-0.4-2.1-0.8
		c-0.4-0.2-0.7-0.4-1.1-0.7c-0.3-0.3-0.5-0.4-0.8-0.6c-1-0.8-1.8-1.7-2.6-2.5c-1.5-1.7-2.8-3.5-3.8-5.2c-0.5-0.8-1.1-1.7-1.7-2.5
		c-0.6-0.9-1.3-1.7-2.4-2.7c1.2-0.7,2.7-0.8,4.1-0.6c1.4,0.2,2.7,0.7,3.9,1.4c1.2,0.7,2.2,1.6,3,2.4c0.9,0.8,1.6,1.7,2.3,2.6
		c0.7,0.9,1.4,1.7,1.9,2.5c0.1,0.2,0.3,0.4,0.4,0.6c0,0.1,0.1,0.2,0.2,0.4c0.2,0.2,0.5,0.6,0.8,0.9c0.7,0.6,1.5,1.2,2.5,1.8
		L171.6,177.2z"/>
	<path class="st4" d="M147.2,170.7c0.7-1,1.9-1.4,3.2-1.5c1.2-0.1,2.4,0.3,3.5,0.8c1.1,0.5,2,1.3,2.8,2c0.7,0.7,1.3,1.5,1.8,2.2
		c0.5,0.7,0.9,1.3,1.2,1.9l1.1,1.8c0.8,1.2,1.7,2.6,3.2,4.4c-2,1.1-4.4,1-6.5,0.1c-1-0.4-2-1.1-2.8-1.8c-0.8-0.7-1.5-1.5-2-2.3
		c-1.1-1.5-1.7-2.8-2.2-3.9c-0.3-0.6-0.7-1.2-1.1-1.8c-0.2-0.3-0.5-0.6-0.8-0.9C148.1,171.3,147.7,171,147.2,170.7z"/>
	<path class="st4" d="M147.6,177.5c0.8-0.7,1.8-0.9,2.8-0.9c1,0,1.9,0.2,2.7,0.6c1.6,0.7,2.8,1.6,3.6,2.4c0.4,0.4,0.7,0.7,1.1,1.1
		c0.3,0.4,0.7,0.8,1,1.2c0.8,0.9,1.6,1.9,3,3.4c-1.4,1.5-3.3,1.9-5.1,1.8c-0.9-0.1-1.8-0.3-2.6-0.7c-0.8-0.4-1.6-0.9-2.2-1.5
		c-1.2-1.1-1.9-2.2-2.4-3.3c-0.3-0.6-0.5-1.1-0.7-1.8C148.5,179,148.2,178.3,147.6,177.5z"/>
	<path class="st4" d="M243.1,177.2l3.1-2c0.9-0.6,1.8-1.2,2.5-1.8c0.4-0.3,0.6-0.6,0.8-0.9c0.1-0.1,0.2-0.3,0.2-0.4
		c0.1-0.1,0.3-0.4,0.4-0.6c0.6-0.8,1.2-1.7,1.9-2.5c0.7-0.9,1.5-1.7,2.3-2.6c0.8-0.8,1.8-1.7,3-2.4c1.1-0.7,2.5-1.2,3.9-1.4
		c1.4-0.2,2.9-0.1,4.1,0.6c-1,1-1.7,1.8-2.4,2.7c-0.6,0.8-1.1,1.7-1.7,2.5c-1,1.6-2.3,3.4-3.8,5.2c-0.8,0.9-1.6,1.7-2.6,2.5
		c-0.3,0.2-0.5,0.4-0.8,0.6c-0.4,0.3-0.7,0.5-1.1,0.7c-0.7,0.4-1.4,0.6-2.1,0.8c-1.4,0.3-2.7,0.3-4,0.2
		C245.6,178.3,244.3,177.9,243.1,177.2z"/>
	<path class="st4" d="M267.5,170.7c-0.5,0.3-0.9,0.6-1.3,0.9c-0.3,0.3-0.6,0.6-0.8,0.9c-0.5,0.6-0.8,1.2-1.1,1.8
		c-0.6,1.1-1.2,2.4-2.2,3.9c-0.5,0.7-1.2,1.5-2,2.3c-0.8,0.8-1.8,1.4-2.8,1.8c-2.1,0.8-4.4,1-6.5-0.1c1.4-1.8,2.4-3.1,3.2-4.4
		l1.1-1.8c0.4-0.6,0.8-1.2,1.2-1.9c0.5-0.7,1.1-1.4,1.8-2.2c0.7-0.7,1.7-1.5,2.8-2c1.1-0.5,2.3-0.8,3.5-0.8
		C265.6,169.3,266.9,169.8,267.5,170.7z"/>
	<path class="st4" d="M267.1,177.5c-0.6,0.9-0.9,1.6-1.1,2.2c-0.3,0.6-0.5,1.2-0.7,1.8c-0.5,1.1-1.2,2.2-2.4,3.3
		c-0.6,0.5-1.3,1.1-2.2,1.5c-0.8,0.4-1.7,0.7-2.6,0.7c-1.8,0.2-3.7-0.3-5.1-1.8c1.3-1.5,2.2-2.5,3-3.4c0.4-0.4,0.7-0.8,1-1.2
		c0.3-0.4,0.6-0.7,1.1-1.1c0.8-0.7,2-1.7,3.6-2.4c0.8-0.3,1.7-0.6,2.7-0.6C265.3,176.6,266.3,176.8,267.1,177.5z"/>
</g>
<path class="st3" d="M227.5,171.2c5.8-3.1,24-26.3,32.9-26.2c9.7,0.1,28.1,7.4,15.4,42.1c0,0,8.2-29.3-3.1-35.6
	c-9.2-5.1-23.4,15.5-24.6,18.5c-1.2,3-4.9,9.1-11.5,8.5C230,178,227.5,171.2,227.5,171.2z"/>
<path class="st3" d="M246.8,176.7c3.6,0.7,7.7,0.8,10.5-1.6c1.5,3.3,0.2,7.6-2.9,9.6c4.4,1.4,9.2,1,13.3-1c0.9,3.1,1.1,7.7-1.8,9.2
	c4.9-1.1,13.8,2.6,20.4,0.2c-0.7,7.6-12.8,12.4-15.9,12c0.5-1.2-3.9-7.4-12.2-9.4c-1.7-0.4,0.1-5.9-4.6-7.5
	c-1.6-0.6-3.8-0.5-4.2-2.2c-0.2-1,0.3-2.2-0.2-3c-0.3-0.5-0.8-0.7-1.3-0.9c-2.6-1-9.4-2.7-12-3.5c-2.5-0.8-1.4-0.9-2.5-3.4
	C238,175.4,242.4,175.8,246.8,176.7z"/>
<path class="st1" d="M226.7,230.6c0,0,15.9,5.5,28-1.4s15.5-23.7,15.5-23.7s-18.2-9.7-30.4-2.8S226.7,230.6,226.7,230.6z"/>
<g>
	<path class="st3" d="M227.9,241.4c0.8-1.8,1.3-3.9,0.7-5.8c-0.6-2.2-2.4-4.1-2-6.3c-0.5,1.2-0.7,2.6-0.6,3.9
		c0.1,1.4,0.6,2.9,0.4,4.3c-0.3,2-1.8,3.6-3.2,5.1c-1,1.1-4.6,6.2-1.3,5.2C224.5,247.1,226.9,243.7,227.9,241.4z"/>
	<path class="st3" d="M235.8,198.4c-2.7,2.5-3.6,0.5-4.6-1.1c-1.7,7-6.1,13.2-8.6,10.7c-2.2,2.7-2.2,6.4-2.3,9.9
		c-0.1,3.4-0.8,7.3-3.7,9.3c1.8-3.1,0.9-7,0.6-10.5c-0.5-6.5,1.9-12.9,5.9-18.1c1.2-1.6,2.7,0.8,2.7,0.8c1.5-2.4,3-4.9,4.4-7.4
		c0.6-1,1.7-1.2,2.7-0.5c0.9,0.7,1.9,1,2.9,0.4c0.5-0.3,0.8-0.9,1-1.4c0.7-2.2,0.7-4.4,0.6-6.6C242.9,190.9,236.5,197.8,235.8,198.4
		z"/>
	<path class="st3" d="M224.8,186.9c-1.8-0.9-3.6-1.7-5.5-2.3c2.6,3.1,3,7.8,0.9,11.2c-0.6-0.9-1.2-1.9-1.8-2.8
		c-0.3,2-0.7,4.1-1.8,5.9c-1,1.8-2.9,3.2-4.9,3.3c0.9-3.3,1.1-6.8,0.5-10.1c-0.3-1.9-0.9-3.7-1.1-5.6c0-0.4,0-0.8,0.1-1.1
		c0.3-0.7,1.2-1,2-0.9c0.8,0.1,1.4,0.6,2.1,1.1c0.5-1.1,0-2.5-0.5-3.6c-0.5-1.1-1.1-2.3-1-3.5c0.6-4.1,4.4-0.3,5.5,1
		C221.5,181.7,223.3,184.2,224.8,186.9z"/>
	<path class="st3" d="M223.1,231.9c-1.2,2.6-3.9,4.3-4.9,7c-0.6,1.8-0.2,3.8,0.1,5.7c0.1,0.4,0.1,0.9-0.2,1.1
		c-0.5,0.4-1.1-0.5-1.2-1.1c-0.2-1.1-0.5-2.2-0.7-3.2c-0.3-1.4-0.6-2.7-0.4-4.1c0.5-4.7,6.2-7.9,6-12.7c0-0.8-0.2-1.5-0.1-2.3
		c0.1-0.6,0.5-1.1,1.1-1.2C223.8,222.7,224,229.8,223.1,231.9z"/>
</g>
<path class="st3" d="M226.5,226.4c0.1-1.3,0.3-2.7,0.6-4c0.5-2.6,1.1-5.3,2-7.9c0.4-1.3,1-2.6,1.6-3.8c0.6-1.2,1.3-2.4,2.1-3.6
	c0.8-1.1,1.7-2.3,2.7-3.2c0.2-0.3,0.5-0.5,0.8-0.7c0.3-0.2,0.5-0.5,0.8-0.7c0.3-0.2,0.6-0.5,0.9-0.7l0.8-0.5l0.2-0.1l0.1,0l0,0
	l0.1,0l0.1-0.1l0.7-0.4c0.3-0.1,0.6-0.3,0.9-0.4c0.3-0.1,0.6-0.3,0.9-0.4l1-0.4c1.4-0.4,2.8-0.7,4.2-0.9c1.4-0.1,2.8-0.2,4.2-0.1
	c1.4,0.1,2.8,0.2,4.1,0.5c2.7,0.5,6,1.1,8.6,2c1.3,0.5,6.9,2.8,7.2,3.9c0,0-1.6,6.3-2,7.5c-0.9,2.3-1.9,4.6-3.2,6.7
	c-0.6,1.1-1.3,2.1-2.1,3.1c-0.7,1-1.6,2-2.4,2.9c-0.9,0.9-1.8,1.8-2.8,2.6l-0.8,0.6l-0.8,0.6c-0.3,0.2-0.5,0.4-0.8,0.5l-0.4,0.2
	l-0.2,0.1l-0.1,0.1l-0.1,0.1c-1.1,0.6-2.3,1.2-3.5,1.6c-1.2,0.4-2.4,0.8-3.6,1.1c-1.2,0.3-2.5,0.5-3.7,0.6c-1.2,0.1-2.5,0.2-3.7,0.2
	c-2.5,0-5-0.2-7.4-0.7c-1.2-0.2-2.4-0.5-3.6-0.8c-1.1-0.3-2.3-0.8-3.4-1.2c-0.1,0,0-0.3,0-0.4C226.2,228.9,226.4,227.7,226.5,226.4z
	 M230,230.8c1.2,0.2,2.4,0.4,3.6,0.5c2.4,0.2,4.8,0.3,7.2,0.2c1.2-0.1,2.4-0.2,3.5-0.3c1.2-0.2,2.3-0.4,3.5-0.7
	c1.1-0.3,2.3-0.6,3.3-1.1c1.1-0.4,2.1-0.9,3.1-1.5c0.4-0.3,1.1-0.6,1.5-0.9l0.7-0.5l0.7-0.5c0.9-0.7,1.8-1.5,2.6-2.4
	c0.8-0.8,1.6-1.7,2.3-2.7c0.7-0.9,1.4-1.9,2-2.9c1.2-2,2.3-4.1,3.2-6.3c0.5-1.1,0.9-2.2,1.3-3.3c0.4-1.1,0.7-2.3,1-3.4l0,0l0.4,0.8
	c-1.1-0.6-2.4-1.1-3.6-1.6c-1.2-0.5-2.5-0.9-3.7-1.2c-2.5-0.7-5.1-1.2-7.6-1.5c-1.3-0.1-2.6-0.2-3.8-0.2c-1.3,0-2.5,0.1-3.8,0.3
	c-1.2,0.2-2.4,0.5-3.6,0.8l-0.9,0.3c-0.2,0.1-0.5,0.2-0.7,0.3c-0.2,0.1-0.5,0.2-0.7,0.3l-0.6,0.3l-0.1,0.1l-0.1,0l0,0l0,0
	c0,0,0.1,0,0,0l-0.2,0.1l-0.8,0.5c0,0,0,0,0,0l-0.7,0.5c-0.2,0.2-0.5,0.4-0.7,0.6c-0.2,0.2-0.5,0.4-0.7,0.6
	c-0.9,0.8-1.8,1.8-2.5,2.7c-0.8,1-1.5,2-2.2,3.1c-0.7,1.1-1.3,2.2-1.8,3.4c-1.1,2.3-2,4.8-2.7,7.4c-0.4,1.3-0.7,2.6-1,3.8
	c-0.2,1-0.3,1.7-0.3,2.8c0,0.4,0,0.4,0.3,0.6C228.1,230.3,229,230.7,230,230.8z"/>
<g>
	<path class="st3" d="M235.2,241.6c1.2-0.9,2.3-1.8,3.5-2.7c0.1-0.1,0.2-0.2,0.4-0.1c0.1,0,0.2,0.2,0.2,0.3c0.6,1.4,0.5,3-0.2,4.3
		s-1.9,2.4-3.4,2.7c-0.7,0.2-1.4,0.2-2.1,0.4c-0.7,0.2-1.3,0.5-1.8,1C230.5,245.4,233.7,242.7,235.2,241.6z"/>
	<path class="st3" d="M246.4,243.4c1.5-0.9,3.4-1.1,4.6-2.4c0.2,2.4-1.5,4.7-3.7,5.5c-0.5,0.2-1.1,0.3-1.6,0.5
		c-0.8,0.2-1.6,0.5-2.4,0.6C244,245.9,244.7,244.4,246.4,243.4z"/>
	<path class="st3" d="M270.3,225.6c0.3-0.8,1-1.9,1.7-1.4c0.4,0.2,0.4,0.7,0.5,1.1c0.1,1.2,0.1,2.4,0.1,3.6c1.5-0.3,2.7-1.5,3.5-2.9
		c0.8-1.3,1.2-2.9,1.7-4.3c0.1-0.3,0.4-0.7,0.7-0.6c0.2,0.1,0.3,0.2,0.3,0.4c1.3,3.1,1.5,6.6,0.4,9.8c-1.1,3.2-3.4,5.9-6.3,7.5
		c0-0.8,0-1.6,0-2.4c-1.5,1.6-3.2,3-5.1,4c-0.1-1-0.2-2-0.3-2.9c0.1,1.5-7.2,3.3-8.3,3.3c1.1-2.3,4.6-4.3,6.3-6.4
		C267.6,231.8,269.2,228.8,270.3,225.6z"/>
	<path class="st3" d="M281.8,239.3c0.2-0.1,0.4-0.2,0.6-0.1c0.6,0.3,0,1.3,0.4,1.8c0.3,0.4,0.9,0.1,1.3-0.1c1-0.6,2-1.2,3-1.8
		c0.2,3.5-2.5,6.9-6,7.5c-0.7,0.1-1.7-0.1-1.8-0.8c0-0.1,0-0.3-0.1-0.4c-0.1-0.3-0.5-0.2-0.8-0.1c-2.2,0.6-7.3,0.1-3.1-1.9
		C277.7,242.2,279.5,240.3,281.8,239.3z"/>
	<path class="st3" d="M277.4,215.7c-0.1,0.5-0.1,1-0.5,1.3c-0.3,0.3-0.9,0.4-1.2,0.1c-0.2-0.3-0.2-0.9-0.6-0.9
		c-0.3,0-0.5,0.2-0.6,0.4c-1.1,1.5-2.3,3-3.8,4.2c-0.3,0.3-0.6,0.5-1,0.6s-0.8,0-1-0.4c-0.2-0.4-0.1-0.8,0.1-1.2
		c0.8-1.9,2.1-3.7,2.5-5.8c0.2-0.8,0.3-1.6,0.8-2.3s1.6-0.9,2.1-0.2c-0.9-1.3,1.2-4.1,2.7-2.9C278.2,209.9,277.6,214.2,277.4,215.7z
		"/>
</g>
<path class="st0" d="M170.5,204.8c0,0-21.7,6.3-4.2,24C166.3,228.7,171.6,217.5,170.5,204.8z"/>
<path class="st0" d="M242.9,204.8c0,0,18.7,6,4.2,24C247,228.7,241.3,219.5,242.9,204.8z"/>
<g id="Mouth_2_">
	<path class="st4" d="M253.4,244.9c-13,7.1-29.7,17.5-46.6,11.3c-16.8,6-32.3-3.9-45.3-11s-27.7,10.5-15.9,26
		c13.9,18.2,61.2,18.7,61.2,18.7s48.3-0.5,62.2-18.7C280.8,255.8,266.4,237.8,253.4,244.9z"/>
	<path class="st3" d="M249.2,252.1c-8.5,8-25.9,12.8-42.1,8.7c-16.2,4.1-32.4-1.3-41.5-8.7c-16.5-13.4-29.2,4-11.7,20.7
		c12,11.5,53.2,14.9,53.2,14.9s41.3-2.4,53.3-13.9C277.8,257.1,264.6,237.5,249.2,252.1z"/>
</g>
<path class="st2" d="M249.5,266.6c0.5-3.1,1.2-6.3,1.4-9.4c0.1-1.2,0-2.4-0.7-3.3c-0.7-0.9-1.9-1.2-3-1c-1.1,0.2-2,0.8-2.8,1.6
	c-2.3,2.3-3.3,5.6-3.3,8.9c0,3,1.1,5.6,1.5,8.5c0.2,2.1-0.3,4.7-0.4,6.9c-0.4,5.5-0.1,11.6,3.7,15.6c1,1,2.3,1.9,3.7,1.9
	c2.5,0,4.2-2.7,4.2-5.2s-1.1-4.8-2.1-7.1c-1.7-4.2-2.7-8.9-2.6-13.4C249.2,269.2,249.3,267.9,249.5,266.6z"/>
<g id="Lava_2_">
	<path class="st2" d="M246.7,253.2c-15.4,6.8-23.5,10.2-39.6,7.5c-18.7,4.2-43-9.5-43-9.5c-0.7,2.3-1.3,7.8-0.1,9.9
		c0.3,0.5,0.6,0.9,1,1.3c-0.9,5-1.8,9.9-2.7,14.9c-1,5.5-0.7,10.2,2.1,15.5c2.2,4.1,5.5,7.3,7.8,11.3c0.9,1.6,2.8,5.6,3.3,7.4
		c0.4,3.7-1.1,5.4-0.8,9.3c0.5,7.3,1.8,15.8,10,17.6c0.4,0.2-2.5,1.8-2.1,2c1,0.4-0.1,14.1,0,15.8c0.2,3.1,3.9,6.6,6.7,8.3
		c3.1,1.9,18.2,6.4,18.2,6.4s22.9-4.4,26.2-8.1c11.2-12.3,2.8-22.1,3.9-34.1c0-0.3,0-0.6,0-0.9c0.4-2.4,0.5-4.9,0.5-7.2
		c0-1-0.1-2-0.1-3.1c0.4-2.9,0.8-5.8,1.1-8.7c5.2-2.8,7.4-8.9,4.7-15.2c-4-9.1-5.8-14.8,2.2-27.8c1.8-2.9-0.8-3.6-1-6.9
		C246.9,257,249.4,252,246.7,253.2z"/>
	<path class="st3" d="M207.2,336.1l-53.4,19.5l53.4,19.1l53.8-18.5L207.2,336.1z M169.2,354.8l38.3-14l38.6,14.4l-38.6,13.3
		L169.2,354.8z"/>
	<polygon class="st1" points="261,340.5 251.8,340.5 207.4,355.7 165.3,340.5 153.8,339.9 153.8,343.3 207.2,362.4 261,344 	"/>
	<path class="st3" d="M207.2,320.4l-53.4,19.5l53.4,19.1l53.8-18.5L207.2,320.4z M169.2,339.1l38.3-14l38.6,14.4l-38.6,13.3
		L169.2,339.1z"/>
	<path class="st2" d="M232.2,336.1c-0.5-5.3-0.1-7.8-0.2-9.5c-0.1-1.7-1.2-1.8-2.3-2.8c-0.4-0.9-1.1-1.7-2-2.3
		c-1-1.1-2.3-1.8-3.8-2.1c-1.1-1.5-3-2.6-4.8-2.4c-0.5,0.1-1,0.1-1.5,0.3c-0.1-0.1-0.1-0.3-0.2-0.4c-1.3-3.2-4.8-4.9-8.1-3.9
		c-0.2,0-0.3,0.1-0.5,0.2c-2.5-2.5-6.8-1.7-9,1c-2.3-1.6-6-1.5-7.8,0.6c-1,1.2-1.8,2.4-2.5,3.7c-1-0.9-2.1-1.7-3.2-2.5
		c-2.7-1.8-6.6-0.5-8.2,2.1c-1,1.8-1,3.7-0.3,5.3c0,0-0.1,0-0.1,0c-3.8-0.4-7.7,2.9-6.6,7.4c1.3,5.1,7,8.8,12.2,6.7
		c0.4-0.2,0.8-0.5,1.2-0.7c0,0,0,0,0,0c0,0.6,0.1,1.2,0.3,1.9c0.2,0.5,0.4,0.9,0.6,1.3c-2.4-0.6-4.8,3.4-2.2,4.4
		c1.5,0.6,2.9,1,4.4,1.6c1.5,0.6,3.6,1.4,5.3,1.5c0.9,0.1,1.3-0.9,1.6-1.7c0.5,0.2,1,0.4,1.5,0.6c1.8,0.7,3.5,0.2,4.8-0.7
		c0.3,0,0.6,0,0.9-0.1c0.1,0.1,0.3,0.1,0.5,0.1c1.8,0.5,4,0,5.5-1.2c0.9,0.4,1.9,0.6,2.9,0.6c0.7,0.3,1.4,0.4,2.2,0.4
		c0.7,0.3,1.5,0.5,2.2,0.5c0.1,0,0.2,0.1,0.3,0.1c0,0,0.1,0.1,0.1,0.1c1,0.9,2.2,1.4,3.6,1.4c0.3,0.2,0.6,0.3,1.1,0.4
		c0.7,0.1,0.9,0,1.6-0.2c2.2-0.7,6.8-2.2,8.9-3c1.5-0.5-0.2-1.6-0.7-2.8c0.3-0.5,0.6-1,0.7-1.7c0.3-1.5,0.5-2.9,0.7-4.4
		C231.8,335.3,232.3,337,232.2,336.1z"/>
	<path class="st2" d="M171,316.9c0-2.2-0.2-13.9-4.1-13.4c-1.1,0.2-1.7,1.3-2.1,2.3c-1.3,3.2-11,25.1,1.5,20.4
		C170,324.9,170.9,320.4,171,316.9z"/>
	<path class="st2" d="M239.9,331.7c-0.1-1.1-0.3-2.2-0.6-3.2c-0.7-3.6-3.8-6.6-8-6.3c-1.6,0.1-2.9,1.3-2.9,2.9c0,1.4,1.2,2.9,2.7,3
		c0.1,0.3,0.3,0.6,0.5,0.8c-0.5,2.9-1,6.4-0.3,9.3c0.8,3,4.3,4.1,6.5,1.9C239.9,338.1,240.2,334.5,239.9,331.7z"/>
</g>
<g>
	<path class="st3" d="M282.5,156.3c9.4-3.7,19.5-5,29-8.5c14-5.2,25-17.7,28.5-32.2c0.2,5,0.4,9.9,0.6,14.9
		c9-7.5,12.3-19.8,19.2-29.3c8.5-11.7,21.9-18.5,34.8-25.2c3.3-1.7,6.7-3.5,8.6-6.7c-5.5,11.1-15.4,19.9-19.8,31.5
		c-2.5,6.5-3.1,13.6-4.6,20.4s-4.5,13.8-10.2,17.8c6.1-3.5,12.2-7.1,17.1-12.1c3.7-3.9,6.6-8.5,10.1-12.6s8-7.7,13.3-8.5
		c-5.8,5.5-11.7,11.4-15.1,18.6c-2.3,4.9-3.5,10.2-5.3,15.3c-4.4,12.2-13.1,22.8-24.2,29.5c-11.1,6.8-24.4,9.7-37.3,8.1
		c0.9,2.4,3.7,3.3,6.3,3.9c9.8,2,19.9,2.7,29.8,2.1c-14.6,5.2-30.7,8.6-45.3,3.5c-6.2-2.2-11.7-5.8-17.8-8.1
		c-11-4.3-23.6-4.3-34.7-0.1C266,178.4,273.3,160,282.5,156.3z"/>
	<path class="st2" d="M285.2,157.7c7.6-3,15.8-4.1,23.5-6.9c11.3-4.2,20.3-14.3,23.1-26.1c0.2,4,0.3,8.1,0.5,12.1
		c7.3-6.1,9.9-16,15.5-23.7c6.9-9.5,17.8-15,28.2-20.4c2.6-1.4,5.4-2.9,6.9-5.4c-4.5,9-12.5,16.1-16.1,25.5c-2,5.3-2.5,11-3.8,16.6
		s-3.6,11.2-8.2,14.4c4.9-2.8,9.9-5.7,13.9-9.8c3-3.1,5.3-6.9,8.2-10.2s6.5-6.2,10.8-6.9c-4.7,4.5-9.4,9.2-12.2,15.1
		c-1.9,4-2.8,8.3-4.3,12.4c-3.6,9.9-10.6,18.4-19.6,23.9s-19.8,7.8-30.2,6.6c0.7,1.9,3,2.7,5.1,3.1c7.9,1.7,16.1,2.2,24.2,1.7
		c-11.8,4.2-24.9,7-36.7,2.9c-5-1.7-9.5-4.7-14.4-6.6c-8.9-3.5-19.1-3.5-28.1-0.1C271.8,175.6,277.8,160.7,285.2,157.7z"/>
	<path class="st4" d="M277.3,171.1c7.2-11.4,21.9-15.6,42.6-16.1c20.7-0.5,30.1-26.9,32.4-34.5c0,12.4,0.5,32.5-8.6,35.2
		c13.6-1.8,17.9-4.2,21.1-9.3c-2.9,8.9-12.2,20-28.9,21.9s-12.5,0-23,2.4c1,4.4,4.7,6.4,8.8,9c-11,1.7-16.3-8.7-23.8-10.3
		C290.3,167.7,283.9,171.3,277.3,171.1z"/>
</g>
<g>
	<path class="st3" d="M121.4,151.9c-4.5-1.2-9.2-2.6-11.9-6.1c-1.9-2.4-2.3-5.5-3.3-8.3c-2.4-6.7-8.3-12.4-15.7-15
		c-5.8-2.1-12.4-2.3-18.2-4.3c-8-2.7-14.4-8.9-16.8-16.2c-2.4-7.3-0.7-15.5,4.3-21.5c-8.5,1-14.6,8.3-15.4,15.9
		c-0.8,7.5,2.8,14.9,7.6,21.2c-6.4-2-11.4-7.3-12.4-13.2c-4.9,7.1-4.6,16.1-3.3,24.4c0.6,3.8,1.4,7.7,3.4,11.2
		c2,3.5,5.2,6.5,8.3,9.3c4.9,4.5,9.8,9,15.8,12.3c7.4,4.1,16.1,6,24.7,7c9.9,1.2,15-0.2,21.3,3.5c-11.4-2.3-16.3,0.2-28.2-0.9
		c-8.3-0.8-17.6-2.5-23.3-7.9c0.3,7.6,6.9,17,14.5,20.5c7.7,3.6,16.6,4.4,25.3,3.9c5.9-0.3,11.9-1.2,17.4-3
		c5.3-1.7,10.2-4.3,15.5-5.7c5.5-1.5,15.8-1.1,21.1,1.1c3.8-5.1,1.5-13.8-3.8-18.7C141.9,155.5,129.7,154.1,121.4,151.9z"/>
	<path class="st2" d="M115.8,152.2c-3.9-0.7-5.9-4.9-8.5-7.8c-1.9-2.1-2.6-5-3.7-7.5c-2.8-6.1-8.4-10.9-14.9-12.6
		c-5.1-1.4-10.6-0.9-15.8-2.2c-7-1.8-13.1-7-15.9-13.6c-2.8-6.7-2.3-14.6,1.3-20.9c-7,1.8-11.4,9.4-11.2,16.6
		c0.1,7.2,4,13.9,8.7,19.3c-5.6-1.2-10.4-5.7-11.9-11.2c-3.3,7.3-2.1,15.7-0.1,23.5c0.9,3.6,2,7.2,4.1,10.3c2.1,3.2,5.1,5.6,8,8
		c4.6,3.8,9.7,5.3,15.1,7.8c6.7,3.1,14.4,4.6,21.8,4.8c8.5,0.1,11.9-0.2,17.6,2.7c-9.8-1-13.7,1.9-23.8,2.1
		c-7.1,0.1-15.1-0.6-20.5-5.1c1.1,7.2,7.7,15.4,14.5,18c6.8,2.6,14.5,2.4,21.7,1.1c5-0.9,9.9-2.4,14.3-4.7c4.2-2.2,8.1-5.1,12.4-7
		c4.5-2,16.2,0.7,20.9,2.3c2.6-5.2-5.7-16.5-11.8-18.8C130.9,154.4,123,153.5,115.8,152.2z"/>
	<path class="st4" d="M133.8,159.1c-3.6-1.8-7.8-2-11.8-2.2s-8.2-0.3-11.9-2c-9.1-4.2-12.9-16.6-22.6-19.1c-3.8-1-7.9-0.1-11.8-0.1
		c-4,0-8.4-1.2-10.3-4.7c-2.4,5.5,0.2,12.2,4.7,16.1c4.6,3.9,10.6,5.5,16.6,6.5c-2.7,1.5-6,1.9-9,1.1c-0.4,4.5,4.7,7.5,9.2,8.4
		c11.8,2.3,24.6-2.1,35.5,2.9c-3.5,0.5-5.4,4.2-7.7,6.9c-2.6,2.9-6.4,4.8-10.3,5c4.3,1.2,9.2,0.3,12.9-2.3c2.4-1.7,4.4-4,6.6-5.9
		c2.2-1.9,5-3.5,8-3.4c3,0.1,10.7,4.5,11,3.6c0.3-1.1,0.1-2.3-0.2-3.4C141.8,163.7,136.4,160.3,133.8,159.1z"/>
</g>
<path class="st3" d="M167.9,176.7c-3.6,0.7-7.7,0.8-10.5-1.6c-1.5,3.3-0.2,7.6,2.9,9.6c-4.4,1.4-9.2,1-13.3-1
	c-0.9,3.1-1.1,7.7,1.8,9.2c-4.9-1.1-13.8,2.6-20.4,0.2c0.7,7.6,12.8,12.4,15.9,12c-0.5-1.2,3.9-7.4,12.2-9.4
	c1.7-0.4-0.1-5.9,4.6-7.5c1.6-0.6,3.8-0.5,4.2-2.2c0.2-1-0.3-2.2,0.2-3c0.3-0.5,0.8-0.7,1.3-0.9c2.6-1,9.4-2.7,12-3.5
	c2.5-0.8,1.4-0.9,2.5-3.4C176.8,175.4,172.4,175.8,167.9,176.7z"/>
<g>
	<path class="st4" d="M169.6,273.1c-0.2,3.6-0.4,7.4,1,10.7c0.8,2,2.2,3.8,3.3,5.7c1,1.9,1.7,4.3,0.9,6.3c-1.7-5.7-7.9-9.3-9.5-15.1
		c-0.4-1.6-0.4-3.2-0.3-4.9c0.2-3.3,1.1-6.6,2.4-9.6c0.4-0.8,0.5-2,1.1-2.6C169.9,266.4,169.7,270.1,169.6,273.1z"/>
	<path class="st4" d="M166.5,287.3c0.9,1.2,2.1,2.1,3.1,3.3c0.9,1.2,1.6,2.7,1.2,4.2c-0.6,0.1-1-0.4-1.3-0.9
		c-0.7-1.1-1.4-2.2-2.1-3.3c-1.3-2-3.5-5-3.1-7.5C165.1,284.4,165.5,286,166.5,287.3z"/>
	<path class="st4" d="M173.4,302.3c1,1.6,2,3.3,2.6,5.2c0.7,2.3,0.6,4.7,0.6,7.1c0.6,0.1,1.3-0.4,1.5-0.9c0.3-0.6,0.3-1.2,0.4-1.9
		c0-0.8,0.1-1.7-0.1-2.5c-0.2-0.9-0.6-1.7-1-2.5c-1.4-2.9-3.4-7.8-6.5-9.3C170.6,298.8,172.8,301.2,173.4,302.3z"/>
	<path class="st4" d="M177.4,300.5c-0.3,0.4-0.7,0.8-0.7,1.3c0,0.3,0.1,0.6,0.2,0.9c0.4,0.9,0.8,1.8,1.2,2.7
		c0.1,0.1,0.1,0.3,0.3,0.4c0.3,0.2,0.7-0.2,0.9-0.5c2.9-4.6,3.2-10.7,0.8-15.6c-0.1-0.2-0.2-0.4-0.4-0.5c-0.2-0.1-0.4-0.2-0.6-0.2
		c-1.1-0.2-4.9-1.5-3.7,0.7c0.7,1.3,2.2,1,3.2,1.7C181.2,293.4,178.9,298.7,177.4,300.5z"/>
	<path class="st4" d="M174.2,285.4c1.6,1.3,3.9,1.3,5.9,1.3c0-0.2,0-0.5,0-0.7c-2-0.1-3.9-1.4-4.8-3.2c-0.9-1.9-0.6-3.9,0.4-5.7
		C170.7,273.4,171.4,283.2,174.2,285.4z"/>
	<path class="st4" d="M172.3,272.9c0,0.2,0,0.5,0.1,0.7c0.2,0.6,1,0.8,1.7,0.9c4.3,0.8,8,4.5,8.8,8.8c1.1-3,3.3-5.5,6.1-6.9
		c0.6-0.3,1.3-0.6,1.8-1.1c0.5-0.5,0.7-1.4,0.3-2c-0.5-0.7-1.5-0.7-2.2-0.3c-0.7,0.4-1.2,1-1.8,1.6c-0.8,0.7-1.9,1.2-3,1.4
		c-0.2,0-0.5,0.1-0.7,0c-0.3-0.1-0.5-0.5-0.6-0.8c-0.6-1.6-0.5-3.4-0.1-5.1c0.4-1.7,1.2-3.3,1.8-4.9c0.7-2,1.2-4.1,1.4-6.3
		c0-0.2,0-0.4-0.1-0.5c-0.1-0.1-0.2-0.2-0.4-0.2c-2.8-0.8-5.6-1.7-8.5-2.5c-0.6-0.2-1.2-0.3-1.7-0.1c-0.3,0.2-0.6,0.5-0.8,0.8
		c-1.6,2.3-3.5,5.3-3.2,8.3C171.5,267.4,172.4,269.9,172.3,272.9z"/>
	<path class="st4" d="M185.7,267.2c0,0.3,0,0.6,0.1,0.8c0.1,0.3,0.4,0.5,0.7,0.6c1.4,0.7,3,0.8,4.3,1.7c0.8,0.6,1.4,1.5,1.6,2.5
		c0.1,0.4,0.1,0.8,0.5,1c0.2,0.1,0.4,0.1,0.7,0c3.4-0.8,6.3-3.3,7.5-6.6c0.2-0.6,0.4-1.3,0.2-1.9c-0.3-0.9-1.2-1.5-2.1-1.9
		c-1.9-0.9-3.8-1.9-5.8-2.8c-1.2-0.6-3.9-2.6-5.3-2.1c-1.2,0.4-1.2,2.1-1.3,3.1C186.5,263.5,185.9,265.3,185.7,267.2z"/>
	<path class="st4" d="M185,284.5c0,0.5,0.4,1.2,0.9,1.1c0.2,0,0.3-0.2,0.4-0.3c1-1.1,1.7-2.4,2.6-3.6c0.7-0.9,1.4-1.7,2.3-2.4
		c0.7-0.6,2.2-1.2,2.7-1.9c0.7-0.9-0.3-0.8-1.3-0.7C189.4,277,185,281.2,185,284.5z"/>
	<path class="st4" d="M197.4,274.8c-0.2,0.3-0.4,0.6-0.3,0.9c0.1,0.5,0.8,0.7,1.2,1c0.5,0.4,0.6,1.2,0.4,1.9
		c-0.2,0.6-0.7,1.2-1.1,1.7c1.2-0.1,2.3-0.8,3.4-1.2c1.1-0.4,2.6-0.5,3.4,0.4c0.5,0.5,1,1.4,1.6,1c0.1-0.1,0.2-0.2,0.3-0.4
		c0.9-1.9-0.4-4.3,0.5-6.2c0.8-1.7,2.9-2.1,4.6-2.9c2.7-1.4,4.5-4.4,4.4-7.4c0-0.4,0-0.7-0.2-1c-0.3-0.5-0.8-0.7-1.3-0.9
		c-2.5-0.9-8.4-1.8-10.5,0.7c-1.3,1.6-1.9,4.1-2.8,6C200,270.4,198.9,272.8,197.4,274.8z"/>
	<path class="st4" d="M188.7,291.6c-0.4,1.1-0.6,2.4,0,3.5c0.4,0.7,1.2,1.1,1.8,1.6c1.9,1.5,3.1,3.7,3.8,6c0.6,2.3,0.7,4.7,0.7,7.1
		c0.7-3.1,0.7-6.3-0.1-9.4c-0.5-1.8-1.2-3.5-1.4-5.3c-0.2-1.4,0-2.8,0.2-4.1c0.3-2,0.8-4,1.5-5.9c0.4-1.1,1.7-4.3-0.5-2.8
		C191.8,284.1,189.7,288.4,188.7,291.6z"/>
	<path class="st4" d="M190,309.6c0.5,1.7,0.5,3.5,0.5,5.3c0,0.4,0.1,1,0.6,1c0.2,0,0.4-0.1,0.5-0.2c0.5-0.5,0.9-1.1,1.1-1.8
		c1.3-3,1.8-9.8-1.6-11.7c-1.2-0.7-2.5-0.5-2.9,0.9C187.6,305.1,189.5,307.8,190,309.6z"/>
	<path class="st4" d="M185.8,316.1c0.9,0.7,2.1,0.9,3.3,0.8c1.2-0.1,2.3-0.5,3.3-0.9c0.3,0.4,0.2,1,0,1.4c-0.2,0.4-0.6,0.8-0.9,1.1
		c-0.5,0.5-1,1-1.6,1.2c-0.7,0.3-1.4,0.3-2.2,0.3c-0.8,0-1.7,0-2.5-0.3c-1.4-0.5-2.4-1.9-2.8-3.4c-0.2-0.8-0.8-5,0.9-4.4
		C184.3,312.4,184.7,315.3,185.8,316.1z"/>
	<path class="st4" d="M180.5,313c-0.2,1-0.2,2.1-0.2,3.1c0,1.5-0.1,3-0.3,4.4c-0.1,0.8-0.3,1.6-1,2c-0.8,0.4-1.8-0.2-2.1-1
		s-0.2-1.7-0.1-2.6c0.2-1.1,0.3-2.1,0.5-3.2c-0.3-0.3-0.8-0.2-1.1,0.1s-0.3,0.7-0.4,1.1c-0.1,1-0.3,1.9-0.4,2.9
		c-0.2,1.2-0.2,2.6,0.4,3.6c0.7,1,2,1.5,3.2,1.2c1.5-0.5,2.3-2.1,2.5-3.7s-0.2-3.1-0.3-4.7c-0.1-1.9,0.3-3.6,0.7-5.4
		C180.9,311,180.6,312.3,180.5,313z"/>
	<path class="st4" d="M187,326.9c0,0.2,0.1,0.4,0.2,0.5c0.1,0.1,0.3,0.2,0.5,0.1c0.1-0.1,0.1-0.2,0.2-0.3c0.8-1.9,1.6-3.8,2.4-5.6
		c-1.3,0.1-3.2-0.2-4.4,0.2c-1.1,0.4-1.1,0.9-1.4,2C185.6,324.4,186.7,325.4,187,326.9z"/>
	<path class="st4" d="M173.8,329.4c0.2,0.5,0.6,1,1,1.3c1.6,1.5,3.5,2.7,5.7,3s4.5-0.4,6-1.9c0.1,0.9-0.1,1.9-0.6,2.7
		c-1.5,2.6-5.2,3.5-7.9,2.4s-4.6-4-5.1-7c-0.1-0.8-0.1-1.8,0.4-2.4C173.8,327.9,173.5,328.7,173.8,329.4z"/>
	<path class="st4" d="M168.8,311.2c0.2,2.7,0.1,5.6-1.2,8c-1.3,2.4-4.1,4.2-6.8,3.6c-0.1,1.9,1.7,3.7,3.5,3.5
		c1.3-0.1,2.4-0.9,3.2-1.9c1.8-2.4,2-5.6,2.1-8.6c0.1-1.8,0.1-3.6,0.2-5.4c0-1.2,0.1-2.4-0.4-3.6c-0.4-1-2.1-2.7-1.8-0.7
		C167.9,307.9,168.7,309.4,168.8,311.2z"/>
	<path class="st4" d="M183.4,293.2c0,0.3,0.2,0.7,0.5,0.8c0.4,0.1,0.7-0.4,0.7-0.9c0.2-1,0.3-6.6-1.3-6
		C181.8,287.6,183.3,292.1,183.4,293.2z"/>
	<path class="st4" d="M183.6,299.4c-0.3,0.1-0.4,0.4-0.5,0.6c-0.2,0.4-0.3,0.8-0.3,1.2c0.1,0.4,0.4,0.8,0.8,0.7
		c0.3,0,0.6-0.3,0.7-0.6c0.2-0.3,0.3-0.6,0.2-1c0-0.3-0.3-0.7-0.6-0.7c-0.3-0.1-0.7,0.2-0.7,0.5"/>
	<path class="st4" d="M200.9,294.8c0.5,0.4,1.2,0.8,1.4,1.5c0.3,0.8-0.1,1.7-0.6,2.4c-1,1.8-2,3.5-2.9,5.3c-0.1,0.2-0.3,0.5-0.6,0.5
		c-0.2,0-0.3-0.1-0.4-0.3c-0.5-0.7-0.7-1.7-0.8-2.5c-0.2-1.4-0.5-2.8-0.7-4.2c-0.6-3.4-1.1-6.9-0.8-10.3c0-0.5,0.4-2.9,1.4-2.5
		c0.7,0.3,0.3,2.7,0.4,3.3C197.4,290.6,198.7,293.2,200.9,294.8z"/>
	<path class="st4" d="M212.8,283.8c0.1,3.4,0.8,6.8,2,10c-0.1-2.8-0.5-5.6-0.5-8.4c0-1.3,0-2.7,0.2-4c0.2-1,1.3-3,1.1-3.8
		c-0.3-1.5-2.4-0.8-3.2,0c-1.1,1-0.8,1.8-0.3,3C212.6,281.6,212.8,282.5,212.8,283.8z"/>
	<path class="st4" d="M214.6,272c-1.7,1.7-4,2.9-5.4,4.8c2-1.4,4.4-2.3,6.8-2.8c0.6-0.1,1.3-0.2,1.9-0.5c0.5-0.3,1-0.7,1.4-1.1
		c1.8-1.9,2.8-4.5,3.8-7c0.8-2.2-0.2-3.4-2.4-4.1c-1.4-0.4-2,0-2.4,1.3C217.3,266.1,217.4,269.2,214.6,272z"/>
	<path class="st4" d="M227.5,265.1c-0.8,1.6-2,2.9-2.9,4.5c-1.4,2.2-2.1,4.8-2.3,7.4c-0.3,5.4,2.2,10.9,1.3,16.2
		c-1-5.8-4.2-11-4.8-16.8c-2.5,5.6-2.5,12.1-0.5,17.9c0.7,2.1,1.7,4.1,2.3,6.3c0.8,3.4,0.4,6.9-0.2,10.4c-0.4,2.3-1,4.7-2.7,6.2
		c-0.6,0.5-1.3,1.1-1.1,1.8c0.1,0.4,0.5,0.6,0.8,0.8c1.5,0.9,3.2,1.5,4.9,1.7c0.7,0.1,1.4,0.1,2.1-0.2c1-0.5,1.3-1.8,1.2-3
		c-0.2-1.1-0.7-2.1-1.1-3.2c-0.9-2.2-1.1-4.7,0-6.8c0.7-1.4,1.9-2.4,2.5-3.9c1.4-3.6-1.8-7.6-1.1-11.4c0.3-1.7,1.4-3.1,2.4-4.5
		c0.7-0.9,1.4-1.9,2.1-2.8c0.2-0.3,0.4-0.6,0.4-0.9c0-0.5-0.4-0.8-0.7-1.1c-2-1.9-3-4.7-2.9-7.5c0.1-2.8,1.1-5.4,2.7-7.8
		c0.3-0.5,0.7-1,0.8-1.6c0.3-1.4-0.6-2.7-0.6-4.1c0-0.7,0.3-1.4,0.4-2.1c0.2-1.6-2-2.9-2.3-1c-0.1,0.6,0.4,1.5,0.4,2.2
		C228.4,263.1,228,264.2,227.5,265.1z"/>
	<path class="st4" d="M231.9,268.9c-0.4,0.7-0.9,1.2-1.4,1.8c-0.5,0.6-0.8,1.4-0.7,2.1c0.4-1.3,1.9-2.2,3.2-2.1
		c0.2,0,0.5,0.1,0.6,0.2c0.2,0.2,0.2,0.5,0.3,0.8c0.1,1.3,0.2,2.5,0.2,3.8c1.3-1.1,1.5-3.2,2.9-4.1c0.5-0.3,1.1-0.4,1.5-0.8
		c0.4-0.4,0.6-0.9,0.7-1.4c0.5-2.1,0.6-4.3-0.2-6.3c-0.8-1.9-3.9-5.4-6.1-3.3C230.6,261.9,233.4,266.2,231.9,268.9z"/>
	<path class="st4" d="M230.4,278.5c0.4,2.7,2.6,4.8,3.6,7.3c1.7,4.4-0.3,9.4-0.8,14.1c1.8-0.4,3.2-1.9,3.7-3.7
		c0.5-1.7,0.4-3.6,0-5.4c-0.5-2.5-1.5-5-2.7-7.2c-0.8-1.3-1.6-2.6-2.2-4c-0.5-1.3-0.4-2.8-0.9-4.1
		C230.1,276,230.3,277.6,230.4,278.5z"/>
	<path class="st4" d="M236.6,281.8c0.9,2.3,2.4,4.3,3.1,6.6c-0.8-4.1-1.6-8.4-0.3-12.3c0.3-0.9,0.7-1.8,1-2.8
		c0.3-1.2,0.4-2.4,0.3-3.6c0-0.1-2.3,1.8-2.6,2.1c-0.7,0.9-1.1,1.9-1.4,3C236,277.2,235.6,279.3,236.6,281.8z"/>
	<path class="st4" d="M243.9,285.3c0.4,2.8,1.2,5.7,3.3,7.4c0.3,0.3,0.6,0.5,1,0.6c1,0.3,2-0.3,2.6-1.2c0.6-0.9,0.7-1.9,0.9-2.9
		c-0.7,0.7-1.9,0.8-2.9,0.3c-0.9-0.4-1.6-1.3-2.1-2.2c-0.8-1.7-1-3.5-1.2-5.4c-0.3-3.1,0-7-0.9-10c-1.4,0.7-1.1,4.6-1.2,6
		C243.5,280.5,243.5,283,243.9,285.3z"/>
	<path class="st4" d="M249.3,283.8c-0.2,0.4-0.4,0.8-0.3,1.2c0.1,0.4,0.6,0.7,0.9,0.5c0.2-0.1,0.3-0.3,0.3-0.6
		c0.1-0.5,0.1-1-0.3-1.3c-0.4-0.3-1.1,0-1,0.5"/>
	<path class="st4" d="M203.7,302.1c-0.5,1.9-0.8,4-0.4,6c0.3,2,1.3,3.9,2.9,5.2c1.4,1.1,3.2,1.7,5,1.9c1.8,0.3,3.9,0.1,5.1-1.3
		c-1.7,0.1-3-1.3-4.1-2.6c-2.4-2.9-4.6-6.2-4.9-9.9c-0.2-1.8,0.7-4.7-0.2-6.3C205.2,295.8,204.1,300.4,203.7,302.1z"/>
	<path class="st4" d="M201.7,321.9c0.3-0.7,0.8-1.4,1.5-1.7c0.3-0.1,0.6-0.1,0.9-0.1c1.5,0.1,3,0.4,4.5,0.4s3.1-0.3,4.2-1.2
		c-4-1.1-7.7-3.3-10.7-6.2c-0.5-0.5-1-1-1.4-1.5c-0.6-0.8-1-1.9-1.6-2.6c-0.9,1.9-0.7,4.7-0.3,6.8c0.2,1.1,0.6,2.2,1.1,3.3
		C200.1,319.4,201.7,321.9,201.7,321.9z"/>
	<path class="st4" d="M193.4,339.4c0-0.4-0.1-0.7,0-1.1s0.4-0.7,0.7-0.7c0.4,0,0.7,0.4,0.9,0.8c0.9,1.9,0.7,4.3-0.5,6.1
		c-0.1,0.1-0.1,0.2-0.3,0.2c-0.1,0-0.2,0-0.3,0c-1.4-0.4-1.5,0.1-1-1.6C193.3,341.8,193.4,340.6,193.4,339.4z"/>
	<path class="st4" d="M193.8,333.9c0.1,0.2,0.1,0.4,0.3,0.5c0.2,0.1,0.3,0,0.5,0c0.4,0,0.7,0.4,0.9,0.8s0.3,0.8,0.6,1.1
		c0.1-2.1,0.2-4.1,0.3-6.2c0,0.2-2.9-0.3-3.2,0.1C192.6,330.9,193.6,333.2,193.8,333.9z"/>
	<path class="st4" d="M198.3,343.4c1.3-0.7,2.1-2.1,2.3-3.5s0.1-2.9-0.1-4.3c-0.5-4.1-1.1-8.2-1.6-12.3c-0.1-0.8-0.4-2-1.3-2.3
		c0,1.3,0.7,2.9,1,4.2c0.3,2,0.5,4,0.5,6C199.1,335.2,198.7,339.3,198.3,343.4z"/>
	<path class="st4" d="M204,341c1.2-0.2,2.3-0.2,3.5-0.2c0.3,0,0.7,0.1,0.9,0.2c0.3,0.2,0.5,0.5,0.6,0.8c0.5,1.1,0.4,2.3,0,3.4
		c-0.4,1.1-1,2.1-1.6,3.1c0.8,0.2,1.7-0.2,2.2-0.8c0.6-0.6,0.9-1.4,1.2-2.2c0.6-1.5,1-3.1,0.9-4.7c-0.1-1.6-0.8-3.2-2.1-4.2
		c-0.7-0.5-1.6-0.8-2.5-0.9c-1.6-0.2-4-0.2-4.8,1.5C201.8,338.5,201.9,341.3,204,341z"/>
	<path class="st4" d="M221.2,335.2c-1.7,0.3-3.4,0.7-4.9,1.4s-2.9,1.9-3.5,3.5c-0.6,1.6-0.3,3.6,1,4.7c1,0.8,2.5,1,3.7,0.4
		c0.1-0.1,0.3-0.2,0.3-0.3c0-0.2-0.3-0.4-0.5-0.5c-1-0.4-2.1-1.2-2.2-2.3c0-1.1,1-2,1.9-2.6c2.5-1.6,5.2-3,7.9-4.1
		c-2.3-0.8-5-0.4-7,0.9"/>
	<path class="st4" d="M237.7,337.3c-0.6,0.4-1.3,0.5-2.1,0.5c-1.3,0.1-2.6,0.2-3.9,0c-0.6-0.1-1.2-0.3-1.7-0.6
		c-1-0.6-1.7-1.6-2.2-2.6s-0.7-2.2-0.9-3.3c2,1.1,3.5,3.2,5.7,3.8c0.8,0.2,1.7,0.3,2.5,0.3c0.6,0,2.8-0.4,3.1-0.1
		C238.8,336,238.1,337,237.7,337.3z"/>
	<path class="st4" d="M233.4,321.9c0,0.4,0,0.8,0.2,1.2s0.5,0.7,0.9,0.7c0.4,0,0.7-0.1,1,0c0.4,0.1,0.8,0.7,1.2,0.6
		c0.4-0.1,0.5-0.7,0.3-1.2c-0.4-1.3-1.4-2.4-2.2-3.5c-0.5-0.8-1-1.5-1.3-2.4C233.2,318.6,233.4,320.5,233.4,321.9z"/>
	<path class="st4" d="M231.7,306.9c-0.2,0.6-0.3,1.3,0.1,1.8c0.2,0.3,0.5,0.4,0.9,0.5c1.2,0.3,2.6-0.4,3.1-1.6
		c0.3-0.7,0.3-1.5,0.2-2.2c0-1.4,0-3.7-1.9-2.6C232.9,303.6,232.1,305.6,231.7,306.9z"/>
	<path class="st4" d="M237.9,305.7c-0.2,0.5-0.3,1-0.3,1.5c1.4-0.3,5.8-3.3,5.1-5c-0.9,0.2-1.4,1.1-2,1.8c-0.4,0.4-0.8,0.9-1.3,1.2
		C239.2,305.3,237.9,305.7,237.9,305.7z"/>
	<path class="st4" d="M240.9,298.4c-0.1,0.3-0.1,0.7,0.2,1c0.1,0.1,0.3,0.1,0.5,0.1c0.3,0,0.5,0.1,0.8,0.1c0.2,0,0.4,0,0.6,0
		c0.4-0.2,0.4-0.7,0.3-1.1c-0.3-2.1-1.1-5-2.6-6.6C240.5,293.9,241.3,296.1,240.9,298.4z"/>
	<path class="st4" d="M225,311c0,0.1,0.1,0.2,0.1,0.2c0.1,0,0.2,0,0.3,0c0.7-0.1,1.2-0.8,1.5-1.5c0.3-0.7,0.6-1.4,1.2-1.8
		c1.8-1.2-0.7-1.6-1.7-1C225.1,307.7,224.6,309.7,225,311z"/>
	<path class="st4" d="M218.7,309c0.2-0.1,0.5-0.3,0.7-0.1c0.1,0.1,0.1,0.2,0.1,0.3c0.2,1,0,2-0.5,2.8c-0.5,0.8-1.4,1.4-2.4,1.3
		c-0.7,0-1.4-0.4-2-1c-0.8-0.7-2.3-2.6-0.7-2.9c0.6-0.1,1.6,0.4,2.2,0.4C217,309.9,217.9,309.5,218.7,309z"/>
	<path class="st4" d="M196.8,316.1c-0.2,0.6-0.2,1.2,0,1.8c0.1,0.4,0.3,0.7,0.7,0.8c0.2,0,0.3-0.1,0.5-0.2c0.4-0.3,0.5-0.9,0.4-1.4
		c-0.1-0.5-0.5-0.9-0.9-1.2c-0.1-0.1-0.3-0.1-0.4-0.1c-0.3,0-0.5,0.3-0.5,0.6s0.1,0.5,0.2,0.8"/>
	<path class="st4" d="M202.2,330.9c0.1,0.6,0.3,1.3,0.9,1.6c0.2,0.2,0.6,0.2,0.8,0c0.1-0.1,0.1-0.2,0.1-0.4c0.2-1.6-0.4-3.3-0.5-4.9
		c-0.1-0.9,0-1.9,0.3-2.8c0.1-0.6,0.3-1.3-0.3-1.6C200.8,321.5,201.9,329.8,202.2,330.9z"/>
	<path class="st4" d="M209.8,332.7c0,0.4,0,0.8,0.2,1c0.3,0.4,1,0.2,1.3-0.2c0.3-0.4,0.3-0.9,0.3-1.4c0.1-1.6,0.1-3.1,0.2-4.7
		c0-1.1-0.9-6-1.8-2.8c-0.3,1.1,0,2.7,0,3.9C210,329.8,209.9,331.2,209.8,332.7z"/>
	<path class="st4" d="M213.5,333.4c0,0.5,0.1,1.2,0.6,1.3c0.3,0.1,0.6,0,0.8-0.2c0.5-0.2,1.1-0.5,1.3-1c0.1-0.3,0.1-0.6,0.1-0.9
		c-0.1-2.7,0-5.3,0.3-8c0-0.3,0.1-0.6,0-0.8c-0.1-0.6-1.6-2.1-2.3-1.7c-0.5,0.3-0.2,1.9-0.3,2.5
		C213.8,327.5,213.5,330.5,213.5,333.4z"/>
	<path class="st4" d="M217.3,326.8c-0.5,1.8-0.5,3.8-0.4,5.7c0,0.6,0.1,1.4,0.6,1.7c0.6,0.4,1.5-0.1,1.8-0.7
		c0.3-0.6,0.3-1.4,0.3-2.1c-0.1-2.2,0-4.4,0.2-6.5c0-0.3,0.1-0.6,0-0.9c-0.3-0.8-1.2-0.9-1.7-0.4
		C217.6,324.1,217.5,326.1,217.3,326.8z"/>
	<path class="st4" d="M220.8,333.3c0,0.1,0,0.1,0.1,0.2c0.1,0.1,0.1,0.1,0.2,0.1c0.5,0.1,1.1,0.1,1.4-0.4c0.1-0.2,0.1-0.4,0.1-0.6
		c0.1-1.8-0.3-3.7,0.2-5.4c0.1-0.5,0.3-0.9,0.3-1.4c0.1-0.7-0.6-2.1-1.5-1.6c-0.6,0.3-0.4,1.7-0.4,2.2
		C221,328.6,220.4,331,220.8,333.3z"/>
	<path class="st4" d="M225.5,331.1c0,1.2,0.1,2.5,0.3,3.7c-0.9-0.3-1.8-0.7-2.1-1.5c-0.1-0.3-0.1-0.5-0.1-0.8c0-1.8-0.1-3.6-0.1-5.4
		c0-0.4,0-0.8,0.2-1.2c0.2-0.3,0.4-0.6,0.7-0.8c1-0.7,2.9-1.8,4.1-1.6c-0.2,0.9-1.2,1.7-1.7,2.5
		C225.7,327.5,225.5,329.3,225.5,331.1z"/>
	<path class="st4" d="M232,323.1c-0.4,0.4-1,0.2-1.4,0c-0.7-0.3-1.4-0.6-2.2-0.8s-1.6-0.2-2.3,0.2c0.7-0.6,1.5-1.3,1.5-2.2
		c0-0.3-0.1-0.7-0.2-1c-0.3-0.8-2.2-4.3-1.6-5.1c0.5-0.7,1.1,0.7,1.4,1.2C228.8,318.1,229.4,320.9,232,323.1z"/>
	<path class="st4" d="M203,284.1C203,284.1,203,284.1,203,284.1"/>
	<path class="st4" d="M203.9,287.6c0.2,1.7,0.3,3.5,0.1,5.2c0.4,0.1,0.7-0.3,0.9-0.6c1.1-1.7,1.7-3.9,1.4-6c-0.3-1.6-1.7-4.9-3.9-4
		c-1.1,0.5-0.4,0.8,0.1,1.5C203.4,284.8,203.7,286.2,203.9,287.6z"/>
	<path class="st4" d="M207.1,292.6c0.7-0.4,1.1-2.2,1-2.9c-0.5,0.2-0.7,0.7-0.9,1.2C207,291.2,206.3,293.1,207.1,292.6z"/>
	<path class="st4" d="M208,288.4c0.3-0.1,0.5-0.4,0.6-0.7c0.1-0.3,0.1-0.7,0-1c0-0.8,0.5-2.4-0.1-2.9
		C207.6,284.6,208.1,287.2,208,288.4z"/>
	<path class="st4" d="M215,295.1c0.2,0.3,0.3,0.8,0.3,1.2c0,0.3-0.1,0.6,0,0.9c0,0.3,0.1,0.6,0.4,0.7c0.3,0.2,0.7,0,0.9-0.3
		c0.2-0.3,0.1-0.7-0.1-1s-0.5-0.5-0.7-0.7c-0.2-0.2-0.5-0.3-0.7-0.5"/>
	<path class="st4" d="M161.8,320c-0.2,0.2-0.2,0.5,0,0.7c0.2,0.2,0.5,0.2,0.8,0.1c0.3-0.1,0.4-0.4,0.5-0.7c0.1-0.2,0.1-0.5-0.1-0.7
		c-0.2-0.2-0.6-0.1-0.9,0.1c-0.3,0.2-0.5,0.6-0.5,0.9"/>
	<path class="st4" d="M218.7,345.2c0,0,6.9-0.8,8.2-3.4c0,0,1.7-1.4,0.8-4.2c0,0,3.9,3.8,2.7,7.5c-0.1,0.3-17.5,6-17.5,6
		c-0.8-0.7-1.2-2.1-0.2-4.7C212.7,346.4,216.9,350.3,218.7,345.2z"/>
	<path class="st4" d="M237.6,339.3c0,0-4.1,1-7.5-1.2c0,0,2.7,4.2,1.5,6.4l6.8-2.2C238.5,342.3,238,339.7,237.6,339.3z"/>
	<path class="st4" d="M193.7,316.8c0,0-3.9,7.5-2.5,11.5c1.4,4,1.9,16-1.2,18.4l-5.3-2c0,0,4.7-3.4,2.1-7.4c0,0,2.8-3.2,3.1-8.1
		C189.8,329.2,188.2,323.8,193.7,316.8z"/>
	<path class="st4" d="M195.5,348.5c0,0,2-3.1,2.4-6.1c0,0,0.3,5.1-1.1,6.6L195.5,348.5z"/>
	<path class="st4" d="M230.4,354.4c0,0-2,4.1-1.8,6.9l-3.9,1.2l-0.7-6L230.4,354.4z"/>
	<path class="st4" d="M236.6,352.2l1.8,0.7c0,0-1,4.7-2.2,5.7l-2,0.7c0,0-4.2-3.7,1.8-5c0,0-0.2-1.1-1.8-1.3L236.6,352.2z"/>
	<path class="st4" d="M221.5,357.5c0,0,0.4,6.2-10.9,7.4c0,0,1.8-2.1,1.3-4.2L221.5,357.5z"/>
	<path class="st4" d="M202.5,360.7c0,0-0.8,3.9,1.6,6.6l-9.8-3.5c0,0,7,1,6.2-3.7L202.5,360.7z"/>
	<path class="st4" d="M211.3,361c0,0,0.7,4.4-5.3,5.3c0,0-3.1,0.2-3.2-3.5c0,0,2.3,6.4,6.9-1.4L211.3,361z"/>
	<path class="st4" d="M205.1,367.7c0,0,2.8,0.4,5.3-2.2c0,0,3,1,6,0.1l-8.9,3.1L205.1,367.7z"/>
	<path class="st4" d="M183.2,353.9c0,0-0.4,3.9,2.2,6.7l2.2,0.8c0,0-2.9-3.9-2.2-6.8L183.2,353.9z"/>
	<path class="st4" d="M185.8,354.7c0,0-0.1,3.6,1.9,5.5c0,0-1.3-3.2,0.9-3.3c0,0,2.5,3.3,3.9,0.2L185.8,354.7z"/>
</g>
<g id="Teeth_shads_2_">
	<path class="st3" d="M183.6,259c0,0-4,10.3-3.5,14.7c0.5,4.3-4.2-1.9-4.2-1.9l2.1-14.2L183.6,259z"/>
	<path class="st3" d="M165.6,256.7c0,0-5.3,5.5-8.6,5.2c-3.4-0.3-0.2-3-0.2-3l6.2-4.5L165.6,256.7z"/>
	<path class="st3" d="M191.8,267.2c0.2,0.2,1.5,0.6,1.5,0.6l2.8-5.6l-1.9-1.8L191.8,267.2z"/>
	<path class="st3" d="M195.1,262.7c0,0,5.8,5,7.1,4.5s3.4-6.2,3.4-6.2l-6.7,0L195.1,262.7z"/>
	<path class="st3" d="M210.2,263.2c0,0.2,0.3,3.9,1.7,3.9s7.1-5.1,6.8-5.1C218.3,261.9,210.2,263.2,210.2,263.2z"/>
	<path class="st3" d="M219.7,262.3l1.2,4.5c0,0,0.3,2.1,1.4,1.3c1-0.7,2.5-3.7,2.4-5.1c0-0.2,0-0.3-0.1-0.4
		C224.3,261.5,219.7,262.3,219.7,262.3z"/>
	<path class="st3" d="M231.5,259.2c0,0,1.9,3.3,3,4.5c1.1,1.2,1.9,7.2,1.7,7.9c-0.2,0.7,1.3,2.5,2.5,0.5l-2.3-14.4L231.5,259.2z"/>
	<path class="st3" d="M247.5,255.3c-0.3-0.5,3.9,4.7,5.8,5.7c1.5,0.7,6.9,1.2,6.9,1.2s1.3-1.1,0.1-2.5c-1.2-1.4-9.8-6.5-9.8-6.5
		L247.5,255.3z"/>
</g>
<g id="Teeth_2_">
	<path class="st0" d="M171.3,267.3c0.7,1.6,1.4,3.2,2.4,4.5c0.6,0.7,1.3,1.3,2,1.6c0.7,0.4,1.6-0.2,1.6-1.2c0.2-2.7,0.5-5.5,1.4-7.9
		c0.4-1.1,3.5-5.1,2.7-6c-0.8-0.9-4.8-2.4-5.8-2.8c-1.6-0.7-3.2-1.3-4.8-1.7c-1.8-0.4-2.3-0.9-2.7,1.3
		C167.5,258.7,170,264.1,171.3,267.3z"/>
	<path class="st0" d="M153.7,261c2.3-0.2,4.5-0.8,6.6-1.7c0.6-0.3,1.2-0.7,1.7-1.1c1.2-1,4-3.9,4.5-5.3c0.4-1-1.3-0.7-1.7-1.7
		c-0.3-0.7-0.8-1.3-1.4-1.7c-3.7-2.4-5-2.1-6.4,1.9c-0.4,1.1-2.2,6.1-3.9,8.5C152.8,260.3,153.1,261,153.7,261z"/>
	<path class="st0" d="M191.3,266.8c0.3,0.3,0.7,0.5,1.1,0.4c0.4-0.1,0.6-0.5,0.8-0.9c0.8-1.7,1.7-3,2.5-4.8c1.6,1.6,3.2,2.7,5,4
		c0.7,0.5,1.5,0.9,2.2,0.5c0.4-0.2,0.6-0.6,0.7-1c0.7-1.6,1.3-3.3,1.7-5c0.1-0.3,0.1-0.6-0.1-0.8c-0.1-0.1-0.3-0.2-0.4-0.2
		c-1-0.2-2.1-0.1-3,0.3c-0.7,0.3-1.2,0.5-2,0.6c-1.1,0.2-2.6-0.5-3.6,0.1c-0.2,0.1-0.3,0.3-0.6,0.3c-0.2,0-0.4,0-0.6-0.1
		c-1.5-0.5-5.7-2.2-6.6-0.4C187.5,261.7,190.1,265.9,191.3,266.8z"/>
	<path class="st0" d="M243.5,267.3c-0.7,1.6-1.4,3.2-2.4,4.5c-0.6,0.7-1.3,1.3-2,1.6c-0.7,0.4-1.6-0.2-1.6-1.2
		c-0.2-2.7-0.5-5.5-1.4-7.9c-0.4-1.1-3.5-5.1-2.7-6c0.8-0.9,4.8-2.4,5.8-2.8c1.6-0.7,3.2-1.3,4.8-1.7c1.8-0.4,2.3-0.9,2.7,1.3
		C247.4,258.7,244.8,264.1,243.5,267.3z"/>
	<path class="st0" d="M261.2,261c-2.3-0.2-4.5-0.8-6.6-1.7c-0.6-0.3-1.2-0.7-1.7-1.1c-1.2-1-4-3.9-4.5-5.3c-0.4-1,1.3-0.7,1.7-1.7
		c0.3-0.7,0.8-1.3,1.4-1.7c3.7-2.4,5-2.1,6.4,1.9c0.4,1.1,2.2,6.1,3.9,8.5C262.1,260.3,261.7,261,261.2,261z"/>
	<path class="st0" d="M223.6,266.8c-0.3,0.3-0.7,0.5-1.1,0.4c-0.4-0.1-0.6-0.5-0.8-0.9c-0.8-1.7-1.7-3-2.5-4.8c-1.6,1.6-3.2,2.7-5,4
		c-0.7,0.5-1.5,0.9-2.2,0.5c-0.4-0.2-0.6-0.6-0.7-1c-0.7-1.6-1.3-3.3-1.7-5c-0.1-0.3-0.1-0.6,0.1-0.8c0.1-0.1,0.3-0.2,0.4-0.2
		c1-0.2,2.1-0.1,3,0.3c0.7,0.3,1.2,0.5,2,0.6c1.1,0.2,2.6-0.5,3.6,0.1c0.2,0.1,0.3,0.3,0.6,0.3c0.2,0,0.4,0,0.6-0.1
		c1.5-0.5,5.7-2.2,6.6-0.4C227.3,261.7,224.7,265.9,223.6,266.8z"/>
</g>
<g id="Nose_2_">
	<path class="st4" d="M207,248.9L207,248.9c-3.3-1.2-15-5-16.5-0.4c0,2,3.2,4.9,5.3,5.4c0.6-1-1.1-1.8-0.3-2.4
		c1.3-0.9,4,0.2,4.3,3.4c0.1,0.8,7.2,2.6,7.2,2.6v0c0,0,7.1-1.8,7.2-2.6c0.3-3.1,3-4.3,4.3-3.4c0.9,0.6-0.9,1.5-0.3,2.4
		c2.1-0.5,5.3-3.4,5.3-5.4C222,244,210.3,247.8,207,248.9z"/>
	<path class="st3" d="M207,258.3c-0.1,0-0.3,0-0.4-0.1c-7.3-1.9-7.4-2.7-7.5-3.2c-0.1-1.4-0.8-2.4-1.8-2.9c-0.4-0.2-0.9-0.2-1.2-0.1
		c0,0.1,0.1,0.1,0.1,0.2c0.3,0.4,0.8,1.3,0.2,2.1c-0.2,0.3-0.5,0.4-0.8,0.3c-2.2-0.6-5.9-3.6-5.9-6.1c0-0.1,0-0.2,0-0.2
		c0.3-0.9,0.9-1.6,1.9-2.1c3.3-1.6,10.2,0.1,15.4,1.9c5.2-1.8,12-3.5,15.3-1.8c0.9,0.5,1.6,1.2,1.9,2.1c0,0.1,0,0.2,0,0.2
		c0,2.5-3.7,5.6-5.9,6.1c-0.3,0.1-0.6-0.1-0.8-0.3c-0.6-0.9-0.1-1.7,0.2-2.1c0-0.1,0.1-0.1,0.1-0.2c-0.3-0.2-0.8-0.1-1.2,0.1
		c-1,0.4-1.6,1.5-1.8,2.9c-0.1,0.5-0.1,1.3-7.7,3.2C207.2,258.3,207.1,258.3,207,258.3z M200.6,254.6c0.7,0.5,3.8,1.5,6.5,2.2
		c2.7-0.7,5.7-1.6,6.4-2.1c0.3-1.8,1.2-3.2,2.6-3.8c1-0.5,2.1-0.4,2.9,0.1c0.8,0.6,0.6,1.3,0.3,1.8c1.6-0.9,3.4-2.8,3.5-4
		c-0.2-0.5-0.5-0.8-1.1-1.1c-2.3-1.1-7.4-0.4-14.5,2c-0.2,0.1-0.5,0-0.7-0.1c0,0,0,0,0,0c-6.9-2.4-12-3-14.2-1.9
		c-0.5,0.3-0.9,0.6-1.1,1.1c0.1,1.3,1.9,3.1,3.5,4c-0.2-0.5-0.5-1.2,0.3-1.8c0.8-0.5,1.8-0.6,2.9-0.1
		C199.4,251.4,200.3,252.8,200.6,254.6z"/>
</g>
</svg>
