<svg xmlns="http://www.w3.org/2000/svg" xmlns:xlink="http://www.w3.org/1999/xlink" version="1.1" style="" xml:space="preserve" width="547.1578942745346" height="493.10526305882877"><rect id="backgroundrect" width="100%" height="100%" x="0" y="0" fill="none" stroke="none" style="" class="selected"/>
<style type="text/css">
	.st0{fill:none;}
	.st1{fill:#0065A1;}
</style>

<g class="currentLayer" style=""><title>Layer 1</title><g id="svg_1" class="" transform="rotate(90 396.65747070312506,245.3974761962891) ">
	<path class="st0" d="M366.6579255819321,239.74736592769622 c1.3,1.9 2.7,3.7 4.1,5.6 c1.7000000000000002,-2.5 3.3,-5 5,-7.6 c-2.8,-0.7000000000000006 -5.6,-1.5 -8.3,-2.4 c3.7,-0.7000000000000006 7.4,-1.3 11.1,-1.9 c1.7000000000000002,-2.7 3.4,-5.3 5,-8 c-4.6,-1.2 -9.1,-2.5 -13.6,-4 C368.55792558193207,227.44736592769624 367.45792558193205,233.54736592769623 366.6579255819321,239.74736592769622 z" id="svg_2"/>
	<path class="st0" d="M387.55792558193207,270.6473659276962 c1.1,-0.1 2.2,-0.3000000000000003 3.2,-0.4 c2.7,-3.3 5.4,-6.5 8.1,-9.8 c-1.7000000000000002,0.1 -3.4,0.3000000000000003 -5.2,0.4 C391.6579255819321,264.0473659276962 389.55792558193207,267.3473659276962 387.55792558193207,270.6473659276962 z" id="svg_3"/>
	<path class="st0" d="M401.55792558193207,279.6473659276962 l5.1,1.6 c0.8,-1.2 1.6,-2.4 2.5,-3.6 C406.55792558193207,278.3473659276962 404.05792558193207,279.0473659276962 401.55792558193207,279.6473659276962 z" id="svg_4"/>
	<path class="st0" d="M333.6579255819321,254.24736592769622 c0.2,-0.1 0.4,-0.3000000000000003 0.6000000000000006,-0.4 c-2.2,-0.4 -4.4,-0.8 -6.6,-1.2 c-1.2,0.3000000000000003 -2.4,0.7000000000000006 -3.5,1.1 C327.25792558193206,253.94736592769624 330.45792558193205,254.04736592769623 333.6579255819321,254.24736592769622 z" id="svg_5"/>
	<path class="st0" d="M403.75792558193206,268.44736592769624 c-1.3,3.6 -2.6,7.2 -3.7,10.8 l0.9,0.3000000000000003 c3.2,-1.3 6.5,-2.7 9.7,-4 c2.3,-3.1 4.7,-6.1 7.1,-9 C413.1579255819321,267.1473659276962 408.45792558193205,267.74736592769625 403.75792558193206,268.44736592769624 z" id="svg_6"/>
	<path class="st0" d="M305.75792558193206,249.34736592769622 c0.4,-0.6000000000000006 0.8,-1.2 1.3,-1.8 c-2.8,-0.9 -5.6,-1.8 -8.3,-2.8 c-1.2,0.4 -2.3,0.8 -3.5,1.2 L305.75792558193206,249.34736592769622 z" id="svg_7"/>
	<path class="st0" d="M312.857925581932,251.54736592769623 l3.8,1.2 c0.7000000000000006,-0.7000000000000006 1.3,-1.4 2,-2.1 c-1.1,-0.3000000000000003 -2.2,-0.5 -3.3,-0.8 C314.55792558193207,250.44736592769624 313.6579255819321,251.04736592769623 312.857925581932,251.54736592769623 z" id="svg_8"/>
	<path class="st0" d="M387.45792558193205,270.74736592769625 c-0.8,1.2 -1.6,2.5 -2.3,3.7 l1.7000000000000002,0.5 c1.3,-1.5 2.5,-3.1 3.8,-4.6 C389.55792558193207,270.5473659276962 388.45792558193205,270.6473659276962 387.45792558193205,270.74736592769625 z" id="svg_9"/>
	<path class="st0" d="M459.857925581932,265.94736592769624 c0,-0.1 0,-0.2 0.1,-0.3000000000000003 c0,0 0,0 -0.1,0 C459.857925581932,265.74736592769625 459.857925581932,265.8473659276962 459.857925581932,265.94736592769624 z" id="svg_10"/>
	<path class="st0" d="M400.95792558193205,249.14736592769623 c-1.9,3.1 -3.8,6.1 -5.8,9.2 c2.1,-0.3000000000000003 4.1,-0.7000000000000006 6.2,-1 c2.3,-2.7 4.5,-5.5 6.8,-8.2 C405.857925581932,249.14736592769623 403.35792558193214,249.14736592769623 400.95792558193205,249.14736592769623 z" id="svg_11"/>
	<path class="st0" d="M275.35792558193214,239.64736592769623 c1.4,-0.9 2.9,-1.9 4.3,-2.8 c-2.7,-1.3 -5.4,-2.6 -8,-4 c-0.4,0.1 -0.8,0.2 -1.2,0.3000000000000003 c1.2,1.9 2.4,3.9 3.3,6.1 L275.35792558193214,239.64736592769623 z" id="svg_12"/>
	<path class="st0" d="M230.35792558193208,326.8473659276962 c-2.5,0.8 -5.2,1.5 -7.9,2 c0.9,1 1.7000000000000002,2 2.5,3 C227.95792558193205,331.24736592769625 231.05792558193207,329.5473659276962 230.35792558193208,326.8473659276962 z" id="svg_13"/>
	<path class="st0" d="M544.0579255819321,203.44736592769624 c1.3,1.2 3.6,2.3 4.7,0.8 c0.4,-0.5 0.4,-1.3 0.3000000000000003,-1.9 c-0.1,-1.5 -0.6000000000000006,-2.9 -1.2,-4.2 c-1.4,1.7000000000000002 -3,3.2 -4.6,4.6 C543.5579255819321,202.94736592769624 543.7579255819321,203.14736592769623 544.0579255819321,203.44736592769624 z" id="svg_14"/>
	<path class="st0" d="M598.6579255819321,271.74736592769625 c0,0.9 0.1,1.9 0.2,2.8 c0.6000000000000006,0.1 1.1,0.1 1.7000000000000002,0.1 c0,-0.3000000000000003 0,-0.5 0,-0.8 C600.0579255819321,273.1473659276962 599.357925581932,272.44736592769624 598.6579255819321,271.74736592769625 z" id="svg_15"/>
	<path class="st0" d="M320.45792558193205,232.54736592769623 c0,-0.2 -0.1,-0.5 -0.1,-0.8 c-0.1,0 -0.2,-0.1 -0.4,-0.1 C320.1579255819321,231.94736592769624 320.35792558193214,232.24736592769622 320.45792558193205,232.54736592769623 z" id="svg_16"/>
	<path class="st0" d="M287.45792558193205,231.64736592769623 c1.7000000000000002,-1.1 3.4,-2.2 5.1,-3.4 c-4.6,1 -9.2,2 -13.8,3 C281.6579255819321,231.34736592769622 284.55792558193207,231.54736592769623 287.45792558193205,231.64736592769623 z" id="svg_17"/>
	<path class="st0" d="M335.6579255819321,237.14736592769623 c0.6000000000000006,0.1 1.2,0.2 1.8,0.3000000000000003 c0,-0.1 -0.1,-0.2 -0.1,-0.4 c-0.7000000000000006,-0.2 -1.4,-0.4 -2,-0.6000000000000006 C335.45792558193205,236.74736592769622 335.55792558193207,236.94736592769624 335.6579255819321,237.14736592769623 z" id="svg_18"/>
	<path class="st0" d="M361.55792558193207,207.24736592769622 c-2.3,8.6 -4.7,17.1 -7,25.7 c4.6,-7.5 9.3,-15.1 13.9,-22.6 C366.05792558193207,209.34736592769622 363.75792558193206,208.34736592769622 361.55792558193207,207.24736592769622 z" id="svg_19"/>
	<path class="st0" d="M403.95792558193205,267.8473659276962 c6.1,-1.5 12,-3.5 17.8,-5.9 c1.5,-1.6 3,-3.3 4.6,-4.8 c-6.3,1 -12.7,1.8 -19,2.4 C406.1579255819321,262.3473659276962 405.05792558193207,265.1473659276962 403.95792558193205,267.8473659276962 z" id="svg_20"/>
	<path class="st0" d="M372.25792558193206,203.94736592769624 c0.7000000000000006,-1.2 1.4,-2.3 2.1,-3.5 c-3.3,-1.5 -6.5,-3 -9.7,-4.6 c-0.6000000000000006,2.3 -1.3,4.6 -1.9,6.9 C365.857925581932,203.14736592769623 369.05792558193207,203.54736592769623 372.25792558193206,203.94736592769624 z" id="svg_21"/>
	<path class="st0" d="M366.05792558193207,190.54736592769623 c4.1,1 8.2,2.1 12.3,3.5 c0.2,-0.3000000000000003 0.3000000000000003,-0.5 0.5,-0.8 c-3.9,-2.3 -7.7,-4.5 -11.6,-6.8 C366.857925581932,187.84736592769622 366.45792558193205,189.14736592769623 366.05792558193207,190.54736592769623 z" id="svg_22"/>
	<path class="st0" d="M382.95792558193205,195.64736592769623 c-1.1,-0.6000000000000006 -2.2,-1.3 -3.3,-1.9 c-0.1,0.2 -0.2,0.4 -0.3000000000000003,0.6000000000000006 C380.55792558193207,194.74736592769622 381.75792558193206,195.14736592769623 382.95792558193205,195.64736592769623 z" id="svg_23"/>
	<path class="st0" d="M400.95792558193205,219.94736592769624 c-2.9,-0.5 -5.7,-1.1 -8.5,-1.8 c-0.3000000000000003,0.7000000000000006 -0.6000000000000006,1.4 -0.8,2.1 C394.6579255819321,220.24736592769622 397.857925581932,220.14736592769623 400.95792558193205,219.94736592769624 z" id="svg_24"/>
	<path class="st0" d="M319.35792558193214,217.84736592769622 c0.8,0.1 1.6,0.2 2.4,0.4 c-0.9,-0.4 -1.8,-0.7000000000000006 -2.8,-1.1 C319.1579255819321,217.34736592769622 319.25792558193206,217.54736592769623 319.35792558193214,217.84736592769622 z" id="svg_25"/>
	<path class="st0" d="M328.6579255819321,234.54736592769623 c-0.2,-0.1 -0.3000000000000003,-0.1 -0.5,-0.2 c0.3000000000000003,0.6000000000000006 0.6000000000000006,1.1 0.9,1.7000000000000002 C328.857925581932,235.54736592769623 328.75792558193206,235.04736592769623 328.6579255819321,234.54736592769623 z" id="svg_26"/>
	<path class="st0" d="M405.35792558193214,230.94736592769624 c0.4,-0.4 0.9,-0.8 1.3,-1.2 c-5.9,-0.7000000000000006 -11.8,-1.7000000000000002 -17.6,-3 c-0.7000000000000006,1.9 -1.5,3.8 -2.2,5.6 C392.95792558193205,231.74736592769622 399.1579255819321,231.24736592769622 405.35792558193214,230.94736592769624 z" id="svg_27"/>
	<path class="st0" d="M416.55792558193207,241.74736592769622 c-0.1,0 -0.1,0 -0.2,0 c0,0 0,0 0,0 C416.45792558193205,241.74736592769622 416.45792558193205,241.74736592769622 416.55792558193207,241.74736592769622 z" id="svg_28"/>
	<path class="st0" d="M367.1579255819321,249.24736592769622 c-0.4,0 -0.8,0 -1.3,0 c-0.1,1.2 -0.1,2.5 -0.2,3.7 c0.6000000000000006,-0.9 1.2,-1.8 1.8,-2.7 C367.45792558193205,249.94736592769624 367.25792558193206,249.54736592769623 367.1579255819321,249.24736592769622 z" id="svg_29"/>
	<path class="st0" d="M366.05792558193207,246.24736592769622 c-0.1,0.9 -0.1,1.8 -0.2,2.7 c0.4,-0.1 0.7000000000000006,-0.1 1.1,-0.2 C366.6579255819321,247.94736592769624 366.35792558193214,247.04736592769623 366.05792558193207,246.24736592769622 z" id="svg_30"/>
	<path class="st0" d="M386.55792558193207,249.14736592769623 c-2.1,0 -4.2,0 -6.4,0 c-0.8,2.1 -1.7000000000000002,4.3 -2.5,6.4 c0.4,0.8 0.8,1.6 1.2,2.3 C381.35792558193214,254.94736592769624 383.95792558193205,252.04736592769623 386.55792558193207,249.14736592769623 z" id="svg_31"/>
	<path class="st0" d="M593.457925581932,277.5473659276962 c-0.2,-0.1 -0.4,-0.1 -0.6000000000000006,-0.2 c0.5,1.7000000000000002 1.1,3.4 1.7000000000000002,5.1 c0.3000000000000003,0.1 0.6000000000000006,0.1 0.8,0.2 c-0.1,-1.5 -0.1,-3 -0.2,-4.5 C594.7579255819321,277.94736592769624 594.0579255819321,277.74736592769625 593.457925581932,277.5473659276962 z" id="svg_32"/>
	<path class="st0" d="M405.55792558193207,241.84736592769622 c-0.3000000000000003,0.5 -0.7000000000000006,1 -1,1.6 c3.2,-0.4 6.3,-0.9 9.5,-1.3 c0.1,-0.1 0.1,-0.2 0.2,-0.3000000000000003 C411.35792558193214,241.94736592769624 408.45792558193205,241.94736592769624 405.55792558193207,241.84736592769622 z" id="svg_33"/>
	<path class="st0" d="M434.357925581932,255.94736592769624 c-0.2,0 -0.4,0.1 -0.6000000000000006,0.1 c0,0.1 -0.1,0.2 -0.1,0.3000000000000003 C433.857925581932,256.1473659276962 434.1579255819321,256.0473659276962 434.357925581932,255.94736592769624 z" id="svg_34"/>
	<path class="st0" d="M384.05792558193207,239.54736592769623 c-0.9,2.4 -1.9,4.8 -2.8,7.2 c2.9,-0.4 5.9,-0.8 8.8,-1.2 c1.4,-1.5 2.9,-2.9 4.4,-4.4 C390.857925581932,240.74736592769622 387.45792558193205,240.24736592769622 384.05792558193207,239.54736592769623 z" id="svg_35"/>
	<path class="st0" d="M416.2579255819321,230.64736592769623 c-1.2,-0.1 -2.3,-0.2 -3.5,-0.3000000000000003 c-0.1,0.1 -0.1,0.2 -0.2,0.3000000000000003 C413.75792558193206,230.64736592769623 414.95792558193205,230.64736592769623 416.2579255819321,230.64736592769623 z" id="svg_36"/>
	<path class="st0" d="M291.6579255819321,244.84736592769622 c0.9,-0.6000000000000006 1.8,-1.1 2.7,-1.7000000000000002 c-4.3,-1.6 -8.6,-3.4 -12.7,-5.4 c-1.9,0.6000000000000006 -3.8,1.3 -5.5,2.1 L291.6579255819321,244.84736592769622 z" id="svg_37"/>
	<path class="st0" d="M349.1579255819321,187.64736592769623 c1.8,0.2 3.6,0.4 5.4,0.7000000000000006 c1.6,-2.1 3.3,-4.3 4.9,-6.4 c-2.7,-1.6 -5.3,-3.1 -8,-4.7 c3.4,0.4 6.8,1 10.2,1.8 c1.2,-1.5 2.3,-3 3.5,-4.6 C360.35792558193214,169.14736592769623 356.55792558193207,162.94736592769624 354.05792558193207,156.14736592769623 c-1.5,19.1 -7.3,38 -16.9,54.9 c5.4,-7 10.7,-14 16.1,-21.1 C351.95792558193205,189.14736592769623 350.55792558193207,188.44736592769624 349.1579255819321,187.64736592769623 z" id="svg_38"/>
	<path class="st0" d="M378.55792558193207,185.64736592769623 c-3.3,-1.9 -6.4,-4.2 -9.2,-6.8 c-0.2,0.8 -0.4,1.6 -0.7000000000000006,2.4 C372.05792558193207,182.44736592769624 375.35792558193214,183.84736592769622 378.55792558193207,185.64736592769623 z" id="svg_39"/>
	<path class="st0" d="M317.35792558193214,217.54736592769623 c-0.1,-0.4 -0.3000000000000003,-0.8 -0.4,-1.3 c-2.2,-0.9 -4.4,-1.9 -6.6,-2.9 c0.6000000000000006,1.1 1.3,2.2 1.9,3.3 C313.95792558193205,217.04736592769623 315.6579255819321,217.24736592769622 317.35792558193214,217.54736592769623 z" id="svg_40"/>
	<path class="st0" d="M309.1579255819321,216.24736592769622 c-0.7000000000000006,-1.5 -1.5,-3 -2.2,-4.4 c-3.1,-1.5 -6.2,-3 -9.3,-4.7 c1.8,2.7 3.6,5.3 5.4,8 C305.05792558193207,215.44736592769624 307.1579255819321,215.84736592769622 309.1579255819321,216.24736592769622 z" id="svg_41"/>
	<path class="st0" d="M370.35792558193214,219.84736592769622 c5.4,0.3000000000000003 10.9,0.5 16.3,0.5 c0.6000000000000006,-1 1.3,-2.1 1.9,-3.1 c-5.4,-1.4 -10.8,-3.2 -16,-5.2 C371.75792558193206,214.64736592769623 371.05792558193207,217.24736592769622 370.35792558193214,219.84736592769622 z" id="svg_42"/>
	<path class="st0" d="M408.857925581932,256.1473659276962 c2.3,-0.4 4.7,-0.8 7,-1.1 c4.4,-0.7000000000000006 9.4,-1.9 11.3,-6 c-5,0 -9.9,0 -14.9,0 C411.1579255819321,251.44736592769624 409.95792558193205,253.74736592769622 408.857925581932,256.1473659276962 z" id="svg_43"/>
	<path class="st0" d="M429.357925581932,267.8473659276962 c3.6,-1.5 7.2,-2.9 10.8,-4.4 c-3.2,0.4 -6.4,0.9 -9.6,1.3 C430.1579255819321,265.74736592769625 429.7579255819321,266.74736592769625 429.357925581932,267.8473659276962 z" id="svg_44"/>
	<path class="st0" d="M292.1579255819321,204.04736592769623 c-2.1,-1.2 -4.2,-2.4 -6.3,-3.7 c3.7,4.4 7.2,8.8 10.4,13.3 c0.4,0.1 0.8,0.2 1.1,0.2 C295.55792558193207,210.64736592769623 293.857925581932,207.34736592769622 292.1579255819321,204.04736592769623 z" id="svg_45"/>
	<path class="st0" d="M375.25792558193206,204.34736592769622 c3.9,0.5 7.8,1 11.7,1.5 c-3.6,-1.4 -7.1,-2.9 -10.6,-4.4 C376.05792558193207,202.34736592769622 375.6579255819321,203.34736592769622 375.25792558193206,204.34736592769622 z" id="svg_46"/>
	<path class="st0" d="M266.6579255819321,228.04736592769623 c3.2,-3 6.5,-5.9 9.7,-8.9 c-3.9,2.3 -8.4,4 -13.4,5.2 C264.25792558193206,225.44736592769624 265.45792558193205,226.74736592769622 266.6579255819321,228.04736592769623 z" id="svg_47"/>
	<path class="st0" d="M222.05792558193207,332.3473659276962 c-0.4,-1.1 -0.7000000000000006,-2.2 -1.1,-3.3 c-2.6,0.3000000000000003 -5.3,0.3000000000000003 -7.9,-0.2 c1.8,1.4 3.5,2.9 5.1,4.4 C219.35792558193208,332.74736592769625 220.75792558193206,332.5473659276962 222.05792558193207,332.3473659276962 z" id="svg_48"/>
	<path class="st0" d="M290.75792558193206,219.34736592769622 c-0.1,-0.1 -0.3000000000000003,-0.1 -0.4,-0.2 c0.7000000000000006,0.9 1.4,1.8 2.1,2.7 C291.857925581932,220.94736592769624 291.35792558193214,220.14736592769623 290.75792558193206,219.34736592769622 z" id="svg_49"/>
	<path class="st0" d="M578.6579255819321,287.3473659276962 c-0.1,-0.2 -0.2,-0.5 -0.4,-0.7000000000000006 l-1.8,3.1 l5.8,4.2 C580.857925581932,291.8473659276962 579.7579255819321,289.3473659276962 578.6579255819321,287.3473659276962 z" id="svg_50"/>
	<path class="st0" d="M220.85792558193202,274.8473659276962 c0.4,0.2 0.8,0.4 1.2,0.6000000000000006 C221.6579255819321,275.1473659276962 221.25792558193206,274.94736592769624 220.85792558193202,274.8473659276962 z" id="svg_51"/>
	<path class="st0" d="M424.95792558193205,279.8473659276962 c9.4,-3.9 18.8,-7.7 28.4,-11.1 c-8.7,1.3 -17.4,2.9 -26,4.7 C426.55792558193207,275.5473659276962 425.7579255819321,277.74736592769625 424.95792558193205,279.8473659276962 z" id="svg_52"/>
	<path class="st0" d="M244.45792558193205,212.64736592769623 c3.2,1.4 6.3,3 9.4,4.9 c2.1,-2.1 4.2,-4.2 6.3,-6.3 C255.35792558193214,212.24736592769622 250.05792558193207,212.74736592769622 244.45792558193205,212.64736592769623 z" id="svg_53"/>
	<path class="st0" d="M247.95792558193205,199.44736592769624 c0,0.1 0,0.2 0,0.3000000000000003 c0.5,0.4 1,0.7000000000000006 1.6,1.1 C248.95792558193205,200.44736592769624 248.45792558193205,199.94736592769624 247.95792558193205,199.44736592769624 z" id="svg_54"/>
	<path class="st0" d="M615.357925581932,277.94736592769624 c0.3000000000000003,0.6000000000000006 0.8,1 1.3,1.3 c0.7000000000000006,-0.7000000000000006 1.3,-1.5 2,-2.2 C617.5579255819321,277.3473659276962 616.457925581932,277.6473659276962 615.357925581932,277.94736592769624 z" id="svg_55"/>
	<path class="st0" d="M575.357925581932,213.54736592769623 c0.2,1.2 0.7000000000000006,2.3 1.6,3.2 C576.457925581932,215.74736592769622 575.857925581932,214.64736592769623 575.357925581932,213.54736592769623 z" id="svg_56"/>
	<path class="st0" d="M603.457925581932,189.34736592769622 c-0.1,2.7 -0.2,5.3 -0.3000000000000003,8 c0.4,0 0.8,0 1.2,0 c0.5,-2.9 1,-5.7 1.7000000000000002,-8.5 C605.2579255819321,189.04736592769623 604.357925581932,189.24736592769622 603.457925581932,189.34736592769622 z" id="svg_57"/>
	<path class="st0" d="M587.0579255819321,218.54736592769623 c0,-1 -0.1,-2 -0.2,-3.1 c-0.4,-0.1 -0.9,-0.2 -1.3,-0.3000000000000003 C586.0579255819321,216.34736592769622 586.5579255819321,217.44736592769624 587.0579255819321,218.54736592769623 z" id="svg_58"/>
	<path class="st0" d="M582.0579255819321,219.94736592769624 c0.4,0.1 0.8,0.2 1.2,0.3000000000000003 c-0.6000000000000006,-2 -1.3,-4.1 -2.1,-6.1 c-1.1,-0.3000000000000003 -2.2,-0.6000000000000006 -3.3,-1 C579.1579255819321,215.44736592769624 580.5579255819321,217.74736592769622 582.0579255819321,219.94736592769624 z" id="svg_59"/>
	<path class="st0" d="M596.957925581932,196.64736592769623 c0.9,0.2 1.7000000000000002,0.3000000000000003 2.6,0.4 c0.2,-2.4 0.4,-4.7 0.6000000000000006,-7 c-1.2,0.2 -2.3,0.4 -3.5,0.6000000000000006 C596.7579255819321,192.64736592769623 596.857925581932,194.64736592769623 596.957925581932,196.64736592769623 z" id="svg_60"/>
	<path class="st0" d="M462.05792558193207,228.84736592769622 c-0.7000000000000006,-3.8 -0.7000000000000006,-7.8 0,-11.6 c-3.1,8.1 -6.2,16.3 -9.3,24.4 c0.7000000000000006,0.2 1.3,0.5 2,0.7000000000000006 C457.1579255819321,237.84736592769622 459.6579255819321,233.34736592769622 462.05792558193207,228.84736592769622 z" id="svg_61"/>
	<path class="st0" d="M600.2579255819321,281.74736592769625 c-0.1,-0.2 -0.2,-0.4 -0.3000000000000003,-0.5 c0.1,0.3000000000000003 0.2,0.6000000000000006 0.3000000000000003,0.9 C600.2579255819321,282.0473659276962 600.2579255819321,281.94736592769624 600.2579255819321,281.74736592769625 z" id="svg_62"/>
	<path class="st0" d="M604.7579255819321,243.04736592769623 c0.1,-0.2 0.1,-0.4 0.2,-0.7000000000000006 c-0.1,-0.3000000000000003 -0.2,-0.5 -0.4,-0.7000000000000006 l-0.7000000000000006,1.2 C604.1579255819321,242.84736592769622 604.457925581932,242.94736592769624 604.7579255819321,243.04736592769623 z" id="svg_63"/>
	<path class="st0" d="M584.1579255819321,278.94736592769624 c0.1,0 0.2,-0.1 0.4,-0.1 c0.6000000000000006,-0.1 1.1,0.2 1.6,0.5 c0.5,0.3000000000000003 1.1,0.5 1.6,0.7000000000000006 c-0.2,-1.8 -0.4,-3.6 -0.6000000000000006,-5.4 c-0.1,-0.1 -0.3000000000000003,-0.2 -0.4,-0.4 c-0.3000000000000003,-0.3000000000000003 -0.5,-0.7000000000000006 -0.8,-1.1 l-2.5,4.4 C583.7579255819321,278.0473659276962 583.957925581932,278.5473659276962 584.1579255819321,278.94736592769624 z" id="svg_64"/>
	<path class="st0" d="M582.357925581932,283.3473659276962 c-0.3000000000000003,-0.8 -0.6000000000000006,-1.6 -0.8,-2.3 l-1.7000000000000002,3 c0.8,1.5 1.7000000000000002,3 2.7,4.4 C582.2579255819321,286.74736592769625 582.2579255819321,285.0473659276962 582.357925581932,283.3473659276962 z" id="svg_65"/>
	<path class="st0" d="M556.957925581932,193.84736592769622 c0.1,-3.4 -0.7000000000000006,-6.6 -2,-9.7 c-0.5,2.2 -1.3,4.3 -2.2,6.4 C554.0579255819321,191.74736592769622 555.457925581932,192.84736592769622 556.957925581932,193.84736592769622 z" id="svg_66"/>
	<path class="st0" d="M511.7579255819321,218.24736592769622 c2.9,-1.5 6,-2.5 9.2,-2.9 c-0.8,-0.9 -1.6,-1.7000000000000002 -2.4,-2.6 c-2.7,1.2 -5.2,2.7 -7.1,5 C511.45792558193205,217.94736592769624 511.55792558193207,218.04736592769623 511.7579255819321,218.24736592769622 z" id="svg_67"/>
	<path class="st0" d="M493.55792558193207,240.04736592769623 c1.2,-1.9 2.4,-3.8 3.5,-5.7 c-1.7000000000000002,6.1 -3.3,12.1 -5,18.2 c2,-2.2 4.5,-4 7.3,-5.1 c1.4,-0.6000000000000006 2.8,-1 4.3,-1.3 c-0.7000000000000006,-1.4 -1.3,-2.8 -1.7000000000000002,-4.1 c-1.6,-4.3 -2.4,-9.1 -2,-13.8 c-2.7,0.6000000000000006 -5.1,1.8 -6.7,4.1 c-0.3000000000000003,0.4 -0.5,0.7000000000000006 -0.8,1.1 C492.7579255819321,235.74736592769622 493.2579255819321,237.94736592769624 493.55792558193207,240.04736592769623 z" id="svg_68"/>
	<path class="st0" d="M593.0579255819321,195.64736592769623 c0.2,0.1 0.4,0.1 0.6000000000000006,0.2 c0,-1.5 0,-3.1 0,-4.6 c-0.4,0.1 -0.8,0.1 -1.2,0.2 c-0.6000000000000006,0.1 -1.3,0.2 -1.7000000000000002,0.7000000000000006 C589.457925581932,193.34736592769622 591.357925581932,195.04736592769623 593.0579255819321,195.64736592769623 z" id="svg_69"/>
	<path class="st0" d="M595.0579255819321,269.3473659276962 c-1.6,-1 -3.4,-1.8 -5,-2.8 c0.4,1.8 0.8,3.6 1.2,5.4 c1.2,0.8 2.5,1.4 3.8,1.8 C595.1579255819321,272.24736592769625 595.1579255819321,270.8473659276962 595.0579255819321,269.3473659276962 z" id="svg_70"/>
	<path class="st0" d="M463.2579255819321,233.54736592769623 c-0.9,3.8 -1.7000000000000002,7.6 -2.2,11.4 c1.8,0.9 3.4,2.1 4.9,3.4 c0.7000000000000006,-1.7000000000000002 1.5,-3.3 2.3,-4.9 c-1.4,-2.4 -2.9,-4.8 -4,-7.2 C463.95792558193205,235.34736592769622 463.55792558193207,234.44736592769624 463.2579255819321,233.54736592769623 z" id="svg_71"/>
	<path class="st0" d="M609.6579255819321,197.14736592769623 c1.2,-0.1 2.5,-0.3000000000000003 3.7,-0.6000000000000006 c1.8,-3.7 3.9,-7.2 6.3,-10.4 c-3,0.6000000000000006 -6,1.3 -9,1.9 C610.357925581932,191.04736592769623 610.0579255819321,194.04736592769623 609.6579255819321,197.14736592769623 z" id="svg_72"/>
	<path class="st1" d="M617.6579255819321,344.8473659276962 c9.3,-3.8 15.8,-13.6 15.7,-23.6 c-4.7,1.6 -9.7,2.5 -14,5 c-4.5,2.6 -8,6.8 -9.8,11.7 c0.4,-2.4 0.6000000000000006,-4.8 0.4,-7.2 L617.0579255819321,319.1473659276962 l-4.1,-3 c3.4,-2.8 6.4,-6.3 8,-8.9 c1.1,-1.8 1.9,-3.8 2.6,-5.8 c3.2,-0.6000000000000006 6.3,-1.5 9.4,-2.6 c-2.8,-0.2 -5.6,-0.3000000000000003 -8.5,-0.2 c0.1,-0.4 0.2,-0.7000000000000006 0.3000000000000003,-1.1 c0.1,-0.4 0.2,-0.9 0.4,-1.3 c4.2,-1.6 8.4,-3.3 12.5,-4.9 c-3.9,0.2 -7.8,0.8 -11.6,1.8 c0.1,-0.5 0.3000000000000003,-0.9 0.4,-1.4 c3.1,-1.6 6.1,-3.4 8.8,-5.6 c-2.7,0.5 -5.3,1.2 -7.9,2.1 c0.5,-1.9 1,-3.8 1.5,-5.7 c0.2,-0.7000000000000006 0.3000000000000003,-1.4 0.4,-2.1 c1.7000000000000002,-2.1 3.4,-4.3 4.9,-6.6 c-1.8,0.9 -3.6,2 -5.4,3.1 c-1.6,-0.2 -3.1,0.4 -4.7,1.1 c1.3,-1.9 2.5,-3.9 3.7,-5.9 c0.7000000000000006,-0.7000000000000006 1.3,-1.4 1.8,-2.2 c1.2,-2 1.9,-4.2 2.5,-6.4 c0.9,-3.3 1.7000000000000002,-6.8 0.7000000000000006,-9.9 c-2.8,4.8 -7.3,8.6 -12.4,10.4 c0.7000000000000006,-2 1.3,-4.1 2,-6.1 c2.9,-2.8 5.8,-5.5 8.7,-8.4 c0.7000000000000006,-0.7000000000000006 1.4,-1.4 1.5,-2.4 c0.1,-0.6000000000000006 -0.1,-1.2 -0.3000000000000003,-1.7000000000000002 c-1.7000000000000002,-5.2 -4,-10.2 -6.8,-14.8 c2,-0.5 3.9,-1.1 5.8,-1.8 c-2.3,-0.2 -4.7,-0.3000000000000003 -7,-0.2 c-0.4,-0.7000000000000006 -0.9,-1.4 -1.4,-2.1 c4.4,-1.7000000000000002 8.8,-3.4 13.2,-5.2 c-5.1,0.3000000000000003 -10.1,1.2 -14.9,2.8 c-0.1,-0.1 -0.2,-0.2 -0.3000000000000003,-0.4 c4.5,-2.2 8.9,-4.5 12.7,-7.6 c-5.1,1 -10.1,2.7 -14.8,4.9 c-0.2,-0.2 -0.4,-0.5 -0.6000000000000006,-0.7000000000000006 c5.5,-4.8 10.4,-10.4 14.4,-16.5 c-3.6,1.8 -6.9,3.9 -10.1,6.4 l4.3,-7.3 l-1.4,0.6000000000000006 c1.8,-3.1 3.4,-6.2 4.7,-9.5 c-4.5,4.1 -8.9,8.3 -13,12.8 l-3.6,1.4 c0.2,-0.6000000000000006 0.5,-1.2 0.7000000000000006,-1.8 c4.3,-4 8.8,-8.4 10.1,-14 c-1.9,1 -3.8,1.8 -5.8,2.5 c1.1,-3.1 2.1,-6.3 3,-9.4 c1.4,-0.3000000000000003 2.7,-0.6000000000000006 4.1,-0.9 c1.7000000000000002,-0.4 3.5,-0.8 4.5,-2.2 c0.7000000000000006,-0.8 0.9,-1.8 1.2,-2.8 c4.3,-17.8 5,-36.3 2.1,-54.1 c-1.2,-7.1 -3.3,-14.6 -9.4,-18.5 c-11.1,5.5 -21.7,12.1 -31.5,19.6 c-1.6,1.2 -3.2,2.5 -4,4.3 c-2.7,6.3 7,12.6 4,18.8 c-5.5,-5.1 -10.4,-10.9 -14.4,-17.2 C566.357925581932,138.84736592769622 556.0579255819321,148.14736592769623 548.7579255819321,159.24736592769622 c-1,1.6 -2,3.2 -2.3,5.1 c-0.3000000000000003,2.3 0.6000000000000006,4.5 1.6,6.5 c1.2,2.4 2.5,4.7 3.8,7.1 c-2.3,0.7000000000000006 -4.7,1.4 -7,2.1 c-1.7000000000000002,-3.6 -2.9,-7.6 -3.2,-11.7 c-4.5,1.2 -6.8,6.7 -5.9,11 c0.3000000000000003,1.4 0.8,2.7 1.5,4 c-2.2,1.3 -4.3,3 -6,4.8 c-0.4,-0.6000000000000006 -0.8,-1.2 -1.2,-1.8 c-0.5,-0.9 -1.1,-1.8 -2,-2.3 c-1.2,-0.6000000000000006 -2.4,-0.3000000000000003 -3.6,0.4 c-0.5,-1.5 -1.1,-2.9 -2,-4.3 c-3.9,5.8 -11.6,8.2 -15.5,14.1 c-2.1,3.1 -2.8,6.8 -3.8,10.4 c1,-4.5 0.6000000000000006,-9.2 -1.2,-13.4 c-2.7,-6.2 -8.4,-10.9 -14.9,-12.4 c-3.8,4.4 -5.1,10.6 -4.1,16.4 c0.9,5.7 3.9,11 7.6,15.4 c1.2,1.4 2.5,2.7 3.2,4.4 c1.7000000000000002,4 -1.2,7.9 -3.8,11.3 c-4.6,1.8 -8.2,5.4 -11.2,9.6 c0.1,-0.5 0.2,-1 0.2,-1.5 c0.9,-2.8 1.3,-5.7 1.4,-8.6 c0.1,-0.5 0.2,-1 0.2,-1.4 c-0.1,0.1 -0.2,0.2 -0.2,0.3000000000000003 c-0.1,-2.5 -0.4,-4.9 -1.2,-7.3 c-1.8,-6.1 -5.6,-11.4 -8.7,-17 c-2.6,2.6 -4.6,5.7 -6.1,9.1 c-7.8,8.6 -14.6,18.1 -20.2,28.3 c-0.1,-0.1 -0.2,-0.1 -0.3000000000000003,-0.2 c-0.2,0.6000000000000006 -0.4,1.3 -0.6000000000000006,1.9 c-0.6000000000000006,1.1 -1.1,2.1 -1.7000000000000002,3.2 c3,-16.2 5.9,-32.4 8.9,-48.5 c-4.7,14.5 -10.1,28.9 -16.1,42.9 c-2.8,-16.3 -1.4,-33.4 3.9,-49.2 c-4.7,12.5 -9.3,25 -14,37.5 c1.2,-16 2.4,-32 3.6,-48 c-5.9,12 -11.8,23.9 -17.7,35.9 c4.6,-13.9 5.8,-28.8 3.3,-43.1 c-5.3,10 -10.6,19.9 -15.9,29.9 c1.1,-13.4 -1.1,-27 -6.3,-39.2 c-1.1,7.7 -2.2,15.3 -3.3,23 c-4,-6.9 -9.1,-13.2 -14.9,-18.7 c0.1,-0.5 0.3000000000000003,-1 0.4,-1.5 c-0.3000000000000003,0.4 -0.6000000000000006,0.7000000000000006 -0.8,1.1 c-5.5,-5 -11.6,-9.2 -18.3,-12.6 c0.1,-1.1 0.1,-2.2 0.1,-3.3 c-10.6,13 -21.3,26.1 -31.9,39.1 c5.5,-19.3 6.2,-39.7 2,-59.1 c-3.8,10.9 -7.6,21.8 -11.4,32.7 c-7.9,-23 -22.9,-43.4 -42.4,-57.7 c1.5,22 11.9,43 28.2,57.5 c-10.9,-8.9 -23.6,-15.7 -37.2,-19.9 c13.6,11.9 27.2,23.9 40.7,35.8 c-14.7,-9 -30.6,-16.2 -47.1,-21.4 c15.7,13.7 32.5,26.2 50.1,37.5 c-3,-1 -5.9,-2 -8.9,-2.9 c-0.5,-0.7000000000000006 -0.9,-1.4 -1.4,-2.1 c0.3000000000000003,0.7000000000000006 0.7000000000000006,1.3 1,2 c-4.2,-1.4 -8.4,-2.8 -12.7,-4.2 c-1.1,-1.6 -2.2,-3.2 -3.3,-4.9 c0.8,1.5 1.6,3.1 2.4,4.6 c-9.9,-3.2 -19.7,-6.5 -29.6,-9.7 c7.2,6.4 14.8,12.3 22.8,17.7 c3,5.8 6.3,11.6 9.9,17.4 c-0.7000000000000006,-0.2 -1.4,-0.3000000000000003 -2.1,-0.5 c-7.7,-9.1 -16.3,-17.9 -25.7,-26.1 c6.1,7.9 11.8,15.8 16.9,23.9 c-0.4,-0.1 -0.8,-0.2 -1.2,-0.3000000000000003 c-10.7,-11.5 -23,-22.4 -36.3,-31.9 c7.3,8.8 14.5,17.7 21.8,26.5 c-4.4,-3.8 -8.8,-7.5 -13.4,-11.2 c-0.1,-0.1 -0.2,-0.3000000000000003 -0.3000000000000003,-0.4 c-0.1,0 -0.2,0 -0.3000000000000003,0 c-6.1,-4.9 -12.3,-9.7 -18.7,-14.3 c4.1,5.1 8.6,10.1 13.4,15 c-0.8,0.2 -1.5,0.3000000000000003 -2.2,0.6000000000000006 c-5.9,-4.3 -11.9,-8.5 -17.8,-12.8 c4,5 8.7,9.8 13.8,14.2 c-0.3000000000000003,0.1 -0.6000000000000006,0.2 -0.8,0.4 c-10.3,-6.1 -21.6,-10.1 -32,-11.2 c7.6,6.2 16.1,11.5 24.9,15.8 c-0.9,0.8 -1.7000000000000002,1.6 -2.4,2.4 c-1.1,1.2 -2,2.6 -2.8,4 c-1.4,-0.3000000000000003 -2.7,-0.5 -3.9,-0.7000000000000006 c-0.1,-0.4 -0.3000000000000003,-0.7000000000000006 -0.4,-1 c-3,-6.9 -11.7,-11 -14.7,-17.9 c-5.8,4.9 -7.9,11.7 -8.5,18.6 c-1,-7.1 -4.9,-13.8 -11,-18.5 c-5.9,-4.5 -13.4,-7.1 -20.3,-10.5 c-4.1,13.7 2.4,28.7 15.7,36.3 c9.5,5.4 22.8,8 27.1,17.2 c-7,-5.5 -16.9,-8.1 -26.7,-7.1 c-7.4,0.8 -14.7,3.5 -22.1,3.3 c1.7000000000000002,8.6 9.6,16 19.7,17.4 c7.5,1 15.2,-1.2 22.9,-2.4 c0.7000000000000006,2.4 1.5,4.7 2.8,6.9 c2.2,3.9 5.6,7.1 9.6,9.1 c0.1,0.2 0.1,0.4 0.2,0.6000000000000006 c-4.3,-0.6000000000000006 -8.6,-0.3000000000000003 -12.2,2 c4.5,3 6.2,9 10.6,12.1 c2.5,1.7000000000000002 5.5,2.3 8.4,3.2 c-2.1,-0.6000000000000006 -4.3,-0.7000000000000006 -6.5,-0.4 c-7.3,-4.6 -15.1,-8.6 -23.2,-12 c-3.9,2.4 -4.8,7.2 -5.1,11.6 c-0.7000000000000006,11.1 1.3,22.6 5.7,33.7 c0.2,0.6000000000000006 0.5,1.3 1,1.8 c0.8,0.8 2.1,1.1 3.3,1.3 c7.9,1.6 15.8,2.9 23.8,4.1 c0.4,0.1 0.9,0.1 1.2,0.4 c1,0.8 -0.2,1.9 -1.4,2.2 c-6.8,2 -15,1.3 -22.2,-1.9 c1.4,3.6 5,6.3 8.4,8.9 c2.3,1.7000000000000002 4.7,3.5 7.4,4.6 c0.2,0.1 0.5,0.2 0.7000000000000006,0.3000000000000003 c4.1,7.3 8.6,14.4 13.7,21.1 c-8.8,-6.6 -18,-12.6 -27.6,-17.9 c6.3,9.1 15.5,15.9 25,21.5 c-11.7,-5 -23.8,-9.3 -36.1,-12.8 c10,8.5 22.6,13.1 34.9,17.5 c-12.9,-3.7 -25.8,-7.4 -38.9,-10.2 c11.9,6.7 25.3,10.4 38.4,14 c-3.8,0.4 -7.7,-0.3000000000000003 -11.5,-1 c-9.5,-1.7000000000000002 -19,-3.5 -28.5,-5.2 c3.1,2.2 6.8,3.4 10.4,4.4 c10.2,2.9 20.7,4.9 31.1,7 c-11.8,1.9 -23.8,1.1 -35.7,0.2 c11.7,5.4 25.1,5.1 37.8,7.5 c-4.4,0.9 -8.7,1.7000000000000002 -13.1,2.6 c-5,1 -10,2 -15.1,1.6 c9.9,3.1 20.6,0.2 31.1,-0.3000000000000003 c-4.8,2.2 -9.8,3.9 -15,4.8 c-3.2,0.6000000000000006 -6.7,1.1 -9,3.4 c5.9,-0.4 11.8,-1.4 17.6,-2.9 c2.7,-0.7000000000000006 6.2,-1.3 8.6,-2.6 c1.9,-1.1 3.1,-3.2 5.3,-4.2 c1.9,-0.9 4,-1.4 5.7,-2.6 c1.7000000000000002,-1.1 2.9,-2.8 3.6,-4.6 l338.5,5.7 l8.8,-14.3 c2.6,-0.3000000000000003 5.4,0.1 7.8,0.9 c4.8,1.6 9.4,4.5 14.4,4.7 c6.3,0.2 12.3,-4.1 14.9,-9.9 c-4.5,-0.7000000000000006 -8.4,-3.4 -12.7,-4.8 c-5.7,-1.8 -12.1,-1.1 -17.3,1.9 C602.5579255819321,347.8473659276962 610.957925581932,347.6473659276962 617.6579255819321,344.8473659276962 zM319.35792558193214,217.84736592769622 c-0.1,-0.3000000000000003 -0.3000000000000003,-0.5 -0.4,-0.8 c0.9,0.4 1.8,0.8 2.8,1.1 C320.95792558193205,218.04736592769623 320.1579255819321,217.94736592769624 319.35792558193214,217.84736592769622 zM328.6579255819321,234.54736592769623 c0.1,0.5 0.2,1 0.4,1.5 c-0.3000000000000003,-0.6000000000000006 -0.6000000000000006,-1.1 -0.9,-1.7000000000000002 C328.25792558193206,234.44736592769624 328.45792558193205,234.44736592769624 328.6579255819321,234.54736592769623 zM382.95792558193205,195.64736592769623 c-1.2,-0.4 -2.4,-0.9 -3.6,-1.3 c0.1,-0.2 0.2,-0.4 0.3000000000000003,-0.6000000000000006 C380.75792558193206,194.34736592769622 381.857925581932,194.94736592769624 382.95792558193205,195.64736592769623 zM378.35792558193214,193.94736592769624 c-4,-1.3 -8.1,-2.5 -12.3,-3.5 c0.4,-1.4 0.7000000000000006,-2.7 1.1,-4.1 c3.9,2.3 7.7,4.5 11.6,6.8 C378.6579255819321,193.44736592769624 378.55792558193207,193.74736592769622 378.35792558193214,193.94736592769624 zM374.35792558193214,200.44736592769624 c-0.7000000000000006,1.2 -1.4,2.3 -2.1,3.5 c-3.2,-0.4 -6.3,-0.8 -9.5,-1.2 c0.6000000000000006,-2.3 1.3,-4.6 1.9,-6.9 C367.857925581932,197.44736592769624 371.05792558193207,199.04736592769623 374.35792558193214,200.44736592769624 zM400.95792558193205,219.94736592769624 c-3.1,0.2 -6.2,0.3000000000000003 -9.3,0.3000000000000003 c0.3000000000000003,-0.7000000000000006 0.6000000000000006,-1.4 0.8,-2.1 C395.25792558193206,218.84736592769622 398.05792558193207,219.44736592769624 400.95792558193205,219.94736592769624 zM406.6579255819321,229.74736592769622 c-0.4,0.4 -0.9,0.8 -1.3,1.2 c-6.2,0.3000000000000003 -12.4,0.8 -18.5,1.5 c0.7000000000000006,-1.9 1.5,-3.8 2.2,-5.6 C394.857925581932,228.04736592769623 400.75792558193206,229.04736592769623 406.6579255819321,229.74736592769622 zM416.2579255819321,230.64736592769623 c-1.2,0 -2.5,0 -3.7,0.1 c0.1,-0.1 0.1,-0.2 0.2,-0.3000000000000003 C413.857925581932,230.44736592769624 415.05792558193207,230.54736592769623 416.2579255819321,230.64736592769623 zM416.55792558193207,241.74736592769622 c-0.1,0 -0.1,0 -0.2,0 c0,0 0,0 0,0 C416.45792558193205,241.74736592769622 416.45792558193205,241.74736592769622 416.55792558193207,241.74736592769622 zM414.05792558193207,242.14736592769623 c-3.2,0.4 -6.3,0.9 -9.5,1.3 c0.3000000000000003,-0.5 0.7000000000000006,-1 1,-1.6 c2.9,0.1 5.8,0.1 8.7,0 C414.1579255819321,241.94736592769624 414.05792558193207,242.04736592769623 414.05792558193207,242.14736592769623 zM434.357925581932,255.94736592769624 c-0.2,0.1 -0.5,0.3000000000000003 -0.7000000000000006,0.4 c0,-0.1 0.1,-0.2 0.1,-0.3000000000000003 C433.95792558193205,255.94736592769624 434.1579255819321,255.94736592769624 434.357925581932,255.94736592769624 zM421.7579255819321,262.0473659276962 c-5.8,2.4 -11.7,4.4 -17.8,5.9 c1.1,-2.8 2.2,-5.5 3.4,-8.3 c6.4,-0.7000000000000006 12.7,-1.4 19,-2.4 C424.7579255819321,258.74736592769625 423.2579255819321,260.3473659276962 421.7579255819321,262.0473659276962 zM366.05792558193207,246.24736592769622 c0.3000000000000003,0.9 0.6000000000000006,1.7000000000000002 0.9,2.6 c-0.4,0.1 -0.7000000000000006,0.1 -1.1,0.2 C365.95792558193205,248.04736592769623 366.05792558193207,247.14736592769623 366.05792558193207,246.24736592769622 zM365.95792558193205,249.24736592769622 c0.4,0 0.8,0 1.3,0 c0.1,0.3000000000000003 0.2,0.7000000000000006 0.4,1 c-0.6000000000000006,0.9 -1.2,1.8 -1.8,2.7 C365.75792558193206,251.64736592769623 365.857925581932,250.44736592769624 365.95792558193205,249.24736592769622 zM380.25792558193206,249.14736592769623 c2.1,0 4.2,0 6.4,0 c-2.6,2.9 -5.2,5.8 -7.7,8.8 c-0.4,-0.8 -0.8,-1.6 -1.2,-2.3 C378.55792558193207,253.44736592769624 379.35792558193214,251.34736592769622 380.25792558193206,249.14736592769623 zM381.1579255819321,246.74736592769622 c0.9,-2.4 1.9,-4.8 2.8,-7.2 c3.4,0.6000000000000006 6.9,1.2 10.3,1.5 c-1.5,1.4 -2.9,2.9 -4.4,4.4 C387.05792558193207,245.94736592769624 384.1579255819321,246.34736592769622 381.1579255819321,246.74736592769622 zM334.1579255819321,253.84736592769622 c-0.2,0.1 -0.4,0.3000000000000003 -0.6000000000000006,0.4 c-3.2,-0.2 -6.4,-0.3000000000000003 -9.6,-0.5 c1.2,-0.4 2.3,-0.7000000000000006 3.5,-1.1 C329.75792558193206,253.04736592769623 331.95792558193205,253.54736592769623 334.1579255819321,253.84736592769622 zM316.6579255819321,252.74736592769622 l-3.8,-1.2 c0.8,-0.6000000000000006 1.7000000000000002,-1.1 2.5,-1.7000000000000002 c1.1,0.3000000000000003 2.2,0.6000000000000006 3.3,0.8 C318.05792558193207,251.34736592769622 317.35792558193214,252.04736592769623 316.6579255819321,252.74736592769622 zM307.05792558193207,247.54736592769623 c-0.4,0.6000000000000006 -0.9,1.2 -1.3,1.8 l-10.5,-3.3 c1.2,-0.4 2.3,-0.8 3.5,-1.2 C301.45792558193205,245.74736592769622 304.25792558193206,246.64736592769623 307.05792558193207,247.54736592769623 zM294.35792558193214,243.14736592769623 c-0.9,0.6000000000000006 -1.8,1.1 -2.7,1.7000000000000002 l-15.6,-4.9 c1.8,-0.8 3.6,-1.5 5.5,-2.1 C285.75792558193206,239.64736592769623 289.95792558193205,241.44736592769624 294.35792558193214,243.14736592769623 zM385.1579255819321,274.44736592769624 c0.8,-1.2 1.6,-2.5 2.3,-3.7 c1.1,-0.1 2.1,-0.2 3.1,-0.4 c-1.3,1.5 -2.5,3.1 -3.8,4.6 L385.1579255819321,274.44736592769624 zM459.857925581932,265.94736592769624 c0,-0.1 0,-0.2 0,-0.3000000000000003 c0,0 0,0 0.1,0 C459.95792558193205,265.74736592769625 459.95792558193205,265.8473659276962 459.857925581932,265.94736592769624 zM401.55792558193207,279.6473659276962 c2.5,-0.7000000000000006 5,-1.3 7.5,-2 c-0.8,1.2 -1.7000000000000002,2.4 -2.5,3.6 L401.55792558193207,279.6473659276962 zM400.95792558193205,279.44736592769624 l-0.9,-0.3000000000000003 c1.1,-3.6 2.3,-7.2 3.7,-10.8 c4.7,-0.6000000000000006 9.4,-1.3 14.1,-1.9 c-2.5,2.9 -4.9,5.9 -7.1,9 C407.45792558193205,276.8473659276962 404.1579255819321,278.1473659276962 400.95792558193205,279.44736592769624 zM390.75792558193206,270.24736592769625 c-1.1,0.1 -2.2,0.3000000000000003 -3.2,0.4 c2.1,-3.3 4.1,-6.6 6.2,-9.9 c1.7000000000000002,-0.1 3.5,-0.2 5.2,-0.4 C396.1579255819321,263.6473659276962 393.45792558193205,266.94736592769624 390.75792558193206,270.24736592769625 zM395.25792558193206,258.3473659276962 c1.9,-3.1 3.8,-6.1 5.8,-9.2 c2.4,0 4.8,0 7.2,0 c-2.3,2.7 -4.5,5.5 -6.8,8.2 C399.35792558193214,257.6473659276962 397.25792558193206,258.0473659276962 395.25792558193206,258.3473659276962 zM378.55792558193207,233.54736592769623 c-3.7,0.5 -7.4,1.2 -11.1,1.9 c2.7,0.9 5.5,1.7000000000000002 8.3,2.4 c-1.6,2.5 -3.3,5.1 -5,7.6 c-1.4,-1.9 -2.8,-3.8 -4.1,-5.6 c0.7000000000000006,-6.1 1.8,-12.2 3.3,-18.3 c4.5,1.5 9,2.9 13.6,4 C381.95792558193205,228.14736592769623 380.25792558193206,230.84736592769622 378.55792558193207,233.54736592769623 zM354.45792558193205,232.94736592769624 c2.3,-8.6 4.7,-17.1 7,-25.7 c2.3,1.1 4.5,2.1 6.8,3.1 C363.75792558193206,217.84736592769622 359.05792558193207,225.34736592769622 354.45792558193205,232.94736592769624 zM337.45792558193205,237.54736592769623 c-0.6000000000000006,-0.1 -1.2,-0.2 -1.8,-0.3000000000000003 c-0.1,-0.2 -0.2,-0.4 -0.3000000000000003,-0.6000000000000006 c0.7000000000000006,0.2 1.4,0.4 2,0.6000000000000006 C337.35792558193214,237.24736592769622 337.45792558193205,237.34736592769622 337.45792558193205,237.54736592769623 zM320.45792558193205,232.54736592769623 c-0.1,-0.3000000000000003 -0.3000000000000003,-0.6000000000000006 -0.4,-0.9 c0.1,0 0.2,0.1 0.4,0.1 C320.45792558193205,232.04736592769623 320.45792558193205,232.24736592769622 320.45792558193205,232.54736592769623 zM287.45792558193205,231.64736592769623 c-2.9,-0.2 -5.8,-0.3000000000000003 -8.7,-0.4 c4.6,-1 9.2,-2 13.8,-3 C290.857925581932,229.44736592769624 289.1579255819321,230.54736592769623 287.45792558193205,231.64736592769623 zM271.6579255819321,232.84736592769622 c2.6,1.4 5.3,2.7 8,4 c-1.4,0.9 -2.9,1.9 -4.3,2.8 l-1.6,-0.5 c-0.9,-2.2 -2,-4.2 -3.3,-6.1 C270.857925581932,233.04736592769623 271.25792558193206,232.94736592769624 271.6579255819321,232.84736592769622 zM230.35792558193208,326.8473659276962 c0.6000000000000006,2.7 -2.4,4.5 -5.4,5.1 c-0.8,-1 -1.6,-2 -2.5,-3 C225.25792558193206,328.3473659276962 227.85792558193202,327.5473659276962 230.35792558193208,326.8473659276962 zM547.957925581932,198.14736592769623 c0.6000000000000006,1.3 1,2.7 1.2,4.2 c0.1,0.6000000000000006 0.1,1.4 -0.3000000000000003,1.9 c-1.1,1.5 -3.4,0.4 -4.7,-0.8 c-0.3000000000000003,-0.2 -0.5,-0.5 -0.8,-0.7000000000000006 C544.957925581932,201.34736592769622 546.5579255819321,199.74736592769622 547.957925581932,198.14736592769623 zM600.5579255819321,274.74736592769625 c-0.6000000000000006,0 -1.2,-0.1 -1.7000000000000002,-0.1 c-0.1,-0.9 -0.1,-1.9 -0.2,-2.8 c0.7000000000000006,0.6000000000000006 1.4,1.3 1.9,2.1 C600.5579255819321,274.1473659276962 600.5579255819321,274.44736592769624 600.5579255819321,274.74736592769625 zM594.6579255819321,282.5473659276962 c-0.6000000000000006,-1.7000000000000002 -1.2,-3.4 -1.7000000000000002,-5.1 c0.2,0.1 0.4,0.1 0.6000000000000006,0.2 c0.6000000000000006,0.2 1.2,0.4 1.9,0.6000000000000006 c0.1,1.5 0.1,3 0.2,4.5 C595.2579255819321,282.6473659276962 594.957925581932,282.5473659276962 594.6579255819321,282.5473659276962 zM590.1579255819321,266.5473659276962 c1.6,1 3.3,1.9 5,2.8 c0,1.5 0.1,2.9 0.1,4.4 c-1.3,-0.5 -2.6,-1.1 -3.8,-1.8 C590.957925581932,270.1473659276962 590.5579255819321,268.3473659276962 590.1579255819321,266.5473659276962 zM600.2579255819321,281.74736592769625 c0,0.1 0,0.2 0,0.3000000000000003 c-0.1,-0.3000000000000003 -0.2,-0.6000000000000006 -0.3000000000000003,-0.9 C600.0579255819321,281.44736592769624 600.1579255819321,281.5473659276962 600.2579255819321,281.74736592769625 zM586.0579255819321,273.24736592769625 c0.2,0.4 0.5,0.7000000000000006 0.8,1.1 c0.1,0.1 0.3000000000000003,0.2 0.4,0.4 c0.2,1.8 0.4,3.6 0.6000000000000006,5.4 c-0.5,-0.2 -1.1,-0.5 -1.6,-0.7000000000000006 c-0.5,-0.3000000000000003 -1.1,-0.5 -1.6,-0.5 c-0.1,0 -0.3000000000000003,0.1 -0.4,0.1 c-0.2,-0.5 -0.4,-0.9 -0.6000000000000006,-1.4 L586.0579255819321,273.24736592769625 zM604.857925581932,242.34736592769622 c-0.1,0.2 -0.1,0.4 -0.2,0.7000000000000006 c-0.3000000000000003,-0.1 -0.6000000000000006,-0.1 -0.9,-0.2 l0.7000000000000006,-1.2 C604.6579255819321,241.84736592769622 604.7579255819321,242.04736592769623 604.857925581932,242.34736592769622 zM604.457925581932,197.34736592769622 c-0.4,0 -0.8,0 -1.2,0 c0.1,-2.7 0.2,-5.3 0.3000000000000003,-8 c0.9,-0.2 1.8,-0.3000000000000003 2.7,-0.5 C605.457925581932,191.64736592769623 604.957925581932,194.54736592769623 604.457925581932,197.34736592769622 zM599.5579255819321,197.04736592769623 c-0.9,-0.1 -1.7000000000000002,-0.2 -2.6,-0.4 c-0.1,-2 -0.2,-4 -0.3000000000000003,-6 c1.2,-0.2 2.3,-0.4 3.5,-0.6000000000000006 C599.857925581932,192.34736592769622 599.6579255819321,194.64736592769623 599.5579255819321,197.04736592769623 zM587.0579255819321,218.54736592769623 c-0.5,-1.1 -1,-2.2 -1.5,-3.3 c0.4,0.1 0.9,0.2 1.3,0.3000000000000003 C586.957925581932,216.54736592769623 586.957925581932,217.54736592769623 587.0579255819321,218.54736592769623 zM583.2579255819321,220.24736592769622 c-0.4,-0.1 -0.8,-0.2 -1.2,-0.3000000000000003 c-1.5,-2.2 -2.9,-4.4 -4.2,-6.7 c1.1,0.3000000000000003 2.2,0.7000000000000006 3.3,1 C581.857925581932,216.14736592769623 582.6579255819321,218.24736592769622 583.2579255819321,220.24736592769622 zM576.957925581932,216.74736592769622 c-0.9,-0.9 -1.4,-2 -1.6,-3.2 C575.857925581932,214.64736592769623 576.457925581932,215.74736592769622 576.957925581932,216.74736592769622 zM581.5579255819321,281.0473659276962 c0.3000000000000003,0.8 0.5,1.6 0.8,2.3 c-0.1,1.7000000000000002 -0.1,3.4 0.1,5 c-1,-1.4 -1.9,-2.9 -2.7,-4.4 L581.5579255819321,281.0473659276962 zM615.357925581932,277.94736592769624 c1.1,-0.3000000000000003 2.2,-0.6000000000000006 3.3,-0.9 c-0.7000000000000006,0.7000000000000006 -1.4,1.5 -2,2.2 C616.1579255819321,278.94736592769624 615.6579255819321,278.5473659276962 615.357925581932,277.94736592769624 zM613.357925581932,196.54736592769623 c-1.2,0.2 -2.4,0.4 -3.7,0.6000000000000006 c0.4,-3 0.7000000000000006,-6.1 1,-9.1 c3,-0.6000000000000006 6,-1.2 9,-1.9 C617.1579255819321,189.34736592769622 615.1579255819321,192.84736592769622 613.357925581932,196.54736592769623 zM590.6579255819321,192.04736592769623 c0.4,-0.4 1.1,-0.6000000000000006 1.7000000000000002,-0.7000000000000006 c0.4,-0.1 0.8,-0.1 1.2,-0.2 c0,1.5 0,3.1 0,4.6 c-0.2,-0.1 -0.4,-0.1 -0.6000000000000006,-0.2 C591.357925581932,195.04736592769623 589.457925581932,193.34736592769622 590.6579255819321,192.04736592769623 zM556.957925581932,193.84736592769622 c-1.5,-1 -2.9,-2.1 -4.3,-3.3 c1,-2.1 1.7000000000000002,-4.2 2.2,-6.4 C556.2579255819321,187.24736592769622 557.1579255819321,190.44736592769624 556.957925581932,193.84736592769622 zM518.457925581932,212.74736592769622 c0.8,0.9 1.6,1.7000000000000002 2.4,2.6 c-3.2,0.4 -6.3,1.4 -9.2,2.9 c-0.1,-0.1 -0.2,-0.3000000000000003 -0.3000000000000003,-0.4 C513.2579255819321,215.54736592769623 515.7579255819321,213.94736592769624 518.457925581932,212.74736592769622 zM499.857925581932,228.34736592769622 c-0.4,4.7 0.4,9.5 2,13.8 c0.5,1.3 1.1,2.6 1.7000000000000002,4.1 c-1.5,0.3000000000000003 -2.9,0.7000000000000006 -4.3,1.3 c-2.8,1.2 -5.2,2.9 -7.3,5.1 c1.7000000000000002,-6.1 3.3,-12.1 5,-18.2 c-1.2,1.9 -2.4,3.8 -3.5,5.7 c-0.3000000000000003,-2.2 -0.8,-4.4 -1.2,-6.5 c0.3000000000000003,-0.4 0.5,-0.8 0.8,-1.1 C494.857925581932,230.14736592769623 497.2579255819321,228.94736592769624 499.857925581932,228.34736592769622 zM465.95792558193205,248.34736592769622 c-1.5,-1.3 -3.1,-2.4 -4.9,-3.4 c0.6000000000000006,-3.8 1.3,-7.6 2.2,-11.4 c0.3000000000000003,0.9 0.6000000000000006,1.8 1,2.6 c1.1,2.4 2.6,4.8 4,7.2 C467.45792558193205,245.04736592769623 466.6579255819321,246.64736592769623 465.95792558193205,248.34736592769622 zM462.05792558193207,217.24736592769622 c-0.7000000000000006,3.8 -0.7000000000000006,7.8 0,11.6 c-2.4,4.5 -4.9,9 -7.3,13.5 c-0.7000000000000006,-0.2 -1.3,-0.5 -2,-0.7000000000000006 C455.857925581932,233.54736592769623 458.95792558193205,225.34736592769622 462.05792558193207,217.24736592769622 zM453.357925581932,268.74736592769625 c-9.5,3.5 -19,7.2 -28.4,11.1 c0.8,-2.1 1.6,-4.3 2.4,-6.4 C435.95792558193205,271.6473659276962 444.6579255819321,270.0473659276962 453.357925581932,268.74736592769625 zM429.357925581932,267.8473659276962 c0.4,-1 0.8,-2.1 1.1,-3.1 c3.2,-0.4 6.4,-0.9 9.6,-1.3 C436.55792558193207,264.8473659276962 432.95792558193205,266.3473659276962 429.357925581932,267.8473659276962 zM427.2579255819321,249.04736592769623 c-1.9,4 -7,5.2 -11.3,6 c-2.3,0.4 -4.7,0.8 -7,1.1 c1.1,-2.4 2.3,-4.7 3.5,-7 C417.357925581932,249.04736592769623 422.2579255819321,249.04736592769623 427.2579255819321,249.04736592769623 zM388.6579255819321,217.24736592769622 c-0.6000000000000006,1 -1.3,2.1 -1.9,3.1 c-5.5,0 -10.9,-0.2 -16.3,-0.5 c0.7000000000000006,-2.6 1.4,-5.2 2.2,-7.8 C377.857925581932,214.04736592769623 383.1579255819321,215.74736592769622 388.6579255819321,217.24736592769622 zM375.25792558193206,204.34736592769622 c0.4,-1 0.8,-2 1.1,-3 c3.5,1.5 7,3 10.6,4.4 C383.05792558193207,205.34736592769622 379.1579255819321,204.84736592769622 375.25792558193206,204.34736592769622 zM378.55792558193207,185.64736592769623 c-3.2,-1.7000000000000002 -6.5,-3.2 -9.9,-4.4 c0.2,-0.8 0.4,-1.6 0.7000000000000006,-2.4 C372.1579255819321,181.34736592769622 375.25792558193206,183.64736592769623 378.55792558193207,185.64736592769623 zM354.05792558193207,156.14736592769623 c2.5,6.8 6.3,13 11.1,18.4 c-1.2,1.5 -2.3,3 -3.5,4.6 c-3.3,-0.8 -6.7,-1.4 -10.2,-1.8 c2.7,1.6 5.3,3.1 8,4.7 c-1.6,2.1 -3.3,4.3 -4.9,6.4 c-1.8,-0.3000000000000003 -3.6,-0.5 -5.4,-0.7000000000000006 c1.4,0.8 2.8,1.6 4.2,2.3 c-5.4,7 -10.7,14 -16.1,21.1 C346.75792558193206,194.14736592769623 352.55792558193207,175.34736592769622 354.05792558193207,156.14736592769623 zM317.05792558193207,216.24736592769622 c0.1,0.4 0.3000000000000003,0.8 0.4,1.3 c-1.7000000000000002,-0.3000000000000003 -3.4,-0.5 -5.2,-0.8 c-0.6000000000000006,-1.1 -1.2,-2.2 -1.9,-3.3 C312.55792558193207,214.34736592769622 314.75792558193206,215.34736592769622 317.05792558193207,216.24736592769622 zM306.95792558193205,211.74736592769622 c0.7000000000000006,1.5 1.5,3 2.2,4.4 c-2,-0.4 -4.1,-0.7000000000000006 -6.1,-1.1 c-1.8,-2.7 -3.6,-5.3 -5.4,-8 C300.6579255819321,208.74736592769622 303.75792558193206,210.24736592769622 306.95792558193205,211.74736592769622 zM285.857925581932,200.34736592769622 c2.1,1.3 4.2,2.5 6.3,3.7 c1.7000000000000002,3.3 3.4,6.6 5.2,9.8 c-0.4,-0.1 -0.8,-0.2 -1.1,-0.2 C293.05792558193207,209.24736592769622 289.55792558193207,204.74736592769622 285.857925581932,200.34736592769622 zM290.75792558193206,219.34736592769622 c0.5,0.8 1.1,1.6 1.6,2.5 c-0.7000000000000006,-0.9 -1.4,-1.8 -2.1,-2.7 C290.45792558193205,219.14736592769623 290.6579255819321,219.24736592769622 290.75792558193206,219.34736592769622 zM276.35792558193214,219.14736592769623 c-3.2,3 -6.5,5.9 -9.7,8.9 c-1.2,-1.3 -2.4,-2.5 -3.7,-3.7 C267.95792558193205,223.14736592769623 272.45792558193205,221.44736592769624 276.35792558193214,219.14736592769623 zM260.1579255819321,211.14736592769623 c-2.1,2.1 -4.2,4.2 -6.3,6.3 c-3,-1.9 -6.2,-3.5 -9.4,-4.9 C250.05792558193207,212.74736592769622 255.35792558193214,212.24736592769622 260.1579255819321,211.14736592769623 zM247.95792558193205,199.44736592769624 c0.5,0.5 1,1 1.6,1.4 c-0.5,-0.4 -1,-0.7000000000000006 -1.6,-1.1 C247.95792558193205,199.64736592769623 247.95792558193205,199.54736592769623 247.95792558193205,199.44736592769624 zM222.05792558193207,275.3473659276962 c-0.4,-0.2 -0.8,-0.4 -1.2,-0.6000000000000006 C221.25792558193206,274.94736592769624 221.6579255819321,275.1473659276962 222.05792558193207,275.3473659276962 zM221.05792558193207,329.0473659276962 c0.3000000000000003,1.1 0.7000000000000006,2.2 1.1,3.3 c-1.4,0.2 -2.7,0.4 -3.9,0.9 c-1.6,-1.5 -3.3,-3 -5.1,-4.4 C215.75792558193206,329.44736592769624 218.45792558193205,329.3473659276962 221.05792558193207,329.0473659276962 zM578.357925581932,286.5473659276962 c0.1,0.2 0.2,0.5 0.4,0.7000000000000006 c1.1,2 2.2,4.6 3.6,6.6 l-5.8,-4.2 L578.357925581932,286.5473659276962 z" id="svg_73"/>
</g><g class="" transform="rotate(-90 148.89433288574222,245.66067504882812) " id="svg_74">
	<path class="st0" d="M118.89477727413177,240.01052091121673 c1.3,1.9 2.7,3.7 4.1,5.6 c1.7000000000000002,-2.5 3.3,-5 5,-7.6 c-2.8,-0.7000000000000006 -5.6,-1.5 -8.3,-2.4 c3.7,-0.7000000000000006 7.4,-1.3 11.1,-1.9 c1.7000000000000002,-2.7 3.4,-5.3 5,-8 c-4.6,-1.2 -9.1,-2.5 -13.6,-4 C120.79477727413177,227.71052091121675 119.69477727413175,233.81052091121674 118.89477727413177,240.01052091121673 z" id="svg_76"/>
	<path class="st0" d="M139.79477727413177,270.9105209112168 c1.1,-0.1 2.2,-0.3000000000000003 3.2,-0.4 c2.7,-3.3 5.4,-6.5 8.1,-9.8 c-1.7000000000000002,0.1 -3.4,0.3000000000000003 -5.2,0.4 C143.89477727413177,264.3105209112167 141.79477727413177,267.6105209112167 139.79477727413177,270.9105209112168 z" id="svg_78"/>
	<path class="st0" d="M153.79477727413177,279.9105209112168 l5.1,1.6 c0.8,-1.2 1.6,-2.4 2.5,-3.6 C158.79477727413177,278.6105209112167 156.29477727413177,279.3105209112167 153.79477727413177,279.9105209112168 z" id="svg_80"/>
	<path class="st0" d="M85.89477727413177,254.51052091121673 c0.2,-0.1 0.4,-0.3000000000000003 0.6000000000000006,-0.4 c-2.2,-0.4 -4.4,-0.8 -6.6,-1.2 c-1.2,0.3000000000000003 -2.4,0.7000000000000006 -3.5,1.1 C79.49477727413176,254.21052091121675 82.69477727413175,254.31052091121674 85.89477727413177,254.51052091121673 z" id="svg_82"/>
	<path class="st0" d="M155.99477727413176,268.71052091121675 c-1.3,3.6 -2.6,7.2 -3.7,10.8 l0.9,0.3000000000000003 c3.2,-1.3 6.5,-2.7 9.7,-4 c2.3,-3.1 4.7,-6.1 7.1,-9 C165.3947772741318,267.4105209112168 160.69477727413175,268.01052091121676 155.99477727413176,268.71052091121675 z" id="svg_84"/>
	<path class="st0" d="M57.99477727413176,249.61052091121672 c0.4,-0.6000000000000006 0.8,-1.2 1.3,-1.8 c-2.8,-0.9 -5.6,-1.8 -8.3,-2.8 c-1.2,0.4 -2.3,0.8 -3.5,1.2 L57.99477727413176,249.61052091121672 z" id="svg_86"/>
	<path class="st0" d="M65.09477727413179,251.81052091121674 l3.8,1.2 c0.7000000000000006,-0.7000000000000006 1.3,-1.4 2,-2.1 c-1.1,-0.3000000000000003 -2.2,-0.5 -3.3,-0.8 C66.79477727413177,250.71052091121675 65.89477727413177,251.31052091121674 65.09477727413179,251.81052091121674 z" id="svg_88"/>
	<path class="st0" d="M139.69477727413175,271.01052091121676 c-0.8,1.2 -1.6,2.5 -2.3,3.7 l1.7000000000000002,0.5 c1.3,-1.5 2.5,-3.1 3.8,-4.6 C141.79477727413177,270.8105209112167 140.69477727413175,270.9105209112168 139.69477727413175,271.01052091121676 z" id="svg_90"/>
	<path class="st0" d="M212.0947772741318,266.21052091121675 c0,-0.1 0,-0.2 0.1,-0.3000000000000003 c0,0 0,0 -0.1,0 C212.0947772741318,266.01052091121676 212.0947772741318,266.1105209112167 212.0947772741318,266.21052091121675 z" id="svg_92"/>
	<path class="st0" d="M153.19477727413175,249.41052091121674 c-1.9,3.1 -3.8,6.1 -5.8,9.2 c2.1,-0.3000000000000003 4.1,-0.7000000000000006 6.2,-1 c2.3,-2.7 4.5,-5.5 6.8,-8.2 C158.0947772741318,249.41052091121674 155.5947772741318,249.41052091121674 153.19477727413175,249.41052091121674 z" id="svg_94"/>
	<path class="st0" d="M27.594777274131786,239.91052091121674 c1.4,-0.9 2.9,-1.9 4.3,-2.8 c-2.7,-1.3 -5.4,-2.6 -8,-4 c-0.4,0.1 -0.8,0.2 -1.2,0.3000000000000003 c1.2,1.9 2.4,3.9 3.3,6.1 L27.594777274131786,239.91052091121674 z" id="svg_96"/>
	<path class="st0" d="M-17.40522272586821,327.1105209112167 c-2.5,0.8 -5.2,1.5 -7.9,2 c0.9,1 1.7000000000000002,2 2.5,3 C-19.80522272586822,331.51052091121676 -16.705222725868225,329.8105209112167 -17.40522272586821,327.1105209112167 z" id="svg_98"/>
	<path class="st0" d="M296.2947772741318,203.71052091121675 c1.3,1.2 3.6,2.3 4.7,0.8 c0.4,-0.5 0.4,-1.3 0.3000000000000003,-1.9 c-0.1,-1.5 -0.6000000000000006,-2.9 -1.2,-4.2 c-1.4,1.7000000000000002 -3,3.2 -4.6,4.6 C295.7947772741318,203.21052091121675 295.9947772741318,203.41052091121674 296.2947772741318,203.71052091121675 z" id="svg_100"/>
	<path class="st0" d="M350.8947772741318,272.01052091121676 c0,0.9 0.1,1.9 0.2,2.8 c0.6000000000000006,0.1 1.1,0.1 1.7000000000000002,0.1 c0,-0.3000000000000003 0,-0.5 0,-0.8 C352.2947772741318,273.4105209112168 351.59477727413173,272.71052091121675 350.8947772741318,272.01052091121676 z" id="svg_102"/>
	<path class="st0" d="M72.69477727413175,232.81052091121674 c0,-0.2 -0.1,-0.5 -0.1,-0.8 c-0.1,0 -0.2,-0.1 -0.4,-0.1 C72.3947772741318,232.21052091121675 72.59477727413179,232.51052091121673 72.69477727413175,232.81052091121674 z" id="svg_104"/>
	<path class="st0" d="M39.69477727413175,231.91052091121674 c1.7000000000000002,-1.1 3.4,-2.2 5.1,-3.4 c-4.6,1 -9.2,2 -13.8,3 C33.89477727413177,231.61052091121672 36.794777274131775,231.81052091121674 39.69477727413175,231.91052091121674 z" id="svg_106"/>
	<path class="st0" d="M87.89477727413177,237.41052091121674 c0.6000000000000006,0.1 1.2,0.2 1.8,0.3000000000000003 c0,-0.1 -0.1,-0.2 -0.1,-0.4 c-0.7000000000000006,-0.2 -1.4,-0.4 -2,-0.6000000000000006 C87.69477727413175,237.01052091121673 87.79477727413177,237.21052091121675 87.89477727413177,237.41052091121674 z" id="svg_108"/>
	<path class="st0" d="M113.79477727413177,207.51052091121673 c-2.3,8.6 -4.7,17.1 -7,25.7 c4.6,-7.5 9.3,-15.1 13.9,-22.6 C118.29477727413177,209.61052091121672 115.99477727413176,208.61052091121672 113.79477727413177,207.51052091121673 z" id="svg_110"/>
	<path class="st0" d="M156.19477727413175,268.1105209112167 c6.1,-1.5 12,-3.5 17.8,-5.9 c1.5,-1.6 3,-3.3 4.6,-4.8 c-6.3,1 -12.7,1.8 -19,2.4 C158.3947772741318,262.6105209112167 157.29477727413177,265.4105209112168 156.19477727413175,268.1105209112167 z" id="svg_112"/>
	<path class="st0" d="M124.49477727413176,204.21052091121675 c0.7000000000000006,-1.2 1.4,-2.3 2.1,-3.5 c-3.3,-1.5 -6.5,-3 -9.7,-4.6 c-0.6000000000000006,2.3 -1.3,4.6 -1.9,6.9 C118.09477727413179,203.41052091121674 121.29477727413177,203.81052091121674 124.49477727413176,204.21052091121675 z" id="svg_114"/>
	<path class="st0" d="M118.29477727413177,190.81052091121674 c4.1,1 8.2,2.1 12.3,3.5 c0.2,-0.3000000000000003 0.3000000000000003,-0.5 0.5,-0.8 c-3.9,-2.3 -7.7,-4.5 -11.6,-6.8 C119.09477727413179,188.11052091121672 118.69477727413175,189.41052091121674 118.29477727413177,190.81052091121674 z" id="svg_116"/>
	<path class="st0" d="M135.19477727413175,195.91052091121674 c-1.1,-0.6000000000000006 -2.2,-1.3 -3.3,-1.9 c-0.1,0.2 -0.2,0.4 -0.3000000000000003,0.6000000000000006 C132.79477727413177,195.01052091121673 133.99477727413176,195.41052091121674 135.19477727413175,195.91052091121674 z" id="svg_118"/>
	<path class="st0" d="M153.19477727413175,220.21052091121675 c-2.9,-0.5 -5.7,-1.1 -8.5,-1.8 c-0.3000000000000003,0.7000000000000006 -0.6000000000000006,1.4 -0.8,2.1 C146.89477727413177,220.51052091121673 150.0947772741318,220.41052091121674 153.19477727413175,220.21052091121675 z" id="svg_120"/>
	<path class="st0" d="M71.59477727413179,218.11052091121672 c0.8,0.1 1.6,0.2 2.4,0.4 c-0.9,-0.4 -1.8,-0.7000000000000006 -2.8,-1.1 C71.3947772741318,217.61052091121672 71.49477727413176,217.81052091121674 71.59477727413179,218.11052091121672 z" id="svg_122"/>
	<path class="st0" d="M80.89477727413177,234.81052091121674 c-0.2,-0.1 -0.3000000000000003,-0.1 -0.5,-0.2 c0.3000000000000003,0.6000000000000006 0.6000000000000006,1.1 0.9,1.7000000000000002 C81.09477727413179,235.81052091121674 80.99477727413176,235.31052091121674 80.89477727413177,234.81052091121674 z" id="svg_124"/>
	<path class="st0" d="M157.5947772741318,231.21052091121675 c0.4,-0.4 0.9,-0.8 1.3,-1.2 c-5.9,-0.7000000000000006 -11.8,-1.7000000000000002 -17.6,-3 c-0.7000000000000006,1.9 -1.5,3.8 -2.2,5.6 C145.19477727413175,232.01052091121673 151.3947772741318,231.51052091121673 157.5947772741318,231.21052091121675 z" id="svg_126"/>
	<path class="st0" d="M168.79477727413177,242.01052091121673 c-0.1,0 -0.1,0 -0.2,0 c0,0 0,0 0,0 C168.69477727413175,242.01052091121673 168.69477727413175,242.01052091121673 168.79477727413177,242.01052091121673 z" id="svg_128"/>
	<path class="st0" d="M119.3947772741318,249.51052091121673 c-0.4,0 -0.8,0 -1.3,0 c-0.1,1.2 -0.1,2.5 -0.2,3.7 c0.6000000000000006,-0.9 1.2,-1.8 1.8,-2.7 C119.69477727413175,250.21052091121675 119.49477727413176,249.81052091121674 119.3947772741318,249.51052091121673 z" id="svg_130"/>
	<path class="st0" d="M118.29477727413177,246.51052091121673 c-0.1,0.9 -0.1,1.8 -0.2,2.7 c0.4,-0.1 0.7000000000000006,-0.1 1.1,-0.2 C118.89477727413177,248.21052091121675 118.59477727413179,247.31052091121674 118.29477727413177,246.51052091121673 z" id="svg_132"/>
	<path class="st0" d="M138.79477727413177,249.41052091121674 c-2.1,0 -4.2,0 -6.4,0 c-0.8,2.1 -1.7000000000000002,4.3 -2.5,6.4 c0.4,0.8 0.8,1.6 1.2,2.3 C133.5947772741318,255.21052091121675 136.19477727413175,252.31052091121674 138.79477727413177,249.41052091121674 z" id="svg_134"/>
	<path class="st0" d="M345.69477727413175,277.8105209112167 c-0.2,-0.1 -0.4,-0.1 -0.6000000000000006,-0.2 c0.5,1.7000000000000002 1.1,3.4 1.7000000000000002,5.1 c0.3000000000000003,0.1 0.6000000000000006,0.1 0.8,0.2 c-0.1,-1.5 -0.1,-3 -0.2,-4.5 C346.9947772741318,278.21052091121675 346.2947772741318,278.01052091121676 345.69477727413175,277.8105209112167 z" id="svg_136"/>
	<path class="st0" d="M157.79477727413177,242.11052091121672 c-0.3000000000000003,0.5 -0.7000000000000006,1 -1,1.6 c3.2,-0.4 6.3,-0.9 9.5,-1.3 c0.1,-0.1 0.1,-0.2 0.2,-0.3000000000000003 C163.5947772741318,242.21052091121675 160.69477727413175,242.21052091121675 157.79477727413177,242.11052091121672 z" id="svg_138"/>
	<path class="st0" d="M186.5947772741318,256.21052091121675 c-0.2,0 -0.4,0.1 -0.6000000000000006,0.1 c0,0.1 -0.1,0.2 -0.1,0.3000000000000003 C186.0947772741318,256.41052091121674 186.3947772741318,256.3105209112167 186.5947772741318,256.21052091121675 z" id="svg_140"/>
	<path class="st0" d="M136.29477727413177,239.81052091121674 c-0.9,2.4 -1.9,4.8 -2.8,7.2 c2.9,-0.4 5.9,-0.8 8.8,-1.2 c1.4,-1.5 2.9,-2.9 4.4,-4.4 C143.0947772741318,241.01052091121673 139.69477727413175,240.51052091121673 136.29477727413177,239.81052091121674 z" id="svg_142"/>
	<path class="st0" d="M168.49477727413176,230.91052091121674 c-1.2,-0.1 -2.3,-0.2 -3.5,-0.3000000000000003 c-0.1,0.1 -0.1,0.2 -0.2,0.3000000000000003 C165.99477727413176,230.91052091121674 167.19477727413175,230.91052091121674 168.49477727413176,230.91052091121674 z" id="svg_144"/>
	<path class="st0" d="M43.8947772741318,245.11052091121672 c0.9,-0.6000000000000006 1.8,-1.1 2.7,-1.7000000000000002 c-4.3,-1.6 -8.6,-3.4 -12.7,-5.4 c-1.9,0.6000000000000006 -3.8,1.3 -5.5,2.1 L43.8947772741318,245.11052091121672 z" id="svg_146"/>
	<path class="st0" d="M101.3947772741318,187.91052091121674 c1.8,0.2 3.6,0.4 5.4,0.7000000000000006 c1.6,-2.1 3.3,-4.3 4.9,-6.4 c-2.7,-1.6 -5.3,-3.1 -8,-4.7 c3.4,0.4 6.8,1 10.2,1.8 c1.2,-1.5 2.3,-3 3.5,-4.6 C112.59477727413179,169.41052091121674 108.79477727413177,163.21052091121675 106.29477727413177,156.41052091121674 c-1.5,19.1 -7.3,38 -16.9,54.9 c5.4,-7 10.7,-14 16.1,-21.1 C104.19477727413175,189.41052091121674 102.79477727413177,188.71052091121675 101.3947772741318,187.91052091121674 z" id="svg_148"/>
	<path class="st0" d="M130.79477727413177,185.91052091121674 c-3.3,-1.9 -6.4,-4.2 -9.2,-6.8 c-0.2,0.8 -0.4,1.6 -0.7000000000000006,2.4 C124.29477727413177,182.71052091121675 127.59477727413179,184.11052091121672 130.79477727413177,185.91052091121674 z" id="svg_150"/>
	<path class="st0" d="M69.59477727413179,217.81052091121674 c-0.1,-0.4 -0.3000000000000003,-0.8 -0.4,-1.3 c-2.2,-0.9 -4.4,-1.9 -6.6,-2.9 c0.6000000000000006,1.1 1.3,2.2 1.9,3.3 C66.19477727413175,217.31052091121674 67.89477727413177,217.51052091121673 69.59477727413179,217.81052091121674 z" id="svg_152"/>
	<path class="st0" d="M61.3947772741318,216.51052091121673 c-0.7000000000000006,-1.5 -1.5,-3 -2.2,-4.4 c-3.1,-1.5 -6.2,-3 -9.3,-4.7 c1.8,2.7 3.6,5.3 5.4,8 C57.294777274131775,215.71052091121675 59.3947772741318,216.11052091121672 61.3947772741318,216.51052091121673 z" id="svg_154"/>
	<path class="st0" d="M122.59477727413179,220.11052091121672 c5.4,0.3000000000000003 10.9,0.5 16.3,0.5 c0.6000000000000006,-1 1.3,-2.1 1.9,-3.1 c-5.4,-1.4 -10.8,-3.2 -16,-5.2 C123.99477727413176,214.91052091121674 123.29477727413177,217.51052091121673 122.59477727413179,220.11052091121672 z" id="svg_156"/>
	<path class="st0" d="M161.0947772741318,256.41052091121674 c2.3,-0.4 4.7,-0.8 7,-1.1 c4.4,-0.7000000000000006 9.4,-1.9 11.3,-6 c-5,0 -9.9,0 -14.9,0 C163.3947772741318,251.71052091121675 162.19477727413175,254.01052091121673 161.0947772741318,256.41052091121674 z" id="svg_158"/>
	<path class="st0" d="M181.5947772741318,268.1105209112167 c3.6,-1.5 7.2,-2.9 10.8,-4.4 c-3.2,0.4 -6.4,0.9 -9.6,1.3 C182.3947772741318,266.01052091121676 181.99477727413176,267.01052091121676 181.5947772741318,268.1105209112167 z" id="svg_160"/>
	<path class="st0" d="M44.3947772741318,204.31052091121674 c-2.1,-1.2 -4.2,-2.4 -6.3,-3.7 c3.7,4.4 7.2,8.8 10.4,13.3 c0.4,0.1 0.8,0.2 1.1,0.2 C47.794777274131775,210.91052091121674 46.094777274131786,207.61052091121672 44.3947772741318,204.31052091121674 z" id="svg_162"/>
	<path class="st0" d="M127.49477727413176,204.61052091121672 c3.9,0.5 7.8,1 11.7,1.5 c-3.6,-1.4 -7.1,-2.9 -10.6,-4.4 C128.29477727413177,202.61052091121672 127.89477727413177,203.61052091121672 127.49477727413176,204.61052091121672 z" id="svg_164"/>
	<path class="st0" d="M18.89477727413177,228.31052091121674 c3.2,-3 6.5,-5.9 9.7,-8.9 c-3.9,2.3 -8.4,4 -13.4,5.2 C16.494777274131767,225.71052091121675 17.69477727413178,227.01052091121673 18.89477727413177,228.31052091121674 z" id="svg_166"/>
	<path class="st0" d="M-25.705222725868225,332.6105209112167 c-0.4,-1.1 -0.7000000000000006,-2.2 -1.1,-3.3 c-2.6,0.3000000000000003 -5.3,0.3000000000000003 -7.9,-0.2 c1.8,1.4 3.5,2.9 5.1,4.4 C-28.405222725868214,333.01052091121676 -27.00522272586824,332.8105209112167 -25.705222725868225,332.6105209112167 z" id="svg_168"/>
	<path class="st0" d="M42.99477727413176,219.61052091121672 c-0.1,-0.1 -0.3000000000000003,-0.1 -0.4,-0.2 c0.7000000000000006,0.9 1.4,1.8 2.1,2.7 C44.094777274131786,221.21052091121675 43.594777274131786,220.41052091121674 42.99477727413176,219.61052091121672 z" id="svg_170"/>
	<path class="st0" d="M330.8947772741318,287.6105209112167 c-0.1,-0.2 -0.2,-0.5 -0.4,-0.7000000000000006 l-1.8,3.1 l5.8,4.2 C333.0947772741318,292.1105209112167 331.9947772741318,289.6105209112167 330.8947772741318,287.6105209112167 z" id="svg_172"/>
	<path class="st0" d="M-26.905222725868207,275.1105209112167 c0.4,0.2 0.8,0.4 1.2,0.6000000000000006 C-26.10522272586823,275.4105209112168 -26.505222725868236,275.21052091121675 -26.905222725868207,275.1105209112167 z" id="svg_174"/>
	<path class="st0" d="M177.19477727413175,280.1105209112167 c9.4,-3.9 18.8,-7.7 28.4,-11.1 c-8.7,1.3 -17.4,2.9 -26,4.7 C178.79477727413177,275.8105209112167 177.99477727413176,278.01052091121676 177.19477727413175,280.1105209112167 z" id="svg_176"/>
	<path class="st0" d="M-3.3052227258682194,212.91052091121674 c3.2,1.4 6.3,3 9.4,4.9 c2.1,-2.1 4.2,-4.2 6.3,-6.3 C7.594777274131786,212.51052091121673 2.2947772741317745,213.01052091121673 -3.3052227258682194,212.91052091121674 z" id="svg_178"/>
	<path class="st0" d="M0.1947772741317804,199.71052091121675 c0,0.1 0,0.2 0,0.3000000000000003 c0.5,0.4 1,0.7000000000000006 1.6,1.1 C1.1947772741317806,200.71052091121675 0.6947772741317818,200.21052091121675 0.1947772741317804,199.71052091121675 z" id="svg_180"/>
	<path class="st0" d="M367.59477727413173,278.21052091121675 c0.3000000000000003,0.6000000000000006 0.8,1 1.3,1.3 c0.7000000000000006,-0.7000000000000006 1.3,-1.5 2,-2.2 C369.7947772741318,277.6105209112167 368.69477727413175,277.9105209112168 367.59477727413173,278.21052091121675 z" id="svg_182"/>
	<path class="st0" d="M327.59477727413173,213.81052091121674 c0.2,1.2 0.7000000000000006,2.3 1.6,3.2 C328.69477727413175,216.01052091121673 328.0947772741318,214.91052091121674 327.59477727413173,213.81052091121674 z" id="svg_184"/>
	<path class="st0" d="M355.69477727413175,189.61052091121672 c-0.1,2.7 -0.2,5.3 -0.3000000000000003,8 c0.4,0 0.8,0 1.2,0 c0.5,-2.9 1,-5.7 1.7000000000000002,-8.5 C357.4947772741318,189.31052091121674 356.59477727413173,189.51052091121673 355.69477727413175,189.61052091121672 z" id="svg_186"/>
	<path class="st0" d="M339.2947772741318,218.81052091121674 c0,-1 -0.1,-2 -0.2,-3.1 c-0.4,-0.1 -0.9,-0.2 -1.3,-0.3000000000000003 C338.2947772741318,216.61052091121672 338.7947772741318,217.71052091121675 339.2947772741318,218.81052091121674 z" id="svg_188"/>
	<path class="st0" d="M334.2947772741318,220.21052091121675 c0.4,0.1 0.8,0.2 1.2,0.3000000000000003 c-0.6000000000000006,-2 -1.3,-4.1 -2.1,-6.1 c-1.1,-0.3000000000000003 -2.2,-0.6000000000000006 -3.3,-1 C331.3947772741318,215.71052091121675 332.7947772741318,218.01052091121673 334.2947772741318,220.21052091121675 z" id="svg_190"/>
	<path class="st0" d="M349.19477727413175,196.91052091121674 c0.9,0.2 1.7000000000000002,0.3000000000000003 2.6,0.4 c0.2,-2.4 0.4,-4.7 0.6000000000000006,-7 c-1.2,0.2 -2.3,0.4 -3.5,0.6000000000000006 C348.9947772741318,192.91052091121674 349.0947772741318,194.91052091121674 349.19477727413175,196.91052091121674 z" id="svg_192"/>
	<path class="st0" d="M214.29477727413177,229.11052091121672 c-0.7000000000000006,-3.8 -0.7000000000000006,-7.8 0,-11.6 c-3.1,8.1 -6.2,16.3 -9.3,24.4 c0.7000000000000006,0.2 1.3,0.5 2,0.7000000000000006 C209.3947772741318,238.11052091121672 211.8947772741318,233.61052091121672 214.29477727413177,229.11052091121672 z" id="svg_194"/>
	<path class="st0" d="M352.4947772741318,282.01052091121676 c-0.1,-0.2 -0.2,-0.4 -0.3000000000000003,-0.5 c0.1,0.3000000000000003 0.2,0.6000000000000006 0.3000000000000003,0.9 C352.4947772741318,282.3105209112167 352.4947772741318,282.21052091121675 352.4947772741318,282.01052091121676 z" id="svg_196"/>
	<path class="st0" d="M356.9947772741318,243.31052091121674 c0.1,-0.2 0.1,-0.4 0.2,-0.7000000000000006 c-0.1,-0.3000000000000003 -0.2,-0.5 -0.4,-0.7000000000000006 l-0.7000000000000006,1.2 C356.3947772741318,243.11052091121672 356.69477727413175,243.21052091121675 356.9947772741318,243.31052091121674 z" id="svg_198"/>
	<path class="st0" d="M336.3947772741318,279.21052091121675 c0.1,0 0.2,-0.1 0.4,-0.1 c0.6000000000000006,-0.1 1.1,0.2 1.6,0.5 c0.5,0.3000000000000003 1.1,0.5 1.6,0.7000000000000006 c-0.2,-1.8 -0.4,-3.6 -0.6000000000000006,-5.4 c-0.1,-0.1 -0.3000000000000003,-0.2 -0.4,-0.4 c-0.3000000000000003,-0.3000000000000003 -0.5,-0.7000000000000006 -0.8,-1.1 l-2.5,4.4 C335.9947772741318,278.3105209112167 336.19477727413175,278.8105209112167 336.3947772741318,279.21052091121675 z" id="svg_200"/>
	<path class="st0" d="M334.59477727413173,283.6105209112167 c-0.3000000000000003,-0.8 -0.6000000000000006,-1.6 -0.8,-2.3 l-1.7000000000000002,3 c0.8,1.5 1.7000000000000002,3 2.7,4.4 C334.4947772741318,287.01052091121676 334.4947772741318,285.3105209112167 334.59477727413173,283.6105209112167 z" id="svg_202"/>
	<path class="st0" d="M309.19477727413175,194.11052091121672 c0.1,-3.4 -0.7000000000000006,-6.6 -2,-9.7 c-0.5,2.2 -1.3,4.3 -2.2,6.4 C306.2947772741318,192.01052091121673 307.69477727413175,193.11052091121672 309.19477727413175,194.11052091121672 z" id="svg_204"/>
	<path class="st0" d="M263.99477727413176,218.51052091121673 c2.9,-1.5 6,-2.5 9.2,-2.9 c-0.8,-0.9 -1.6,-1.7000000000000002 -2.4,-2.6 c-2.7,1.2 -5.2,2.7 -7.1,5 C263.69477727413175,218.21052091121675 263.7947772741318,218.31052091121674 263.99477727413176,218.51052091121673 z" id="svg_206"/>
	<path class="st0" d="M245.79477727413177,240.31052091121674 c1.2,-1.9 2.4,-3.8 3.5,-5.7 c-1.7000000000000002,6.1 -3.3,12.1 -5,18.2 c2,-2.2 4.5,-4 7.3,-5.1 c1.4,-0.6000000000000006 2.8,-1 4.3,-1.3 c-0.7000000000000006,-1.4 -1.3,-2.8 -1.7000000000000002,-4.1 c-1.6,-4.3 -2.4,-9.1 -2,-13.8 c-2.7,0.6000000000000006 -5.1,1.8 -6.7,4.1 c-0.3000000000000003,0.4 -0.5,0.7000000000000006 -0.8,1.1 C244.99477727413176,236.01052091121673 245.49477727413176,238.21052091121675 245.79477727413177,240.31052091121674 z" id="svg_208"/>
	<path class="st0" d="M345.2947772741318,195.91052091121674 c0.2,0.1 0.4,0.1 0.6000000000000006,0.2 c0,-1.5 0,-3.1 0,-4.6 c-0.4,0.1 -0.8,0.1 -1.2,0.2 c-0.6000000000000006,0.1 -1.3,0.2 -1.7000000000000002,0.7000000000000006 C341.69477727413175,193.61052091121672 343.59477727413173,195.31052091121674 345.2947772741318,195.91052091121674 z" id="svg_210"/>
	<path class="st0" d="M347.2947772741318,269.6105209112167 c-1.6,-1 -3.4,-1.8 -5,-2.8 c0.4,1.8 0.8,3.6 1.2,5.4 c1.2,0.8 2.5,1.4 3.8,1.8 C347.3947772741318,272.51052091121676 347.3947772741318,271.1105209112167 347.2947772741318,269.6105209112167 z" id="svg_212"/>
	<path class="st0" d="M215.49477727413176,233.81052091121674 c-0.9,3.8 -1.7000000000000002,7.6 -2.2,11.4 c1.8,0.9 3.4,2.1 4.9,3.4 c0.7000000000000006,-1.7000000000000002 1.5,-3.3 2.3,-4.9 c-1.4,-2.4 -2.9,-4.8 -4,-7.2 C216.19477727413175,235.61052091121672 215.79477727413177,234.71052091121675 215.49477727413176,233.81052091121674 z" id="svg_214"/>
	<path class="st0" d="M361.8947772741318,197.41052091121674 c1.2,-0.1 2.5,-0.3000000000000003 3.7,-0.6000000000000006 c1.8,-3.7 3.9,-7.2 6.3,-10.4 c-3,0.6000000000000006 -6,1.3 -9,1.9 C362.59477727413173,191.31052091121674 362.2947772741318,194.31052091121674 361.8947772741318,197.41052091121674 z" id="svg_216"/>
	<path class="st1" d="M369.8947772741318,345.1105209112167 c9.3,-3.8 15.8,-13.6 15.7,-23.6 c-4.7,1.6 -9.7,2.5 -14,5 c-4.5,2.6 -8,6.8 -9.8,11.7 c0.4,-2.4 0.6000000000000006,-4.8 0.4,-7.2 L369.2947772741318,319.4105209112168 l-4.1,-3 c3.4,-2.8 6.4,-6.3 8,-8.9 c1.1,-1.8 1.9,-3.8 2.6,-5.8 c3.2,-0.6000000000000006 6.3,-1.5 9.4,-2.6 c-2.8,-0.2 -5.6,-0.3000000000000003 -8.5,-0.2 c0.1,-0.4 0.2,-0.7000000000000006 0.3000000000000003,-1.1 c0.1,-0.4 0.2,-0.9 0.4,-1.3 c4.2,-1.6 8.4,-3.3 12.5,-4.9 c-3.9,0.2 -7.8,0.8 -11.6,1.8 c0.1,-0.5 0.3000000000000003,-0.9 0.4,-1.4 c3.1,-1.6 6.1,-3.4 8.8,-5.6 c-2.7,0.5 -5.3,1.2 -7.9,2.1 c0.5,-1.9 1,-3.8 1.5,-5.7 c0.2,-0.7000000000000006 0.3000000000000003,-1.4 0.4,-2.1 c1.7000000000000002,-2.1 3.4,-4.3 4.9,-6.6 c-1.8,0.9 -3.6,2 -5.4,3.1 c-1.6,-0.2 -3.1,0.4 -4.7,1.1 c1.3,-1.9 2.5,-3.9 3.7,-5.9 c0.7000000000000006,-0.7000000000000006 1.3,-1.4 1.8,-2.2 c1.2,-2 1.9,-4.2 2.5,-6.4 c0.9,-3.3 1.7000000000000002,-6.8 0.7000000000000006,-9.9 c-2.8,4.8 -7.3,8.6 -12.4,10.4 c0.7000000000000006,-2 1.3,-4.1 2,-6.1 c2.9,-2.8 5.8,-5.5 8.7,-8.4 c0.7000000000000006,-0.7000000000000006 1.4,-1.4 1.5,-2.4 c0.1,-0.6000000000000006 -0.1,-1.2 -0.3000000000000003,-1.7000000000000002 c-1.7000000000000002,-5.2 -4,-10.2 -6.8,-14.8 c2,-0.5 3.9,-1.1 5.8,-1.8 c-2.3,-0.2 -4.7,-0.3000000000000003 -7,-0.2 c-0.4,-0.7000000000000006 -0.9,-1.4 -1.4,-2.1 c4.4,-1.7000000000000002 8.8,-3.4 13.2,-5.2 c-5.1,0.3000000000000003 -10.1,1.2 -14.9,2.8 c-0.1,-0.1 -0.2,-0.2 -0.3000000000000003,-0.4 c4.5,-2.2 8.9,-4.5 12.7,-7.6 c-5.1,1 -10.1,2.7 -14.8,4.9 c-0.2,-0.2 -0.4,-0.5 -0.6000000000000006,-0.7000000000000006 c5.5,-4.8 10.4,-10.4 14.4,-16.5 c-3.6,1.8 -6.9,3.9 -10.1,6.4 l4.3,-7.3 l-1.4,0.6000000000000006 c1.8,-3.1 3.4,-6.2 4.7,-9.5 c-4.5,4.1 -8.9,8.3 -13,12.8 l-3.6,1.4 c0.2,-0.6000000000000006 0.5,-1.2 0.7000000000000006,-1.8 c4.3,-4 8.8,-8.4 10.1,-14 c-1.9,1 -3.8,1.8 -5.8,2.5 c1.1,-3.1 2.1,-6.3 3,-9.4 c1.4,-0.3000000000000003 2.7,-0.6000000000000006 4.1,-0.9 c1.7000000000000002,-0.4 3.5,-0.8 4.5,-2.2 c0.7000000000000006,-0.8 0.9,-1.8 1.2,-2.8 c4.3,-17.8 5,-36.3 2.1,-54.1 c-1.2,-7.1 -3.3,-14.6 -9.4,-18.5 c-11.1,5.5 -21.7,12.1 -31.5,19.6 c-1.6,1.2 -3.2,2.5 -4,4.3 c-2.7,6.3 7,12.6 4,18.8 c-5.5,-5.1 -10.4,-10.9 -14.4,-17.2 C318.59477727413173,139.11052091121675 308.2947772741318,148.41052091121674 300.9947772741318,159.51052091121673 c-1,1.6 -2,3.2 -2.3,5.1 c-0.3000000000000003,2.3 0.6000000000000006,4.5 1.6,6.5 c1.2,2.4 2.5,4.7 3.8,7.1 c-2.3,0.7000000000000006 -4.7,1.4 -7,2.1 c-1.7000000000000002,-3.6 -2.9,-7.6 -3.2,-11.7 c-4.5,1.2 -6.8,6.7 -5.9,11 c0.3000000000000003,1.4 0.8,2.7 1.5,4 c-2.2,1.3 -4.3,3 -6,4.8 c-0.4,-0.6000000000000006 -0.8,-1.2 -1.2,-1.8 c-0.5,-0.9 -1.1,-1.8 -2,-2.3 c-1.2,-0.6000000000000006 -2.4,-0.3000000000000003 -3.6,0.4 c-0.5,-1.5 -1.1,-2.9 -2,-4.3 c-3.9,5.8 -11.6,8.2 -15.5,14.1 c-2.1,3.1 -2.8,6.8 -3.8,10.4 c1,-4.5 0.6000000000000006,-9.2 -1.2,-13.4 c-2.7,-6.2 -8.4,-10.9 -14.9,-12.4 c-3.8,4.4 -5.1,10.6 -4.1,16.4 c0.9,5.7 3.9,11 7.6,15.4 c1.2,1.4 2.5,2.7 3.2,4.4 c1.7000000000000002,4 -1.2,7.9 -3.8,11.3 c-4.6,1.8 -8.2,5.4 -11.2,9.6 c0.1,-0.5 0.2,-1 0.2,-1.5 c0.9,-2.8 1.3,-5.7 1.4,-8.6 c0.1,-0.5 0.2,-1 0.2,-1.4 c-0.1,0.1 -0.2,0.2 -0.2,0.3000000000000003 c-0.1,-2.5 -0.4,-4.9 -1.2,-7.3 c-1.8,-6.1 -5.6,-11.4 -8.7,-17 c-2.6,2.6 -4.6,5.7 -6.1,9.1 c-7.8,8.6 -14.6,18.1 -20.2,28.3 c-0.1,-0.1 -0.2,-0.1 -0.3000000000000003,-0.2 c-0.2,0.6000000000000006 -0.4,1.3 -0.6000000000000006,1.9 c-0.6000000000000006,1.1 -1.1,2.1 -1.7000000000000002,3.2 c3,-16.2 5.9,-32.4 8.9,-48.5 c-4.7,14.5 -10.1,28.9 -16.1,42.9 c-2.8,-16.3 -1.4,-33.4 3.9,-49.2 c-4.7,12.5 -9.3,25 -14,37.5 c1.2,-16 2.4,-32 3.6,-48 c-5.9,12 -11.8,23.9 -17.7,35.9 c4.6,-13.9 5.8,-28.8 3.3,-43.1 c-5.3,10 -10.6,19.9 -15.9,29.9 c1.1,-13.4 -1.1,-27 -6.3,-39.2 c-1.1,7.7 -2.2,15.3 -3.3,23 c-4,-6.9 -9.1,-13.2 -14.9,-18.7 c0.1,-0.5 0.3000000000000003,-1 0.4,-1.5 c-0.3000000000000003,0.4 -0.6000000000000006,0.7000000000000006 -0.8,1.1 c-5.5,-5 -11.6,-9.2 -18.3,-12.6 c0.1,-1.1 0.1,-2.2 0.1,-3.3 c-10.6,13 -21.3,26.1 -31.9,39.1 c5.5,-19.3 6.2,-39.7 2,-59.1 c-3.8,10.9 -7.6,21.8 -11.4,32.7 c-7.9,-23 -22.9,-43.4 -42.4,-57.7 c1.5,22 11.9,43 28.2,57.5 c-10.9,-8.9 -23.6,-15.7 -37.2,-19.9 c13.6,11.9 27.2,23.9 40.7,35.8 c-14.7,-9 -30.6,-16.2 -47.1,-21.4 c15.7,13.7 32.5,26.2 50.1,37.5 c-3,-1 -5.9,-2 -8.9,-2.9 c-0.5,-0.7000000000000006 -0.9,-1.4 -1.4,-2.1 c0.3000000000000003,0.7000000000000006 0.7000000000000006,1.3 1,2 c-4.2,-1.4 -8.4,-2.8 -12.7,-4.2 c-1.1,-1.6 -2.2,-3.2 -3.3,-4.9 c0.8,1.5 1.6,3.1 2.4,4.6 c-9.9,-3.2 -19.7,-6.5 -29.6,-9.7 c7.2,6.4 14.8,12.3 22.8,17.7 c3,5.8 6.3,11.6 9.9,17.4 c-0.7000000000000006,-0.2 -1.4,-0.3000000000000003 -2.1,-0.5 c-7.7,-9.1 -16.3,-17.9 -25.7,-26.1 c6.1,7.9 11.8,15.8 16.9,23.9 c-0.4,-0.1 -0.8,-0.2 -1.2,-0.3000000000000003 c-10.7,-11.5 -23,-22.4 -36.3,-31.9 c7.3,8.8 14.5,17.7 21.8,26.5 c-4.4,-3.8 -8.8,-7.5 -13.4,-11.2 c-0.1,-0.1 -0.2,-0.3000000000000003 -0.3000000000000003,-0.4 c-0.1,0 -0.2,0 -0.3000000000000003,0 c-6.1,-4.9 -12.3,-9.7 -18.7,-14.3 c4.1,5.1 8.6,10.1 13.4,15 c-0.8,0.2 -1.5,0.3000000000000003 -2.2,0.6000000000000006 c-5.9,-4.3 -11.9,-8.5 -17.8,-12.8 c4,5 8.7,9.8 13.8,14.2 c-0.3000000000000003,0.1 -0.6000000000000006,0.2 -0.8,0.4 c-10.3,-6.1 -21.6,-10.1 -32,-11.2 c7.6,6.2 16.1,11.5 24.9,15.8 c-0.9,0.8 -1.7000000000000002,1.6 -2.4,2.4 c-1.1,1.2 -2,2.6 -2.8,4 c-1.4,-0.3000000000000003 -2.7,-0.5 -3.9,-0.7000000000000006 c-0.1,-0.4 -0.3000000000000003,-0.7000000000000006 -0.4,-1 c-3,-6.9 -11.7,-11 -14.7,-17.9 c-5.8,4.9 -7.9,11.7 -8.5,18.6 c-1,-7.1 -4.9,-13.8 -11,-18.5 c-5.9,-4.5 -13.4,-7.1 -20.3,-10.5 c-4.1,13.7 2.4,28.7 15.7,36.3 c9.5,5.4 22.8,8 27.1,17.2 c-7,-5.5 -16.9,-8.1 -26.7,-7.1 c-7.4,0.8 -14.7,3.5 -22.1,3.3 c1.7000000000000002,8.6 9.6,16 19.7,17.4 c7.5,1 15.2,-1.2 22.9,-2.4 c0.7000000000000006,2.4 1.5,4.7 2.8,6.9 c2.2,3.9 5.6,7.1 9.6,9.1 c0.1,0.2 0.1,0.4 0.2,0.6000000000000006 c-4.3,-0.6000000000000006 -8.6,-0.3000000000000003 -12.2,2 c4.5,3 6.2,9 10.6,12.1 c2.5,1.7000000000000002 5.5,2.3 8.4,3.2 c-2.1,-0.6000000000000006 -4.3,-0.7000000000000006 -6.5,-0.4 c-7.3,-4.6 -15.1,-8.6 -23.2,-12 c-3.9,2.4 -4.8,7.2 -5.1,11.6 c-0.7000000000000006,11.1 1.3,22.6 5.7,33.7 c0.2,0.6000000000000006 0.5,1.3 1,1.8 c0.8,0.8 2.1,1.1 3.3,1.3 c7.9,1.6 15.8,2.9 23.8,4.1 c0.4,0.1 0.9,0.1 1.2,0.4 c1,0.8 -0.2,1.9 -1.4,2.2 c-6.8,2 -15,1.3 -22.2,-1.9 c1.4,3.6 5,6.3 8.4,8.9 c2.3,1.7000000000000002 4.7,3.5 7.4,4.6 c0.2,0.1 0.5,0.2 0.7000000000000006,0.3000000000000003 c4.1,7.3 8.6,14.4 13.7,21.1 c-8.8,-6.6 -18,-12.6 -27.6,-17.9 c6.3,9.1 15.5,15.9 25,21.5 c-11.7,-5 -23.8,-9.3 -36.1,-12.8 c10,8.5 22.6,13.1 34.9,17.5 c-12.9,-3.7 -25.8,-7.4 -38.9,-10.2 c11.9,6.7 25.3,10.4 38.4,14 c-3.8,0.4 -7.7,-0.3000000000000003 -11.5,-1 c-9.5,-1.7000000000000002 -19,-3.5 -28.5,-5.2 c3.1,2.2 6.8,3.4 10.4,4.4 c10.2,2.9 20.7,4.9 31.1,7 c-11.8,1.9 -23.8,1.1 -35.7,0.2 c11.7,5.4 25.1,5.1 37.8,7.5 c-4.4,0.9 -8.7,1.7000000000000002 -13.1,2.6 c-5,1 -10,2 -15.1,1.6 c9.9,3.1 20.6,0.2 31.1,-0.3000000000000003 c-4.8,2.2 -9.8,3.9 -15,4.8 c-3.2,0.6000000000000006 -6.7,1.1 -9,3.4 c5.9,-0.4 11.8,-1.4 17.6,-2.9 c2.7,-0.7000000000000006 6.2,-1.3 8.6,-2.6 c1.9,-1.1 3.1,-3.2 5.3,-4.2 c1.9,-0.9 4,-1.4 5.7,-2.6 c1.7000000000000002,-1.1 2.9,-2.8 3.6,-4.6 l338.5,5.7 l8.8,-14.3 c2.6,-0.3000000000000003 5.4,0.1 7.8,0.9 c4.8,1.6 9.4,4.5 14.4,4.7 c6.3,0.2 12.3,-4.1 14.9,-9.9 c-4.5,-0.7000000000000006 -8.4,-3.4 -12.7,-4.8 c-5.7,-1.8 -12.1,-1.1 -17.3,1.9 C354.7947772741318,348.1105209112167 363.19477727413175,347.9105209112168 369.8947772741318,345.1105209112167 zM71.59477727413179,218.11052091121672 c-0.1,-0.3000000000000003 -0.3000000000000003,-0.5 -0.4,-0.8 c0.9,0.4 1.8,0.8 2.8,1.1 C73.19477727413175,218.31052091121674 72.3947772741318,218.21052091121675 71.59477727413179,218.11052091121672 zM80.89477727413177,234.81052091121674 c0.1,0.5 0.2,1 0.4,1.5 c-0.3000000000000003,-0.6000000000000006 -0.6000000000000006,-1.1 -0.9,-1.7000000000000002 C80.49477727413176,234.71052091121675 80.69477727413175,234.71052091121675 80.89477727413177,234.81052091121674 zM135.19477727413175,195.91052091121674 c-1.2,-0.4 -2.4,-0.9 -3.6,-1.3 c0.1,-0.2 0.2,-0.4 0.3000000000000003,-0.6000000000000006 C132.99477727413176,194.61052091121672 134.0947772741318,195.21052091121675 135.19477727413175,195.91052091121674 zM130.5947772741318,194.21052091121675 c-4,-1.3 -8.1,-2.5 -12.3,-3.5 c0.4,-1.4 0.7000000000000006,-2.7 1.1,-4.1 c3.9,2.3 7.7,4.5 11.6,6.8 C130.89477727413177,193.71052091121675 130.79477727413177,194.01052091121673 130.5947772741318,194.21052091121675 zM126.59477727413179,200.71052091121675 c-0.7000000000000006,1.2 -1.4,2.3 -2.1,3.5 c-3.2,-0.4 -6.3,-0.8 -9.5,-1.2 c0.6000000000000006,-2.3 1.3,-4.6 1.9,-6.9 C120.09477727413179,197.71052091121675 123.29477727413177,199.31052091121674 126.59477727413179,200.71052091121675 zM153.19477727413175,220.21052091121675 c-3.1,0.2 -6.2,0.3000000000000003 -9.3,0.3000000000000003 c0.3000000000000003,-0.7000000000000006 0.6000000000000006,-1.4 0.8,-2.1 C147.49477727413176,219.11052091121672 150.29477727413177,219.71052091121675 153.19477727413175,220.21052091121675 zM158.89477727413177,230.01052091121673 c-0.4,0.4 -0.9,0.8 -1.3,1.2 c-6.2,0.3000000000000003 -12.4,0.8 -18.5,1.5 c0.7000000000000006,-1.9 1.5,-3.8 2.2,-5.6 C147.0947772741318,228.31052091121674 152.99477727413176,229.31052091121674 158.89477727413177,230.01052091121673 zM168.49477727413176,230.91052091121674 c-1.2,0 -2.5,0 -3.7,0.1 c0.1,-0.1 0.1,-0.2 0.2,-0.3000000000000003 C166.0947772741318,230.71052091121675 167.29477727413177,230.81052091121674 168.49477727413176,230.91052091121674 zM168.79477727413177,242.01052091121673 c-0.1,0 -0.1,0 -0.2,0 c0,0 0,0 0,0 C168.69477727413175,242.01052091121673 168.69477727413175,242.01052091121673 168.79477727413177,242.01052091121673 zM166.29477727413177,242.41052091121674 c-3.2,0.4 -6.3,0.9 -9.5,1.3 c0.3000000000000003,-0.5 0.7000000000000006,-1 1,-1.6 c2.9,0.1 5.8,0.1 8.7,0 C166.3947772741318,242.21052091121675 166.29477727413177,242.31052091121674 166.29477727413177,242.41052091121674 zM186.5947772741318,256.21052091121675 c-0.2,0.1 -0.5,0.3000000000000003 -0.7000000000000006,0.4 c0,-0.1 0.1,-0.2 0.1,-0.3000000000000003 C186.19477727413175,256.21052091121675 186.3947772741318,256.21052091121675 186.5947772741318,256.21052091121675 zM173.99477727413176,262.3105209112167 c-5.8,2.4 -11.7,4.4 -17.8,5.9 c1.1,-2.8 2.2,-5.5 3.4,-8.3 c6.4,-0.7000000000000006 12.7,-1.4 19,-2.4 C176.99477727413176,259.01052091121676 175.49477727413176,260.6105209112167 173.99477727413176,262.3105209112167 zM118.29477727413177,246.51052091121673 c0.3000000000000003,0.9 0.6000000000000006,1.7000000000000002 0.9,2.6 c-0.4,0.1 -0.7000000000000006,0.1 -1.1,0.2 C118.19477727413175,248.31052091121674 118.29477727413177,247.41052091121674 118.29477727413177,246.51052091121673 zM118.19477727413175,249.51052091121673 c0.4,0 0.8,0 1.3,0 c0.1,0.3000000000000003 0.2,0.7000000000000006 0.4,1 c-0.6000000000000006,0.9 -1.2,1.8 -1.8,2.7 C117.99477727413176,251.91052091121674 118.09477727413179,250.71052091121675 118.19477727413175,249.51052091121673 zM132.49477727413176,249.41052091121674 c2.1,0 4.2,0 6.4,0 c-2.6,2.9 -5.2,5.8 -7.7,8.8 c-0.4,-0.8 -0.8,-1.6 -1.2,-2.3 C130.79477727413177,253.71052091121675 131.5947772741318,251.61052091121672 132.49477727413176,249.41052091121674 zM133.3947772741318,247.01052091121673 c0.9,-2.4 1.9,-4.8 2.8,-7.2 c3.4,0.6000000000000006 6.9,1.2 10.3,1.5 c-1.5,1.4 -2.9,2.9 -4.4,4.4 C139.29477727413177,246.21052091121675 136.3947772741318,246.61052091121672 133.3947772741318,247.01052091121673 zM86.3947772741318,254.11052091121672 c-0.2,0.1 -0.4,0.3000000000000003 -0.6000000000000006,0.4 c-3.2,-0.2 -6.4,-0.3000000000000003 -9.6,-0.5 c1.2,-0.4 2.3,-0.7000000000000006 3.5,-1.1 C81.99477727413176,253.31052091121674 84.19477727413175,253.81052091121674 86.3947772741318,254.11052091121672 zM68.89477727413177,253.01052091121673 l-3.8,-1.2 c0.8,-0.6000000000000006 1.7000000000000002,-1.1 2.5,-1.7000000000000002 c1.1,0.3000000000000003 2.2,0.6000000000000006 3.3,0.8 C70.29477727413177,251.61052091121672 69.59477727413179,252.31052091121674 68.89477727413177,253.01052091121673 zM59.294777274131775,247.81052091121674 c-0.4,0.6000000000000006 -0.9,1.2 -1.3,1.8 l-10.5,-3.3 c1.2,-0.4 2.3,-0.8 3.5,-1.2 C53.69477727413175,246.01052091121673 56.49477727413176,246.91052091121674 59.294777274131775,247.81052091121674 zM46.594777274131786,243.41052091121674 c-0.9,0.6000000000000006 -1.8,1.1 -2.7,1.7000000000000002 l-15.6,-4.9 c1.8,-0.8 3.6,-1.5 5.5,-2.1 C37.99477727413177,239.91052091121674 42.19477727413175,241.71052091121675 46.594777274131786,243.41052091121674 zM137.3947772741318,274.71052091121675 c0.8,-1.2 1.6,-2.5 2.3,-3.7 c1.1,-0.1 2.1,-0.2 3.1,-0.4 c-1.3,1.5 -2.5,3.1 -3.8,4.6 L137.3947772741318,274.71052091121675 zM212.0947772741318,266.21052091121675 c0,-0.1 0,-0.2 0,-0.3000000000000003 c0,0 0,0 0.1,0 C212.19477727413175,266.01052091121676 212.19477727413175,266.1105209112167 212.0947772741318,266.21052091121675 zM153.79477727413177,279.9105209112168 c2.5,-0.7000000000000006 5,-1.3 7.5,-2 c-0.8,1.2 -1.7000000000000002,2.4 -2.5,3.6 L153.79477727413177,279.9105209112168 zM153.19477727413175,279.71052091121675 l-0.9,-0.3000000000000003 c1.1,-3.6 2.3,-7.2 3.7,-10.8 c4.7,-0.6000000000000006 9.4,-1.3 14.1,-1.9 c-2.5,2.9 -4.9,5.9 -7.1,9 C159.69477727413175,277.1105209112167 156.3947772741318,278.4105209112168 153.19477727413175,279.71052091121675 zM142.99477727413176,270.51052091121676 c-1.1,0.1 -2.2,0.3000000000000003 -3.2,0.4 c2.1,-3.3 4.1,-6.6 6.2,-9.9 c1.7000000000000002,-0.1 3.5,-0.2 5.2,-0.4 C148.3947772741318,263.9105209112168 145.69477727413175,267.21052091121675 142.99477727413176,270.51052091121676 zM147.49477727413176,258.6105209112167 c1.9,-3.1 3.8,-6.1 5.8,-9.2 c2.4,0 4.8,0 7.2,0 c-2.3,2.7 -4.5,5.5 -6.8,8.2 C151.5947772741318,257.9105209112168 149.49477727413176,258.3105209112167 147.49477727413176,258.6105209112167 zM130.79477727413177,233.81052091121674 c-3.7,0.5 -7.4,1.2 -11.1,1.9 c2.7,0.9 5.5,1.7000000000000002 8.3,2.4 c-1.6,2.5 -3.3,5.1 -5,7.6 c-1.4,-1.9 -2.8,-3.8 -4.1,-5.6 c0.7000000000000006,-6.1 1.8,-12.2 3.3,-18.3 c4.5,1.5 9,2.9 13.6,4 C134.19477727413175,228.41052091121674 132.49477727413176,231.11052091121672 130.79477727413177,233.81052091121674 zM106.69477727413175,233.21052091121675 c2.3,-8.6 4.7,-17.1 7,-25.7 c2.3,1.1 4.5,2.1 6.8,3.1 C115.99477727413176,218.11052091121672 111.29477727413177,225.61052091121672 106.69477727413175,233.21052091121675 zM89.69477727413175,237.81052091121674 c-0.6000000000000006,-0.1 -1.2,-0.2 -1.8,-0.3000000000000003 c-0.1,-0.2 -0.2,-0.4 -0.3000000000000003,-0.6000000000000006 c0.7000000000000006,0.2 1.4,0.4 2,0.6000000000000006 C89.59477727413179,237.51052091121673 89.69477727413175,237.61052091121672 89.69477727413175,237.81052091121674 zM72.69477727413175,232.81052091121674 c-0.1,-0.3000000000000003 -0.3000000000000003,-0.6000000000000006 -0.4,-0.9 c0.1,0 0.2,0.1 0.4,0.1 C72.69477727413175,232.31052091121674 72.69477727413175,232.51052091121673 72.69477727413175,232.81052091121674 zM39.69477727413175,231.91052091121674 c-2.9,-0.2 -5.8,-0.3000000000000003 -8.7,-0.4 c4.6,-1 9.2,-2 13.8,-3 C43.094777274131786,229.71052091121675 41.3947772741318,230.81052091121674 39.69477727413175,231.91052091121674 zM23.89477727413177,233.11052091121672 c2.6,1.4 5.3,2.7 8,4 c-1.4,0.9 -2.9,1.9 -4.3,2.8 l-1.6,-0.5 c-0.9,-2.2 -2,-4.2 -3.3,-6.1 C23.094777274131786,233.31052091121674 23.494777274131764,233.21052091121675 23.89477727413177,233.11052091121672 zM-17.40522272586821,327.1105209112167 c0.6000000000000006,2.7 -2.4,4.5 -5.4,5.1 c-0.8,-1 -1.6,-2 -2.5,-3 C-22.505222725868236,328.6105209112167 -19.9052227258682,327.8105209112167 -17.40522272586821,327.1105209112167 zM300.19477727413175,198.41052091121674 c0.6000000000000006,1.3 1,2.7 1.2,4.2 c0.1,0.6000000000000006 0.1,1.4 -0.3000000000000003,1.9 c-1.1,1.5 -3.4,0.4 -4.7,-0.8 c-0.3000000000000003,-0.2 -0.5,-0.5 -0.8,-0.7000000000000006 C297.19477727413175,201.61052091121672 298.7947772741318,200.01052091121673 300.19477727413175,198.41052091121674 zM352.7947772741318,275.01052091121676 c-0.6000000000000006,0 -1.2,-0.1 -1.7000000000000002,-0.1 c-0.1,-0.9 -0.1,-1.9 -0.2,-2.8 c0.7000000000000006,0.6000000000000006 1.4,1.3 1.9,2.1 C352.7947772741318,274.4105209112168 352.7947772741318,274.71052091121675 352.7947772741318,275.01052091121676 zM346.8947772741318,282.8105209112167 c-0.6000000000000006,-1.7000000000000002 -1.2,-3.4 -1.7000000000000002,-5.1 c0.2,0.1 0.4,0.1 0.6000000000000006,0.2 c0.6000000000000006,0.2 1.2,0.4 1.9,0.6000000000000006 c0.1,1.5 0.1,3 0.2,4.5 C347.4947772741318,282.9105209112168 347.19477727413175,282.8105209112167 346.8947772741318,282.8105209112167 zM342.3947772741318,266.8105209112167 c1.6,1 3.3,1.9 5,2.8 c0,1.5 0.1,2.9 0.1,4.4 c-1.3,-0.5 -2.6,-1.1 -3.8,-1.8 C343.19477727413175,270.4105209112168 342.7947772741318,268.6105209112167 342.3947772741318,266.8105209112167 zM352.4947772741318,282.01052091121676 c0,0.1 0,0.2 0,0.3000000000000003 c-0.1,-0.3000000000000003 -0.2,-0.6000000000000006 -0.3000000000000003,-0.9 C352.2947772741318,281.71052091121675 352.3947772741318,281.8105209112167 352.4947772741318,282.01052091121676 zM338.2947772741318,273.51052091121676 c0.2,0.4 0.5,0.7000000000000006 0.8,1.1 c0.1,0.1 0.3000000000000003,0.2 0.4,0.4 c0.2,1.8 0.4,3.6 0.6000000000000006,5.4 c-0.5,-0.2 -1.1,-0.5 -1.6,-0.7000000000000006 c-0.5,-0.3000000000000003 -1.1,-0.5 -1.6,-0.5 c-0.1,0 -0.3000000000000003,0.1 -0.4,0.1 c-0.2,-0.5 -0.4,-0.9 -0.6000000000000006,-1.4 L338.2947772741318,273.51052091121676 zM357.0947772741318,242.61052091121672 c-0.1,0.2 -0.1,0.4 -0.2,0.7000000000000006 c-0.3000000000000003,-0.1 -0.6000000000000006,-0.1 -0.9,-0.2 l0.7000000000000006,-1.2 C356.8947772741318,242.11052091121672 356.9947772741318,242.31052091121674 357.0947772741318,242.61052091121672 zM356.69477727413175,197.61052091121672 c-0.4,0 -0.8,0 -1.2,0 c0.1,-2.7 0.2,-5.3 0.3000000000000003,-8 c0.9,-0.2 1.8,-0.3000000000000003 2.7,-0.5 C357.69477727413175,191.91052091121674 357.19477727413175,194.81052091121674 356.69477727413175,197.61052091121672 zM351.7947772741318,197.31052091121674 c-0.9,-0.1 -1.7000000000000002,-0.2 -2.6,-0.4 c-0.1,-2 -0.2,-4 -0.3000000000000003,-6 c1.2,-0.2 2.3,-0.4 3.5,-0.6000000000000006 C352.0947772741318,192.61052091121672 351.8947772741318,194.91052091121674 351.7947772741318,197.31052091121674 zM339.2947772741318,218.81052091121674 c-0.5,-1.1 -1,-2.2 -1.5,-3.3 c0.4,0.1 0.9,0.2 1.3,0.3000000000000003 C339.19477727413175,216.81052091121674 339.19477727413175,217.81052091121674 339.2947772741318,218.81052091121674 zM335.4947772741318,220.51052091121673 c-0.4,-0.1 -0.8,-0.2 -1.2,-0.3000000000000003 c-1.5,-2.2 -2.9,-4.4 -4.2,-6.7 c1.1,0.3000000000000003 2.2,0.7000000000000006 3.3,1 C334.0947772741318,216.41052091121674 334.8947772741318,218.51052091121673 335.4947772741318,220.51052091121673 zM329.19477727413175,217.01052091121673 c-0.9,-0.9 -1.4,-2 -1.6,-3.2 C328.0947772741318,214.91052091121674 328.69477727413175,216.01052091121673 329.19477727413175,217.01052091121673 zM333.7947772741318,281.3105209112167 c0.3000000000000003,0.8 0.5,1.6 0.8,2.3 c-0.1,1.7000000000000002 -0.1,3.4 0.1,5 c-1,-1.4 -1.9,-2.9 -2.7,-4.4 L333.7947772741318,281.3105209112167 zM367.59477727413173,278.21052091121675 c1.1,-0.3000000000000003 2.2,-0.6000000000000006 3.3,-0.9 c-0.7000000000000006,0.7000000000000006 -1.4,1.5 -2,2.2 C368.3947772741318,279.21052091121675 367.8947772741318,278.8105209112167 367.59477727413173,278.21052091121675 zM365.59477727413173,196.81052091121674 c-1.2,0.2 -2.4,0.4 -3.7,0.6000000000000006 c0.4,-3 0.7000000000000006,-6.1 1,-9.1 c3,-0.6000000000000006 6,-1.2 9,-1.9 C369.3947772741318,189.61052091121672 367.3947772741318,193.11052091121672 365.59477727413173,196.81052091121674 zM342.8947772741318,192.31052091121674 c0.4,-0.4 1.1,-0.6000000000000006 1.7000000000000002,-0.7000000000000006 c0.4,-0.1 0.8,-0.1 1.2,-0.2 c0,1.5 0,3.1 0,4.6 c-0.2,-0.1 -0.4,-0.1 -0.6000000000000006,-0.2 C343.59477727413173,195.31052091121674 341.69477727413175,193.61052091121672 342.8947772741318,192.31052091121674 zM309.19477727413175,194.11052091121672 c-1.5,-1 -2.9,-2.1 -4.3,-3.3 c1,-2.1 1.7000000000000002,-4.2 2.2,-6.4 C308.4947772741318,187.51052091121673 309.3947772741318,190.71052091121675 309.19477727413175,194.11052091121672 zM270.69477727413175,213.01052091121673 c0.8,0.9 1.6,1.7000000000000002 2.4,2.6 c-3.2,0.4 -6.3,1.4 -9.2,2.9 c-0.1,-0.1 -0.2,-0.3000000000000003 -0.3000000000000003,-0.4 C265.49477727413176,215.81052091121674 267.99477727413176,214.21052091121675 270.69477727413175,213.01052091121673 zM252.0947772741318,228.61052091121672 c-0.4,4.7 0.4,9.5 2,13.8 c0.5,1.3 1.1,2.6 1.7000000000000002,4.1 c-1.5,0.3000000000000003 -2.9,0.7000000000000006 -4.3,1.3 c-2.8,1.2 -5.2,2.9 -7.3,5.1 c1.7000000000000002,-6.1 3.3,-12.1 5,-18.2 c-1.2,1.9 -2.4,3.8 -3.5,5.7 c-0.3000000000000003,-2.2 -0.8,-4.4 -1.2,-6.5 c0.3000000000000003,-0.4 0.5,-0.8 0.8,-1.1 C247.0947772741318,230.41052091121674 249.49477727413176,229.21052091121675 252.0947772741318,228.61052091121672 zM218.19477727413175,248.61052091121672 c-1.5,-1.3 -3.1,-2.4 -4.9,-3.4 c0.6000000000000006,-3.8 1.3,-7.6 2.2,-11.4 c0.3000000000000003,0.9 0.6000000000000006,1.8 1,2.6 c1.1,2.4 2.6,4.8 4,7.2 C219.69477727413175,245.31052091121674 218.8947772741318,246.91052091121674 218.19477727413175,248.61052091121672 zM214.29477727413177,217.51052091121673 c-0.7000000000000006,3.8 -0.7000000000000006,7.8 0,11.6 c-2.4,4.5 -4.9,9 -7.3,13.5 c-0.7000000000000006,-0.2 -1.3,-0.5 -2,-0.7000000000000006 C208.0947772741318,233.81052091121674 211.19477727413175,225.61052091121672 214.29477727413177,217.51052091121673 zM205.5947772741318,269.01052091121676 c-9.5,3.5 -19,7.2 -28.4,11.1 c0.8,-2.1 1.6,-4.3 2.4,-6.4 C188.19477727413175,271.9105209112168 196.8947772741318,270.3105209112167 205.5947772741318,269.01052091121676 zM181.5947772741318,268.1105209112167 c0.4,-1 0.8,-2.1 1.1,-3.1 c3.2,-0.4 6.4,-0.9 9.6,-1.3 C188.79477727413177,265.1105209112167 185.19477727413175,266.6105209112167 181.5947772741318,268.1105209112167 zM179.49477727413176,249.31052091121674 c-1.9,4 -7,5.2 -11.3,6 c-2.3,0.4 -4.7,0.8 -7,1.1 c1.1,-2.4 2.3,-4.7 3.5,-7 C169.5947772741318,249.31052091121674 174.49477727413176,249.31052091121674 179.49477727413176,249.31052091121674 zM140.89477727413177,217.51052091121673 c-0.6000000000000006,1 -1.3,2.1 -1.9,3.1 c-5.5,0 -10.9,-0.2 -16.3,-0.5 c0.7000000000000006,-2.6 1.4,-5.2 2.2,-7.8 C130.0947772741318,214.31052091121674 135.3947772741318,216.01052091121673 140.89477727413177,217.51052091121673 zM127.49477727413176,204.61052091121672 c0.4,-1 0.8,-2 1.1,-3 c3.5,1.5 7,3 10.6,4.4 C135.29477727413177,205.61052091121672 131.3947772741318,205.11052091121672 127.49477727413176,204.61052091121672 zM130.79477727413177,185.91052091121674 c-3.2,-1.7000000000000002 -6.5,-3.2 -9.9,-4.4 c0.2,-0.8 0.4,-1.6 0.7000000000000006,-2.4 C124.3947772741318,181.61052091121672 127.49477727413176,183.91052091121674 130.79477727413177,185.91052091121674 zM106.29477727413177,156.41052091121674 c2.5,6.8 6.3,13 11.1,18.4 c-1.2,1.5 -2.3,3 -3.5,4.6 c-3.3,-0.8 -6.7,-1.4 -10.2,-1.8 c2.7,1.6 5.3,3.1 8,4.7 c-1.6,2.1 -3.3,4.3 -4.9,6.4 c-1.8,-0.3000000000000003 -3.6,-0.5 -5.4,-0.7000000000000006 c1.4,0.8 2.8,1.6 4.2,2.3 c-5.4,7 -10.7,14 -16.1,21.1 C98.99477727413176,194.41052091121674 104.79477727413177,175.61052091121672 106.29477727413177,156.41052091121674 zM69.29477727413177,216.51052091121673 c0.1,0.4 0.3000000000000003,0.8 0.4,1.3 c-1.7000000000000002,-0.3000000000000003 -3.4,-0.5 -5.2,-0.8 c-0.6000000000000006,-1.1 -1.2,-2.2 -1.9,-3.3 C64.79477727413177,214.61052091121672 66.99477727413176,215.61052091121672 69.29477727413177,216.51052091121673 zM59.19477727413175,212.01052091121673 c0.7000000000000006,1.5 1.5,3 2.2,4.4 c-2,-0.4 -4.1,-0.7000000000000006 -6.1,-1.1 c-1.8,-2.7 -3.6,-5.3 -5.4,-8 C52.8947772741318,209.01052091121673 55.99477727413176,210.51052091121673 59.19477727413175,212.01052091121673 zM38.094777274131786,200.61052091121672 c2.1,1.3 4.2,2.5 6.3,3.7 c1.7000000000000002,3.3 3.4,6.6 5.2,9.8 c-0.4,-0.1 -0.8,-0.2 -1.1,-0.2 C45.294777274131775,209.51052091121673 41.794777274131775,205.01052091121673 38.094777274131786,200.61052091121672 zM42.99477727413176,219.61052091121672 c0.5,0.8 1.1,1.6 1.6,2.5 c-0.7000000000000006,-0.9 -1.4,-1.8 -2.1,-2.7 C42.69477727413175,219.41052091121674 42.8947772741318,219.51052091121673 42.99477727413176,219.61052091121672 zM28.594777274131786,219.41052091121674 c-3.2,3 -6.5,5.9 -9.7,8.9 c-1.2,-1.3 -2.4,-2.5 -3.7,-3.7 C20.19477727413178,223.41052091121674 24.69477727413178,221.71052091121675 28.594777274131786,219.41052091121674 zM12.39477727413177,211.41052091121674 c-2.1,2.1 -4.2,4.2 -6.3,6.3 c-3,-1.9 -6.2,-3.5 -9.4,-4.9 C2.2947772741317745,213.01052091121673 7.594777274131786,212.51052091121673 12.39477727413177,211.41052091121674 zM0.1947772741317804,199.71052091121675 c0.5,0.5 1,1 1.6,1.4 c-0.5,-0.4 -1,-0.7000000000000006 -1.6,-1.1 C0.1947772741317804,199.91052091121674 0.1947772741317804,199.81052091121674 0.1947772741317804,199.71052091121675 zM-25.705222725868225,275.6105209112167 c-0.4,-0.2 -0.8,-0.4 -1.2,-0.6000000000000006 C-26.505222725868236,275.21052091121675 -26.10522272586823,275.4105209112168 -25.705222725868225,275.6105209112167 zM-26.705222725868225,329.3105209112167 c0.3000000000000003,1.1 0.7000000000000006,2.2 1.1,3.3 c-1.4,0.2 -2.7,0.4 -3.9,0.9 c-1.6,-1.5 -3.3,-3 -5.1,-4.4 C-32.00522272586824,329.71052091121675 -29.30522272586822,329.6105209112167 -26.705222725868225,329.3105209112167 zM330.59477727413173,286.8105209112167 c0.1,0.2 0.2,0.5 0.4,0.7000000000000006 c1.1,2 2.2,4.6 3.6,6.6 l-5.8,-4.2 L330.59477727413173,286.8105209112167 z" id="svg_218"/>
</g></g></svg>