<?xml version="1.0" encoding="utf-8"?>
<!-- Generator: Adobe Illustrator 22.0.1, SVG Export Plug-In . SVG Version: 6.00 Build 0)  -->
<!DOCTYPE svg PUBLIC "-//W3C//DTD SVG 1.1//EN" "http://www.w3.org/Graphics/SVG/1.1/DTD/svg11.dtd">
<svg version="1.1" id="Layer_1" xmlns="http://www.w3.org/2000/svg" xmlns:xlink="http://www.w3.org/1999/xlink" x="0px" y="0px"
	 viewBox="0 0 390 186" style="enable-background:new 0 0 390 186;" xml:space="preserve">
<style type="text/css">
	.st0{fill:#00C1DE;}
	.st1{fill:#FFFFFF;}
	.st2{fill:#FF595A;}
</style>
<g id="Logo_1_">
	<path class="st0" d="M307.5,66.8l-21.2-8.3l-5.1,1.8l-5.1,4.1l-34.9-8.2l-19.8,0.5l-42.9,4.5l-31.8,6.9l-1.9,1.1l-0.4-0.4l-2.3,2
		l-12.2,7l-16.2,5.7l0,6.5l-41.5,15.9L55.7,89.2c-27.7,23.3-34.1,60.1-34.1,60.1s-2.1,12.6-0.4,17.9c0,0,7.6-22.9,22.5-29.1
		c0,0-0.2,21.1,5.2,35.9c0,0,14.8-52.7,71-75.4c0,0,8.6-3.9,6.4-10.2c0,0,2.2-0.9,5.1-2.4l31.6,42.2l98.9-17.8l1.8-41l22.2,10.3
		l2.6-5.3c0,0,7.8,5.2,9.2,0.5l1.1-4.6c0,0,7.9,2.4,13.8,1.6C312.8,71.8,307.9,69.2,307.5,66.8z"/>
	<path class="st1" d="M278,54.5l0.3-0.6l-0.1,0.7l0,0.2l-0.4,3.7l-1.7-0.8l1.7-3L278,54.5z M239.2,49.7l3.1,0.2l-0.5-6.1L239.2,49.7
		z M236.5,56l-0.4,1l7.1,2.3l-0.4-3L236.5,56z M220,58.2l3.2,1.3l0.2-3.8l0.9-9l-3.4,9.1L220,58.2z M211.9,47l-0.9,9.7l-0.2,2.1
		l3.8,1.6l-0.9-3.9L211.9,47z M168.8,49.5c-0.2-0.9-0.4-1.5-0.8-2c-0.3-0.5-0.8-0.9-1.4-1.1c-0.6-0.2-1.5-0.3-2.5-0.3
		c-0.3,0-0.5,0-0.8,0.1c-0.3,0-0.6,0.1-0.9,0.1c-0.3,0-0.7,0.1-1,0.2c-0.4,0.1-0.7,0.1-1.1,0.2l-2.7,0.5l1.5,15.8l3-0.7
		c1.8-0.5,3.2-0.9,4.3-1.5c1-0.5,1.7-1.1,2.2-1.9c0.4-0.7,0.7-1.5,0.8-2.6c0.1-0.9,0.1-2.1-0.1-3.7C169.1,51.1,169,50.2,168.8,49.5z
		 M132.7,58.6c-0.4-0.9-0.9-1.6-1.4-2.2c-0.6-0.6-1.3-1.1-2.1-1.3c-0.7-0.2-1.5-0.4-2.4-0.4c-0.2,0-0.4,0-0.6,0
		c-0.3,0-0.5,0-0.8,0.1c-0.3,0-0.6,0.1-0.9,0.1c-0.3,0.1-0.6,0.1-0.9,0.2c-0.3,0.1-0.6,0.2-1,0.3c-1.9,0.5-3.4,1.2-4.6,2.1
		c-1.1,0.8-1.9,1.7-2.5,2.7c-0.5,1-0.8,2.1-0.8,3.3c0,1.1,0.1,2.4,0.5,3.8c0.3,1.2,0.6,2.2,1.1,3c0.5,0.9,1,1.6,1.6,2.2
		c0.7,0.6,1.4,1,2.2,1.2c0.9,0.3,2,0.3,3.1,0.2c0.3,0,0.5-0.1,0.8-0.1c0.3,0,0.6-0.1,0.8-0.2c0.3-0.1,0.6-0.1,0.9-0.2
		c0.3-0.1,0.6-0.2,0.9-0.3l0,0c1.8-0.6,3.2-1.3,4.3-2.2c1-0.8,1.8-1.6,2.3-2.6c0.5-0.9,0.7-2,0.7-3.1c0-1.1-0.1-2.3-0.4-3.6
		C133.3,60.4,133,59.5,132.7,58.6z M338.8,52.5c-0.7,1.4-6.2,8.2-32.6,8.2c-4.2,0-12.6-2.3-16.4-2.9c-0.1,0.5-0.1,0.9-0.2,1.4
		c-0.2,1.9-0.1,4.3-2.3,4.9c-1.5,0.4-3.2-0.1-4.6-0.5c-0.6-0.2-1.2-0.4-1.8-0.6l0.8-7l0-0.2l1-9c0-0.1-0.1-0.3-0.2-0.4l-2.8-1.6
		c-0.2-0.1-0.4,0-0.5,0.1l-0.1,0.1l-6-1l0.5-1.7c0-0.2,0-0.4-0.2-0.4l-3-1.2l-0.1-0.1c-0.1,0-0.2,0-0.3,0c-0.1,0-0.2,0.1-0.2,0.2
		l0,0l-2.7,9.7l-2.1,7.8l-1,3.6c-0.1,0.2,0.1,0.4,0.3,0.4l3.3,0.9c0,0,0.1,0,0.1,0c0.1,0,0.1,0,0.2,0c0.1,0,0.1-0.1,0.2-0.2l1-3.7
		l2-7.2l0.7-2.6l1.5-5.5l6,1l-4.7,7.9l-0.2,0.4l-3.8,6.4l-1.8,3.1c-0.1,0.1-0.1,0.2,0,0.3c0,0.1,0.1,0.2,0.2,0.2l2.9,1.3
		c0.2,0.1,0.4,0,0.5-0.2l1.2-2.1l3.7,1.7l-0.3,2.4c0,0.2,0.1,0.3,0.2,0.4l2.8,1.2l-30.2-8.4l3.1,0.5c0.2,0,0.4-0.1,0.4-0.3l0.8-3.4
		l1.9-8.2l1.7,8.6l0.7,3.8c0,0.1,0.1,0.3,0.3,0.3l3.3,0.5c0,0,0,0,0.1,0c0.2,0,0.3-0.1,0.4-0.3l0.8-3.4l1.9-8.3l1.6-6.9l0.5-2.3
		l0.2-0.8c0-0.2-0.1-0.4-0.3-0.4l-3.4-0.9c-0.1,0-0.2,0-0.3,0c-0.1,0.1-0.1,0.1-0.2,0.2l0,0l-2.3,10l-2-10.7l-0.1-0.8
		c0-0.1-0.1-0.2-0.3-0.3l-4.1-1.1c-0.1,0-0.2,0-0.3,0c-0.1,0.1-0.1,0.1-0.2,0.2l0,0l-4.6,20.1l-0.7,3c0,0.1,0.1,0.3,0.1,0.3
		l-0.8-0.5l-0.2-3l-1.7-21.2l6.6,1l-6.6-1l0-0.4c0-0.2-0.1-0.3-0.3-0.3l-4.6-0.6c-0.2,0-0.3,0.1-0.4,0.2l0,0l-9.7,21.7
		c0,0-1.3,3.4-1.3,3.5l-1.1-0.6l0.3-2.8l2.4-22.6c0-0.1,0-0.2-0.1-0.3c-0.1-0.1-0.2-0.1-0.3-0.1l-6.9-0.1c-0.2,0-0.3,0.1-0.3,0.2
		l-5.6,15l-2.8-15.1c0-0.2-0.2-0.3-0.3-0.3l-7.9-0.1c-0.2,0-0.3,0.1-0.4,0.3l-2.2,25l-0.2,3.8l-3.1-1.4l0-1.9l0.1-3
		c0-0.1,0-0.2-0.1-0.3c-0.1-0.1-0.2-0.1-0.3-0.1l-12,2l0-3.4l11.8-1.8c0.2,0,0.3-0.2,0.3-0.3l0.1-7c0-0.1,0-0.2-0.1-0.3
		c-0.1-0.1-0.2-0.1-0.3-0.1l-11.7,1.4l0-3l12.2-1.4c0.2,0,0.3-0.2,0.3-0.4l0.2-7.4c0-0.1,0-0.2-0.1-0.3c-0.1-0.1-0.2-0.1-0.3-0.1
		l-19.9,1.7c-0.2,0-0.3,0.2-0.3,0.4v26.6l0.2,4.5l-4.5-2.3l-1.4-0.6c0.1-0.2,0.2-0.4,0.3-0.6c0.6-1.1,1-2.3,1.3-3.6
		c0.5-2.2,0.6-4.7,0.4-7.8c-0.2-2.6-0.5-4.7-1.1-6.4c-0.5-1.8-1.3-3.2-2.3-4.3c-1-1.1-2.2-1.9-3.6-2.4c-1.4-0.5-3.1-0.7-5.1-0.7
		c-0.5,0-1,0-1.5,0.1c-0.5,0-1,0.1-1.6,0.1c-0.5,0.1-1.1,0.1-1.7,0.2c-0.6,0.1-1.2,0.2-1.8,0.3l-12.1,2c-0.2,0-0.3,0.2-0.3,0.4
		l3.1,29.3l0.6,4.5l-4.7-3.2l-0.1,0c-1.1,0.4-2.5,0.9-3.2,1.1c0.4-0.8,0.7-1.6,1-2.5l0,0l0,0c0.2-0.7,0.4-1.5,0.6-2.3
		c0.4-2.6,0.3-5.4-0.3-8.6c-0.5-2.5-1.3-4.6-2.2-6.5c-0.9-1.8-2.1-3.2-3.5-4.4c-1.4-1.1-2.9-1.9-4.7-2.4c-1.7-0.5-3.6-0.7-5.7-0.6
		c-0.6,0-1.2,0.1-1.8,0.1c-0.6,0.1-1.2,0.1-1.9,0.2c-0.6,0.1-1.3,0.2-1.9,0.4c-0.7,0.1-1.3,0.3-2,0.5c-3.2,0.8-6,1.9-8.4,3.3
		c-2.6,1.5-4.7,3.2-6.2,5.2c-0.8,1.1-1.5,2.3-2,3.5c-0.5,1.2-0.9,2.5-1.1,3.9c-0.9,6.6,3.7,16.3,3.8,16.4c1.2,1.8,2.6,3.2,4.3,4.2
		c0.4,0.3,0.9,0.5,1.4,0.7c1.2,0.6,2.5,0.9,3.9,1.2c0.1,0,0.3,0,0.4,0c0,0,0.1,0,0.1,0c0.4,1.2,0.6,2.3,0.6,3.1
		c0,0.3,0.1,0.5,0.1,0.7c0.5,4.9-13.3,9.5-16.9,11.5c-2.8,1.6-8.2,3.8-19.1,9c-24.9,11.9-48.5,48.2-48.9,50.5
		c-0.1-1.1-0.8-10.6-0.1-17.1c1.1-9.8,2.9-17.2,2.9-17.2s-2.6-1.5-12.9,6.6c-4.2,3.3-15.8,14.6-15.8,14.6s2.5-17.8,17.1-38.2
		c3.4-0.2,6.5-3.2,5.7-7.3c1.9-2.3,3.9-4.5,6-6.7c1.6,0.5,3.2,1.1,4.7,1.4c3.1,0.7,5.9,0.6,8.5-0.4c-0.4-0.7-0.7-1.4-1.1-2.1
		c-1,0.2-2.1,0.3-3.3,0.1c-2-0.3-3.9-1.2-5.8-2.2c1.8-1.8,3.7-3.6,5.6-5.2c-1.2-2.8-2.3-5.5-3.2-8c-0.7-1.9-1.3-3.8-1.8-5.6
		c-1.6-5.6-2.5-10.8-2.9-16C34.9,46,88.8,28.6,114.6,25c31-4.4,77.4-4.5,112.4,0.5c19.1,2.7,34.3,7.5,45,12c0.1-0.1,0.2-0.1,0.2-0.2
		c0.4-0.2,0.9-0.3,1.5-0.2c0.2,0,0.5-0.1,0.7,0c1.1,0.1,2.5,0.5,3.4,1c2.6,1.3,5.4,2.2,8.2,3.1c0.8,0.3,1.5,0.3,2.1,0.7
		c0.5,0.2,1.1,0.3,1.7,0.5c22.3,8.1,74.4-13.8,74.4-13.8S349,48.7,308.1,52.3C310.1,52.5,328.7,54.7,338.8,52.5z M97.3,58.6
		c0-0.1,0.1-0.2,0-0.3c0-0.1-0.1-0.2-0.2-0.2c-0.8-0.3-1.6-0.6-2.4-0.8c-0.8-0.2-1.6-0.4-2.4-0.6c-0.2,0-0.5-0.1-0.7-0.1
		c-0.6-0.1-1.2-0.2-1.8-0.2c-0.9-0.1-1.8,0-2.7,0c-0.8,0-1.6,0.1-2.4,0.2c-0.8,0.1-1.7,0.3-2.6,0.5c-0.9,0.2-1.8,0.4-2.8,0.7
		c-1,0.3-2,0.6-3.1,1c-4.1,1.5-7.6,3.2-10.4,5.1c-3,2-5.3,4.3-6.8,6.8c-0.9,1.4-1.5,2.9-1.9,4.4c0,0.2-0.1,0.3-0.1,0.5
		c-0.1,0.7-0.2,1.4-0.3,2.1c-0.2,1.5,0.1,3.4,0.2,3.8c0.2,1,0.4,2,0.7,3c0.4,1.4,1,2.8,1.8,4.3c0.8,1.6,1.6,3,2.5,4.2
		c0.1,0.1,0.2,0.3,0.3,0.4c0.3,0.4,0.6,0.8,0.9,1.2c0,0,0.1,0.1,0.1,0.2c1.5,1.7,3.1,3.1,4.8,4c1.8,1,3.7,1.7,5.8,2c0,0,0,0,0,0
		c0.9,0.1,1.8,0.2,2.7,0.2c1.4,0,2.8-0.1,4.3-0.4c0.8-0.1,1.7-0.3,2.6-0.6c0.9-0.2,1.8-0.5,2.7-0.8c0.9-0.3,1.9-0.7,2.9-1.1
		c0.4-0.2,0.8-0.3,1.2-0.5c0.6-0.3,1.2-0.5,1.8-0.8c2.4-1.1,4.5-2.3,6.3-3.5c1.2-0.8,2.2-1.6,3.2-2.4c0.4-0.3,0.8-0.7,1.1-1
		c1.1-1.1,2-2.2,2.8-3.4c0.4-0.6,0.7-1.2,1.1-1.8c0.3-0.5,0.5-1,0.8-1.6c0-0.1,0-0.2,0-0.3c0-0.1-0.1-0.2-0.2-0.2l-0.6-0.2l0,0
		l-9.2-2.7c-0.2,0-0.3,0-0.4,0.2c-0.5,0.9-0.9,1.6-1.3,2.2c-0.5,0.7-1,1.4-1.6,1.9c-0.6,0.6-1.4,1.2-2.2,1.7
		c-0.9,0.6-1.9,1.1-3.2,1.7c-0.5,0.2-1.1,0.4-1.6,0.6c-0.5,0.2-1,0.4-1.5,0.5c-0.5,0.1-0.9,0.3-1.4,0.4c-0.4,0.1-0.9,0.2-1.3,0.2
		c-1.2,0.2-2.3,0.2-3.3,0c-1-0.2-1.8-0.5-2.6-1.1c-0.7-0.5-1.4-1.2-2.1-2c-0.4-0.6-0.9-1.3-1.3-2c-0.1-0.3-0.3-0.6-0.4-0.9
		c-0.7-1.6-1.2-3-1.3-4.3c-0.1-1.4,0.1-2.6,0.6-3.7c0.5-1.2,1.5-2.2,2.7-3.2c1.3-1,3-1.9,5.1-2.7c0.5-0.2,1-0.4,1.4-0.5
		c0.4-0.1,0.9-0.3,1.3-0.4c0.4-0.1,0.8-0.2,1.2-0.3c0.4-0.1,0.8-0.1,1.1-0.1c0.5,0,1.1-0.1,1.6,0c0.5,0,1,0.1,1.5,0.1
		c0.5,0.1,0.9,0.2,1.4,0.3c0.4,0.1,0.9,0.3,1.4,0.4c0.2,0.1,0.4,0,0.4-0.2l0.8-1.5L97.3,58.6z"/>
	<path class="st2" d="M281.8,55.7l1-9c0-0.1-0.1-0.3-0.2-0.4l-2.8-1.6c-0.2-0.1-0.4,0-0.5,0.1l-0.1,0.1l0,0l-4.7,7.9l-0.2,0.4
		l-3.8,6.4l-1.8,3.1c-0.1,0.1-0.1,0.2,0,0.3c0,0.1,0.1,0.2,0.2,0.2l2.9,1.3c0.2,0.1,0.4,0,0.5-0.2l1.2-2.1l3.7,1.7l-0.3,2.4
		c0,0.2,0.1,0.3,0.2,0.4l0.6,0.3l2.2,0.9c0,0,0.1,0,0.1,0c0.1,0,0.1,0,0.2,0c0.1-0.1,0.2-0.2,0.2-0.3l0.5-4.9l0.8-7L281.8,55.7z
		 M278.3,54.6l0,0.2l-0.4,3.7l-1.7-0.8l1.7-3l0.1-0.2l0.3-0.6L278.3,54.6z M267.2,50.6l2.7-9.7l0,0c0-0.1,0.1-0.2,0.2-0.2
		c0.1,0,0.2,0,0.3,0l0.1,0.1l3,1.2c0.2,0.1,0.3,0.3,0.2,0.4l-0.5,1.7v0l-1.5,5.5l-0.7,2.6l-2,7.2l-1,3.7c0,0.1-0.1,0.2-0.2,0.2
		c-0.1,0-0.1,0-0.2,0c0,0-0.1,0-0.1,0l-3.3-0.9c-0.2-0.1-0.3-0.3-0.3-0.4l1-3.6L267.2,50.6z M249.8,59.7L249.8,59.7l-0.6-0.1
		c-0.1,0-0.2-0.1-0.2-0.2c0,0,0-0.1-0.1-0.1c0-0.1,0-0.1,0-0.2l0.7-3l4.6-20.1l0,0c0-0.1,0.1-0.2,0.2-0.2c0.1-0.1,0.2-0.1,0.3,0
		l4.1,1.1c0.1,0,0.2,0.1,0.3,0.3l0.1,0.8l2,10.7l2.3-10l0,0c0-0.1,0.1-0.2,0.2-0.2c0.1-0.1,0.2-0.1,0.3,0l3.4,0.9
		c0.2,0.1,0.3,0.2,0.3,0.4l-0.2,0.8l-0.5,2.3l-1.6,6.9l-1.9,8.3l-0.8,3.4c0,0.2-0.2,0.3-0.4,0.3c0,0,0,0-0.1,0l-3.3-0.5
		c-0.2,0-0.3-0.1-0.3-0.3l-0.7-3.8l-1.7-8.6l-1.9,8.2l-0.8,3.4c0,0.2-0.2,0.3-0.4,0.3L249.8,59.7z M177.3,58.5
		c0.5-2.2,0.6-4.7,0.4-7.8c-0.2-2.6-0.5-4.7-1.1-6.4c-0.5-1.8-1.3-3.2-2.3-4.3c-1-1.1-2.2-1.9-3.6-2.4c-1.4-0.5-3.1-0.7-5.1-0.7
		c-0.5,0-1,0-1.5,0.1c-0.5,0-1,0.1-1.6,0.1c-0.5,0.1-1.1,0.1-1.7,0.2c-0.6,0.1-1.2,0.2-1.8,0.3l-12.1,2c-0.2,0-0.3,0.2-0.3,0.4
		l3.1,29.3l0.4,4l0,0.3c0,0.1,0.1,0.2,0.2,0.3c0.1,0,0.1,0.1,0.2,0.1c0,0,0.1,0,0.1,0l11.4-3.1c3.1-0.8,5.6-1.7,7.5-2.7
		c2.1-1.1,3.7-2.3,4.9-3.8c0.3-0.4,0.7-0.9,0.9-1.3c0.1-0.2,0.2-0.4,0.3-0.6C176.6,61.1,177,59.9,177.3,58.5z M169.2,56.2
		c-0.1,1.1-0.4,1.9-0.8,2.6c-0.5,0.7-1.2,1.3-2.2,1.9c-1,0.5-2.4,1-4.3,1.5l-3,0.7l-1.5-15.8l2.7-0.5c0.4-0.1,0.8-0.1,1.1-0.2
		c0.4-0.1,0.7-0.1,1-0.2c0.3,0,0.6-0.1,0.9-0.1c0.3,0,0.6,0,0.8-0.1c1.1,0,1.9,0.1,2.5,0.3c0.6,0.2,1.1,0.6,1.4,1.1
		c0.3,0.5,0.6,1.1,0.8,2c0.2,0.8,0.3,1.7,0.4,3C169.3,54.2,169.3,55.3,169.2,56.2z M102.8,90.1c-0.4,0.4-0.7,0.7-1.1,1
		c-0.9,0.8-2,1.6-3.2,2.4c-1.8,1.2-3.9,2.4-6.3,3.5c-0.6,0.3-1.2,0.6-1.8,0.8c-0.4,0.2-0.8,0.3-1.2,0.5c-1,0.4-2,0.7-2.9,1.1
		c-0.9,0.3-1.8,0.6-2.7,0.8c-0.9,0.2-1.8,0.4-2.6,0.6c-1.5,0.3-2.9,0.4-4.3,0.4c-0.9,0-1.8-0.1-2.7-0.2c0,0,0,0,0,0
		c-2.1-0.3-4.1-1-5.8-2c-1.7-1-3.3-2.3-4.8-4c0,0-0.1-0.1-0.1-0.2c-0.3-0.4-0.6-0.8-0.9-1.2c-0.1-0.1-0.2-0.3-0.3-0.4
		c-0.9-1.2-1.7-2.6-2.5-4.2c-0.7-1.5-1.3-2.9-1.8-4.3c-0.3-1-0.5-2-0.7-3c-0.1-0.4-0.1-0.8-0.2-1.2v0c0-0.4-0.1-0.8-0.1-1.3
		c0-0.5,0-0.9,0-1.4c0-0.7,0.1-1.4,0.3-2.1c0-0.2,0.1-0.3,0.1-0.5c0.4-1.5,1-3,1.9-4.4c1.5-2.5,3.8-4.8,6.8-6.8
		c2.8-1.9,6.3-3.6,10.4-5.1c1.1-0.4,2.1-0.7,3.1-1c1-0.3,1.9-0.5,2.8-0.7c0.9-0.2,1.8-0.4,2.6-0.5c0.8-0.1,1.6-0.2,2.4-0.2
		c0.9-0.1,1.8-0.1,2.7,0c0.6,0,1.2,0.1,1.8,0.2c0.2,0,0.5,0.1,0.7,0.1c0.8,0.1,1.6,0.3,2.4,0.6c0.8,0.2,1.5,0.5,2.4,0.8
		c0.1,0,0.2,0.1,0.2,0.2c0,0.1,0,0.2,0,0.3L94,65l0,0l-1.2,2.2l0,0l-0.8,1.5c-0.1,0.2-0.3,0.2-0.4,0.2c-0.5-0.2-1-0.3-1.4-0.4
		c-0.5-0.1-1-0.2-1.4-0.3c-0.5-0.1-1-0.1-1.5-0.1c-0.5,0-1,0-1.6,0c-0.4,0-0.7,0.1-1.1,0.1c-0.4,0.1-0.8,0.1-1.2,0.3
		c-0.4,0.1-0.9,0.2-1.3,0.4c-0.5,0.1-0.9,0.3-1.4,0.5c-2.1,0.8-3.8,1.7-5.1,2.7c-1.3,1-2.2,2-2.7,3.2c-0.5,1.1-0.7,2.3-0.6,3.7
		c0.1,1.3,0.6,2.7,1.3,4.3c0.1,0.3,0.3,0.6,0.4,0.9c0.4,0.8,0.8,1.4,1.3,2c0.6,0.9,1.3,1.5,2.1,2c0.8,0.5,1.6,0.9,2.6,1.1
		c1,0.2,2.1,0.2,3.3,0c0.4-0.1,0.8-0.1,1.3-0.2c0.4-0.1,0.9-0.2,1.4-0.4c0.5-0.1,1-0.3,1.5-0.5c0.5-0.2,1-0.4,1.6-0.6
		c1.2-0.5,2.3-1.1,3.2-1.7c0.8-0.5,1.5-1.1,2.2-1.7c0.6-0.6,1.1-1.2,1.6-1.9c0.4-0.6,0.8-1.3,1.3-2.2c0.1-0.1,0.3-0.2,0.4-0.2
		l9.2,2.7l0,0l0.6,0.2c0.1,0,0.2,0.1,0.2,0.2c0,0.1,0,0.2,0,0.3c-0.3,0.6-0.5,1.1-0.8,1.6c-0.3,0.6-0.7,1.2-1.1,1.8
		C104.9,87.9,103.9,89,102.8,90.1z M228.8,58.3L228.8,58.3l0,0.5c0,0.2-0.2,0.3-0.3,0.3l-5,0.5c-0.1,0-0.2,0-0.3-0.1
		c-0.1-0.1-0.1-0.2-0.1-0.3l0-0.1l0.3-3.4l0.9-9l-3.4,9.1l-0.9,2.4l-0.6,1.5c0,0.1-0.2,0.2-0.3,0.2l-4.2,0.4c-0.2,0-0.4-0.1-0.4-0.3
		l0-0.2v0l-0.7-3.5l-1.9-9.4l-0.9,9.7l-0.2,2.1v0l-0.2,1.7c0,0.2-0.2,0.3-0.3,0.3l-5.4,0.5c0,0,0,0,0,0c-0.1,0-0.2,0-0.3-0.1
		c-0.1-0.1-0.1-0.2-0.1-0.3l0-0.1l0.3-3.4l2.2-25c0-0.2,0.2-0.3,0.4-0.3l7.9,0.1c0.2,0,0.3,0.1,0.3,0.3l2.8,15.1l5.6-15
		c0.1-0.1,0.2-0.2,0.3-0.2l6.9,0.1c0.1,0,0.2,0,0.3,0.1c0.1,0.1,0.1,0.2,0.1,0.3l-2.4,22.6L228.8,58.3z M246.2,34.8L246.2,34.8
		l0-0.4c0-0.2-0.1-0.3-0.3-0.3l-4.6-0.6c-0.2,0-0.3,0.1-0.4,0.2l0,0l-9.7,21.7l-1.4,3.1c0,0,0,0,0,0.1c0,0.1,0,0.2,0,0.3
		c0.1,0.1,0.2,0.2,0.3,0.2l4.7,0.1c0.2,0,0.3-0.1,0.3-0.2L236,57l0.4-1l6.3,0.2l0.2,2.7l0,0.1c0,0.2,0.2,0.3,0.4,0.3l4.4,0.1
		c0,0,0,0,0,0c0.1,0,0.2,0,0.3-0.1c0.1-0.1,0.1-0.2,0.1-0.3l0,0l-0.2-3L246.2,34.8z M239.2,49.7l2.6-5.9l0.5,6.1L239.2,49.7z
		 M143.6,69c0.2-0.7,0.4-1.5,0.6-2.3c0.4-2.6,0.3-5.4-0.3-8.6c-0.5-2.5-1.3-4.6-2.2-6.5c-0.9-1.8-2.1-3.2-3.5-4.4
		c-1.4-1.1-2.9-1.9-4.7-2.4c-1.7-0.5-3.6-0.7-5.7-0.6c-0.6,0-1.2,0.1-1.8,0.1c-0.6,0.1-1.2,0.1-1.9,0.2c-0.6,0.1-1.3,0.2-1.9,0.4
		c-0.7,0.1-1.3,0.3-2,0.5c-3.2,0.8-6,1.9-8.4,3.3c-2.6,1.5-4.7,3.2-6.2,5.2c-0.8,1.1-1.5,2.3-2,3.5c-0.5,1.2-0.9,2.5-1.1,3.9
		c-0.4,2.9-0.2,6.1,0.8,9.6c0.1,0.2,0.1,0.4,0.2,0.6c0.7,2.2,1.5,4.1,2.5,5.7c0,0,0,0,0,0c0.1,0.2,0.2,0.3,0.3,0.5
		c1.2,1.8,2.6,3.2,4.3,4.2c0.4,0.3,0.9,0.5,1.4,0.7c1.2,0.6,2.5,0.9,3.9,1.2c0.1,0,0.3,0,0.4,0c0,0,0.1,0,0.1,0
		c0.7,0.1,1.5,0.1,2.3,0.1c1,0,2.1-0.1,3.2-0.2c0.6-0.1,1.2-0.2,1.8-0.3c0.6-0.1,1.2-0.3,1.8-0.4c0.6-0.2,1.2-0.3,1.8-0.5
		c0.6-0.2,1.2-0.4,1.9-0.6c2.9-1.1,5.4-2.3,7.4-3.7c2.2-1.5,3.9-3.1,5.2-5c0.4-0.6,0.8-1.2,1.1-1.9C143,70.7,143.4,69.9,143.6,69
		L143.6,69z M133.2,68.3c-0.5,1-1.2,1.9-2.3,2.6c-1.1,0.8-2.5,1.6-4.3,2.2l0,0c-0.3,0.1-0.6,0.2-0.9,0.3c-0.3,0.1-0.6,0.2-0.9,0.2
		c-0.3,0.1-0.6,0.1-0.8,0.2c-0.3,0-0.5,0.1-0.8,0.1c-1.2,0.1-2.2,0.1-3.1-0.2c-0.9-0.2-1.6-0.6-2.2-1.2c-0.6-0.6-1.1-1.3-1.6-2.2
		c-0.4-0.8-0.8-1.8-1.1-3c-0.4-1.4-0.5-2.7-0.5-3.8c0-1.3,0.3-2.3,0.8-3.3c0.5-1.1,1.4-2,2.5-2.7c1.2-0.8,2.7-1.5,4.6-2.1
		c0.3-0.1,0.7-0.2,1-0.3c0.3-0.1,0.6-0.1,0.9-0.2c0.3-0.1,0.6-0.1,0.9-0.1c0.3,0,0.5-0.1,0.8-0.1c0.2,0,0.4,0,0.6,0
		c0.9,0,1.7,0.1,2.4,0.4c0.8,0.3,1.5,0.7,2.1,1.3c0.6,0.6,1,1.3,1.4,2.2c0.4,0.8,0.7,1.8,0.9,2.9c0.3,1.4,0.4,2.6,0.4,3.6
		C133.9,66.4,133.7,67.4,133.2,68.3z M201.6,57.8l0,1.9l0,1.9c0,0.2-0.1,0.3-0.3,0.3l-19.4,3.7c0,0,0,0-0.1,0c-0.1,0-0.2,0-0.2-0.1
		c-0.1-0.1-0.1-0.2-0.1-0.3v-0.2v-4.1V34.5c0-0.2,0.1-0.3,0.3-0.4l19.9-1.7c0.1,0,0.2,0,0.3,0.1c0.1,0.1,0.1,0.2,0.1,0.3l-0.2,7.4
		c0,0.2-0.1,0.3-0.3,0.4L189.3,42l0,3l11.7-1.4c0.1,0,0.2,0,0.3,0.1c0.1,0.1,0.1,0.2,0.1,0.3l-0.1,7c0,0.2-0.1,0.3-0.3,0.3L189.3,53
		l0,3.4l12-2c0.1,0,0.2,0,0.3,0.1c0.1,0.1,0.1,0.2,0.1,0.3L201.6,57.8z"/>
	<path class="st0" d="M23.2,107.5c-1.8,0.1-3.6-0.5-5-2c-2.6-2.8-2.9-7.6-1.6-11.1c1.3-3.6,4-6,7.4-7.1c3.3-1.1,6.9-0.5,10.1,0.9
		c1.3,0.6,2.6,1.4,4,2.1c1.8,1,3.7,1.9,5.8,2.2c1.2,0.2,2.2,0.1,3.3-0.1c0.4,0.7,0.7,1.4,1.1,2.1c-2.6,1-5.4,1.1-8.5,0.4
		c-1.5-0.3-3.1-0.9-4.7-1.4c-3.6-1.1-7.3-1.9-10.4,0.4c-0.6,0.4-1,1.4-1.3,2.5c2-1.1,4.1-0.1,5.2,2.2c0.2,0.5,0.4,1.1,0.5,1.6
		C29.8,104.3,26.7,107.2,23.2,107.5z M33.3,70.1c-4.2,0.5-7.3,4.8-6.9,8.9c0.1,1.1,0.5,2.3,1.1,3.2c0.8,1.2,2.2,1.9,3.6,1.3
		c1.6-0.6,3.5-2.8,2.3-4.7c-1.3-2.2-4.7-0.3-3.3,2c-0.3-0.3-0.7-1-0.8-1.3c-0.3-1.8,0.8-3.2,1.6-4c1.1-1.1,2.7-1.5,4.1-1.4
		c1.6,0.1,3.1,1.3,4.6,2.5c0.2,0.2,0.5,0.4,0.7,0.6c-0.7-1.9-1.3-3.8-1.8-5.6C36.9,70.3,35.2,69.8,33.3,70.1z M48.1,99.2
		c-3.1,0.5-6.2,1.9-8.3,4.5c-2.1,2.6-3.1,5.9-2.6,9.4c0.6,3.5,3,7.1,6.3,8c5.8,1.6,10.4-6.5,4.9-10.8c-3-2.4-5.1,1.5-5.1,1.5
		c-0.4-1.2-0.3-2.9,0.2-4c0.5-1.1,1.4-1.9,2.3-2.5c1.8-1.3,4-2,6.1-2.6c0.1,0,0.3-0.1,0.4-0.1c-0.7-1.2-1.4-2.4-2-3.6
		C49.7,99,48.9,99.1,48.1,99.2z"/>
	<path class="st1" d="M34.4,40.6l1.5-0.8l5.3,4.6l-1.5,0.9l-0.9-0.8l-1.8,1l0.2,1.2l-1.5,0.8L34.4,40.6z M37.6,43.5l-1.5-1.4l0.4,2
		L37.6,43.5z M41.9,40.4l0-0.1c-0.9-1.8-0.3-3.6,1.3-4.4c0.9-0.5,1.7-0.4,2.5-0.1l-0.5,1.5c-0.4-0.2-0.8-0.3-1.3-0.1
		c-0.7,0.3-0.9,1.2-0.4,2.2l0,0c0.5,1.1,1.3,1.4,2,1c0.5-0.2,0.7-0.7,0.8-1.1l1.4,0.5c-0.2,0.8-0.6,1.6-1.6,2.1
		C44.6,42.8,42.8,42.2,41.9,40.4z M47,37.9l-0.1-0.1c-0.8-1.8-0.2-3.6,1.4-4.3c1.6-0.7,3.3,0,4.1,1.8l0.1,0.1
		c0.8,1.8,0.2,3.6-1.4,4.3C49.5,40.5,47.8,39.7,47,37.9z M51,36.1L51,36.1c-0.5-1.1-1.3-1.5-2-1.2c-0.7,0.3-0.9,1.2-0.5,2.2l0,0.1
		c0.5,1,1.2,1.4,2,1.1C51.2,38,51.4,37.2,51,36.1z M52.1,32l1.5-0.6l3.3,2.2l-1.2-3.1l1.5-0.6l2.5,6.1l-1.4,0.6l-3.4-2.3l1.3,3.2
		l-1.5,0.6L52.1,32z M58.2,29.6l4.2-1.6l0.5,1.4l-2.6,1l0.4,1.1l2.3-0.9l0.5,1.4l-2.3,0.9l0.9,2.3l-1.6,0.6L58.2,29.6z M63.1,27.7
		l4.3-1.5l0.5,1.4l-2.7,0.9l0.4,1l2.4-0.8l0.5,1.3L66,30.9l0.4,1.1l2.7-1l0.5,1.4l-4.3,1.5L63.1,27.7z M68.3,25.9l2.5-0.8
		c0.8-0.3,1.5-0.3,2.1,0c0.5,0.2,0.8,0.7,1,1.3l0,0c0.3,0.9,0,1.7-0.5,2.2l2,1.9l-1.8,0.6l-1.7-1.6l-0.6,0.2l0.6,1.9l-1.6,0.5
		L68.3,25.9z M71.7,28.2c0.5-0.2,0.8-0.6,0.6-1.1l0,0c-0.2-0.5-0.6-0.7-1.1-0.5l-0.8,0.3l0.5,1.6L71.7,28.2z M74,24.1l4.3-1.3
		l0.4,1.4L76,25l0.3,1l2.5-0.7l0.4,1.3l-2.5,0.7l0.3,1.1l2.8-0.8l0.4,1.4l-4.4,1.3L74,24.1z M79.3,22.5l1.5-0.4l3,2.6l-0.9-3.2
		l1.6-0.4l1.7,6.3l-1.5,0.4l-3.1-2.7l0.9,3.3L81,28.9L79.3,22.5z M86.2,24.1l0-0.1c-0.5-2,0.5-3.6,2.2-4c1-0.2,1.8,0,2.5,0.5
		L90,21.9c-0.4-0.3-0.8-0.4-1.3-0.3c-0.7,0.2-1.1,1-0.9,2.1l0,0c0.3,1.1,1,1.6,1.7,1.4c0.5-0.1,0.8-0.5,1-0.9l1.3,0.8
		c-0.4,0.8-1,1.4-2,1.7C88.2,27.1,86.7,26.1,86.2,24.1z M91.3,19.4l4.4-1l0.3,1.4l-2.8,0.6l0.2,1.1L96,21l0.3,1.4l-2.5,0.6L94,24
		l2.8-0.6l0.3,1.4l-4.5,1L91.3,19.4z M98.8,17.8l4.4-0.9l0.3,1.5l-2.7,0.5l0.2,1.1l2.5-0.5l0.3,1.4l-2.5,0.5l0.5,2.4l-1.7,0.3
		L98.8,17.8z M104.4,20.1l0-0.1c-0.3-1.9,0.7-3.5,2.4-3.8c1.7-0.3,3.2,0.8,3.6,2.8l0,0.1c0.3,1.9-0.7,3.5-2.4,3.8
		C106.2,23.2,104.7,22.1,104.4,20.1z M108.7,19.4l0-0.1c-0.2-1.1-0.9-1.7-1.6-1.6c-0.8,0.1-1.2,0.9-1,2l0,0.1
		c0.2,1.1,0.9,1.7,1.6,1.6C108.5,21.3,108.9,20.5,108.7,19.4z M110.7,15.6l2.6-0.4c0.9-0.1,1.6,0,2,0.4c0.4,0.3,0.7,0.8,0.8,1.4l0,0
		c0.1,1-0.2,1.6-0.9,2.1l1.7,2.2l-1.9,0.3l-1.4-1.8l-0.6,0.1l0.3,2l-1.7,0.3L110.7,15.6z M113.7,18.4c0.6-0.1,0.9-0.5,0.8-1l0,0
		c-0.1-0.6-0.5-0.8-1-0.7l-0.8,0.1l0.3,1.7L113.7,18.4z M118.9,14.4l2.1-0.3c2.1-0.3,3.4,0.9,3.7,2.8l0,0.1c0.2,1.9-0.8,3.4-2.9,3.6
		l-2.1,0.3L118.9,14.4z M120.7,15.7l0.4,3.5l0.5-0.1c0.9-0.1,1.5-0.7,1.3-1.9l0-0.1c-0.1-1.2-0.8-1.6-1.8-1.5L120.7,15.7z
		 M125.2,13.7l4.5-0.5l0.2,1.5L127,15l0.1,1.1l2.6-0.3l0.1,1.4l-2.6,0.3l0.1,1.1l2.9-0.3l0.2,1.5l-4.5,0.5L125.2,13.7z M130.1,13.2
		L132,13l1.6,4l0.8-4.2l1.8-0.2l-1.6,6.8l-1.6,0.1L130.1,13.2z M136.8,12.6l4.5-0.3l0.1,1.5l-2.8,0.2l0.1,1.1l2.6-0.2l0.1,1.4
		l-2.6,0.2l0.1,1.1l2.9-0.2l0.1,1.5l-4.6,0.3L136.8,12.6z M142.2,12.2l1.7-0.1l0.3,5l2.6-0.1l0.1,1.5l-4.3,0.2L142.2,12.2z
		 M146.8,15.4l0-0.1c-0.1-2,1.2-3.4,2.9-3.4c1.8-0.1,3.1,1.3,3.2,3.2l0,0.1c0.1,2-1.2,3.4-2.9,3.4C148.2,18.7,146.9,17.3,146.8,15.4
		z M151.2,15.2l0-0.1c0-1.1-0.6-1.8-1.4-1.8c-0.8,0-1.3,0.7-1.2,1.9l0,0.1c0,1.1,0.6,1.8,1.4,1.8C150.7,17,151.2,16.3,151.2,15.2z
		 M153.7,11.8l2.3,0c1.6,0,2.6,0.8,2.6,2.2l0,0c0,1.6-1.1,2.4-2.5,2.4l-0.6,0l0,1.9l-1.7,0L153.7,11.8z M156,15
		c0.6,0,0.9-0.4,0.9-0.9l0,0c0-0.6-0.4-0.9-1-0.9l-0.6,0l0,1.8L156,15z M159.3,11.7l4.5,0l0,1.5l-2.9,0l0,1.1l2.6,0l0,1.4l-2.6,0
		l0,1.1l2.9,0l0,1.5l-4.6,0L159.3,11.7z M164.7,11.7l2.6,0c0.9,0,1.5,0.3,2,0.7c0.4,0.4,0.6,0.9,0.6,1.5l0,0c0,1-0.5,1.6-1.2,1.9
		l1.3,2.4l-1.9,0l-1.1-2.1l-0.6,0l0,2l-1.7,0L164.7,11.7z M167.2,14.9c0.6,0,0.9-0.3,0.9-0.8v0c0-0.6-0.3-0.9-0.9-0.9l-0.8,0l0,1.7
		L167.2,14.9z M170.1,17.5l0.9-1.2c0.5,0.5,1.1,0.8,1.8,0.8c0.5,0,0.7-0.2,0.7-0.5l0,0c0-0.3-0.2-0.4-0.9-0.7
		c-1.2-0.5-2.1-0.9-2-2.1l0,0c0-1.2,1-2,2.4-2c0.9,0,1.7,0.3,2.3,0.9l-0.9,1.2c-0.4-0.4-1-0.6-1.5-0.6c-0.4,0-0.6,0.2-0.6,0.4l0,0
		c0,0.3,0.2,0.4,1,0.8c1.2,0.4,2,1,2,2.1l0,0c0,1.3-1,2-2.5,2C171.7,18.5,170.8,18.2,170.1,17.5z"/>
	<g>
		<path class="st1" d="M182.1,91.5l-4.5,0.6l-2.3,14.3l-2-13.7l-4.7,0.7l0,21l2.9-0.4l0.1-14.9l2.4,14.5l2.9-0.4
			c0.2-1.5,0.6-4.1,1.1-7.5c0.6-3.5,0.9-6,1.2-7.5l0.1,14.7l2.9-0.4L182.1,91.5"/>
		<path class="st1" d="M188.3,104.5l1-7.9l1,7.7L188.3,104.5 M191.1,90.2l-3.5,0.5l-4.2,21.6l3.9-0.5l0.8-4.6l2.5-0.4l0.8,4.4
			l3.9-0.5L191.1,90.2"/>
		<path class="st1" d="M206,88.1l-3.6,0.5c-0.2,1-0.6,2.6-1,4.8c-0.5,2.1-0.8,3.7-1,4.8l-1.8-9l-3.7,0.5l3.6,13.5l0,6.9l3.8-0.5
			l0-6.9L206,88.1"/>
		<path class="st1" d="M216.3,86.3c-0.7,0.1-1.4,0.3-2,0.6c-0.6,0.3-1.1,0.7-1.5,1.1c-0.4,0.4-0.7,0.9-1,1.5s-0.5,1.2-0.6,1.9
			c-0.1,0.7-0.2,1.4-0.2,2.1l0,1.3l3.7-0.5c0-0.1,0-0.1,0-0.3c0-0.2,0-0.4,0-0.6c0-0.2,0-0.5,0-0.7c0-0.3,0-0.5,0.1-0.8
			c0-0.3,0.1-0.5,0.2-0.7c0.1-0.2,0.2-0.5,0.3-0.6c0.1-0.2,0.2-0.3,0.4-0.5c0.2-0.1,0.3-0.2,0.5-0.2c0.2,0,0.5,0,0.7,0.1
			c0.2,0.1,0.3,0.3,0.4,0.5c0.1,0.2,0.2,0.4,0.2,0.7c0.1,0.2,0.1,0.5,0.1,0.7c0,0.4,0,0.8-0.2,1.3c-0.1,0.4-0.3,0.9-0.5,1.3
			c-0.2,0.5-0.4,0.8-0.6,1.2c-0.2,0.3-0.4,0.7-0.7,1.2l-4.7,8l0,3.6l10.3-1.5l0-4l-6,0.8c0.3-0.5,0.8-1.2,1.4-2
			c0.6-0.9,1.2-1.7,1.7-2.4c0.5-0.7,0.9-1.5,1.4-2.4c0.5-0.9,0.9-1.8,1.2-2.8c0.3-0.9,0.4-1.9,0.4-2.8c0-1.8-0.4-3.1-1.3-4
			C219.2,86.4,217.9,86.1,216.3,86.3"/>
		<path class="st1" d="M228.1,102.9c-0.2,0-0.5,0-0.6-0.1c-0.2-0.1-0.3-0.3-0.4-0.5c-0.1-0.2-0.2-0.4-0.2-0.7
			c-0.1-0.3-0.1-0.5-0.1-0.8c0-0.2,0-0.5,0-0.7l0-8.6c0-0.3,0-0.5,0-0.7c0-0.2,0-0.5,0.1-0.8c0-0.3,0.1-0.6,0.2-0.8
			c0.1-0.2,0.2-0.4,0.4-0.6c0.2-0.2,0.4-0.3,0.7-0.3c1-0.1,1.5,0.8,1.5,2.8l0,8.6c0,0.3,0,0.6,0,0.9s-0.1,0.6-0.2,1
			c-0.1,0.4-0.2,0.7-0.5,0.9C228.6,102.7,228.4,102.8,228.1,102.9 M228.1,84.6c-0.9,0.1-1.7,0.4-2.4,0.9c-0.7,0.4-1.2,1-1.6,1.6
			c-0.4,0.7-0.7,1.4-0.9,2.2c-0.2,0.8-0.3,1.7-0.3,2.6l0,8.6c0,0.9,0.1,1.7,0.3,2.5c0.2,0.8,0.5,1.4,0.9,2c0.4,0.5,1,0.9,1.6,1.2
			c0.7,0.3,1.4,0.3,2.3,0.2c0.9-0.1,1.6-0.4,2.3-0.9c0.7-0.5,1.2-1,1.7-1.7c0.4-0.7,0.7-1.4,1-2.2c0.2-0.8,0.3-1.7,0.3-2.6l0-8.6
			c0-0.9-0.1-1.8-0.3-2.5c-0.2-0.7-0.5-1.4-0.9-1.9c-0.4-0.6-1-1-1.6-1.2C229.8,84.6,229,84.5,228.1,84.6"/>
		<path class="st1" d="M240.4,83.3l-2.9,0.4c-0.2,0.4-0.4,0.7-0.6,1c-0.2,0.3-0.4,0.5-0.6,0.6c-0.2,0.1-0.4,0.3-0.8,0.5
			c-0.3,0.2-0.6,0.4-0.8,0.6l0,3.1l2-0.3l0,15.6l3.7-0.5L240.4,83.3"/>
		<path class="st1" d="M247.4,100.4c-0.2,0-0.4,0-0.6,0c-0.2,0-0.3-0.1-0.4-0.2c-0.1-0.1-0.2-0.2-0.3-0.4c-0.1-0.2-0.1-0.3-0.2-0.5
			c0-0.1-0.1-0.3-0.1-0.6c0-0.2,0-0.4,0-0.5c0-0.1,0-0.3,0-0.5c0-2.3,0.5-3.5,1.6-3.7c1-0.1,1.6,0.9,1.6,3.2c0,0.2,0,0.4,0,0.5
			c0,0.1,0,0.3,0,0.5c0,0.2,0,0.4-0.1,0.6c0,0.2-0.1,0.3-0.2,0.5c-0.1,0.2-0.2,0.4-0.3,0.5c-0.1,0.1-0.2,0.2-0.4,0.3
			C247.8,100.3,247.6,100.4,247.4,100.4 M247.4,90.8c-0.2,0-0.4,0-0.5-0.1c-0.1-0.1-0.3-0.2-0.4-0.4c-0.1-0.2-0.2-0.4-0.2-0.6
			c-0.1-0.2-0.1-0.4-0.1-0.7c0-0.3,0-0.5,0-0.7c0-0.2,0-0.4,0-0.6c0-0.3,0-0.5,0-0.7c0-0.2,0.1-0.5,0.2-0.7c0.1-0.3,0.2-0.5,0.4-0.7
			c0.2-0.2,0.4-0.3,0.6-0.3c0.8-0.1,1.2,0.6,1.2,2.1c0,0.2,0,0.4,0,0.5c0,0.1,0,0.3,0,0.6c0,0.3,0,0.5-0.1,0.7
			c0,0.2-0.1,0.4-0.1,0.6c-0.1,0.2-0.1,0.4-0.2,0.6c-0.1,0.1-0.2,0.3-0.3,0.4C247.7,90.7,247.6,90.8,247.4,90.8 M247.4,81.9
			c-1.6,0.2-2.9,0.9-3.7,2.1c-0.9,1.2-1.3,2.6-1.3,4.4c0,1.9,0.5,3.4,1.4,4.3c-0.7,0.7-1.1,1.4-1.3,2.3c-0.2,0.8-0.3,1.8-0.3,2.9
			c0,4.3,1.7,6.3,5.2,5.8c1-0.1,1.8-0.4,2.5-0.8c0.7-0.4,1.2-0.9,1.6-1.6c0.4-0.7,0.7-1.4,0.9-2.2c0.2-0.8,0.3-1.7,0.3-2.7
			c0-0.5,0-1-0.1-1.4c0-0.4-0.1-0.8-0.2-1.3c-0.1-0.4-0.3-0.8-0.5-1.1c-0.2-0.3-0.5-0.6-0.9-0.9c0.9-1.2,1.4-2.7,1.4-4.7
			c0-1.8-0.4-3.1-1.2-4.1C250.3,82,249,81.7,247.4,81.9"/>
	</g>
</g>
<g>
	<path class="st1" d="M288.3,101v-6c0-0.5,0-1,0.1-1.4c0.1-0.4,0.2-0.8,0.4-1.2c0.2-0.4,0.4-0.7,0.7-0.9c0.3-0.3,0.6-0.5,1-0.6
		s0.9-0.2,1.4-0.2c2.2,0,3.4,1.5,3.4,4.4v0.6H294v-0.9c0-0.5,0-0.9-0.1-1.2c-0.1-0.4-0.2-0.7-0.3-1c-0.2-0.3-0.4-0.5-0.7-0.7
		s-0.6-0.2-1-0.2c-0.4,0-0.7,0.1-1,0.2c-0.3,0.1-0.5,0.2-0.7,0.4s-0.3,0.4-0.4,0.7c-0.1,0.3-0.2,0.5-0.2,0.8c0,0.3-0.1,0.6-0.1,1
		v6.5c0,0.5,0,0.9,0.1,1.2c0.1,0.3,0.2,0.7,0.3,1s0.4,0.5,0.7,0.7c0.3,0.2,0.7,0.2,1.1,0.2c0.4,0,0.7-0.1,1-0.2
		c0.3-0.2,0.5-0.4,0.7-0.7c0.2-0.3,0.3-0.6,0.3-1s0.1-0.8,0.1-1.2v-1h1.2v0.7c0,0.5,0,1-0.1,1.4c-0.1,0.4-0.2,0.8-0.3,1.2
		c-0.2,0.4-0.4,0.7-0.6,1c-0.2,0.3-0.6,0.5-1,0.6c-0.4,0.2-0.8,0.2-1.4,0.2c-0.6,0-1-0.1-1.5-0.2c-0.4-0.2-0.8-0.4-1-0.6
		s-0.5-0.6-0.6-1c-0.2-0.4-0.3-0.8-0.3-1.2C288.4,102,288.3,101.6,288.3,101z"/>
	<path class="st1" d="M296.9,101v-6c0-0.5,0-1,0.1-1.4c0.1-0.4,0.2-0.8,0.4-1.2c0.2-0.4,0.4-0.7,0.7-0.9c0.3-0.3,0.6-0.5,1-0.6
		s0.9-0.2,1.4-0.2s1,0.1,1.4,0.2c0.4,0.1,0.8,0.4,1,0.6c0.3,0.3,0.5,0.6,0.7,0.9s0.3,0.8,0.4,1.2c0.1,0.4,0.1,0.9,0.1,1.4v6
		c0,2.9-1.2,4.4-3.6,4.4C298.1,105.4,296.9,104,296.9,101z M302.9,101.3v-6.5c0-2-0.8-3.1-2.4-3.1s-2.4,1-2.4,3.1v6.5
		c0,2,0.8,3.1,2.4,3.1S302.9,103.4,302.9,101.3z"/>
	<path class="st1" d="M306.3,105.2V90.9h3.8c0.5,0,0.9,0.1,1.3,0.2c0.4,0.1,0.7,0.3,0.9,0.5c0.2,0.2,0.4,0.5,0.5,0.8
		c0.1,0.3,0.2,0.7,0.3,1c0.1,0.3,0.1,0.7,0.1,1.1c0,1.8-0.7,3-2,3.5l2.2,7.1h-1.3l-2.1-7h-2.4v7H306.3z M307.6,97.2h2.5
		c0.4,0,0.7-0.1,0.9-0.2s0.4-0.3,0.6-0.6c0.1-0.3,0.2-0.5,0.3-0.8c0-0.3,0.1-0.6,0.1-1c0-0.3,0-0.6,0-0.8c0-0.2-0.1-0.5-0.2-0.7
		c-0.1-0.2-0.2-0.4-0.3-0.6s-0.3-0.3-0.5-0.4c-0.2-0.1-0.5-0.1-0.8-0.1h-2.5V97.2z"/>
	<path class="st1" d="M315.2,105.2V90.9h3.2c0.5,0,1,0.1,1.4,0.2c0.4,0.1,0.8,0.3,1,0.6c0.3,0.3,0.5,0.6,0.7,0.9
		c0.2,0.4,0.3,0.8,0.4,1.2s0.1,0.9,0.1,1.4v5.8c0,2.8-1.2,4.2-3.6,4.2H315.2z M316.5,104.2h1.9c1.6,0,2.4-1,2.4-2.9v-6.4
		c0-2-0.8-3-2.4-3h-1.9V104.2z"/>
	<path class="st1" d="M324.2,105.2V90.9h1.3v14.3H324.2z"/>
	<path class="st1" d="M327.2,101.7l1.1-0.3c0,0.4,0.1,0.8,0.2,1.1c0.1,0.3,0.3,0.7,0.5,0.9c0.2,0.3,0.4,0.5,0.8,0.7
		c0.3,0.2,0.7,0.2,1.1,0.2c0.6,0,1.1-0.2,1.5-0.5s0.5-0.9,0.5-1.5c0-0.5-0.2-1.1-0.5-1.6s-0.8-1.1-1.4-1.8l-2.2-2.3
		c-0.5-0.5-0.9-1-1.1-1.4c-0.3-0.4-0.4-0.9-0.4-1.4c0-0.9,0.3-1.7,0.9-2.2c0.6-0.6,1.4-0.8,2.4-0.8c0.9,0,1.7,0.3,2.3,0.8
		c0.6,0.5,0.9,1.3,1.1,2.3l0,0.1l-1.1,0.3l0-0.1c-0.1-0.7-0.4-1.3-0.8-1.8c-0.4-0.5-0.9-0.7-1.6-0.7c-0.6,0-1.1,0.2-1.5,0.5
		c-0.4,0.3-0.6,0.8-0.6,1.4c0,0.4,0.1,0.7,0.3,1.1s0.5,0.8,0.9,1.2l2.1,2.3c0.1,0.1,0.2,0.2,0.4,0.5c0.2,0.2,0.4,0.4,0.4,0.5
		c0.1,0.1,0.2,0.2,0.4,0.4c0.2,0.2,0.3,0.4,0.4,0.5s0.2,0.3,0.3,0.5c0.1,0.2,0.2,0.4,0.3,0.5c0,0.2,0.1,0.3,0.1,0.5s0.1,0.4,0.1,0.6
		c0,1-0.3,1.8-0.9,2.4c-0.6,0.6-1.4,0.8-2.4,0.8c-0.5,0-1-0.1-1.4-0.3c-0.4-0.2-0.8-0.5-1-0.8s-0.5-0.7-0.7-1.2
		C327.4,102.7,327.3,102.2,327.2,101.7z"/>
	<path class="st1" d="M339.1,105.2V90.9h1.3v6.5h4.4v-6.5h1.3v14.3h-1.3v-6.9h-4.4v6.9H339.1z"/>
	<path class="st1" d="M348.2,101v-6c0-0.5,0-1,0.1-1.4c0.1-0.4,0.2-0.8,0.4-1.2c0.2-0.4,0.4-0.7,0.7-0.9c0.3-0.3,0.6-0.5,1-0.6
		s0.9-0.2,1.4-0.2s1,0.1,1.4,0.2c0.4,0.1,0.8,0.4,1,0.6c0.3,0.3,0.5,0.6,0.7,0.9s0.3,0.8,0.4,1.2c0.1,0.4,0.1,0.9,0.1,1.4v6
		c0,2.9-1.2,4.4-3.6,4.4C349.4,105.4,348.2,104,348.2,101z M354.2,101.3v-6.5c0-2-0.8-3.1-2.4-3.1s-2.4,1-2.4,3.1v6.5
		c0,2,0.8,3.1,2.4,3.1S354.2,103.4,354.2,101.3z"/>
	<path class="st1" d="M358.6,105.2V91.9h-2.8v-1h6.8v1h-2.8v13.3H358.6z"/>
	<path class="st1" d="M363.6,105.2V90.9h5v1h-3.7v5.4h2.7v1h-2.7v5.9h3.7v1H363.6z"/>
	<path class="st1" d="M370.2,105.2V90.9h1.3v13.3h4v1H370.2z"/>
	<path class="st1" d="M289.1,125.6h-1.3l2.8-14.3h1.6l2.8,14.3h-1.3l-0.7-3.7h-3.3L289.1,125.6z M289.9,121h3l-1.5-8.4L289.9,121z"
		/>
	<path class="st1" d="M296.5,122.1v-10.8h1.3v11.1c0,0.8,0.2,1.4,0.6,1.8c0.4,0.4,1,0.6,1.9,0.6c0.8,0,1.4-0.2,1.8-0.6
		c0.4-0.4,0.5-1,0.5-1.8v-11.1h1.3v10.8c0,2.5-1.2,3.7-3.6,3.7c-0.6,0-1.1-0.1-1.5-0.2c-0.4-0.1-0.8-0.3-1.1-0.5
		c-0.3-0.2-0.5-0.5-0.7-0.8c-0.2-0.3-0.3-0.7-0.4-1C296.5,122.9,296.5,122.5,296.5,122.1z"/>
	<path class="st1" d="M305.8,121.4v-6c0-0.5,0-1,0.1-1.4s0.2-0.8,0.4-1.2c0.2-0.4,0.4-0.7,0.7-0.9s0.6-0.5,1-0.6s0.9-0.2,1.4-0.2
		c2.2,0,3.4,1.5,3.4,4.4v0.6h-1.2v-0.9c0-0.5,0-0.9-0.1-1.2c-0.1-0.4-0.2-0.7-0.3-1c-0.2-0.3-0.4-0.5-0.7-0.7
		c-0.3-0.2-0.6-0.2-1-0.2c-0.4,0-0.7,0.1-1,0.2c-0.3,0.1-0.5,0.2-0.7,0.4c-0.2,0.2-0.3,0.4-0.4,0.7s-0.2,0.5-0.2,0.8
		c0,0.3-0.1,0.6-0.1,1v6.5c0,0.5,0,0.9,0.1,1.2s0.2,0.7,0.3,1c0.2,0.3,0.4,0.5,0.7,0.7s0.7,0.2,1.1,0.2c0.4,0,0.7-0.1,1-0.2
		c0.3-0.2,0.5-0.4,0.7-0.7c0.2-0.3,0.3-0.6,0.3-1c0.1-0.4,0.1-0.8,0.1-1.2v-1h1.2v0.7c0,0.5,0,1-0.1,1.4c-0.1,0.4-0.2,0.8-0.3,1.2
		c-0.2,0.4-0.4,0.7-0.6,1c-0.2,0.3-0.6,0.5-1,0.6s-0.8,0.2-1.4,0.2c-0.6,0-1-0.1-1.5-0.2c-0.4-0.2-0.8-0.4-1-0.6
		c-0.3-0.3-0.5-0.6-0.6-1s-0.3-0.8-0.3-1.2C305.8,122.4,305.8,121.9,305.8,121.4z"/>
	<path class="st1" d="M314.6,125.6v-14.3h1.3v7.5l3.8-7.5h1.3l-3,5.9l3.6,8.4h-1.3l-3.1-7.5l-1.4,2.5v5H314.6z"/>
	<path class="st1" d="M322.8,125.6v-14.3h1.3v13.3h4v1H322.8z"/>
	<path class="st1" d="M329.6,125.6h-1.3l2.8-14.3h1.6l2.8,14.3h-1.3l-0.7-3.7h-3.3L329.6,125.6z M330.5,121h3l-1.5-8.4L330.5,121z"
		/>
	<path class="st1" d="M337.2,125.6v-14.3h1l4.5,11.3v-11.3h1.1v14.3h-0.9l-4.5-11.1v11.1H337.2z"/>
	<path class="st1" d="M346.2,125.6v-14.3h3.2c0.5,0,1,0.1,1.4,0.2c0.4,0.1,0.8,0.3,1,0.6s0.5,0.6,0.7,0.9c0.2,0.4,0.3,0.8,0.4,1.2
		s0.1,0.9,0.1,1.4v5.8c0,2.8-1.2,4.2-3.6,4.2H346.2z M347.5,124.6h1.9c1.6,0,2.4-1,2.4-2.9v-6.4c0-2-0.8-3-2.4-3h-1.9V124.6z"/>
</g>
</svg>
