<?xml version="1.0" encoding="utf-8"?>
<!-- Generator: Adobe Illustrator 22.0.1, SVG Export Plug-In . SVG Version: 6.00 Build 0)  -->
<!DOCTYPE svg PUBLIC "-//W3C//DTD SVG 1.1//EN" "http://www.w3.org/Graphics/SVG/1.1/DTD/svg11.dtd">
<svg version="1.1" id="Layer_1" xmlns="http://www.w3.org/2000/svg" xmlns:xlink="http://www.w3.org/1999/xlink" x="0px" y="0px"
	 viewBox="0 0 600 307.3" style="enable-background:new 0 0 600 307.3;" xml:space="preserve">
<style type="text/css">
	.st0{fill:#FFCD00;}
	.st1{fill:#FF595A;}
	.st2{fill:#0065A1;}
	.st3{fill:#00C1DE;}
	.st4{fill:#FFFFFF;}
</style>
<g>
	<g>
		<path class="st0" d="M257.4,86.2C257.4,86.2,257.4,86.2,257.4,86.2C257.3,86.2,257.3,86.2,257.4,86.2z"/>
		<path class="st0" d="M349.6,166.6c-1.4-2.9-1.7-5.9-2.9-8.8c-0.4-0.9-1.3-1.8-1.6-2.7c-0.4-1.2,0-2.3-0.2-3.5
			c-0.3-1.9-1.5-3.7-3.3-4.6c-0.7-0.3-1.7-0.3-2.3-0.6c-0.1-0.5-0.1-0.9-0.2-1.4c-0.1-0.5-0.3-1-0.4-1.4c0.1-0.2,0.2-0.5,0.3-0.7
			c2.5-6.4-0.7-11.2-2.4-17.2c-0.6-2.2-0.4-4.4-0.1-6.6c1.5-0.4,2.8-1.5,3.4-3c1.6-3.6-0.8-6.4-2.1-9.5c0.2-3.6,2.3-5.5,3.9-8.8
			c1.4-2.7,0-5,0.9-7.9c1.2-3.7,1.2-6.5-2.6-8.3c0.1-0.2,0.2-0.3,0.2-0.5c0.5-1.2,0.8-2.4,0.5-3.7c-0.3-1.5-1.3-2.6-2.6-3.1
			c-1.1-3.7-2.8-7.1-6.2-8.9c-6.6-3.4-14.6,0.1-20.6,3.1c-6.9,3.4-13.2,6-21,5.6c-7.7-0.4-15-3.5-20.7-8.7c-1.3-1.2-2.9-1.6-4.4-1.3
			c-2.8-0.5-6.1,1.1-6.3,4.7c-0.4,5.6-0.8,11.3-1.2,16.9c-0.1,0.1-0.2,0.1-0.3,0.1c-0.6,0.3-1.2,0.7-1.7,1.2
			c-1.6,1.8-1.2,4.8,0.9,6.1c0.2,0.1,0.4,0.2,0.6,0.3c0,0.4-0.1,0.8-0.1,1.2c-0.2,2.7-0.3,5.6,1.7,7.8c-0.6,0.4-1.1,1-1.5,1.6
			c-1,1.9-0.4,4.2,1.6,5.2c2,0.9,4.2-0.1,5.3-1.8c0.4-0.7,0.8-1.5,0.9-2.3c0.4,0.3,0.8,0.6,1.2,1.1c1.7,2.4-0.4,5.7-1.3,8.1
			c-1.2,3-2.1,6.1-1.5,9.3c0.6,3.2,2.7,4.9,4.3,7.5c2,3.1,1.2,6.8,0,10.1c-1.4,3.9-3.5,7.4-5.2,11.1c-2.8,2.1-5.6,4.6-5,8
			c0.3,2.1,0.9,2.6,0.7,5c-0.1,1.1-0.4,1.8-0.2,3c0.5,2.6,2.6,3.7,0.7,6.6c-1.8,2.7,2.5,5.2,4.3,2.5c0.1-0.2,0.3-0.4,0.4-0.6
			c0.2,0.5,0.4,1,0.6,1.5c2.3,5.6-0.6,12.3,4.3,16.8c4.4,4,11.5,3.9,17.1,4c7.7,0.1,15.5-0.7,23.1-2.3c6.5-1.4,14.3-3.2,19.8-7.2
			c12-8.6,2.8-27,0-37.9c-0.7-2.6,0-2.1,2.1-2.3c0.4,0,0.7-0.1,1.1-0.2c0.3,0.4,0.6,0.7,0.9,1c-0.1,0.4-0.1,0.8,0,1.2
			c0,0.2,0.1,0.4,0.2,0.6c-1,2.1-0.4,4.7,0.4,6.9c0.9,2.5,1.8,5.3,2.9,8c0.2,1.2,0.4,2.4,0.7,3.6c0.6,2.7,0.7,7,4,7.8
			c2.1,0.5,4.1-0.6,5.5-2.2c2.4-0.1,4.5-1.6,4.8-4.5C351.1,170,350.5,168.3,349.6,166.6z M277.5,82.6c0-0.2,0-0.3-0.1-0.5
			c0-0.1,0-0.2,0-0.2c0.6,0.2,1.2,0.4,1.9,0.6C278.7,82.4,278.1,82.5,277.5,82.6z"/>
	</g>
	<path class="st0" d="M264.6,133.6c-0.9-2.3-2.7-4.3-4.2-6.3c-1-1.3-2.6-1.7-3.9-0.5c-1.6,1.4-1.2,3.6-1.6,5.6
		c-0.1,0.5-0.2,1-0.3,1.4c-0.4,1.4-0.9,2.7-1.2,4.1c-0.4,1.5-0.8,3.7-0.6,5.7c0.2,2.8,1.2,5.6,4.6,4.9c3.6-0.8,7.2-6.3,8-9.7
		C265.7,137,265.5,135.2,264.6,133.6z"/>
</g>
<g>
	<g>
		<path class="st1" d="M271.2,122.5c1.2,3.8,3.9,6.9,5.2,10.6c1.1,3.1,1.1,6.6,0,9.8c2.5-1.5,3-5,2.2-7.8c-0.8-2.8-2.5-5.2-3.5-8
			c-0.9-2.8-0.9-6.2,1.4-8.1c3.3,0.9,7-1.3,8-4.5c-3,0.1-6,0.1-9,0.2c1.1-2.6,2.3-5.2,3.4-7.9c0.7-1.5,1.3-3.1,1.2-4.8
			s-1.3-3.4-2.9-3.5c1.3,1.9,1.3,4.7-0.1,6.6c-2.2,3.1-5.6,1.1-6.3,4.6C269.9,113.6,269.9,118.7,271.2,122.5z"/>
		<path class="st1" d="M275.5,93.7c2.8,0.2,5.6,1.5,7.4,3.7c0.8-0.6,0.6-1.9-0.1-2.7s-1.7-1-2.6-1.5c-0.9-0.4-1.8-1.1-2-2.1
			c-0.8-0.3-1.7-0.1-2.3,0.5c-0.6,0.6-0.8,1.5-0.5,2.3"/>
		<path class="st1" d="M271.5,87.6c2.4,0,4.9,0.1,7.1,0.9c2.3,0.8,4.3,2.7,4.7,5.1c1.7-0.8,3.2,2.4,5,1.9c1.3-0.3,1.4-2.1,1.2-3.4
			c-0.2-1.3,0-3.1,1.3-3.3c-1.5,0.2-5.3-2.5-6.7-3.1c-2.5-1.2-5-2.3-7.5-3.5c-1.5-0.7-4.4-2.9-5.7-1.4
			C269.9,81.9,271.3,86.2,271.5,87.6z"/>
		<path class="st1" d="M261.4,76.1c-0.2,1.1-0.3,2.2-0.5,3.3c1.8-0.5,3.9,0.8,4.3,2.7c0.6-1.5,1.2-2.9,1.8-4.4
			c-2.2-0.7-4.3-1.3-6.5-2"/>
		<path class="st1" d="M300.2,98.6c-1.5,1.4-3.7,1.8-5.7,2c-3.1,0.3-6.1,0.2-9.2-0.2c2.8,1.7,5.6,3.4,8.4,5.1c0,1.4-1.7,2.3-3.1,2.1
			c-1.4-0.1-2.8-0.8-4.2-0.8c-1.4,0-3,1.2-2.7,2.5c0.4,1.7,3,1.5,4.5,2.4c2.4,1.3,2,5.1-0.1,6.9c-2.1,1.7-5,1.9-7.7,2.1
			c0.9,2.6,4.4,2.9,7.1,3.6c5.5,1.3,10,5.9,11.3,11.4c-0.3-4-0.4-8-5.7-11c-1.6-0.9-1.7-3.4-1.9-5.3c-0.3-2.8,1.1-5.5,2.3-8
			c1.1,1.2,3.1,1.8,4.5,1c1.4-0.8,1.8-3.2,0.4-4.2c1.5-2.7,2.9-5.4,4.4-8.2c0.2-0.4,0.5-0.9,0.7-1.3c0.9-1.6,1.9-5.9,2.7-7.5
			c-0.1,0.2-4.3,1.5-4.9,1.8C302,94.8,301.7,97.3,300.2,98.6z"/>
		<path class="st1" d="M298,149c-1.5,3-4.8,5.4-8.1,4.6c-2.4-0.5-4.2-2.6-5.1-4.8c-0.9-2.3-1.1-4.7-1.3-7.2c-1.7,3.8-5.8,6.5-10,6.4
			c-0.1-0.9-0.2-1.7-0.2-2.6c-1.4,0.9-2.7,1.7-4.1,2.6c-1.7,1.3-3.6,3.1-3,5.2c0.4,1.5,1.9,2.3,2.9,3.5c1.9,2.2,1.7,5.8-0.4,7.8
			s-7.5,1.8-9.6-0.2c0,1.2,0.4,2.5-0.2,3.5c4.1,1.5,11.1,3.1,14.2,0.1c2.8-2.7,2.2-7.6,0-10.9c4.1,0.6,8.4-1.7,10.1-5.5
			c1.3,2.5,2.7,5.1,4.2,7.4c1.8,2.7,4,5.3,6.1,7.8c0.4,0.5,0.9,1,1.3,1.6c3,3.5,6.1,7.1,9.1,10.6l10.5-1.7c-3.7-2.4-7.2-4.6-11-7
			c0.8-2.9-2.1-6.2-5.1-5.8c-0.4-2,1.6-3.7,3.6-4.1c2-0.4,4,0,6-0.3c4.7-0.7,8-6.1,6.7-10.6c-1.8,0.8-3.7,1.6-5.7,1.5
			c-2-0.1-4-1.5-4.2-3.5c-0.1-0.7,0.1-1.5,0.2-2.2c0.1-1.7-2.7-6.9-5-5.3C298.7,140.5,298.9,147.3,298,149z"/>
		<path class="st1" d="M304.3,136.6c2.2,0.6,3.7,2.8,4.3,5c0.6,2.2,0.3,4.6,0.1,6.8c3.4,0.3,7,0.7,10.2-0.4c3.3-1.1,6.1-4.1,6-7.5
			c-2,1.8-4.9,2.7-7.6,2.3c-2.7-0.4-5.2-2-6.7-4.4c-1-1.6-1.5-3.5-2.5-5.1c-0.6-0.9-3.3-4-4.7-3.2
			C302.2,130.9,304,135.4,304.3,136.6z"/>
		<path class="st1" d="M300.4,124c1.1,0.4,2.3,0.9,3.4,1.3c1.5,0.6,3.1,1.2,4,2.5c0.7,1,0.9,2.2,1.1,3.4s0.6,2.4,1.4,3.2
			s2.4,1.1,3.2,0.3c-3.4-1.9-4-6.4-6.3-9.5c-1.5-2-6.3-6-9-6C293.6,119.2,298.6,123.2,300.4,124z"/>
		<path class="st1" d="M313.6,110.1c1.4,3.5,4.7,5.9,7,9c3.5,4.9,3.8,11.9,0.7,17.1c2.7,0.9,5.9-0.8,7.2-3.3c1.3-2.5,1.1-5.7,0-8.4
			s-2.8-5-4.6-7.3c-2.7-3.5-5.4-11.7-8.1-15.2c9.8,7.6,14.8,2.6,21-1.3c-6.8,0.5-11.5,7.7-16.3,0.3c7.3,0.7,15-2.2,19.9-7.6
			c-5.5,2.4-11.8,4.8-17.3,2.6c-1.9-0.7-3.5-2-4.5-3.8s-0.8-4.3,0.4-6l-5.6,2.6c-0.4,1.6,0.9,3.9,0.9,5.6
			C314.3,99.6,311.6,104.9,313.6,110.1z"/>
		<path class="st1" d="M325.5,109.6c2.9,0.8,6,1,9,0.9c2.7-0.2,6.5-3.6,2.1-3.4C333.3,107.2,328.7,110.4,325.5,109.6z"/>
		<path class="st1" d="M327,86.5c2.8,0.8,5.9,0.8,8.8,0c1.2-0.3,7.7-2.8,6-4.9C340.7,80.2,329.5,87.3,327,86.5z"/>
		<path class="st1" d="M335.6,142.3c-2.6,1.2-5.7,1.5-8.5,0.8c-0.8,0.9-0.8,2.3-0.2,3.3s1.9,1.5,3.1,1.4c1.1-0.1,4.8-0.7,5.6-1.4
			C336.6,145.6,335.9,142.2,335.6,142.3z"/>
		<path class="st1" d="M341.9,159.6c0.8,1.5,2.7,2.4,2.9,4.1c0.4,4.3,3.1,3.6,4.5,5.3c-1.5,0.4-3.3,1.1-4.9,1.5
			c-1.1-1.9-2.4-4.1-3.5-5.9c-1.1-1.8-2.2-3.7-2.7-5.8c-0.2-0.9-0.5-5.5,1.2-5.5C340,153.3,341.4,158.7,341.9,159.6z"/>
		<path class="st1" d="M296.6,180.2l-18.9-3.4c2-0.4,4.6-7.8,4.8-9.4c0.3-2.1-0.8-7.6,2.2-5.3c2.2,1.7,4,6.9,5.7,9.3
			C292.7,174.6,294.1,177.4,296.6,180.2z"/>
		<path class="st1" d="M264.2,138.1c-0.3,2.4-2.3,4.5-4.7,5.1c0.8-0.2,1.7-3.6,1.9-4.3c0.4-1.6,0.6-3.3,0.6-5
			c-0.1-1.5-0.1-3.3,1.1-0.9C263.9,134.6,264.4,136.3,264.2,138.1z"/>
		<path class="st1" d="M254.7,141.5c-0.6,0.3-0.7,1.2-0.2,1.7s1.3,0.5,1.8,0.1c0.5-0.4,0.7-1,0.5-1.6s-0.8-1-1.4-0.9
			s-1.1,0.7-0.9,1.3"/>
	</g>
	<path class="st1" d="M273.1,92.5c-0.5,0.9,0.2,1.9,0.8,2.7c0.6,0.8,1.2,1.9,0.5,2.7c-2.5-1.4-6.1-0.5-7.7,1.9
		c-0.5,0.7-0.9,1.7-1.8,1.8c-0.2-1-0.3-2-0.2-2.9c0.1-1,0.6-2,1.4-2.5c1.2-0.8,2.9-0.5,3.9-1.5c0.8-0.8,0.9-2.1,0.8-3.2
		c0-0.2,0-0.5-0.2-0.6c-0.1-0.1-0.3-0.2-0.4-0.2c-1.8-0.4-3.8-0.8-5.4,0c-0.3,0.1-0.5,0.3-0.8,0.3c-0.7,0.1-1.2-0.8-1-1.5
		c0.2-0.7,0.9-1.1,1.6-1.2c0.5-0.1,1-0.1,1.4-0.5c0.4-0.4,0.4-1,0.3-1.5c-0.1-1.3-0.2-2.7-0.3-4c0.8,0.2,1.8-0.1,2.2-0.9
		c0.6,1.4,0.1,3.1,0.3,4.6c0.3,2,2.1,3.5,4,3.7c0.6,0.1,1.6-0.3,1.9,0.4C275,91.1,273.5,91.8,273.1,92.5z"/>
	<path class="st1" d="M256.3,89.9c0.1,0.7,0.8,1.4,1.6,1.2c0.5-0.1,0.7-0.6,1.1-0.7c0.6-0.2,0.9,0,1.4-0.1c0.9-0.1,1.8-0.4,1.1-1.7
		C260.5,86.8,256.1,87.6,256.3,89.9z"/>
	<path class="st1" d="M267,91.9c0.3-0.1,0.6-0.1,0.8,0.1c0.1,0.1,0.1,0.3,0.1,0.4c0,0.9-0.6,1.7-1.5,2.1c-0.8,0.3-1.8,0.2-2.6,0.6
		c-0.4,0.3-0.7,0.7-1,0.9c-0.4,0.3-0.9,0.5-1.3,0.2c-0.6-0.5-0.1-1.5-0.5-2.1c-0.4-0.6-1.3-0.4-2-0.4c-0.4,0-1-0.1-0.9-0.5
		c0-0.2,0.2-0.3,0.3-0.5c1.1-0.7,2.6-0.8,3.7-0.1c0.2,0.1,0.5,0.3,0.7,0.4C264.3,93.5,265.7,92.3,267,91.9z"/>
	<path class="st1" d="M266.6,103.8c0.1,0.3,0.4,0.5,0.5,0.7c0.4,0.7,0.5,1.6,1.2,1.9c0.4,0.2,0.9,0,1.3-0.2c0.5-0.2,1-0.4,1.4-0.6
		c0.3-0.1,0.7-0.4,0.6-0.7c-0.1-0.3-0.5-0.4-0.9-0.4c-0.7,0-1.6-0.3-1.9-1c-0.3-0.6,0.4-1.4-0.1-2
		C267.7,100.4,266,102.6,266.6,103.8z"/>
	<path class="st1" d="M277.6,128.1c0.6,0.9,1.3,1.8,1.7,2.9c0.4,1.2,0.3,2.4,0.8,3.6c0.3,0.7,0.8,1.4,1.4,2c0.3,0.3,0.6,0.7,1,0.7
		c0.7,0.1,1.3-0.7,1.4-1.4c0.1-0.7-0.1-1.5-0.1-2.2c0.1-1.2,1.1-2.1,2.1-2.6c1-0.5,2.2-0.7,3.4-0.8c0.2,0,0.4-0.1,0.5-0.2
		c0.1-0.1,0.2-0.3,0.2-0.5c0.2-0.7-0.1-1.5-0.7-2c-1.4-1.2-3.7-0.1-5.4-0.8c-0.6-0.3-1.2-0.8-1.7-1.2c-0.8-0.7-3-2.5-4.1-2.2
		C275.9,123.8,276.9,126.9,277.6,128.1z"/>
	<path class="st1" d="M315.5,154.9c0,0.1,0,0.3,0,0.4c0.1,0.1,0.2,0.1,0.3,0.1c0.4,0,0.7-0.1,1-0.2c0.4-0.2,0.8-0.6,1.1-1
		c0.5-0.7,0.7-1.5,0.9-2.4c0.3-1.1-1-0.8-1.6-0.6C315.8,151.9,315.8,153.5,315.5,154.9z"/>
	<path class="st1" d="M330,134.6c-0.8,0.5-1.6,1.2-2,2c-0.1,0.2-0.2,0.3-0.1,0.5c0.1,0.3,0.4,0.4,0.7,0.5c0.7,0.2,1.4,0.2,2.1,0.2
		c0.4,0,0.8-0.1,1.1-0.4c0.3-0.3,0.3-0.9,0.3-1.3c0-0.2,0-0.5-0.2-0.7c-0.1-0.2-0.4-0.3-0.6-0.4c-0.5-0.2-0.9-0.3-1.4-0.5
		c-0.3-0.1-0.6-0.1-0.7,0.1"/>
	<path class="st1" d="M273.1,140.2c-0.6,0.8-0.8,1.9-0.7,2.9c0.6,0.4,1.5-0.1,1.7-0.8c0.3-0.7,0.2-1.4,0-2.1
		c-0.6-0.3-1.5-0.1-1.9,0.5"/>
	<path class="st1" d="M327.9,118.5c0.1,0,0.2,0.1,0.2,0.1c0.1,0,0.2-0.2,0.2-0.4c0.3-2.1,1.1-6.9-2.7-5.8
		C322.2,113.5,326.4,117.5,327.9,118.5z"/>
	<path class="st1" d="M328.4,150.3c-0.2,0-0.4,0.1-0.6,0.2c-0.4,0.3-0.3,1-0.2,1.5c0.2,1.5-0.5,3.2-1.8,4c1.3,0.7,3.3-0.4,4.1,0.8
		c0.2,0.4,0.3,0.9,0.3,1.3c0.2,1.5,1,2.8,1.6,4.1c1.3,2.9,1.7,6.2,1.9,9.4c0,0.6,0.1,1.2,0.5,1.6c0.3,0.3,0.7,0.4,1.1,0.5
		c1,0.2,1.9,0.3,2.9,0.3c1,0,2.1-0.4,2.3-1.3c0.1-0.5-0.3-1-0.6-1.5c-1.2-1.6-2.5-3.2-3.4-5c-1.4-2.7-1.9-5.7-2.5-8.6
		c-0.2-1.2-0.5-2.5-0.2-3.7c0.2-0.9,1.7-2.6,1.4-3.4C334.6,148.8,329.7,150.1,328.4,150.3z"/>
	<path class="st1" d="M314.9,166.5c0.2,0,0.4,0,0.6,0.1c0.3,0.2,0.3,0.5,0.4,0.8c0.4,1.9,2.2,3.1,3.4,4.6c0.7,0.9,1.2,2,0.7,3
		c-0.4,0.8-1.2,1.2-2,1.6c-0.2,0.1-0.4,0.2-0.6,0.2c-0.2,0-0.4-0.2-0.6-0.4c-1.5-1.3-3.2-2.3-5.1-3c-1.7-0.6-6.7-1.7-4.7-4.3
		C308.5,167.2,312.8,166.7,314.9,166.5z"/>
</g>
<path class="st2" d="M81.5,121.5c9.7,4.2,18.8,9.8,26.8,16.7c-0.6-7.9-8.1-13.2-13.7-18.7c-8.3-8.2-13.5-19.3-14.6-30.9
	c8.4,7.8,16.8,15.6,25.2,23.4C96.7,102.7,93,89.3,95.5,77c1.5-7.3,5.1-14.8,2.6-21.9c2.6,4.6,5.3,9.2,7.9,13.8
	c1.5-6.7,2.2-13.5,2-20.3c6.8,9.5,12.9,20,14,31.6c1.5,16.1-6.6,32.5-2.1,48c1.4,4.9,4.2,9.7,3.8,14.9c-1,13.7-17.3,5.2-23.7,1.4
	c-4.5-2.6-8.5-6-11.7-10.1C86.8,132.5,83,122.1,81.5,121.5z"/>
<path class="st2" d="M484.8,38.3c4.6-5.8,12-9.4,15.2-16c-3.1,10.8-5.1,22-5.9,33.2c-0.2-4.5,3.7-8.1,7.5-10.7s8-5.4,8.9-9.8
	c-0.2,14.9-0.8,31.2-10.2,42.7c4.1-2.5,7.9-5.5,11.2-9c0.4,6.5-1.5,13.1-5.4,18.3c5.5-2.3,10.4-6,14.1-10.6
	c2.1,14-7.9,26.7-18.1,36.5c5-1.3,9.9-2.7,14.9-4c-2.7,8-10.2,14.1-18.5,15.1c0-13.8-3.8-27.5-10.8-39.4c-4.1-6.9-9-12.9-9.2-21.2
	C478.3,54.8,479.4,45.2,484.8,38.3z"/>
<path class="st3" d="M112.6,63.9c-1.6,6-1.7,12.3-0.4,18.3c-3.9-2.1-7.1-5.4-9.2-9.3c-1.8,5.4-3.6,11.1-2.8,16.8
	c0.4,3.2,1.6,6.2,2.9,9.1c3.2,7,7.2,13.6,11.2,20.1c-3.4,1.4-6.9-1.4-9.7-3.9c-4.7-4.3-9.7-8.2-15-11.8c4.8,8.3,9.7,16.8,16.7,23.5
	c4.4,4.2,9.9,8.1,11.3,14c-3.8,1.3-8.1,0.4-11.7-1.5s-6.6-4.7-9.5-7.5c0.7,4.8,4.6,8.4,8.6,11.1c2.5,1.7,5.3,3.3,8.3,3.8
	c3,0.5,6.3-0.1,8.5-2.3c1.9-1.9,2.7-4.8,2.4-7.4c-0.2-2.7-1.3-5.2-2.7-7.6c-0.5-0.9-1.1-1.8-1.3-2.9c-0.3-1.7,0.4-3.3,0.8-4.9
	c2.1-7.9-2.3-16.1-1.3-24.2c0.3-2.8,1.3-5.6,1.2-8.5c-0.1-2.6-1.1-5.2-1.4-7.9C118.8,74.8,116.4,68.9,112.6,63.9z"/>
<path class="st3" d="M483,67.6c0,0-5.2-11.3,1.5-21.5c0,0,5-8.2,8-10.2c0,0-9.2,28.5-3.8,35.3c0,0,1-11,8.8-16s9-8.8,9-8.8
	s-9.5,24-15,26.5c0,0,8.8-3,11.5-11c0,0-1,12.8-9.5,16.5l-10-10.2L483,67.6z"/>
<path class="st3" d="M498.3,81.4c0.8-0.8,7.8-2,7.8-2l-6.8,8L498.3,81.4z"/>
<path class="st3" d="M502.5,91.9c0.8,0.2,8.2-0.5,11.2-5c0,0-5,9.2-10.5,10L502.5,91.9z"/>
<path class="st2" d="M356,190.6c-24.8-0.4-300.3-29.3-132.5-136c22.8-14.5-27.8-34.8-54.5-40.3c-15.5-3.2-208.5,197.3,171,232.6
	C378.9,250.5,356,190.6,356,190.6z"/>
<path class="st2" d="M238.3,186.5c24.8-0.4,316.5-26.7,148.7-133.4c-22.8-14.5,18.8-20.8,45-28.1c9.7-2.7,247,132.1-178,218.9
	C215.7,251.7,238.3,186.5,238.3,186.5z"/>
<path class="st2" d="M328.3,188.6c-2.7,2.4-27.8,27.2-27.8,27.2s11.2,27.5,19.5,28.8s21.8,0.8,24.2,2.8s3.3,14.8,33.2,14.8
	c6.5,1.8,42.2,12.8,55.8,11.2s23.5-6,25.2-8.5s2.4-7.7,0.2-9.3c-1.8-1.2,3-8,3.8-10.5s-1.2-3.8,0-5.8s1.5-5.8,0.2-10
	s-8.6-3.1-11.4-4.8c-3.5-1-10.5-7.3-17.1-6.5c-3.5-4.2-5-17.8-17.8-16c-9.2-3.2-14.8-13-19.2-14.5s-9.5-2-15.5,3
	c-7.5-1.2-9.2-0.2-9.2-0.2s-9.5-18-19.8-2.8C346,185.4,334.5,183.1,328.3,188.6z"/>
<path class="st1" d="M459.3,241.6c0,0-31.5,5.2-39,4.2s-31.8-8.8-38.8-3s-3.2,17,9.5,17.8s32.8,7.2,42.2,4.8s24.2-6.5,25.2-7.8
	s-0.2-9.3,1-10.8S459.3,241.6,459.3,241.6z"/>
<path class="st4" d="M423.8,233.8c0,0-0.5,9.5-9.3,8.7c-8.8-0.8-36.5-7-37,4.3c-0.6,12.5,7.3,14,12.7,15.2c5.3,1.2,38,8,47.7,5
	c9.7-3,20.3-6.2,21.3-8.2s-2.3-11.8-2.3-11.8s-1.8,8.3-4.3,9.3s-12.7,4.8-14,4c-1.3-0.8-4.7-6.8-6-7.3c-1.3-0.5-2.7,9.3-5.2,9.3
	s-10.3-0.3-11-2.5c-0.7-2.2-1.7-4.7-2.3-4.8c-0.7-0.2-2.5,4.7-3.7,4.3c-1.2-0.3-2.2-5.3-3.3-5.3c-1.2,0-2.5,4.5-3.5,4
	s-1.3-5.4-2.8-5.4s-2.5,5.8-4.4,5.7c-1.8-0.2-9.5-1.3-12.5-4.1c-1.6-1.5-2.7-10.5,5.7-9.5c2.4,1.3,1.6,3.5,3.7,4.1
	c1.8,0.5,2.3-3.4,3.5-3.2c1.2,0.2,1.2,3.3,2.7,3.7c1.5,0.3,2.8-2.5,3.8-2.5s1,2.3,2.2,2.8c1.2,0.5,2.5-2.3,3.7-2.2
	c1.2,0.2,20.3,3.3,25.5,2.3c3.3,4,3.2,6.2,4.8,6.8c1.7,0.7,4.7-6.5,5.3-8.3c2.2-0.7,9.5-3.3,9.7-2c0.2,1.3,1.3,8.3,1.3,8.3
	s6-3.5,6.8-9.3c-0.3-4.5,0.7-6.7,0.7-6.7s-9-6-9.7-5.7C452.8,233.1,423.8,233.8,423.8,233.8z"/>
<path class="st0" d="M372.5,190.3c0,0-9.5-18-19.8-2.8c0,0,1.9,6,8.7,5.8C368.3,193.1,372.5,190.3,372.5,190.3z"/>
<path class="st3" d="M349.2,222.7c-0.4,0.3-0.7,0.7-0.9,1.2c-0.3,0.9,0,1.9,0.6,2.5s1.5,1,2.4,1.2c2.7,0.5,5.5-0.3,8-1.5
	c-1.6,1-3,2.3-4.1,3.9c-0.8,1.2-1.5,2.7-0.8,4c0.6,1.1,2.1,1.5,3.4,1.5c2.6,0,5.2-1.1,7-2.9c-1.1,1.3-2.3,2.8-2.7,4.5
	c-0.4,1.7,0.1,3.8,1.6,4.6c1.2,0.6,2.6,0.4,3.9,0c2.7-0.8,5.5-2.5,6.1-5.3c-0.4,1-0.6,2-0.7,3c0,0.3,0,0.5,0.1,0.8
	c0.1,0.3,0.4,0.4,0.7,0.5c1.8,0.8,3.9,0.4,5.6-0.5c1.7-0.9,3.1-2.3,4.5-3.6c0.5-0.5,1-1,1.1-1.7c-1.8,0.1-3.7,0.2-5.5,0.3
	c-1,0.1-2.1,0.1-3.1-0.1c-1.2-0.2-2.4-0.8-3.5-1.4c-3.9-2-7.7-4.5-9.8-8.3c-0.6-1.1-1.1-2.4-2-3.4c-1.2-1.4-3.8-3-5.6-2.7
	C353.2,219.6,350.9,221.1,349.2,222.7z"/>
<path class="st3" d="M434.1,217.9c-3.5-4.2-5-17.8-17.8-16c-9.2-3.2-14.8-13-19.2-14.5s-9.5-2-15.5,3c-7.5-1.2-9.2-0.2-9.2-0.2
	l9.4,1.8c0,0,6.8-6.1,14.1-1.9s11.6,13,18.4,13.6s13.6,3.1,17.4,11.8C435.1,223.4,442.1,216.6,434.1,217.9z"/>
<path class="st3" d="M430.3,220.9c0,0-5.3-13.1-20.6-14.6s-18.1-13.4-26-15.2s-25-1.5-25-1.5s-21.2-8.6-28.5-2.5
	c7.1-0.6,21,5.5,27.6,6.8s20.1-2.6,25.5,2.9s14.8,12.4,24.9,12.9S430.3,220.9,430.3,220.9z"/>
<path class="st3" d="M432.9,214.4c0.8-0.4,1.7-0.8,2.6-0.7c0.8,0,1.5,0.4,2.2,0.7c1,0.5,1.9,1.1,2.8,1.7c0.5,0.4,1.1,1,0.9,1.6
	c-0.1,0.3-0.4,0.6-0.8,0.8c-2,1.2-4.6,1.5-6.4,2.9c-0.5,0.4-0.9,0.9-1.5,1.2c-1,0.5-2.3,0.3-3.5-0.1
	C425.5,221.1,431,215.4,432.9,214.4z"/>
<path class="st3" d="M355.3,217.6c0,0.4,1.9,29.1,41.6,17.1c11-3.5,30.4,5.9,30.4,5.9l11.5-16.8c0,0-12.1-10.6-27.8-3.1
	C399.1,226.4,355.3,217.6,355.3,217.6z"/>
<ellipse transform="matrix(0.2872 -0.9579 0.9579 0.2872 57.3865 522.8317)" class="st4" cx="380" cy="222.9" rx="10.9" ry="14.2"/>
<path class="st3" d="M364.4,203.8c-5.1,0.2-19.1,3.5-19.1,3.5c0.5-0.4,7.1-11.3-6.4-13c-14.3-1.7-19,22.6,1,25.6S371,216,371,216
	L364.4,203.8z"/>
<path class="st4" d="M415.2,234.6c-0.2-0.8-0.2-1.7,0.1-2.4c0.7-1.6,2.7-2.1,4.4-2c1.6,0,3.2,0.3,4.7,0.8c-1.5-0.4-3-1.2-3.8-2.5
	s-0.8-3.2,0.4-4.3c1.4-1.3,3.5-0.9,5.3-0.4c1.2,0.3,2.4,0.6,3.3,1.4c-0.8-0.6-1.5-1.1-2.1-1.9c-0.5-0.8-0.7-1.9-0.3-2.7
	c0.2-0.5,0.7-0.8,1.1-1.1c2.6-1.6,6.3-0.3,8.3,2c-0.6-0.5-1.2-1.1-1.6-1.8c-0.1-0.2-0.2-0.4-0.2-0.6c0-0.6,0.7-0.8,1.3-0.9
	c2.9-0.5,5.9,0.2,8.3,1.9c-0.7-0.3-1.2-1-1.1-1.8c2.6-0.2,5.2,1.3,6.3,3.6c-1.9,1-4.2,0.8-6.3,1c-3.5,0.4-6.8,2-9.5,4.1
	c-2.7,2.2-4.9,5-6.8,8c-1.2,1.9-2.5,4-4.6,4.4c-1.2-1-2.9-0.4-4.3-1.1C416.7,237.4,415.6,236.2,415.2,234.6z"/>
<path class="st3" d="M456.3,225c0,0-6.9-5-12.1-5.1s-21.6,4.6-23.5,18c2.4,10.5,20.5,0.6,20.5,0.6l20.1-1.5L456.3,225z"/>
<path class="st2" d="M442.6,225c-5.7,1.6-8.4,13.3-7.6,15.2c0.9,2,8.5,7.1,18.4,1.1c9.7,0.2,10.4-2.5,10.7-3.9
	c0.3-1.4,2.8-13.8-5.3-14.2c-6.8-0.3-7,4.9-7,4.9S450.2,222.9,442.6,225z"/>
<g>
	
		<ellipse transform="matrix(7.701132e-02 -0.997 0.997 7.701132e-02 177.3235 660.4874)" class="st1" cx="445.4" cy="234.5" rx="4" ry="4"/>
	<ellipse transform="matrix(0.1298 -0.9915 0.9915 0.1298 168.204 657.603)" class="st1" cx="458.7" cy="233" rx="3.6" ry="3.1"/>
</g>
<path class="st2" d="M380.4,216c0.2,1.6,0.2,2.8,0.1,3.8c-0.1,1-0.2,1.9-0.4,2.7c-0.2,0.8-0.5,1.5-0.9,2.4c-0.5,0.9-0.9,1.8-1.8,3.3
	c-1.5-0.6-2.5-1.8-2.9-3.1c-0.5-1.3-0.5-2.8-0.1-4.1c0.4-1.3,1.1-2.5,2.1-3.4C377.4,216.6,378.7,215.9,380.4,216z"/>
<path class="st2" d="M395.2,217.6c0.1,0.4-14.9-25.3-33.3-19.2c-18.3,6.1-8.4,26.3,3.3,23.9c9.4-1.9,8.2-9.2,8.2-9.2
	s3.8,2.3,10.3,9.5c12,13.1,28.8,12.1,28.5-0.5C412,208.5,393.6,210.7,395.2,217.6z"/>
<path class="st3" d="M341.1,230.7c0,0-3.2,24.2,20,29.6c-6-5.3-9.8-6.9-14-12.9C342.7,241.2,341.1,230.7,341.1,230.7z"/>
<path class="st2" d="M275.3,188.6c2.7,2.4,27.8,27.2,27.8,27.2s-3.8,20.8-12,22s-29.2,7.5-31.7,9.5s-3.3,14.8-33.2,14.8
	c-6.5,1.8-42.2,12.8-55.8,11.2s-23.5-6-25.2-8.5s-2.4-7.7-0.2-9.3c1.8-1.2-3-8-3.8-10.5s1.2-3.8,0-5.8s-1.5-5.8-0.2-10
	s8.6-3.1,11.4-4.8c3.5-1,10.5-7.3,17.1-6.5c3.5-4.2,5-17.8,17.8-16c9.2-3.2,14.8-13,19.2-14.5s9.5-2,15.5,3c7.5-1.2,9.2-0.2,9.2-0.2
	s9.5-18,19.8-2.8C257.5,185.4,269,183.1,275.3,188.6z"/>
<path class="st1" d="M144.3,241.6c0,0,31.5,5.2,39,4.2s31.8-8.8,38.8-3s3.2,17-9.5,17.8s-32.8,7.2-42.2,4.8s-24.2-6.5-25.2-7.8
	s0.2-9.3-1-10.8S144.3,241.6,144.3,241.6z"/>
<path class="st4" d="M179.7,233.8c0,0,0.5,9.5,9.3,8.7c8.8-0.8,36.5-7,37,4.3c0.6,12.5-7.3,14-12.7,15.2c-5.3,1.2-38,8-47.7,5
	c-9.7-3-20.3-6.2-21.3-8.2s2.3-11.8,2.3-11.8s1.8,8.3,4.3,9.3s12.7,4.8,14,4s4.7-6.8,6-7.3s2.7,9.3,5.2,9.3s10.3-0.3,11-2.5
	c0.7-2.2,1.7-4.7,2.3-4.8c0.7-0.2,2.5,4.7,3.7,4.3c1.2-0.3,2.2-5.3,3.3-5.3s2.5,4.5,3.5,4s1.3-5.4,2.8-5.4s2.5,5.8,4.4,5.7
	c1.8-0.2,9.5-1.3,12.5-4.1c1.6-1.5,2.7-10.5-5.7-9.5c-2.4,1.3-1.6,3.5-3.7,4.1c-1.8,0.5-2.3-3.4-3.5-3.2c-1.2,0.2-1.2,3.3-2.7,3.7
	c-1.5,0.3-2.8-2.5-3.8-2.5s-1,2.3-2.2,2.8c-1.2,0.5-2.5-2.3-3.7-2.2s-20.3,3.3-25.5,2.3c-3.3,4-3.2,6.2-4.8,6.8
	c-1.7,0.7-4.7-6.5-5.3-8.3c-2.2-0.7-9.5-3.3-9.7-2c-0.2,1.3-1.3,8.3-1.3,8.3s-6-3.5-6.8-9.3c0.3-4.5-0.7-6.7-0.7-6.7s9-6,9.7-5.7
	S179.7,233.8,179.7,233.8z"/>
<path class="st3" d="M231,190.3c0,0,9.5-18,19.8-2.8c0,0-1.9,6-8.7,5.8S231,190.3,231,190.3z"/>
<path class="st3" d="M254.3,222.7c0.4,0.3,0.7,0.7,0.9,1.2c0.3,0.9,0,1.9-0.6,2.5c-0.6,0.7-1.5,1-2.4,1.2c-2.7,0.5-5.5-0.3-8-1.5
	c1.6,1,3,2.3,4.1,3.9c0.8,1.2,1.5,2.7,0.8,4c-0.6,1.1-2.1,1.5-3.4,1.5c-2.6,0-5.2-1.1-7-2.9c1.1,1.3,2.3,2.8,2.7,4.5
	c0.4,1.7-0.1,3.8-1.6,4.6c-1.2,0.6-2.6,0.4-3.9,0c-2.7-0.8-5.5-2.5-6.1-5.3c0.4,1,0.6,2,0.7,3c0,0.3,0,0.5-0.1,0.8
	c-0.1,0.3-0.4,0.4-0.7,0.5c-1.8,0.8-3.9,0.4-5.6-0.5c-1.7-0.9-3.1-2.3-4.5-3.6c-0.5-0.5-1-1-1.1-1.7c1.8,0.1,3.7,0.2,5.5,0.3
	c1,0.1,2.1,0.1,3.1-0.1c1.2-0.2,2.4-0.8,3.5-1.4c3.9-2,7.7-4.5,9.8-8.3c0.6-1.1,1.1-2.4,2-3.4c1.2-1.4,3.8-3,5.6-2.7
	C250.3,219.6,252.6,221.1,254.3,222.7z"/>
<path class="st3" d="M169.4,217.9c3.5-4.2,5-17.8,17.8-16c9.2-3.2,14.8-13,19.2-14.5s9.5-2,15.5,3c7.5-1.2,9.2-0.2,9.2-0.2l-9.4,1.8
	c0,0-6.8-6.1-14.1-1.9s-11.6,13-18.4,13.6s-13.6,3.1-17.4,11.8C168.4,223.4,161.4,216.6,169.4,217.9z"/>
<path class="st3" d="M173.2,220.9c0,0,5.3-13.1,20.6-14.6s18.1-13.4,26-15.2s25-1.5,25-1.5s21.2-8.6,28.5-2.5
	c-7.1-0.6-21,5.5-27.6,6.8s-20.1-2.6-25.5,2.9s-14.8,12.4-24.9,12.9S173.2,220.9,173.2,220.9z"/>
<path class="st3" d="M170.6,214.4c-0.8-0.4-1.7-0.8-2.6-0.7c-0.8,0-1.5,0.4-2.2,0.7c-1,0.5-1.9,1.1-2.8,1.7c-0.5,0.4-1.1,1-0.9,1.6
	c0.1,0.3,0.4,0.6,0.8,0.8c2,1.2,4.6,1.5,6.4,2.9c0.5,0.4,0.9,0.9,1.5,1.2c1,0.5,2.3,0.3,3.5-0.1C178,221.1,172.5,215.4,170.6,214.4z
	"/>
<path class="st3" d="M248.3,217.6c0,0.4-1.9,29.1-41.6,17.1c-11-3.5-30.4,5.9-30.4,5.9l-11.5-16.8c0,0,12.1-10.6,27.8-3.1
	C204.4,226.4,248.3,217.6,248.3,217.6z"/>
<ellipse transform="matrix(0.9579 -0.2872 0.2872 0.9579 -54.594 73.5906)" class="st4" cx="223.5" cy="222.9" rx="14.2" ry="10.9"/>
<path class="st3" d="M239.1,203.8c5.1,0.2,19.1,3.5,19.1,3.5c-0.5-0.4-7.1-11.3,6.4-13c14.3-1.7,19,22.6-1,25.6s-31.1-3.9-31.1-3.9
	L239.1,203.8z"/>
<path class="st4" d="M188.4,234.6c0.2-0.8,0.2-1.7-0.1-2.4c-0.7-1.6-2.7-2.1-4.4-2c-1.6,0-3.2,0.3-4.7,0.8c1.5-0.4,3-1.2,3.8-2.5
	s0.8-3.2-0.4-4.3c-1.4-1.3-3.5-0.9-5.3-0.4c-1.2,0.3-2.4,0.6-3.3,1.4c0.8-0.6,1.5-1.1,2.1-1.9c0.5-0.8,0.7-1.9,0.3-2.7
	c-0.2-0.5-0.7-0.8-1.1-1.1c-2.6-1.6-6.3-0.3-8.3,2c0.6-0.5,1.2-1.1,1.6-1.8c0.1-0.2,0.2-0.4,0.2-0.6c0-0.6-0.7-0.8-1.3-0.9
	c-2.9-0.5-5.9,0.2-8.3,1.9c0.7-0.3,1.2-1,1.1-1.8c-2.6-0.2-5.2,1.3-6.3,3.6c1.9,1,4.2,0.8,6.3,1c3.5,0.4,6.8,2,9.5,4.1s4.9,5,6.8,8
	c1.2,1.9,2.5,4,4.6,4.4c1.2-1,2.9-0.4,4.3-1.1C186.8,237.4,187.9,236.2,188.4,234.6z"/>
<path class="st3" d="M147.3,225c0,0,6.9-5,12.1-5.1s21.6,4.6,23.5,18c-2.4,10.5-20.5,0.6-20.5,0.6l-20.1-1.5L147.3,225z"/>
<path class="st2" d="M160.9,225c5.7,1.6,8.4,13.3,7.6,15.2s-8.5,7.1-18.4,1.1c-9.7,0.2-10.4-2.5-10.7-3.9
	c-0.3-1.4-2.8-13.8,5.3-14.2c6.8-0.3,7,4.9,7,4.9S153.3,222.9,160.9,225z"/>
<g>
	
		<ellipse transform="matrix(0.997 -7.701132e-02 7.701132e-02 0.997 -17.5873 12.8726)" class="st1" cx="158.1" cy="234.5" rx="4" ry="4"/>
	<ellipse transform="matrix(0.9915 -0.1298 0.1298 0.9915 -29.0108 20.7576)" class="st1" cx="144.8" cy="233" rx="3.1" ry="3.6"/>
</g>
<path class="st2" d="M223.1,216c-0.2,1.6-0.2,2.8-0.1,3.8c0.1,1,0.2,1.9,0.4,2.7c0.2,0.8,0.5,1.5,0.9,2.4c0.5,0.9,0.9,1.8,1.8,3.3
	c1.5-0.6,2.5-1.8,2.9-3.1c0.5-1.3,0.5-2.8,0.1-4.1c-0.4-1.3-1.1-2.5-2.1-3.4C226.1,216.6,224.8,215.9,223.1,216z"/>
<path class="st2" d="M208.3,217.6c-0.1,0.4,14.9-25.3,33.3-19.2s8.4,26.3-3.3,23.9c-9.4-1.9-8.2-9.2-8.2-9.2s-3.8,2.3-10.3,9.5
	c-12,13.1-28.8,12.1-28.5-0.5C191.5,208.5,209.9,210.7,208.3,217.6z"/>
<path class="st3" d="M261.9,231.1c0,0,3.2,24.2-20,29.6c6-5.3,9.8-6.9,14-12.9C260.3,241.6,261.9,231.1,261.9,231.1z"/>
<g>
	<path class="st2" d="M159.3,256.3c-10.5-14.8-21-10.7-51.2-8.9c-30.2,1.8-30.7-41.3-30.7-41.3s-7.2,18.4-3.3,23.2
		c-4.5-13.5-10.4-44.8-26.7-51.4c-16.3-6.6-14.4-25.5-12.6-34.6c-5.5,4.5-8.7,21.8-4.5,29.8c-3.4-2.9-4.1-6.2-5.3-12.3
		c-6.7,8.4-11.5,42.3,7.4,74.6c-11.5,1.7-9.9,4.9-9.9,4.9s16.1,2.5,24.3,19.3c8.2,16.9,36.7,28.4,55,25.3c-4.1,7.2-9.1,7.8-15.4,8.8
		c13.1,1.5,26.5,3.1,41.1-21.1S159.3,256.3,159.3,256.3z"/>
	<g>
		<path class="st0" d="M149.3,255c-9.8-11.4-18.3-6.9-43.5-2.5c-25.3,4.4-28.4-31.6-28.4-31.6s-4.8,16.2-1.3,19.8
			c-4.7-10.9-11.6-36.6-25.7-40.5c-14.1-4-13.8-20-12.8-27.8c-4.3,4.3-5.9,19.2-1.8,25.4c-3-2.1-3.9-4.8-5.3-9.8
			c-5.1,7.7-6.9,36.6,11,61.9c-9.6,2.6-8,5.1-8,5.1s13.7,0.5,21.6,13.8c7.9,13.3,32.6,20.3,47.8,15.8c-2.9,6.4-7.2,7.4-12.3,8.9
			c11.1,0,22.4,0,33.1-21.8S149.3,255,149.3,255z"/>
		<path class="st1" d="M141.6,252.5c5.7-1.5-17.6-1.5-34,8.4c-16.4,9.9-34.5-7.9-40-20.5c-5.5-12.6-14.4-19-22.7-20.3
			c6.8,4,11,11.4,13,19.5s-4.2,6.1-6.6,2.3c-1,6.4,12.8,40.6,43.3,32.3c-5.2,4.4-11.2,6.2-11.2,6.2s24.2,2.5,34.4-12.1
			C125.5,257.2,136.1,254,141.6,252.5z"/>
	</g>
</g>
<path class="st2" d="M369.3,195.9c1.5-0.2,3-0.5,4.5-0.4c4.9,0.4,8.5,4.7,13,6.7c6.7,2.9,14.3,0.1,21-2.7c1-0.4,2.1-1,2.1-2.1
	c0-0.5-0.3-1-0.6-1.5c-3.7-5.7-8.1-11.7-14.7-13.3c-3.7-0.9-7.7-0.2-11.5-0.6c-7.7-0.8-14.3-6.2-22-6.9c-3-0.3-6,0.1-8.9,0.5
	c-7.9,1.1-16,2.3-23,6c-3.2,1.7-6.3,5.6-2.5,8.5c2.4,1.8,9.9,0.8,13,1.4C349.5,193.3,359.2,197.1,369.3,195.9z"/>
<g>
	<path class="st3" d="M270.2,227.8c-0.2,1.6-1.3,2.9-2.6,3.9c1.9,0.7,4.2,0.4,5.9-0.7s2.7-3.2,2.7-5.3c0-1.1-0.4-2.3-1.2-3
		c-0.8-0.7-1.9-1-3-0.9c-1.1,0.1-2.1,0.4-3.1,0.8c-1.8,0.6-0.6,1.3,0.2,2C269.9,225.4,270.4,226.6,270.2,227.8z"/>
	<path class="st3" d="M277.4,232.7c-0.4,1.6-1.2,3-2.4,4.1c-0.1,0.1-0.1,0.1-0.1,0.2c0,0.1,0.1,0.2,0.2,0.2c1.4,0.6,3.1,0.5,4.4-0.1
		c1.4-0.7,2.4-2,2.8-3.4c0.1-0.3,0.2-0.7,0.1-1.1c0-0.6-0.3-1.2-0.6-1.7c-0.2-0.5-0.5-0.9-0.9-1.3c-0.8-0.7-2-0.8-3.2-0.9
		c-0.3,0-0.6,0-0.8,0.1c-0.8,0.5,0.1,1,0.3,1.5C277.5,231.2,277.6,231.9,277.4,232.7z"/>
	<path class="st3" d="M280.5,223.1c0.1,1-0.4,2.1-1.2,2.8c1,0.2,2-0.1,2.8-0.8c0.7-0.7,1.2-1.6,1.4-2.6c0.1-0.5,0.2-1.1,0-1.7
		c-0.3-1-1.4-1.6-2.4-2c-0.5-0.1-0.9-0.2-1.4-0.2C277,219.2,280.4,221.8,280.5,223.1z"/>
	<path class="st3" d="M286.4,214.7c-0.7-1.5-2.4-2.4-4-2.2c1.1-1.2,2.9-2,4.5-1.6c1.3,0.3,2.3,1.2,3.3,2.1c0.2,0.2,0.4,0.4,0.5,0.6
		c0.1,0.2,0.1,0.4,0,0.7c-0.1,0.9-0.3,1.8-0.6,2.6c-0.4,1-0.9,1.9-1.7,2.5c-1.3,0.9-2.4,0.7-2.3-0.7
		C286.2,217.2,287.2,216.4,286.4,214.7z"/>
	<path class="st3" d="M293.1,225.7c0.7-0.9,1-2.1,0.7-3.1s-1-2-2-2.5c0.8-0.5,1.8-0.6,2.8-0.4c1.3,0.3,2.4,1.6,2.2,2.9
		c-0.1,0.8-0.6,1.5-1.3,2c-0.7,0.5-1.4,0.8-2.2,1"/>
	<path class="st3" d="M289.4,230.1c-0.1-1.3-0.8-2.6-1.9-3.3c1.3,0,2.7,0,4,0.6c1.2,0.6,2.1,1.9,1.9,3.2c-0.1,0.6-0.5,1.2-1,1.6
		c-1,1-2.7,1.8-4,1.2C288.6,232.3,289.5,231.5,289.4,230.1z"/>
</g>
<path class="st3" d="M258.1,247.4c0,0,48.1-6.2,93.1-25.8c11-5.8-6.4-1.2-6.4-1.2c3.4,0.1-52.6,22.4-84.8,21.4
	C257.6,242.2,258.1,247.4,258.1,247.4z"/>
<path class="st3" d="M288.8,240.6c0,0,33.5,8.4,55.8,7.6c0.1-2.1-1.1-4.2-1.1-4.2s-42.6-0.1-51.2-4.5c-3.8,1.1-3.8,1.1-3.8,1.1
	H288.8z"/>
<path class="st3" d="M389.5,209.1c0,0,65.1-25.5,86.8-47.5c-17.8,11.4-73.3,37.9-90.8,43.5C386.3,207.6,389.5,209.1,389.5,209.1z"/>
<g>
	<g>
		<path class="st2" d="M444.8,255.4c0,0,26.2-10.6,37.7-1.3c11.5,9.3,44.6,1.5,37.1-27.6c0,0,10.7,3,11.7,15.5c0,0-9.8-39.1,19.6-49
			c18.4-6.2,26.2-41.3,16.8-51.5c0,0,30.3,11.6,7.2,60.6c0,0,6.2,3,10.2-1c0,0-0.5,16.9-10.6,20.7c0,0,7.3,2,12.2-0.8
			c0,0-7.2,46.5-55.6,51.3c0,0,6.3,2.5,9.9,1.8c0,0-26.3,28.6-60.4-0.6C457.8,254,444.8,255.4,444.8,255.4z"/>
		<path class="st0" d="M444.7,255.1c0,0,16.8-3.4,32.5,5.2c11.5,6.3,48.1-2,45.6-28.5c0,0,5.8,3.5,5,14.5c0,0,0.5-37.7,16.6-42.5
			c24-7.2,35.8-43.6,29.2-54c0,0,18.7,17-3.2,54c0,0,6,3.5,12.5,0.5c0,0-4.2,17.7-17.8,16.8c0,0,5.8,6.2,19.8,1.7
			c0,0-12.5,44.7-58.7,48.7c0,0,7.1,4,10.3,4c0,0-35.4,25.6-60.5-5.4C459.1,249.4,444.7,255.1,444.7,255.1z"/>
	</g>
	<path class="st1" d="M469.3,259.4c0,0,5.6,1,10.1,4.2c9.7,6.8,38.7,8,44.9-20.7c0,0,1.3,13-1.2,16.8c0,0,12.4-8.7,8.9-24.2
		s14.6-29.3,14.6-29.3s-18.2,14.5-6.2,29.7c0,0,5.2-21,19.8-31.3c11.8-8.3,17-32.7,17-32.7s1.4,16.9-17,37.3c0,0-6.6,4.6-2.3,18.5
		c0,0,4.8,23.3-41.2,42c0,0,4.7,5.2,9.7,5.7c0,0-30,13-49.8-9.3C476.7,266.1,473.5,262.1,469.3,259.4z"/>
	<path class="st1" d="M563.4,231.6c0,0-0.1,9.2-5.1,14.9c0,0,11-4.5,16.8-15.4C575,231.1,568.8,232.4,563.4,231.6z"/>
</g>
<path class="st3" d="M468.5,106.5c2.2-2.4,4-5.8,2.7-8.8c-0.9-2.2-3.2-3.7-4.1-5.9c-1.7-4.3,2.5-9,1.4-13.4c-0.8-3.4-7.4-6.2-10.5-8
	c-12.9-7.6-8.7-15.5-9.2-19c-2.4,3.2-1,17.1,5,21.5c2.4,1.8,8.9,3.1,9.9,5.9c0.9,2.6-1.6,4.9-2.6,7.4c-1.1,2.5-0.7,5.5,0.9,7.7
	c1.4,1.8,3.8,3.3,3.9,5.6c0.1,3.9-6,5.1-7.2,8.8c-0.6,1.9,1,5.8,3.4,5c0.7-0.2,2.2-2.7,2.8-3.3C466.1,108.9,467.4,107.8,468.5,106.5
	z"/>
<path class="st3" d="M141.3,97.9c-3.4-5.3-10.9-7.8-12.3-13.9c-0.8-3.4,0.8-7.1,3.2-9.6s5.5-4.3,8.6-6c-1.6,1.6-3.1,3.2-4.7,4.7
	c-2.2,2.3-4.7,5.1-4.1,8.3c0.6,3.3,4.1,5,6.5,7.3c1.5,1.4,2.6,3.2,3.6,4.9c2.2,3.5,4.5,7.2,4.9,11.4c0.2,2.2-2.6,16.3-4.1,11.2
	c-0.6-1.9,0.7-9.4,0.5-11.6C143.2,102.2,142.6,99.9,141.3,97.9z"/>
<path class="st2" d="M313.2,178.1c-1.7-0.7-3.2-1.8-4.9-2.7c-4.4-2.4-9.5-3.1-14.4-2.1c-4.8,1-9.8,3.7-14.4,1.9
	c-3.1-1.2-5.1-4.2-7.8-6.2c-5.1-3.8-12.1-3.7-18.4-2.4c-3.2,0.7-6.6,1.5-9.5,0.2c-3.4-1.5-3.5-8.3-5.9-5.4c-3,3.5-9.6,7.4-12.4,7.9
	c5.7,3.8,4.6,3,5.6,3.4c16.7,7.9,36.2,7.1,54.6,9c4.1,0.4,8.3,0.8,12.3,1.9c3.6,0.9,7,2.4,10.6,3.1c4.5,0.8,9.1,0.2,13.6-0.4
	c1.3-0.2,2.7-0.4,3.8-1.1c1.1-0.8,1.8-2.3,1.1-3.5c-0.5-0.9-4-3.5-4.8-3.6c-1.1-0.2-3.1,0.9-4.4,1
	C316.4,179,314.7,178.7,313.2,178.1z"/>
<path class="st2" d="M357.3,157.8c-4.4,0.6-8.5,2.9-10.9,6.6c-0.9,1.4-1.6,3-3,4c-1.4,1.1-3.3,1.3-5.1,1.3c-5.6,0-11.3-1.8-16.6-0.2
	c-4.3,1.2-7.7,4.3-10.9,7.4c-2.4,2.3-4.7,4.6-7,7c-0.7,0.7-1.4,1.5-1.4,2.5c4.5,1,9.2,0.2,13.5-1.5c4.3-1.6,8.3-4,12.3-6.2
	c10.3-5.5,21.6-9.7,33.4-10c3.7-0.1,10.5,3.3,8.1-2.8C367.9,161.5,363.4,157,357.3,157.8z"/>
<g>
	<path class="st2" d="M383,153.7c0.9,0,1.9,0.2,2.7-0.2c0.9-0.4,1.5-1.2,2-1.9c4.8-6.1,12.8-9.6,20.6-9c-1.3-0.1-5.6,4.5-6.7,5.3
		c-2.5,1.9-5,3.7-7.5,5.4c-5.2,3.5-10.6,6.6-16.5,8.8c-3.9,1.5-14.5,5.6-8.6-1.9C372.4,156.1,377.7,153.4,383,153.7z"/>
	<path class="st2" d="M234.5,158.8c-4.6-2-10-1.5-14.5,0.7c-3-1.8-6.4-3.1-9.8-3.8c-2.5-0.5-5.4-0.6-7.1,1.3
		c9.7,7.9,21.5,13.2,33.9,15C248,173.6,239.7,161,234.5,158.8z"/>
</g>
<path class="st3" d="M273,187.1c0,0,21.9-18.5,37.1-10.1c7.6-10.4,18.6-11.1,27.9-7.4c8.8-6,11.4-18.1,28.5-10.5
	c2.5,3.6,3.2,5.2,3.2,5.2s-12-11.9-29.9,9.1c-3.4-0.2-19.6-6.9-28,5.9C307.9,178.4,287.5,178.2,273,187.1z"/>
<path class="st3" d="M311.8,176.5c0,0-11.9-11.5-31.1-2.1c-6.2-6.2-10.9-14.5-34.5-8.9c-6.8-2.7-6.2-12.1-15-11.9
	c-3.7,0.1-7.1,1.7-10.4,3.3c-4.6-5-12.7-6.2-18.6-2.8c1.2-0.4,2.4-0.8,3.6-1.2c-3.2,0.3-6.9,0.5-9.3-1.7c-0.9-0.8-1.5-1.8-2.2-2.7
	c-2.7-3.4-7.4-5.1-11.7-4.3c-2.2,0.4-4.6,1.5-6.7,0.5c-2.4-1.1-2.9-4.2-4.4-6.4c-2.7-3.8-8-4.3-12.7-4.4c-0.1-2.4-1.8-4.5-3.9-5.7
	c-2.1-1.2-4.5-1.7-6.9-2.2c3.2,1.8,5.7,4.7,6.9,8.2c0.3,0.8,0.5,1.7,1.2,2.4c1,1,2.7,0.9,4.2,0.9c4.3,0.2,8.4,2.8,10.3,6.6
	c0.5,0.9,0.8,1.9,1.6,2.5c1,0.8,2.3,0.9,3.6,0.9c4.1,0.1,8.6,0.1,11.8,2.6c1.5,1.2,2.6,2.7,3.9,4.1c2.7,2.6,6.4,4,10.1,3.9
	c2.3-0.1,4.6-0.8,6.9-0.9c2.3-0.1,4.8,0.4,6.3,2.2c1.4,1.8,2.1,4.8,4.4,4.7c0.7,0,1.4-0.4,2-0.8c4.1-2.3,8.9-3.2,13.5-2.4
	c0.8,0.1,1.6,0.3,2.3-0.1c0.3-0.2,0.6-0.6,0.8-0.9c0.6-1.1,1-2.2,0.6-3.3c-1.2,0.3-3.2,2.5-3,3.9c0,0,1.4,9,10,8.9
	c8.6-0.1,20.8-5.5,33.9,7.9c25.6-6,30.6,1,30.6,1L311.8,176.5z"/>
<path class="st0" d="M384.5,153.4c4-6.6,11.5-10.9,19.3-11c1.8-4.4,6-7.5,10.5-8.9c4.6-1.3,9.5-1,14.1,0.1c0.5-4.5,3.9-8.3,8-10.2
	c4.1-1.9,8.7-2.3,13.2-2.1c-8.4,3.4-15,11-17,19.9c-7.7-4.1-18.1-1.8-23.4,5.1c-1.1,1.4-2.2,3.2-3.9,3.5c-1,0.2-1.9,0-2.9-0.2
	c-3.8-0.5-7.8,0.8-10.6,3.5c-2,2-3.7,4.9-6.5,5.3c-1.2,0.2-2.4-0.2-3.7-0.2c-3.1-0.1-13.9,7.1-13.1,1.1c0.4-2.8,4-4.2,6.2-5
	C376,153.9,384.5,153.4,384.5,153.4z"/>
<g>
	<path class="st3" d="M381.8,169.8c0,0.3-0.1,0.6,0,0.9c0.1,0.3,0.4,0.5,0.8,0.5c0.3,0,0.6-0.1,0.9-0.3c3.2-2.3-0.3-6-3.2-6
		c-1,0-1.9,0.4-1.1,1.5C380.1,167.6,382.1,167.5,381.8,169.8z"/>
	<path class="st3" d="M396.4,171.4c1.2-0.3,2.6-0.1,3.6,0.7c1,0.8,1.6,2,1.7,3.3c0-0.2,0.8-1.1,1-1.4c0.2-0.5,0.4-1.1,0.4-1.7
		c0-0.9-0.2-2.1-1-2.7C400.1,168.2,397.7,170,396.4,171.4z"/>
	<path class="st3" d="M458.6,137.5c1.2-0.3,2.6-0.1,3.6,0.7c1,0.8,1.6,2,1.7,3.3c0-0.2,0.8-1.1,1-1.4c0.2-0.5,0.4-1.1,0.4-1.7
		c0-0.9-0.2-2.1-1-2.7C462.2,134.4,459.8,136.2,458.6,137.5z"/>
	<path class="st3" d="M410.4,171.4c1.3-0.1,2.6,0.4,3.4,1.4c0.8,0.9,1.2,2.3,1,3.5c0-0.2,1-0.9,1.2-1.2c0.3-0.5,0.6-1,0.7-1.6
		c0.2-0.9,0.2-2.1-0.4-2.8C414.7,169,412,170.3,410.4,171.4z"/>
	<path class="st3" d="M448.8,133c1.3-0.1,2.6,0.4,3.4,1.4c0.8,0.9,1.2,2.3,1,3.5c0-0.2,1-0.9,1.2-1.2c0.3-0.5,0.6-1,0.7-1.6
		c0.2-0.9,0.2-2.1-0.4-2.8C453.1,130.7,450.3,131.9,448.8,133z"/>
	<path class="st3" d="M436.4,167.7c1.3-0.1,2.6,0.4,3.4,1.4c0.8,0.9,1.2,2.3,1,3.5c0-0.2,1-0.9,1.2-1.2c0.3-0.5,0.6-1,0.7-1.6
		c0.2-0.9,0.2-2.1-0.4-2.8C440.7,165.4,438,166.7,436.4,167.7z"/>
	<path class="st3" d="M390.7,169.4c-1,0-2,0.3-2.9,0.8c-0.3,0.2-0.7,0.5-0.7,0.9c1.2-0.5,2.8,0.3,3,1.5c0.8,0,1.5-0.7,1.6-1.5
		c0.1-0.8-0.5-1.6-1.3-1.8"/>
	<path class="st3" d="M413.8,180.5c-0.7-1-2.2-1.4-3.4-0.9c1.7,1,2.6,3.4,1.8,5.2c0.4,0.1,0.8-0.2,1.2-0.5c0.8-0.7,1.6-1.5,1.5-2.6
		c-0.1-0.9-0.9-1.4-1.7-1.9"/>
	<path class="st3" d="M412.5,160c0.5,0.8,0.7,1.8,0.7,2.8c0-0.2,1.2-1.3,1.4-1.6c0.3-0.7,0.5-1.4,0.4-2.1c-0.1-1.2-0.9-2.3-2.1-2.5
		c-0.8-0.1-3.3,0.3-3.5,1.3C409.2,158.5,411.9,159,412.5,160z"/>
	<path class="st3" d="M420.6,166c0.3,0.2,0.6,0.1,0.9-0.1c0.6-0.3,1.2-0.8,1.6-1.4c1.6-2.5-2.2-5.1-4.2-3.1
		C420.3,162.5,421.2,164.2,420.6,166z"/>
	<path class="st3" d="M433,160c0.6,0.8,0.8,1.8,1.1,2.7c0.8-0.1,1.4-0.8,1.8-1.4c2.5-3.8-4.5-6.6-5.3-2.8
		C431.7,158.6,432.5,159.2,433,160z"/>
	<path class="st3" d="M429.4,170.8c0.6,0.8,0.8,1.8,1.1,2.7c0.8-0.1,1.4-0.8,1.8-1.4c2.5-3.8-4.5-6.6-5.3-2.8
		C428,169.4,428.9,169.9,429.4,170.8z"/>
	<path class="st3" d="M444.5,153.1c0.7,0.7,0.8,1.8,1.1,2.8c0,0.1,0.1,0.2,0.2,0.3c0.1,0.1,0.3,0.1,0.4,0.1c0.6,0,1.1-0.5,1.5-0.9
		c3.1-3.2-3.6-5.5-5.9-3C442.7,152.4,443.8,152.4,444.5,153.1z"/>
	<path class="st3" d="M375.7,176.9c0,0.1-0.1,0.3,0,0.4c0.1,0.5,0.9,0.6,1.4,0.3c1.8-1.2,1.4-5.3-1.2-5.3c-0.9,0-1.6,0.4-1.4,1.4
		c0.1,0.4,0.8,0.8,1.1,1.2C375.8,175.6,375.8,176.3,375.7,176.9z"/>
	<path class="st3" d="M298.9,216c1.6,0.6,3.4-0.2,4.5-1.6c1-1.3,1.4-3.1,1.7-4.7c0.2-0.9,0.3-2-0.1-2.8c-0.4-1-1.4-1.5-2.3-2
		c-2.7-1.2-6.9-2-5.5,1.8C298.4,210.1,300.4,212.2,298.9,216z"/>
	<path class="st3" d="M284.8,198.4c1.6-0.3,3.3,0.6,4.3,2s1.3,3.1,1.3,4.8c0.8,0,1.5-0.5,2.1-1.1c0.9-1,1.5-2.3,1.4-3.7
		c-0.1-1.4-0.8-2.7-1.9-3.4c-0.7-0.5-1.6-0.6-2.5-0.7c-1-0.1-2.1-0.2-3,0.2c-1,0.4-1.8,1.2-2,2.2"/>
	<path class="st3" d="M298.9,231.2c2.5,1.6,6.2,0.9,7.9-1.4c1.8-2.4,1.4-6.1-0.9-8c-0.6-0.6-1.4-1-2.3-1c-3.1-0.2-1.2,3-1.4,4.8
		C302.1,227.8,300.8,230,298.9,231.2z"/>
	<path class="st3" d="M297.3,196.6c1.3-0.2,2.2-0.1,3.3,0.4c0.3,0.2,0.6,0.4,0.8,0.7c0.6,0.9-0.1,2.3,0.3,3.4
		c1.4-0.6,2.3-2.2,2.1-3.8s-1.6-2.8-3.1-3c-1.5-0.2-3.1,0.8-3.6,2.3"/>
	<path class="st3" d="M308,213.3c1.3,0.7,2.3,2.1,2.4,3.6c0.2,1.5-0.4,3.1-1.5,4.1c1.3-0.1,2.6-0.6,3.5-1.5c0.9-0.9,1.5-2.2,1.3-3.5
		c-0.3-2.1-2.6-3.6-4.8-3.6c-0.7,0-1.7,0.4-1.5,1.1c0.2-0.1,0.5-0.2,0.7-0.2"/>
	<path class="st3" d="M123.3,138.5c1.2-1.7,3.2-2.8,5.3-2.7c0-2-1.7-3.8-3.7-4.1c-2-0.3-4,0.8-5.1,2.4c-1.1,1.7-1.3,3.8-0.7,5.8
		c0.3,1,1.5,4.3,2.8,3.7C122.6,143.3,122.6,139.4,123.3,138.5z"/>
	<path class="st3" d="M112.5,116.9c-1.2,1.1-2.1,2.5-2.3,4.1c-0.2,1.6,0.6,3.3,2.1,4c-0.5-1-0.2-2.3,0.5-3.2
		c0.7-0.9,1.7-1.4,2.8-1.8c1.7-0.6,3.9-0.5,5.1,0.9c-1-1.2,0.4-4.1-1.9-5.5C116.8,114.3,114,115.5,112.5,116.9z"/>
	<path class="st3" d="M139,135.9c-2.4-1-5.5,0.6-6.1,3.1c-0.6,2.5,1.5,5.3,4.1,5.5c-0.8-1.1-0.8-2.7,0.1-3.8c0.9-1,2.5-1.4,3.7-0.7
		c-0.2-1.5-0.8-2.9-1.6-4.2"/>
	<path class="st3" d="M125.4,153.6c-2.1,1.3-3.2,4.1-2.5,6.4c-2-0.5-3.2-3.1-2.3-4.9s3.7-2.5,5.3-1.2"/>
	<path class="st3" d="M479.9,120.4c1.1,1.3,1.5,3.1,1.2,4.8c2.2-1.5,3.5-4.2,3.2-6.8c-0.1-0.9-0.4-1.8-1.1-2.2
		c-0.3-0.2-0.7-0.3-1.1-0.3c-1.7-0.2-4.6-0.1-5.8,1.4c-1.1,1.3-0.4,0.9,0.8,1.5C478.2,119.1,479.2,119.5,479.9,120.4z"/>
	<path class="st3" d="M485.1,130c2-0.3,4,1.3,4.5,3.2c0.4,2-0.7,4.2-2.5,5c0-1.1-0.1-2.2-0.7-3.1c-0.6-0.9-1.8-1.5-2.8-1.1
		c-0.5,0.2-1,0.5-1.5,0.4c-0.6-0.1-0.9-0.7-0.9-1.3C481.1,131.3,483.6,130.2,485.1,130z"/>
	<path class="st3" d="M490.3,120.9c-1.8,0.1-3.8,1.3-4,3.1c0,0.1,0,0.3,0,0.4c0.1,0.1,0.2,0.2,0.4,0.2c1.1,0.2,2.4-0.4,3.1,0.4
		c0.3,0.3,0.4,0.8,0.6,1.3c0.2,0.4,0.5,0.9,1,0.9c0.9-1.4,1.2-3.2,0.6-4.8c-0.2-0.5-0.4-0.9-0.8-1.2c-0.4-0.3-1-0.4-1.4-0.1"/>
	<path class="st3" d="M482.5,146.3c0.6,0.8,1.1,1.7,1.3,2.6c0.2,1,0,2-0.6,2.8c1.9-0.5,3.4-2.1,3.7-3.9c0.4-1.9-0.4-3.9-2-5.1
		c-1.1-0.8-2.5-1.1-3.8-0.8c-1.3,0.3-2.4,1.3-2.7,2.6C480.1,144.2,481.5,145.1,482.5,146.3z"/>
	<path class="st3" d="M493.7,131.5c1.7,0.3,3.1,1.8,3.2,3.6c1.2-0.7,2.1-2,2-3.4s-1-2.8-2.4-3c-0.8-0.2-1.7,0.1-2.4,0.7
		s-0.9,1.5-0.8,2.3"/>
	<path class="st3" d="M495.5,106.8c1.8-0.2,3.7,0.8,4.7,2.3c1,1.5,1.1,3.6,0.2,5.2c-1.2-1.7-2.6-3.5-4.7-3.6c-0.9,0-1.7,0.2-2.6,0.5
		c-1.1,0.4-2.3,0.9-3.4,1.1C489.2,109.6,493.1,107,495.5,106.8z"/>
	<path class="st3" d="M476.2,105.5c-0.4,0.5-0.7,1.4-0.3,1.9c0.3,0.4,0.9,0.4,1.3,0.3s0.9-0.4,1.3-0.6c0.9-0.3,1.9-0.2,2.7,0.3
		c0.7,0.5,1.6,1.3,2.3,0.9c2.2-1.2-0.4-4.4-1.8-4.7C479.8,103.1,477.5,103.8,476.2,105.5z"/>
	<path class="st3" d="M498.8,120.3c1.7,0.7,3.1,2,3.9,3.6c1-0.5,1.6-1.8,1.4-2.9c-0.2-1.1-1.3-2-2.4-2.1c-1.2-0.1-2.4,0.7-3.3,1.5"
		/>
	<path class="st3" d="M471.9,134.9c0.9-0.3,2-0.1,2.8,0.5c0.8,0.6,1.3,1.5,1.3,2.5c0.5,0.2,1.1,0,1.4-0.5s0.5-1,0.5-1.5
		c0.1-1-0.2-2.2-1.1-2.8c-0.7-0.6-1.8-0.6-2.6-0.3c-0.9,0.3-1.6,0.9-2.2,1.6C471.9,134.6,471.8,134.9,471.9,134.9"/>
	<path class="st3" d="M467.6,144.4c2-0.3,4,1.3,4.5,3.2c0.4,2-0.7,4.2-2.5,5c0-1.1-0.1-2.2-0.7-3.1c-0.6-0.9-1.8-1.5-2.8-1.1
		c-0.5,0.2-1,0.5-1.5,0.4c-0.6-0.1-0.9-0.7-0.9-1.3C463.6,145.7,466.1,144.5,467.6,144.4z"/>
	<path class="st3" d="M451,149.1c0.6,0.8,1.1,1.7,1.3,2.6c0.2,1,0,2-0.6,2.8c1.9-0.5,3.4-2.1,3.7-3.9c0.4-1.9-0.4-3.9-2-5.1
		c-1.1-0.8-2.5-1.1-3.8-0.8c-1.3,0.3-2.4,1.3-2.7,2.6C448.6,147,450,147.8,451,149.1z"/>
	<path class="st3" d="M440.4,137.7c0.9-0.3,2-0.1,2.8,0.5c0.8,0.6,1.3,1.5,1.3,2.5c0.5,0.2,1.1,0,1.4-0.5s0.5-1,0.5-1.5
		c0.1-1-0.2-2.2-1.1-2.8c-0.7-0.6-1.8-0.6-2.6-0.3c-0.9,0.3-1.6,0.9-2.2,1.6C440.4,137.3,440.3,137.7,440.4,137.7"/>
	<path class="st3" d="M357.1,181.2c0.3,0.7,0.5,1.4,0.4,2.2s-0.6,1.4-1.3,1.7c2.5,0.4,5.2-1.3,5.9-3.7s-0.9-5.3-3.3-6.1
		c-1.1-0.4-2.3-0.3-3.4,0c-0.7,0.2-1.8,0.5-2.4,1c-1.1,1-0.9,0.7,0.1,1.5C354.7,178.9,356.2,179.2,357.1,181.2z"/>
	<path class="st3" d="M366.4,188.4c0.6,1,0.8,2.4,0,3.3c1.5,0.4,3.1-0.4,3.9-1.7c0.8-1.3,0.8-3,0-4.4c-0.2-0.4-0.5-0.7-0.8-0.9
		c-0.4-0.3-0.9-0.4-1.4-0.4c-1.2-0.1-2.4,0-3.5,0.4C361.6,185.6,365.6,187.3,366.4,188.4z"/>
	<path class="st3" d="M368,179.8c1.1,0.1,2.1-0.4,2.7-1.4c0.5-0.9,0.4-2.2-0.3-2.9c-0.3-0.3-0.6-0.5-0.9-0.7
		c-0.9-0.4-4.6-1.1-4.4,0.7c0,0.4,1.6,1.3,1.9,1.7C367.6,178,368,178.9,368,179.8z"/>
	<path class="st3" d="M335.7,184.9c1.3,1.3,1.5,3.7,0.4,5.2c0.6,0.2,1.3,0,1.8-0.4c0.5-0.4,0.8-1,1-1.6c0.5-1.3,0.5-2.8-0.4-3.9
		c-0.8-1.1-2.6-1.4-3.6-0.5c-0.2,0.2-0.3,0.4-0.3,0.7c0.5,0.3,1.1,0.5,1.6,0.6"/>
	<path class="st3" d="M392.3,188.8c0.5,2.1,0,4.4-1.4,5.9c1.4,0.4,2.9-0.4,4-1.4c0.9-0.8,1.7-1.7,2.3-2.8c0.5-1.1,0.8-2.3,0.5-3.5
		c-0.4-1.4-1.6-2.5-2.9-3.3c-0.9-0.5-5.1-2.3-5.6-0.5C388.9,184.1,392,187.6,392.3,188.8z"/>
	<path class="st3" d="M423.3,179.8c0.5,2.1,0,4.4-1.4,5.9c1.4,0.4,2.9-0.4,4-1.4c0.9-0.8,1.7-1.7,2.3-2.8c0.5-1.1,0.8-2.3,0.5-3.5
		c-0.4-1.4-1.6-2.5-2.9-3.3c-0.9-0.5-5.1-2.3-5.6-0.5C419.9,175.1,423,178.6,423.3,179.8z"/>
	<path class="st3" d="M423.4,152.4c0.7,0.8,1,2,0.7,3.1c0.8-0.1,1.2-0.9,1.5-1.6c0.2-0.6,0.4-1.2,0.4-1.8s-0.2-1.3-0.6-1.7
		c-0.5-0.6-1.3-0.8-2.1-0.9c-0.5,0-2.9,0.1-2.7,1C420.7,151,423,151.9,423.4,152.4z"/>
	<path class="st3" d="M466.9,128.8c1,0.5,1.8,1.4,1.9,2.5c0.6-0.4,0.8-1.3,0.8-2.1c0-0.6-0.1-1.3-0.3-1.8c-0.2-0.6-0.7-1.1-1.2-1.3
		c-0.7-0.3-1.5-0.2-2.2,0c-0.5,0.2-2.6,1.3-2.1,2.1C463.9,128.6,466.3,128.5,466.9,128.8z"/>
	<path class="st3" d="M402.3,163.7c1,0.5,1.8,1.4,1.9,2.5c0.6-0.4,0.8-1.3,0.8-2.1c0-0.6-0.1-1.3-0.3-1.8c-0.2-0.6-0.7-1.1-1.2-1.3
		c-0.7-0.3-1.5-0.2-2.2,0c-0.5,0.2-2.6,1.3-2.1,2.1C399.3,163.5,401.7,163.4,402.3,163.7z"/>
	<path class="st3" d="M403,182c0.6,0.9,0.8,2.1,0.4,3.1c0.8-0.1,1.3-0.7,1.7-1.4c0.3-0.6,0.5-1.1,0.6-1.8c0.1-0.6-0.1-1.3-0.4-1.8
		c-0.5-0.6-1.2-0.9-2-1.1c-0.5-0.1-2.9-0.1-2.8,0.8C400.5,180.3,402.6,181.4,403,182z"/>
	<path class="st3" d="M382.4,184.9c0.4,1.3,0.3,2.8,0.2,4.2c0.6,0.1,1.3-0.3,1.7-0.7c1-0.9,1.6-2.2,1.5-3.6
		c-0.1-1.3-0.9-2.6-2.1-3.2c-0.7-0.3-2.6-0.7-2.9,0.4C380.6,182.9,382.1,184.1,382.4,184.9z"/>
	<path class="st3" d="M375,187.8c1.1,1.6,0.9,3.8-0.3,5.3c1.3,0.3,2.5-0.9,3.4-2c0.6-0.7,1.2-1.5,1.1-2.4c0-0.9-0.7-1.7-1.5-2.2
		c-0.7-0.5-1.6-0.8-2.5-0.6s-1.5,1.1-1.2,2c0.4,0,0.7,0,1.1,0"/>
	<path class="st3" d="M446.1,164.7c0.9,0.7,1.6,1.9,1.2,3c1.5-0.2,2.8-1.5,3.1-3c0.3-1.5-0.4-3.1-1.6-4.1c-0.3-0.3-0.7-0.5-1.1-0.5
		c-0.5-0.1-1,0-1.5,0.1c-1.2,0.3-2.2,0.8-3.2,1.6C440.6,163.8,445,163.9,446.1,164.7z"/>
	<path class="st3" d="M459.8,155.7c0.9,1.1,1.3,2.5,1.7,3.8c0.6-0.1,1.1-0.7,1.4-1.3c0.6-1.2,0.7-2.7,0.1-3.9
		c-0.6-1.2-1.8-2.1-3.1-2.2c-0.7,0-2.7,0.3-2.6,1.4C457.4,154.4,459.3,155,459.8,155.7z"/>
	<path class="st3" d="M453.9,161.1c1.6,1.1,2.3,3.2,1.6,5c1.4-0.2,2-1.7,2.5-3c0.3-0.9,0.6-1.8,0.2-2.6c-0.4-0.8-1.3-1.3-2.2-1.5
		c-0.8-0.2-1.8-0.2-2.5,0.3c-0.7,0.5-1,1.6-0.4,2.3c0.4-0.1,0.7-0.2,1.1-0.4"/>
	<path class="st3" d="M188.1,169.1c0,0.3,0,0.6-0.1,0.9c-0.2,0.3-0.5,0.4-0.8,0.3c-0.3-0.1-0.6-0.3-0.8-0.5
		c-2.8-2.8,1.4-5.8,4.2-5.3c1,0.2,1.8,0.7,0.8,1.6C190.1,167.3,188.2,166.8,188.1,169.1z"/>
	<path class="st3" d="M173.4,168c-1.1-0.6-2.5-0.6-3.7,0c-1.1,0.6-2,1.7-2.2,2.9c0-0.2-0.6-1.2-0.7-1.5c-0.1-0.6-0.2-1.2-0.1-1.7
		c0.1-0.9,0.6-2,1.5-2.4C170.3,164.2,172.4,166.4,173.4,168z"/>
	<path class="st3" d="M159.6,165.3c-1.2-0.3-2.6,0-3.6,0.7c-1,0.8-1.6,2-1.6,3.3c0-0.2-0.9-1.1-1-1.4c-0.2-0.5-0.4-1.1-0.4-1.7
		c-0.1-0.9,0.2-2.1,1-2.7C155.9,162.2,158.3,164,159.6,165.3z"/>
	<path class="st3" d="M129.1,120.5c-1.2-0.3-2.6-0.1-3.6,0.7c-1,0.8-1.6,2-1.6,3.3c0-0.2-0.8-1.1-1-1.4c-0.2-0.5-0.4-1.1-0.4-1.7
		c-0.1-0.9,0.2-2.1,1-2.7C125.3,117.4,127.8,119.1,129.1,120.5z"/>
	<path class="st3" d="M134.8,156.9c-1.2-0.3-2.6,0-3.6,0.7c-1,0.8-1.6,2-1.6,3.3c0-0.2-0.9-1.1-1-1.4c-0.2-0.5-0.4-1.1-0.4-1.7
		c-0.1-0.9,0.2-2.1,1-2.7C131,153.8,133.4,155.6,134.8,156.9z"/>
	<path class="st3" d="M179.3,167c1,0.2,2,0.7,2.7,1.3c0.3,0.3,0.6,0.7,0.5,1c-1.1-0.8-2.8-0.3-3.2,0.9c-0.8-0.2-1.4-1-1.3-1.7
		c0.1-0.8,0.8-1.5,1.6-1.5"/>
	<path class="st3" d="M154.6,173.7c0.9-0.9,2.4-1,3.5-0.3c-1.9,0.7-3.1,2.8-2.8,4.8c-0.4,0.1-0.8-0.3-1-0.7c-0.6-0.8-1.3-1.8-1-2.8
		c0.3-0.8,1.2-1.2,2-1.6"/>
	<path class="st3" d="M159.7,153.7c-0.7,0.7-1,1.7-1.2,2.6c0-0.2-0.9-1.5-1-1.8c-0.2-0.7-0.3-1.5,0-2.2c0.4-1.2,1.3-2.1,2.6-2.1
		c0.8,0,3.2,0.9,3.2,1.9C163.2,152.9,160.5,152.9,159.7,153.7z"/>
	<path class="st3" d="M150.6,158.2c-0.3,0.1-0.6-0.1-0.9-0.3c-0.6-0.5-1.1-1-1.3-1.7c-1.1-2.7,3.1-4.6,4.7-2.3
		C151.5,154.8,150.4,156.3,150.6,158.2z"/>
	<path class="st3" d="M139.5,149.9c-0.7,0.7-1.1,1.6-1.6,2.5c-0.8-0.2-1.2-1-1.5-1.8c-1.7-4.2,5.7-5.6,5.7-1.8
		C141.1,148.9,140.2,149.2,139.5,149.9z"/>
	<path class="st3" d="M138.6,165.1c-0.7,0.7-1.1,1.6-1.6,2.5c-0.8-0.2-1.2-1-1.5-1.8c-1.7-4.2,5.7-5.6,5.7-1.8
		C140.2,164,139.3,164.3,138.6,165.1z"/>
	<path class="st3" d="M129.6,141.1c-0.8,0.6-1.1,1.6-1.6,2.5c-0.1,0.1-0.1,0.2-0.2,0.2c-0.1,0.1-0.3,0.1-0.4,0
		c-0.6-0.1-1-0.7-1.3-1.2c-2.5-3.7,4.6-4.7,6.3-1.9C131.4,140.7,130.4,140.5,129.6,141.1z"/>
	<path class="st3" d="M192.7,177.3c0,0.2,0,0.3,0,0.4c-0.2,0.5-1,0.4-1.4,0c-1.5-1.6-0.4-5.4,2.1-5c0.8,0.2,1.5,0.7,1.1,1.6
		c-0.2,0.4-1,0.6-1.3,1C192.8,175.9,192.7,176.6,192.7,177.3z"/>
	<path class="st3" d="M123.9,135.9c-0.7,0.7-1.4,1.4-1.8,2.4c-0.4,0.9-0.4,2,0,2.9c-1.7-0.8-2.9-2.7-2.9-4.6c0-1.9,1.2-3.8,2.9-4.6
		c1.2-0.6,2.7-0.7,3.9-0.1c1.2,0.5,2.1,1.7,2.2,3.1C126.7,134.3,125.2,134.8,123.9,135.9z"/>
	<path class="st3" d="M136.4,126.6c-0.9-0.4-1.9-0.5-2.8,0c-0.9,0.4-1.5,1.3-1.7,2.2c-0.5,0.1-1.1-0.3-1.3-0.7
		c-0.3-0.5-0.3-1-0.2-1.6c0.1-1,0.6-2.1,1.6-2.5c0.8-0.4,1.8-0.3,2.6,0.2c0.8,0.5,1.4,1.2,1.9,2
		C136.5,126.3,136.5,126.7,136.4,126.6"/>
	<path class="st3" d="M182.6,196.3c-0.8,0.8-1.2,2.2-0.6,3.2c-1.5,0.1-3-1-3.6-2.4c-0.5-1.4-0.2-3.1,0.8-4.3c0.3-0.3,0.6-0.6,1-0.7
		c0.5-0.2,1-0.2,1.5-0.2c1.2,0.1,2.4,0.4,3.4,1C187.8,194.4,183.6,195.3,182.6,196.3z"/>
	<path class="st3" d="M199.7,181.5c-1-0.1-2-0.8-2.4-1.8c-0.4-1,0-2.2,0.8-2.8c0.3-0.2,0.7-0.4,1-0.5c0.9-0.3,4.7-0.2,4.2,1.5
		c-0.1,0.4-1.8,0.9-2.2,1.3C200.5,179.8,199.9,180.6,199.7,181.5z"/>
	<path class="st3" d="M174.2,185.9c-0.9,1.9-0.9,4.3,0.3,6.1c-1.5,0.2-2.7-1-3.7-2.1c-0.7-1-1.4-2-1.7-3.2s-0.3-2.5,0.2-3.5
		c0.7-1.3,2-2.2,3.4-2.7c0.9-0.4,5.4-1.3,5.6,0.5C178.4,181.8,174.7,184.7,174.2,185.9z"/>
	<path class="st3" d="M145.4,171.3c-0.9,1.9-0.9,4.3,0.3,6.1c-1.5,0.2-2.7-1-3.7-2.1c-0.7-1-1.4-2-1.7-3.2s-0.3-2.5,0.2-3.5
		c0.7-1.3,2-2.2,3.4-2.7c0.9-0.4,5.4-1.3,5.6,0.5C149.6,167.2,146,170.1,145.4,171.3z"/>
	<path class="st3" d="M150.4,144.3c-0.8,0.7-1.4,1.8-1.3,2.9c-0.7-0.3-1-1.1-1.2-1.8c-0.1-0.6-0.2-1.2-0.1-1.9
		c0.1-0.6,0.4-1.2,0.9-1.6c0.6-0.5,1.4-0.5,2.2-0.5c0.5,0.1,2.8,0.6,2.5,1.5C153.3,143.4,150.9,143.8,150.4,144.3z"/>
	<path class="st3" d="M169,159.3c-1.1,0.3-2,1.1-2.3,2.1c-0.6-0.5-0.5-1.4-0.4-2.2c0.1-0.6,0.3-1.2,0.7-1.7s0.9-0.9,1.5-1.1
		c0.7-0.2,1.5,0.1,2.2,0.5c0.5,0.3,2.3,1.7,1.6,2.4C172,159.6,169.7,159.1,169,159.3z"/>
	<path class="st3" d="M162.6,182c-0.8,0.8-1.2,1.9-1,3c-0.7-0.2-1.1-1-1.4-1.7c-0.2-0.6-0.3-1.2-0.3-1.8c0.1-0.6,0.3-1.2,0.8-1.7
		c0.6-0.5,1.4-0.7,2.1-0.7c0.5,0,2.8,0.4,2.6,1.3C165.4,180.8,163.1,181.5,162.6,182z"/>
	<path class="st3" d="M184.6,183.8c-0.7,1.2-0.8,2.7-1,4.1c-0.6,0-1.2-0.5-1.6-1c-0.8-1.1-1.2-2.5-0.8-3.8c0.3-1.3,1.4-2.4,2.7-2.7
		c0.7-0.2,2.7-0.2,2.8,0.9C186.8,182.2,185,183.1,184.6,183.8z"/>
	<path class="st3" d="M191.4,188.1c-1.3,1.3-1.6,3.6-0.7,5.2c-1.4,0-2.3-1.3-3-2.5c-0.4-0.8-0.9-1.7-0.7-2.5c0.2-0.9,1-1.5,1.9-1.9
		c0.8-0.3,1.7-0.5,2.5-0.2c0.8,0.4,1.3,1.4,0.8,2.1c-0.4-0.1-0.7-0.1-1.1-0.2"/>
	<path class="st3" d="M118.8,147.1c-1.7,0.8-2.8,2.8-2.5,4.6c-1.3-0.5-1.7-2.1-1.8-3.4c-0.1-0.9-0.2-1.9,0.3-2.6
		c0.5-0.8,1.5-1,2.4-1.1c0.9,0,1.8,0.1,2.4,0.7c0.6,0.6,0.7,1.8,0,2.3c-0.3-0.2-0.6-0.4-1-0.6"/>
</g>
</svg>
