<?xml version="1.0" encoding="utf-8"?>
<!-- Generator: Adobe Illustrator 22.0.1, SVG Export Plug-In . SVG Version: 6.00 Build 0)  -->
<!DOCTYPE svg PUBLIC "-//W3C//DTD SVG 1.1//EN" "http://www.w3.org/Graphics/SVG/1.1/DTD/svg11.dtd">
<svg version="1.1" id="Layer_1" xmlns="http://www.w3.org/2000/svg" xmlns:xlink="http://www.w3.org/1999/xlink" x="0px" y="0px"
	 viewBox="0 0 488.5 340.6" style="enable-background:new 0 0 488.5 340.6;" xml:space="preserve">
<style type="text/css">
	.st0{fill:#0065A1;}
	.st1{fill:#00C1DE;}
	.st2{fill:#FFCD00;}
	.st3{fill:#FF595A;}
</style>
<g>
	<path class="st0" d="M57.3,69.4c0.7,6,3.2,11.7,7.1,16.3c-6.4-2.1-10.8-8.1-13.4-14.3c-2.6-6.2-3.7-13-6.2-19.3
		c-4.6-11.6-13.4-21-22-30.1c2.5,11.4,4,23,4.5,34.6c-7.6-10.5-13-22.5-15.7-35.1c-9.3,24-2.2,53.3,17,70.4
		c-6.9,1.6-14.6-1.3-18.7-7.2c6.4,16.9,17.6,31.9,31.9,42.8c-7.1,2-14.8,2.1-22,0.3c3.4,9.8,14.3,15.1,24.6,16.6
		c18.3,2.7,36.6-2.8,54.2-8.3c-4.7,1.5-14.3-9.8-15.6-13.4c-2.2-6.1,0.5-13.2-0.7-19.8C79.9,88.8,70.5,75.6,57.3,69.4z"/>
	<path class="st0" d="M429.8,65.5c4.6-11.5,15-20,19.8-31.3c1.5,9.1,1.6,18.4,0.1,27.5c0.9-20.6,27.7-33,28.5-53.7
		c2,11.5,4,23.1,3.6,34.8c-0.4,11.7-3.4,23.6-10.5,32.9c5.4-4.2,9.6-10.1,11.7-16.7c3.2,18.5-4.4,38.5-19.1,50.2
		c7.3-3.2,14.1-7.5,20.1-12.7c-3.5,11.9-13.2,21.3-24.2,27.2s-23.3,8.6-35.5,11c5.1-4.6,25.6-25.7,19.1-32.7
		c-5.5,2.5-9.2,10-14.5,13.6c-3.6,2.4-8.1,4-12.4,3.2c-4.9-0.8-3.9-47.9,12.7-33.9C431,86.3,426,74.9,429.8,65.5z"/>
	<path class="st1" d="M69.7,87.5c0.3,2.4,1.2,9.1-0.1,10.9c-3.2-2.9-6.3-5.8-9.5-8.6C53,83.4,45.7,76.7,42,67.9
		c-2.2-5.3-3.1-11.1-5.7-16.2c-0.5,4.2-2,8.2-3,12.3s-1.4,8.6,0.2,12.4c-3.1-2.1-6-4.5-8.6-7.2c1.9,10.9,7.6,21.1,15.9,28.4
		c-3.7,0.3-7.4,0.1-11-0.6c3.6,13.6,14.6,25,28.1,28.9c-3.5,2.1-7.2,3.7-11.1,4.9c4.4,4.9,12,5.1,18.5,3.9s13.3-3.1,19.5-1.1
		c-2.9-2.6-5.8-5.2-8.7-7.8c-2.1-1.9-4.4-4.4-3.3-7.5c0.9-2.7,2.2-4.2,3-7.3C77.7,104.6,77.1,92,69.7,87.5z"/>
	<path class="st1" d="M423.3,109.1c0,0,1.8-13.2,10.8-6.8L423.3,109.1z"/>
	<path class="st1" d="M437.3,99.9c0,0-6-13,0-20.2s6-13.8,6-13.8s4.2,10.8,1.8,15.5c0,0,3.8-12.5,11-16s13.5-16,14.8-22
		c0,0-2,37.2-10.2,43.2c0,0,11-3,13.8-6.2c0,0-7,22.2-21,27.2l-6.8,8.8c0,0,19.8-2,23.5-6.5c0,0-7.8,11-31,13.2L437.3,99.9z"/>
	<path class="st0" d="M311,177.9c4-18,24-54,82-62s69-48,69-48s8,60-62,75s-33,93-33,93L311,177.9z"/>
	<path class="st0" d="M192.9,182.6c-4-18-24-54-82-62s-69-48-69-48s-8,60,62,75s33,93,33,93L192.9,182.6z"/>
</g>
<g id="Temple_steps_2_">
	<g>
		<polyline class="st1" points="438.7,226.2 438.6,261.4 246.5,332.6 58,260.7 58.2,224.4 		"/>
		<polygon class="st0" points="439.6,226.1 247.4,298 58,223.9 248.1,154.4 		"/>
	</g>
	<g>
		<polyline class="st1" points="404,193.7 403.9,222.5 247,280.6 92.9,221.9 93,192.2 		"/>
		<polygon class="st0" points="404.8,193.6 245.5,254.1 92.9,191.8 248.2,135 		"/>
	</g>
	<g>
		<polyline class="st1" points="371.9,169.2 371.8,192.1 247.4,238.2 125.2,191.6 125.3,168.1 		"/>
		<polygon class="st0" points="372.5,169.2 248.7,219.6 125.2,167.8 248.3,122.8 		"/>
	</g>
	<polyline class="st1" points="348.5,147.5 348.4,166 247.9,203.2 149.2,165.6 149.3,146.6 	"/>
	<polygon class="st0" points="348.7,146.7 247.6,181.4 148.9,145.5 248.4,109.2 	"/>
	<polyline class="st1" points="248.5,89.3 302.4,109.5 302.2,143.9 248.7,164.3 195.3,143.8 195.3,108.9 	"/>
	<polygon class="st0" points="302.5,109.5 248.6,128 195.1,108.9 248.6,89.3 	"/>
	<polygon class="st1" points="287.4,109.2 248.7,122.5 210.3,108.7 248.7,94.7 	"/>
</g>
<g id="River_4_">
	<polygon class="st0" points="228.8,155.8 229.1,134.3 203.7,125.1 203.7,146.3 	"/>
	<polygon class="st1" points="198.7,140.2 173.1,150.5 177.6,152.5 203.3,141.8 	"/>
	<polygon class="st0" points="204.3,141.1 204.3,146 184.6,154.5 196,145 	"/>
	<polygon class="st0" points="208.4,164 125,267.1 132.5,271.9 170.4,255 170.6,226 190.4,217.6 190.6,196.1 208.9,188.8 	"/>
	<polygon class="st1" points="173.1,150.5 76.4,267.2 81.3,269 177.7,152.4 	"/>
	<polygon class="st0" points="177.7,152.4 93.4,254.3 101.3,259.3 127.5,232.5 139.3,213.4 153,198.7 162.7,185 185.5,161.7 	"/>
	<path class="st2" d="M208.6,126.9c-0.4,3.6,0.8,6,0.4,9.7c-1.5,12.3-16.9,10.8-25.7,15c-2.1,1-4.1,2.4-5,4.4
		c-0.5,1-0.7,2.1-1.2,3.1c-0.7,1.2-1.8,2.1-2.9,3c-2.8,2.2-5.7,4.4-8.5,6.6c-1.9,1.5-4,3.2-4.6,5.6c-0.6,2.3,0.4,4.9-0.1,7.2
		c-0.7,2.8-2.4,6.3-5.1,7.5c-1.4,0.6-2.9,1-4.3,1.8c-1.3,0.8-2.5,2.2-2.4,3.7c0,0.8,0.4,1.6,0.1,2.4c-0.4,1.2-1.9,1.6-3,2.1
		c-2.6,1.1-3.3,3.4-5.2,5.3c-2.3,2.3-5.1,4-7.2,6.4c-2.7,3-4.8,6.8-4.8,10.9c-0.1,3,0.2,3.4-1.8,5.6c-2,2.2-3.6,4.8-4.8,7.5
		c-0.2,0.4-0.3,0.9-0.3,1.4c-0.2,0.1-0.3,0.3-0.5,0.4c-6.4,2.1-11,7.2-14.6,12.7c-4.1,6.2-9.1,13.8-7.2,21.5c0.2,0.7,0.5,1.2,1,1.6
		c-0.6,1.7-1.2,3.5-1.7,5.2c-0.7,2.5,1.8,4.3,3.8,3.8c0.1,0.5,0.4,0.9,0.9,1.3c4.3,3.9,8.6-1.2,11.3-4.5c3.3-4,6.1-8.4,8.2-13.2
		c0.1-0.2,0.2-0.5,0.2-0.7c3.1-3.1,5.7-6.6,7.8-10.4c1.8-2.2,3.4-4.6,4.8-7.1c0.4-0.1,0.7-0.4,1-0.7l18.4-21.5
		c0.6-0.7,0.8-1.5,0.7-2.3c2.9-3.2,5.8-6.5,8.6-9.7c2.1-1.9,4.1-3.9,6-6.1c0.7-0.9,0.9-1.9,0.7-2.9c0.8-0.8,1.5-1.7,2.3-2.5
		c0.5-0.1,0.9-0.4,1.4-0.9c3.1-3.5,5.8-7.3,8.1-11.3c1.9-2.2,3.5-4.8,5.3-7c2.7-3.5,5.4-7,8.2-10.5c1-1.1,2.1-2.3,3.1-3.4
		c0.4-0.4,0.6-0.9,0.8-1.3c3.5-1.7,7.1-3.4,10.6-5.1c1.3-0.6,1.7-1.1,1.5-2.2c0.3-0.1,0.6-0.6,0.9-0.7c-1.3,2.8,1.1,3.6,3.9,1.3
		c3.7-3,8.4-4,11.3-7.9c0.2-4.5,0.2-12.3,0.3-17.5C229.2,134.3,210.7,127.7,208.6,126.9z M112.8,271.1c-0.9,1.2-1.8,2.4-2.8,3.6
		c-0.5,0.6-1.1,1.2-1.6,1.8c-0.3,0.3-0.6,0.6-0.9,0.9c-0.1,0.1-0.2,0.1-0.2,0.2c-0.3-0.1-0.6-0.2-0.9-0.2c0.4-0.7,0.8-1.3,1.2-2
		c0.7,0,1.5-0.3,2.1-1c1-1.2,2.1-2.4,3.1-3.7C112.8,270.8,112.8,270.9,112.8,271.1z"/>
	<polygon class="st1" points="228.9,151.9 202.9,162.4 208.5,164 234.6,153.9 	"/>
	<polygon class="st1" points="203,162.3 109,281.7 112.6,283 208.5,164 	"/>
</g>
<g id="River_1_">
	<polygon class="st0" points="267.6,155.8 267.3,134.3 292.7,125.1 292.7,146.3 	"/>
	<polygon class="st1" points="297.7,140.2 323.3,150.5 318.8,152.5 293.1,141.8 	"/>
	<polygon class="st0" points="292.1,141.1 292.1,146 311.8,154.5 300.4,145 	"/>
	<polygon class="st0" points="288,164 371.4,267.1 363.9,271.9 326.1,255 325.8,226 306.1,217.6 305.8,196.1 287.5,188.8 	"/>
	<polygon class="st1" points="323.3,150.5 420.1,267.2 415.1,269 318.8,152.4 	"/>
	<polygon class="st0" points="318.8,152.4 403,254.3 395.2,259.3 369,232.5 357.1,213.4 343.4,198.7 333.7,185 310.9,161.7 	"/>
	<path class="st2" d="M267.2,134.4c0.1,5.2,0,13,0.3,17.5c2.8,3.9,7.6,4.9,11.3,7.9c2.7,2.2,5.1,1.4,3.9-1.3
		c0.3,0.1,0.6,0.5,0.9,0.7c-0.2,1.2,0.2,1.6,1.5,2.2c3.5,1.7,7.1,3.4,10.6,5.1c0.1,0.5,0.4,0.9,0.8,1.3c1,1.1,2.1,2.3,3.1,3.4
		c2.7,3.5,5.4,7,8.2,10.5c1.7,2.2,3.4,4.8,5.3,7c2.3,4,5,7.8,8.1,11.3c0.4,0.5,0.9,0.8,1.4,0.9c0.7,0.9,1.5,1.7,2.3,2.5
		c-0.2,0.9-0.1,2,0.7,2.9c1.9,2.2,3.9,4.2,6,6.1c2.9,3.2,5.8,6.5,8.6,9.7c-0.1,0.8,0.1,1.6,0.7,2.3l18.4,21.5c0.3,0.3,0.6,0.6,1,0.7
		c1.4,2.5,3,4.9,4.8,7.1c2.1,3.8,4.7,7.3,7.8,10.4c0,0.2,0.1,0.5,0.2,0.7c2.1,4.8,4.9,9.1,8.2,13.2c2.6,3.2,7,8.4,11.3,4.5
		c0.4-0.4,0.7-0.9,0.9-1.3c2.1,0.5,4.6-1.2,3.8-3.8c-0.5-1.8-1.1-3.5-1.7-5.2c0.5-0.4,0.8-0.9,1-1.6c1.9-7.8-3.1-15.3-7.2-21.5
		c-3.6-5.5-8.2-10.6-14.6-12.7c-0.2-0.1-0.3-0.3-0.5-0.4c0-0.5-0.1-0.9-0.3-1.4c-1.3-2.7-2.9-5.2-4.8-7.5c-2-2.2-1.7-2.6-1.8-5.6
		c-0.1-4-2.1-7.8-4.8-10.9c-2.2-2.5-5-4.1-7.2-6.4c-1.8-1.8-2.5-4.2-5.2-5.3c-1.2-0.5-2.7-0.8-3-2.1c-0.2-0.8,0.1-1.6,0.1-2.4
		c0.1-1.5-1.1-2.9-2.4-3.7c-1.3-0.8-2.9-1.2-4.3-1.8c-2.7-1.2-4.4-4.7-5.1-7.5c-0.6-2.3,0.4-4.9-0.1-7.2c-0.6-2.4-2.6-4.1-4.6-5.6
		c-2.8-2.2-5.7-4.4-8.5-6.6c-1.1-0.9-2.2-1.8-2.9-3c-0.5-1-0.7-2.1-1.2-3.1c-1-2.1-3-3.4-5-4.4c-8.8-4.2-24.1-2.7-25.7-15
		c-0.4-3.6,0.8-6,0.4-9.7C285.7,127.7,267.2,134.3,267.2,134.4z M383.6,270.6c1,1.2,2.1,2.4,3.1,3.7c0.6,0.8,1.4,1.1,2.1,1
		c0.4,0.7,0.8,1.3,1.2,2c-0.3,0-0.6,0.1-0.9,0.2c-0.1,0-0.1-0.1-0.2-0.2c-0.3-0.3-0.6-0.6-0.9-0.9c-0.6-0.6-1.1-1.2-1.6-1.8
		c-1-1.2-1.9-2.3-2.8-3.6C383.7,270.9,383.7,270.8,383.6,270.6z"/>
	<polygon class="st1" points="267.5,151.9 293.5,162.4 287.9,164 261.8,153.9 	"/>
	<polygon class="st1" points="293.4,162.3 387.4,281.7 383.9,283 287.9,164 	"/>
</g>
<g id="Cracks_x3F__x3F__2_">
	<polygon class="st0" points="253.2,178.7 253.8,182.8 254.2,177.6 	"/>
	<path class="st0" d="M263.5,175.2l0.5,5.7l1.9-0.2c0,0,0.6,7,0.5,6.7c-0.1-0.3,0.1-7.8,0.1-7.8l-1.5-0.1l0.1-5.2L263.5,175.2z"/>
	<path class="st0" d="M278.9,169.5c0,0.3,0.6,3.6,0.6,3.6l1.1-1.3l1.1,0.6l-0.5-1.7c0,0,3.6-2.5,3.2-2.5S278.9,169.5,278.9,169.5z"
		/>
	<polygon class="st0" points="231.4,173.8 228.1,176.1 223.3,173.9 223.4,177.4 221.4,171.2 	"/>
	<polygon class="st0" points="211.1,167 211.1,170 214.1,169.8 	"/>
	<polygon class="st0" points="248.7,128 249.2,134.2 250.2,128.5 252.3,129.6 252.5,127.5 255.8,126 255.7,124.1 	"/>
	<path class="st0" d="M295.7,110.4c0.5,0,2.9,1.8,2.9,1.8v3.7l1-3.9l1.6-1.3L295.7,110.4z"/>
	<path class="st0" d="M221.9,117c-0.4-0.1-3.9,0-3.9,0l-0.4,2.7l-2.5-3.2l-1.1,5.7l-0.3-7.6L221.9,117z"/>
	<polygon class="st0" points="197.1,109.2 197.4,111.9 199,109.9 	"/>
	<path class="st0" d="M336.3,150.1c0.4-0.1,1.3,1.8,1.3,1.8v2.9l1.1-4.6L336.3,150.1z"/>
	<path class="st0" d="M344.9,147.5c0.5,0,1.6,1.8,1.6,1.8l0.8-0.5c0,0,1,4.6,1,4.2s0.3-6.3,0.3-6.3L344.9,147.5z"/>
	<polygon class="st0" points="292.4,201.3 296.6,200.9 297,203.9 297.8,199.3 	"/>
	<path class="st0" d="M297.1,234c-0.5,0.1-4.3,2.9-4.3,2.9l0.1,5.1l1.8,1.1l-2.9-1l0.3-3.5l-2.8-1.1L297.1,234z"/>
	<polygon class="st0" points="282.2,239.3 283.6,241.2 284.3,238.5 	"/>
	<path class="st0" d="M231.2,211.7l0.4,2.5c0,0,2-2,1.6-2S231.2,211.7,231.2,211.7z"/>
	<polygon class="st0" points="201.2,198.6 202.1,201.2 203.5,200 	"/>
	<path class="st0" d="M153.2,146.5c0,0,0.5,4.3,0.5,3.8s2.8-3,2.8-3L153.2,146.5z"/>
	<polygon class="st0" points="135.2,171 135.2,173.7 137.5,172.4 	"/>
	<path class="st0" d="M94.8,192c0,0,0.1,6.6,0.1,6.1s0.8-5.8,0.8-5.8L94.8,192z"/>
	<polygon class="st0" points="369.7,170 369.5,173.7 368.5,170.1 	"/>
</g>
<g>
	<path class="st3" d="M283.9,128.4c0,0-2.6,5.8,1.1,6.6c0,0-2.2,11.9,11,14.8s8.6,9,1.5,6.2s-4.9-6.2-4.9-6.2s-14.8-5.4-13.6-19.5
		L283.9,128.4z"/>
	<path class="st3" d="M274.1,139c0,0,3.9,8.8-0.8,10.4c0,0-6.1,2.8-4-16.2l-2.2,1.3l0.3,17.5l14,5.6l-8.5-6.8
		C273,150.7,279.8,149.6,274.1,139z"/>
	<path class="st3" d="M332.5,171.9c0,0,2.5,4,0.8,7.4l-2.5,0.6c0,0,2-5.2-0.2-8H332.5z"/>
	<path class="st3" d="M293.4,162.3c0,0,5,0.8,6.7-0.4c0,0,1.2,10.2,4.4,14.5L293.4,162.3z"/>
	<path class="st3" d="M307.3,180c0,0,6.6,3.2,10.8,2.9s3,6.9,3,6.9s-2.5,4.8,1,8.9L307.3,180z"/>
	<path class="st3" d="M306,151c0,0,1.9,1.6,1.8,3C307.8,154,310.6,152.7,306,151z"/>
	<path class="st3" d="M324.8,189.4c0,0-5.8,4-0.7,11.8c0,0-2.1-3.9,2.4-10.1L324.8,189.4z"/>
	<path class="st3" d="M325.6,188.8l1.6,1.5c0,0,0.1-2.4,3.2-2.6S327.3,185,325.6,188.8z"/>
	<path class="st3" d="M331.8,190.4c0,0-5.5,0.5-5.9,5.6c0,0,5-5.4,12,8.5s7,16.8,16.1,18.2l2.9-1.4c0,0-14.2-4.4-17.6-18
		S331.8,190.4,331.8,190.4z"/>
	<path class="st3" d="M346,193.4l-0.5,4c0,0-3.2,2.1-7.6-3.2s-3.2-5.4-3.2-5.4S339.9,197.2,346,193.4z"/>
	<path class="st3" d="M352.5,201.9c0,0,1.4,3.6,6,6.4C358.5,208.2,348.1,208.7,352.5,201.9z"/>
	<path class="st3" d="M333.8,213.4c0,0-0.2-7.9,3.4-4.2s3,12.8,12.2,15.1s-2.5,6.4-2.5,6.4L333.8,213.4z"/>
	<path class="st3" d="M362.4,212.2c0,0,4.8,4.2,3.8,10c0,0-2.4,1.6-7.1-0.1c0,0,2.4-3.6-2.9-5.8s-8.1-7.4-7-10.8
		C349.1,205.6,352.4,216.1,362.4,212.2z"/>
	<path class="st3" d="M332.8,212.2c0,0-0.4-4.4,1.6-5.2c0,0-9.5-4.6-8.4-9.8c0,0-1.8,3.1,2.6,9.4L332.8,212.2z"/>
	<path class="st3" d="M224.6,132.7l4.8,1.5l-0.2,17.5l-26,10.5l-12.6,15.9c0,0-6-5.1,4.6-11.1s7.9-9.5,7.9-9.5s-7-6,6.5-6.4
		s19.6,5.4,16.1-5.2S224.6,132.7,224.6,132.7z"/>
	<path class="st3" d="M221.9,131.6c0,0-4.2,6.9-0.4,13.9s-6.5,2.4-6.5,2.4s-6.4-1-10.5,1.6c0,0-2.5-4.4,9.6-4.5s-4.1-7.2-1.2-16.6
		L221.9,131.6z"/>
	<path class="st3" d="M199.6,148.7c-0.4,0-15,1.4-15.8,6.6s7.6,3.3-4.5,7.6c-10.6,3.8-17,9.2-3.4,9.1s-3.2-4.5,7-9s17.9,0.6,8.9-7.9
		C187.9,151.5,199.6,148.7,199.6,148.7z"/>
	<path class="st3" d="M186.4,183.1c0,0,0.6-6.4-2.9-8.9c0,0-4,4.6-14.1,2.2c0,0,5.8,20.1-4.2,29.4c0,0,13-8.2,10.4-23.5
		c0,0,2.6-0.3,4.4-2.2c0,0-3.2,4.4-1,12.7L186.4,183.1z"/>
	<path class="st3" d="M169,189.1c0,0,0.1,17.1-11.6,18l-2.9-5.6C154.5,201.5,163.9,205.7,169,189.1z"/>
	<path class="st3" d="M160.8,187c0.1-0.3-6.2,5.9-6.2,5.9l0.9,7.5c0,0,9.1,2,11.6-10.2C167,190.1,157.1,202.4,160.8,187z"/>
	<path class="st3" d="M191.2,167c-1.3,0.8-2.3,1.9-2.9,3.3c-0.1,0.3-0.3,0.6-0.6,0.8c-0.5,0.3-1.1-0.1-1.2-0.7
		c-0.1-0.5,0-1.1,0.3-1.5c1.4-3,4.5-5.5,7.9-5.4c0.8,0,2.3,0,1.9,1C196,165.7,192.3,166.3,191.2,167z"/>
	<path class="st3" d="M163.4,177.4c0.4,0.2,0.9,0.3,1.4,0.4c0.3,0,0.6,0.1,0.9,0.3c0.3,0.2,0.5,0.5,0.6,0.8c1.2,2.4,0.3,5.4-1.3,7.5
		c-0.2,0.3-0.4,0.5-0.5,0.9c-0.1,0.3,0.1,0.7,0.4,0.8c0.3,0.1,0.7-0.2,0.9-0.4c1.1-1.3,1.7-2.9,1.9-4.5c0.2-1.7,0.5-5.8-1.3-6.8
		c-0.6-0.3-2-0.4-2.6-0.4C162.6,175.9,162,176.7,163.4,177.4z"/>
	<path class="st3" d="M162.7,179.1c-0.2,0.3-0.3,0.7-0.3,1c0,0.4,0.2,0.7,0.6,0.8c0.3,0,0.6-0.2,0.7-0.5c0.1-0.3,0.1-0.7,0-1
		c-0.4-0.1-0.8,0-1.2,0.1"/>
	<path class="st3" d="M163.8,208.4c0.4,0.3,2-1.1,1.8-0.6c-0.1,0.5-0.5,0.9-0.8,1.3c-4.1,5-8.2,10.1-12.3,15.1
		c0.7-1.9,0.4-4,0.5-6.1c0.1-2.5,0.7-6.5,3.2-7.5C159.3,209.4,160.9,210.2,163.8,208.4z"/>
	<path class="st3" d="M276.5,150.7c0,0.3,0.2,0.6,0.4,0.8c2.1,2.2,4.8,3.9,7.7,4.8c0.2-0.9-0.2-1.8-0.9-2.4s-1.5-1.1-2.2-1.6
		c-0.8-0.6-1.5-1.3-2-2.1c-0.3-0.5-0.6-1-0.6-1.6c0-0.5,0.2-1.1,0.2-1.6c0-0.5-0.1-1.2-0.6-1.4c-0.7-0.3-1.5,0.4-1.5,1.1
		c-0.1,0.8,0.4,0.7,0.6,1.2C278.1,149.5,276.4,149.5,276.5,150.7z"/>
	<path class="st3" d="M287.5,158c1,0.5,2.1,1,3.1,1.5c0.9,0.4,1.8,0.9,2.7,1.1c1.2,0.3,2.6,0.1,3.7-0.4c0.3-0.1,0.7-0.6,0.5-0.8
		c-1.6-0.1-3.2-0.3-4.7-0.8c-1.1-0.4-2.2-0.9-3.1-1.8c-0.6-0.6-1.3-2.6-2-2.8c-1.1-0.4-0.9,0.7-0.9,1.2
		C287,155.8,287.2,157.9,287.5,158z"/>
	<path class="st3" d="M311.6,173.7c1,1,2.2,2,3.5,2.6c1,0.5,2.2,0.7,3.3,1c2.8,0.6,5.6,1.1,8.4,1.4c0.7,0.1,1.5,0.1,2.1-0.3
		c0.7-0.5,0.8-1.5,0.8-2.4c0-0.2,0-0.4-0.1-0.6c-0.2-0.3-0.7-0.2-1,0c-0.8,0.4-1.5,1-2.3,1.1c-0.6,0.1-1.3-0.1-1.9-0.3
		c-1.7-0.6-3.4-1.1-5.2-1.7c-0.4-0.1-0.8-0.3-1-0.5c-0.5-0.6-0.2-1.5,0.3-2.1s1.2-1,1.7-1.6c0.5-0.6,0.6-1.7-0.1-2.1
		c-0.5-0.3-1.2-0.2-1.7,0.2s-0.8,1-1.1,1.5c-0.6,0.8-1.4,1.6-2.4,1.6s-2-1.1-1.5-2c0.2-0.5,0.8-0.7,1.2-0.9c1.5-0.6,3.2-1.1,4.4-2.3
		c0.3-0.4,0.6-0.9,0.3-1.3c-0.1-0.2-0.4-0.3-0.6-0.3c-2.2-0.4-4,2.2-6.2,2c-1.7-0.1-2.7-1.7-3.7-2.9c-0.7-0.9-2.6-2.8-3-0.6
		c-0.3,1.5,1.6,4.4,2.3,5.7C308.9,170.6,310.2,172.2,311.6,173.7z"/>
	<path class="st3" d="M315.5,162c-0.9,0.8-2.1,1.1-3.2,1c-0.1,0-0.3,0-0.4-0.1c-0.2-0.1-0.4-0.3-0.6-0.5c-0.8-0.8-1.6-1.5-2.4-2.3
		c-0.3-0.3-0.6-0.6-0.8-1c-0.2-0.4-0.1-0.9,0.2-1.2c0.5-0.5,1.4,0,1.8,0.5c0.5,0.5,0.9,1.2,1.6,1.2c0.5,0,1-0.3,1.4-0.6
		c0.5-0.4,0.9-0.9,1.1-1.5c0.1-0.4-0.2-1.3,0.1-1.6c0.5-0.6,1,0,1.4,0.4C317.3,157.9,317.1,160.6,315.5,162z"/>
	<path class="st3" d="M301.5,163.1c0.1,4.6,2.1,9.1,5.4,12.3c1,0.9,2.2,1.8,3.5,1.8c-0.3-1.1-1.4-1.9-2.2-2.7
		c-1.4-1.5-2.2-3.4-2.9-5.3c-0.9-2.4-1.6-4.6-1.6-7.2C303.7,159.2,301.4,160.9,301.5,163.1z"/>
	<path class="st3" d="M334.9,186.1c0.2,0.3,0.3,0.7,0.1,1c-0.3,0.3-0.8,0-1.1-0.3c-2.9-2.3-7.5-2.2-10.3,0.2
		c-0.3,0.2-0.6,0.5-0.9,0.2c-0.1-0.1-0.1-0.2-0.1-0.3c-0.2-1.7,0.6-3.6-0.4-4.9c-0.5-0.6-1.3-0.9-1.8-1.6c-0.2-0.2-0.3-0.5-0.2-0.7
		c0-0.1,0.2-0.2,0.3-0.3c0.5-0.3,1.1-0.2,1.6,0.1c0.5,0.3,0.9,0.7,1.4,1.1c1.4,1,3.2,1,4.8,0.9c2-0.1,3.6-0.5,5.5-1
		C333.9,182.5,334,184.3,334.9,186.1z"/>
	<path class="st3" d="M343.4,199.6c-1.3,0.2-2.5-0.7-3.6-1.4c-0.6,0.7-0.5,1.8-0.1,2.7s1,1.6,1.4,2.5c0.2,0.6,0.3,1.1,0.5,1.7
		c0.7,2.7,2.1,5.3,4.1,7.3c0.2,0.2,0.6,0.5,0.8,0.2c0.1-0.1,0.1-0.2,0.1-0.4c0-2-1.9-3.5-2.8-5.4c-0.5-1-0.7-2.1-0.8-3.2
		c-0.1-0.4-0.1-0.9,0-1.3c0.1-0.4,0.4-0.8,0.8-0.9c0.9-0.2,2.4,0.5,2.4-1C346.3,198.7,344.3,199.5,343.4,199.6z"/>
	<path class="st3" d="M153.8,206.3c-1.2-2.9-1.4-6.1-0.8-9.2c0.2-0.8,0-2-0.8-1.9c-0.3,0.1-0.5,0.4-0.7,0.7
		c-0.6,1.5-0.1,3.4-1.2,4.6c-0.4,0.5-1.1,0.7-1.7,0.9c-2.4,1-4.9,2.3-6.3,4.5c-0.5,0.9-0.8,1.8-1.5,2.6c-0.8,1-2.1,1.5-3.2,2.1
		c-4.2,2.4-7,7-7,11.9c0,0.5,0.1,1,0.5,1.2c0.4,0.2,0.9-0.1,1.3-0.4c1.9-1.7,2.3-4.6,3.6-6.9c1.1-1.8,2.8-3.2,4.6-4.5
		c2.1-1.6,4.1-3.2,6.2-4.7c0.9-0.7,2.4-1.3,2.9-0.2c0.4,0.8-0.4,1.6-1,2.2c-2.4,2.1-4.7,5.2-3.9,8.4c0.2,0.8,0.7,1.6,1.5,1.6
		c0.7,0,1.1-0.7,1.4-1.2c1.3-2.2,2.5-4.6,4.2-6.5C153.5,209.7,154.8,208.8,153.8,206.3z"/>
	<path class="st3" d="M150.2,225.8c-0.5,1-1.2,1.8-2,2.6c-4.2,4.4-8.4,8.9-12.7,13.3c-0.6,0.7-1.7,1.3-2.3,0.6
		c-0.3-0.3-0.2-0.8-0.1-1.2c0.6-3.1,3-5.5,5.1-7.8c4.7-5.1,9.9-10.9,13.1-17.1C150.3,219.3,151.7,222.8,150.2,225.8z"/>
	<path class="st3" d="M141.7,219.5c0.5,1.3,1.4,2.6,1.1,3.9c-0.2,0.8-0.8,1.5-1.3,2.1c-2.7,3-5.4,6-8.1,9c-0.4,0.4-0.8,0.9-1.4,1
		c-0.5,0.1-1,0-1.5-0.2c-0.9-0.3-1.8-0.5-2.7-0.8c-0.4-0.1-0.8-0.2-1.1-0.5c-0.5-0.5-0.5-1.4-0.2-2c0.3-0.6,0.9-1.1,1.4-1.6
		c2-1.6,4.3-2.8,6.3-4.4c2-1.6,3.8-3.6,4.6-6c0.3-1,0.4-2.1,0.9-3.1c0.4-0.8,1.2-1.5,2.1-1.5C141.6,216.9,141.1,218,141.7,219.5z"/>
	<path class="st3" d="M130.8,247.2c-0.2,0.7-0.6,1.4-1,2c-2.8,4.6-5.7,9.2-8.5,13.8c-1,1.7-2.4,3.5-4.3,3.6c-0.6-1-0.4-2.3,0.1-3.3
		c0.5-1,1.3-1.9,2-2.8c1.6-2.1,2.8-4.5,3.6-7c1.2-4,1.3-8.6,3.6-12.3c0.8-1.2,2.8-4,4-1.7c0.4,0.8,0.1,2.6,0.2,3.6
		C130.7,244.4,131.2,245.8,130.8,247.2z"/>
	<path class="st3" d="M115.6,245.3c1.1,0.4,2.1-0.6,3.2-1c0.2-0.1,0.4-0.1,0.5,0c0.1,0.1,0.1,0.2,0.1,0.2c0.3,1.2-0.7,2.3-1.4,3.4
		c-0.6,1-1,2.2-0.9,3.5c0,0.2,0,0.4,0.1,0.5c0.2,0.5,0.9,0.5,1.5,0.4c1-0.3,1.8-1.1,2.3-2.1s0.8-2,1.1-3c0.5-1.7,3.5-8,0.2-8.3
		C120.5,238.9,115.7,245.4,115.6,245.3z"/>
	<path class="st3" d="M105.8,256.6c-1,1.5-2,3-2.6,4.7c-0.7,2-0.7,4.1-0.7,6.2c0,0.5,0,1,0.3,1.4c0.4,0.6,1.1,0.9,1.8,0.8
		c0.7-0.1,1.3-0.5,1.9-0.9c1.9-1.4,3.2-3.5,4.5-5.5c0.9-1.4,1.7-2.8,2.2-4.3c0.2-0.7,0.4-1.5,0-2.1c-0.4-0.6-1.4-0.8-1.8-0.2
		c-0.7-1.2-0.1-2.7,0.8-3.7c1.6-2,3.2-6.4-0.7-3.3C109.1,251.7,107.4,254.2,105.8,256.6z"/>
	<path class="st3" d="M116.5,258.1c-0.1,1.3-1.4,2.3-1,3.6c1.3-1.5,2.2-3.3,2.6-5.3c0.2-1-0.4-3.1-1.8-2
		C115.2,255.2,116.6,257.1,116.5,258.1z"/>
	<path class="st3" d="M105.9,275.5c-0.4,0.5-0.8,1.1-1,1.7c-0.2,0.6-0.2,1.4,0.3,1.9c0.4,0.4,0.9,0.6,1.5,0.6c1.2,0,2.3-0.8,3.2-1.6
		c2.6-2.4,5-6.2,5.2-9.8C111.6,266.5,107.7,273.1,105.9,275.5z"/>
	<path class="st3" d="M354.5,226c-0.2,0.1-0.1,0.4,0.1,0.6c0.2,0.1,0.4,0.2,0.6,0.3c1.1,0.4,1.2,2,0.4,3c-0.7,0.9-1.9,1.3-3,1.6
		s-2.3,0.7-3,1.6c0.4,0.7,0.9,1.4,1.5,2c0.6,0.5,1.5,0.9,2.3,0.7c0.5-0.1,0.9-0.4,1.3-0.6c1.4-1,3-2,3.6-3.6
		c0.2-0.4,0.3-0.9,0.5-1.3c0.6-1.1,1.9-1.7,3.1-2c1.6-0.5,5.7-2.1,2.1-2.8C361.1,224.9,357.5,225.7,354.5,226z"/>
	<path class="st3" d="M362.3,230.6c-0.6,0.5-1,1.2-0.9,1.9c0.2,1.1,1.4,1.6,2.4,2.2c1.7,0.9,3.2,2.4,4.1,4.2
		c0.4,0.8,0.7,1.7,1.4,2.3c0.8,0.7,2.1,0.9,3.1,0.4c1-0.5,1.6-1.7,1.4-2.7c-0.1-0.6-0.3-1.1-0.6-1.6
		C371.1,232.8,368.1,226,362.3,230.6z"/>
	<path class="st3" d="M376.2,243.4c-0.4,0.7-1,1.5-0.7,2.2c0.4,0.8,1.6,0.6,2.4,0.9c1.6,0.4,2.2,2.2,2.7,3.8c1.4,5,3.3,9.9,5.6,14.6
		c0.7,1.4,1.4,2.8,2.5,3.9s2.6,1.9,4.1,1.7c0.8-0.1,1.7-0.4,2.1-1.1c0.3-0.4,0.3-0.9,0.4-1.4c0.1-1.4-0.1-2.8-0.6-4.2
		c-0.6,1.1-1.4,2.4-2.7,2.4c-1.4,0.1-2.3-1.4-2.9-2.7c-0.3-0.7-0.6-1.3-1-2c-0.3-0.6-0.5-1.1-0.5-1.8c0-0.6,0.4-1.3,1-1.4
		c0.9-0.1,1.5,0.9,1.8,1.8c0.3,0.9,0.8,2,1.7,1.9c0.6,0,1.1-0.6,1.2-1.2c0.1-0.6-0.1-1.3-0.3-1.9c-1.2-3.4-3.1-6.6-5.5-9.3
		c0,0.8-1.1,1.3-1.9,1c-0.8-0.3-1.3-1-1.8-1.7c-1.6-2.5-4-8.3-7.4-8.7C376.6,241.4,376.7,242.5,376.2,243.4z"/>
	<path class="st3" d="M360.5,239.3c-0.5-0.3-1-0.7-1.6-0.7c-0.6,0-1.2,0.3-1.3,0.9c-0.1,0.6,0.4,1.1,0.8,1.5
		c5.3,5.3,10.4,10.8,15.1,16.6c1.2,1.5,2.4,3,3.4,4.6c1.2,2,2,4.1,3.1,6.1c2.1,3.6,5.2,6.5,8.2,9.3c1,0.9,2.4,1.9,3.5,1.2
		c1.2-0.6,1-2.5,0.2-3.5c-0.8-1-2.1-1.6-3.2-2.4c-1.5-1.2-2.5-2.9-3.4-4.6c-2-3.8-3.6-7.8-4.8-11.9c-1.7,0.6-3.6,0.3-5.1-0.6
		c-3.8-2.5-0.7-8-4.6-9.5c-1.9-0.7-3.5-0.9-5.1-2.1C363.9,242.7,362.5,240.7,360.5,239.3z"/>
</g>
<ellipse class="st2" cx="174.7" cy="169.8" rx="3.3" ry="1.2"/>
<ellipse class="st2" cx="206.1" cy="154.3" rx="3.3" ry="1.2"/>
<ellipse class="st2" cx="212.6" cy="152.9" rx="1.7" ry="0.8"/>
<path class="st1" d="M363.5,146.5c2.4,0.7,4,3.4,3.3,5.8c0.7-0.5,1.4-1.1,1.9-1.8c0.8-1.4,0.4-3.4-0.9-4.4c-1.3-1-3.4-0.8-4.5,0.5"
	/>
<path class="st1" d="M358.5,138.9c1.2,1.7,0.8,4.5-1.1,5.5c0.6-1.9-0.9-3.9-2.8-4.5c-1.8-0.6-8.6,1.1-4.9-2.4
	C351.9,135.3,356.8,136.5,358.5,138.9z"/>
<path class="st1" d="M134.3,141.2c-1.7,1.3-2.6,3.4-2.7,5.6c-0.1,1.7,0.4,3.4,1.6,4.6c1.2,1.2,3.1,1.7,4.6,1
	c-1.4-1.8-1.6-4.4-0.6-6.5c1.1-2.1,3.2-3.2,5.5-3.4C141.4,138.9,136.9,139.2,134.3,141.2z"/>
<path class="st1" d="M111,123.9c-2.8-0.2-5.4,2.5-5.2,5.3c0.1,1.3,1.1,2.8,2.5,2.7c-0.4-1.6,0.1-3.4,1.2-4.6s2.9-1.8,4.6-1.5
	c-0.7-1.6-2.8-2.4-4.3-1.7"/>
<path class="st1" d="M99.1,129.4c-1.6-0.3-3,1.3-3,2.9c0,1.6,1.2,3,2.7,3.6c-0.5-1.2-0.3-2.6,0.4-3.6s2.3-1.4,3.4-0.9
	c-0.7-1.6-2.7-2.4-4.3-1.9"/>
<path class="st1" d="M113.1,137.4c-1.2,0.1-2.2,0.6-2.8,1.9c-0.5,1.3,0.1,2.9,1.2,3.7s2.7,0.9,4.1,0.3c-1.2-0.1-2.1-1.3-1.9-2.5
	c0.2-1.2,1.4-2.1,2.5-1.9C115.9,137.6,114.3,136.8,113.1,137.4"/>
<path class="st1" d="M123.9,141.5c-0.9,0.3-1.7,0.8-2.2,1.6s-0.6,1.8-0.1,2.6c0.4,0.6,1.1,1,1.8,1.1c0.7,0.1,1.4,0,2.1-0.1
	c-0.3-0.3-0.6-0.7-0.9-1c-0.2-0.2-0.3-0.3-0.4-0.5c-0.3-0.6-0.1-1.3,0.4-1.7c0.5-0.4,1.2-0.5,1.8-0.3
	C126.1,141.7,125.3,141,123.9,141.5z"/>
<path class="st1" d="M146.6,134.5c-0.4-0.1-0.9-0.1-1.2,0c-0.4,0.2-0.7,0.5-1,0.9c-0.3,0.4-0.5,0.8-0.6,1.3c-0.1,0.5,0,1,0.3,1.3
	c0.3,0.3,0.7,0.5,1.2,0.6c-0.1-0.4-0.1-0.8,0-1.1c0.1-0.5,0.6-0.8,1-1s1,0,1.4,0.2c0.3,0.1,0.5,0.3,0.8,0.5c0.2-0.3,0.2-0.8,0.1-1.1
	C148.3,135.1,147.6,134.7,146.6,134.5z"/>
<path class="st1" d="M120,128.4c-1.2,0.7-2.1,1.9-2.1,3.3c0,0.9,0.4,1.7,1.1,2.3s1.6,0.8,2.5,0.6c-0.3-0.6-0.3-1.2-0.2-1.9
	c0.2-0.9,0.5-1.9,1.3-2.5c1.1-0.9,2.6-0.5,3.5,0.4c1.1-1.4-0.6-2.3-1.8-2.7C122.9,127.6,121.3,127.7,120,128.4z"/>
<path class="st1" d="M133.2,130.5c-0.6-0.1-1.3-0.1-1.9,0.1c-0.6,0.2-1,0.6-1.5,0.9c-0.7,0.6-1.4,1.2-1.8,2.1
	c-0.4,0.9-0.4,2,0.1,2.9s1.3,1.5,2.3,1.7c-0.1-1.8,1-3.6,2.6-4.4c1.6-0.8,3.5-0.6,5,0.4C137.5,132.4,135.3,130.5,133.2,130.5z"/>
<path class="st1" d="M104,138.5c-0.6,0.7-0.8,1.6-0.6,2.5s0.8,1.6,1.5,2c-0.9,0.3-1.8-0.3-2.5-0.8c-0.5-0.3-0.9-0.7-1.2-1.2
	c-0.6-1.1-0.3-2.5,0.4-3.5c0.4-0.6,1.1-1.1,1.8-1.2c0.9-0.1,1.8,0.5,2.5,1.1c0.1,0.1,0.2,0.1,0.2,0.2c0.1,0.5-0.7,0.2-0.9,0.2
	C104.8,137.9,104.3,138.1,104,138.5z"/>
<path class="st1" d="M92.7,120.7c-0.6,0.3-1.1,0.8-1.3,1.5c-0.2,0.7,0,1.4,0.6,1.8c0.4,0.2,0.8,0.3,1.2,0.3c0.4,0,0.8,0,1.1-0.1
	c-0.1-0.2-0.3-0.4-0.4-0.5c-0.2-0.3-0.3-0.7-0.2-1c0.1-0.3,0.4-0.5,0.7-0.6s0.6-0.1,0.9,0c0,0,0.1,0,0.1,0c0.2,0,0.2-0.3,0.1-0.5
	C94.8,120.5,93.9,120,92.7,120.7z"/>
<path class="st1" d="M353.9,149.4c1.8-0.4,3.7,0.5,4.6,2.1c0.8,1.6,0.4,3.8-1,4.9c0.9-0.4,1.9-0.8,2.7-1.4s1.4-1.6,1.4-2.6
	c0-0.8-0.3-1.5-0.7-2.1c-0.3-0.5-0.7-1-1.2-1.3c-0.4-0.2-0.8-0.3-1.2-0.3c-0.7-0.1-1.4-0.2-2.1-0.2c-0.5,0-1.1,0-1.6,0.1
	c-0.5,0.2-0.8,0.5-1.1,1C353.7,149.5,353.8,149.5,353.9,149.4z"/>
<path class="st1" d="M360.9,134.7c0.2,0.2,0.4,0.3,0.7,0.3c0.8,0.1,1.7-0.2,2.5-0.2c0.9,0,1.7,0.3,2.5,0.7c0.6,0.3,1.3,0.7,1.6,1.4
	c0.2,0.4,0.2,0.8,0.2,1.1c0,1.1-0.2,2.3-0.7,3.3c1,0.2,1.9-0.3,2.7-0.8c0.7-0.5,1.3-1.1,1.6-1.8c0.4-0.8,0.4-1.8,0.3-2.7
	c-0.3-1.8-1.2-3.5-2.7-4.5c-1.4-1-3.5-1.3-5.1-0.6C363.5,131.3,359.6,133.3,360.9,134.7z"/>
<path class="st1" d="M395.9,127.8c0.3,0.3,0.5,0.7,0.7,1c0.3,0.7,0.5,1.4,0.4,2.2s-0.5,1.5-1.1,1.9c1.4,0,2.8-0.6,3.7-1.7
	s0.8-2.9-0.2-3.9c-0.7-0.7-1.7-0.9-2.7-1c-0.8-0.1-1.8-0.1-2.3,0.6C393.8,127.6,395.5,127.4,395.9,127.8z"/>
<path class="st1" d="M401.7,121.8c0.2,0.4,0.4,0.9,0.4,1.4s-0.2,1-0.6,1.3c0.6-0.1,1.2-0.2,1.8-0.4s1.1-0.5,1.4-1.1
	c0.2-0.4,0.2-0.8,0.2-1.3c0-0.4,0-0.7-0.1-1c-0.3-1.1-1.5-1.7-2.6-1.7c-1,0-2.1,0.4-2.9,1c0.1,0.3,1.1,0.4,1.4,0.7
	C401,120.9,401.4,121.3,401.7,121.8z"/>
<path class="st1" d="M405.8,130.5c-0.1,0.7-0.5,1.3-1,1.8c0.5,0.1,1.1,0,1.6-0.2c0.6-0.2,1.3-0.4,1.6-1c0.2-0.4,0.3-0.9,0.1-1.3
	s-0.4-0.8-0.8-1.1c-0.1-0.1-0.3-0.2-0.5-0.3c-0.2-0.1-0.4-0.1-0.6-0.1c-0.4,0-1,0.1-1.3,0.4C405.5,129.3,405.9,129.8,405.8,130.5z"
	/>
<path class="st1" d="M376.8,140.1c0,0.8-0.4,1.5-1,1.9c0.9,0,1.8-0.1,2.4-0.7c0.5-0.5,0.8-1.2,0.8-2c0-0.5-0.1-0.9-0.3-1.3
	c-0.2-0.3-0.6-0.5-1-0.7c-0.5-0.2-0.9-0.3-1.4-0.2c-0.5,0.1-1,0.3-1.2,0.7C376,138.2,376.8,139,376.8,140.1z"/>
<path class="st1" d="M418.4,122.7c0.4,0.6,0.7,1.3,0.8,2c0.1,0.7-0.1,1.5-0.7,2c1.3-0.2,2.3-1.2,2.9-2.4c0.3-0.6,0.5-1.2,0.5-1.8
	s-0.3-1.3-0.8-1.6c-0.3-0.2-0.8-0.3-1.2-0.4c-0.7-0.1-1.4-0.2-2-0.1c-0.5,0.1-1,0.5-1.1,1C417.4,121.8,418,122,418.4,122.7z"/>
</svg>
