<?xml version="1.0" encoding="utf-8"?>
<!-- Generator: Adobe Illustrator 22.0.1, SVG Export Plug-In . SVG Version: 6.00 Build 0)  -->
<!DOCTYPE svg PUBLIC "-//W3C//DTD SVG 1.1//EN" "http://www.w3.org/Graphics/SVG/1.1/DTD/svg11.dtd">
<svg version="1.1" id="Layer_1" xmlns="http://www.w3.org/2000/svg" xmlns:xlink="http://www.w3.org/1999/xlink" x="0px" y="0px"
	 viewBox="0 0 495.7 305.7" style="enable-background:new 0 0 495.7 305.7;" xml:space="preserve">
<style type="text/css">
	.st0{fill:none;}
	.st1{fill:#0065A1;}
</style>
<g>
	<path class="st0" d="M218.6,145.6c1.3,1.9,2.7,3.7,4.1,5.6c1.7-2.5,3.3-5,5-7.6c-2.8-0.7-5.6-1.5-8.3-2.4c3.7-0.7,7.4-1.3,11.1-1.9
		c1.7-2.7,3.4-5.3,5-8c-4.6-1.2-9.1-2.5-13.6-4C220.5,133.3,219.4,139.4,218.6,145.6z"/>
	<path class="st0" d="M239.5,176.5c1.1-0.1,2.2-0.3,3.2-0.4c2.7-3.3,5.4-6.5,8.1-9.8c-1.7,0.1-3.4,0.3-5.2,0.4
		C243.6,169.9,241.5,173.2,239.5,176.5z"/>
	<path class="st0" d="M253.5,185.5l5.1,1.6c0.8-1.2,1.6-2.4,2.5-3.6C258.5,184.2,256,184.9,253.5,185.5z"/>
	<path class="st0" d="M185.6,160.1c0.2-0.1,0.4-0.3,0.6-0.4c-2.2-0.4-4.4-0.8-6.6-1.2c-1.2,0.3-2.4,0.7-3.5,1.1
		C179.2,159.8,182.4,159.9,185.6,160.1z"/>
	<path class="st0" d="M255.7,174.3c-1.3,3.6-2.6,7.2-3.7,10.8l0.9,0.3c3.2-1.3,6.5-2.7,9.7-4c2.3-3.1,4.7-6.1,7.1-9
		C265.1,173,260.4,173.6,255.7,174.3z"/>
	<path class="st0" d="M157.7,155.2c0.4-0.6,0.8-1.2,1.3-1.8c-2.8-0.9-5.6-1.8-8.3-2.8c-1.2,0.4-2.3,0.8-3.5,1.2L157.7,155.2z"/>
	<path class="st0" d="M164.8,157.4l3.8,1.2c0.7-0.7,1.3-1.4,2-2.1c-1.1-0.3-2.2-0.5-3.3-0.8C166.5,156.3,165.6,156.9,164.8,157.4z"
		/>
	<path class="st0" d="M239.4,176.6c-0.8,1.2-1.6,2.5-2.3,3.7l1.7,0.5c1.3-1.5,2.5-3.1,3.8-4.6C241.5,176.4,240.4,176.5,239.4,176.6z
		"/>
	<path class="st0" d="M311.8,171.8c0-0.1,0-0.2,0.1-0.3c0,0,0,0-0.1,0C311.8,171.6,311.8,171.7,311.8,171.8z"/>
	<path class="st0" d="M252.9,155c-1.9,3.1-3.8,6.1-5.8,9.2c2.1-0.3,4.1-0.7,6.2-1c2.3-2.7,4.5-5.5,6.8-8.2
		C257.8,155,255.3,155,252.9,155z"/>
	<path class="st0" d="M127.3,145.5c1.4-0.9,2.9-1.9,4.3-2.8c-2.7-1.3-5.4-2.6-8-4c-0.4,0.1-0.8,0.2-1.2,0.3c1.2,1.9,2.4,3.9,3.3,6.1
		L127.3,145.5z"/>
	<path class="st0" d="M82.3,232.7c-2.5,0.8-5.2,1.5-7.9,2c0.9,1,1.7,2,2.5,3C79.9,237.1,83,235.4,82.3,232.7z"/>
	<path class="st0" d="M396,109.3c1.3,1.2,3.6,2.3,4.7,0.8c0.4-0.5,0.4-1.3,0.3-1.9c-0.1-1.5-0.6-2.9-1.2-4.2c-1.4,1.7-3,3.2-4.6,4.6
		C395.5,108.8,395.7,109,396,109.3z"/>
	<path class="st0" d="M450.6,177.6c0,0.9,0.1,1.9,0.2,2.8c0.6,0.1,1.1,0.1,1.7,0.1c0-0.3,0-0.5,0-0.8
		C452,179,451.3,178.3,450.6,177.6z"/>
	<path class="st0" d="M172.4,138.4c0-0.2-0.1-0.5-0.1-0.8c-0.1,0-0.2-0.1-0.4-0.1C172.1,137.8,172.3,138.1,172.4,138.4z"/>
	<path class="st0" d="M139.4,137.5c1.7-1.1,3.4-2.2,5.1-3.4c-4.6,1-9.2,2-13.8,3C133.6,137.2,136.5,137.4,139.4,137.5z"/>
	<path class="st0" d="M187.6,143c0.6,0.1,1.2,0.2,1.8,0.3c0-0.1-0.1-0.2-0.1-0.4c-0.7-0.2-1.4-0.4-2-0.6
		C187.4,142.6,187.5,142.8,187.6,143z"/>
	<path class="st0" d="M213.5,113.1c-2.3,8.6-4.7,17.1-7,25.7c4.6-7.5,9.3-15.1,13.9-22.6C218,115.2,215.7,114.2,213.5,113.1z"/>
	<path class="st0" d="M255.9,173.7c6.1-1.5,12-3.5,17.8-5.9c1.5-1.6,3-3.3,4.6-4.8c-6.3,1-12.7,1.8-19,2.4
		C258.1,168.2,257,171,255.9,173.7z"/>
	<path class="st0" d="M224.2,109.8c0.7-1.2,1.4-2.3,2.1-3.5c-3.3-1.5-6.5-3-9.7-4.6c-0.6,2.3-1.3,4.6-1.9,6.9
		C217.8,109,221,109.4,224.2,109.8z"/>
	<path class="st0" d="M218,96.4c4.1,1,8.2,2.1,12.3,3.5c0.2-0.3,0.3-0.5,0.5-0.8c-3.9-2.3-7.7-4.5-11.6-6.8
		C218.8,93.7,218.4,95,218,96.4z"/>
	<path class="st0" d="M234.9,101.5c-1.1-0.6-2.2-1.3-3.3-1.9c-0.1,0.2-0.2,0.4-0.3,0.6C232.5,100.6,233.7,101,234.9,101.5z"/>
	<path class="st0" d="M252.9,125.8c-2.9-0.5-5.7-1.1-8.5-1.8c-0.3,0.7-0.6,1.4-0.8,2.1C246.6,126.1,249.8,126,252.9,125.8z"/>
	<path class="st0" d="M171.3,123.7c0.8,0.1,1.6,0.2,2.4,0.4c-0.9-0.4-1.8-0.7-2.8-1.1C171.1,123.2,171.2,123.4,171.3,123.7z"/>
	<path class="st0" d="M180.6,140.4c-0.2-0.1-0.3-0.1-0.5-0.2c0.3,0.6,0.6,1.1,0.9,1.7C180.8,141.4,180.7,140.9,180.6,140.4z"/>
	<path class="st0" d="M257.3,136.8c0.4-0.4,0.9-0.8,1.3-1.2c-5.9-0.7-11.8-1.7-17.6-3c-0.7,1.9-1.5,3.8-2.2,5.6
		C244.9,137.6,251.1,137.1,257.3,136.8z"/>
	<path class="st0" d="M268.5,147.6c-0.1,0-0.1,0-0.2,0c0,0,0,0,0,0C268.4,147.6,268.4,147.6,268.5,147.6z"/>
	<path class="st0" d="M219.1,155.1c-0.4,0-0.8,0-1.3,0c-0.1,1.2-0.1,2.5-0.2,3.7c0.6-0.9,1.2-1.8,1.8-2.7
		C219.4,155.8,219.2,155.4,219.1,155.1z"/>
	<path class="st0" d="M218,152.1c-0.1,0.9-0.1,1.8-0.2,2.7c0.4-0.1,0.7-0.1,1.1-0.2C218.6,153.8,218.3,152.9,218,152.1z"/>
	<path class="st0" d="M238.5,155c-2.1,0-4.2,0-6.4,0c-0.8,2.1-1.7,4.3-2.5,6.4c0.4,0.8,0.8,1.6,1.2,2.3
		C233.3,160.8,235.9,157.9,238.5,155z"/>
	<path class="st0" d="M445.4,183.4c-0.2-0.1-0.4-0.1-0.6-0.2c0.5,1.7,1.1,3.4,1.7,5.1c0.3,0.1,0.6,0.1,0.8,0.2
		c-0.1-1.5-0.1-3-0.2-4.5C446.7,183.8,446,183.6,445.4,183.4z"/>
	<path class="st0" d="M257.5,147.7c-0.3,0.5-0.7,1-1,1.6c3.2-0.4,6.3-0.9,9.5-1.3c0.1-0.1,0.1-0.2,0.2-0.3
		C263.3,147.8,260.4,147.8,257.5,147.7z"/>
	<path class="st0" d="M286.3,161.8c-0.2,0-0.4,0.1-0.6,0.1c0,0.1-0.1,0.2-0.1,0.3C285.8,162,286.1,161.9,286.3,161.8z"/>
	<path class="st0" d="M236,145.4c-0.9,2.4-1.9,4.8-2.8,7.2c2.9-0.4,5.9-0.8,8.8-1.2c1.4-1.5,2.9-2.9,4.4-4.4
		C242.8,146.6,239.4,146.1,236,145.4z"/>
	<path class="st0" d="M268.2,136.5c-1.2-0.1-2.3-0.2-3.5-0.3c-0.1,0.1-0.1,0.2-0.2,0.3C265.7,136.5,266.9,136.5,268.2,136.5z"/>
	<path class="st0" d="M143.6,150.7c0.9-0.6,1.8-1.1,2.7-1.7c-4.3-1.6-8.6-3.4-12.7-5.4c-1.9,0.6-3.8,1.3-5.5,2.1L143.6,150.7z"/>
	<path class="st0" d="M201.1,93.5c1.8,0.2,3.6,0.4,5.4,0.7c1.6-2.1,3.3-4.3,4.9-6.4c-2.7-1.6-5.3-3.1-8-4.7c3.4,0.4,6.8,1,10.2,1.8
		c1.2-1.5,2.3-3,3.5-4.6C212.3,75,208.5,68.8,206,62c-1.5,19.1-7.3,38-16.9,54.9c5.4-7,10.7-14,16.1-21.1
		C203.9,95,202.5,94.3,201.1,93.5z"/>
	<path class="st0" d="M230.5,91.5c-3.3-1.9-6.4-4.2-9.2-6.8c-0.2,0.8-0.4,1.6-0.7,2.4C224,88.3,227.3,89.7,230.5,91.5z"/>
	<path class="st0" d="M169.3,123.4c-0.1-0.4-0.3-0.8-0.4-1.3c-2.2-0.9-4.4-1.9-6.6-2.9c0.6,1.1,1.3,2.2,1.9,3.3
		C165.9,122.9,167.6,123.1,169.3,123.4z"/>
	<path class="st0" d="M161.1,122.1c-0.7-1.5-1.5-3-2.2-4.4c-3.1-1.5-6.2-3-9.3-4.7c1.8,2.7,3.6,5.3,5.4,8
		C157,121.3,159.1,121.7,161.1,122.1z"/>
	<path class="st0" d="M222.3,125.7c5.4,0.3,10.9,0.5,16.3,0.5c0.6-1,1.3-2.1,1.9-3.1c-5.4-1.4-10.8-3.2-16-5.2
		C223.7,120.5,223,123.1,222.3,125.7z"/>
	<path class="st0" d="M260.8,162c2.3-0.4,4.7-0.8,7-1.1c4.4-0.7,9.4-1.9,11.3-6c-5,0-9.9,0-14.9,0
		C263.1,157.3,261.9,159.6,260.8,162z"/>
	<path class="st0" d="M281.3,173.7c3.6-1.5,7.2-2.9,10.8-4.4c-3.2,0.4-6.4,0.9-9.6,1.3C282.1,171.6,281.7,172.6,281.3,173.7z"/>
	<path class="st0" d="M144.1,109.9c-2.1-1.2-4.2-2.4-6.3-3.7c3.7,4.4,7.2,8.8,10.4,13.3c0.4,0.1,0.8,0.2,1.1,0.2
		C147.5,116.5,145.8,113.2,144.1,109.9z"/>
	<path class="st0" d="M227.2,110.2c3.9,0.5,7.8,1,11.7,1.5c-3.6-1.4-7.1-2.9-10.6-4.4C228,108.2,227.6,109.2,227.2,110.2z"/>
	<path class="st0" d="M118.6,133.9c3.2-3,6.5-5.9,9.7-8.9c-3.9,2.3-8.4,4-13.4,5.2C116.2,131.3,117.4,132.6,118.6,133.9z"/>
	<path class="st0" d="M74,238.2c-0.4-1.1-0.7-2.2-1.1-3.3c-2.6,0.3-5.3,0.3-7.9-0.2c1.8,1.4,3.5,2.9,5.1,4.4
		C71.3,238.6,72.7,238.4,74,238.2z"/>
	<path class="st0" d="M142.7,125.2c-0.1-0.1-0.3-0.1-0.4-0.2c0.7,0.9,1.4,1.8,2.1,2.7C143.8,126.8,143.3,126,142.7,125.2z"/>
	<path class="st0" d="M430.6,193.2c-0.1-0.2-0.2-0.5-0.4-0.7l-1.8,3.1l5.8,4.2C432.8,197.7,431.7,195.2,430.6,193.2z"/>
	<path class="st0" d="M72.8,180.7c0.4,0.2,0.8,0.4,1.2,0.6C73.6,181,73.2,180.8,72.8,180.7z"/>
	<path class="st0" d="M276.9,185.7c9.4-3.9,18.8-7.7,28.4-11.1c-8.7,1.3-17.4,2.9-26,4.7C278.5,181.4,277.7,183.6,276.9,185.7z"/>
	<path class="st0" d="M96.4,118.5c3.2,1.4,6.3,3,9.4,4.9c2.1-2.1,4.2-4.2,6.3-6.3C107.3,118.1,102,118.6,96.4,118.5z"/>
	<path class="st0" d="M99.9,105.3c0,0.1,0,0.2,0,0.3c0.5,0.4,1,0.7,1.6,1.1C100.9,106.3,100.4,105.8,99.9,105.3z"/>
	<path class="st0" d="M467.3,183.8c0.3,0.6,0.8,1,1.3,1.3c0.7-0.7,1.3-1.5,2-2.2C469.5,183.2,468.4,183.5,467.3,183.8z"/>
	<path class="st0" d="M427.3,119.4c0.2,1.2,0.7,2.3,1.6,3.2C428.4,121.6,427.8,120.5,427.3,119.4z"/>
	<path class="st0" d="M455.4,95.2c-0.1,2.7-0.2,5.3-0.3,8c0.4,0,0.8,0,1.2,0c0.5-2.9,1-5.7,1.7-8.5
		C457.2,94.9,456.3,95.1,455.4,95.2z"/>
	<path class="st0" d="M439,124.4c0-1-0.1-2-0.2-3.1c-0.4-0.1-0.9-0.2-1.3-0.3C438,122.2,438.5,123.3,439,124.4z"/>
	<path class="st0" d="M434,125.8c0.4,0.1,0.8,0.2,1.2,0.3c-0.6-2-1.3-4.1-2.1-6.1c-1.1-0.3-2.2-0.6-3.3-1
		C431.1,121.3,432.5,123.6,434,125.8z"/>
	<path class="st0" d="M448.9,102.5c0.9,0.2,1.7,0.3,2.6,0.4c0.2-2.4,0.4-4.7,0.6-7c-1.2,0.2-2.3,0.4-3.5,0.6
		C448.7,98.5,448.8,100.5,448.9,102.5z"/>
	<path class="st0" d="M314,134.7c-0.7-3.8-0.7-7.8,0-11.6c-3.1,8.1-6.2,16.3-9.3,24.4c0.7,0.2,1.3,0.5,2,0.7
		C309.1,143.7,311.6,139.2,314,134.7z"/>
	<path class="st0" d="M452.2,187.6c-0.1-0.2-0.2-0.4-0.3-0.5c0.1,0.3,0.2,0.6,0.3,0.9C452.2,187.9,452.2,187.8,452.2,187.6z"/>
	<path class="st0" d="M456.7,148.9c0.1-0.2,0.1-0.4,0.2-0.7c-0.1-0.3-0.2-0.5-0.4-0.7l-0.7,1.2C456.1,148.7,456.4,148.8,456.7,148.9
		z"/>
	<path class="st0" d="M436.1,184.8c0.1,0,0.2-0.1,0.4-0.1c0.6-0.1,1.1,0.2,1.6,0.5c0.5,0.3,1.1,0.5,1.6,0.7
		c-0.2-1.8-0.4-3.6-0.6-5.4c-0.1-0.1-0.3-0.2-0.4-0.4c-0.3-0.3-0.5-0.7-0.8-1.1l-2.5,4.4C435.7,183.9,435.9,184.4,436.1,184.8z"/>
	<path class="st0" d="M434.3,189.2c-0.3-0.8-0.6-1.6-0.8-2.3l-1.7,3c0.8,1.5,1.7,3,2.7,4.4C434.2,192.6,434.2,190.9,434.3,189.2z"/>
	<path class="st0" d="M408.9,99.7c0.1-3.4-0.7-6.6-2-9.7c-0.5,2.2-1.3,4.3-2.2,6.4C406,97.6,407.4,98.7,408.9,99.7z"/>
	<path class="st0" d="M363.7,124.1c2.9-1.5,6-2.5,9.2-2.9c-0.8-0.9-1.6-1.7-2.4-2.6c-2.7,1.2-5.2,2.7-7.1,5
		C363.4,123.8,363.5,123.9,363.7,124.1z"/>
	<path class="st0" d="M345.5,145.9c1.2-1.9,2.4-3.8,3.5-5.7c-1.7,6.1-3.3,12.1-5,18.2c2-2.2,4.5-4,7.3-5.1c1.4-0.6,2.8-1,4.3-1.3
		c-0.7-1.4-1.3-2.8-1.7-4.1c-1.6-4.3-2.4-9.1-2-13.8c-2.7,0.6-5.1,1.8-6.7,4.1c-0.3,0.4-0.5,0.7-0.8,1.1
		C344.7,141.6,345.2,143.8,345.5,145.9z"/>
	<path class="st0" d="M445,101.5c0.2,0.1,0.4,0.1,0.6,0.2c0-1.5,0-3.1,0-4.6c-0.4,0.1-0.8,0.1-1.2,0.2c-0.6,0.1-1.3,0.2-1.7,0.7
		C441.4,99.2,443.3,100.9,445,101.5z"/>
	<path class="st0" d="M447,175.2c-1.6-1-3.4-1.8-5-2.8c0.4,1.8,0.8,3.6,1.2,5.4c1.2,0.8,2.5,1.4,3.8,1.8
		C447.1,178.1,447.1,176.7,447,175.2z"/>
	<path class="st0" d="M315.2,139.4c-0.9,3.8-1.7,7.6-2.2,11.4c1.8,0.9,3.4,2.1,4.9,3.4c0.7-1.7,1.5-3.3,2.3-4.9
		c-1.4-2.4-2.9-4.8-4-7.2C315.9,141.2,315.5,140.3,315.2,139.4z"/>
	<path class="st0" d="M461.6,103c1.2-0.1,2.5-0.3,3.7-0.6c1.8-3.7,3.9-7.2,6.3-10.4c-3,0.6-6,1.3-9,1.9
		C462.3,96.9,462,99.9,461.6,103z"/>
	<path class="st1" d="M469.6,250.7c9.3-3.8,15.8-13.6,15.7-23.6c-4.7,1.6-9.7,2.5-14,5c-4.5,2.6-8,6.8-9.8,11.7
		c0.4-2.4,0.6-4.8,0.4-7.2L469,225l-4.1-3c3.4-2.8,6.4-6.3,8-8.9c1.1-1.8,1.9-3.8,2.6-5.8c3.2-0.6,6.3-1.5,9.4-2.6
		c-2.8-0.2-5.6-0.3-8.5-0.2c0.1-0.4,0.2-0.7,0.3-1.1c0.1-0.4,0.2-0.9,0.4-1.3c4.2-1.6,8.4-3.3,12.5-4.9c-3.9,0.2-7.8,0.8-11.6,1.8
		c0.1-0.5,0.3-0.9,0.4-1.4c3.1-1.6,6.1-3.4,8.8-5.6c-2.7,0.5-5.3,1.2-7.9,2.1c0.5-1.9,1-3.8,1.5-5.7c0.2-0.7,0.3-1.4,0.4-2.1
		c1.7-2.1,3.4-4.3,4.9-6.6c-1.8,0.9-3.6,2-5.4,3.1c-1.6-0.2-3.1,0.4-4.7,1.1c1.3-1.9,2.5-3.9,3.7-5.9c0.7-0.7,1.3-1.4,1.8-2.2
		c1.2-2,1.9-4.2,2.5-6.4c0.9-3.3,1.7-6.8,0.7-9.9c-2.8,4.8-7.3,8.6-12.4,10.4c0.7-2,1.3-4.1,2-6.1c2.9-2.8,5.8-5.5,8.7-8.4
		c0.7-0.7,1.4-1.4,1.5-2.4c0.1-0.6-0.1-1.2-0.3-1.7c-1.7-5.2-4-10.2-6.8-14.8c2-0.5,3.9-1.1,5.8-1.8c-2.3-0.2-4.7-0.3-7-0.2
		c-0.4-0.7-0.9-1.4-1.4-2.1c4.4-1.7,8.8-3.4,13.2-5.2c-5.1,0.3-10.1,1.2-14.9,2.8c-0.1-0.1-0.2-0.2-0.3-0.4
		c4.5-2.2,8.9-4.5,12.7-7.6c-5.1,1-10.1,2.7-14.8,4.9c-0.2-0.2-0.4-0.5-0.6-0.7c5.5-4.8,10.4-10.4,14.4-16.5
		c-3.6,1.8-6.9,3.9-10.1,6.4l4.3-7.3l-1.4,0.6c1.8-3.1,3.4-6.2,4.7-9.5c-4.5,4.1-8.9,8.3-13,12.8l-3.6,1.4c0.2-0.6,0.5-1.2,0.7-1.8
		c4.3-4,8.8-8.4,10.1-14c-1.9,1-3.8,1.8-5.8,2.5c1.1-3.1,2.1-6.3,3-9.4c1.4-0.3,2.7-0.6,4.1-0.9c1.7-0.4,3.5-0.8,4.5-2.2
		c0.7-0.8,0.9-1.8,1.2-2.8c4.3-17.8,5-36.3,2.1-54.1c-1.2-7.1-3.3-14.6-9.4-18.5c-11.1,5.5-21.7,12.1-31.5,19.6
		c-1.6,1.2-3.2,2.5-4,4.3c-2.7,6.3,7,12.6,4,18.8c-5.5-5.1-10.4-10.9-14.4-17.2C418.3,44.7,408,54,400.7,65.1c-1,1.6-2,3.2-2.3,5.1
		c-0.3,2.3,0.6,4.5,1.6,6.5c1.2,2.4,2.5,4.7,3.8,7.1c-2.3,0.7-4.7,1.4-7,2.1c-1.7-3.6-2.9-7.6-3.2-11.7c-4.5,1.2-6.8,6.7-5.9,11
		c0.3,1.4,0.8,2.7,1.5,4c-2.2,1.3-4.3,3-6,4.8c-0.4-0.6-0.8-1.2-1.2-1.8c-0.5-0.9-1.1-1.8-2-2.3c-1.2-0.6-2.4-0.3-3.6,0.4
		c-0.5-1.5-1.1-2.9-2-4.3c-3.9,5.8-11.6,8.2-15.5,14.1c-2.1,3.1-2.8,6.8-3.8,10.4c1-4.5,0.6-9.2-1.2-13.4
		c-2.7-6.2-8.4-10.9-14.9-12.4c-3.8,4.4-5.1,10.6-4.1,16.4c0.9,5.7,3.9,11,7.6,15.4c1.2,1.4,2.5,2.7,3.2,4.4c1.7,4-1.2,7.9-3.8,11.3
		c-4.6,1.8-8.2,5.4-11.2,9.6c0.1-0.5,0.2-1,0.2-1.5c0.9-2.8,1.3-5.7,1.4-8.6c0.1-0.5,0.2-1,0.2-1.4c-0.1,0.1-0.2,0.2-0.2,0.3
		c-0.1-2.5-0.4-4.9-1.2-7.3c-1.8-6.1-5.6-11.4-8.7-17c-2.6,2.6-4.6,5.7-6.1,9.1c-7.8,8.6-14.6,18.1-20.2,28.3
		c-0.1-0.1-0.2-0.1-0.3-0.2c-0.2,0.6-0.4,1.3-0.6,1.9c-0.6,1.1-1.1,2.1-1.7,3.2c3-16.2,5.9-32.4,8.9-48.5
		c-4.7,14.5-10.1,28.9-16.1,42.9c-2.8-16.3-1.4-33.4,3.9-49.2c-4.7,12.5-9.3,25-14,37.5c1.2-16,2.4-32,3.6-48
		c-5.9,12-11.8,23.9-17.7,35.9c4.6-13.9,5.8-28.8,3.3-43.1c-5.3,10-10.6,19.9-15.9,29.9c1.1-13.4-1.1-27-6.3-39.2
		c-1.1,7.7-2.2,15.3-3.3,23c-4-6.9-9.1-13.2-14.9-18.7c0.1-0.5,0.3-1,0.4-1.5c-0.3,0.4-0.6,0.7-0.8,1.1c-5.5-5-11.6-9.2-18.3-12.6
		c0.1-1.1,0.1-2.2,0.1-3.3c-10.6,13-21.3,26.1-31.9,39.1c5.5-19.3,6.2-39.7,2-59.1c-3.8,10.9-7.6,21.8-11.4,32.7
		c-7.9-23-22.9-43.4-42.4-57.7c1.5,22,11.9,43,28.2,57.5c-10.9-8.9-23.6-15.7-37.2-19.9c13.6,11.9,27.2,23.9,40.7,35.8
		c-14.7-9-30.6-16.2-47.1-21.4c15.7,13.7,32.5,26.2,50.1,37.5c-3-1-5.9-2-8.9-2.9c-0.5-0.7-0.9-1.4-1.4-2.1c0.3,0.7,0.7,1.3,1,2
		c-4.2-1.4-8.4-2.8-12.7-4.2c-1.1-1.6-2.2-3.2-3.3-4.9c0.8,1.5,1.6,3.1,2.4,4.6c-9.9-3.2-19.7-6.5-29.6-9.7
		c7.2,6.4,14.8,12.3,22.8,17.7c3,5.8,6.3,11.6,9.9,17.4c-0.7-0.2-1.4-0.3-2.1-0.5c-7.7-9.1-16.3-17.9-25.7-26.1
		c6.1,7.9,11.8,15.8,16.9,23.9c-0.4-0.1-0.8-0.2-1.2-0.3c-10.7-11.5-23-22.4-36.3-31.9c7.3,8.8,14.5,17.7,21.8,26.5
		c-4.4-3.8-8.8-7.5-13.4-11.2c-0.1-0.1-0.2-0.3-0.3-0.4c-0.1,0-0.2,0-0.3,0c-6.1-4.9-12.3-9.7-18.7-14.3c4.1,5.1,8.6,10.1,13.4,15
		c-0.8,0.2-1.5,0.3-2.2,0.6c-5.9-4.3-11.9-8.5-17.8-12.8c4,5,8.7,9.8,13.8,14.2c-0.3,0.1-0.6,0.2-0.8,0.4
		c-10.3-6.1-21.6-10.1-32-11.2c7.6,6.2,16.1,11.5,24.9,15.8c-0.9,0.8-1.7,1.6-2.4,2.4c-1.1,1.2-2,2.6-2.8,4
		c-1.4-0.3-2.7-0.5-3.9-0.7c-0.1-0.4-0.3-0.7-0.4-1c-3-6.9-11.7-11-14.7-17.9c-5.8,4.9-7.9,11.7-8.5,18.6c-1-7.1-4.9-13.8-11-18.5
		c-5.9-4.5-13.4-7.1-20.3-10.5c-4.1,13.7,2.4,28.7,15.7,36.3c9.5,5.4,22.8,8,27.1,17.2c-7-5.5-16.9-8.1-26.7-7.1
		c-7.4,0.8-14.7,3.5-22.1,3.3c1.7,8.6,9.6,16,19.7,17.4c7.5,1,15.2-1.2,22.9-2.4c0.7,2.4,1.5,4.7,2.8,6.9c2.2,3.9,5.6,7.1,9.6,9.1
		c0.1,0.2,0.1,0.4,0.2,0.6c-4.3-0.6-8.6-0.3-12.2,2c4.5,3,6.2,9,10.6,12.1c2.5,1.7,5.5,2.3,8.4,3.2c-2.1-0.6-4.3-0.7-6.5-0.4
		c-7.3-4.6-15.1-8.6-23.2-12c-3.9,2.4-4.8,7.2-5.1,11.6c-0.7,11.1,1.3,22.6,5.7,33.7c0.2,0.6,0.5,1.3,1,1.8c0.8,0.8,2.1,1.1,3.3,1.3
		c7.9,1.6,15.8,2.9,23.8,4.1c0.4,0.1,0.9,0.1,1.2,0.4c1,0.8-0.2,1.9-1.4,2.2c-6.8,2-15,1.3-22.2-1.9c1.4,3.6,5,6.3,8.4,8.9
		c2.3,1.7,4.7,3.5,7.4,4.6c0.2,0.1,0.5,0.2,0.7,0.3c4.1,7.3,8.6,14.4,13.7,21.1c-8.8-6.6-18-12.6-27.6-17.9
		c6.3,9.1,15.5,15.9,25,21.5c-11.7-5-23.8-9.3-36.1-12.8c10,8.5,22.6,13.1,34.9,17.5c-12.9-3.7-25.8-7.4-38.9-10.2
		c11.9,6.7,25.3,10.4,38.4,14c-3.8,0.4-7.7-0.3-11.5-1c-9.5-1.7-19-3.5-28.5-5.2c3.1,2.2,6.8,3.4,10.4,4.4c10.2,2.9,20.7,4.9,31.1,7
		c-11.8,1.9-23.8,1.1-35.7,0.2c11.7,5.4,25.1,5.1,37.8,7.5c-4.4,0.9-8.7,1.7-13.1,2.6c-5,1-10,2-15.1,1.6c9.9,3.1,20.6,0.2,31.1-0.3
		c-4.8,2.2-9.8,3.9-15,4.8c-3.2,0.6-6.7,1.1-9,3.4c5.9-0.4,11.8-1.4,17.6-2.9c2.7-0.7,6.2-1.3,8.6-2.6c1.9-1.1,3.1-3.2,5.3-4.2
		c1.9-0.9,4-1.4,5.7-2.6c1.7-1.1,2.9-2.8,3.6-4.6l338.5,5.7l8.8-14.3c2.6-0.3,5.4,0.1,7.8,0.9c4.8,1.6,9.4,4.5,14.4,4.7
		c6.3,0.2,12.3-4.1,14.9-9.9c-4.5-0.7-8.4-3.4-12.7-4.8c-5.7-1.8-12.1-1.1-17.3,1.9C454.5,253.7,462.9,253.5,469.6,250.7z
		 M171.3,123.7c-0.1-0.3-0.3-0.5-0.4-0.8c0.9,0.4,1.8,0.8,2.8,1.1C172.9,123.9,172.1,123.8,171.3,123.7z M180.6,140.4
		c0.1,0.5,0.2,1,0.4,1.5c-0.3-0.6-0.6-1.1-0.9-1.7C180.2,140.3,180.4,140.3,180.6,140.4z M234.9,101.5c-1.2-0.4-2.4-0.9-3.6-1.3
		c0.1-0.2,0.2-0.4,0.3-0.6C232.7,100.2,233.8,100.8,234.9,101.5z M230.3,99.8c-4-1.3-8.1-2.5-12.3-3.5c0.4-1.4,0.7-2.7,1.1-4.1
		c3.9,2.3,7.7,4.5,11.6,6.8C230.6,99.3,230.5,99.6,230.3,99.8z M226.3,106.3c-0.7,1.2-1.4,2.3-2.1,3.5c-3.2-0.4-6.3-0.8-9.5-1.2
		c0.6-2.3,1.3-4.6,1.9-6.9C219.8,103.3,223,104.9,226.3,106.3z M252.9,125.8c-3.1,0.2-6.2,0.3-9.3,0.3c0.3-0.7,0.6-1.4,0.8-2.1
		C247.2,124.7,250,125.3,252.9,125.8z M258.6,135.6c-0.4,0.4-0.9,0.8-1.3,1.2c-6.2,0.3-12.4,0.8-18.5,1.5c0.7-1.9,1.5-3.8,2.2-5.6
		C246.8,133.9,252.7,134.9,258.6,135.6z M268.2,136.5c-1.2,0-2.5,0-3.7,0.1c0.1-0.1,0.1-0.2,0.2-0.3
		C265.8,136.3,267,136.4,268.2,136.5z M268.5,147.6c-0.1,0-0.1,0-0.2,0c0,0,0,0,0,0C268.4,147.6,268.4,147.6,268.5,147.6z M266,148
		c-3.2,0.4-6.3,0.9-9.5,1.3c0.3-0.5,0.7-1,1-1.6c2.9,0.1,5.8,0.1,8.7,0C266.1,147.8,266,147.9,266,148z M286.3,161.8
		c-0.2,0.1-0.5,0.3-0.7,0.4c0-0.1,0.1-0.2,0.1-0.3C285.9,161.8,286.1,161.8,286.3,161.8z M273.7,167.9c-5.8,2.4-11.7,4.4-17.8,5.9
		c1.1-2.8,2.2-5.5,3.4-8.3c6.4-0.7,12.7-1.4,19-2.4C276.7,164.6,275.2,166.2,273.7,167.9z M218,152.1c0.3,0.9,0.6,1.7,0.9,2.6
		c-0.4,0.1-0.7,0.1-1.1,0.2C217.9,153.9,218,153,218,152.1z M217.9,155.1c0.4,0,0.8,0,1.3,0c0.1,0.3,0.2,0.7,0.4,1
		c-0.6,0.9-1.2,1.8-1.8,2.7C217.7,157.5,217.8,156.3,217.9,155.1z M232.2,155c2.1,0,4.2,0,6.4,0c-2.6,2.9-5.2,5.8-7.7,8.8
		c-0.4-0.8-0.8-1.6-1.2-2.3C230.5,159.3,231.3,157.2,232.2,155z M233.1,152.6c0.9-2.4,1.9-4.8,2.8-7.2c3.4,0.6,6.9,1.2,10.3,1.5
		c-1.5,1.4-2.9,2.9-4.4,4.4C239,151.8,236.1,152.2,233.1,152.6z M186.1,159.7c-0.2,0.1-0.4,0.3-0.6,0.4c-3.2-0.2-6.4-0.3-9.6-0.5
		c1.2-0.4,2.3-0.7,3.5-1.1C181.7,158.9,183.9,159.4,186.1,159.7z M168.6,158.6l-3.8-1.2c0.8-0.6,1.7-1.1,2.5-1.7
		c1.1,0.3,2.2,0.6,3.3,0.8C170,157.2,169.3,157.9,168.6,158.6z M159,153.4c-0.4,0.6-0.9,1.2-1.3,1.8l-10.5-3.3
		c1.2-0.4,2.3-0.8,3.5-1.2C153.4,151.6,156.2,152.5,159,153.4z M146.3,149c-0.9,0.6-1.8,1.1-2.7,1.7l-15.6-4.9
		c1.8-0.8,3.6-1.5,5.5-2.1C137.7,145.5,141.9,147.3,146.3,149z M237.1,180.3c0.8-1.2,1.6-2.5,2.3-3.7c1.1-0.1,2.1-0.2,3.1-0.4
		c-1.3,1.5-2.5,3.1-3.8,4.6L237.1,180.3z M311.8,171.8c0-0.1,0-0.2,0-0.3c0,0,0,0,0.1,0C311.9,171.6,311.9,171.7,311.8,171.8z
		 M253.5,185.5c2.5-0.7,5-1.3,7.5-2c-0.8,1.2-1.7,2.4-2.5,3.6L253.5,185.5z M252.9,185.3l-0.9-0.3c1.1-3.6,2.3-7.2,3.7-10.8
		c4.7-0.6,9.4-1.3,14.1-1.9c-2.5,2.9-4.9,5.9-7.1,9C259.4,182.7,256.1,184,252.9,185.3z M242.7,176.1c-1.1,0.1-2.2,0.3-3.2,0.4
		c2.1-3.3,4.1-6.6,6.2-9.9c1.7-0.1,3.5-0.2,5.2-0.4C248.1,169.5,245.4,172.8,242.7,176.1z M247.2,164.2c1.9-3.1,3.8-6.1,5.8-9.2
		c2.4,0,4.8,0,7.2,0c-2.3,2.7-4.5,5.5-6.8,8.2C251.3,163.5,249.2,163.9,247.2,164.2z M230.5,139.4c-3.7,0.5-7.4,1.2-11.1,1.9
		c2.7,0.9,5.5,1.7,8.3,2.4c-1.6,2.5-3.3,5.1-5,7.6c-1.4-1.9-2.8-3.8-4.1-5.6c0.7-6.1,1.8-12.2,3.3-18.3c4.5,1.5,9,2.9,13.6,4
		C233.9,134,232.2,136.7,230.5,139.4z M206.4,138.8c2.3-8.6,4.7-17.1,7-25.7c2.3,1.1,4.5,2.1,6.8,3.1
		C215.7,123.7,211,131.2,206.4,138.8z M189.4,143.4c-0.6-0.1-1.2-0.2-1.8-0.3c-0.1-0.2-0.2-0.4-0.3-0.6c0.7,0.2,1.4,0.4,2,0.6
		C189.3,143.1,189.4,143.2,189.4,143.4z M172.4,138.4c-0.1-0.3-0.3-0.6-0.4-0.9c0.1,0,0.2,0.1,0.4,0.1
		C172.4,137.9,172.4,138.1,172.4,138.4z M139.4,137.5c-2.9-0.2-5.8-0.3-8.7-0.4c4.6-1,9.2-2,13.8-3
		C142.8,135.3,141.1,136.4,139.4,137.5z M123.6,138.7c2.6,1.4,5.3,2.7,8,4c-1.4,0.9-2.9,1.9-4.3,2.8l-1.6-0.5
		c-0.9-2.2-2-4.2-3.3-6.1C122.8,138.9,123.2,138.8,123.6,138.7z M82.3,232.7c0.6,2.7-2.4,4.5-5.4,5.1c-0.8-1-1.6-2-2.5-3
		C77.2,234.2,79.8,233.4,82.3,232.7z M399.9,104c0.6,1.3,1,2.7,1.2,4.2c0.1,0.6,0.1,1.4-0.3,1.9c-1.1,1.5-3.4,0.4-4.7-0.8
		c-0.3-0.2-0.5-0.5-0.8-0.7C396.9,107.2,398.5,105.6,399.9,104z M452.5,180.6c-0.6,0-1.2-0.1-1.7-0.1c-0.1-0.9-0.1-1.9-0.2-2.8
		c0.7,0.6,1.4,1.3,1.9,2.1C452.5,180,452.5,180.3,452.5,180.6z M446.6,188.4c-0.6-1.7-1.2-3.4-1.7-5.1c0.2,0.1,0.4,0.1,0.6,0.2
		c0.6,0.2,1.2,0.4,1.9,0.6c0.1,1.5,0.1,3,0.2,4.5C447.2,188.5,446.9,188.4,446.6,188.4z M442.1,172.4c1.6,1,3.3,1.9,5,2.8
		c0,1.5,0.1,2.9,0.1,4.4c-1.3-0.5-2.6-1.1-3.8-1.8C442.9,176,442.5,174.2,442.1,172.4z M452.2,187.6c0,0.1,0,0.2,0,0.3
		c-0.1-0.3-0.2-0.6-0.3-0.9C452,187.3,452.1,187.4,452.2,187.6z M438,179.1c0.2,0.4,0.5,0.7,0.8,1.1c0.1,0.1,0.3,0.2,0.4,0.4
		c0.2,1.8,0.4,3.6,0.6,5.4c-0.5-0.2-1.1-0.5-1.6-0.7c-0.5-0.3-1.1-0.5-1.6-0.5c-0.1,0-0.3,0.1-0.4,0.1c-0.2-0.5-0.4-0.9-0.6-1.4
		L438,179.1z M456.8,148.2c-0.1,0.2-0.1,0.4-0.2,0.7c-0.3-0.1-0.6-0.1-0.9-0.2l0.7-1.2C456.6,147.7,456.7,147.9,456.8,148.2z
		 M456.4,103.2c-0.4,0-0.8,0-1.2,0c0.1-2.7,0.2-5.3,0.3-8c0.9-0.2,1.8-0.3,2.7-0.5C457.4,97.5,456.9,100.4,456.4,103.2z
		 M451.5,102.9c-0.9-0.1-1.7-0.2-2.6-0.4c-0.1-2-0.2-4-0.3-6c1.2-0.2,2.3-0.4,3.5-0.6C451.8,98.2,451.6,100.5,451.5,102.9z
		 M439,124.4c-0.5-1.1-1-2.2-1.5-3.3c0.4,0.1,0.9,0.2,1.3,0.3C438.9,122.4,438.9,123.4,439,124.4z M435.2,126.1
		c-0.4-0.1-0.8-0.2-1.2-0.3c-1.5-2.2-2.9-4.4-4.2-6.7c1.1,0.3,2.2,0.7,3.3,1C433.8,122,434.6,124.1,435.2,126.1z M428.9,122.6
		c-0.9-0.9-1.4-2-1.6-3.2C427.8,120.5,428.4,121.6,428.9,122.6z M433.5,186.9c0.3,0.8,0.5,1.6,0.8,2.3c-0.1,1.7-0.1,3.4,0.1,5
		c-1-1.4-1.9-2.9-2.7-4.4L433.5,186.9z M467.3,183.8c1.1-0.3,2.2-0.6,3.3-0.9c-0.7,0.7-1.4,1.5-2,2.2
		C468.1,184.8,467.6,184.4,467.3,183.8z M465.3,102.4c-1.2,0.2-2.4,0.4-3.7,0.6c0.4-3,0.7-6.1,1-9.1c3-0.6,6-1.2,9-1.9
		C469.1,95.2,467.1,98.7,465.3,102.4z M442.6,97.9c0.4-0.4,1.1-0.6,1.7-0.7c0.4-0.1,0.8-0.1,1.2-0.2c0,1.5,0,3.1,0,4.6
		c-0.2-0.1-0.4-0.1-0.6-0.2C443.3,100.9,441.4,99.2,442.6,97.9z M408.9,99.7c-1.5-1-2.9-2.1-4.3-3.3c1-2.1,1.7-4.2,2.2-6.4
		C408.2,93.1,409.1,96.3,408.9,99.7z M370.4,118.6c0.8,0.9,1.6,1.7,2.4,2.6c-3.2,0.4-6.3,1.4-9.2,2.9c-0.1-0.1-0.2-0.3-0.3-0.4
		C365.2,121.4,367.7,119.8,370.4,118.6z M351.8,134.2c-0.4,4.7,0.4,9.5,2,13.8c0.5,1.3,1.1,2.6,1.7,4.1c-1.5,0.3-2.9,0.7-4.3,1.3
		c-2.8,1.2-5.2,2.9-7.3,5.1c1.7-6.1,3.3-12.1,5-18.2c-1.2,1.9-2.4,3.8-3.5,5.7c-0.3-2.2-0.8-4.4-1.2-6.5c0.3-0.4,0.5-0.8,0.8-1.1
		C346.8,136,349.2,134.8,351.8,134.2z M317.9,154.2c-1.5-1.3-3.1-2.4-4.9-3.4c0.6-3.8,1.3-7.6,2.2-11.4c0.3,0.9,0.6,1.8,1,2.6
		c1.1,2.4,2.6,4.8,4,7.2C319.4,150.9,318.6,152.5,317.9,154.2z M314,123.1c-0.7,3.8-0.7,7.8,0,11.6c-2.4,4.5-4.9,9-7.3,13.5
		c-0.7-0.2-1.3-0.5-2-0.7C307.8,139.4,310.9,131.2,314,123.1z M305.3,174.6c-9.5,3.5-19,7.2-28.4,11.1c0.8-2.1,1.6-4.3,2.4-6.4
		C287.9,177.5,296.6,175.9,305.3,174.6z M281.3,173.7c0.4-1,0.8-2.1,1.1-3.1c3.2-0.4,6.4-0.9,9.6-1.3
		C288.5,170.7,284.9,172.2,281.3,173.7z M279.2,154.9c-1.9,4-7,5.2-11.3,6c-2.3,0.4-4.7,0.8-7,1.1c1.1-2.4,2.3-4.7,3.5-7
		C269.3,154.9,274.2,154.9,279.2,154.9z M240.6,123.1c-0.6,1-1.3,2.1-1.9,3.1c-5.5,0-10.9-0.2-16.3-0.5c0.7-2.6,1.4-5.2,2.2-7.8
		C229.8,119.9,235.1,121.6,240.6,123.1z M227.2,110.2c0.4-1,0.8-2,1.1-3c3.5,1.5,7,3,10.6,4.4C235,111.2,231.1,110.7,227.2,110.2z
		 M230.5,91.5c-3.2-1.7-6.5-3.2-9.9-4.4c0.2-0.8,0.4-1.6,0.7-2.4C224.1,87.2,227.2,89.5,230.5,91.5z M206,62
		c2.5,6.8,6.3,13,11.1,18.4c-1.2,1.5-2.3,3-3.5,4.6c-3.3-0.8-6.7-1.4-10.2-1.8c2.7,1.6,5.3,3.1,8,4.7c-1.6,2.1-3.3,4.3-4.9,6.4
		c-1.8-0.3-3.6-0.5-5.4-0.7c1.4,0.8,2.8,1.6,4.2,2.3c-5.4,7-10.7,14-16.1,21.1C198.7,100,204.5,81.2,206,62z M169,122.1
		c0.1,0.4,0.3,0.8,0.4,1.3c-1.7-0.3-3.4-0.5-5.2-0.8c-0.6-1.1-1.2-2.2-1.9-3.3C164.5,120.2,166.7,121.2,169,122.1z M158.9,117.6
		c0.7,1.5,1.5,3,2.2,4.4c-2-0.4-4.1-0.7-6.1-1.1c-1.8-2.7-3.6-5.3-5.4-8C152.6,114.6,155.7,116.1,158.9,117.6z M137.8,106.2
		c2.1,1.3,4.2,2.5,6.3,3.7c1.7,3.3,3.4,6.6,5.2,9.8c-0.4-0.1-0.8-0.2-1.1-0.2C145,115.1,141.5,110.6,137.8,106.2z M142.7,125.2
		c0.5,0.8,1.1,1.6,1.6,2.5c-0.7-0.9-1.4-1.8-2.1-2.7C142.4,125,142.6,125.1,142.7,125.2z M128.3,125c-3.2,3-6.5,5.9-9.7,8.9
		c-1.2-1.3-2.4-2.5-3.7-3.7C119.9,129,124.4,127.3,128.3,125z M112.1,117c-2.1,2.1-4.2,4.2-6.3,6.3c-3-1.9-6.2-3.5-9.4-4.9
		C102,118.6,107.3,118.1,112.1,117z M99.9,105.3c0.5,0.5,1,1,1.6,1.4c-0.5-0.4-1-0.7-1.6-1.1C99.9,105.5,99.9,105.4,99.9,105.3z
		 M74,181.2c-0.4-0.2-0.8-0.4-1.2-0.6C73.2,180.8,73.6,181,74,181.2z M73,234.9c0.3,1.1,0.7,2.2,1.1,3.3c-1.4,0.2-2.7,0.4-3.9,0.9
		c-1.6-1.5-3.3-3-5.1-4.4C67.7,235.3,70.4,235.2,73,234.9z M430.3,192.4c0.1,0.2,0.2,0.5,0.4,0.7c1.1,2,2.2,4.6,3.6,6.6l-5.8-4.2
		L430.3,192.4z"/>
</g>
</svg>
